M48
;DRILL file {KiCad 0.201602161416+6560~42~ubuntu15.10.1-product} date Wed 17 Feb 2016 02:58:24 PM EST
;FORMAT={2:4/ absolute / inch / suppress trailing zeros}
FMAT,2
INCH,LZ
T1C0.008
T2C0.013
T3C0.020
T4C0.031
T5C0.040
T6C0.047
%
G90
G05
M72
T1
X056411Y-042871
X056411Y-043265
X056804Y-042871
X056804Y-043265
T2
X0492Y-04844
X0507Y-0475
X05088Y-05599
X05103Y-04545
X05128Y-04748
X05142Y-04388
X05168Y-0475
X0517Y-04702
X05232Y-05266
X05273Y-0376
X05307Y-0376
X05313Y-0561
X0534Y-04425
X05356Y-0521
X05376Y-04856
X0539Y-058
X05395Y-04105
X05416Y-0521
X05422Y-04856
X05438Y-0453
X05485Y-05805
X055325Y-042925
X05586Y-04232
X0559Y-05336
X05591Y-04046
X05596Y-05442
X0561Y-04864
X05614Y-047
X0564Y-05256
X056419Y-044261
X05655Y-05815
X05668Y-04044
X0567Y-04485
X05678Y-05498
X05702Y-0518
X0573Y-044
X05736Y-04232
X057549Y-047918
X05765Y-0451
X05766Y-0444
X057667Y-044741
X05779Y-047678
X05785Y-05815
X0579Y-0439
X0581Y-0573
X05815Y-0486
X05825Y-0449
X05835Y-04755
X059Y-0435
X0591Y-03745
X06035Y-0359
X0607Y-04706
X0607Y-0475
X06076Y-0435
X06085Y-04135
X06098Y-0496
X0612Y-04514
X06125Y-03735
X06133Y-04925
X06164Y-04482
X06165Y-04025
X0617Y-03735
X06196Y-04546
X06234Y-04812
T3
X05072Y-03974
X0508Y-05545
X05218Y-05807
X0522Y-04145
X05372Y-03741
X054948Y-042378
X0553Y-05695
X05575Y-0581
X05696Y-05586
X05758Y-04858
X05802Y-05633
X0582Y-0494
X05996Y-03745
X06059Y-04993
X06103Y-03594
T4
X0538Y-038416
X0538Y-040384
X0551Y-0394
T5
X0499Y-05066
X0499Y-05166
X0499Y-05266
X05002Y-03606
X05002Y-03706
T6
X04978Y-04275
X0498Y-04944
X04998Y-04516
X0515Y-035747
X05214Y-05578
X05328Y-0543
X05372Y-04508
X054Y-035747
X05616Y-05182
X05794Y-04626
X05812Y-05322
T0
M30
