G04 #@! TF.FileFunction,Copper,L2,Inr,Signal*
%FSLAX46Y46*%
G04 Gerber Fmt 4.6, Leading zero omitted, Abs format (unit mm)*
G04 Created by KiCad (PCBNEW 0.201602161416+6560~42~ubuntu15.10.1-product) date Wed 17 Feb 2016 02:58:19 PM EST*
%MOMM*%
G01*
G04 APERTURE LIST*
%ADD10C,0.100000*%
%ADD11R,2.032000X1.727200*%
%ADD12O,2.032000X1.727200*%
%ADD13C,1.680000*%
%ADD14C,1.150000*%
%ADD15R,2.032000X2.032000*%
%ADD16O,2.032000X2.032000*%
%ADD17C,1.600000*%
%ADD18C,0.457000*%
%ADD19C,0.863600*%
%ADD20C,0.685800*%
%ADD21C,0.254000*%
G04 APERTURE END LIST*
D10*
D11*
X126746000Y-133756400D03*
D12*
X126746000Y-131216400D03*
X126746000Y-128676400D03*
D13*
X147167600Y-117500400D03*
X126949200Y-114706400D03*
X142646400Y-131622800D03*
X135331200Y-137922000D03*
X132435600Y-141681200D03*
X147624800Y-135178800D03*
D14*
X139953000Y-100076000D03*
X136653000Y-102576000D03*
X136653000Y-97576000D03*
D15*
X127050800Y-91592400D03*
D16*
X127050800Y-94132400D03*
D17*
X137160000Y-90797000D03*
X130810000Y-90797000D03*
D13*
X126492000Y-125577600D03*
X136448800Y-114503200D03*
X126441200Y-108585000D03*
D18*
X144283400Y-109892800D03*
X143283400Y-109892800D03*
X144283400Y-108892800D03*
X143283400Y-108892800D03*
D19*
X139567000Y-107639200D03*
X136448800Y-95021400D03*
D20*
X148209000Y-120777000D03*
X155778200Y-125095000D03*
X154889200Y-125984000D03*
X134950200Y-142494000D03*
X130606800Y-111455200D03*
X142494000Y-123545600D03*
X142138400Y-138226800D03*
X131267200Y-120650000D03*
X137718800Y-123342400D03*
X124968000Y-123037600D03*
X128778000Y-120650000D03*
X136042400Y-132334000D03*
X139319000Y-147447000D03*
X136906000Y-147320000D03*
X146939000Y-147701000D03*
X143637000Y-147701000D03*
X147574000Y-145542000D03*
X135636000Y-112395000D03*
X146431000Y-114554000D03*
X129235200Y-142214600D03*
X142011400Y-102768400D03*
X143967200Y-102717600D03*
D19*
X153898600Y-126822200D03*
X141605000Y-147574000D03*
X128828800Y-100939600D03*
X144678400Y-141884400D03*
X132537200Y-147497800D03*
D20*
X137033000Y-104267000D03*
D19*
X155016200Y-91287600D03*
X132588000Y-105283000D03*
X147828000Y-125476000D03*
D20*
X144830800Y-131572000D03*
X129616200Y-115443000D03*
X138125200Y-115062000D03*
X130251200Y-120599200D03*
X132892800Y-133756400D03*
X137566400Y-132334000D03*
X145542000Y-111760000D03*
D19*
X140462000Y-144653000D03*
X147370800Y-143078200D03*
X152298400Y-95123000D03*
X146253200Y-123393200D03*
X129032000Y-140843000D03*
D20*
X144221200Y-139649200D03*
X142595600Y-119380000D03*
X136550400Y-123342400D03*
X131318000Y-119430800D03*
X143256000Y-133502400D03*
X141986000Y-135534400D03*
X134797800Y-95504000D03*
X146786335Y-121101162D03*
X133934200Y-95504000D03*
X146175679Y-121711818D03*
X145694400Y-107492800D03*
X150114000Y-95123000D03*
X143304518Y-112422682D03*
X153289000Y-91186000D03*
X144018000Y-113919000D03*
X155575000Y-94869000D03*
X156591000Y-102235000D03*
X156718000Y-94869000D03*
X147955000Y-114046000D03*
X154559000Y-105029000D03*
X146474272Y-113643272D03*
X140524520Y-109030673D03*
X141884400Y-107492800D03*
X146456400Y-112776000D03*
X154330400Y-110490000D03*
X149860000Y-110490000D03*
X147701000Y-123444000D03*
X147066000Y-111506000D03*
X158343600Y-122224800D03*
X155448000Y-114655600D03*
X157378400Y-115468400D03*
X154178000Y-119532400D03*
X154178000Y-120650000D03*
X156565600Y-113842800D03*
D21*
G36*
X125399800Y-90450090D02*
X125399800Y-91306650D01*
X125558550Y-91465400D01*
X126923800Y-91465400D01*
X126923800Y-91445400D01*
X127177800Y-91445400D01*
X127177800Y-91465400D01*
X128543050Y-91465400D01*
X128701800Y-91306650D01*
X128701800Y-90450090D01*
X128616849Y-90245000D01*
X129483527Y-90245000D01*
X129363035Y-90580223D01*
X129390222Y-91150454D01*
X129556136Y-91551005D01*
X129802255Y-91625139D01*
X130630395Y-90797000D01*
X130616252Y-90782858D01*
X130795858Y-90603253D01*
X130810000Y-90617395D01*
X130824143Y-90603253D01*
X131003748Y-90782858D01*
X130989605Y-90797000D01*
X131817745Y-91625139D01*
X132063864Y-91551005D01*
X132256965Y-91013777D01*
X132229778Y-90443546D01*
X132147537Y-90245000D01*
X135833527Y-90245000D01*
X135713035Y-90580223D01*
X135740222Y-91150454D01*
X135906136Y-91551005D01*
X136152255Y-91625139D01*
X136980395Y-90797000D01*
X136966252Y-90782858D01*
X137145858Y-90603253D01*
X137160000Y-90617395D01*
X137174143Y-90603253D01*
X137353748Y-90782858D01*
X137339605Y-90797000D01*
X138167745Y-91625139D01*
X138413864Y-91551005D01*
X138606965Y-91013777D01*
X138579778Y-90443546D01*
X138497537Y-90245000D01*
X153005623Y-90245000D01*
X152735788Y-90356493D01*
X152460460Y-90631341D01*
X152311270Y-90990630D01*
X152310931Y-91379663D01*
X152459493Y-91739212D01*
X152734341Y-92014540D01*
X153093630Y-92163730D01*
X153482663Y-92164069D01*
X153842212Y-92015507D01*
X154117540Y-91740659D01*
X154266730Y-91381370D01*
X154267069Y-90992337D01*
X154118507Y-90632788D01*
X153843659Y-90357460D01*
X153572826Y-90245000D01*
X158802000Y-90245000D01*
X158802000Y-121356290D01*
X158538970Y-121247070D01*
X158149937Y-121246731D01*
X157790388Y-121395293D01*
X157515060Y-121670141D01*
X157365870Y-122029430D01*
X157365531Y-122418463D01*
X157514093Y-122778012D01*
X157788941Y-123053340D01*
X158148230Y-123202530D01*
X158537263Y-123202869D01*
X158802000Y-123093482D01*
X158802000Y-128397000D01*
X148971000Y-128397000D01*
X148922399Y-128406667D01*
X148881197Y-128434197D01*
X148853667Y-128475399D01*
X148844000Y-128524000D01*
X148844000Y-134312342D01*
X148461411Y-133929085D01*
X147919483Y-133704057D01*
X147332692Y-133703544D01*
X146790371Y-133927627D01*
X146375085Y-134342189D01*
X146150057Y-134884117D01*
X146149544Y-135470908D01*
X146373627Y-136013229D01*
X146788189Y-136428515D01*
X147330117Y-136653543D01*
X147916908Y-136654056D01*
X148459229Y-136429973D01*
X148844000Y-136045873D01*
X148844000Y-147880000D01*
X125043000Y-147880000D01*
X125043000Y-145507824D01*
X137573808Y-145507824D01*
X137742439Y-145915943D01*
X138054415Y-146228463D01*
X138462239Y-146397807D01*
X138903824Y-146398192D01*
X139311943Y-146229561D01*
X139624463Y-145917585D01*
X139703120Y-145728157D01*
X143839837Y-145728157D01*
X143982642Y-146073772D01*
X144246837Y-146338429D01*
X144592202Y-146481837D01*
X144966157Y-146482163D01*
X145311772Y-146339358D01*
X145576429Y-146075163D01*
X145719837Y-145729798D01*
X145720163Y-145355843D01*
X145577358Y-145010228D01*
X145313163Y-144745571D01*
X144967798Y-144602163D01*
X144593843Y-144601837D01*
X144248228Y-144744642D01*
X143983571Y-145008837D01*
X143840163Y-145354202D01*
X143839837Y-145728157D01*
X139703120Y-145728157D01*
X139793807Y-145509761D01*
X139793821Y-145493656D01*
X139856917Y-145556862D01*
X140248869Y-145719615D01*
X140673269Y-145719985D01*
X141065504Y-145557916D01*
X141365862Y-145258083D01*
X141528615Y-144866131D01*
X141528985Y-144441731D01*
X141366916Y-144049496D01*
X141067083Y-143749138D01*
X140675131Y-143586385D01*
X140250731Y-143586015D01*
X139858496Y-143748084D01*
X139558138Y-144047917D01*
X139398432Y-144432532D01*
X139313585Y-144347537D01*
X138905761Y-144178193D01*
X138464176Y-144177808D01*
X138056057Y-144346439D01*
X137743537Y-144658415D01*
X137574193Y-145066239D01*
X137573808Y-145507824D01*
X125043000Y-145507824D01*
X125043000Y-144491824D01*
X133865808Y-144491824D01*
X134034439Y-144899943D01*
X134346415Y-145212463D01*
X134754239Y-145381807D01*
X135195824Y-145382192D01*
X135603943Y-145213561D01*
X135916463Y-144901585D01*
X136085807Y-144493761D01*
X136086192Y-144052176D01*
X135917561Y-143644057D01*
X135605585Y-143331537D01*
X135504275Y-143289469D01*
X146303815Y-143289469D01*
X146465884Y-143681704D01*
X146765717Y-143982062D01*
X147157669Y-144144815D01*
X147582069Y-144145185D01*
X147974304Y-143983116D01*
X148274662Y-143683283D01*
X148437415Y-143291331D01*
X148437785Y-142866931D01*
X148275716Y-142474696D01*
X147975883Y-142174338D01*
X147583931Y-142011585D01*
X147159531Y-142011215D01*
X146767296Y-142173284D01*
X146466938Y-142473117D01*
X146304185Y-142865069D01*
X146303815Y-143289469D01*
X135504275Y-143289469D01*
X135197761Y-143162193D01*
X134756176Y-143161808D01*
X134348057Y-143330439D01*
X134035537Y-143642415D01*
X133866193Y-144050239D01*
X133865808Y-144491824D01*
X125043000Y-144491824D01*
X125043000Y-141973308D01*
X130960344Y-141973308D01*
X131184427Y-142515629D01*
X131598989Y-142930915D01*
X132140917Y-143155943D01*
X132727708Y-143156456D01*
X133270029Y-142932373D01*
X133685315Y-142517811D01*
X133910343Y-141975883D01*
X133910856Y-141389092D01*
X133686773Y-140846771D01*
X133272211Y-140431485D01*
X132730283Y-140206457D01*
X132143492Y-140205944D01*
X131601171Y-140430027D01*
X131185885Y-140844589D01*
X130960857Y-141386517D01*
X130960344Y-141973308D01*
X125043000Y-141973308D01*
X125043000Y-141054269D01*
X127965015Y-141054269D01*
X128127084Y-141446504D01*
X128426917Y-141746862D01*
X128818869Y-141909615D01*
X129243269Y-141909985D01*
X129635504Y-141747916D01*
X129935862Y-141448083D01*
X130098615Y-141056131D01*
X130098985Y-140631731D01*
X129936916Y-140239496D01*
X129637083Y-139939138D01*
X129405228Y-139842863D01*
X143243131Y-139842863D01*
X143391693Y-140202412D01*
X143666541Y-140477740D01*
X144025830Y-140626930D01*
X144414863Y-140627269D01*
X144774412Y-140478707D01*
X145049740Y-140203859D01*
X145198930Y-139844570D01*
X145199269Y-139455537D01*
X145050707Y-139095988D01*
X144775859Y-138820660D01*
X144416570Y-138671470D01*
X144027537Y-138671131D01*
X143667988Y-138819693D01*
X143392660Y-139094541D01*
X143243470Y-139453830D01*
X143243131Y-139842863D01*
X129405228Y-139842863D01*
X129245131Y-139776385D01*
X128820731Y-139776015D01*
X128428496Y-139938084D01*
X128128138Y-140237917D01*
X127965385Y-140629869D01*
X127965015Y-141054269D01*
X125043000Y-141054269D01*
X125043000Y-137266795D01*
X129740716Y-137266795D01*
X129989106Y-137867943D01*
X130448637Y-138328278D01*
X131049352Y-138577716D01*
X131699795Y-138578284D01*
X132300943Y-138329894D01*
X132416931Y-138214108D01*
X133855944Y-138214108D01*
X134080027Y-138756429D01*
X134494589Y-139171715D01*
X135036517Y-139396743D01*
X135623308Y-139397256D01*
X136165629Y-139173173D01*
X136580915Y-138758611D01*
X136805943Y-138216683D01*
X136806456Y-137629892D01*
X136582373Y-137087571D01*
X136167811Y-136672285D01*
X135625883Y-136447257D01*
X135039092Y-136446744D01*
X134496771Y-136670827D01*
X134081485Y-137085389D01*
X133856457Y-137627317D01*
X133855944Y-138214108D01*
X132416931Y-138214108D01*
X132761278Y-137870363D01*
X133010716Y-137269648D01*
X133011284Y-136619205D01*
X132762894Y-136018057D01*
X132473407Y-135728063D01*
X141007931Y-135728063D01*
X141156493Y-136087612D01*
X141431341Y-136362940D01*
X141790630Y-136512130D01*
X142179663Y-136512469D01*
X142539212Y-136363907D01*
X142814540Y-136089059D01*
X142963730Y-135729770D01*
X142964069Y-135340737D01*
X142815507Y-134981188D01*
X142540659Y-134705860D01*
X142181370Y-134556670D01*
X141792337Y-134556331D01*
X141432788Y-134704893D01*
X141157460Y-134979741D01*
X141008270Y-135339030D01*
X141007931Y-135728063D01*
X132473407Y-135728063D01*
X132303363Y-135557722D01*
X131702648Y-135308284D01*
X131052205Y-135307716D01*
X130451057Y-135556106D01*
X129990722Y-136015637D01*
X129741284Y-136616352D01*
X129740716Y-137266795D01*
X125043000Y-137266795D01*
X125043000Y-128676400D01*
X125062655Y-128676400D01*
X125176729Y-129249889D01*
X125501585Y-129736070D01*
X125816366Y-129946400D01*
X125501585Y-130156730D01*
X125176729Y-130642911D01*
X125062655Y-131216400D01*
X125176729Y-131789889D01*
X125501585Y-132276070D01*
X125518566Y-132287416D01*
X125482235Y-132294643D01*
X125272191Y-132434991D01*
X125131843Y-132645035D01*
X125082560Y-132892800D01*
X125082560Y-134620000D01*
X125131843Y-134867765D01*
X125272191Y-135077809D01*
X125482235Y-135218157D01*
X125730000Y-135267440D01*
X127762000Y-135267440D01*
X128009765Y-135218157D01*
X128219809Y-135077809D01*
X128360157Y-134867765D01*
X128409440Y-134620000D01*
X128409440Y-133950063D01*
X131914731Y-133950063D01*
X132063293Y-134309612D01*
X132338141Y-134584940D01*
X132697430Y-134734130D01*
X133086463Y-134734469D01*
X133446012Y-134585907D01*
X133721340Y-134311059D01*
X133870530Y-133951770D01*
X133870869Y-133562737D01*
X133722307Y-133203188D01*
X133447459Y-132927860D01*
X133088170Y-132778670D01*
X132699137Y-132778331D01*
X132339588Y-132926893D01*
X132064260Y-133201741D01*
X131915070Y-133561030D01*
X131914731Y-133950063D01*
X128409440Y-133950063D01*
X128409440Y-132892800D01*
X128360157Y-132645035D01*
X128281731Y-132527663D01*
X136588331Y-132527663D01*
X136736893Y-132887212D01*
X137011741Y-133162540D01*
X137371030Y-133311730D01*
X137760063Y-133312069D01*
X138119612Y-133163507D01*
X138394940Y-132888659D01*
X138544130Y-132529370D01*
X138544469Y-132140337D01*
X138451325Y-131914908D01*
X141171144Y-131914908D01*
X141395227Y-132457229D01*
X141809789Y-132872515D01*
X142351717Y-133097543D01*
X142365252Y-133097555D01*
X142278270Y-133307030D01*
X142277931Y-133696063D01*
X142426493Y-134055612D01*
X142701341Y-134330940D01*
X143060630Y-134480130D01*
X143449663Y-134480469D01*
X143809212Y-134331907D01*
X144084540Y-134057059D01*
X144233730Y-133697770D01*
X144234069Y-133308737D01*
X144085507Y-132949188D01*
X143810659Y-132673860D01*
X143719295Y-132635922D01*
X143896115Y-132459411D01*
X144025018Y-132148978D01*
X144276141Y-132400540D01*
X144635430Y-132549730D01*
X145024463Y-132550069D01*
X145384012Y-132401507D01*
X145659340Y-132126659D01*
X145808530Y-131767370D01*
X145808869Y-131378337D01*
X145660307Y-131018788D01*
X145385459Y-130743460D01*
X145026170Y-130594270D01*
X144637137Y-130593931D01*
X144277588Y-130742493D01*
X144002260Y-131017341D01*
X143997208Y-131029507D01*
X143897573Y-130788371D01*
X143483011Y-130373085D01*
X142941083Y-130148057D01*
X142354292Y-130147544D01*
X141811971Y-130371627D01*
X141396685Y-130786189D01*
X141171657Y-131328117D01*
X141171144Y-131914908D01*
X138451325Y-131914908D01*
X138395907Y-131780788D01*
X138121059Y-131505460D01*
X137761770Y-131356270D01*
X137372737Y-131355931D01*
X137013188Y-131504493D01*
X136737860Y-131779341D01*
X136588670Y-132138630D01*
X136588331Y-132527663D01*
X128281731Y-132527663D01*
X128219809Y-132434991D01*
X128009765Y-132294643D01*
X127973434Y-132287416D01*
X127990415Y-132276070D01*
X128315271Y-131789889D01*
X128429345Y-131216400D01*
X128315271Y-130642911D01*
X127990415Y-130156730D01*
X127675634Y-129946400D01*
X127990415Y-129736070D01*
X128315271Y-129249889D01*
X128429345Y-128676400D01*
X128315271Y-128102911D01*
X127990415Y-127616730D01*
X127504234Y-127291874D01*
X126930745Y-127177800D01*
X126561255Y-127177800D01*
X125987766Y-127291874D01*
X125501585Y-127616730D01*
X125176729Y-128102911D01*
X125062655Y-128676400D01*
X125043000Y-128676400D01*
X125043000Y-125933252D01*
X125240827Y-126412029D01*
X125655389Y-126827315D01*
X126197317Y-127052343D01*
X126784108Y-127052856D01*
X127326429Y-126828773D01*
X127741715Y-126414211D01*
X127966743Y-125872283D01*
X127967256Y-125285492D01*
X127743173Y-124743171D01*
X127328611Y-124327885D01*
X126786683Y-124102857D01*
X126199892Y-124102344D01*
X125657571Y-124326427D01*
X125242285Y-124740989D01*
X125043000Y-125220921D01*
X125043000Y-123536063D01*
X135572331Y-123536063D01*
X135720893Y-123895612D01*
X135995741Y-124170940D01*
X136355030Y-124320130D01*
X136744063Y-124320469D01*
X137103612Y-124171907D01*
X137378940Y-123897059D01*
X137500434Y-123604469D01*
X145186215Y-123604469D01*
X145348284Y-123996704D01*
X145648117Y-124297062D01*
X146040069Y-124459815D01*
X146464469Y-124460185D01*
X146856704Y-124298116D01*
X147014564Y-124140532D01*
X147146341Y-124272540D01*
X147505630Y-124421730D01*
X147585789Y-124421800D01*
X147224496Y-124571084D01*
X146924138Y-124870917D01*
X146761385Y-125262869D01*
X146761015Y-125687269D01*
X146923084Y-126079504D01*
X147222917Y-126379862D01*
X147614869Y-126542615D01*
X148039269Y-126542985D01*
X148431504Y-126380916D01*
X148731862Y-126081083D01*
X148894615Y-125689131D01*
X148894985Y-125264731D01*
X148732916Y-124872496D01*
X148433083Y-124572138D01*
X148041131Y-124409385D01*
X147925605Y-124409284D01*
X148254212Y-124273507D01*
X148529540Y-123998659D01*
X148678730Y-123639370D01*
X148679069Y-123250337D01*
X148530507Y-122890788D01*
X148255659Y-122615460D01*
X147896370Y-122466270D01*
X147507337Y-122465931D01*
X147147788Y-122614493D01*
X147065360Y-122696777D01*
X146858283Y-122489338D01*
X146803681Y-122466665D01*
X147004219Y-122266477D01*
X147103089Y-122028371D01*
X147339547Y-121930669D01*
X147614875Y-121655821D01*
X147641214Y-121592390D01*
X147654341Y-121605540D01*
X148013630Y-121754730D01*
X148402663Y-121755069D01*
X148762212Y-121606507D01*
X149037540Y-121331659D01*
X149186730Y-120972370D01*
X149187069Y-120583337D01*
X149038507Y-120223788D01*
X148763659Y-119948460D01*
X148404370Y-119799270D01*
X148015337Y-119798931D01*
X147655788Y-119947493D01*
X147380460Y-120222341D01*
X147354121Y-120285772D01*
X147340994Y-120272622D01*
X146981705Y-120123432D01*
X146592672Y-120123093D01*
X146233123Y-120271655D01*
X145957795Y-120546503D01*
X145858925Y-120784609D01*
X145622467Y-120882311D01*
X145347139Y-121157159D01*
X145197949Y-121516448D01*
X145197610Y-121905481D01*
X145346172Y-122265030D01*
X145609296Y-122528613D01*
X145349338Y-122788117D01*
X145186585Y-123180069D01*
X145186215Y-123604469D01*
X137500434Y-123604469D01*
X137528130Y-123537770D01*
X137528469Y-123148737D01*
X137379907Y-122789188D01*
X137105059Y-122513860D01*
X136745770Y-122364670D01*
X136356737Y-122364331D01*
X135997188Y-122512893D01*
X135721860Y-122787741D01*
X135572670Y-123147030D01*
X135572331Y-123536063D01*
X125043000Y-123536063D01*
X125043000Y-120792863D01*
X129273131Y-120792863D01*
X129421693Y-121152412D01*
X129696541Y-121427740D01*
X130055830Y-121576930D01*
X130444863Y-121577269D01*
X130804412Y-121428707D01*
X131079740Y-121153859D01*
X131228930Y-120794570D01*
X131229266Y-120408623D01*
X131511663Y-120408869D01*
X131871212Y-120260307D01*
X132146540Y-119985459D01*
X132295730Y-119626170D01*
X132295775Y-119573663D01*
X141617531Y-119573663D01*
X141766093Y-119933212D01*
X142040941Y-120208540D01*
X142400230Y-120357730D01*
X142789263Y-120358069D01*
X143148812Y-120209507D01*
X143424140Y-119934659D01*
X143510756Y-119726063D01*
X153199931Y-119726063D01*
X153348493Y-120085612D01*
X153353840Y-120090968D01*
X153349460Y-120095341D01*
X153200270Y-120454630D01*
X153199931Y-120843663D01*
X153348493Y-121203212D01*
X153623341Y-121478540D01*
X153982630Y-121627730D01*
X154371663Y-121628069D01*
X154731212Y-121479507D01*
X155006540Y-121204659D01*
X155155730Y-120845370D01*
X155156069Y-120456337D01*
X155007507Y-120096788D01*
X155002160Y-120091432D01*
X155006540Y-120087059D01*
X155155730Y-119727770D01*
X155156069Y-119338737D01*
X155007507Y-118979188D01*
X154732659Y-118703860D01*
X154373370Y-118554670D01*
X153984337Y-118554331D01*
X153624788Y-118702893D01*
X153349460Y-118977741D01*
X153200270Y-119337030D01*
X153199931Y-119726063D01*
X143510756Y-119726063D01*
X143573330Y-119575370D01*
X143573669Y-119186337D01*
X143425107Y-118826788D01*
X143150259Y-118551460D01*
X142790970Y-118402270D01*
X142401937Y-118401931D01*
X142042388Y-118550493D01*
X141767060Y-118825341D01*
X141617870Y-119184630D01*
X141617531Y-119573663D01*
X132295775Y-119573663D01*
X132296069Y-119237137D01*
X132147507Y-118877588D01*
X131872659Y-118602260D01*
X131513370Y-118453070D01*
X131124337Y-118452731D01*
X130764788Y-118601293D01*
X130489460Y-118876141D01*
X130340270Y-119235430D01*
X130339934Y-119621377D01*
X130057537Y-119621131D01*
X129697988Y-119769693D01*
X129422660Y-120044541D01*
X129273470Y-120403830D01*
X129273131Y-120792863D01*
X125043000Y-120792863D01*
X125043000Y-117792508D01*
X145692344Y-117792508D01*
X145916427Y-118334829D01*
X146330989Y-118750115D01*
X146872917Y-118975143D01*
X147459708Y-118975656D01*
X148002029Y-118751573D01*
X148417315Y-118337011D01*
X148642343Y-117795083D01*
X148642856Y-117208292D01*
X148418773Y-116665971D01*
X148004211Y-116250685D01*
X147462283Y-116025657D01*
X146875492Y-116025144D01*
X146333171Y-116249227D01*
X145917885Y-116663789D01*
X145692857Y-117205717D01*
X145692344Y-117792508D01*
X125043000Y-117792508D01*
X125043000Y-114998508D01*
X125473944Y-114998508D01*
X125698027Y-115540829D01*
X126112589Y-115956115D01*
X126654517Y-116181143D01*
X127241308Y-116181656D01*
X127783629Y-115957573D01*
X128105099Y-115636663D01*
X128638131Y-115636663D01*
X128786693Y-115996212D01*
X129061541Y-116271540D01*
X129420830Y-116420730D01*
X129809863Y-116421069D01*
X130169412Y-116272507D01*
X130444740Y-115997659D01*
X130593930Y-115638370D01*
X130594269Y-115249337D01*
X130445707Y-114889788D01*
X130351392Y-114795308D01*
X134973544Y-114795308D01*
X135197627Y-115337629D01*
X135612189Y-115752915D01*
X136154117Y-115977943D01*
X136740908Y-115978456D01*
X137283229Y-115754373D01*
X137359052Y-115678682D01*
X137570541Y-115890540D01*
X137929830Y-116039730D01*
X138318863Y-116040069D01*
X138678412Y-115891507D01*
X138953740Y-115616659D01*
X139102930Y-115257370D01*
X139103269Y-114868337D01*
X138954707Y-114508788D01*
X138679859Y-114233460D01*
X138320570Y-114084270D01*
X137931537Y-114083931D01*
X137880267Y-114105115D01*
X137699973Y-113668771D01*
X137285411Y-113253485D01*
X136743483Y-113028457D01*
X136156692Y-113027944D01*
X135614371Y-113252027D01*
X135199085Y-113666589D01*
X134974057Y-114208517D01*
X134973544Y-114795308D01*
X130351392Y-114795308D01*
X130170859Y-114614460D01*
X129811570Y-114465270D01*
X129422537Y-114464931D01*
X129062988Y-114613493D01*
X128787660Y-114888341D01*
X128638470Y-115247630D01*
X128638131Y-115636663D01*
X128105099Y-115636663D01*
X128198915Y-115543011D01*
X128423943Y-115001083D01*
X128424456Y-114414292D01*
X128200373Y-113871971D01*
X127785811Y-113456685D01*
X127243883Y-113231657D01*
X126657092Y-113231144D01*
X126114771Y-113455227D01*
X125699485Y-113869789D01*
X125474457Y-114411717D01*
X125473944Y-114998508D01*
X125043000Y-114998508D01*
X125043000Y-112616345D01*
X142326449Y-112616345D01*
X142475011Y-112975894D01*
X142749859Y-113251222D01*
X143109148Y-113400412D01*
X143174458Y-113400469D01*
X143040270Y-113723630D01*
X143039931Y-114112663D01*
X143188493Y-114472212D01*
X143463341Y-114747540D01*
X143822630Y-114896730D01*
X144211663Y-114897069D01*
X144571212Y-114748507D01*
X144846540Y-114473659D01*
X144995730Y-114114370D01*
X144996069Y-113725337D01*
X144847507Y-113365788D01*
X144572659Y-113090460D01*
X144213370Y-112941270D01*
X144148060Y-112941213D01*
X144282248Y-112618052D01*
X144282587Y-112229019D01*
X144168813Y-111953663D01*
X144563931Y-111953663D01*
X144712493Y-112313212D01*
X144987341Y-112588540D01*
X145346630Y-112737730D01*
X145478533Y-112737845D01*
X145478331Y-112969663D01*
X145586460Y-113231356D01*
X145496542Y-113447902D01*
X145496203Y-113836935D01*
X145644765Y-114196484D01*
X145919613Y-114471812D01*
X146278902Y-114621002D01*
X146667935Y-114621341D01*
X147027484Y-114472779D01*
X147059887Y-114440433D01*
X147125493Y-114599212D01*
X147400341Y-114874540D01*
X147759630Y-115023730D01*
X148148663Y-115024069D01*
X148508212Y-114875507D01*
X148534501Y-114849263D01*
X154469931Y-114849263D01*
X154618493Y-115208812D01*
X154893341Y-115484140D01*
X155252630Y-115633330D01*
X155641663Y-115633669D01*
X156001212Y-115485107D01*
X156276540Y-115210259D01*
X156425730Y-114850970D01*
X156425756Y-114820578D01*
X156642996Y-114820768D01*
X156549860Y-114913741D01*
X156400670Y-115273030D01*
X156400331Y-115662063D01*
X156548893Y-116021612D01*
X156823741Y-116296940D01*
X157183030Y-116446130D01*
X157572063Y-116446469D01*
X157931612Y-116297907D01*
X158206940Y-116023059D01*
X158356130Y-115663770D01*
X158356469Y-115274737D01*
X158207907Y-114915188D01*
X157933059Y-114639860D01*
X157573770Y-114490670D01*
X157301004Y-114490432D01*
X157394140Y-114397459D01*
X157543330Y-114038170D01*
X157543669Y-113649137D01*
X157395107Y-113289588D01*
X157120259Y-113014260D01*
X156760970Y-112865070D01*
X156371937Y-112864731D01*
X156012388Y-113013293D01*
X155737060Y-113288141D01*
X155587870Y-113647430D01*
X155587844Y-113677822D01*
X155254337Y-113677531D01*
X154894788Y-113826093D01*
X154619460Y-114100941D01*
X154470270Y-114460230D01*
X154469931Y-114849263D01*
X148534501Y-114849263D01*
X148783540Y-114600659D01*
X148932730Y-114241370D01*
X148933069Y-113852337D01*
X148784507Y-113492788D01*
X148509659Y-113217460D01*
X148150370Y-113068270D01*
X147761337Y-113067931D01*
X147401788Y-113216493D01*
X147369385Y-113248839D01*
X147344212Y-113187916D01*
X147434130Y-112971370D01*
X147434469Y-112582337D01*
X147374295Y-112436704D01*
X147619212Y-112335507D01*
X147894540Y-112060659D01*
X148043730Y-111701370D01*
X148044069Y-111312337D01*
X147895507Y-110952788D01*
X147626852Y-110683663D01*
X148881931Y-110683663D01*
X149030493Y-111043212D01*
X149305341Y-111318540D01*
X149664630Y-111467730D01*
X150053663Y-111468069D01*
X150413212Y-111319507D01*
X150688540Y-111044659D01*
X150837730Y-110685370D01*
X150837731Y-110683663D01*
X153352331Y-110683663D01*
X153500893Y-111043212D01*
X153775741Y-111318540D01*
X154135030Y-111467730D01*
X154524063Y-111468069D01*
X154883612Y-111319507D01*
X155158940Y-111044659D01*
X155308130Y-110685370D01*
X155308469Y-110296337D01*
X155159907Y-109936788D01*
X154885059Y-109661460D01*
X154525770Y-109512270D01*
X154136737Y-109511931D01*
X153777188Y-109660493D01*
X153501860Y-109935341D01*
X153352670Y-110294630D01*
X153352331Y-110683663D01*
X150837731Y-110683663D01*
X150838069Y-110296337D01*
X150689507Y-109936788D01*
X150414659Y-109661460D01*
X150055370Y-109512270D01*
X149666337Y-109511931D01*
X149306788Y-109660493D01*
X149031460Y-109935341D01*
X148882270Y-110294630D01*
X148881931Y-110683663D01*
X147626852Y-110683663D01*
X147620659Y-110677460D01*
X147261370Y-110528270D01*
X146872337Y-110527931D01*
X146512788Y-110676493D01*
X146237460Y-110951341D01*
X146201928Y-111036912D01*
X146096659Y-110931460D01*
X145737370Y-110782270D01*
X145348337Y-110781931D01*
X144988788Y-110930493D01*
X144713460Y-111205341D01*
X144564270Y-111564630D01*
X144563931Y-111953663D01*
X144168813Y-111953663D01*
X144134025Y-111869470D01*
X143859177Y-111594142D01*
X143499888Y-111444952D01*
X143110855Y-111444613D01*
X142751306Y-111593175D01*
X142475978Y-111868023D01*
X142326788Y-112227312D01*
X142326449Y-112616345D01*
X125043000Y-112616345D01*
X125043000Y-109063597D01*
X125190027Y-109419429D01*
X125604589Y-109834715D01*
X126146517Y-110059743D01*
X126733308Y-110060256D01*
X127275629Y-109836173D01*
X127690915Y-109421611D01*
X127915943Y-108879683D01*
X127916456Y-108292892D01*
X127733651Y-107850469D01*
X138500015Y-107850469D01*
X138662084Y-108242704D01*
X138961917Y-108543062D01*
X139353869Y-108705815D01*
X139600469Y-108706030D01*
X139546790Y-108835303D01*
X139546451Y-109224336D01*
X139695013Y-109583885D01*
X139969861Y-109859213D01*
X140329150Y-110008403D01*
X140718183Y-110008742D01*
X141077732Y-109860180D01*
X141353060Y-109585332D01*
X141502250Y-109226043D01*
X141502589Y-108837010D01*
X141487339Y-108800101D01*
X142407876Y-108800101D01*
X142439047Y-109142206D01*
X142509996Y-109313491D01*
X142619744Y-109314876D01*
X142572806Y-109361814D01*
X142603792Y-109392800D01*
X142572806Y-109423786D01*
X142619744Y-109470724D01*
X142509996Y-109472109D01*
X142407876Y-109800101D01*
X142439047Y-110142206D01*
X142509996Y-110313491D01*
X142698753Y-110315873D01*
X143121826Y-109892800D01*
X143098668Y-109869642D01*
X143200917Y-109767393D01*
X143352107Y-109753617D01*
X143408807Y-109810317D01*
X143422583Y-109961507D01*
X143306558Y-110077532D01*
X143283400Y-110054374D01*
X142860327Y-110477447D01*
X142862709Y-110666204D01*
X143190701Y-110768324D01*
X143532806Y-110737153D01*
X143704091Y-110666204D01*
X143705476Y-110556456D01*
X143752414Y-110603394D01*
X143783400Y-110572408D01*
X143814386Y-110603394D01*
X143861324Y-110556456D01*
X143862709Y-110666204D01*
X144190701Y-110768324D01*
X144532806Y-110737153D01*
X144704091Y-110666204D01*
X144706473Y-110477447D01*
X144283400Y-110054374D01*
X144260242Y-110077532D01*
X144157993Y-109975283D01*
X144144217Y-109824093D01*
X144200917Y-109767393D01*
X144352107Y-109753617D01*
X144468132Y-109869642D01*
X144444974Y-109892800D01*
X144868047Y-110315873D01*
X145056804Y-110313491D01*
X145158924Y-109985499D01*
X145127753Y-109643394D01*
X145056804Y-109472109D01*
X144947056Y-109470724D01*
X144993994Y-109423786D01*
X144963008Y-109392800D01*
X144993994Y-109361814D01*
X144947056Y-109314876D01*
X145056804Y-109313491D01*
X145158924Y-108985499D01*
X145127753Y-108643394D01*
X145100167Y-108576795D01*
X150340716Y-108576795D01*
X150589106Y-109177943D01*
X151048637Y-109638278D01*
X151649352Y-109887716D01*
X152299795Y-109888284D01*
X152900943Y-109639894D01*
X153361278Y-109180363D01*
X153610716Y-108579648D01*
X153611284Y-107929205D01*
X153362894Y-107328057D01*
X152903363Y-106867722D01*
X152302648Y-106618284D01*
X151652205Y-106617716D01*
X151051057Y-106866106D01*
X150590722Y-107325637D01*
X150341284Y-107926352D01*
X150340716Y-108576795D01*
X145100167Y-108576795D01*
X145056804Y-108472109D01*
X144868047Y-108469727D01*
X144444974Y-108892800D01*
X144468132Y-108915958D01*
X144365883Y-109018207D01*
X144214693Y-109031983D01*
X144157993Y-108975283D01*
X144144217Y-108824093D01*
X144260242Y-108708068D01*
X144283400Y-108731226D01*
X144706473Y-108308153D01*
X144704091Y-108119396D01*
X144376099Y-108017276D01*
X144033994Y-108048447D01*
X143862709Y-108119396D01*
X143861324Y-108229144D01*
X143814386Y-108182206D01*
X143783400Y-108213192D01*
X143752414Y-108182206D01*
X143705476Y-108229144D01*
X143704091Y-108119396D01*
X143376099Y-108017276D01*
X143033994Y-108048447D01*
X142862709Y-108119396D01*
X142860327Y-108308153D01*
X143283400Y-108731226D01*
X143306558Y-108708068D01*
X143408807Y-108810317D01*
X143422583Y-108961507D01*
X143365883Y-109018207D01*
X143214693Y-109031983D01*
X143098668Y-108915958D01*
X143121826Y-108892800D01*
X142698753Y-108469727D01*
X142509996Y-108472109D01*
X142407876Y-108800101D01*
X141487339Y-108800101D01*
X141354027Y-108477461D01*
X141079179Y-108202133D01*
X140719890Y-108052943D01*
X140550375Y-108052795D01*
X140633615Y-107852331D01*
X140633759Y-107686463D01*
X140906331Y-107686463D01*
X141054893Y-108046012D01*
X141329741Y-108321340D01*
X141689030Y-108470530D01*
X142078063Y-108470869D01*
X142437612Y-108322307D01*
X142712940Y-108047459D01*
X142862130Y-107688170D01*
X142862131Y-107686463D01*
X144716331Y-107686463D01*
X144864893Y-108046012D01*
X145139741Y-108321340D01*
X145499030Y-108470530D01*
X145888063Y-108470869D01*
X146247612Y-108322307D01*
X146522940Y-108047459D01*
X146672130Y-107688170D01*
X146672469Y-107299137D01*
X146523907Y-106939588D01*
X146249059Y-106664260D01*
X145889770Y-106515070D01*
X145500737Y-106514731D01*
X145141188Y-106663293D01*
X144865860Y-106938141D01*
X144716670Y-107297430D01*
X144716331Y-107686463D01*
X142862131Y-107686463D01*
X142862469Y-107299137D01*
X142713907Y-106939588D01*
X142439059Y-106664260D01*
X142079770Y-106515070D01*
X141690737Y-106514731D01*
X141331188Y-106663293D01*
X141055860Y-106938141D01*
X140906670Y-107297430D01*
X140906331Y-107686463D01*
X140633759Y-107686463D01*
X140633985Y-107427931D01*
X140471916Y-107035696D01*
X140172083Y-106735338D01*
X139780131Y-106572585D01*
X139355731Y-106572215D01*
X138963496Y-106734284D01*
X138663138Y-107034117D01*
X138500385Y-107426069D01*
X138500015Y-107850469D01*
X127733651Y-107850469D01*
X127692373Y-107750571D01*
X127277811Y-107335285D01*
X126735883Y-107110257D01*
X126149092Y-107109744D01*
X125606771Y-107333827D01*
X125191485Y-107748389D01*
X125043000Y-108105981D01*
X125043000Y-105494269D01*
X131521015Y-105494269D01*
X131683084Y-105886504D01*
X131982917Y-106186862D01*
X132374869Y-106349615D01*
X132799269Y-106349985D01*
X133191504Y-106187916D01*
X133491862Y-105888083D01*
X133654615Y-105496131D01*
X133654853Y-105222663D01*
X153580931Y-105222663D01*
X153729493Y-105582212D01*
X154004341Y-105857540D01*
X154363630Y-106006730D01*
X154752663Y-106007069D01*
X155112212Y-105858507D01*
X155387540Y-105583659D01*
X155536730Y-105224370D01*
X155537069Y-104835337D01*
X155388507Y-104475788D01*
X155113659Y-104200460D01*
X154754370Y-104051270D01*
X154365337Y-104050931D01*
X154005788Y-104199493D01*
X153730460Y-104474341D01*
X153581270Y-104833630D01*
X153580931Y-105222663D01*
X133654853Y-105222663D01*
X133654985Y-105071731D01*
X133492916Y-104679496D01*
X133193083Y-104379138D01*
X132801131Y-104216385D01*
X132376731Y-104216015D01*
X131984496Y-104378084D01*
X131684138Y-104677917D01*
X131521385Y-105069869D01*
X131521015Y-105494269D01*
X125043000Y-105494269D01*
X125043000Y-102815628D01*
X135442791Y-102815628D01*
X135626614Y-103260514D01*
X135966695Y-103601190D01*
X136411260Y-103785789D01*
X136892628Y-103786209D01*
X137337514Y-103602386D01*
X137678190Y-103262305D01*
X137862789Y-102817740D01*
X137863128Y-102428663D01*
X155612931Y-102428663D01*
X155761493Y-102788212D01*
X156036341Y-103063540D01*
X156395630Y-103212730D01*
X156784663Y-103213069D01*
X157144212Y-103064507D01*
X157419540Y-102789659D01*
X157568730Y-102430370D01*
X157569069Y-102041337D01*
X157420507Y-101681788D01*
X157145659Y-101406460D01*
X156786370Y-101257270D01*
X156397337Y-101256931D01*
X156037788Y-101405493D01*
X155762460Y-101680341D01*
X155613270Y-102039630D01*
X155612931Y-102428663D01*
X137863128Y-102428663D01*
X137863209Y-102336372D01*
X137679386Y-101891486D01*
X137339305Y-101550810D01*
X136894740Y-101366211D01*
X136413372Y-101365791D01*
X135968486Y-101549614D01*
X135627810Y-101889695D01*
X135443211Y-102334260D01*
X135442791Y-102815628D01*
X125043000Y-102815628D01*
X125043000Y-100315628D01*
X138742791Y-100315628D01*
X138926614Y-100760514D01*
X139266695Y-101101190D01*
X139711260Y-101285789D01*
X140192628Y-101286209D01*
X140637514Y-101102386D01*
X140978190Y-100762305D01*
X141162789Y-100317740D01*
X141163209Y-99836372D01*
X140979386Y-99391486D01*
X140639305Y-99050810D01*
X140194740Y-98866211D01*
X139713372Y-98865791D01*
X139268486Y-99049614D01*
X138927810Y-99389695D01*
X138743211Y-99834260D01*
X138742791Y-100315628D01*
X125043000Y-100315628D01*
X125043000Y-97815628D01*
X135442791Y-97815628D01*
X135626614Y-98260514D01*
X135966695Y-98601190D01*
X136411260Y-98785789D01*
X136892628Y-98786209D01*
X137337514Y-98602386D01*
X137678190Y-98262305D01*
X137862789Y-97817740D01*
X137863209Y-97336372D01*
X137679386Y-96891486D01*
X137339305Y-96550810D01*
X136894740Y-96366211D01*
X136413372Y-96365791D01*
X135968486Y-96549614D01*
X135627810Y-96889695D01*
X135443211Y-97334260D01*
X135442791Y-97815628D01*
X125043000Y-97815628D01*
X125043000Y-94515344D01*
X125444825Y-94515344D01*
X125644415Y-94997218D01*
X126082421Y-95469588D01*
X126667854Y-95738383D01*
X126923800Y-95619767D01*
X126923800Y-94259400D01*
X127177800Y-94259400D01*
X127177800Y-95619767D01*
X127433746Y-95738383D01*
X127522433Y-95697663D01*
X132956131Y-95697663D01*
X133104693Y-96057212D01*
X133379541Y-96332540D01*
X133738830Y-96481730D01*
X134127863Y-96482069D01*
X134366142Y-96383615D01*
X134602430Y-96481730D01*
X134991463Y-96482069D01*
X135351012Y-96333507D01*
X135626340Y-96058659D01*
X135729317Y-95810662D01*
X135843717Y-95925262D01*
X136235669Y-96088015D01*
X136660069Y-96088385D01*
X137052304Y-95926316D01*
X137352662Y-95626483D01*
X137481310Y-95316663D01*
X149135931Y-95316663D01*
X149284493Y-95676212D01*
X149559341Y-95951540D01*
X149918630Y-96100730D01*
X150307663Y-96101069D01*
X150667212Y-95952507D01*
X150942540Y-95677659D01*
X151085128Y-95334269D01*
X151231415Y-95334269D01*
X151393484Y-95726504D01*
X151693317Y-96026862D01*
X152085269Y-96189615D01*
X152509669Y-96189985D01*
X152901904Y-96027916D01*
X153202262Y-95728083D01*
X153365015Y-95336131D01*
X153365253Y-95062663D01*
X154596931Y-95062663D01*
X154745493Y-95422212D01*
X155020341Y-95697540D01*
X155379630Y-95846730D01*
X155768663Y-95847069D01*
X156128212Y-95698507D01*
X156146291Y-95680460D01*
X156163341Y-95697540D01*
X156522630Y-95846730D01*
X156911663Y-95847069D01*
X157271212Y-95698507D01*
X157546540Y-95423659D01*
X157695730Y-95064370D01*
X157696069Y-94675337D01*
X157547507Y-94315788D01*
X157272659Y-94040460D01*
X156913370Y-93891270D01*
X156524337Y-93890931D01*
X156164788Y-94039493D01*
X156146709Y-94057540D01*
X156129659Y-94040460D01*
X155770370Y-93891270D01*
X155381337Y-93890931D01*
X155021788Y-94039493D01*
X154746460Y-94314341D01*
X154597270Y-94673630D01*
X154596931Y-95062663D01*
X153365253Y-95062663D01*
X153365385Y-94911731D01*
X153203316Y-94519496D01*
X152903483Y-94219138D01*
X152511531Y-94056385D01*
X152087131Y-94056015D01*
X151694896Y-94218084D01*
X151394538Y-94517917D01*
X151231785Y-94909869D01*
X151231415Y-95334269D01*
X151085128Y-95334269D01*
X151091730Y-95318370D01*
X151092069Y-94929337D01*
X150943507Y-94569788D01*
X150668659Y-94294460D01*
X150309370Y-94145270D01*
X149920337Y-94144931D01*
X149560788Y-94293493D01*
X149285460Y-94568341D01*
X149136270Y-94927630D01*
X149135931Y-95316663D01*
X137481310Y-95316663D01*
X137515415Y-95234531D01*
X137515785Y-94810131D01*
X137353716Y-94417896D01*
X137053883Y-94117538D01*
X136661931Y-93954785D01*
X136237531Y-93954415D01*
X135845296Y-94116484D01*
X135544938Y-94416317D01*
X135412399Y-94735505D01*
X135352459Y-94675460D01*
X134993170Y-94526270D01*
X134604137Y-94525931D01*
X134365858Y-94624385D01*
X134129570Y-94526270D01*
X133740537Y-94525931D01*
X133380988Y-94674493D01*
X133105660Y-94949341D01*
X132956470Y-95308630D01*
X132956131Y-95697663D01*
X127522433Y-95697663D01*
X128019179Y-95469588D01*
X128457185Y-94997218D01*
X128656775Y-94515344D01*
X128537636Y-94259400D01*
X127177800Y-94259400D01*
X126923800Y-94259400D01*
X125563964Y-94259400D01*
X125444825Y-94515344D01*
X125043000Y-94515344D01*
X125043000Y-91878150D01*
X125399800Y-91878150D01*
X125399800Y-92734710D01*
X125496473Y-92968099D01*
X125675102Y-93146727D01*
X125733896Y-93171080D01*
X125644415Y-93267582D01*
X125444825Y-93749456D01*
X125563964Y-94005400D01*
X126923800Y-94005400D01*
X126923800Y-91719400D01*
X127177800Y-91719400D01*
X127177800Y-94005400D01*
X128537636Y-94005400D01*
X128656775Y-93749456D01*
X128457185Y-93267582D01*
X128367704Y-93171080D01*
X128426498Y-93146727D01*
X128605127Y-92968099D01*
X128701800Y-92734710D01*
X128701800Y-91878150D01*
X128628395Y-91804745D01*
X129981861Y-91804745D01*
X130055995Y-92050864D01*
X130593223Y-92243965D01*
X131163454Y-92216778D01*
X131564005Y-92050864D01*
X131638139Y-91804745D01*
X136331861Y-91804745D01*
X136405995Y-92050864D01*
X136943223Y-92243965D01*
X137513454Y-92216778D01*
X137914005Y-92050864D01*
X137988139Y-91804745D01*
X137160000Y-90976605D01*
X136331861Y-91804745D01*
X131638139Y-91804745D01*
X130810000Y-90976605D01*
X129981861Y-91804745D01*
X128628395Y-91804745D01*
X128543050Y-91719400D01*
X127177800Y-91719400D01*
X126923800Y-91719400D01*
X125558550Y-91719400D01*
X125399800Y-91878150D01*
X125043000Y-91878150D01*
X125043000Y-90245000D01*
X125484751Y-90245000D01*
X125399800Y-90450090D01*
X125399800Y-90450090D01*
G37*
X125399800Y-90450090D02*
X125399800Y-91306650D01*
X125558550Y-91465400D01*
X126923800Y-91465400D01*
X126923800Y-91445400D01*
X127177800Y-91445400D01*
X127177800Y-91465400D01*
X128543050Y-91465400D01*
X128701800Y-91306650D01*
X128701800Y-90450090D01*
X128616849Y-90245000D01*
X129483527Y-90245000D01*
X129363035Y-90580223D01*
X129390222Y-91150454D01*
X129556136Y-91551005D01*
X129802255Y-91625139D01*
X130630395Y-90797000D01*
X130616252Y-90782858D01*
X130795858Y-90603253D01*
X130810000Y-90617395D01*
X130824143Y-90603253D01*
X131003748Y-90782858D01*
X130989605Y-90797000D01*
X131817745Y-91625139D01*
X132063864Y-91551005D01*
X132256965Y-91013777D01*
X132229778Y-90443546D01*
X132147537Y-90245000D01*
X135833527Y-90245000D01*
X135713035Y-90580223D01*
X135740222Y-91150454D01*
X135906136Y-91551005D01*
X136152255Y-91625139D01*
X136980395Y-90797000D01*
X136966252Y-90782858D01*
X137145858Y-90603253D01*
X137160000Y-90617395D01*
X137174143Y-90603253D01*
X137353748Y-90782858D01*
X137339605Y-90797000D01*
X138167745Y-91625139D01*
X138413864Y-91551005D01*
X138606965Y-91013777D01*
X138579778Y-90443546D01*
X138497537Y-90245000D01*
X153005623Y-90245000D01*
X152735788Y-90356493D01*
X152460460Y-90631341D01*
X152311270Y-90990630D01*
X152310931Y-91379663D01*
X152459493Y-91739212D01*
X152734341Y-92014540D01*
X153093630Y-92163730D01*
X153482663Y-92164069D01*
X153842212Y-92015507D01*
X154117540Y-91740659D01*
X154266730Y-91381370D01*
X154267069Y-90992337D01*
X154118507Y-90632788D01*
X153843659Y-90357460D01*
X153572826Y-90245000D01*
X158802000Y-90245000D01*
X158802000Y-121356290D01*
X158538970Y-121247070D01*
X158149937Y-121246731D01*
X157790388Y-121395293D01*
X157515060Y-121670141D01*
X157365870Y-122029430D01*
X157365531Y-122418463D01*
X157514093Y-122778012D01*
X157788941Y-123053340D01*
X158148230Y-123202530D01*
X158537263Y-123202869D01*
X158802000Y-123093482D01*
X158802000Y-128397000D01*
X148971000Y-128397000D01*
X148922399Y-128406667D01*
X148881197Y-128434197D01*
X148853667Y-128475399D01*
X148844000Y-128524000D01*
X148844000Y-134312342D01*
X148461411Y-133929085D01*
X147919483Y-133704057D01*
X147332692Y-133703544D01*
X146790371Y-133927627D01*
X146375085Y-134342189D01*
X146150057Y-134884117D01*
X146149544Y-135470908D01*
X146373627Y-136013229D01*
X146788189Y-136428515D01*
X147330117Y-136653543D01*
X147916908Y-136654056D01*
X148459229Y-136429973D01*
X148844000Y-136045873D01*
X148844000Y-147880000D01*
X125043000Y-147880000D01*
X125043000Y-145507824D01*
X137573808Y-145507824D01*
X137742439Y-145915943D01*
X138054415Y-146228463D01*
X138462239Y-146397807D01*
X138903824Y-146398192D01*
X139311943Y-146229561D01*
X139624463Y-145917585D01*
X139703120Y-145728157D01*
X143839837Y-145728157D01*
X143982642Y-146073772D01*
X144246837Y-146338429D01*
X144592202Y-146481837D01*
X144966157Y-146482163D01*
X145311772Y-146339358D01*
X145576429Y-146075163D01*
X145719837Y-145729798D01*
X145720163Y-145355843D01*
X145577358Y-145010228D01*
X145313163Y-144745571D01*
X144967798Y-144602163D01*
X144593843Y-144601837D01*
X144248228Y-144744642D01*
X143983571Y-145008837D01*
X143840163Y-145354202D01*
X143839837Y-145728157D01*
X139703120Y-145728157D01*
X139793807Y-145509761D01*
X139793821Y-145493656D01*
X139856917Y-145556862D01*
X140248869Y-145719615D01*
X140673269Y-145719985D01*
X141065504Y-145557916D01*
X141365862Y-145258083D01*
X141528615Y-144866131D01*
X141528985Y-144441731D01*
X141366916Y-144049496D01*
X141067083Y-143749138D01*
X140675131Y-143586385D01*
X140250731Y-143586015D01*
X139858496Y-143748084D01*
X139558138Y-144047917D01*
X139398432Y-144432532D01*
X139313585Y-144347537D01*
X138905761Y-144178193D01*
X138464176Y-144177808D01*
X138056057Y-144346439D01*
X137743537Y-144658415D01*
X137574193Y-145066239D01*
X137573808Y-145507824D01*
X125043000Y-145507824D01*
X125043000Y-144491824D01*
X133865808Y-144491824D01*
X134034439Y-144899943D01*
X134346415Y-145212463D01*
X134754239Y-145381807D01*
X135195824Y-145382192D01*
X135603943Y-145213561D01*
X135916463Y-144901585D01*
X136085807Y-144493761D01*
X136086192Y-144052176D01*
X135917561Y-143644057D01*
X135605585Y-143331537D01*
X135504275Y-143289469D01*
X146303815Y-143289469D01*
X146465884Y-143681704D01*
X146765717Y-143982062D01*
X147157669Y-144144815D01*
X147582069Y-144145185D01*
X147974304Y-143983116D01*
X148274662Y-143683283D01*
X148437415Y-143291331D01*
X148437785Y-142866931D01*
X148275716Y-142474696D01*
X147975883Y-142174338D01*
X147583931Y-142011585D01*
X147159531Y-142011215D01*
X146767296Y-142173284D01*
X146466938Y-142473117D01*
X146304185Y-142865069D01*
X146303815Y-143289469D01*
X135504275Y-143289469D01*
X135197761Y-143162193D01*
X134756176Y-143161808D01*
X134348057Y-143330439D01*
X134035537Y-143642415D01*
X133866193Y-144050239D01*
X133865808Y-144491824D01*
X125043000Y-144491824D01*
X125043000Y-141973308D01*
X130960344Y-141973308D01*
X131184427Y-142515629D01*
X131598989Y-142930915D01*
X132140917Y-143155943D01*
X132727708Y-143156456D01*
X133270029Y-142932373D01*
X133685315Y-142517811D01*
X133910343Y-141975883D01*
X133910856Y-141389092D01*
X133686773Y-140846771D01*
X133272211Y-140431485D01*
X132730283Y-140206457D01*
X132143492Y-140205944D01*
X131601171Y-140430027D01*
X131185885Y-140844589D01*
X130960857Y-141386517D01*
X130960344Y-141973308D01*
X125043000Y-141973308D01*
X125043000Y-141054269D01*
X127965015Y-141054269D01*
X128127084Y-141446504D01*
X128426917Y-141746862D01*
X128818869Y-141909615D01*
X129243269Y-141909985D01*
X129635504Y-141747916D01*
X129935862Y-141448083D01*
X130098615Y-141056131D01*
X130098985Y-140631731D01*
X129936916Y-140239496D01*
X129637083Y-139939138D01*
X129405228Y-139842863D01*
X143243131Y-139842863D01*
X143391693Y-140202412D01*
X143666541Y-140477740D01*
X144025830Y-140626930D01*
X144414863Y-140627269D01*
X144774412Y-140478707D01*
X145049740Y-140203859D01*
X145198930Y-139844570D01*
X145199269Y-139455537D01*
X145050707Y-139095988D01*
X144775859Y-138820660D01*
X144416570Y-138671470D01*
X144027537Y-138671131D01*
X143667988Y-138819693D01*
X143392660Y-139094541D01*
X143243470Y-139453830D01*
X143243131Y-139842863D01*
X129405228Y-139842863D01*
X129245131Y-139776385D01*
X128820731Y-139776015D01*
X128428496Y-139938084D01*
X128128138Y-140237917D01*
X127965385Y-140629869D01*
X127965015Y-141054269D01*
X125043000Y-141054269D01*
X125043000Y-137266795D01*
X129740716Y-137266795D01*
X129989106Y-137867943D01*
X130448637Y-138328278D01*
X131049352Y-138577716D01*
X131699795Y-138578284D01*
X132300943Y-138329894D01*
X132416931Y-138214108D01*
X133855944Y-138214108D01*
X134080027Y-138756429D01*
X134494589Y-139171715D01*
X135036517Y-139396743D01*
X135623308Y-139397256D01*
X136165629Y-139173173D01*
X136580915Y-138758611D01*
X136805943Y-138216683D01*
X136806456Y-137629892D01*
X136582373Y-137087571D01*
X136167811Y-136672285D01*
X135625883Y-136447257D01*
X135039092Y-136446744D01*
X134496771Y-136670827D01*
X134081485Y-137085389D01*
X133856457Y-137627317D01*
X133855944Y-138214108D01*
X132416931Y-138214108D01*
X132761278Y-137870363D01*
X133010716Y-137269648D01*
X133011284Y-136619205D01*
X132762894Y-136018057D01*
X132473407Y-135728063D01*
X141007931Y-135728063D01*
X141156493Y-136087612D01*
X141431341Y-136362940D01*
X141790630Y-136512130D01*
X142179663Y-136512469D01*
X142539212Y-136363907D01*
X142814540Y-136089059D01*
X142963730Y-135729770D01*
X142964069Y-135340737D01*
X142815507Y-134981188D01*
X142540659Y-134705860D01*
X142181370Y-134556670D01*
X141792337Y-134556331D01*
X141432788Y-134704893D01*
X141157460Y-134979741D01*
X141008270Y-135339030D01*
X141007931Y-135728063D01*
X132473407Y-135728063D01*
X132303363Y-135557722D01*
X131702648Y-135308284D01*
X131052205Y-135307716D01*
X130451057Y-135556106D01*
X129990722Y-136015637D01*
X129741284Y-136616352D01*
X129740716Y-137266795D01*
X125043000Y-137266795D01*
X125043000Y-128676400D01*
X125062655Y-128676400D01*
X125176729Y-129249889D01*
X125501585Y-129736070D01*
X125816366Y-129946400D01*
X125501585Y-130156730D01*
X125176729Y-130642911D01*
X125062655Y-131216400D01*
X125176729Y-131789889D01*
X125501585Y-132276070D01*
X125518566Y-132287416D01*
X125482235Y-132294643D01*
X125272191Y-132434991D01*
X125131843Y-132645035D01*
X125082560Y-132892800D01*
X125082560Y-134620000D01*
X125131843Y-134867765D01*
X125272191Y-135077809D01*
X125482235Y-135218157D01*
X125730000Y-135267440D01*
X127762000Y-135267440D01*
X128009765Y-135218157D01*
X128219809Y-135077809D01*
X128360157Y-134867765D01*
X128409440Y-134620000D01*
X128409440Y-133950063D01*
X131914731Y-133950063D01*
X132063293Y-134309612D01*
X132338141Y-134584940D01*
X132697430Y-134734130D01*
X133086463Y-134734469D01*
X133446012Y-134585907D01*
X133721340Y-134311059D01*
X133870530Y-133951770D01*
X133870869Y-133562737D01*
X133722307Y-133203188D01*
X133447459Y-132927860D01*
X133088170Y-132778670D01*
X132699137Y-132778331D01*
X132339588Y-132926893D01*
X132064260Y-133201741D01*
X131915070Y-133561030D01*
X131914731Y-133950063D01*
X128409440Y-133950063D01*
X128409440Y-132892800D01*
X128360157Y-132645035D01*
X128281731Y-132527663D01*
X136588331Y-132527663D01*
X136736893Y-132887212D01*
X137011741Y-133162540D01*
X137371030Y-133311730D01*
X137760063Y-133312069D01*
X138119612Y-133163507D01*
X138394940Y-132888659D01*
X138544130Y-132529370D01*
X138544469Y-132140337D01*
X138451325Y-131914908D01*
X141171144Y-131914908D01*
X141395227Y-132457229D01*
X141809789Y-132872515D01*
X142351717Y-133097543D01*
X142365252Y-133097555D01*
X142278270Y-133307030D01*
X142277931Y-133696063D01*
X142426493Y-134055612D01*
X142701341Y-134330940D01*
X143060630Y-134480130D01*
X143449663Y-134480469D01*
X143809212Y-134331907D01*
X144084540Y-134057059D01*
X144233730Y-133697770D01*
X144234069Y-133308737D01*
X144085507Y-132949188D01*
X143810659Y-132673860D01*
X143719295Y-132635922D01*
X143896115Y-132459411D01*
X144025018Y-132148978D01*
X144276141Y-132400540D01*
X144635430Y-132549730D01*
X145024463Y-132550069D01*
X145384012Y-132401507D01*
X145659340Y-132126659D01*
X145808530Y-131767370D01*
X145808869Y-131378337D01*
X145660307Y-131018788D01*
X145385459Y-130743460D01*
X145026170Y-130594270D01*
X144637137Y-130593931D01*
X144277588Y-130742493D01*
X144002260Y-131017341D01*
X143997208Y-131029507D01*
X143897573Y-130788371D01*
X143483011Y-130373085D01*
X142941083Y-130148057D01*
X142354292Y-130147544D01*
X141811971Y-130371627D01*
X141396685Y-130786189D01*
X141171657Y-131328117D01*
X141171144Y-131914908D01*
X138451325Y-131914908D01*
X138395907Y-131780788D01*
X138121059Y-131505460D01*
X137761770Y-131356270D01*
X137372737Y-131355931D01*
X137013188Y-131504493D01*
X136737860Y-131779341D01*
X136588670Y-132138630D01*
X136588331Y-132527663D01*
X128281731Y-132527663D01*
X128219809Y-132434991D01*
X128009765Y-132294643D01*
X127973434Y-132287416D01*
X127990415Y-132276070D01*
X128315271Y-131789889D01*
X128429345Y-131216400D01*
X128315271Y-130642911D01*
X127990415Y-130156730D01*
X127675634Y-129946400D01*
X127990415Y-129736070D01*
X128315271Y-129249889D01*
X128429345Y-128676400D01*
X128315271Y-128102911D01*
X127990415Y-127616730D01*
X127504234Y-127291874D01*
X126930745Y-127177800D01*
X126561255Y-127177800D01*
X125987766Y-127291874D01*
X125501585Y-127616730D01*
X125176729Y-128102911D01*
X125062655Y-128676400D01*
X125043000Y-128676400D01*
X125043000Y-125933252D01*
X125240827Y-126412029D01*
X125655389Y-126827315D01*
X126197317Y-127052343D01*
X126784108Y-127052856D01*
X127326429Y-126828773D01*
X127741715Y-126414211D01*
X127966743Y-125872283D01*
X127967256Y-125285492D01*
X127743173Y-124743171D01*
X127328611Y-124327885D01*
X126786683Y-124102857D01*
X126199892Y-124102344D01*
X125657571Y-124326427D01*
X125242285Y-124740989D01*
X125043000Y-125220921D01*
X125043000Y-123536063D01*
X135572331Y-123536063D01*
X135720893Y-123895612D01*
X135995741Y-124170940D01*
X136355030Y-124320130D01*
X136744063Y-124320469D01*
X137103612Y-124171907D01*
X137378940Y-123897059D01*
X137500434Y-123604469D01*
X145186215Y-123604469D01*
X145348284Y-123996704D01*
X145648117Y-124297062D01*
X146040069Y-124459815D01*
X146464469Y-124460185D01*
X146856704Y-124298116D01*
X147014564Y-124140532D01*
X147146341Y-124272540D01*
X147505630Y-124421730D01*
X147585789Y-124421800D01*
X147224496Y-124571084D01*
X146924138Y-124870917D01*
X146761385Y-125262869D01*
X146761015Y-125687269D01*
X146923084Y-126079504D01*
X147222917Y-126379862D01*
X147614869Y-126542615D01*
X148039269Y-126542985D01*
X148431504Y-126380916D01*
X148731862Y-126081083D01*
X148894615Y-125689131D01*
X148894985Y-125264731D01*
X148732916Y-124872496D01*
X148433083Y-124572138D01*
X148041131Y-124409385D01*
X147925605Y-124409284D01*
X148254212Y-124273507D01*
X148529540Y-123998659D01*
X148678730Y-123639370D01*
X148679069Y-123250337D01*
X148530507Y-122890788D01*
X148255659Y-122615460D01*
X147896370Y-122466270D01*
X147507337Y-122465931D01*
X147147788Y-122614493D01*
X147065360Y-122696777D01*
X146858283Y-122489338D01*
X146803681Y-122466665D01*
X147004219Y-122266477D01*
X147103089Y-122028371D01*
X147339547Y-121930669D01*
X147614875Y-121655821D01*
X147641214Y-121592390D01*
X147654341Y-121605540D01*
X148013630Y-121754730D01*
X148402663Y-121755069D01*
X148762212Y-121606507D01*
X149037540Y-121331659D01*
X149186730Y-120972370D01*
X149187069Y-120583337D01*
X149038507Y-120223788D01*
X148763659Y-119948460D01*
X148404370Y-119799270D01*
X148015337Y-119798931D01*
X147655788Y-119947493D01*
X147380460Y-120222341D01*
X147354121Y-120285772D01*
X147340994Y-120272622D01*
X146981705Y-120123432D01*
X146592672Y-120123093D01*
X146233123Y-120271655D01*
X145957795Y-120546503D01*
X145858925Y-120784609D01*
X145622467Y-120882311D01*
X145347139Y-121157159D01*
X145197949Y-121516448D01*
X145197610Y-121905481D01*
X145346172Y-122265030D01*
X145609296Y-122528613D01*
X145349338Y-122788117D01*
X145186585Y-123180069D01*
X145186215Y-123604469D01*
X137500434Y-123604469D01*
X137528130Y-123537770D01*
X137528469Y-123148737D01*
X137379907Y-122789188D01*
X137105059Y-122513860D01*
X136745770Y-122364670D01*
X136356737Y-122364331D01*
X135997188Y-122512893D01*
X135721860Y-122787741D01*
X135572670Y-123147030D01*
X135572331Y-123536063D01*
X125043000Y-123536063D01*
X125043000Y-120792863D01*
X129273131Y-120792863D01*
X129421693Y-121152412D01*
X129696541Y-121427740D01*
X130055830Y-121576930D01*
X130444863Y-121577269D01*
X130804412Y-121428707D01*
X131079740Y-121153859D01*
X131228930Y-120794570D01*
X131229266Y-120408623D01*
X131511663Y-120408869D01*
X131871212Y-120260307D01*
X132146540Y-119985459D01*
X132295730Y-119626170D01*
X132295775Y-119573663D01*
X141617531Y-119573663D01*
X141766093Y-119933212D01*
X142040941Y-120208540D01*
X142400230Y-120357730D01*
X142789263Y-120358069D01*
X143148812Y-120209507D01*
X143424140Y-119934659D01*
X143510756Y-119726063D01*
X153199931Y-119726063D01*
X153348493Y-120085612D01*
X153353840Y-120090968D01*
X153349460Y-120095341D01*
X153200270Y-120454630D01*
X153199931Y-120843663D01*
X153348493Y-121203212D01*
X153623341Y-121478540D01*
X153982630Y-121627730D01*
X154371663Y-121628069D01*
X154731212Y-121479507D01*
X155006540Y-121204659D01*
X155155730Y-120845370D01*
X155156069Y-120456337D01*
X155007507Y-120096788D01*
X155002160Y-120091432D01*
X155006540Y-120087059D01*
X155155730Y-119727770D01*
X155156069Y-119338737D01*
X155007507Y-118979188D01*
X154732659Y-118703860D01*
X154373370Y-118554670D01*
X153984337Y-118554331D01*
X153624788Y-118702893D01*
X153349460Y-118977741D01*
X153200270Y-119337030D01*
X153199931Y-119726063D01*
X143510756Y-119726063D01*
X143573330Y-119575370D01*
X143573669Y-119186337D01*
X143425107Y-118826788D01*
X143150259Y-118551460D01*
X142790970Y-118402270D01*
X142401937Y-118401931D01*
X142042388Y-118550493D01*
X141767060Y-118825341D01*
X141617870Y-119184630D01*
X141617531Y-119573663D01*
X132295775Y-119573663D01*
X132296069Y-119237137D01*
X132147507Y-118877588D01*
X131872659Y-118602260D01*
X131513370Y-118453070D01*
X131124337Y-118452731D01*
X130764788Y-118601293D01*
X130489460Y-118876141D01*
X130340270Y-119235430D01*
X130339934Y-119621377D01*
X130057537Y-119621131D01*
X129697988Y-119769693D01*
X129422660Y-120044541D01*
X129273470Y-120403830D01*
X129273131Y-120792863D01*
X125043000Y-120792863D01*
X125043000Y-117792508D01*
X145692344Y-117792508D01*
X145916427Y-118334829D01*
X146330989Y-118750115D01*
X146872917Y-118975143D01*
X147459708Y-118975656D01*
X148002029Y-118751573D01*
X148417315Y-118337011D01*
X148642343Y-117795083D01*
X148642856Y-117208292D01*
X148418773Y-116665971D01*
X148004211Y-116250685D01*
X147462283Y-116025657D01*
X146875492Y-116025144D01*
X146333171Y-116249227D01*
X145917885Y-116663789D01*
X145692857Y-117205717D01*
X145692344Y-117792508D01*
X125043000Y-117792508D01*
X125043000Y-114998508D01*
X125473944Y-114998508D01*
X125698027Y-115540829D01*
X126112589Y-115956115D01*
X126654517Y-116181143D01*
X127241308Y-116181656D01*
X127783629Y-115957573D01*
X128105099Y-115636663D01*
X128638131Y-115636663D01*
X128786693Y-115996212D01*
X129061541Y-116271540D01*
X129420830Y-116420730D01*
X129809863Y-116421069D01*
X130169412Y-116272507D01*
X130444740Y-115997659D01*
X130593930Y-115638370D01*
X130594269Y-115249337D01*
X130445707Y-114889788D01*
X130351392Y-114795308D01*
X134973544Y-114795308D01*
X135197627Y-115337629D01*
X135612189Y-115752915D01*
X136154117Y-115977943D01*
X136740908Y-115978456D01*
X137283229Y-115754373D01*
X137359052Y-115678682D01*
X137570541Y-115890540D01*
X137929830Y-116039730D01*
X138318863Y-116040069D01*
X138678412Y-115891507D01*
X138953740Y-115616659D01*
X139102930Y-115257370D01*
X139103269Y-114868337D01*
X138954707Y-114508788D01*
X138679859Y-114233460D01*
X138320570Y-114084270D01*
X137931537Y-114083931D01*
X137880267Y-114105115D01*
X137699973Y-113668771D01*
X137285411Y-113253485D01*
X136743483Y-113028457D01*
X136156692Y-113027944D01*
X135614371Y-113252027D01*
X135199085Y-113666589D01*
X134974057Y-114208517D01*
X134973544Y-114795308D01*
X130351392Y-114795308D01*
X130170859Y-114614460D01*
X129811570Y-114465270D01*
X129422537Y-114464931D01*
X129062988Y-114613493D01*
X128787660Y-114888341D01*
X128638470Y-115247630D01*
X128638131Y-115636663D01*
X128105099Y-115636663D01*
X128198915Y-115543011D01*
X128423943Y-115001083D01*
X128424456Y-114414292D01*
X128200373Y-113871971D01*
X127785811Y-113456685D01*
X127243883Y-113231657D01*
X126657092Y-113231144D01*
X126114771Y-113455227D01*
X125699485Y-113869789D01*
X125474457Y-114411717D01*
X125473944Y-114998508D01*
X125043000Y-114998508D01*
X125043000Y-112616345D01*
X142326449Y-112616345D01*
X142475011Y-112975894D01*
X142749859Y-113251222D01*
X143109148Y-113400412D01*
X143174458Y-113400469D01*
X143040270Y-113723630D01*
X143039931Y-114112663D01*
X143188493Y-114472212D01*
X143463341Y-114747540D01*
X143822630Y-114896730D01*
X144211663Y-114897069D01*
X144571212Y-114748507D01*
X144846540Y-114473659D01*
X144995730Y-114114370D01*
X144996069Y-113725337D01*
X144847507Y-113365788D01*
X144572659Y-113090460D01*
X144213370Y-112941270D01*
X144148060Y-112941213D01*
X144282248Y-112618052D01*
X144282587Y-112229019D01*
X144168813Y-111953663D01*
X144563931Y-111953663D01*
X144712493Y-112313212D01*
X144987341Y-112588540D01*
X145346630Y-112737730D01*
X145478533Y-112737845D01*
X145478331Y-112969663D01*
X145586460Y-113231356D01*
X145496542Y-113447902D01*
X145496203Y-113836935D01*
X145644765Y-114196484D01*
X145919613Y-114471812D01*
X146278902Y-114621002D01*
X146667935Y-114621341D01*
X147027484Y-114472779D01*
X147059887Y-114440433D01*
X147125493Y-114599212D01*
X147400341Y-114874540D01*
X147759630Y-115023730D01*
X148148663Y-115024069D01*
X148508212Y-114875507D01*
X148534501Y-114849263D01*
X154469931Y-114849263D01*
X154618493Y-115208812D01*
X154893341Y-115484140D01*
X155252630Y-115633330D01*
X155641663Y-115633669D01*
X156001212Y-115485107D01*
X156276540Y-115210259D01*
X156425730Y-114850970D01*
X156425756Y-114820578D01*
X156642996Y-114820768D01*
X156549860Y-114913741D01*
X156400670Y-115273030D01*
X156400331Y-115662063D01*
X156548893Y-116021612D01*
X156823741Y-116296940D01*
X157183030Y-116446130D01*
X157572063Y-116446469D01*
X157931612Y-116297907D01*
X158206940Y-116023059D01*
X158356130Y-115663770D01*
X158356469Y-115274737D01*
X158207907Y-114915188D01*
X157933059Y-114639860D01*
X157573770Y-114490670D01*
X157301004Y-114490432D01*
X157394140Y-114397459D01*
X157543330Y-114038170D01*
X157543669Y-113649137D01*
X157395107Y-113289588D01*
X157120259Y-113014260D01*
X156760970Y-112865070D01*
X156371937Y-112864731D01*
X156012388Y-113013293D01*
X155737060Y-113288141D01*
X155587870Y-113647430D01*
X155587844Y-113677822D01*
X155254337Y-113677531D01*
X154894788Y-113826093D01*
X154619460Y-114100941D01*
X154470270Y-114460230D01*
X154469931Y-114849263D01*
X148534501Y-114849263D01*
X148783540Y-114600659D01*
X148932730Y-114241370D01*
X148933069Y-113852337D01*
X148784507Y-113492788D01*
X148509659Y-113217460D01*
X148150370Y-113068270D01*
X147761337Y-113067931D01*
X147401788Y-113216493D01*
X147369385Y-113248839D01*
X147344212Y-113187916D01*
X147434130Y-112971370D01*
X147434469Y-112582337D01*
X147374295Y-112436704D01*
X147619212Y-112335507D01*
X147894540Y-112060659D01*
X148043730Y-111701370D01*
X148044069Y-111312337D01*
X147895507Y-110952788D01*
X147626852Y-110683663D01*
X148881931Y-110683663D01*
X149030493Y-111043212D01*
X149305341Y-111318540D01*
X149664630Y-111467730D01*
X150053663Y-111468069D01*
X150413212Y-111319507D01*
X150688540Y-111044659D01*
X150837730Y-110685370D01*
X150837731Y-110683663D01*
X153352331Y-110683663D01*
X153500893Y-111043212D01*
X153775741Y-111318540D01*
X154135030Y-111467730D01*
X154524063Y-111468069D01*
X154883612Y-111319507D01*
X155158940Y-111044659D01*
X155308130Y-110685370D01*
X155308469Y-110296337D01*
X155159907Y-109936788D01*
X154885059Y-109661460D01*
X154525770Y-109512270D01*
X154136737Y-109511931D01*
X153777188Y-109660493D01*
X153501860Y-109935341D01*
X153352670Y-110294630D01*
X153352331Y-110683663D01*
X150837731Y-110683663D01*
X150838069Y-110296337D01*
X150689507Y-109936788D01*
X150414659Y-109661460D01*
X150055370Y-109512270D01*
X149666337Y-109511931D01*
X149306788Y-109660493D01*
X149031460Y-109935341D01*
X148882270Y-110294630D01*
X148881931Y-110683663D01*
X147626852Y-110683663D01*
X147620659Y-110677460D01*
X147261370Y-110528270D01*
X146872337Y-110527931D01*
X146512788Y-110676493D01*
X146237460Y-110951341D01*
X146201928Y-111036912D01*
X146096659Y-110931460D01*
X145737370Y-110782270D01*
X145348337Y-110781931D01*
X144988788Y-110930493D01*
X144713460Y-111205341D01*
X144564270Y-111564630D01*
X144563931Y-111953663D01*
X144168813Y-111953663D01*
X144134025Y-111869470D01*
X143859177Y-111594142D01*
X143499888Y-111444952D01*
X143110855Y-111444613D01*
X142751306Y-111593175D01*
X142475978Y-111868023D01*
X142326788Y-112227312D01*
X142326449Y-112616345D01*
X125043000Y-112616345D01*
X125043000Y-109063597D01*
X125190027Y-109419429D01*
X125604589Y-109834715D01*
X126146517Y-110059743D01*
X126733308Y-110060256D01*
X127275629Y-109836173D01*
X127690915Y-109421611D01*
X127915943Y-108879683D01*
X127916456Y-108292892D01*
X127733651Y-107850469D01*
X138500015Y-107850469D01*
X138662084Y-108242704D01*
X138961917Y-108543062D01*
X139353869Y-108705815D01*
X139600469Y-108706030D01*
X139546790Y-108835303D01*
X139546451Y-109224336D01*
X139695013Y-109583885D01*
X139969861Y-109859213D01*
X140329150Y-110008403D01*
X140718183Y-110008742D01*
X141077732Y-109860180D01*
X141353060Y-109585332D01*
X141502250Y-109226043D01*
X141502589Y-108837010D01*
X141487339Y-108800101D01*
X142407876Y-108800101D01*
X142439047Y-109142206D01*
X142509996Y-109313491D01*
X142619744Y-109314876D01*
X142572806Y-109361814D01*
X142603792Y-109392800D01*
X142572806Y-109423786D01*
X142619744Y-109470724D01*
X142509996Y-109472109D01*
X142407876Y-109800101D01*
X142439047Y-110142206D01*
X142509996Y-110313491D01*
X142698753Y-110315873D01*
X143121826Y-109892800D01*
X143098668Y-109869642D01*
X143200917Y-109767393D01*
X143352107Y-109753617D01*
X143408807Y-109810317D01*
X143422583Y-109961507D01*
X143306558Y-110077532D01*
X143283400Y-110054374D01*
X142860327Y-110477447D01*
X142862709Y-110666204D01*
X143190701Y-110768324D01*
X143532806Y-110737153D01*
X143704091Y-110666204D01*
X143705476Y-110556456D01*
X143752414Y-110603394D01*
X143783400Y-110572408D01*
X143814386Y-110603394D01*
X143861324Y-110556456D01*
X143862709Y-110666204D01*
X144190701Y-110768324D01*
X144532806Y-110737153D01*
X144704091Y-110666204D01*
X144706473Y-110477447D01*
X144283400Y-110054374D01*
X144260242Y-110077532D01*
X144157993Y-109975283D01*
X144144217Y-109824093D01*
X144200917Y-109767393D01*
X144352107Y-109753617D01*
X144468132Y-109869642D01*
X144444974Y-109892800D01*
X144868047Y-110315873D01*
X145056804Y-110313491D01*
X145158924Y-109985499D01*
X145127753Y-109643394D01*
X145056804Y-109472109D01*
X144947056Y-109470724D01*
X144993994Y-109423786D01*
X144963008Y-109392800D01*
X144993994Y-109361814D01*
X144947056Y-109314876D01*
X145056804Y-109313491D01*
X145158924Y-108985499D01*
X145127753Y-108643394D01*
X145100167Y-108576795D01*
X150340716Y-108576795D01*
X150589106Y-109177943D01*
X151048637Y-109638278D01*
X151649352Y-109887716D01*
X152299795Y-109888284D01*
X152900943Y-109639894D01*
X153361278Y-109180363D01*
X153610716Y-108579648D01*
X153611284Y-107929205D01*
X153362894Y-107328057D01*
X152903363Y-106867722D01*
X152302648Y-106618284D01*
X151652205Y-106617716D01*
X151051057Y-106866106D01*
X150590722Y-107325637D01*
X150341284Y-107926352D01*
X150340716Y-108576795D01*
X145100167Y-108576795D01*
X145056804Y-108472109D01*
X144868047Y-108469727D01*
X144444974Y-108892800D01*
X144468132Y-108915958D01*
X144365883Y-109018207D01*
X144214693Y-109031983D01*
X144157993Y-108975283D01*
X144144217Y-108824093D01*
X144260242Y-108708068D01*
X144283400Y-108731226D01*
X144706473Y-108308153D01*
X144704091Y-108119396D01*
X144376099Y-108017276D01*
X144033994Y-108048447D01*
X143862709Y-108119396D01*
X143861324Y-108229144D01*
X143814386Y-108182206D01*
X143783400Y-108213192D01*
X143752414Y-108182206D01*
X143705476Y-108229144D01*
X143704091Y-108119396D01*
X143376099Y-108017276D01*
X143033994Y-108048447D01*
X142862709Y-108119396D01*
X142860327Y-108308153D01*
X143283400Y-108731226D01*
X143306558Y-108708068D01*
X143408807Y-108810317D01*
X143422583Y-108961507D01*
X143365883Y-109018207D01*
X143214693Y-109031983D01*
X143098668Y-108915958D01*
X143121826Y-108892800D01*
X142698753Y-108469727D01*
X142509996Y-108472109D01*
X142407876Y-108800101D01*
X141487339Y-108800101D01*
X141354027Y-108477461D01*
X141079179Y-108202133D01*
X140719890Y-108052943D01*
X140550375Y-108052795D01*
X140633615Y-107852331D01*
X140633759Y-107686463D01*
X140906331Y-107686463D01*
X141054893Y-108046012D01*
X141329741Y-108321340D01*
X141689030Y-108470530D01*
X142078063Y-108470869D01*
X142437612Y-108322307D01*
X142712940Y-108047459D01*
X142862130Y-107688170D01*
X142862131Y-107686463D01*
X144716331Y-107686463D01*
X144864893Y-108046012D01*
X145139741Y-108321340D01*
X145499030Y-108470530D01*
X145888063Y-108470869D01*
X146247612Y-108322307D01*
X146522940Y-108047459D01*
X146672130Y-107688170D01*
X146672469Y-107299137D01*
X146523907Y-106939588D01*
X146249059Y-106664260D01*
X145889770Y-106515070D01*
X145500737Y-106514731D01*
X145141188Y-106663293D01*
X144865860Y-106938141D01*
X144716670Y-107297430D01*
X144716331Y-107686463D01*
X142862131Y-107686463D01*
X142862469Y-107299137D01*
X142713907Y-106939588D01*
X142439059Y-106664260D01*
X142079770Y-106515070D01*
X141690737Y-106514731D01*
X141331188Y-106663293D01*
X141055860Y-106938141D01*
X140906670Y-107297430D01*
X140906331Y-107686463D01*
X140633759Y-107686463D01*
X140633985Y-107427931D01*
X140471916Y-107035696D01*
X140172083Y-106735338D01*
X139780131Y-106572585D01*
X139355731Y-106572215D01*
X138963496Y-106734284D01*
X138663138Y-107034117D01*
X138500385Y-107426069D01*
X138500015Y-107850469D01*
X127733651Y-107850469D01*
X127692373Y-107750571D01*
X127277811Y-107335285D01*
X126735883Y-107110257D01*
X126149092Y-107109744D01*
X125606771Y-107333827D01*
X125191485Y-107748389D01*
X125043000Y-108105981D01*
X125043000Y-105494269D01*
X131521015Y-105494269D01*
X131683084Y-105886504D01*
X131982917Y-106186862D01*
X132374869Y-106349615D01*
X132799269Y-106349985D01*
X133191504Y-106187916D01*
X133491862Y-105888083D01*
X133654615Y-105496131D01*
X133654853Y-105222663D01*
X153580931Y-105222663D01*
X153729493Y-105582212D01*
X154004341Y-105857540D01*
X154363630Y-106006730D01*
X154752663Y-106007069D01*
X155112212Y-105858507D01*
X155387540Y-105583659D01*
X155536730Y-105224370D01*
X155537069Y-104835337D01*
X155388507Y-104475788D01*
X155113659Y-104200460D01*
X154754370Y-104051270D01*
X154365337Y-104050931D01*
X154005788Y-104199493D01*
X153730460Y-104474341D01*
X153581270Y-104833630D01*
X153580931Y-105222663D01*
X133654853Y-105222663D01*
X133654985Y-105071731D01*
X133492916Y-104679496D01*
X133193083Y-104379138D01*
X132801131Y-104216385D01*
X132376731Y-104216015D01*
X131984496Y-104378084D01*
X131684138Y-104677917D01*
X131521385Y-105069869D01*
X131521015Y-105494269D01*
X125043000Y-105494269D01*
X125043000Y-102815628D01*
X135442791Y-102815628D01*
X135626614Y-103260514D01*
X135966695Y-103601190D01*
X136411260Y-103785789D01*
X136892628Y-103786209D01*
X137337514Y-103602386D01*
X137678190Y-103262305D01*
X137862789Y-102817740D01*
X137863128Y-102428663D01*
X155612931Y-102428663D01*
X155761493Y-102788212D01*
X156036341Y-103063540D01*
X156395630Y-103212730D01*
X156784663Y-103213069D01*
X157144212Y-103064507D01*
X157419540Y-102789659D01*
X157568730Y-102430370D01*
X157569069Y-102041337D01*
X157420507Y-101681788D01*
X157145659Y-101406460D01*
X156786370Y-101257270D01*
X156397337Y-101256931D01*
X156037788Y-101405493D01*
X155762460Y-101680341D01*
X155613270Y-102039630D01*
X155612931Y-102428663D01*
X137863128Y-102428663D01*
X137863209Y-102336372D01*
X137679386Y-101891486D01*
X137339305Y-101550810D01*
X136894740Y-101366211D01*
X136413372Y-101365791D01*
X135968486Y-101549614D01*
X135627810Y-101889695D01*
X135443211Y-102334260D01*
X135442791Y-102815628D01*
X125043000Y-102815628D01*
X125043000Y-100315628D01*
X138742791Y-100315628D01*
X138926614Y-100760514D01*
X139266695Y-101101190D01*
X139711260Y-101285789D01*
X140192628Y-101286209D01*
X140637514Y-101102386D01*
X140978190Y-100762305D01*
X141162789Y-100317740D01*
X141163209Y-99836372D01*
X140979386Y-99391486D01*
X140639305Y-99050810D01*
X140194740Y-98866211D01*
X139713372Y-98865791D01*
X139268486Y-99049614D01*
X138927810Y-99389695D01*
X138743211Y-99834260D01*
X138742791Y-100315628D01*
X125043000Y-100315628D01*
X125043000Y-97815628D01*
X135442791Y-97815628D01*
X135626614Y-98260514D01*
X135966695Y-98601190D01*
X136411260Y-98785789D01*
X136892628Y-98786209D01*
X137337514Y-98602386D01*
X137678190Y-98262305D01*
X137862789Y-97817740D01*
X137863209Y-97336372D01*
X137679386Y-96891486D01*
X137339305Y-96550810D01*
X136894740Y-96366211D01*
X136413372Y-96365791D01*
X135968486Y-96549614D01*
X135627810Y-96889695D01*
X135443211Y-97334260D01*
X135442791Y-97815628D01*
X125043000Y-97815628D01*
X125043000Y-94515344D01*
X125444825Y-94515344D01*
X125644415Y-94997218D01*
X126082421Y-95469588D01*
X126667854Y-95738383D01*
X126923800Y-95619767D01*
X126923800Y-94259400D01*
X127177800Y-94259400D01*
X127177800Y-95619767D01*
X127433746Y-95738383D01*
X127522433Y-95697663D01*
X132956131Y-95697663D01*
X133104693Y-96057212D01*
X133379541Y-96332540D01*
X133738830Y-96481730D01*
X134127863Y-96482069D01*
X134366142Y-96383615D01*
X134602430Y-96481730D01*
X134991463Y-96482069D01*
X135351012Y-96333507D01*
X135626340Y-96058659D01*
X135729317Y-95810662D01*
X135843717Y-95925262D01*
X136235669Y-96088015D01*
X136660069Y-96088385D01*
X137052304Y-95926316D01*
X137352662Y-95626483D01*
X137481310Y-95316663D01*
X149135931Y-95316663D01*
X149284493Y-95676212D01*
X149559341Y-95951540D01*
X149918630Y-96100730D01*
X150307663Y-96101069D01*
X150667212Y-95952507D01*
X150942540Y-95677659D01*
X151085128Y-95334269D01*
X151231415Y-95334269D01*
X151393484Y-95726504D01*
X151693317Y-96026862D01*
X152085269Y-96189615D01*
X152509669Y-96189985D01*
X152901904Y-96027916D01*
X153202262Y-95728083D01*
X153365015Y-95336131D01*
X153365253Y-95062663D01*
X154596931Y-95062663D01*
X154745493Y-95422212D01*
X155020341Y-95697540D01*
X155379630Y-95846730D01*
X155768663Y-95847069D01*
X156128212Y-95698507D01*
X156146291Y-95680460D01*
X156163341Y-95697540D01*
X156522630Y-95846730D01*
X156911663Y-95847069D01*
X157271212Y-95698507D01*
X157546540Y-95423659D01*
X157695730Y-95064370D01*
X157696069Y-94675337D01*
X157547507Y-94315788D01*
X157272659Y-94040460D01*
X156913370Y-93891270D01*
X156524337Y-93890931D01*
X156164788Y-94039493D01*
X156146709Y-94057540D01*
X156129659Y-94040460D01*
X155770370Y-93891270D01*
X155381337Y-93890931D01*
X155021788Y-94039493D01*
X154746460Y-94314341D01*
X154597270Y-94673630D01*
X154596931Y-95062663D01*
X153365253Y-95062663D01*
X153365385Y-94911731D01*
X153203316Y-94519496D01*
X152903483Y-94219138D01*
X152511531Y-94056385D01*
X152087131Y-94056015D01*
X151694896Y-94218084D01*
X151394538Y-94517917D01*
X151231785Y-94909869D01*
X151231415Y-95334269D01*
X151085128Y-95334269D01*
X151091730Y-95318370D01*
X151092069Y-94929337D01*
X150943507Y-94569788D01*
X150668659Y-94294460D01*
X150309370Y-94145270D01*
X149920337Y-94144931D01*
X149560788Y-94293493D01*
X149285460Y-94568341D01*
X149136270Y-94927630D01*
X149135931Y-95316663D01*
X137481310Y-95316663D01*
X137515415Y-95234531D01*
X137515785Y-94810131D01*
X137353716Y-94417896D01*
X137053883Y-94117538D01*
X136661931Y-93954785D01*
X136237531Y-93954415D01*
X135845296Y-94116484D01*
X135544938Y-94416317D01*
X135412399Y-94735505D01*
X135352459Y-94675460D01*
X134993170Y-94526270D01*
X134604137Y-94525931D01*
X134365858Y-94624385D01*
X134129570Y-94526270D01*
X133740537Y-94525931D01*
X133380988Y-94674493D01*
X133105660Y-94949341D01*
X132956470Y-95308630D01*
X132956131Y-95697663D01*
X127522433Y-95697663D01*
X128019179Y-95469588D01*
X128457185Y-94997218D01*
X128656775Y-94515344D01*
X128537636Y-94259400D01*
X127177800Y-94259400D01*
X126923800Y-94259400D01*
X125563964Y-94259400D01*
X125444825Y-94515344D01*
X125043000Y-94515344D01*
X125043000Y-91878150D01*
X125399800Y-91878150D01*
X125399800Y-92734710D01*
X125496473Y-92968099D01*
X125675102Y-93146727D01*
X125733896Y-93171080D01*
X125644415Y-93267582D01*
X125444825Y-93749456D01*
X125563964Y-94005400D01*
X126923800Y-94005400D01*
X126923800Y-91719400D01*
X127177800Y-91719400D01*
X127177800Y-94005400D01*
X128537636Y-94005400D01*
X128656775Y-93749456D01*
X128457185Y-93267582D01*
X128367704Y-93171080D01*
X128426498Y-93146727D01*
X128605127Y-92968099D01*
X128701800Y-92734710D01*
X128701800Y-91878150D01*
X128628395Y-91804745D01*
X129981861Y-91804745D01*
X130055995Y-92050864D01*
X130593223Y-92243965D01*
X131163454Y-92216778D01*
X131564005Y-92050864D01*
X131638139Y-91804745D01*
X136331861Y-91804745D01*
X136405995Y-92050864D01*
X136943223Y-92243965D01*
X137513454Y-92216778D01*
X137914005Y-92050864D01*
X137988139Y-91804745D01*
X137160000Y-90976605D01*
X136331861Y-91804745D01*
X131638139Y-91804745D01*
X130810000Y-90976605D01*
X129981861Y-91804745D01*
X128628395Y-91804745D01*
X128543050Y-91719400D01*
X127177800Y-91719400D01*
X126923800Y-91719400D01*
X125558550Y-91719400D01*
X125399800Y-91878150D01*
X125043000Y-91878150D01*
X125043000Y-90245000D01*
X125484751Y-90245000D01*
X125399800Y-90450090D01*
M02*
