G04 #@! TF.FileFunction,Soldermask,Top*
%FSLAX46Y46*%
G04 Gerber Fmt 4.6, Leading zero omitted, Abs format (unit mm)*
G04 Created by KiCad (PCBNEW 0.201602161416+6560~42~ubuntu15.10.1-product) date Wed 17 Feb 2016 02:58:19 PM EST*
%MOMM*%
G01*
G04 APERTURE LIST*
%ADD10C,0.100000*%
%ADD11R,1.000000X0.900000*%
%ADD12R,2.432000X2.127200*%
%ADD13O,2.432000X2.127200*%
%ADD14R,1.200000X1.150000*%
%ADD15R,0.900000X1.000000*%
%ADD16R,1.000000X0.800000*%
%ADD17R,0.800000X1.000000*%
%ADD18R,1.000000X1.500000*%
%ADD19R,0.880000X1.390000*%
%ADD20R,1.000000X1.650000*%
%ADD21C,2.080000*%
%ADD22R,0.900000X1.600000*%
%ADD23C,1.550000*%
%ADD24R,3.795980X1.898600*%
%ADD25R,3.897580X1.395680*%
%ADD26R,1.200000X1.800000*%
%ADD27R,1.750000X2.200000*%
%ADD28R,1.560000X1.900000*%
%ADD29R,1.050000X2.540000*%
%ADD30R,1.000000X1.550000*%
%ADD31R,1.050000X2.000000*%
%ADD32R,1.050000X1.700000*%
%ADD33R,1.500000X0.850000*%
%ADD34R,1.550000X0.850000*%
%ADD35R,2.432000X2.432000*%
%ADD36O,2.432000X2.432000*%
%ADD37R,2.300000X2.000000*%
%ADD38R,2.000000X1.800000*%
%ADD39R,0.800000X1.750000*%
%ADD40C,2.000000*%
%ADD41R,1.150000X1.200000*%
%ADD42R,1.460000X1.050000*%
%ADD43C,1.123000*%
%ADD44C,0.962000*%
%ADD45C,0.912000*%
%ADD46C,1.624000*%
%ADD47R,1.050000X0.945000*%
%ADD48C,1.850000*%
%ADD49R,1.100000X0.600000*%
%ADD50R,1.000000X1.200000*%
%ADD51C,1.950000*%
%ADD52R,1.060400X0.806400*%
%ADD53O,1.400000X0.700000*%
%ADD54O,0.700000X1.400000*%
%ADD55R,2.500000X2.500000*%
G04 APERTURE END LIST*
D10*
D11*
X130666400Y-115417600D03*
X131766400Y-115417600D03*
D12*
X126746000Y-133756400D03*
D13*
X126746000Y-131216400D03*
X126746000Y-128676400D03*
D11*
X143976000Y-138379200D03*
X145076000Y-138379200D03*
X146981000Y-140970000D03*
X145881000Y-140970000D03*
X138074400Y-105511600D03*
X136974400Y-105511600D03*
X137964000Y-112395000D03*
X136864000Y-112395000D03*
X142350400Y-140868400D03*
X143450400Y-140868400D03*
X130717200Y-117906800D03*
X131817200Y-117906800D03*
X130293200Y-133858000D03*
X129193200Y-133858000D03*
D14*
X137542400Y-133705600D03*
X136042400Y-133705600D03*
X130720400Y-112674400D03*
X132220400Y-112674400D03*
D11*
X137659200Y-135534400D03*
X136559200Y-135534400D03*
X145347600Y-133502400D03*
X146447600Y-133502400D03*
X140250000Y-131673600D03*
X139150000Y-131673600D03*
X133774000Y-128930400D03*
X134874000Y-128930400D03*
D15*
X135331200Y-139810400D03*
X135331200Y-140910400D03*
D11*
X133765200Y-127355600D03*
X134865200Y-127355600D03*
X142858400Y-136855200D03*
X143958400Y-136855200D03*
X136406800Y-125679200D03*
X137506800Y-125679200D03*
D15*
X141605000Y-144865000D03*
X141605000Y-145965000D03*
D14*
X144322800Y-124917200D03*
X142822800Y-124917200D03*
D11*
X130852000Y-143383000D03*
X129752000Y-143383000D03*
D14*
X127623000Y-140843000D03*
X126123000Y-140843000D03*
D11*
X143856800Y-127660400D03*
X142756800Y-127660400D03*
D14*
X129806000Y-146304000D03*
X131306000Y-146304000D03*
D11*
X127085000Y-106045000D03*
X128185000Y-106045000D03*
D16*
X131114800Y-110178000D03*
X131114800Y-109278000D03*
D17*
X134308000Y-107569000D03*
X133408000Y-107569000D03*
D16*
X137414000Y-131310800D03*
X137414000Y-130410800D03*
D17*
X136361600Y-127355600D03*
X137261600Y-127355600D03*
D16*
X138023600Y-140912000D03*
X138023600Y-140012000D03*
X131876800Y-127348400D03*
X131876800Y-126448400D03*
D17*
X140607200Y-140868400D03*
X139707200Y-140868400D03*
X139453200Y-133451600D03*
X140353200Y-133451600D03*
X143060000Y-135026400D03*
X143960000Y-135026400D03*
X140092000Y-120192800D03*
X139192000Y-120192800D03*
X141013600Y-127355600D03*
X140113600Y-127355600D03*
D18*
X136057600Y-110439200D03*
X137007600Y-110439200D03*
X137957600Y-110439200D03*
X137957600Y-107639200D03*
X136057600Y-107639200D03*
D19*
X139060400Y-138124400D03*
X139710400Y-138124400D03*
X140360400Y-138124400D03*
X141010400Y-138124400D03*
X141010400Y-135534400D03*
X140360400Y-135534400D03*
X139710400Y-135534400D03*
X139060400Y-135534400D03*
D20*
X144785000Y-130048000D03*
X146685000Y-130048000D03*
X145735000Y-127898000D03*
D21*
X147167600Y-117500400D03*
X126949200Y-114706400D03*
X142646400Y-131622800D03*
X135331200Y-137922000D03*
X132435600Y-141681200D03*
X147624800Y-135178800D03*
D22*
X127569000Y-143383000D03*
X126619000Y-143383000D03*
X125669000Y-143383000D03*
X125669000Y-145733000D03*
X127569000Y-145733000D03*
D16*
X144907000Y-122511400D03*
X144907000Y-123411400D03*
D23*
X139953000Y-100076000D03*
X136653000Y-102576000D03*
X136653000Y-97576000D03*
D24*
X126911100Y-96619060D03*
D25*
X132461000Y-98968560D03*
X132461000Y-100965000D03*
D24*
X126911100Y-103314500D03*
D26*
X156673000Y-93218000D03*
X155573000Y-93218000D03*
X154473000Y-93218000D03*
X153373000Y-93218000D03*
X152273000Y-93218000D03*
X151173000Y-93218000D03*
X150073000Y-93218000D03*
X148973000Y-93218000D03*
D27*
X157563000Y-91168000D03*
D28*
X144243000Y-90918000D03*
D29*
X157888000Y-97798000D03*
D30*
X143963000Y-98893000D03*
D31*
X157888000Y-102878000D03*
D32*
X143988000Y-104818000D03*
D33*
X157663000Y-104383000D03*
D34*
X157638000Y-105043000D03*
D17*
X140901000Y-105410000D03*
X141801000Y-105410000D03*
D16*
X140843000Y-94245000D03*
X140843000Y-93345000D03*
D17*
X156776000Y-110490000D03*
X157676000Y-110490000D03*
D35*
X127050800Y-91592400D03*
D36*
X127050800Y-94132400D03*
D17*
X139946800Y-129133600D03*
X139046800Y-129133600D03*
D15*
X148336000Y-108627000D03*
X148336000Y-107527000D03*
X145288000Y-112861000D03*
X145288000Y-113961000D03*
D37*
X135185000Y-90797000D03*
X132785000Y-90797000D03*
D38*
X137185000Y-93297000D03*
X130785000Y-93297000D03*
D39*
X135285000Y-93472000D03*
X134635000Y-93472000D03*
X133985000Y-93472000D03*
X133335000Y-93472000D03*
X132685000Y-93472000D03*
D40*
X137160000Y-90797000D03*
X130810000Y-90797000D03*
D14*
X130239200Y-122021600D03*
X128739200Y-122021600D03*
D11*
X130344000Y-123799600D03*
X129244000Y-123799600D03*
X136559200Y-121970800D03*
X137659200Y-121970800D03*
X140961200Y-124764800D03*
X139861200Y-124764800D03*
D14*
X139407200Y-122123200D03*
X140907200Y-122123200D03*
D11*
X139810400Y-118465600D03*
X140910400Y-118465600D03*
X139810400Y-116687600D03*
X140910400Y-116687600D03*
D14*
X139864400Y-114858800D03*
X141364400Y-114858800D03*
D16*
X129387600Y-126448400D03*
X129387600Y-127348400D03*
X133807200Y-118618000D03*
X133807200Y-119518000D03*
D17*
X126042000Y-123037600D03*
X126942000Y-123037600D03*
X134511200Y-114401600D03*
X133611200Y-114401600D03*
X126942000Y-120345200D03*
X126042000Y-120345200D03*
X133611200Y-116992400D03*
X134511200Y-116992400D03*
D19*
X133157200Y-124560800D03*
X133807200Y-124560800D03*
X134457200Y-124560800D03*
X135107200Y-124560800D03*
X135107200Y-121970800D03*
X134457200Y-121970800D03*
X133807200Y-121970800D03*
X133157200Y-121970800D03*
D21*
X126492000Y-125577600D03*
X136448800Y-114503200D03*
D41*
X128016000Y-136359200D03*
X128016000Y-137859200D03*
D42*
X134297600Y-132522000D03*
X134297600Y-131572000D03*
X134297600Y-130622000D03*
X132097600Y-130622000D03*
X132097600Y-132522000D03*
X132097600Y-131572000D03*
D43*
X143814000Y-143439000D03*
D44*
X143765000Y-146176000D03*
X145795000Y-146176000D03*
D43*
X145746000Y-143439000D03*
D45*
X144780000Y-143439000D03*
D46*
X144780000Y-145542000D03*
D47*
X138209000Y-143810500D03*
X139159000Y-143810500D03*
D48*
X138684000Y-145288000D03*
D49*
X152781000Y-125443000D03*
X149701000Y-125443000D03*
X152781000Y-125043000D03*
X149701000Y-125043000D03*
X152781000Y-124643000D03*
X149701000Y-124643000D03*
X152781000Y-124243000D03*
X149701000Y-124243000D03*
X152781000Y-123843000D03*
X149701000Y-123843000D03*
X152781000Y-123443000D03*
X149701000Y-123443000D03*
X152781000Y-123043000D03*
X149701000Y-123043000D03*
X152781000Y-122643000D03*
X149701000Y-122643000D03*
X152781000Y-122243000D03*
X149701000Y-122243000D03*
X152781000Y-121843000D03*
X149701000Y-121843000D03*
X152781000Y-121443000D03*
X149701000Y-121443000D03*
X152781000Y-121043000D03*
X149701000Y-121043000D03*
X152781000Y-120643000D03*
X149701000Y-120643000D03*
X152781000Y-120243000D03*
X149701000Y-120243000D03*
X152781000Y-119843000D03*
X149701000Y-119843000D03*
X152781000Y-119443000D03*
X149701000Y-119443000D03*
X152781000Y-119043000D03*
X149701000Y-119043000D03*
X152781000Y-118643000D03*
X149701000Y-118643000D03*
X152781000Y-118243000D03*
X149701000Y-118243000D03*
X152781000Y-117843000D03*
X149701000Y-117843000D03*
X152781000Y-117443000D03*
X149701000Y-117443000D03*
X152781000Y-117043000D03*
X149701000Y-117043000D03*
X152781000Y-116643000D03*
X149701000Y-116643000D03*
X152781000Y-116243000D03*
X149701000Y-116243000D03*
X152781000Y-115843000D03*
X149701000Y-115843000D03*
X152781000Y-115443000D03*
X149701000Y-115443000D03*
X152781000Y-115043000D03*
X149701000Y-115043000D03*
X152781000Y-114643000D03*
X149701000Y-114643000D03*
X152781000Y-114243000D03*
X149701000Y-114243000D03*
X152781000Y-113843000D03*
X149701000Y-113843000D03*
X152781000Y-113443000D03*
X149701000Y-113443000D03*
X152781000Y-113043000D03*
X149701000Y-113043000D03*
X152781000Y-112643000D03*
X149701000Y-112643000D03*
X152781000Y-112243000D03*
X149701000Y-112243000D03*
X152781000Y-111843000D03*
X149701000Y-111843000D03*
D50*
X134366000Y-145792000D03*
X135586000Y-145792000D03*
D51*
X134976000Y-144272000D03*
D21*
X126441200Y-108585000D03*
D52*
X125933200Y-116433600D03*
X125933200Y-117754400D03*
X125933200Y-117094000D03*
X127965200Y-117754400D03*
X127965200Y-116433600D03*
X136093200Y-117322600D03*
X136093200Y-118643400D03*
X136093200Y-117983000D03*
X138125200Y-118643400D03*
X138125200Y-117322600D03*
D53*
X145583400Y-110317800D03*
X145583400Y-109667800D03*
X145583400Y-109017800D03*
X145583400Y-108367800D03*
D54*
X144708400Y-107492800D03*
D53*
X141883400Y-110317800D03*
D54*
X144708400Y-111192800D03*
X144058400Y-107492800D03*
X143408400Y-107492800D03*
X142758400Y-107492800D03*
D53*
X141883400Y-109667800D03*
X141883400Y-109017800D03*
X141883400Y-108367800D03*
D54*
X144058400Y-111192800D03*
X143408400Y-111192800D03*
X142758400Y-111192800D03*
D55*
X143733400Y-109342800D03*
M02*
