G04 #@! TF.FileFunction,Legend,Bot*
%FSLAX46Y46*%
G04 Gerber Fmt 4.6, Leading zero omitted, Abs format (unit mm)*
G04 Created by KiCad (PCBNEW 4.0.2+dfsg1-stable) date Mon 02 May 2016 01:19:17 PM EDT*
%MOMM*%
G01*
G04 APERTURE LIST*
%ADD10C,0.100000*%
%ADD11C,0.307000*%
%ADD12C,0.150000*%
%ADD13C,0.127000*%
G04 APERTURE END LIST*
D10*
D11*
X116951000Y-92473000D02*
G75*
G03X116951000Y-92473000I-2250000J0D01*
G01*
X96351000Y-121163000D02*
G75*
G03X96351000Y-121163000I-2250000J0D01*
G01*
D12*
X99980000Y-115662400D02*
X95530000Y-115662400D01*
X101505000Y-108912400D02*
X95530000Y-108912400D01*
X93734200Y-108088200D02*
X93234200Y-108088200D01*
X93234200Y-107138200D02*
X93734200Y-107138200D01*
X102573400Y-117232200D02*
X102073400Y-117232200D01*
X102073400Y-116282200D02*
X102573400Y-116282200D01*
X88505800Y-77082400D02*
X88505800Y-79622400D01*
X88225800Y-74262400D02*
X88225800Y-75812400D01*
X88505800Y-77082400D02*
X91045800Y-77082400D01*
X91325800Y-75812400D02*
X91325800Y-74262400D01*
X91325800Y-74262400D02*
X88225800Y-74262400D01*
X91045800Y-77082400D02*
X91045800Y-79622400D01*
X91045800Y-79622400D02*
X88505800Y-79622400D01*
X88201000Y-116706400D02*
X88201000Y-111626400D01*
X88201000Y-111626400D02*
X90741000Y-111626400D01*
X90741000Y-111626400D02*
X90741000Y-116706400D01*
X91021000Y-119526400D02*
X91021000Y-117976400D01*
X90741000Y-116706400D02*
X88201000Y-116706400D01*
X87921000Y-117976400D02*
X87921000Y-119526400D01*
X87921000Y-119526400D02*
X91021000Y-119526400D01*
D11*
X116951000Y-31418000D02*
G75*
G03X116951000Y-31418000I-2250000J0D01*
G01*
X96351000Y-60108000D02*
G75*
G03X96351000Y-60108000I-2250000J0D01*
G01*
D12*
X99980000Y-54607400D02*
X95530000Y-54607400D01*
X101505000Y-47857400D02*
X95530000Y-47857400D01*
X93734200Y-47033200D02*
X93234200Y-47033200D01*
X93234200Y-46083200D02*
X93734200Y-46083200D01*
X102573400Y-56177200D02*
X102073400Y-56177200D01*
X102073400Y-55227200D02*
X102573400Y-55227200D01*
X88505800Y-16027400D02*
X88505800Y-18567400D01*
X88225800Y-13207400D02*
X88225800Y-14757400D01*
X88505800Y-16027400D02*
X91045800Y-16027400D01*
X91325800Y-14757400D02*
X91325800Y-13207400D01*
X91325800Y-13207400D02*
X88225800Y-13207400D01*
X91045800Y-16027400D02*
X91045800Y-18567400D01*
X91045800Y-18567400D02*
X88505800Y-18567400D01*
X88201000Y-55651400D02*
X88201000Y-50571400D01*
X88201000Y-50571400D02*
X90741000Y-50571400D01*
X90741000Y-50571400D02*
X90741000Y-55651400D01*
X91021000Y-58471400D02*
X91021000Y-56921400D01*
X90741000Y-55651400D02*
X88201000Y-55651400D01*
X87921000Y-56921400D02*
X87921000Y-58471400D01*
X87921000Y-58471400D02*
X91021000Y-58471400D01*
D11*
X79772000Y-92473000D02*
G75*
G03X79772000Y-92473000I-2250000J0D01*
G01*
X59172000Y-121163000D02*
G75*
G03X59172000Y-121163000I-2250000J0D01*
G01*
D12*
X62801000Y-115662400D02*
X58351000Y-115662400D01*
X64326000Y-108912400D02*
X58351000Y-108912400D01*
X56555200Y-108088200D02*
X56055200Y-108088200D01*
X56055200Y-107138200D02*
X56555200Y-107138200D01*
X65394400Y-117232200D02*
X64894400Y-117232200D01*
X64894400Y-116282200D02*
X65394400Y-116282200D01*
X51326800Y-77082400D02*
X51326800Y-79622400D01*
X51046800Y-74262400D02*
X51046800Y-75812400D01*
X51326800Y-77082400D02*
X53866800Y-77082400D01*
X54146800Y-75812400D02*
X54146800Y-74262400D01*
X54146800Y-74262400D02*
X51046800Y-74262400D01*
X53866800Y-77082400D02*
X53866800Y-79622400D01*
X53866800Y-79622400D02*
X51326800Y-79622400D01*
X51022000Y-116706400D02*
X51022000Y-111626400D01*
X51022000Y-111626400D02*
X53562000Y-111626400D01*
X53562000Y-111626400D02*
X53562000Y-116706400D01*
X53842000Y-119526400D02*
X53842000Y-117976400D01*
X53562000Y-116706400D02*
X51022000Y-116706400D01*
X50742000Y-117976400D02*
X50742000Y-119526400D01*
X50742000Y-119526400D02*
X53842000Y-119526400D01*
D11*
X79772000Y-31418000D02*
G75*
G03X79772000Y-31418000I-2250000J0D01*
G01*
X59172000Y-60108000D02*
G75*
G03X59172000Y-60108000I-2250000J0D01*
G01*
D12*
X62801000Y-54607400D02*
X58351000Y-54607400D01*
X64326000Y-47857400D02*
X58351000Y-47857400D01*
X56555200Y-47033200D02*
X56055200Y-47033200D01*
X56055200Y-46083200D02*
X56555200Y-46083200D01*
X65394400Y-56177200D02*
X64894400Y-56177200D01*
X64894400Y-55227200D02*
X65394400Y-55227200D01*
X51326800Y-16027400D02*
X51326800Y-18567400D01*
X51046800Y-13207400D02*
X51046800Y-14757400D01*
X51326800Y-16027400D02*
X53866800Y-16027400D01*
X54146800Y-14757400D02*
X54146800Y-13207400D01*
X54146800Y-13207400D02*
X51046800Y-13207400D01*
X53866800Y-16027400D02*
X53866800Y-18567400D01*
X53866800Y-18567400D02*
X51326800Y-18567400D01*
X51022000Y-55651400D02*
X51022000Y-50571400D01*
X51022000Y-50571400D02*
X53562000Y-50571400D01*
X53562000Y-50571400D02*
X53562000Y-55651400D01*
X53842000Y-58471400D02*
X53842000Y-56921400D01*
X53562000Y-55651400D02*
X51022000Y-55651400D01*
X50742000Y-56921400D02*
X50742000Y-58471400D01*
X50742000Y-58471400D02*
X53842000Y-58471400D01*
D11*
X42593000Y-92473000D02*
G75*
G03X42593000Y-92473000I-2250000J0D01*
G01*
X21993000Y-121163000D02*
G75*
G03X21993000Y-121163000I-2250000J0D01*
G01*
D12*
X25622000Y-115662400D02*
X21172000Y-115662400D01*
X27147000Y-108912400D02*
X21172000Y-108912400D01*
X19376200Y-108088200D02*
X18876200Y-108088200D01*
X18876200Y-107138200D02*
X19376200Y-107138200D01*
X28215400Y-117232200D02*
X27715400Y-117232200D01*
X27715400Y-116282200D02*
X28215400Y-116282200D01*
X14147800Y-77082400D02*
X14147800Y-79622400D01*
X13867800Y-74262400D02*
X13867800Y-75812400D01*
X14147800Y-77082400D02*
X16687800Y-77082400D01*
X16967800Y-75812400D02*
X16967800Y-74262400D01*
X16967800Y-74262400D02*
X13867800Y-74262400D01*
X16687800Y-77082400D02*
X16687800Y-79622400D01*
X16687800Y-79622400D02*
X14147800Y-79622400D01*
X13843000Y-116706400D02*
X13843000Y-111626400D01*
X13843000Y-111626400D02*
X16383000Y-111626400D01*
X16383000Y-111626400D02*
X16383000Y-116706400D01*
X16663000Y-119526400D02*
X16663000Y-117976400D01*
X16383000Y-116706400D02*
X13843000Y-116706400D01*
X13563000Y-117976400D02*
X13563000Y-119526400D01*
X13563000Y-119526400D02*
X16663000Y-119526400D01*
X13843000Y-55651400D02*
X13843000Y-50571400D01*
X13843000Y-50571400D02*
X16383000Y-50571400D01*
X16383000Y-50571400D02*
X16383000Y-55651400D01*
X16663000Y-58471400D02*
X16663000Y-56921400D01*
X16383000Y-55651400D02*
X13843000Y-55651400D01*
X13563000Y-56921400D02*
X13563000Y-58471400D01*
X13563000Y-58471400D02*
X16663000Y-58471400D01*
X14147800Y-16027400D02*
X14147800Y-18567400D01*
X13867800Y-13207400D02*
X13867800Y-14757400D01*
X14147800Y-16027400D02*
X16687800Y-16027400D01*
X16967800Y-14757400D02*
X16967800Y-13207400D01*
X16967800Y-13207400D02*
X13867800Y-13207400D01*
X16687800Y-16027400D02*
X16687800Y-18567400D01*
X16687800Y-18567400D02*
X14147800Y-18567400D01*
X28215400Y-56177200D02*
X27715400Y-56177200D01*
X27715400Y-55227200D02*
X28215400Y-55227200D01*
X19376200Y-47033200D02*
X18876200Y-47033200D01*
X18876200Y-46083200D02*
X19376200Y-46083200D01*
X25622000Y-54607400D02*
X21172000Y-54607400D01*
X27147000Y-47857400D02*
X21172000Y-47857400D01*
D11*
X42593000Y-31418000D02*
G75*
G03X42593000Y-31418000I-2250000J0D01*
G01*
X21993000Y-60108000D02*
G75*
G03X21993000Y-60108000I-2250000J0D01*
G01*
D12*
X90070962Y-89590381D02*
X89832867Y-90590381D01*
X89642390Y-89876095D01*
X89451914Y-90590381D01*
X89213819Y-89590381D01*
X88309057Y-90590381D02*
X88880486Y-90590381D01*
X88594772Y-90590381D02*
X88594772Y-89590381D01*
X88690010Y-89733238D01*
X88785248Y-89828476D01*
X88880486Y-89876095D01*
D13*
X98449295Y-107488619D02*
X98449295Y-108311095D01*
X98400914Y-108407857D01*
X98352533Y-108456238D01*
X98255771Y-108504619D01*
X98062248Y-108504619D01*
X97965486Y-108456238D01*
X97917105Y-108407857D01*
X97868724Y-108311095D01*
X97868724Y-107488619D01*
X97481676Y-107488619D02*
X96804343Y-107488619D01*
X97239771Y-108504619D01*
X99991438Y-95169619D02*
X99749533Y-96185619D01*
X99556010Y-95459905D01*
X99362486Y-96185619D01*
X99120581Y-95169619D01*
X98685152Y-96185619D02*
X98491628Y-96185619D01*
X98394867Y-96137238D01*
X98346486Y-96088857D01*
X98249724Y-95943714D01*
X98201343Y-95750190D01*
X98201343Y-95363143D01*
X98249724Y-95266381D01*
X98298105Y-95218000D01*
X98394867Y-95169619D01*
X98588390Y-95169619D01*
X98685152Y-95218000D01*
X98733533Y-95266381D01*
X98781914Y-95363143D01*
X98781914Y-95605048D01*
X98733533Y-95701810D01*
X98685152Y-95750190D01*
X98588390Y-95798571D01*
X98394867Y-95798571D01*
X98298105Y-95750190D01*
X98249724Y-95701810D01*
X98201343Y-95605048D01*
X90593438Y-106599619D02*
X90351533Y-107615619D01*
X90158010Y-106889905D01*
X89964486Y-107615619D01*
X89722581Y-106599619D01*
X89432295Y-106599619D02*
X88803343Y-106599619D01*
X89142009Y-106986667D01*
X88996867Y-106986667D01*
X88900105Y-107035048D01*
X88851724Y-107083429D01*
X88803343Y-107180190D01*
X88803343Y-107422095D01*
X88851724Y-107518857D01*
X88900105Y-107567238D01*
X88996867Y-107615619D01*
X89287152Y-107615619D01*
X89383914Y-107567238D01*
X89432295Y-107518857D01*
X94264343Y-106629857D02*
X94312724Y-106678238D01*
X94457867Y-106726619D01*
X94554629Y-106726619D01*
X94699771Y-106678238D01*
X94796533Y-106581476D01*
X94844914Y-106484714D01*
X94893295Y-106291190D01*
X94893295Y-106146048D01*
X94844914Y-105952524D01*
X94796533Y-105855762D01*
X94699771Y-105759000D01*
X94554629Y-105710619D01*
X94457867Y-105710619D01*
X94312724Y-105759000D01*
X94264343Y-105807381D01*
X93296724Y-106726619D02*
X93877295Y-106726619D01*
X93587009Y-106726619D02*
X93587009Y-105710619D01*
X93683771Y-105855762D01*
X93780533Y-105952524D01*
X93877295Y-106000905D01*
X92812914Y-106726619D02*
X92619390Y-106726619D01*
X92522629Y-106678238D01*
X92474248Y-106629857D01*
X92377486Y-106484714D01*
X92329105Y-106291190D01*
X92329105Y-105904143D01*
X92377486Y-105807381D01*
X92425867Y-105759000D01*
X92522629Y-105710619D01*
X92716152Y-105710619D01*
X92812914Y-105759000D01*
X92861295Y-105807381D01*
X92909676Y-105904143D01*
X92909676Y-106146048D01*
X92861295Y-106242810D01*
X92812914Y-106291190D01*
X92716152Y-106339571D01*
X92522629Y-106339571D01*
X92425867Y-106291190D01*
X92377486Y-106242810D01*
X92329105Y-106146048D01*
X102925743Y-118593257D02*
X102974124Y-118641638D01*
X103119267Y-118690019D01*
X103216029Y-118690019D01*
X103361171Y-118641638D01*
X103457933Y-118544876D01*
X103506314Y-118448114D01*
X103554695Y-118254590D01*
X103554695Y-118109448D01*
X103506314Y-117915924D01*
X103457933Y-117819162D01*
X103361171Y-117722400D01*
X103216029Y-117674019D01*
X103119267Y-117674019D01*
X102974124Y-117722400D01*
X102925743Y-117770781D01*
X101958124Y-118690019D02*
X102538695Y-118690019D01*
X102248409Y-118690019D02*
X102248409Y-117674019D01*
X102345171Y-117819162D01*
X102441933Y-117915924D01*
X102538695Y-117964305D01*
X101619457Y-117674019D02*
X100990505Y-117674019D01*
X101329171Y-118061067D01*
X101184029Y-118061067D01*
X101087267Y-118109448D01*
X101038886Y-118157829D01*
X100990505Y-118254590D01*
X100990505Y-118496495D01*
X101038886Y-118593257D01*
X101087267Y-118641638D01*
X101184029Y-118690019D01*
X101474314Y-118690019D01*
X101571076Y-118641638D01*
X101619457Y-118593257D01*
X90474904Y-81961619D02*
X90474904Y-80945619D01*
X90087857Y-80945619D01*
X89991095Y-80994000D01*
X89942714Y-81042381D01*
X89894333Y-81139143D01*
X89894333Y-81284286D01*
X89942714Y-81381048D01*
X89991095Y-81429429D01*
X90087857Y-81477810D01*
X90474904Y-81477810D01*
X89507285Y-81042381D02*
X89458904Y-80994000D01*
X89362142Y-80945619D01*
X89120238Y-80945619D01*
X89023476Y-80994000D01*
X88975095Y-81042381D01*
X88926714Y-81139143D01*
X88926714Y-81235905D01*
X88975095Y-81381048D01*
X89555666Y-81961619D01*
X88926714Y-81961619D01*
X111294438Y-116124619D02*
X111052533Y-117140619D01*
X110859010Y-116414905D01*
X110665486Y-117140619D01*
X110423581Y-116124619D01*
X109891390Y-116560048D02*
X109988152Y-116511667D01*
X110036533Y-116463286D01*
X110084914Y-116366524D01*
X110084914Y-116318143D01*
X110036533Y-116221381D01*
X109988152Y-116173000D01*
X109891390Y-116124619D01*
X109697867Y-116124619D01*
X109601105Y-116173000D01*
X109552724Y-116221381D01*
X109504343Y-116318143D01*
X109504343Y-116366524D01*
X109552724Y-116463286D01*
X109601105Y-116511667D01*
X109697867Y-116560048D01*
X109891390Y-116560048D01*
X109988152Y-116608429D01*
X110036533Y-116656810D01*
X110084914Y-116753571D01*
X110084914Y-116947095D01*
X110036533Y-117043857D01*
X109988152Y-117092238D01*
X109891390Y-117140619D01*
X109697867Y-117140619D01*
X109601105Y-117092238D01*
X109552724Y-117043857D01*
X109504343Y-116947095D01*
X109504343Y-116753571D01*
X109552724Y-116656810D01*
X109601105Y-116608429D01*
X109697867Y-116560048D01*
X96079838Y-128062619D02*
X95837933Y-129078619D01*
X95644410Y-128352905D01*
X95450886Y-129078619D01*
X95208981Y-128062619D01*
X94918695Y-128062619D02*
X94241362Y-128062619D01*
X94676790Y-129078619D01*
X98975438Y-119045619D02*
X98733533Y-120061619D01*
X98540010Y-119335905D01*
X98346486Y-120061619D01*
X98104581Y-119045619D01*
X97282105Y-119045619D02*
X97475628Y-119045619D01*
X97572390Y-119094000D01*
X97620771Y-119142381D01*
X97717533Y-119287524D01*
X97765914Y-119481048D01*
X97765914Y-119868095D01*
X97717533Y-119964857D01*
X97669152Y-120013238D01*
X97572390Y-120061619D01*
X97378867Y-120061619D01*
X97282105Y-120013238D01*
X97233724Y-119964857D01*
X97185343Y-119868095D01*
X97185343Y-119626190D01*
X97233724Y-119529429D01*
X97282105Y-119481048D01*
X97378867Y-119432667D01*
X97572390Y-119432667D01*
X97669152Y-119481048D01*
X97717533Y-119529429D01*
X97765914Y-119626190D01*
X106214438Y-112695619D02*
X105972533Y-113711619D01*
X105779010Y-112985905D01*
X105585486Y-113711619D01*
X105343581Y-112695619D01*
X104472724Y-112695619D02*
X104956533Y-112695619D01*
X105004914Y-113179429D01*
X104956533Y-113131048D01*
X104859771Y-113082667D01*
X104617867Y-113082667D01*
X104521105Y-113131048D01*
X104472724Y-113179429D01*
X104424343Y-113276190D01*
X104424343Y-113518095D01*
X104472724Y-113614857D01*
X104521105Y-113663238D01*
X104617867Y-113711619D01*
X104859771Y-113711619D01*
X104956533Y-113663238D01*
X105004914Y-113614857D01*
X90593438Y-95677619D02*
X90351533Y-96693619D01*
X90158010Y-95967905D01*
X89964486Y-96693619D01*
X89722581Y-95677619D01*
X88900105Y-96016286D02*
X88900105Y-96693619D01*
X89142009Y-95629238D02*
X89383914Y-96354952D01*
X88754962Y-96354952D01*
X107738438Y-101138619D02*
X107496533Y-102154619D01*
X107303010Y-101428905D01*
X107109486Y-102154619D01*
X106867581Y-101138619D01*
X106528914Y-101235381D02*
X106480533Y-101187000D01*
X106383771Y-101138619D01*
X106141867Y-101138619D01*
X106045105Y-101187000D01*
X105996724Y-101235381D01*
X105948343Y-101332143D01*
X105948343Y-101428905D01*
X105996724Y-101574048D01*
X106577295Y-102154619D01*
X105948343Y-102154619D01*
X90170104Y-121128419D02*
X90170104Y-120112419D01*
X89783057Y-120112419D01*
X89686295Y-120160800D01*
X89637914Y-120209181D01*
X89589533Y-120305943D01*
X89589533Y-120451086D01*
X89637914Y-120547848D01*
X89686295Y-120596229D01*
X89783057Y-120644610D01*
X90170104Y-120644610D01*
X88621914Y-121128419D02*
X89202485Y-121128419D01*
X88912199Y-121128419D02*
X88912199Y-120112419D01*
X89008961Y-120257562D01*
X89105723Y-120354324D01*
X89202485Y-120402705D01*
D12*
X90070962Y-28535381D02*
X89832867Y-29535381D01*
X89642390Y-28821095D01*
X89451914Y-29535381D01*
X89213819Y-28535381D01*
X88309057Y-29535381D02*
X88880486Y-29535381D01*
X88594772Y-29535381D02*
X88594772Y-28535381D01*
X88690010Y-28678238D01*
X88785248Y-28773476D01*
X88880486Y-28821095D01*
D13*
X98449295Y-46433619D02*
X98449295Y-47256095D01*
X98400914Y-47352857D01*
X98352533Y-47401238D01*
X98255771Y-47449619D01*
X98062248Y-47449619D01*
X97965486Y-47401238D01*
X97917105Y-47352857D01*
X97868724Y-47256095D01*
X97868724Y-46433619D01*
X97481676Y-46433619D02*
X96804343Y-46433619D01*
X97239771Y-47449619D01*
X99991438Y-34114619D02*
X99749533Y-35130619D01*
X99556010Y-34404905D01*
X99362486Y-35130619D01*
X99120581Y-34114619D01*
X98685152Y-35130619D02*
X98491628Y-35130619D01*
X98394867Y-35082238D01*
X98346486Y-35033857D01*
X98249724Y-34888714D01*
X98201343Y-34695190D01*
X98201343Y-34308143D01*
X98249724Y-34211381D01*
X98298105Y-34163000D01*
X98394867Y-34114619D01*
X98588390Y-34114619D01*
X98685152Y-34163000D01*
X98733533Y-34211381D01*
X98781914Y-34308143D01*
X98781914Y-34550048D01*
X98733533Y-34646810D01*
X98685152Y-34695190D01*
X98588390Y-34743571D01*
X98394867Y-34743571D01*
X98298105Y-34695190D01*
X98249724Y-34646810D01*
X98201343Y-34550048D01*
X90593438Y-45544619D02*
X90351533Y-46560619D01*
X90158010Y-45834905D01*
X89964486Y-46560619D01*
X89722581Y-45544619D01*
X89432295Y-45544619D02*
X88803343Y-45544619D01*
X89142009Y-45931667D01*
X88996867Y-45931667D01*
X88900105Y-45980048D01*
X88851724Y-46028429D01*
X88803343Y-46125190D01*
X88803343Y-46367095D01*
X88851724Y-46463857D01*
X88900105Y-46512238D01*
X88996867Y-46560619D01*
X89287152Y-46560619D01*
X89383914Y-46512238D01*
X89432295Y-46463857D01*
X94264343Y-45574857D02*
X94312724Y-45623238D01*
X94457867Y-45671619D01*
X94554629Y-45671619D01*
X94699771Y-45623238D01*
X94796533Y-45526476D01*
X94844914Y-45429714D01*
X94893295Y-45236190D01*
X94893295Y-45091048D01*
X94844914Y-44897524D01*
X94796533Y-44800762D01*
X94699771Y-44704000D01*
X94554629Y-44655619D01*
X94457867Y-44655619D01*
X94312724Y-44704000D01*
X94264343Y-44752381D01*
X93296724Y-45671619D02*
X93877295Y-45671619D01*
X93587009Y-45671619D02*
X93587009Y-44655619D01*
X93683771Y-44800762D01*
X93780533Y-44897524D01*
X93877295Y-44945905D01*
X92812914Y-45671619D02*
X92619390Y-45671619D01*
X92522629Y-45623238D01*
X92474248Y-45574857D01*
X92377486Y-45429714D01*
X92329105Y-45236190D01*
X92329105Y-44849143D01*
X92377486Y-44752381D01*
X92425867Y-44704000D01*
X92522629Y-44655619D01*
X92716152Y-44655619D01*
X92812914Y-44704000D01*
X92861295Y-44752381D01*
X92909676Y-44849143D01*
X92909676Y-45091048D01*
X92861295Y-45187810D01*
X92812914Y-45236190D01*
X92716152Y-45284571D01*
X92522629Y-45284571D01*
X92425867Y-45236190D01*
X92377486Y-45187810D01*
X92329105Y-45091048D01*
X102925743Y-57538257D02*
X102974124Y-57586638D01*
X103119267Y-57635019D01*
X103216029Y-57635019D01*
X103361171Y-57586638D01*
X103457933Y-57489876D01*
X103506314Y-57393114D01*
X103554695Y-57199590D01*
X103554695Y-57054448D01*
X103506314Y-56860924D01*
X103457933Y-56764162D01*
X103361171Y-56667400D01*
X103216029Y-56619019D01*
X103119267Y-56619019D01*
X102974124Y-56667400D01*
X102925743Y-56715781D01*
X101958124Y-57635019D02*
X102538695Y-57635019D01*
X102248409Y-57635019D02*
X102248409Y-56619019D01*
X102345171Y-56764162D01*
X102441933Y-56860924D01*
X102538695Y-56909305D01*
X101619457Y-56619019D02*
X100990505Y-56619019D01*
X101329171Y-57006067D01*
X101184029Y-57006067D01*
X101087267Y-57054448D01*
X101038886Y-57102829D01*
X100990505Y-57199590D01*
X100990505Y-57441495D01*
X101038886Y-57538257D01*
X101087267Y-57586638D01*
X101184029Y-57635019D01*
X101474314Y-57635019D01*
X101571076Y-57586638D01*
X101619457Y-57538257D01*
X90474904Y-20906619D02*
X90474904Y-19890619D01*
X90087857Y-19890619D01*
X89991095Y-19939000D01*
X89942714Y-19987381D01*
X89894333Y-20084143D01*
X89894333Y-20229286D01*
X89942714Y-20326048D01*
X89991095Y-20374429D01*
X90087857Y-20422810D01*
X90474904Y-20422810D01*
X89507285Y-19987381D02*
X89458904Y-19939000D01*
X89362142Y-19890619D01*
X89120238Y-19890619D01*
X89023476Y-19939000D01*
X88975095Y-19987381D01*
X88926714Y-20084143D01*
X88926714Y-20180905D01*
X88975095Y-20326048D01*
X89555666Y-20906619D01*
X88926714Y-20906619D01*
X111294438Y-55069619D02*
X111052533Y-56085619D01*
X110859010Y-55359905D01*
X110665486Y-56085619D01*
X110423581Y-55069619D01*
X109891390Y-55505048D02*
X109988152Y-55456667D01*
X110036533Y-55408286D01*
X110084914Y-55311524D01*
X110084914Y-55263143D01*
X110036533Y-55166381D01*
X109988152Y-55118000D01*
X109891390Y-55069619D01*
X109697867Y-55069619D01*
X109601105Y-55118000D01*
X109552724Y-55166381D01*
X109504343Y-55263143D01*
X109504343Y-55311524D01*
X109552724Y-55408286D01*
X109601105Y-55456667D01*
X109697867Y-55505048D01*
X109891390Y-55505048D01*
X109988152Y-55553429D01*
X110036533Y-55601810D01*
X110084914Y-55698571D01*
X110084914Y-55892095D01*
X110036533Y-55988857D01*
X109988152Y-56037238D01*
X109891390Y-56085619D01*
X109697867Y-56085619D01*
X109601105Y-56037238D01*
X109552724Y-55988857D01*
X109504343Y-55892095D01*
X109504343Y-55698571D01*
X109552724Y-55601810D01*
X109601105Y-55553429D01*
X109697867Y-55505048D01*
X96079838Y-67007619D02*
X95837933Y-68023619D01*
X95644410Y-67297905D01*
X95450886Y-68023619D01*
X95208981Y-67007619D01*
X94918695Y-67007619D02*
X94241362Y-67007619D01*
X94676790Y-68023619D01*
X98975438Y-57990619D02*
X98733533Y-59006619D01*
X98540010Y-58280905D01*
X98346486Y-59006619D01*
X98104581Y-57990619D01*
X97282105Y-57990619D02*
X97475628Y-57990619D01*
X97572390Y-58039000D01*
X97620771Y-58087381D01*
X97717533Y-58232524D01*
X97765914Y-58426048D01*
X97765914Y-58813095D01*
X97717533Y-58909857D01*
X97669152Y-58958238D01*
X97572390Y-59006619D01*
X97378867Y-59006619D01*
X97282105Y-58958238D01*
X97233724Y-58909857D01*
X97185343Y-58813095D01*
X97185343Y-58571190D01*
X97233724Y-58474429D01*
X97282105Y-58426048D01*
X97378867Y-58377667D01*
X97572390Y-58377667D01*
X97669152Y-58426048D01*
X97717533Y-58474429D01*
X97765914Y-58571190D01*
X106214438Y-51640619D02*
X105972533Y-52656619D01*
X105779010Y-51930905D01*
X105585486Y-52656619D01*
X105343581Y-51640619D01*
X104472724Y-51640619D02*
X104956533Y-51640619D01*
X105004914Y-52124429D01*
X104956533Y-52076048D01*
X104859771Y-52027667D01*
X104617867Y-52027667D01*
X104521105Y-52076048D01*
X104472724Y-52124429D01*
X104424343Y-52221190D01*
X104424343Y-52463095D01*
X104472724Y-52559857D01*
X104521105Y-52608238D01*
X104617867Y-52656619D01*
X104859771Y-52656619D01*
X104956533Y-52608238D01*
X105004914Y-52559857D01*
X90593438Y-34622619D02*
X90351533Y-35638619D01*
X90158010Y-34912905D01*
X89964486Y-35638619D01*
X89722581Y-34622619D01*
X88900105Y-34961286D02*
X88900105Y-35638619D01*
X89142009Y-34574238D02*
X89383914Y-35299952D01*
X88754962Y-35299952D01*
X107738438Y-40083619D02*
X107496533Y-41099619D01*
X107303010Y-40373905D01*
X107109486Y-41099619D01*
X106867581Y-40083619D01*
X106528914Y-40180381D02*
X106480533Y-40132000D01*
X106383771Y-40083619D01*
X106141867Y-40083619D01*
X106045105Y-40132000D01*
X105996724Y-40180381D01*
X105948343Y-40277143D01*
X105948343Y-40373905D01*
X105996724Y-40519048D01*
X106577295Y-41099619D01*
X105948343Y-41099619D01*
X90170104Y-60073419D02*
X90170104Y-59057419D01*
X89783057Y-59057419D01*
X89686295Y-59105800D01*
X89637914Y-59154181D01*
X89589533Y-59250943D01*
X89589533Y-59396086D01*
X89637914Y-59492848D01*
X89686295Y-59541229D01*
X89783057Y-59589610D01*
X90170104Y-59589610D01*
X88621914Y-60073419D02*
X89202485Y-60073419D01*
X88912199Y-60073419D02*
X88912199Y-59057419D01*
X89008961Y-59202562D01*
X89105723Y-59299324D01*
X89202485Y-59347705D01*
D12*
X52891962Y-89590381D02*
X52653867Y-90590381D01*
X52463390Y-89876095D01*
X52272914Y-90590381D01*
X52034819Y-89590381D01*
X51130057Y-90590381D02*
X51701486Y-90590381D01*
X51415772Y-90590381D02*
X51415772Y-89590381D01*
X51511010Y-89733238D01*
X51606248Y-89828476D01*
X51701486Y-89876095D01*
D13*
X61270295Y-107488619D02*
X61270295Y-108311095D01*
X61221914Y-108407857D01*
X61173533Y-108456238D01*
X61076771Y-108504619D01*
X60883248Y-108504619D01*
X60786486Y-108456238D01*
X60738105Y-108407857D01*
X60689724Y-108311095D01*
X60689724Y-107488619D01*
X60302676Y-107488619D02*
X59625343Y-107488619D01*
X60060771Y-108504619D01*
X62812438Y-95169619D02*
X62570533Y-96185619D01*
X62377010Y-95459905D01*
X62183486Y-96185619D01*
X61941581Y-95169619D01*
X61506152Y-96185619D02*
X61312628Y-96185619D01*
X61215867Y-96137238D01*
X61167486Y-96088857D01*
X61070724Y-95943714D01*
X61022343Y-95750190D01*
X61022343Y-95363143D01*
X61070724Y-95266381D01*
X61119105Y-95218000D01*
X61215867Y-95169619D01*
X61409390Y-95169619D01*
X61506152Y-95218000D01*
X61554533Y-95266381D01*
X61602914Y-95363143D01*
X61602914Y-95605048D01*
X61554533Y-95701810D01*
X61506152Y-95750190D01*
X61409390Y-95798571D01*
X61215867Y-95798571D01*
X61119105Y-95750190D01*
X61070724Y-95701810D01*
X61022343Y-95605048D01*
X53414438Y-106599619D02*
X53172533Y-107615619D01*
X52979010Y-106889905D01*
X52785486Y-107615619D01*
X52543581Y-106599619D01*
X52253295Y-106599619D02*
X51624343Y-106599619D01*
X51963009Y-106986667D01*
X51817867Y-106986667D01*
X51721105Y-107035048D01*
X51672724Y-107083429D01*
X51624343Y-107180190D01*
X51624343Y-107422095D01*
X51672724Y-107518857D01*
X51721105Y-107567238D01*
X51817867Y-107615619D01*
X52108152Y-107615619D01*
X52204914Y-107567238D01*
X52253295Y-107518857D01*
X57085343Y-106629857D02*
X57133724Y-106678238D01*
X57278867Y-106726619D01*
X57375629Y-106726619D01*
X57520771Y-106678238D01*
X57617533Y-106581476D01*
X57665914Y-106484714D01*
X57714295Y-106291190D01*
X57714295Y-106146048D01*
X57665914Y-105952524D01*
X57617533Y-105855762D01*
X57520771Y-105759000D01*
X57375629Y-105710619D01*
X57278867Y-105710619D01*
X57133724Y-105759000D01*
X57085343Y-105807381D01*
X56117724Y-106726619D02*
X56698295Y-106726619D01*
X56408009Y-106726619D02*
X56408009Y-105710619D01*
X56504771Y-105855762D01*
X56601533Y-105952524D01*
X56698295Y-106000905D01*
X55633914Y-106726619D02*
X55440390Y-106726619D01*
X55343629Y-106678238D01*
X55295248Y-106629857D01*
X55198486Y-106484714D01*
X55150105Y-106291190D01*
X55150105Y-105904143D01*
X55198486Y-105807381D01*
X55246867Y-105759000D01*
X55343629Y-105710619D01*
X55537152Y-105710619D01*
X55633914Y-105759000D01*
X55682295Y-105807381D01*
X55730676Y-105904143D01*
X55730676Y-106146048D01*
X55682295Y-106242810D01*
X55633914Y-106291190D01*
X55537152Y-106339571D01*
X55343629Y-106339571D01*
X55246867Y-106291190D01*
X55198486Y-106242810D01*
X55150105Y-106146048D01*
X65746743Y-118593257D02*
X65795124Y-118641638D01*
X65940267Y-118690019D01*
X66037029Y-118690019D01*
X66182171Y-118641638D01*
X66278933Y-118544876D01*
X66327314Y-118448114D01*
X66375695Y-118254590D01*
X66375695Y-118109448D01*
X66327314Y-117915924D01*
X66278933Y-117819162D01*
X66182171Y-117722400D01*
X66037029Y-117674019D01*
X65940267Y-117674019D01*
X65795124Y-117722400D01*
X65746743Y-117770781D01*
X64779124Y-118690019D02*
X65359695Y-118690019D01*
X65069409Y-118690019D02*
X65069409Y-117674019D01*
X65166171Y-117819162D01*
X65262933Y-117915924D01*
X65359695Y-117964305D01*
X64440457Y-117674019D02*
X63811505Y-117674019D01*
X64150171Y-118061067D01*
X64005029Y-118061067D01*
X63908267Y-118109448D01*
X63859886Y-118157829D01*
X63811505Y-118254590D01*
X63811505Y-118496495D01*
X63859886Y-118593257D01*
X63908267Y-118641638D01*
X64005029Y-118690019D01*
X64295314Y-118690019D01*
X64392076Y-118641638D01*
X64440457Y-118593257D01*
X53295904Y-81961619D02*
X53295904Y-80945619D01*
X52908857Y-80945619D01*
X52812095Y-80994000D01*
X52763714Y-81042381D01*
X52715333Y-81139143D01*
X52715333Y-81284286D01*
X52763714Y-81381048D01*
X52812095Y-81429429D01*
X52908857Y-81477810D01*
X53295904Y-81477810D01*
X52328285Y-81042381D02*
X52279904Y-80994000D01*
X52183142Y-80945619D01*
X51941238Y-80945619D01*
X51844476Y-80994000D01*
X51796095Y-81042381D01*
X51747714Y-81139143D01*
X51747714Y-81235905D01*
X51796095Y-81381048D01*
X52376666Y-81961619D01*
X51747714Y-81961619D01*
X74115438Y-116124619D02*
X73873533Y-117140619D01*
X73680010Y-116414905D01*
X73486486Y-117140619D01*
X73244581Y-116124619D01*
X72712390Y-116560048D02*
X72809152Y-116511667D01*
X72857533Y-116463286D01*
X72905914Y-116366524D01*
X72905914Y-116318143D01*
X72857533Y-116221381D01*
X72809152Y-116173000D01*
X72712390Y-116124619D01*
X72518867Y-116124619D01*
X72422105Y-116173000D01*
X72373724Y-116221381D01*
X72325343Y-116318143D01*
X72325343Y-116366524D01*
X72373724Y-116463286D01*
X72422105Y-116511667D01*
X72518867Y-116560048D01*
X72712390Y-116560048D01*
X72809152Y-116608429D01*
X72857533Y-116656810D01*
X72905914Y-116753571D01*
X72905914Y-116947095D01*
X72857533Y-117043857D01*
X72809152Y-117092238D01*
X72712390Y-117140619D01*
X72518867Y-117140619D01*
X72422105Y-117092238D01*
X72373724Y-117043857D01*
X72325343Y-116947095D01*
X72325343Y-116753571D01*
X72373724Y-116656810D01*
X72422105Y-116608429D01*
X72518867Y-116560048D01*
X58900838Y-128062619D02*
X58658933Y-129078619D01*
X58465410Y-128352905D01*
X58271886Y-129078619D01*
X58029981Y-128062619D01*
X57739695Y-128062619D02*
X57062362Y-128062619D01*
X57497790Y-129078619D01*
X61796438Y-119045619D02*
X61554533Y-120061619D01*
X61361010Y-119335905D01*
X61167486Y-120061619D01*
X60925581Y-119045619D01*
X60103105Y-119045619D02*
X60296628Y-119045619D01*
X60393390Y-119094000D01*
X60441771Y-119142381D01*
X60538533Y-119287524D01*
X60586914Y-119481048D01*
X60586914Y-119868095D01*
X60538533Y-119964857D01*
X60490152Y-120013238D01*
X60393390Y-120061619D01*
X60199867Y-120061619D01*
X60103105Y-120013238D01*
X60054724Y-119964857D01*
X60006343Y-119868095D01*
X60006343Y-119626190D01*
X60054724Y-119529429D01*
X60103105Y-119481048D01*
X60199867Y-119432667D01*
X60393390Y-119432667D01*
X60490152Y-119481048D01*
X60538533Y-119529429D01*
X60586914Y-119626190D01*
X69035438Y-112695619D02*
X68793533Y-113711619D01*
X68600010Y-112985905D01*
X68406486Y-113711619D01*
X68164581Y-112695619D01*
X67293724Y-112695619D02*
X67777533Y-112695619D01*
X67825914Y-113179429D01*
X67777533Y-113131048D01*
X67680771Y-113082667D01*
X67438867Y-113082667D01*
X67342105Y-113131048D01*
X67293724Y-113179429D01*
X67245343Y-113276190D01*
X67245343Y-113518095D01*
X67293724Y-113614857D01*
X67342105Y-113663238D01*
X67438867Y-113711619D01*
X67680771Y-113711619D01*
X67777533Y-113663238D01*
X67825914Y-113614857D01*
X53414438Y-95677619D02*
X53172533Y-96693619D01*
X52979010Y-95967905D01*
X52785486Y-96693619D01*
X52543581Y-95677619D01*
X51721105Y-96016286D02*
X51721105Y-96693619D01*
X51963009Y-95629238D02*
X52204914Y-96354952D01*
X51575962Y-96354952D01*
X70559438Y-101138619D02*
X70317533Y-102154619D01*
X70124010Y-101428905D01*
X69930486Y-102154619D01*
X69688581Y-101138619D01*
X69349914Y-101235381D02*
X69301533Y-101187000D01*
X69204771Y-101138619D01*
X68962867Y-101138619D01*
X68866105Y-101187000D01*
X68817724Y-101235381D01*
X68769343Y-101332143D01*
X68769343Y-101428905D01*
X68817724Y-101574048D01*
X69398295Y-102154619D01*
X68769343Y-102154619D01*
X52991104Y-121128419D02*
X52991104Y-120112419D01*
X52604057Y-120112419D01*
X52507295Y-120160800D01*
X52458914Y-120209181D01*
X52410533Y-120305943D01*
X52410533Y-120451086D01*
X52458914Y-120547848D01*
X52507295Y-120596229D01*
X52604057Y-120644610D01*
X52991104Y-120644610D01*
X51442914Y-121128419D02*
X52023485Y-121128419D01*
X51733199Y-121128419D02*
X51733199Y-120112419D01*
X51829961Y-120257562D01*
X51926723Y-120354324D01*
X52023485Y-120402705D01*
D12*
X52891962Y-28535381D02*
X52653867Y-29535381D01*
X52463390Y-28821095D01*
X52272914Y-29535381D01*
X52034819Y-28535381D01*
X51130057Y-29535381D02*
X51701486Y-29535381D01*
X51415772Y-29535381D02*
X51415772Y-28535381D01*
X51511010Y-28678238D01*
X51606248Y-28773476D01*
X51701486Y-28821095D01*
D13*
X61270295Y-46433619D02*
X61270295Y-47256095D01*
X61221914Y-47352857D01*
X61173533Y-47401238D01*
X61076771Y-47449619D01*
X60883248Y-47449619D01*
X60786486Y-47401238D01*
X60738105Y-47352857D01*
X60689724Y-47256095D01*
X60689724Y-46433619D01*
X60302676Y-46433619D02*
X59625343Y-46433619D01*
X60060771Y-47449619D01*
X62812438Y-34114619D02*
X62570533Y-35130619D01*
X62377010Y-34404905D01*
X62183486Y-35130619D01*
X61941581Y-34114619D01*
X61506152Y-35130619D02*
X61312628Y-35130619D01*
X61215867Y-35082238D01*
X61167486Y-35033857D01*
X61070724Y-34888714D01*
X61022343Y-34695190D01*
X61022343Y-34308143D01*
X61070724Y-34211381D01*
X61119105Y-34163000D01*
X61215867Y-34114619D01*
X61409390Y-34114619D01*
X61506152Y-34163000D01*
X61554533Y-34211381D01*
X61602914Y-34308143D01*
X61602914Y-34550048D01*
X61554533Y-34646810D01*
X61506152Y-34695190D01*
X61409390Y-34743571D01*
X61215867Y-34743571D01*
X61119105Y-34695190D01*
X61070724Y-34646810D01*
X61022343Y-34550048D01*
X53414438Y-45544619D02*
X53172533Y-46560619D01*
X52979010Y-45834905D01*
X52785486Y-46560619D01*
X52543581Y-45544619D01*
X52253295Y-45544619D02*
X51624343Y-45544619D01*
X51963009Y-45931667D01*
X51817867Y-45931667D01*
X51721105Y-45980048D01*
X51672724Y-46028429D01*
X51624343Y-46125190D01*
X51624343Y-46367095D01*
X51672724Y-46463857D01*
X51721105Y-46512238D01*
X51817867Y-46560619D01*
X52108152Y-46560619D01*
X52204914Y-46512238D01*
X52253295Y-46463857D01*
X57085343Y-45574857D02*
X57133724Y-45623238D01*
X57278867Y-45671619D01*
X57375629Y-45671619D01*
X57520771Y-45623238D01*
X57617533Y-45526476D01*
X57665914Y-45429714D01*
X57714295Y-45236190D01*
X57714295Y-45091048D01*
X57665914Y-44897524D01*
X57617533Y-44800762D01*
X57520771Y-44704000D01*
X57375629Y-44655619D01*
X57278867Y-44655619D01*
X57133724Y-44704000D01*
X57085343Y-44752381D01*
X56117724Y-45671619D02*
X56698295Y-45671619D01*
X56408009Y-45671619D02*
X56408009Y-44655619D01*
X56504771Y-44800762D01*
X56601533Y-44897524D01*
X56698295Y-44945905D01*
X55633914Y-45671619D02*
X55440390Y-45671619D01*
X55343629Y-45623238D01*
X55295248Y-45574857D01*
X55198486Y-45429714D01*
X55150105Y-45236190D01*
X55150105Y-44849143D01*
X55198486Y-44752381D01*
X55246867Y-44704000D01*
X55343629Y-44655619D01*
X55537152Y-44655619D01*
X55633914Y-44704000D01*
X55682295Y-44752381D01*
X55730676Y-44849143D01*
X55730676Y-45091048D01*
X55682295Y-45187810D01*
X55633914Y-45236190D01*
X55537152Y-45284571D01*
X55343629Y-45284571D01*
X55246867Y-45236190D01*
X55198486Y-45187810D01*
X55150105Y-45091048D01*
X65746743Y-57538257D02*
X65795124Y-57586638D01*
X65940267Y-57635019D01*
X66037029Y-57635019D01*
X66182171Y-57586638D01*
X66278933Y-57489876D01*
X66327314Y-57393114D01*
X66375695Y-57199590D01*
X66375695Y-57054448D01*
X66327314Y-56860924D01*
X66278933Y-56764162D01*
X66182171Y-56667400D01*
X66037029Y-56619019D01*
X65940267Y-56619019D01*
X65795124Y-56667400D01*
X65746743Y-56715781D01*
X64779124Y-57635019D02*
X65359695Y-57635019D01*
X65069409Y-57635019D02*
X65069409Y-56619019D01*
X65166171Y-56764162D01*
X65262933Y-56860924D01*
X65359695Y-56909305D01*
X64440457Y-56619019D02*
X63811505Y-56619019D01*
X64150171Y-57006067D01*
X64005029Y-57006067D01*
X63908267Y-57054448D01*
X63859886Y-57102829D01*
X63811505Y-57199590D01*
X63811505Y-57441495D01*
X63859886Y-57538257D01*
X63908267Y-57586638D01*
X64005029Y-57635019D01*
X64295314Y-57635019D01*
X64392076Y-57586638D01*
X64440457Y-57538257D01*
X53295904Y-20906619D02*
X53295904Y-19890619D01*
X52908857Y-19890619D01*
X52812095Y-19939000D01*
X52763714Y-19987381D01*
X52715333Y-20084143D01*
X52715333Y-20229286D01*
X52763714Y-20326048D01*
X52812095Y-20374429D01*
X52908857Y-20422810D01*
X53295904Y-20422810D01*
X52328285Y-19987381D02*
X52279904Y-19939000D01*
X52183142Y-19890619D01*
X51941238Y-19890619D01*
X51844476Y-19939000D01*
X51796095Y-19987381D01*
X51747714Y-20084143D01*
X51747714Y-20180905D01*
X51796095Y-20326048D01*
X52376666Y-20906619D01*
X51747714Y-20906619D01*
X74115438Y-55069619D02*
X73873533Y-56085619D01*
X73680010Y-55359905D01*
X73486486Y-56085619D01*
X73244581Y-55069619D01*
X72712390Y-55505048D02*
X72809152Y-55456667D01*
X72857533Y-55408286D01*
X72905914Y-55311524D01*
X72905914Y-55263143D01*
X72857533Y-55166381D01*
X72809152Y-55118000D01*
X72712390Y-55069619D01*
X72518867Y-55069619D01*
X72422105Y-55118000D01*
X72373724Y-55166381D01*
X72325343Y-55263143D01*
X72325343Y-55311524D01*
X72373724Y-55408286D01*
X72422105Y-55456667D01*
X72518867Y-55505048D01*
X72712390Y-55505048D01*
X72809152Y-55553429D01*
X72857533Y-55601810D01*
X72905914Y-55698571D01*
X72905914Y-55892095D01*
X72857533Y-55988857D01*
X72809152Y-56037238D01*
X72712390Y-56085619D01*
X72518867Y-56085619D01*
X72422105Y-56037238D01*
X72373724Y-55988857D01*
X72325343Y-55892095D01*
X72325343Y-55698571D01*
X72373724Y-55601810D01*
X72422105Y-55553429D01*
X72518867Y-55505048D01*
X58900838Y-67007619D02*
X58658933Y-68023619D01*
X58465410Y-67297905D01*
X58271886Y-68023619D01*
X58029981Y-67007619D01*
X57739695Y-67007619D02*
X57062362Y-67007619D01*
X57497790Y-68023619D01*
X61796438Y-57990619D02*
X61554533Y-59006619D01*
X61361010Y-58280905D01*
X61167486Y-59006619D01*
X60925581Y-57990619D01*
X60103105Y-57990619D02*
X60296628Y-57990619D01*
X60393390Y-58039000D01*
X60441771Y-58087381D01*
X60538533Y-58232524D01*
X60586914Y-58426048D01*
X60586914Y-58813095D01*
X60538533Y-58909857D01*
X60490152Y-58958238D01*
X60393390Y-59006619D01*
X60199867Y-59006619D01*
X60103105Y-58958238D01*
X60054724Y-58909857D01*
X60006343Y-58813095D01*
X60006343Y-58571190D01*
X60054724Y-58474429D01*
X60103105Y-58426048D01*
X60199867Y-58377667D01*
X60393390Y-58377667D01*
X60490152Y-58426048D01*
X60538533Y-58474429D01*
X60586914Y-58571190D01*
X69035438Y-51640619D02*
X68793533Y-52656619D01*
X68600010Y-51930905D01*
X68406486Y-52656619D01*
X68164581Y-51640619D01*
X67293724Y-51640619D02*
X67777533Y-51640619D01*
X67825914Y-52124429D01*
X67777533Y-52076048D01*
X67680771Y-52027667D01*
X67438867Y-52027667D01*
X67342105Y-52076048D01*
X67293724Y-52124429D01*
X67245343Y-52221190D01*
X67245343Y-52463095D01*
X67293724Y-52559857D01*
X67342105Y-52608238D01*
X67438867Y-52656619D01*
X67680771Y-52656619D01*
X67777533Y-52608238D01*
X67825914Y-52559857D01*
X53414438Y-34622619D02*
X53172533Y-35638619D01*
X52979010Y-34912905D01*
X52785486Y-35638619D01*
X52543581Y-34622619D01*
X51721105Y-34961286D02*
X51721105Y-35638619D01*
X51963009Y-34574238D02*
X52204914Y-35299952D01*
X51575962Y-35299952D01*
X70559438Y-40083619D02*
X70317533Y-41099619D01*
X70124010Y-40373905D01*
X69930486Y-41099619D01*
X69688581Y-40083619D01*
X69349914Y-40180381D02*
X69301533Y-40132000D01*
X69204771Y-40083619D01*
X68962867Y-40083619D01*
X68866105Y-40132000D01*
X68817724Y-40180381D01*
X68769343Y-40277143D01*
X68769343Y-40373905D01*
X68817724Y-40519048D01*
X69398295Y-41099619D01*
X68769343Y-41099619D01*
X52991104Y-60073419D02*
X52991104Y-59057419D01*
X52604057Y-59057419D01*
X52507295Y-59105800D01*
X52458914Y-59154181D01*
X52410533Y-59250943D01*
X52410533Y-59396086D01*
X52458914Y-59492848D01*
X52507295Y-59541229D01*
X52604057Y-59589610D01*
X52991104Y-59589610D01*
X51442914Y-60073419D02*
X52023485Y-60073419D01*
X51733199Y-60073419D02*
X51733199Y-59057419D01*
X51829961Y-59202562D01*
X51926723Y-59299324D01*
X52023485Y-59347705D01*
D12*
X15712962Y-89590381D02*
X15474867Y-90590381D01*
X15284390Y-89876095D01*
X15093914Y-90590381D01*
X14855819Y-89590381D01*
X13951057Y-90590381D02*
X14522486Y-90590381D01*
X14236772Y-90590381D02*
X14236772Y-89590381D01*
X14332010Y-89733238D01*
X14427248Y-89828476D01*
X14522486Y-89876095D01*
D13*
X24091295Y-107488619D02*
X24091295Y-108311095D01*
X24042914Y-108407857D01*
X23994533Y-108456238D01*
X23897771Y-108504619D01*
X23704248Y-108504619D01*
X23607486Y-108456238D01*
X23559105Y-108407857D01*
X23510724Y-108311095D01*
X23510724Y-107488619D01*
X23123676Y-107488619D02*
X22446343Y-107488619D01*
X22881771Y-108504619D01*
X25633438Y-95169619D02*
X25391533Y-96185619D01*
X25198010Y-95459905D01*
X25004486Y-96185619D01*
X24762581Y-95169619D01*
X24327152Y-96185619D02*
X24133628Y-96185619D01*
X24036867Y-96137238D01*
X23988486Y-96088857D01*
X23891724Y-95943714D01*
X23843343Y-95750190D01*
X23843343Y-95363143D01*
X23891724Y-95266381D01*
X23940105Y-95218000D01*
X24036867Y-95169619D01*
X24230390Y-95169619D01*
X24327152Y-95218000D01*
X24375533Y-95266381D01*
X24423914Y-95363143D01*
X24423914Y-95605048D01*
X24375533Y-95701810D01*
X24327152Y-95750190D01*
X24230390Y-95798571D01*
X24036867Y-95798571D01*
X23940105Y-95750190D01*
X23891724Y-95701810D01*
X23843343Y-95605048D01*
X16235438Y-106599619D02*
X15993533Y-107615619D01*
X15800010Y-106889905D01*
X15606486Y-107615619D01*
X15364581Y-106599619D01*
X15074295Y-106599619D02*
X14445343Y-106599619D01*
X14784009Y-106986667D01*
X14638867Y-106986667D01*
X14542105Y-107035048D01*
X14493724Y-107083429D01*
X14445343Y-107180190D01*
X14445343Y-107422095D01*
X14493724Y-107518857D01*
X14542105Y-107567238D01*
X14638867Y-107615619D01*
X14929152Y-107615619D01*
X15025914Y-107567238D01*
X15074295Y-107518857D01*
X19906343Y-106629857D02*
X19954724Y-106678238D01*
X20099867Y-106726619D01*
X20196629Y-106726619D01*
X20341771Y-106678238D01*
X20438533Y-106581476D01*
X20486914Y-106484714D01*
X20535295Y-106291190D01*
X20535295Y-106146048D01*
X20486914Y-105952524D01*
X20438533Y-105855762D01*
X20341771Y-105759000D01*
X20196629Y-105710619D01*
X20099867Y-105710619D01*
X19954724Y-105759000D01*
X19906343Y-105807381D01*
X18938724Y-106726619D02*
X19519295Y-106726619D01*
X19229009Y-106726619D02*
X19229009Y-105710619D01*
X19325771Y-105855762D01*
X19422533Y-105952524D01*
X19519295Y-106000905D01*
X18454914Y-106726619D02*
X18261390Y-106726619D01*
X18164629Y-106678238D01*
X18116248Y-106629857D01*
X18019486Y-106484714D01*
X17971105Y-106291190D01*
X17971105Y-105904143D01*
X18019486Y-105807381D01*
X18067867Y-105759000D01*
X18164629Y-105710619D01*
X18358152Y-105710619D01*
X18454914Y-105759000D01*
X18503295Y-105807381D01*
X18551676Y-105904143D01*
X18551676Y-106146048D01*
X18503295Y-106242810D01*
X18454914Y-106291190D01*
X18358152Y-106339571D01*
X18164629Y-106339571D01*
X18067867Y-106291190D01*
X18019486Y-106242810D01*
X17971105Y-106146048D01*
X28567743Y-118593257D02*
X28616124Y-118641638D01*
X28761267Y-118690019D01*
X28858029Y-118690019D01*
X29003171Y-118641638D01*
X29099933Y-118544876D01*
X29148314Y-118448114D01*
X29196695Y-118254590D01*
X29196695Y-118109448D01*
X29148314Y-117915924D01*
X29099933Y-117819162D01*
X29003171Y-117722400D01*
X28858029Y-117674019D01*
X28761267Y-117674019D01*
X28616124Y-117722400D01*
X28567743Y-117770781D01*
X27600124Y-118690019D02*
X28180695Y-118690019D01*
X27890409Y-118690019D02*
X27890409Y-117674019D01*
X27987171Y-117819162D01*
X28083933Y-117915924D01*
X28180695Y-117964305D01*
X27261457Y-117674019D02*
X26632505Y-117674019D01*
X26971171Y-118061067D01*
X26826029Y-118061067D01*
X26729267Y-118109448D01*
X26680886Y-118157829D01*
X26632505Y-118254590D01*
X26632505Y-118496495D01*
X26680886Y-118593257D01*
X26729267Y-118641638D01*
X26826029Y-118690019D01*
X27116314Y-118690019D01*
X27213076Y-118641638D01*
X27261457Y-118593257D01*
X16116904Y-81961619D02*
X16116904Y-80945619D01*
X15729857Y-80945619D01*
X15633095Y-80994000D01*
X15584714Y-81042381D01*
X15536333Y-81139143D01*
X15536333Y-81284286D01*
X15584714Y-81381048D01*
X15633095Y-81429429D01*
X15729857Y-81477810D01*
X16116904Y-81477810D01*
X15149285Y-81042381D02*
X15100904Y-80994000D01*
X15004142Y-80945619D01*
X14762238Y-80945619D01*
X14665476Y-80994000D01*
X14617095Y-81042381D01*
X14568714Y-81139143D01*
X14568714Y-81235905D01*
X14617095Y-81381048D01*
X15197666Y-81961619D01*
X14568714Y-81961619D01*
X36936438Y-116124619D02*
X36694533Y-117140619D01*
X36501010Y-116414905D01*
X36307486Y-117140619D01*
X36065581Y-116124619D01*
X35533390Y-116560048D02*
X35630152Y-116511667D01*
X35678533Y-116463286D01*
X35726914Y-116366524D01*
X35726914Y-116318143D01*
X35678533Y-116221381D01*
X35630152Y-116173000D01*
X35533390Y-116124619D01*
X35339867Y-116124619D01*
X35243105Y-116173000D01*
X35194724Y-116221381D01*
X35146343Y-116318143D01*
X35146343Y-116366524D01*
X35194724Y-116463286D01*
X35243105Y-116511667D01*
X35339867Y-116560048D01*
X35533390Y-116560048D01*
X35630152Y-116608429D01*
X35678533Y-116656810D01*
X35726914Y-116753571D01*
X35726914Y-116947095D01*
X35678533Y-117043857D01*
X35630152Y-117092238D01*
X35533390Y-117140619D01*
X35339867Y-117140619D01*
X35243105Y-117092238D01*
X35194724Y-117043857D01*
X35146343Y-116947095D01*
X35146343Y-116753571D01*
X35194724Y-116656810D01*
X35243105Y-116608429D01*
X35339867Y-116560048D01*
X21721838Y-128062619D02*
X21479933Y-129078619D01*
X21286410Y-128352905D01*
X21092886Y-129078619D01*
X20850981Y-128062619D01*
X20560695Y-128062619D02*
X19883362Y-128062619D01*
X20318790Y-129078619D01*
X24617438Y-119045619D02*
X24375533Y-120061619D01*
X24182010Y-119335905D01*
X23988486Y-120061619D01*
X23746581Y-119045619D01*
X22924105Y-119045619D02*
X23117628Y-119045619D01*
X23214390Y-119094000D01*
X23262771Y-119142381D01*
X23359533Y-119287524D01*
X23407914Y-119481048D01*
X23407914Y-119868095D01*
X23359533Y-119964857D01*
X23311152Y-120013238D01*
X23214390Y-120061619D01*
X23020867Y-120061619D01*
X22924105Y-120013238D01*
X22875724Y-119964857D01*
X22827343Y-119868095D01*
X22827343Y-119626190D01*
X22875724Y-119529429D01*
X22924105Y-119481048D01*
X23020867Y-119432667D01*
X23214390Y-119432667D01*
X23311152Y-119481048D01*
X23359533Y-119529429D01*
X23407914Y-119626190D01*
X31856438Y-112695619D02*
X31614533Y-113711619D01*
X31421010Y-112985905D01*
X31227486Y-113711619D01*
X30985581Y-112695619D01*
X30114724Y-112695619D02*
X30598533Y-112695619D01*
X30646914Y-113179429D01*
X30598533Y-113131048D01*
X30501771Y-113082667D01*
X30259867Y-113082667D01*
X30163105Y-113131048D01*
X30114724Y-113179429D01*
X30066343Y-113276190D01*
X30066343Y-113518095D01*
X30114724Y-113614857D01*
X30163105Y-113663238D01*
X30259867Y-113711619D01*
X30501771Y-113711619D01*
X30598533Y-113663238D01*
X30646914Y-113614857D01*
X16235438Y-95677619D02*
X15993533Y-96693619D01*
X15800010Y-95967905D01*
X15606486Y-96693619D01*
X15364581Y-95677619D01*
X14542105Y-96016286D02*
X14542105Y-96693619D01*
X14784009Y-95629238D02*
X15025914Y-96354952D01*
X14396962Y-96354952D01*
X33380438Y-101138619D02*
X33138533Y-102154619D01*
X32945010Y-101428905D01*
X32751486Y-102154619D01*
X32509581Y-101138619D01*
X32170914Y-101235381D02*
X32122533Y-101187000D01*
X32025771Y-101138619D01*
X31783867Y-101138619D01*
X31687105Y-101187000D01*
X31638724Y-101235381D01*
X31590343Y-101332143D01*
X31590343Y-101428905D01*
X31638724Y-101574048D01*
X32219295Y-102154619D01*
X31590343Y-102154619D01*
X15812104Y-121128419D02*
X15812104Y-120112419D01*
X15425057Y-120112419D01*
X15328295Y-120160800D01*
X15279914Y-120209181D01*
X15231533Y-120305943D01*
X15231533Y-120451086D01*
X15279914Y-120547848D01*
X15328295Y-120596229D01*
X15425057Y-120644610D01*
X15812104Y-120644610D01*
X14263914Y-121128419D02*
X14844485Y-121128419D01*
X14554199Y-121128419D02*
X14554199Y-120112419D01*
X14650961Y-120257562D01*
X14747723Y-120354324D01*
X14844485Y-120402705D01*
X15812104Y-60073419D02*
X15812104Y-59057419D01*
X15425057Y-59057419D01*
X15328295Y-59105800D01*
X15279914Y-59154181D01*
X15231533Y-59250943D01*
X15231533Y-59396086D01*
X15279914Y-59492848D01*
X15328295Y-59541229D01*
X15425057Y-59589610D01*
X15812104Y-59589610D01*
X14263914Y-60073419D02*
X14844485Y-60073419D01*
X14554199Y-60073419D02*
X14554199Y-59057419D01*
X14650961Y-59202562D01*
X14747723Y-59299324D01*
X14844485Y-59347705D01*
X33380438Y-40083619D02*
X33138533Y-41099619D01*
X32945010Y-40373905D01*
X32751486Y-41099619D01*
X32509581Y-40083619D01*
X32170914Y-40180381D02*
X32122533Y-40132000D01*
X32025771Y-40083619D01*
X31783867Y-40083619D01*
X31687105Y-40132000D01*
X31638724Y-40180381D01*
X31590343Y-40277143D01*
X31590343Y-40373905D01*
X31638724Y-40519048D01*
X32219295Y-41099619D01*
X31590343Y-41099619D01*
X16235438Y-34622619D02*
X15993533Y-35638619D01*
X15800010Y-34912905D01*
X15606486Y-35638619D01*
X15364581Y-34622619D01*
X14542105Y-34961286D02*
X14542105Y-35638619D01*
X14784009Y-34574238D02*
X15025914Y-35299952D01*
X14396962Y-35299952D01*
X31856438Y-51640619D02*
X31614533Y-52656619D01*
X31421010Y-51930905D01*
X31227486Y-52656619D01*
X30985581Y-51640619D01*
X30114724Y-51640619D02*
X30598533Y-51640619D01*
X30646914Y-52124429D01*
X30598533Y-52076048D01*
X30501771Y-52027667D01*
X30259867Y-52027667D01*
X30163105Y-52076048D01*
X30114724Y-52124429D01*
X30066343Y-52221190D01*
X30066343Y-52463095D01*
X30114724Y-52559857D01*
X30163105Y-52608238D01*
X30259867Y-52656619D01*
X30501771Y-52656619D01*
X30598533Y-52608238D01*
X30646914Y-52559857D01*
X24617438Y-57990619D02*
X24375533Y-59006619D01*
X24182010Y-58280905D01*
X23988486Y-59006619D01*
X23746581Y-57990619D01*
X22924105Y-57990619D02*
X23117628Y-57990619D01*
X23214390Y-58039000D01*
X23262771Y-58087381D01*
X23359533Y-58232524D01*
X23407914Y-58426048D01*
X23407914Y-58813095D01*
X23359533Y-58909857D01*
X23311152Y-58958238D01*
X23214390Y-59006619D01*
X23020867Y-59006619D01*
X22924105Y-58958238D01*
X22875724Y-58909857D01*
X22827343Y-58813095D01*
X22827343Y-58571190D01*
X22875724Y-58474429D01*
X22924105Y-58426048D01*
X23020867Y-58377667D01*
X23214390Y-58377667D01*
X23311152Y-58426048D01*
X23359533Y-58474429D01*
X23407914Y-58571190D01*
X21721838Y-67007619D02*
X21479933Y-68023619D01*
X21286410Y-67297905D01*
X21092886Y-68023619D01*
X20850981Y-67007619D01*
X20560695Y-67007619D02*
X19883362Y-67007619D01*
X20318790Y-68023619D01*
X36936438Y-55069619D02*
X36694533Y-56085619D01*
X36501010Y-55359905D01*
X36307486Y-56085619D01*
X36065581Y-55069619D01*
X35533390Y-55505048D02*
X35630152Y-55456667D01*
X35678533Y-55408286D01*
X35726914Y-55311524D01*
X35726914Y-55263143D01*
X35678533Y-55166381D01*
X35630152Y-55118000D01*
X35533390Y-55069619D01*
X35339867Y-55069619D01*
X35243105Y-55118000D01*
X35194724Y-55166381D01*
X35146343Y-55263143D01*
X35146343Y-55311524D01*
X35194724Y-55408286D01*
X35243105Y-55456667D01*
X35339867Y-55505048D01*
X35533390Y-55505048D01*
X35630152Y-55553429D01*
X35678533Y-55601810D01*
X35726914Y-55698571D01*
X35726914Y-55892095D01*
X35678533Y-55988857D01*
X35630152Y-56037238D01*
X35533390Y-56085619D01*
X35339867Y-56085619D01*
X35243105Y-56037238D01*
X35194724Y-55988857D01*
X35146343Y-55892095D01*
X35146343Y-55698571D01*
X35194724Y-55601810D01*
X35243105Y-55553429D01*
X35339867Y-55505048D01*
X16116904Y-20906619D02*
X16116904Y-19890619D01*
X15729857Y-19890619D01*
X15633095Y-19939000D01*
X15584714Y-19987381D01*
X15536333Y-20084143D01*
X15536333Y-20229286D01*
X15584714Y-20326048D01*
X15633095Y-20374429D01*
X15729857Y-20422810D01*
X16116904Y-20422810D01*
X15149285Y-19987381D02*
X15100904Y-19939000D01*
X15004142Y-19890619D01*
X14762238Y-19890619D01*
X14665476Y-19939000D01*
X14617095Y-19987381D01*
X14568714Y-20084143D01*
X14568714Y-20180905D01*
X14617095Y-20326048D01*
X15197666Y-20906619D01*
X14568714Y-20906619D01*
X28567743Y-57538257D02*
X28616124Y-57586638D01*
X28761267Y-57635019D01*
X28858029Y-57635019D01*
X29003171Y-57586638D01*
X29099933Y-57489876D01*
X29148314Y-57393114D01*
X29196695Y-57199590D01*
X29196695Y-57054448D01*
X29148314Y-56860924D01*
X29099933Y-56764162D01*
X29003171Y-56667400D01*
X28858029Y-56619019D01*
X28761267Y-56619019D01*
X28616124Y-56667400D01*
X28567743Y-56715781D01*
X27600124Y-57635019D02*
X28180695Y-57635019D01*
X27890409Y-57635019D02*
X27890409Y-56619019D01*
X27987171Y-56764162D01*
X28083933Y-56860924D01*
X28180695Y-56909305D01*
X27261457Y-56619019D02*
X26632505Y-56619019D01*
X26971171Y-57006067D01*
X26826029Y-57006067D01*
X26729267Y-57054448D01*
X26680886Y-57102829D01*
X26632505Y-57199590D01*
X26632505Y-57441495D01*
X26680886Y-57538257D01*
X26729267Y-57586638D01*
X26826029Y-57635019D01*
X27116314Y-57635019D01*
X27213076Y-57586638D01*
X27261457Y-57538257D01*
X19906343Y-45574857D02*
X19954724Y-45623238D01*
X20099867Y-45671619D01*
X20196629Y-45671619D01*
X20341771Y-45623238D01*
X20438533Y-45526476D01*
X20486914Y-45429714D01*
X20535295Y-45236190D01*
X20535295Y-45091048D01*
X20486914Y-44897524D01*
X20438533Y-44800762D01*
X20341771Y-44704000D01*
X20196629Y-44655619D01*
X20099867Y-44655619D01*
X19954724Y-44704000D01*
X19906343Y-44752381D01*
X18938724Y-45671619D02*
X19519295Y-45671619D01*
X19229009Y-45671619D02*
X19229009Y-44655619D01*
X19325771Y-44800762D01*
X19422533Y-44897524D01*
X19519295Y-44945905D01*
X18454914Y-45671619D02*
X18261390Y-45671619D01*
X18164629Y-45623238D01*
X18116248Y-45574857D01*
X18019486Y-45429714D01*
X17971105Y-45236190D01*
X17971105Y-44849143D01*
X18019486Y-44752381D01*
X18067867Y-44704000D01*
X18164629Y-44655619D01*
X18358152Y-44655619D01*
X18454914Y-44704000D01*
X18503295Y-44752381D01*
X18551676Y-44849143D01*
X18551676Y-45091048D01*
X18503295Y-45187810D01*
X18454914Y-45236190D01*
X18358152Y-45284571D01*
X18164629Y-45284571D01*
X18067867Y-45236190D01*
X18019486Y-45187810D01*
X17971105Y-45091048D01*
X16235438Y-45544619D02*
X15993533Y-46560619D01*
X15800010Y-45834905D01*
X15606486Y-46560619D01*
X15364581Y-45544619D01*
X15074295Y-45544619D02*
X14445343Y-45544619D01*
X14784009Y-45931667D01*
X14638867Y-45931667D01*
X14542105Y-45980048D01*
X14493724Y-46028429D01*
X14445343Y-46125190D01*
X14445343Y-46367095D01*
X14493724Y-46463857D01*
X14542105Y-46512238D01*
X14638867Y-46560619D01*
X14929152Y-46560619D01*
X15025914Y-46512238D01*
X15074295Y-46463857D01*
X25633438Y-34114619D02*
X25391533Y-35130619D01*
X25198010Y-34404905D01*
X25004486Y-35130619D01*
X24762581Y-34114619D01*
X24327152Y-35130619D02*
X24133628Y-35130619D01*
X24036867Y-35082238D01*
X23988486Y-35033857D01*
X23891724Y-34888714D01*
X23843343Y-34695190D01*
X23843343Y-34308143D01*
X23891724Y-34211381D01*
X23940105Y-34163000D01*
X24036867Y-34114619D01*
X24230390Y-34114619D01*
X24327152Y-34163000D01*
X24375533Y-34211381D01*
X24423914Y-34308143D01*
X24423914Y-34550048D01*
X24375533Y-34646810D01*
X24327152Y-34695190D01*
X24230390Y-34743571D01*
X24036867Y-34743571D01*
X23940105Y-34695190D01*
X23891724Y-34646810D01*
X23843343Y-34550048D01*
X24091295Y-46433619D02*
X24091295Y-47256095D01*
X24042914Y-47352857D01*
X23994533Y-47401238D01*
X23897771Y-47449619D01*
X23704248Y-47449619D01*
X23607486Y-47401238D01*
X23559105Y-47352857D01*
X23510724Y-47256095D01*
X23510724Y-46433619D01*
X23123676Y-46433619D02*
X22446343Y-46433619D01*
X22881771Y-47449619D01*
D12*
X15712962Y-28535381D02*
X15474867Y-29535381D01*
X15284390Y-28821095D01*
X15093914Y-29535381D01*
X14855819Y-28535381D01*
X13951057Y-29535381D02*
X14522486Y-29535381D01*
X14236772Y-29535381D02*
X14236772Y-28535381D01*
X14332010Y-28678238D01*
X14427248Y-28773476D01*
X14522486Y-28821095D01*
M02*
