M48
;DRILL file {KiCad 4.0.2+dfsg1-stable} date Mon 02 May 2016 01:17:16 PM EDT
;FORMAT={2:4/ absolute / inch / suppress leading zeros}
FMAT,2
INCH,TZ
T1C0.008
T2C0.013
T3C0.020
T4C0.031
T5C0.040
T6C0.047
T7C0.024
T8C0.037
T9C0.079
%
G90
G05
M72
T1
X12461Y-12621
X12461Y-13015
X12461Y-36659
X12461Y-37052
X12854Y-12621
X12854Y-13015
X12854Y-36659
X12854Y-37052
X27098Y-12621
X27098Y-13015
X27098Y-36659
X27098Y-37052
X27492Y-12621
X27492Y-13015
X27492Y-36659
X27492Y-37052
X41736Y-12621
X41736Y-13015
X41736Y-36659
X41736Y-37052
X42129Y-12621
X42129Y-13015
X42129Y-36659
X42129Y-37052
T2
X5250Y-18190
X5250Y-42227
X6750Y-17250
X6750Y-41287
X6930Y-25740
X6930Y-49777
X7080Y-15200
X7080Y-39237
X7330Y-17230
X7330Y-41267
X7470Y-13630
X7470Y-37667
X7730Y-17250
X7730Y-41287
X7750Y-16770
X7750Y-40807
X8370Y-22410
X8370Y-46447
X8780Y-7350
X8780Y-31387
X9120Y-7350
X9120Y-31387
X9180Y-25850
X9180Y-49887
X9450Y-14000
X9450Y-38037
X9610Y-21850
X9610Y-45887
X9810Y-18310
X9810Y-42347
X9950Y-27750
X9950Y-51787
X10000Y-10800
X10000Y-34837
X10210Y-21850
X10210Y-45887
X10270Y-18310
X10270Y-42347
X10430Y-15050
X10430Y-39087
X10900Y-27800
X10900Y-51837
X11375Y-12675
X11375Y-36713
X11910Y-12070
X11910Y-36107
X11950Y-23110
X11950Y-47147
X11960Y-10210
X11960Y-34247
X12010Y-24170
X12010Y-48207
X12150Y-18390
X12150Y-42427
X12190Y-16750
X12190Y-40787
X12450Y-22310
X12450Y-46347
X12469Y-14011
X12469Y-38048
X12600Y-27900
X12600Y-51937
X12730Y-10190
X12730Y-34227
X12750Y-14600
X12750Y-38637
X12830Y-24730
X12830Y-48767
X13070Y-21550
X13070Y-45587
X13350Y-13750
X13350Y-37787
X13410Y-12070
X13410Y-36107
X13599Y-17668
X13599Y-41705
X13700Y-14850
X13700Y-38887
X13710Y-14150
X13710Y-38187
X13717Y-14491
X13717Y-38529
X13840Y-17428
X13840Y-41465
X13900Y-27900
X13900Y-51937
X13950Y-13650
X13950Y-37687
X14150Y-27050
X14150Y-51087
X14200Y-18350
X14200Y-42387
X14300Y-14650
X14300Y-38687
X14400Y-17300
X14400Y-41337
X15050Y-13250
X15050Y-37287
X15150Y-7200
X15150Y-31237
X16400Y-5650
X16400Y-29687
X16750Y-16810
X16750Y-17250
X16750Y-40847
X16750Y-41287
X16810Y-13250
X16810Y-37287
X16900Y-11100
X16900Y-35137
X17030Y-19350
X17030Y-43387
X17250Y-14890
X17250Y-38927
X17300Y-7100
X17300Y-31137
X17380Y-19000
X17380Y-43037
X17690Y-14570
X17690Y-38607
X17700Y-10000
X17700Y-34037
X17750Y-7100
X17750Y-31137
X18010Y-15210
X18010Y-39247
X18390Y-17870
X18390Y-41907
X19887Y-18190
X19887Y-42227
X21387Y-17250
X21387Y-41287
X21567Y-25740
X21567Y-49777
X21717Y-15200
X21717Y-39237
X21967Y-17230
X21967Y-41267
X22107Y-13630
X22107Y-37667
X22367Y-17250
X22367Y-41287
X22387Y-16770
X22387Y-40807
X23007Y-22410
X23007Y-46447
X23417Y-7350
X23417Y-31387
X23757Y-7350
X23757Y-31387
X23817Y-25850
X23817Y-49887
X24087Y-14000
X24087Y-38037
X24247Y-21850
X24247Y-45887
X24447Y-18310
X24447Y-42347
X24587Y-27750
X24587Y-51787
X24637Y-10800
X24637Y-34837
X24847Y-21850
X24847Y-45887
X24907Y-18310
X24907Y-42347
X25067Y-15050
X25067Y-39087
X25537Y-27800
X25537Y-51837
X26012Y-12675
X26012Y-36713
X26547Y-12070
X26547Y-36107
X26587Y-23110
X26587Y-47147
X26597Y-10210
X26597Y-34247
X26647Y-24170
X26647Y-48207
X26787Y-18390
X26787Y-42427
X26827Y-16750
X26827Y-40787
X27087Y-22310
X27087Y-46347
X27107Y-14011
X27107Y-38048
X27237Y-27900
X27237Y-51937
X27367Y-10190
X27367Y-34227
X27387Y-14600
X27387Y-38637
X27467Y-24730
X27467Y-48767
X27707Y-21550
X27707Y-45587
X27987Y-13750
X27987Y-37787
X28047Y-12070
X28047Y-36107
X28237Y-17668
X28237Y-41705
X28337Y-14850
X28337Y-38887
X28347Y-14150
X28347Y-38187
X28354Y-14491
X28354Y-38529
X28477Y-17428
X28477Y-41465
X28537Y-27900
X28537Y-51937
X28587Y-13650
X28587Y-37687
X28787Y-27050
X28787Y-51087
X28837Y-18350
X28837Y-42387
X28937Y-14650
X28937Y-38687
X29037Y-17300
X29037Y-41337
X29687Y-13250
X29687Y-37287
X29787Y-7200
X29787Y-31237
X31037Y-5650
X31037Y-29687
X31387Y-16810
X31387Y-17250
X31387Y-40847
X31387Y-41287
X31447Y-13250
X31447Y-37287
X31537Y-11100
X31537Y-35137
X31667Y-19350
X31667Y-43387
X31887Y-14890
X31887Y-38927
X31937Y-7100
X31937Y-31137
X32017Y-19000
X32017Y-43037
X32327Y-14570
X32327Y-38607
X32337Y-10000
X32337Y-34037
X32387Y-7100
X32387Y-31137
X32647Y-15210
X32647Y-39247
X33027Y-17870
X33027Y-41907
X34525Y-18190
X34525Y-42227
X36025Y-17250
X36025Y-41287
X36205Y-25740
X36205Y-49777
X36355Y-15200
X36355Y-39237
X36605Y-17230
X36605Y-41267
X36745Y-13630
X36745Y-37667
X37005Y-17250
X37005Y-41287
X37025Y-16770
X37025Y-40807
X37645Y-22410
X37645Y-46447
X38055Y-7350
X38055Y-31387
X38395Y-7350
X38395Y-31387
X38455Y-25850
X38455Y-49887
X38725Y-14000
X38725Y-38037
X38885Y-21850
X38885Y-45887
X39085Y-18310
X39085Y-42347
X39225Y-27750
X39225Y-51787
X39275Y-10800
X39275Y-34837
X39485Y-21850
X39485Y-45887
X39545Y-18310
X39545Y-42347
X39705Y-15050
X39705Y-39087
X40175Y-27800
X40175Y-51837
X40649Y-12675
X40649Y-36713
X41185Y-12070
X41185Y-36107
X41225Y-23110
X41225Y-47147
X41235Y-10210
X41235Y-34247
X41285Y-24170
X41285Y-48207
X41425Y-18390
X41425Y-42427
X41465Y-16750
X41465Y-40787
X41725Y-22310
X41725Y-46347
X41744Y-14011
X41744Y-38048
X41875Y-27900
X41875Y-51937
X42005Y-10190
X42005Y-34227
X42025Y-14600
X42025Y-38637
X42105Y-24730
X42105Y-48767
X42345Y-21550
X42345Y-45587
X42625Y-13750
X42625Y-37787
X42685Y-12070
X42685Y-36107
X42874Y-17668
X42874Y-41705
X42975Y-14850
X42975Y-38887
X42985Y-14150
X42985Y-38187
X42992Y-14491
X42992Y-38529
X43115Y-17428
X43115Y-41465
X43175Y-27900
X43175Y-51937
X43225Y-13650
X43225Y-37687
X43425Y-27050
X43425Y-51087
X43475Y-18350
X43475Y-42387
X43575Y-14650
X43575Y-38687
X43675Y-17300
X43675Y-41337
X44325Y-13250
X44325Y-37287
X44425Y-7200
X44425Y-31237
X45675Y-5650
X45675Y-29687
X46025Y-16810
X46025Y-17250
X46025Y-40847
X46025Y-41287
X46085Y-13250
X46085Y-37287
X46175Y-11100
X46175Y-35137
X46305Y-19350
X46305Y-43387
X46525Y-14890
X46525Y-38927
X46575Y-7100
X46575Y-31137
X46655Y-19000
X46655Y-43037
X46965Y-14570
X46965Y-38607
X46975Y-10000
X46975Y-34037
X47025Y-7100
X47025Y-31137
X47285Y-15210
X47285Y-39247
X47665Y-17870
X47665Y-41907
T3
X6770Y-9490
X6770Y-33527
X6850Y-25200
X6850Y-49237
X8230Y-27820
X8230Y-51857
X8250Y-11200
X8250Y-35237
X9770Y-7160
X9770Y-31197
X10998Y-12128
X10998Y-36165
X11350Y-26700
X11350Y-50737
X11800Y-27850
X11800Y-51887
X13010Y-25610
X13010Y-49647
X13630Y-18330
X13630Y-42367
X14070Y-26080
X14070Y-50117
X14250Y-19150
X14250Y-43187
X16010Y-7200
X16010Y-31237
X16640Y-19680
X16640Y-43717
X17080Y-5690
X17080Y-29727
X21407Y-9490
X21407Y-33527
X21487Y-25200
X21487Y-49237
X22867Y-27820
X22867Y-51857
X22887Y-11200
X22887Y-35237
X24407Y-7160
X24407Y-31197
X25635Y-12128
X25635Y-36165
X25987Y-26700
X25987Y-50737
X26437Y-27850
X26437Y-51887
X27647Y-25610
X27647Y-49647
X28267Y-18330
X28267Y-42367
X28707Y-26080
X28707Y-50117
X28887Y-19150
X28887Y-43187
X30647Y-7200
X30647Y-31237
X31277Y-19680
X31277Y-43717
X31717Y-5690
X31717Y-29727
X36045Y-9490
X36045Y-33527
X36125Y-25200
X36125Y-49237
X37505Y-27820
X37505Y-51857
X37525Y-11200
X37525Y-35237
X39045Y-7160
X39045Y-31197
X40272Y-12128
X40272Y-36165
X40625Y-26700
X40625Y-50737
X41075Y-27850
X41075Y-51887
X42285Y-25610
X42285Y-49647
X42905Y-18330
X42905Y-42367
X43345Y-26080
X43345Y-50117
X43525Y-19150
X43525Y-43187
X45285Y-7200
X45285Y-31237
X45915Y-19680
X45915Y-43717
X46355Y-5690
X46355Y-29727
T4
X9850Y-8166
X9850Y-10134
X9850Y-32203
X9850Y-34172
X11150Y-9150
X11150Y-33187
X24488Y-8166
X24488Y-10134
X24488Y-32203
X24488Y-34172
X25787Y-9150
X25787Y-33187
X39125Y-8166
X39125Y-10134
X39125Y-32203
X39125Y-34172
X40424Y-9150
X40424Y-33187
T5
X5950Y-20410
X5950Y-21410
X5950Y-22410
X5950Y-44447
X5950Y-45447
X5950Y-46447
X6070Y-5810
X6070Y-6810
X6070Y-29847
X6070Y-30847
X20587Y-20410
X20587Y-21410
X20587Y-22410
X20587Y-44447
X20587Y-45447
X20587Y-46447
X20707Y-5810
X20707Y-6810
X20707Y-29847
X20707Y-30847
X35225Y-20410
X35225Y-21410
X35225Y-22410
X35225Y-44447
X35225Y-45447
X35225Y-46447
X35345Y-5810
X35345Y-6810
X35345Y-29847
X35345Y-30847
T6
X5830Y-12500
X5830Y-36537
X5850Y-19190
X5850Y-43227
X6030Y-14910
X6030Y-38947
X7550Y-5497
X7550Y-29534
X8190Y-25530
X8190Y-49567
X9330Y-24050
X9330Y-48087
X9770Y-14830
X9770Y-38867
X10050Y-5497
X10050Y-29534
X12210Y-21570
X12210Y-45607
X13990Y-16010
X13990Y-40047
X14170Y-22970
X14170Y-47007
X20467Y-12500
X20467Y-36537
X20487Y-19190
X20487Y-43227
X20667Y-14910
X20667Y-38947
X22187Y-5497
X22187Y-29534
X22827Y-25530
X22827Y-49567
X23967Y-24050
X23967Y-48087
X24407Y-14830
X24407Y-38867
X24687Y-5497
X24687Y-29534
X26847Y-21570
X26847Y-45607
X28627Y-16010
X28627Y-40047
X28807Y-22970
X28807Y-47007
X35105Y-12500
X35105Y-36537
X35125Y-19190
X35125Y-43227
X35305Y-14910
X35305Y-38947
X36825Y-5497
X36825Y-29534
X37465Y-25530
X37465Y-49567
X38605Y-24050
X38605Y-48087
X39045Y-14830
X39045Y-38867
X39325Y-5497
X39325Y-29534
X41485Y-21570
X41485Y-45607
X43265Y-16010
X43265Y-40047
X43445Y-22970
X43445Y-47007
T7
X13050Y-27050
X13050Y-51087
X27687Y-27050
X27687Y-51087
X42325Y-27050
X42325Y-51087
T8
X9190Y-26550
X9190Y-50587
X10650Y-26950
X10650Y-50987
X23828Y-26550
X23828Y-50587
X25287Y-26950
X25287Y-50987
X38465Y-26550
X38465Y-50587
X39925Y-26950
X39925Y-50987
T9
X7773Y-23665
X7773Y-47702
X15883Y-12369
X15883Y-36407
X22410Y-23665
X22410Y-47702
X30520Y-12369
X30520Y-36407
X37048Y-23665
X37048Y-47702
X45158Y-12369
X45158Y-36407
T0
M30
