M48
;DRILL file {KiCad 4.0.2+dfsg1-stable} date Wed 22 Jun 2016 02:24:56 PM EDT
;FORMAT={2:4/ absolute / inch / suppress leading zeros}
FMAT,2
INCH,TZ
T1C0.008
T2C0.010
T3C0.015
T4C0.024
T5C0.063
%
G90
G05
M72
T1
X5250Y-12000
X5250Y-25787
X5250Y-39575
X5450Y-15000
X5450Y-28787
X5450Y-42575
X5700Y-6250
X5700Y-20037
X5700Y-33825
X5800Y-8900
X5800Y-22687
X5800Y-36475
X6200Y-15850
X6200Y-29637
X6200Y-43425
X6800Y-10800
X6800Y-24587
X6800Y-38375
X7050Y-12400
X7050Y-26187
X7050Y-39975
X7117Y-15800
X7117Y-29587
X7117Y-43375
X7300Y-14950
X7300Y-28737
X7300Y-42525
X7400Y-14050
X7400Y-27837
X7400Y-41625
X7600Y-16700
X7600Y-30487
X7600Y-44275
X7900Y-11800
X7900Y-25587
X7900Y-39375
X8100Y-17750
X8100Y-31537
X8100Y-45325
X8150Y-10100
X8150Y-23887
X8150Y-37675
X8200Y-5350
X8200Y-19137
X8200Y-32925
X8500Y-8692
X8500Y-10500
X8500Y-10900
X8500Y-22480
X8500Y-24287
X8500Y-24687
X8500Y-36267
X8500Y-38075
X8500Y-38475
X8650Y-7000
X8650Y-20787
X8650Y-34575
X8800Y-12400
X8800Y-17750
X8800Y-26187
X8800Y-31537
X8800Y-39975
X8800Y-45325
X8850Y-10700
X8850Y-24487
X8850Y-38275
X8950Y-8200
X8950Y-21987
X8950Y-35775
X9000Y-15550
X9000Y-29337
X9000Y-43125
X9050Y-14000
X9050Y-27787
X9050Y-41575
X9100Y-5850
X9100Y-19637
X9100Y-33425
X9150Y-14350
X9150Y-28137
X9150Y-41925
X9300Y-16950
X9300Y-30737
X9300Y-44525
X9500Y-5600
X9500Y-19387
X9500Y-33175
X9550Y-14900
X9550Y-28687
X9550Y-42475
X9700Y-15600
X9700Y-29387
X9700Y-43175
X9800Y-17800
X9800Y-31587
X9800Y-45375
X10050Y-13200
X10050Y-26987
X10050Y-40775
X10150Y-11600
X10150Y-25387
X10150Y-39175
X10300Y-16350
X10300Y-30137
X10300Y-43925
X10650Y-16450
X10650Y-30237
X10650Y-44025
X10800Y-9100
X10800Y-22887
X10800Y-36675
X10850Y-7400
X10850Y-21187
X10850Y-34975
X11000Y-14850
X11000Y-28637
X11000Y-42425
X11050Y-16550
X11050Y-30337
X11050Y-44125
X11150Y-11650
X11150Y-25437
X11150Y-39225
X11250Y-10200
X11250Y-23987
X11250Y-37775
X11350Y-9700
X11350Y-23487
X11350Y-37275
X11400Y-10500
X11400Y-13150
X11400Y-24287
X11400Y-26937
X11400Y-38075
X11400Y-40725
X11450Y-11050
X11450Y-24837
X11450Y-38625
X11750Y-6900
X11750Y-20687
X11750Y-34475
X12050Y-9300
X12050Y-23087
X12050Y-36875
X12200Y-17700
X12200Y-31487
X12200Y-45275
X12350Y-6200
X12350Y-11700
X12350Y-19987
X12350Y-25487
X12350Y-33775
X12350Y-39275
X12600Y-7100
X12600Y-8150
X12600Y-20887
X12600Y-21937
X12600Y-34675
X12600Y-35725
X12900Y-11800
X12900Y-13500
X12900Y-15700
X12900Y-25587
X12900Y-27287
X12900Y-29487
X12900Y-39375
X12900Y-41075
X12900Y-43275
X13000Y-8600
X13000Y-8900
X13000Y-22387
X13000Y-22687
X13000Y-36175
X13000Y-36475
X13200Y-6850
X13200Y-20637
X13200Y-34425
X13400Y-15800
X13400Y-29587
X13400Y-43375
X13500Y-9900
X13500Y-23687
X13500Y-37475
X13700Y-17700
X13700Y-31487
X13700Y-45275
X13722Y-9972
X13722Y-23759
X13722Y-37547
X13750Y-11650
X13750Y-25437
X13750Y-39225
X13850Y-14750
X13850Y-28537
X13850Y-42325
X14150Y-8800
X14150Y-22587
X14150Y-36375
X14350Y-9350
X14350Y-11150
X14350Y-23137
X14350Y-24937
X14350Y-36925
X14350Y-38725
X14450Y-14150
X14450Y-27937
X14450Y-41725
X14562Y-13000
X14562Y-26787
X14562Y-40575
X14600Y-7350
X14600Y-21137
X14600Y-34925
X15000Y-7850
X15000Y-11000
X15000Y-21637
X15000Y-24787
X15000Y-35425
X15000Y-38575
X15050Y-14600
X15050Y-28387
X15050Y-42175
X15400Y-10950
X15400Y-24737
X15400Y-38525
X15500Y-10500
X15500Y-24287
X15500Y-38075
X16050Y-10900
X16050Y-24687
X16050Y-38475
X16100Y-9350
X16100Y-23137
X16100Y-36925
X16300Y-13150
X16300Y-16250
X16300Y-26937
X16300Y-30037
X16300Y-40725
X16300Y-43825
X16800Y-8050
X16800Y-21837
X16800Y-35625
X16950Y-14000
X16950Y-27787
X16950Y-41575
X17100Y-7350
X17100Y-21137
X17100Y-34925
X17300Y-15450
X17300Y-29237
X17300Y-43025
X17650Y-9300
X17650Y-23087
X17650Y-36875
X19037Y-12000
X19037Y-25787
X19037Y-39575
X19237Y-15000
X19237Y-28787
X19237Y-42575
X19487Y-6250
X19487Y-20037
X19487Y-33825
X19587Y-8900
X19587Y-22687
X19587Y-36475
X19987Y-15850
X19987Y-29637
X19987Y-43425
X20587Y-10800
X20587Y-24587
X20587Y-38375
X20837Y-12400
X20837Y-26187
X20837Y-39975
X20904Y-15800
X20904Y-29587
X20904Y-43375
X21087Y-14950
X21087Y-28737
X21087Y-42525
X21187Y-14050
X21187Y-27837
X21187Y-41625
X21387Y-16700
X21387Y-30487
X21387Y-44275
X21687Y-11800
X21687Y-25587
X21687Y-39375
X21887Y-17750
X21887Y-31537
X21887Y-45325
X21937Y-10100
X21937Y-23887
X21937Y-37675
X21987Y-5350
X21987Y-19137
X21987Y-32925
X22287Y-8692
X22287Y-10500
X22287Y-10900
X22287Y-22480
X22287Y-24287
X22287Y-24687
X22287Y-36267
X22287Y-38075
X22287Y-38475
X22437Y-7000
X22437Y-20787
X22437Y-34575
X22587Y-12400
X22587Y-17750
X22587Y-26187
X22587Y-31537
X22587Y-39975
X22587Y-45325
X22637Y-10700
X22637Y-24487
X22637Y-38275
X22737Y-8200
X22737Y-21987
X22737Y-35775
X22787Y-15550
X22787Y-29337
X22787Y-43125
X22837Y-14000
X22837Y-27787
X22837Y-41575
X22887Y-5850
X22887Y-19637
X22887Y-33425
X22937Y-14350
X22937Y-28137
X22937Y-41925
X23087Y-16950
X23087Y-30737
X23087Y-44525
X23287Y-5600
X23287Y-19387
X23287Y-33175
X23337Y-14900
X23337Y-28687
X23337Y-42475
X23487Y-15600
X23487Y-29387
X23487Y-43175
X23587Y-17800
X23587Y-31587
X23587Y-45375
X23837Y-13200
X23837Y-26987
X23837Y-40775
X23937Y-11600
X23937Y-25387
X23937Y-39175
X24087Y-16350
X24087Y-30137
X24087Y-43925
X24437Y-16450
X24437Y-30237
X24437Y-44025
X24587Y-9100
X24587Y-22887
X24587Y-36675
X24637Y-7400
X24637Y-21187
X24637Y-34975
X24787Y-14850
X24787Y-28637
X24787Y-42425
X24837Y-16550
X24837Y-30337
X24837Y-44125
X24937Y-11650
X24937Y-25437
X24937Y-39225
X25037Y-10200
X25037Y-23987
X25037Y-37775
X25137Y-9700
X25137Y-23487
X25137Y-37275
X25187Y-10500
X25187Y-13150
X25187Y-24287
X25187Y-26937
X25187Y-38075
X25187Y-40725
X25237Y-11050
X25237Y-24837
X25237Y-38625
X25537Y-6900
X25537Y-20687
X25537Y-34475
X25837Y-9300
X25837Y-23087
X25837Y-36875
X25987Y-17700
X25987Y-31487
X25987Y-45275
X26137Y-6200
X26137Y-11700
X26137Y-19987
X26137Y-25487
X26137Y-33775
X26137Y-39275
X26387Y-7100
X26387Y-8150
X26387Y-20887
X26387Y-21937
X26387Y-34675
X26387Y-35725
X26687Y-11800
X26687Y-13500
X26687Y-15700
X26687Y-25587
X26687Y-27287
X26687Y-29487
X26687Y-39375
X26687Y-41075
X26687Y-43275
X26787Y-8600
X26787Y-8900
X26787Y-22387
X26787Y-22687
X26787Y-36175
X26787Y-36475
X26987Y-6850
X26987Y-20637
X26987Y-34425
X27187Y-15800
X27187Y-29587
X27187Y-43375
X27287Y-9900
X27287Y-23687
X27287Y-37475
X27487Y-17700
X27487Y-31487
X27487Y-45275
X27509Y-9972
X27509Y-23759
X27509Y-37547
X27537Y-11650
X27537Y-25437
X27537Y-39225
X27637Y-14750
X27637Y-28537
X27637Y-42325
X27937Y-8800
X27937Y-22587
X27937Y-36375
X28137Y-9350
X28137Y-11150
X28137Y-23137
X28137Y-24937
X28137Y-36925
X28137Y-38725
X28237Y-14150
X28237Y-27937
X28237Y-41725
X28350Y-13000
X28350Y-26787
X28350Y-40575
X28387Y-7350
X28387Y-21137
X28387Y-34925
X28787Y-7850
X28787Y-11000
X28787Y-21637
X28787Y-24787
X28787Y-35425
X28787Y-38575
X28837Y-14600
X28837Y-28387
X28837Y-42175
X29187Y-10950
X29187Y-24737
X29187Y-38525
X29287Y-10500
X29287Y-24287
X29287Y-38075
X29837Y-10900
X29837Y-24687
X29837Y-38475
X29887Y-9350
X29887Y-23137
X29887Y-36925
X30087Y-13150
X30087Y-16250
X30087Y-26937
X30087Y-30037
X30087Y-40725
X30087Y-43825
X30587Y-8050
X30587Y-21837
X30587Y-35625
X30737Y-14000
X30737Y-27787
X30737Y-41575
X30887Y-7350
X30887Y-21137
X30887Y-34925
X31087Y-15450
X31087Y-29237
X31087Y-43025
X31437Y-9300
X31437Y-23087
X31437Y-36875
X32825Y-12000
X32825Y-25787
X32825Y-39575
X33025Y-15000
X33025Y-28787
X33025Y-42575
X33275Y-6250
X33275Y-20037
X33275Y-33825
X33375Y-8900
X33375Y-22687
X33375Y-36475
X33775Y-15850
X33775Y-29637
X33775Y-43425
X34375Y-10800
X34375Y-24587
X34375Y-38375
X34625Y-12400
X34625Y-26187
X34625Y-39975
X34691Y-15800
X34691Y-29587
X34691Y-43375
X34875Y-14950
X34875Y-28737
X34875Y-42525
X34975Y-14050
X34975Y-27837
X34975Y-41625
X35175Y-16700
X35175Y-30487
X35175Y-44275
X35475Y-11800
X35475Y-25587
X35475Y-39375
X35675Y-17750
X35675Y-31537
X35675Y-45325
X35725Y-10100
X35725Y-23887
X35725Y-37675
X35775Y-5350
X35775Y-19137
X35775Y-32925
X36075Y-8692
X36075Y-10500
X36075Y-10900
X36075Y-22480
X36075Y-24287
X36075Y-24687
X36075Y-36267
X36075Y-38075
X36075Y-38475
X36225Y-7000
X36225Y-20787
X36225Y-34575
X36375Y-12400
X36375Y-17750
X36375Y-26187
X36375Y-31537
X36375Y-39975
X36375Y-45325
X36425Y-10700
X36425Y-24487
X36425Y-38275
X36525Y-8200
X36525Y-21987
X36525Y-35775
X36575Y-15550
X36575Y-29337
X36575Y-43125
X36625Y-14000
X36625Y-27787
X36625Y-41575
X36675Y-5850
X36675Y-19637
X36675Y-33425
X36725Y-14350
X36725Y-28137
X36725Y-41925
X36875Y-16950
X36875Y-30737
X36875Y-44525
X37075Y-5600
X37075Y-19387
X37075Y-33175
X37125Y-14900
X37125Y-28687
X37125Y-42475
X37275Y-15600
X37275Y-29387
X37275Y-43175
X37375Y-17800
X37375Y-31587
X37375Y-45375
X37625Y-13200
X37625Y-26987
X37625Y-40775
X37725Y-11600
X37725Y-25387
X37725Y-39175
X37875Y-16350
X37875Y-30137
X37875Y-43925
X38225Y-16450
X38225Y-30237
X38225Y-44025
X38375Y-9100
X38375Y-22887
X38375Y-36675
X38425Y-7400
X38425Y-21187
X38425Y-34975
X38575Y-14850
X38575Y-28637
X38575Y-42425
X38625Y-16550
X38625Y-30337
X38625Y-44125
X38725Y-11650
X38725Y-25437
X38725Y-39225
X38825Y-10200
X38825Y-23987
X38825Y-37775
X38925Y-9700
X38925Y-23487
X38925Y-37275
X38975Y-10500
X38975Y-13150
X38975Y-24287
X38975Y-26937
X38975Y-38075
X38975Y-40725
X39025Y-11050
X39025Y-24837
X39025Y-38625
X39325Y-6900
X39325Y-20687
X39325Y-34475
X39625Y-9300
X39625Y-23087
X39625Y-36875
X39775Y-17700
X39775Y-31487
X39775Y-45275
X39925Y-6200
X39925Y-11700
X39925Y-19987
X39925Y-25487
X39925Y-33775
X39925Y-39275
X40175Y-7100
X40175Y-8150
X40175Y-20887
X40175Y-21937
X40175Y-34675
X40175Y-35725
X40475Y-11800
X40475Y-13500
X40475Y-15700
X40475Y-25587
X40475Y-27287
X40475Y-29487
X40475Y-39375
X40475Y-41075
X40475Y-43275
X40575Y-8600
X40575Y-8900
X40575Y-22387
X40575Y-22687
X40575Y-36175
X40575Y-36475
X40775Y-6850
X40775Y-20637
X40775Y-34425
X40975Y-15800
X40975Y-29587
X40975Y-43375
X41075Y-9900
X41075Y-23687
X41075Y-37475
X41275Y-17700
X41275Y-31487
X41275Y-45275
X41297Y-9972
X41297Y-23759
X41297Y-37547
X41325Y-11650
X41325Y-25437
X41325Y-39225
X41425Y-14750
X41425Y-28537
X41425Y-42325
X41725Y-8800
X41725Y-22587
X41725Y-36375
X41925Y-9350
X41925Y-11150
X41925Y-23137
X41925Y-24937
X41925Y-36925
X41925Y-38725
X42025Y-14150
X42025Y-27937
X42025Y-41725
X42137Y-13000
X42137Y-26787
X42137Y-40575
X42175Y-7350
X42175Y-21137
X42175Y-34925
X42575Y-7850
X42575Y-11000
X42575Y-21637
X42575Y-24787
X42575Y-35425
X42575Y-38575
X42625Y-14600
X42625Y-28387
X42625Y-42175
X42975Y-10950
X42975Y-24737
X42975Y-38525
X43075Y-10500
X43075Y-24287
X43075Y-38075
X43625Y-10900
X43625Y-24687
X43625Y-38475
X43675Y-9350
X43675Y-23137
X43675Y-36925
X43875Y-13150
X43875Y-16250
X43875Y-26937
X43875Y-30037
X43875Y-40725
X43875Y-43825
X44375Y-8050
X44375Y-21837
X44375Y-35625
X44525Y-14000
X44525Y-27787
X44525Y-41575
X44675Y-7350
X44675Y-21137
X44675Y-34925
X44875Y-15450
X44875Y-29237
X44875Y-43025
X45225Y-9300
X45225Y-23087
X45225Y-36875
T2
X14800Y-17300
X14800Y-31087
X14800Y-44875
X28587Y-17300
X28587Y-31087
X28587Y-44875
X42375Y-17300
X42375Y-31087
X42375Y-44875
T3
X7650Y-17700
X7650Y-31487
X7650Y-45275
X15750Y-14950
X15750Y-28737
X15750Y-42525
X16000Y-17400
X16000Y-31187
X16000Y-44975
X16350Y-16600
X16350Y-30387
X16350Y-44175
X21437Y-17700
X21437Y-31487
X21437Y-45275
X29537Y-14950
X29537Y-28737
X29537Y-42525
X29787Y-17400
X29787Y-31187
X29787Y-44975
X30137Y-16600
X30137Y-30387
X30137Y-44175
X35225Y-17700
X35225Y-31487
X35225Y-45275
X43325Y-14950
X43325Y-28737
X43325Y-42525
X43575Y-17400
X43575Y-31187
X43575Y-44975
X43925Y-16600
X43925Y-30387
X43925Y-44175
T4
X12950Y-17100
X12950Y-30888
X12950Y-44675
X26738Y-17100
X26738Y-30888
X26738Y-44675
X40525Y-17100
X40525Y-30888
X40525Y-44675
T5
X12548Y-5550
X12548Y-19337
X12548Y-33125
X12950Y-7550
X12950Y-21337
X12950Y-35125
X13336Y-5550
X13336Y-19337
X13336Y-33125
X26336Y-5550
X26336Y-19337
X26336Y-33125
X26737Y-7550
X26737Y-21337
X26737Y-35125
X27123Y-5550
X27123Y-19337
X27123Y-33125
X40123Y-5550
X40123Y-19337
X40123Y-33125
X40525Y-7550
X40525Y-21337
X40525Y-35125
X40911Y-5550
X40911Y-19337
X40911Y-33125
T0
M30
