G04 #@! TF.FileFunction,Soldermask,Top*
%FSLAX46Y46*%
G04 Gerber Fmt 4.6, Leading zero omitted, Abs format (unit mm)*
G04 Created by KiCad (PCBNEW 4.0.2+dfsg1-stable) date Wed 22 Jun 2016 02:24:39 PM EDT*
%MOMM*%
G01*
G04 APERTURE LIST*
%ADD10C,0.100000*%
%ADD11R,0.703200X1.403200*%
%ADD12R,0.803200X0.603200*%
%ADD13R,0.603200X1.553200*%
%ADD14R,2.303200X2.203200*%
%ADD15R,1.803200X2.103200*%
%ADD16R,1.403200X2.103200*%
%ADD17R,0.601980X0.952500*%
%ADD18R,0.803200X0.703200*%
%ADD19R,0.853200X1.263200*%
%ADD20R,0.603200X0.803200*%
%ADD21C,0.926200*%
%ADD22C,0.765200*%
%ADD23C,0.715200*%
%ADD24C,1.427200*%
%ADD25R,1.263200X0.853200*%
%ADD26R,0.803200X1.453200*%
%ADD27R,1.653200X0.653200*%
%ADD28R,0.683200X1.193200*%
%ADD29R,1.193200X0.683200*%
%ADD30R,0.703200X0.803200*%
%ADD31R,0.953200X1.003200*%
%ADD32R,1.003200X0.953200*%
%ADD33R,1.003200X1.603200*%
%ADD34R,1.553200X2.003200*%
%ADD35R,1.363200X1.703200*%
%ADD36R,0.853200X2.343200*%
%ADD37R,0.803200X1.353200*%
%ADD38R,0.853200X1.803200*%
%ADD39R,0.853200X1.503200*%
%ADD40R,1.303200X0.653200*%
%ADD41R,1.353200X0.653200*%
G04 APERTURE END LIST*
D10*
D11*
X113093000Y-110680000D03*
X114043000Y-110680000D03*
X114993000Y-110680000D03*
X114993000Y-108330000D03*
X113093000Y-108330000D03*
D12*
X104965000Y-91953000D03*
X104965000Y-91053000D03*
D13*
X108999000Y-87185000D03*
X109649000Y-87185000D03*
X110299000Y-87185000D03*
X110949000Y-87185000D03*
X111599000Y-87185000D03*
D14*
X107199000Y-86860000D03*
X113399000Y-86860000D03*
D15*
X114399000Y-84510000D03*
D16*
X111149000Y-84510000D03*
X109449000Y-84510000D03*
D15*
X106199000Y-84510000D03*
D17*
X99869760Y-90674960D03*
X100520000Y-90674960D03*
X101170240Y-90674960D03*
X101170240Y-88775040D03*
X100520000Y-88775040D03*
X99869760Y-88775040D03*
X99869760Y-96643960D03*
X100520000Y-96643960D03*
X101170240Y-96643960D03*
X101170240Y-94744040D03*
X100520000Y-94744040D03*
X99869760Y-94744040D03*
D18*
X101367000Y-86931000D03*
X102467000Y-86931000D03*
X99970000Y-92646000D03*
X101070000Y-92646000D03*
D19*
X114170000Y-100225000D03*
X113220000Y-100225000D03*
X112270000Y-100225000D03*
X112270000Y-102425000D03*
X114170000Y-102425000D03*
D20*
X113924000Y-92773000D03*
X113024000Y-92773000D03*
D18*
X113051000Y-104584000D03*
X114151000Y-104584000D03*
X113051000Y-106362000D03*
X114151000Y-106362000D03*
X113178000Y-112839000D03*
X114278000Y-112839000D03*
D21*
X101968000Y-111372000D03*
D22*
X101919000Y-114109000D03*
X103949000Y-114109000D03*
D21*
X103900000Y-111372000D03*
D23*
X102934000Y-111372000D03*
D24*
X102934000Y-113475000D03*
D25*
X88031000Y-113154000D03*
X88031000Y-112204000D03*
X88031000Y-111254000D03*
X85831000Y-111254000D03*
X85831000Y-113154000D03*
X85831000Y-112204000D03*
D26*
X110360000Y-112213000D03*
X108460000Y-112213000D03*
X109410000Y-114363000D03*
D27*
X106448000Y-94719000D03*
X106448000Y-95369000D03*
X106448000Y-96019000D03*
X106448000Y-96669000D03*
X110848000Y-96669000D03*
X110848000Y-96019000D03*
X110848000Y-95369000D03*
X110848000Y-94719000D03*
D28*
X105757000Y-101740000D03*
X105107000Y-101740000D03*
X104457000Y-101740000D03*
X103807000Y-101740000D03*
X103807000Y-104330000D03*
X104457000Y-104330000D03*
X105107000Y-104330000D03*
X105757000Y-104330000D03*
X91391000Y-101536000D03*
X90741000Y-101536000D03*
X90091000Y-101536000D03*
X89441000Y-101536000D03*
X89441000Y-104126000D03*
X90091000Y-104126000D03*
X90741000Y-104126000D03*
X91391000Y-104126000D03*
D29*
X92342000Y-112189000D03*
X92342000Y-112839000D03*
X92342000Y-113489000D03*
X92342000Y-114139000D03*
X94932000Y-114139000D03*
X94932000Y-113489000D03*
X94932000Y-112839000D03*
X94932000Y-112189000D03*
D20*
X108844000Y-102044000D03*
X107944000Y-102044000D03*
X110749000Y-100012000D03*
X109849000Y-100012000D03*
D12*
X108140000Y-99181000D03*
X108140000Y-100081000D03*
X103314000Y-95255000D03*
X103314000Y-94355000D03*
D20*
X103891000Y-97091000D03*
X102991000Y-97091000D03*
X102933000Y-98742000D03*
X103833000Y-98742000D03*
X95636000Y-106489000D03*
X94736000Y-106489000D03*
X102171000Y-108648000D03*
X103071000Y-108648000D03*
X97911000Y-106489000D03*
X98811000Y-106489000D03*
X99181000Y-108648000D03*
X100081000Y-108648000D03*
X98927000Y-113601000D03*
X99827000Y-113601000D03*
X104134000Y-106489000D03*
X105034000Y-106489000D03*
X90937000Y-106108000D03*
X90037000Y-106108000D03*
D12*
X97218000Y-112770000D03*
X97218000Y-113670000D03*
D20*
X86989000Y-104584000D03*
X87889000Y-104584000D03*
X98927000Y-100520000D03*
X99827000Y-100520000D03*
X86989000Y-106997000D03*
X87889000Y-106997000D03*
X92000000Y-110553000D03*
X92900000Y-110553000D03*
X99816000Y-104330000D03*
X100716000Y-104330000D03*
X97207000Y-102552000D03*
X98107000Y-102552000D03*
X96895000Y-104330000D03*
X97795000Y-104330000D03*
X93085000Y-100520000D03*
X93985000Y-100520000D03*
D18*
X88116000Y-114998000D03*
X87016000Y-114998000D03*
D30*
X105854000Y-111400000D03*
X105854000Y-112500000D03*
D18*
X110384000Y-110299000D03*
X111484000Y-110299000D03*
D31*
X108267000Y-109906000D03*
X108267000Y-108406000D03*
D32*
X108509000Y-91122000D03*
X107009000Y-91122000D03*
D18*
X108479000Y-92900000D03*
X109579000Y-92900000D03*
X100054000Y-111315000D03*
X98954000Y-111315000D03*
X106277000Y-108648000D03*
X105177000Y-108648000D03*
X100859000Y-106489000D03*
X101959000Y-106489000D03*
X107971000Y-105981000D03*
X109071000Y-105981000D03*
X93112000Y-104330000D03*
X94212000Y-104330000D03*
X95271000Y-110553000D03*
X96371000Y-110553000D03*
X107971000Y-104203000D03*
X109071000Y-104203000D03*
D32*
X93293000Y-102425000D03*
X94793000Y-102425000D03*
X95325000Y-108648000D03*
X96825000Y-108648000D03*
D18*
X101197000Y-102552000D03*
X100097000Y-102552000D03*
X96033000Y-100520000D03*
X97133000Y-100520000D03*
X87016000Y-109156000D03*
X88116000Y-109156000D03*
X92350000Y-108648000D03*
X93450000Y-108648000D03*
D30*
X90360000Y-111484000D03*
X90360000Y-110384000D03*
D12*
X90360000Y-114051000D03*
X90360000Y-113151000D03*
D20*
X89656000Y-108140000D03*
X90556000Y-108140000D03*
D18*
X113008000Y-98361000D03*
X111908000Y-98361000D03*
D33*
X96369000Y-86358000D03*
X95269000Y-86358000D03*
X94169000Y-86358000D03*
X93069000Y-86358000D03*
X91969000Y-86358000D03*
X90869000Y-86358000D03*
X89769000Y-86358000D03*
X88669000Y-86358000D03*
D34*
X97259000Y-84308000D03*
D35*
X83939000Y-84058000D03*
D36*
X97584000Y-90938000D03*
D37*
X83659000Y-92033000D03*
D38*
X97584000Y-96018000D03*
D39*
X83684000Y-97958000D03*
D40*
X97359000Y-97523000D03*
D41*
X97334000Y-98183000D03*
D11*
X113093000Y-75660000D03*
X114043000Y-75660000D03*
X114993000Y-75660000D03*
X114993000Y-73310000D03*
X113093000Y-73310000D03*
D12*
X104965000Y-56933000D03*
X104965000Y-56033000D03*
D13*
X108999000Y-52165000D03*
X109649000Y-52165000D03*
X110299000Y-52165000D03*
X110949000Y-52165000D03*
X111599000Y-52165000D03*
D14*
X107199000Y-51840000D03*
X113399000Y-51840000D03*
D15*
X114399000Y-49490000D03*
D16*
X111149000Y-49490000D03*
X109449000Y-49490000D03*
D15*
X106199000Y-49490000D03*
D17*
X99869760Y-55654960D03*
X100520000Y-55654960D03*
X101170240Y-55654960D03*
X101170240Y-53755040D03*
X100520000Y-53755040D03*
X99869760Y-53755040D03*
X99869760Y-61623960D03*
X100520000Y-61623960D03*
X101170240Y-61623960D03*
X101170240Y-59724040D03*
X100520000Y-59724040D03*
X99869760Y-59724040D03*
D18*
X101367000Y-51911000D03*
X102467000Y-51911000D03*
X99970000Y-57626000D03*
X101070000Y-57626000D03*
D19*
X114170000Y-65205000D03*
X113220000Y-65205000D03*
X112270000Y-65205000D03*
X112270000Y-67405000D03*
X114170000Y-67405000D03*
D20*
X113924000Y-57753000D03*
X113024000Y-57753000D03*
D18*
X113051000Y-69564000D03*
X114151000Y-69564000D03*
X113051000Y-71342000D03*
X114151000Y-71342000D03*
X113178000Y-77819000D03*
X114278000Y-77819000D03*
D21*
X101968000Y-76352000D03*
D22*
X101919000Y-79089000D03*
X103949000Y-79089000D03*
D21*
X103900000Y-76352000D03*
D23*
X102934000Y-76352000D03*
D24*
X102934000Y-78455000D03*
D25*
X88031000Y-78134000D03*
X88031000Y-77184000D03*
X88031000Y-76234000D03*
X85831000Y-76234000D03*
X85831000Y-78134000D03*
X85831000Y-77184000D03*
D26*
X110360000Y-77193000D03*
X108460000Y-77193000D03*
X109410000Y-79343000D03*
D27*
X106448000Y-59699000D03*
X106448000Y-60349000D03*
X106448000Y-60999000D03*
X106448000Y-61649000D03*
X110848000Y-61649000D03*
X110848000Y-60999000D03*
X110848000Y-60349000D03*
X110848000Y-59699000D03*
D28*
X105757000Y-66720000D03*
X105107000Y-66720000D03*
X104457000Y-66720000D03*
X103807000Y-66720000D03*
X103807000Y-69310000D03*
X104457000Y-69310000D03*
X105107000Y-69310000D03*
X105757000Y-69310000D03*
X91391000Y-66516000D03*
X90741000Y-66516000D03*
X90091000Y-66516000D03*
X89441000Y-66516000D03*
X89441000Y-69106000D03*
X90091000Y-69106000D03*
X90741000Y-69106000D03*
X91391000Y-69106000D03*
D29*
X92342000Y-77169000D03*
X92342000Y-77819000D03*
X92342000Y-78469000D03*
X92342000Y-79119000D03*
X94932000Y-79119000D03*
X94932000Y-78469000D03*
X94932000Y-77819000D03*
X94932000Y-77169000D03*
D20*
X108844000Y-67024000D03*
X107944000Y-67024000D03*
X110749000Y-64992000D03*
X109849000Y-64992000D03*
D12*
X108140000Y-64161000D03*
X108140000Y-65061000D03*
X103314000Y-60235000D03*
X103314000Y-59335000D03*
D20*
X103891000Y-62071000D03*
X102991000Y-62071000D03*
X102933000Y-63722000D03*
X103833000Y-63722000D03*
X95636000Y-71469000D03*
X94736000Y-71469000D03*
X102171000Y-73628000D03*
X103071000Y-73628000D03*
X97911000Y-71469000D03*
X98811000Y-71469000D03*
X99181000Y-73628000D03*
X100081000Y-73628000D03*
X98927000Y-78581000D03*
X99827000Y-78581000D03*
X104134000Y-71469000D03*
X105034000Y-71469000D03*
X90937000Y-71088000D03*
X90037000Y-71088000D03*
D12*
X97218000Y-77750000D03*
X97218000Y-78650000D03*
D20*
X86989000Y-69564000D03*
X87889000Y-69564000D03*
X98927000Y-65500000D03*
X99827000Y-65500000D03*
X86989000Y-71977000D03*
X87889000Y-71977000D03*
X92000000Y-75533000D03*
X92900000Y-75533000D03*
X99816000Y-69310000D03*
X100716000Y-69310000D03*
X97207000Y-67532000D03*
X98107000Y-67532000D03*
X96895000Y-69310000D03*
X97795000Y-69310000D03*
X93085000Y-65500000D03*
X93985000Y-65500000D03*
D18*
X88116000Y-79978000D03*
X87016000Y-79978000D03*
D30*
X105854000Y-76380000D03*
X105854000Y-77480000D03*
D18*
X110384000Y-75279000D03*
X111484000Y-75279000D03*
D31*
X108267000Y-74886000D03*
X108267000Y-73386000D03*
D32*
X108509000Y-56102000D03*
X107009000Y-56102000D03*
D18*
X108479000Y-57880000D03*
X109579000Y-57880000D03*
X100054000Y-76295000D03*
X98954000Y-76295000D03*
X106277000Y-73628000D03*
X105177000Y-73628000D03*
X100859000Y-71469000D03*
X101959000Y-71469000D03*
X107971000Y-70961000D03*
X109071000Y-70961000D03*
X93112000Y-69310000D03*
X94212000Y-69310000D03*
X95271000Y-75533000D03*
X96371000Y-75533000D03*
X107971000Y-69183000D03*
X109071000Y-69183000D03*
D32*
X93293000Y-67405000D03*
X94793000Y-67405000D03*
X95325000Y-73628000D03*
X96825000Y-73628000D03*
D18*
X101197000Y-67532000D03*
X100097000Y-67532000D03*
X96033000Y-65500000D03*
X97133000Y-65500000D03*
X87016000Y-74136000D03*
X88116000Y-74136000D03*
X92350000Y-73628000D03*
X93450000Y-73628000D03*
D30*
X90360000Y-76464000D03*
X90360000Y-75364000D03*
D12*
X90360000Y-79031000D03*
X90360000Y-78131000D03*
D20*
X89656000Y-73120000D03*
X90556000Y-73120000D03*
D18*
X113008000Y-63341000D03*
X111908000Y-63341000D03*
D33*
X96369000Y-51338000D03*
X95269000Y-51338000D03*
X94169000Y-51338000D03*
X93069000Y-51338000D03*
X91969000Y-51338000D03*
X90869000Y-51338000D03*
X89769000Y-51338000D03*
X88669000Y-51338000D03*
D34*
X97259000Y-49288000D03*
D35*
X83939000Y-49038000D03*
D36*
X97584000Y-55918000D03*
D37*
X83659000Y-57013000D03*
D38*
X97584000Y-60998000D03*
D39*
X83684000Y-62938000D03*
D40*
X97359000Y-62503000D03*
D41*
X97334000Y-63163000D03*
D11*
X113093000Y-40640000D03*
X114043000Y-40640000D03*
X114993000Y-40640000D03*
X114993000Y-38290000D03*
X113093000Y-38290000D03*
D12*
X104965000Y-21913000D03*
X104965000Y-21013000D03*
D13*
X108999000Y-17145000D03*
X109649000Y-17145000D03*
X110299000Y-17145000D03*
X110949000Y-17145000D03*
X111599000Y-17145000D03*
D14*
X107199000Y-16820000D03*
X113399000Y-16820000D03*
D15*
X114399000Y-14470000D03*
D16*
X111149000Y-14470000D03*
X109449000Y-14470000D03*
D15*
X106199000Y-14470000D03*
D17*
X99869760Y-20634960D03*
X100520000Y-20634960D03*
X101170240Y-20634960D03*
X101170240Y-18735040D03*
X100520000Y-18735040D03*
X99869760Y-18735040D03*
X99869760Y-26603960D03*
X100520000Y-26603960D03*
X101170240Y-26603960D03*
X101170240Y-24704040D03*
X100520000Y-24704040D03*
X99869760Y-24704040D03*
D18*
X101367000Y-16891000D03*
X102467000Y-16891000D03*
X99970000Y-22606000D03*
X101070000Y-22606000D03*
D19*
X114170000Y-30185000D03*
X113220000Y-30185000D03*
X112270000Y-30185000D03*
X112270000Y-32385000D03*
X114170000Y-32385000D03*
D20*
X113924000Y-22733000D03*
X113024000Y-22733000D03*
D18*
X113051000Y-34544000D03*
X114151000Y-34544000D03*
X113051000Y-36322000D03*
X114151000Y-36322000D03*
X113178000Y-42799000D03*
X114278000Y-42799000D03*
D21*
X101968000Y-41332000D03*
D22*
X101919000Y-44069000D03*
X103949000Y-44069000D03*
D21*
X103900000Y-41332000D03*
D23*
X102934000Y-41332000D03*
D24*
X102934000Y-43435000D03*
D25*
X88031000Y-43114000D03*
X88031000Y-42164000D03*
X88031000Y-41214000D03*
X85831000Y-41214000D03*
X85831000Y-43114000D03*
X85831000Y-42164000D03*
D26*
X110360000Y-42173000D03*
X108460000Y-42173000D03*
X109410000Y-44323000D03*
D27*
X106448000Y-24679000D03*
X106448000Y-25329000D03*
X106448000Y-25979000D03*
X106448000Y-26629000D03*
X110848000Y-26629000D03*
X110848000Y-25979000D03*
X110848000Y-25329000D03*
X110848000Y-24679000D03*
D28*
X105757000Y-31700000D03*
X105107000Y-31700000D03*
X104457000Y-31700000D03*
X103807000Y-31700000D03*
X103807000Y-34290000D03*
X104457000Y-34290000D03*
X105107000Y-34290000D03*
X105757000Y-34290000D03*
X91391000Y-31496000D03*
X90741000Y-31496000D03*
X90091000Y-31496000D03*
X89441000Y-31496000D03*
X89441000Y-34086000D03*
X90091000Y-34086000D03*
X90741000Y-34086000D03*
X91391000Y-34086000D03*
D29*
X92342000Y-42149000D03*
X92342000Y-42799000D03*
X92342000Y-43449000D03*
X92342000Y-44099000D03*
X94932000Y-44099000D03*
X94932000Y-43449000D03*
X94932000Y-42799000D03*
X94932000Y-42149000D03*
D20*
X108844000Y-32004000D03*
X107944000Y-32004000D03*
X110749000Y-29972000D03*
X109849000Y-29972000D03*
D12*
X108140000Y-29141000D03*
X108140000Y-30041000D03*
X103314000Y-25215000D03*
X103314000Y-24315000D03*
D20*
X103891000Y-27051000D03*
X102991000Y-27051000D03*
X102933000Y-28702000D03*
X103833000Y-28702000D03*
X95636000Y-36449000D03*
X94736000Y-36449000D03*
X102171000Y-38608000D03*
X103071000Y-38608000D03*
X97911000Y-36449000D03*
X98811000Y-36449000D03*
X99181000Y-38608000D03*
X100081000Y-38608000D03*
X98927000Y-43561000D03*
X99827000Y-43561000D03*
X104134000Y-36449000D03*
X105034000Y-36449000D03*
X90937000Y-36068000D03*
X90037000Y-36068000D03*
D12*
X97218000Y-42730000D03*
X97218000Y-43630000D03*
D20*
X86989000Y-34544000D03*
X87889000Y-34544000D03*
X98927000Y-30480000D03*
X99827000Y-30480000D03*
X86989000Y-36957000D03*
X87889000Y-36957000D03*
X92000000Y-40513000D03*
X92900000Y-40513000D03*
X99816000Y-34290000D03*
X100716000Y-34290000D03*
X97207000Y-32512000D03*
X98107000Y-32512000D03*
X96895000Y-34290000D03*
X97795000Y-34290000D03*
X93085000Y-30480000D03*
X93985000Y-30480000D03*
D18*
X88116000Y-44958000D03*
X87016000Y-44958000D03*
D30*
X105854000Y-41360000D03*
X105854000Y-42460000D03*
D18*
X110384000Y-40259000D03*
X111484000Y-40259000D03*
D31*
X108267000Y-39866000D03*
X108267000Y-38366000D03*
D32*
X108509000Y-21082000D03*
X107009000Y-21082000D03*
D18*
X108479000Y-22860000D03*
X109579000Y-22860000D03*
X100054000Y-41275000D03*
X98954000Y-41275000D03*
X106277000Y-38608000D03*
X105177000Y-38608000D03*
X100859000Y-36449000D03*
X101959000Y-36449000D03*
X107971000Y-35941000D03*
X109071000Y-35941000D03*
X93112000Y-34290000D03*
X94212000Y-34290000D03*
X95271000Y-40513000D03*
X96371000Y-40513000D03*
X107971000Y-34163000D03*
X109071000Y-34163000D03*
D32*
X93293000Y-32385000D03*
X94793000Y-32385000D03*
X95325000Y-38608000D03*
X96825000Y-38608000D03*
D18*
X101197000Y-32512000D03*
X100097000Y-32512000D03*
X96033000Y-30480000D03*
X97133000Y-30480000D03*
X87016000Y-39116000D03*
X88116000Y-39116000D03*
X92350000Y-38608000D03*
X93450000Y-38608000D03*
D30*
X90360000Y-41444000D03*
X90360000Y-40344000D03*
D12*
X90360000Y-44011000D03*
X90360000Y-43111000D03*
D20*
X89656000Y-38100000D03*
X90556000Y-38100000D03*
D18*
X113008000Y-28321000D03*
X111908000Y-28321000D03*
D33*
X96369000Y-16318000D03*
X95269000Y-16318000D03*
X94169000Y-16318000D03*
X93069000Y-16318000D03*
X91969000Y-16318000D03*
X90869000Y-16318000D03*
X89769000Y-16318000D03*
X88669000Y-16318000D03*
D34*
X97259000Y-14268000D03*
D35*
X83939000Y-14018000D03*
D36*
X97584000Y-20898000D03*
D37*
X83659000Y-21993000D03*
D38*
X97584000Y-25978000D03*
D39*
X83684000Y-27918000D03*
D40*
X97359000Y-27483000D03*
D41*
X97334000Y-28143000D03*
D11*
X78073000Y-110680000D03*
X79023000Y-110680000D03*
X79973000Y-110680000D03*
X79973000Y-108330000D03*
X78073000Y-108330000D03*
D12*
X69945000Y-91953000D03*
X69945000Y-91053000D03*
D13*
X73979000Y-87185000D03*
X74629000Y-87185000D03*
X75279000Y-87185000D03*
X75929000Y-87185000D03*
X76579000Y-87185000D03*
D14*
X72179000Y-86860000D03*
X78379000Y-86860000D03*
D15*
X79379000Y-84510000D03*
D16*
X76129000Y-84510000D03*
X74429000Y-84510000D03*
D15*
X71179000Y-84510000D03*
D17*
X64849760Y-90674960D03*
X65500000Y-90674960D03*
X66150240Y-90674960D03*
X66150240Y-88775040D03*
X65500000Y-88775040D03*
X64849760Y-88775040D03*
X64849760Y-96643960D03*
X65500000Y-96643960D03*
X66150240Y-96643960D03*
X66150240Y-94744040D03*
X65500000Y-94744040D03*
X64849760Y-94744040D03*
D18*
X66347000Y-86931000D03*
X67447000Y-86931000D03*
X64950000Y-92646000D03*
X66050000Y-92646000D03*
D19*
X79150000Y-100225000D03*
X78200000Y-100225000D03*
X77250000Y-100225000D03*
X77250000Y-102425000D03*
X79150000Y-102425000D03*
D20*
X78904000Y-92773000D03*
X78004000Y-92773000D03*
D18*
X78031000Y-104584000D03*
X79131000Y-104584000D03*
X78031000Y-106362000D03*
X79131000Y-106362000D03*
X78158000Y-112839000D03*
X79258000Y-112839000D03*
D21*
X66948000Y-111372000D03*
D22*
X66899000Y-114109000D03*
X68929000Y-114109000D03*
D21*
X68880000Y-111372000D03*
D23*
X67914000Y-111372000D03*
D24*
X67914000Y-113475000D03*
D25*
X53011000Y-113154000D03*
X53011000Y-112204000D03*
X53011000Y-111254000D03*
X50811000Y-111254000D03*
X50811000Y-113154000D03*
X50811000Y-112204000D03*
D26*
X75340000Y-112213000D03*
X73440000Y-112213000D03*
X74390000Y-114363000D03*
D27*
X71428000Y-94719000D03*
X71428000Y-95369000D03*
X71428000Y-96019000D03*
X71428000Y-96669000D03*
X75828000Y-96669000D03*
X75828000Y-96019000D03*
X75828000Y-95369000D03*
X75828000Y-94719000D03*
D28*
X70737000Y-101740000D03*
X70087000Y-101740000D03*
X69437000Y-101740000D03*
X68787000Y-101740000D03*
X68787000Y-104330000D03*
X69437000Y-104330000D03*
X70087000Y-104330000D03*
X70737000Y-104330000D03*
X56371000Y-101536000D03*
X55721000Y-101536000D03*
X55071000Y-101536000D03*
X54421000Y-101536000D03*
X54421000Y-104126000D03*
X55071000Y-104126000D03*
X55721000Y-104126000D03*
X56371000Y-104126000D03*
D29*
X57322000Y-112189000D03*
X57322000Y-112839000D03*
X57322000Y-113489000D03*
X57322000Y-114139000D03*
X59912000Y-114139000D03*
X59912000Y-113489000D03*
X59912000Y-112839000D03*
X59912000Y-112189000D03*
D20*
X73824000Y-102044000D03*
X72924000Y-102044000D03*
X75729000Y-100012000D03*
X74829000Y-100012000D03*
D12*
X73120000Y-99181000D03*
X73120000Y-100081000D03*
X68294000Y-95255000D03*
X68294000Y-94355000D03*
D20*
X68871000Y-97091000D03*
X67971000Y-97091000D03*
X67913000Y-98742000D03*
X68813000Y-98742000D03*
X60616000Y-106489000D03*
X59716000Y-106489000D03*
X67151000Y-108648000D03*
X68051000Y-108648000D03*
X62891000Y-106489000D03*
X63791000Y-106489000D03*
X64161000Y-108648000D03*
X65061000Y-108648000D03*
X63907000Y-113601000D03*
X64807000Y-113601000D03*
X69114000Y-106489000D03*
X70014000Y-106489000D03*
X55917000Y-106108000D03*
X55017000Y-106108000D03*
D12*
X62198000Y-112770000D03*
X62198000Y-113670000D03*
D20*
X51969000Y-104584000D03*
X52869000Y-104584000D03*
X63907000Y-100520000D03*
X64807000Y-100520000D03*
X51969000Y-106997000D03*
X52869000Y-106997000D03*
X56980000Y-110553000D03*
X57880000Y-110553000D03*
X64796000Y-104330000D03*
X65696000Y-104330000D03*
X62187000Y-102552000D03*
X63087000Y-102552000D03*
X61875000Y-104330000D03*
X62775000Y-104330000D03*
X58065000Y-100520000D03*
X58965000Y-100520000D03*
D18*
X53096000Y-114998000D03*
X51996000Y-114998000D03*
D30*
X70834000Y-111400000D03*
X70834000Y-112500000D03*
D18*
X75364000Y-110299000D03*
X76464000Y-110299000D03*
D31*
X73247000Y-109906000D03*
X73247000Y-108406000D03*
D32*
X73489000Y-91122000D03*
X71989000Y-91122000D03*
D18*
X73459000Y-92900000D03*
X74559000Y-92900000D03*
X65034000Y-111315000D03*
X63934000Y-111315000D03*
X71257000Y-108648000D03*
X70157000Y-108648000D03*
X65839000Y-106489000D03*
X66939000Y-106489000D03*
X72951000Y-105981000D03*
X74051000Y-105981000D03*
X58092000Y-104330000D03*
X59192000Y-104330000D03*
X60251000Y-110553000D03*
X61351000Y-110553000D03*
X72951000Y-104203000D03*
X74051000Y-104203000D03*
D32*
X58273000Y-102425000D03*
X59773000Y-102425000D03*
X60305000Y-108648000D03*
X61805000Y-108648000D03*
D18*
X66177000Y-102552000D03*
X65077000Y-102552000D03*
X61013000Y-100520000D03*
X62113000Y-100520000D03*
X51996000Y-109156000D03*
X53096000Y-109156000D03*
X57330000Y-108648000D03*
X58430000Y-108648000D03*
D30*
X55340000Y-111484000D03*
X55340000Y-110384000D03*
D12*
X55340000Y-114051000D03*
X55340000Y-113151000D03*
D20*
X54636000Y-108140000D03*
X55536000Y-108140000D03*
D18*
X77988000Y-98361000D03*
X76888000Y-98361000D03*
D33*
X61349000Y-86358000D03*
X60249000Y-86358000D03*
X59149000Y-86358000D03*
X58049000Y-86358000D03*
X56949000Y-86358000D03*
X55849000Y-86358000D03*
X54749000Y-86358000D03*
X53649000Y-86358000D03*
D34*
X62239000Y-84308000D03*
D35*
X48919000Y-84058000D03*
D36*
X62564000Y-90938000D03*
D37*
X48639000Y-92033000D03*
D38*
X62564000Y-96018000D03*
D39*
X48664000Y-97958000D03*
D40*
X62339000Y-97523000D03*
D41*
X62314000Y-98183000D03*
D11*
X78073000Y-75660000D03*
X79023000Y-75660000D03*
X79973000Y-75660000D03*
X79973000Y-73310000D03*
X78073000Y-73310000D03*
D12*
X69945000Y-56933000D03*
X69945000Y-56033000D03*
D13*
X73979000Y-52165000D03*
X74629000Y-52165000D03*
X75279000Y-52165000D03*
X75929000Y-52165000D03*
X76579000Y-52165000D03*
D14*
X72179000Y-51840000D03*
X78379000Y-51840000D03*
D15*
X79379000Y-49490000D03*
D16*
X76129000Y-49490000D03*
X74429000Y-49490000D03*
D15*
X71179000Y-49490000D03*
D17*
X64849760Y-55654960D03*
X65500000Y-55654960D03*
X66150240Y-55654960D03*
X66150240Y-53755040D03*
X65500000Y-53755040D03*
X64849760Y-53755040D03*
X64849760Y-61623960D03*
X65500000Y-61623960D03*
X66150240Y-61623960D03*
X66150240Y-59724040D03*
X65500000Y-59724040D03*
X64849760Y-59724040D03*
D18*
X66347000Y-51911000D03*
X67447000Y-51911000D03*
X64950000Y-57626000D03*
X66050000Y-57626000D03*
D19*
X79150000Y-65205000D03*
X78200000Y-65205000D03*
X77250000Y-65205000D03*
X77250000Y-67405000D03*
X79150000Y-67405000D03*
D20*
X78904000Y-57753000D03*
X78004000Y-57753000D03*
D18*
X78031000Y-69564000D03*
X79131000Y-69564000D03*
X78031000Y-71342000D03*
X79131000Y-71342000D03*
X78158000Y-77819000D03*
X79258000Y-77819000D03*
D21*
X66948000Y-76352000D03*
D22*
X66899000Y-79089000D03*
X68929000Y-79089000D03*
D21*
X68880000Y-76352000D03*
D23*
X67914000Y-76352000D03*
D24*
X67914000Y-78455000D03*
D25*
X53011000Y-78134000D03*
X53011000Y-77184000D03*
X53011000Y-76234000D03*
X50811000Y-76234000D03*
X50811000Y-78134000D03*
X50811000Y-77184000D03*
D26*
X75340000Y-77193000D03*
X73440000Y-77193000D03*
X74390000Y-79343000D03*
D27*
X71428000Y-59699000D03*
X71428000Y-60349000D03*
X71428000Y-60999000D03*
X71428000Y-61649000D03*
X75828000Y-61649000D03*
X75828000Y-60999000D03*
X75828000Y-60349000D03*
X75828000Y-59699000D03*
D28*
X70737000Y-66720000D03*
X70087000Y-66720000D03*
X69437000Y-66720000D03*
X68787000Y-66720000D03*
X68787000Y-69310000D03*
X69437000Y-69310000D03*
X70087000Y-69310000D03*
X70737000Y-69310000D03*
X56371000Y-66516000D03*
X55721000Y-66516000D03*
X55071000Y-66516000D03*
X54421000Y-66516000D03*
X54421000Y-69106000D03*
X55071000Y-69106000D03*
X55721000Y-69106000D03*
X56371000Y-69106000D03*
D29*
X57322000Y-77169000D03*
X57322000Y-77819000D03*
X57322000Y-78469000D03*
X57322000Y-79119000D03*
X59912000Y-79119000D03*
X59912000Y-78469000D03*
X59912000Y-77819000D03*
X59912000Y-77169000D03*
D20*
X73824000Y-67024000D03*
X72924000Y-67024000D03*
X75729000Y-64992000D03*
X74829000Y-64992000D03*
D12*
X73120000Y-64161000D03*
X73120000Y-65061000D03*
X68294000Y-60235000D03*
X68294000Y-59335000D03*
D20*
X68871000Y-62071000D03*
X67971000Y-62071000D03*
X67913000Y-63722000D03*
X68813000Y-63722000D03*
X60616000Y-71469000D03*
X59716000Y-71469000D03*
X67151000Y-73628000D03*
X68051000Y-73628000D03*
X62891000Y-71469000D03*
X63791000Y-71469000D03*
X64161000Y-73628000D03*
X65061000Y-73628000D03*
X63907000Y-78581000D03*
X64807000Y-78581000D03*
X69114000Y-71469000D03*
X70014000Y-71469000D03*
X55917000Y-71088000D03*
X55017000Y-71088000D03*
D12*
X62198000Y-77750000D03*
X62198000Y-78650000D03*
D20*
X51969000Y-69564000D03*
X52869000Y-69564000D03*
X63907000Y-65500000D03*
X64807000Y-65500000D03*
X51969000Y-71977000D03*
X52869000Y-71977000D03*
X56980000Y-75533000D03*
X57880000Y-75533000D03*
X64796000Y-69310000D03*
X65696000Y-69310000D03*
X62187000Y-67532000D03*
X63087000Y-67532000D03*
X61875000Y-69310000D03*
X62775000Y-69310000D03*
X58065000Y-65500000D03*
X58965000Y-65500000D03*
D18*
X53096000Y-79978000D03*
X51996000Y-79978000D03*
D30*
X70834000Y-76380000D03*
X70834000Y-77480000D03*
D18*
X75364000Y-75279000D03*
X76464000Y-75279000D03*
D31*
X73247000Y-74886000D03*
X73247000Y-73386000D03*
D32*
X73489000Y-56102000D03*
X71989000Y-56102000D03*
D18*
X73459000Y-57880000D03*
X74559000Y-57880000D03*
X65034000Y-76295000D03*
X63934000Y-76295000D03*
X71257000Y-73628000D03*
X70157000Y-73628000D03*
X65839000Y-71469000D03*
X66939000Y-71469000D03*
X72951000Y-70961000D03*
X74051000Y-70961000D03*
X58092000Y-69310000D03*
X59192000Y-69310000D03*
X60251000Y-75533000D03*
X61351000Y-75533000D03*
X72951000Y-69183000D03*
X74051000Y-69183000D03*
D32*
X58273000Y-67405000D03*
X59773000Y-67405000D03*
X60305000Y-73628000D03*
X61805000Y-73628000D03*
D18*
X66177000Y-67532000D03*
X65077000Y-67532000D03*
X61013000Y-65500000D03*
X62113000Y-65500000D03*
X51996000Y-74136000D03*
X53096000Y-74136000D03*
X57330000Y-73628000D03*
X58430000Y-73628000D03*
D30*
X55340000Y-76464000D03*
X55340000Y-75364000D03*
D12*
X55340000Y-79031000D03*
X55340000Y-78131000D03*
D20*
X54636000Y-73120000D03*
X55536000Y-73120000D03*
D18*
X77988000Y-63341000D03*
X76888000Y-63341000D03*
D33*
X61349000Y-51338000D03*
X60249000Y-51338000D03*
X59149000Y-51338000D03*
X58049000Y-51338000D03*
X56949000Y-51338000D03*
X55849000Y-51338000D03*
X54749000Y-51338000D03*
X53649000Y-51338000D03*
D34*
X62239000Y-49288000D03*
D35*
X48919000Y-49038000D03*
D36*
X62564000Y-55918000D03*
D37*
X48639000Y-57013000D03*
D38*
X62564000Y-60998000D03*
D39*
X48664000Y-62938000D03*
D40*
X62339000Y-62503000D03*
D41*
X62314000Y-63163000D03*
D11*
X78073000Y-40640000D03*
X79023000Y-40640000D03*
X79973000Y-40640000D03*
X79973000Y-38290000D03*
X78073000Y-38290000D03*
D12*
X69945000Y-21913000D03*
X69945000Y-21013000D03*
D13*
X73979000Y-17145000D03*
X74629000Y-17145000D03*
X75279000Y-17145000D03*
X75929000Y-17145000D03*
X76579000Y-17145000D03*
D14*
X72179000Y-16820000D03*
X78379000Y-16820000D03*
D15*
X79379000Y-14470000D03*
D16*
X76129000Y-14470000D03*
X74429000Y-14470000D03*
D15*
X71179000Y-14470000D03*
D17*
X64849760Y-20634960D03*
X65500000Y-20634960D03*
X66150240Y-20634960D03*
X66150240Y-18735040D03*
X65500000Y-18735040D03*
X64849760Y-18735040D03*
X64849760Y-26603960D03*
X65500000Y-26603960D03*
X66150240Y-26603960D03*
X66150240Y-24704040D03*
X65500000Y-24704040D03*
X64849760Y-24704040D03*
D18*
X66347000Y-16891000D03*
X67447000Y-16891000D03*
X64950000Y-22606000D03*
X66050000Y-22606000D03*
D19*
X79150000Y-30185000D03*
X78200000Y-30185000D03*
X77250000Y-30185000D03*
X77250000Y-32385000D03*
X79150000Y-32385000D03*
D20*
X78904000Y-22733000D03*
X78004000Y-22733000D03*
D18*
X78031000Y-34544000D03*
X79131000Y-34544000D03*
X78031000Y-36322000D03*
X79131000Y-36322000D03*
X78158000Y-42799000D03*
X79258000Y-42799000D03*
D21*
X66948000Y-41332000D03*
D22*
X66899000Y-44069000D03*
X68929000Y-44069000D03*
D21*
X68880000Y-41332000D03*
D23*
X67914000Y-41332000D03*
D24*
X67914000Y-43435000D03*
D25*
X53011000Y-43114000D03*
X53011000Y-42164000D03*
X53011000Y-41214000D03*
X50811000Y-41214000D03*
X50811000Y-43114000D03*
X50811000Y-42164000D03*
D26*
X75340000Y-42173000D03*
X73440000Y-42173000D03*
X74390000Y-44323000D03*
D27*
X71428000Y-24679000D03*
X71428000Y-25329000D03*
X71428000Y-25979000D03*
X71428000Y-26629000D03*
X75828000Y-26629000D03*
X75828000Y-25979000D03*
X75828000Y-25329000D03*
X75828000Y-24679000D03*
D28*
X70737000Y-31700000D03*
X70087000Y-31700000D03*
X69437000Y-31700000D03*
X68787000Y-31700000D03*
X68787000Y-34290000D03*
X69437000Y-34290000D03*
X70087000Y-34290000D03*
X70737000Y-34290000D03*
X56371000Y-31496000D03*
X55721000Y-31496000D03*
X55071000Y-31496000D03*
X54421000Y-31496000D03*
X54421000Y-34086000D03*
X55071000Y-34086000D03*
X55721000Y-34086000D03*
X56371000Y-34086000D03*
D29*
X57322000Y-42149000D03*
X57322000Y-42799000D03*
X57322000Y-43449000D03*
X57322000Y-44099000D03*
X59912000Y-44099000D03*
X59912000Y-43449000D03*
X59912000Y-42799000D03*
X59912000Y-42149000D03*
D20*
X73824000Y-32004000D03*
X72924000Y-32004000D03*
X75729000Y-29972000D03*
X74829000Y-29972000D03*
D12*
X73120000Y-29141000D03*
X73120000Y-30041000D03*
X68294000Y-25215000D03*
X68294000Y-24315000D03*
D20*
X68871000Y-27051000D03*
X67971000Y-27051000D03*
X67913000Y-28702000D03*
X68813000Y-28702000D03*
X60616000Y-36449000D03*
X59716000Y-36449000D03*
X67151000Y-38608000D03*
X68051000Y-38608000D03*
X62891000Y-36449000D03*
X63791000Y-36449000D03*
X64161000Y-38608000D03*
X65061000Y-38608000D03*
X63907000Y-43561000D03*
X64807000Y-43561000D03*
X69114000Y-36449000D03*
X70014000Y-36449000D03*
X55917000Y-36068000D03*
X55017000Y-36068000D03*
D12*
X62198000Y-42730000D03*
X62198000Y-43630000D03*
D20*
X51969000Y-34544000D03*
X52869000Y-34544000D03*
X63907000Y-30480000D03*
X64807000Y-30480000D03*
X51969000Y-36957000D03*
X52869000Y-36957000D03*
X56980000Y-40513000D03*
X57880000Y-40513000D03*
X64796000Y-34290000D03*
X65696000Y-34290000D03*
X62187000Y-32512000D03*
X63087000Y-32512000D03*
X61875000Y-34290000D03*
X62775000Y-34290000D03*
X58065000Y-30480000D03*
X58965000Y-30480000D03*
D18*
X53096000Y-44958000D03*
X51996000Y-44958000D03*
D30*
X70834000Y-41360000D03*
X70834000Y-42460000D03*
D18*
X75364000Y-40259000D03*
X76464000Y-40259000D03*
D31*
X73247000Y-39866000D03*
X73247000Y-38366000D03*
D32*
X73489000Y-21082000D03*
X71989000Y-21082000D03*
D18*
X73459000Y-22860000D03*
X74559000Y-22860000D03*
X65034000Y-41275000D03*
X63934000Y-41275000D03*
X71257000Y-38608000D03*
X70157000Y-38608000D03*
X65839000Y-36449000D03*
X66939000Y-36449000D03*
X72951000Y-35941000D03*
X74051000Y-35941000D03*
X58092000Y-34290000D03*
X59192000Y-34290000D03*
X60251000Y-40513000D03*
X61351000Y-40513000D03*
X72951000Y-34163000D03*
X74051000Y-34163000D03*
D32*
X58273000Y-32385000D03*
X59773000Y-32385000D03*
X60305000Y-38608000D03*
X61805000Y-38608000D03*
D18*
X66177000Y-32512000D03*
X65077000Y-32512000D03*
X61013000Y-30480000D03*
X62113000Y-30480000D03*
X51996000Y-39116000D03*
X53096000Y-39116000D03*
X57330000Y-38608000D03*
X58430000Y-38608000D03*
D30*
X55340000Y-41444000D03*
X55340000Y-40344000D03*
D12*
X55340000Y-44011000D03*
X55340000Y-43111000D03*
D20*
X54636000Y-38100000D03*
X55536000Y-38100000D03*
D18*
X77988000Y-28321000D03*
X76888000Y-28321000D03*
D33*
X61349000Y-16318000D03*
X60249000Y-16318000D03*
X59149000Y-16318000D03*
X58049000Y-16318000D03*
X56949000Y-16318000D03*
X55849000Y-16318000D03*
X54749000Y-16318000D03*
X53649000Y-16318000D03*
D34*
X62239000Y-14268000D03*
D35*
X48919000Y-14018000D03*
D36*
X62564000Y-20898000D03*
D37*
X48639000Y-21993000D03*
D38*
X62564000Y-25978000D03*
D39*
X48664000Y-27918000D03*
D40*
X62339000Y-27483000D03*
D41*
X62314000Y-28143000D03*
D11*
X43053000Y-110680000D03*
X44003000Y-110680000D03*
X44953000Y-110680000D03*
X44953000Y-108330000D03*
X43053000Y-108330000D03*
D12*
X34925000Y-91953000D03*
X34925000Y-91053000D03*
D13*
X38959000Y-87185000D03*
X39609000Y-87185000D03*
X40259000Y-87185000D03*
X40909000Y-87185000D03*
X41559000Y-87185000D03*
D14*
X37159000Y-86860000D03*
X43359000Y-86860000D03*
D15*
X44359000Y-84510000D03*
D16*
X41109000Y-84510000D03*
X39409000Y-84510000D03*
D15*
X36159000Y-84510000D03*
D17*
X29829760Y-90674960D03*
X30480000Y-90674960D03*
X31130240Y-90674960D03*
X31130240Y-88775040D03*
X30480000Y-88775040D03*
X29829760Y-88775040D03*
X29829760Y-96643960D03*
X30480000Y-96643960D03*
X31130240Y-96643960D03*
X31130240Y-94744040D03*
X30480000Y-94744040D03*
X29829760Y-94744040D03*
D18*
X31327000Y-86931000D03*
X32427000Y-86931000D03*
X29930000Y-92646000D03*
X31030000Y-92646000D03*
D19*
X44130000Y-100225000D03*
X43180000Y-100225000D03*
X42230000Y-100225000D03*
X42230000Y-102425000D03*
X44130000Y-102425000D03*
D20*
X43884000Y-92773000D03*
X42984000Y-92773000D03*
D18*
X43011000Y-104584000D03*
X44111000Y-104584000D03*
X43011000Y-106362000D03*
X44111000Y-106362000D03*
X43138000Y-112839000D03*
X44238000Y-112839000D03*
D21*
X31928000Y-111372000D03*
D22*
X31879000Y-114109000D03*
X33909000Y-114109000D03*
D21*
X33860000Y-111372000D03*
D23*
X32894000Y-111372000D03*
D24*
X32894000Y-113475000D03*
D25*
X17991000Y-113154000D03*
X17991000Y-112204000D03*
X17991000Y-111254000D03*
X15791000Y-111254000D03*
X15791000Y-113154000D03*
X15791000Y-112204000D03*
D26*
X40320000Y-112213000D03*
X38420000Y-112213000D03*
X39370000Y-114363000D03*
D27*
X36408000Y-94719000D03*
X36408000Y-95369000D03*
X36408000Y-96019000D03*
X36408000Y-96669000D03*
X40808000Y-96669000D03*
X40808000Y-96019000D03*
X40808000Y-95369000D03*
X40808000Y-94719000D03*
D28*
X35717000Y-101740000D03*
X35067000Y-101740000D03*
X34417000Y-101740000D03*
X33767000Y-101740000D03*
X33767000Y-104330000D03*
X34417000Y-104330000D03*
X35067000Y-104330000D03*
X35717000Y-104330000D03*
X21351000Y-101536000D03*
X20701000Y-101536000D03*
X20051000Y-101536000D03*
X19401000Y-101536000D03*
X19401000Y-104126000D03*
X20051000Y-104126000D03*
X20701000Y-104126000D03*
X21351000Y-104126000D03*
D29*
X22302000Y-112189000D03*
X22302000Y-112839000D03*
X22302000Y-113489000D03*
X22302000Y-114139000D03*
X24892000Y-114139000D03*
X24892000Y-113489000D03*
X24892000Y-112839000D03*
X24892000Y-112189000D03*
D20*
X38804000Y-102044000D03*
X37904000Y-102044000D03*
X40709000Y-100012000D03*
X39809000Y-100012000D03*
D12*
X38100000Y-99181000D03*
X38100000Y-100081000D03*
X33274000Y-95255000D03*
X33274000Y-94355000D03*
D20*
X33851000Y-97091000D03*
X32951000Y-97091000D03*
X32893000Y-98742000D03*
X33793000Y-98742000D03*
X25596000Y-106489000D03*
X24696000Y-106489000D03*
X32131000Y-108648000D03*
X33031000Y-108648000D03*
X27871000Y-106489000D03*
X28771000Y-106489000D03*
X29141000Y-108648000D03*
X30041000Y-108648000D03*
X28887000Y-113601000D03*
X29787000Y-113601000D03*
X34094000Y-106489000D03*
X34994000Y-106489000D03*
X20897000Y-106108000D03*
X19997000Y-106108000D03*
D12*
X27178000Y-112770000D03*
X27178000Y-113670000D03*
D20*
X16949000Y-104584000D03*
X17849000Y-104584000D03*
X28887000Y-100520000D03*
X29787000Y-100520000D03*
X16949000Y-106997000D03*
X17849000Y-106997000D03*
X21960000Y-110553000D03*
X22860000Y-110553000D03*
X29776000Y-104330000D03*
X30676000Y-104330000D03*
X27167000Y-102552000D03*
X28067000Y-102552000D03*
X26855000Y-104330000D03*
X27755000Y-104330000D03*
X23045000Y-100520000D03*
X23945000Y-100520000D03*
D18*
X18076000Y-114998000D03*
X16976000Y-114998000D03*
D30*
X35814000Y-111400000D03*
X35814000Y-112500000D03*
D18*
X40344000Y-110299000D03*
X41444000Y-110299000D03*
D31*
X38227000Y-109906000D03*
X38227000Y-108406000D03*
D32*
X38469000Y-91122000D03*
X36969000Y-91122000D03*
D18*
X38439000Y-92900000D03*
X39539000Y-92900000D03*
X30014000Y-111315000D03*
X28914000Y-111315000D03*
X36237000Y-108648000D03*
X35137000Y-108648000D03*
X30819000Y-106489000D03*
X31919000Y-106489000D03*
X37931000Y-105981000D03*
X39031000Y-105981000D03*
X23072000Y-104330000D03*
X24172000Y-104330000D03*
X25231000Y-110553000D03*
X26331000Y-110553000D03*
X37931000Y-104203000D03*
X39031000Y-104203000D03*
D32*
X23253000Y-102425000D03*
X24753000Y-102425000D03*
X25285000Y-108648000D03*
X26785000Y-108648000D03*
D18*
X31157000Y-102552000D03*
X30057000Y-102552000D03*
X25993000Y-100520000D03*
X27093000Y-100520000D03*
X16976000Y-109156000D03*
X18076000Y-109156000D03*
X22310000Y-108648000D03*
X23410000Y-108648000D03*
D30*
X20320000Y-111484000D03*
X20320000Y-110384000D03*
D12*
X20320000Y-114051000D03*
X20320000Y-113151000D03*
D20*
X19616000Y-108140000D03*
X20516000Y-108140000D03*
D18*
X42968000Y-98361000D03*
X41868000Y-98361000D03*
D33*
X26329000Y-86358000D03*
X25229000Y-86358000D03*
X24129000Y-86358000D03*
X23029000Y-86358000D03*
X21929000Y-86358000D03*
X20829000Y-86358000D03*
X19729000Y-86358000D03*
X18629000Y-86358000D03*
D34*
X27219000Y-84308000D03*
D35*
X13899000Y-84058000D03*
D36*
X27544000Y-90938000D03*
D37*
X13619000Y-92033000D03*
D38*
X27544000Y-96018000D03*
D39*
X13644000Y-97958000D03*
D40*
X27319000Y-97523000D03*
D41*
X27294000Y-98183000D03*
D11*
X43053000Y-75660000D03*
X44003000Y-75660000D03*
X44953000Y-75660000D03*
X44953000Y-73310000D03*
X43053000Y-73310000D03*
D12*
X34925000Y-56933000D03*
X34925000Y-56033000D03*
D13*
X38959000Y-52165000D03*
X39609000Y-52165000D03*
X40259000Y-52165000D03*
X40909000Y-52165000D03*
X41559000Y-52165000D03*
D14*
X37159000Y-51840000D03*
X43359000Y-51840000D03*
D15*
X44359000Y-49490000D03*
D16*
X41109000Y-49490000D03*
X39409000Y-49490000D03*
D15*
X36159000Y-49490000D03*
D17*
X29829760Y-55654960D03*
X30480000Y-55654960D03*
X31130240Y-55654960D03*
X31130240Y-53755040D03*
X30480000Y-53755040D03*
X29829760Y-53755040D03*
X29829760Y-61623960D03*
X30480000Y-61623960D03*
X31130240Y-61623960D03*
X31130240Y-59724040D03*
X30480000Y-59724040D03*
X29829760Y-59724040D03*
D18*
X31327000Y-51911000D03*
X32427000Y-51911000D03*
X29930000Y-57626000D03*
X31030000Y-57626000D03*
D19*
X44130000Y-65205000D03*
X43180000Y-65205000D03*
X42230000Y-65205000D03*
X42230000Y-67405000D03*
X44130000Y-67405000D03*
D20*
X43884000Y-57753000D03*
X42984000Y-57753000D03*
D18*
X43011000Y-69564000D03*
X44111000Y-69564000D03*
X43011000Y-71342000D03*
X44111000Y-71342000D03*
X43138000Y-77819000D03*
X44238000Y-77819000D03*
D21*
X31928000Y-76352000D03*
D22*
X31879000Y-79089000D03*
X33909000Y-79089000D03*
D21*
X33860000Y-76352000D03*
D23*
X32894000Y-76352000D03*
D24*
X32894000Y-78455000D03*
D25*
X17991000Y-78134000D03*
X17991000Y-77184000D03*
X17991000Y-76234000D03*
X15791000Y-76234000D03*
X15791000Y-78134000D03*
X15791000Y-77184000D03*
D26*
X40320000Y-77193000D03*
X38420000Y-77193000D03*
X39370000Y-79343000D03*
D27*
X36408000Y-59699000D03*
X36408000Y-60349000D03*
X36408000Y-60999000D03*
X36408000Y-61649000D03*
X40808000Y-61649000D03*
X40808000Y-60999000D03*
X40808000Y-60349000D03*
X40808000Y-59699000D03*
D28*
X35717000Y-66720000D03*
X35067000Y-66720000D03*
X34417000Y-66720000D03*
X33767000Y-66720000D03*
X33767000Y-69310000D03*
X34417000Y-69310000D03*
X35067000Y-69310000D03*
X35717000Y-69310000D03*
X21351000Y-66516000D03*
X20701000Y-66516000D03*
X20051000Y-66516000D03*
X19401000Y-66516000D03*
X19401000Y-69106000D03*
X20051000Y-69106000D03*
X20701000Y-69106000D03*
X21351000Y-69106000D03*
D29*
X22302000Y-77169000D03*
X22302000Y-77819000D03*
X22302000Y-78469000D03*
X22302000Y-79119000D03*
X24892000Y-79119000D03*
X24892000Y-78469000D03*
X24892000Y-77819000D03*
X24892000Y-77169000D03*
D20*
X38804000Y-67024000D03*
X37904000Y-67024000D03*
X40709000Y-64992000D03*
X39809000Y-64992000D03*
D12*
X38100000Y-64161000D03*
X38100000Y-65061000D03*
X33274000Y-60235000D03*
X33274000Y-59335000D03*
D20*
X33851000Y-62071000D03*
X32951000Y-62071000D03*
X32893000Y-63722000D03*
X33793000Y-63722000D03*
X25596000Y-71469000D03*
X24696000Y-71469000D03*
X32131000Y-73628000D03*
X33031000Y-73628000D03*
X27871000Y-71469000D03*
X28771000Y-71469000D03*
X29141000Y-73628000D03*
X30041000Y-73628000D03*
X28887000Y-78581000D03*
X29787000Y-78581000D03*
X34094000Y-71469000D03*
X34994000Y-71469000D03*
X20897000Y-71088000D03*
X19997000Y-71088000D03*
D12*
X27178000Y-77750000D03*
X27178000Y-78650000D03*
D20*
X16949000Y-69564000D03*
X17849000Y-69564000D03*
X28887000Y-65500000D03*
X29787000Y-65500000D03*
X16949000Y-71977000D03*
X17849000Y-71977000D03*
X21960000Y-75533000D03*
X22860000Y-75533000D03*
X29776000Y-69310000D03*
X30676000Y-69310000D03*
X27167000Y-67532000D03*
X28067000Y-67532000D03*
X26855000Y-69310000D03*
X27755000Y-69310000D03*
X23045000Y-65500000D03*
X23945000Y-65500000D03*
D18*
X18076000Y-79978000D03*
X16976000Y-79978000D03*
D30*
X35814000Y-76380000D03*
X35814000Y-77480000D03*
D18*
X40344000Y-75279000D03*
X41444000Y-75279000D03*
D31*
X38227000Y-74886000D03*
X38227000Y-73386000D03*
D32*
X38469000Y-56102000D03*
X36969000Y-56102000D03*
D18*
X38439000Y-57880000D03*
X39539000Y-57880000D03*
X30014000Y-76295000D03*
X28914000Y-76295000D03*
X36237000Y-73628000D03*
X35137000Y-73628000D03*
X30819000Y-71469000D03*
X31919000Y-71469000D03*
X37931000Y-70961000D03*
X39031000Y-70961000D03*
X23072000Y-69310000D03*
X24172000Y-69310000D03*
X25231000Y-75533000D03*
X26331000Y-75533000D03*
X37931000Y-69183000D03*
X39031000Y-69183000D03*
D32*
X23253000Y-67405000D03*
X24753000Y-67405000D03*
X25285000Y-73628000D03*
X26785000Y-73628000D03*
D18*
X31157000Y-67532000D03*
X30057000Y-67532000D03*
X25993000Y-65500000D03*
X27093000Y-65500000D03*
X16976000Y-74136000D03*
X18076000Y-74136000D03*
X22310000Y-73628000D03*
X23410000Y-73628000D03*
D30*
X20320000Y-76464000D03*
X20320000Y-75364000D03*
D12*
X20320000Y-79031000D03*
X20320000Y-78131000D03*
D20*
X19616000Y-73120000D03*
X20516000Y-73120000D03*
D18*
X42968000Y-63341000D03*
X41868000Y-63341000D03*
D33*
X26329000Y-51338000D03*
X25229000Y-51338000D03*
X24129000Y-51338000D03*
X23029000Y-51338000D03*
X21929000Y-51338000D03*
X20829000Y-51338000D03*
X19729000Y-51338000D03*
X18629000Y-51338000D03*
D34*
X27219000Y-49288000D03*
D35*
X13899000Y-49038000D03*
D36*
X27544000Y-55918000D03*
D37*
X13619000Y-57013000D03*
D38*
X27544000Y-60998000D03*
D39*
X13644000Y-62938000D03*
D40*
X27319000Y-62503000D03*
D41*
X27294000Y-63163000D03*
D33*
X26329000Y-16318000D03*
X25229000Y-16318000D03*
X24129000Y-16318000D03*
X23029000Y-16318000D03*
X21929000Y-16318000D03*
X20829000Y-16318000D03*
X19729000Y-16318000D03*
X18629000Y-16318000D03*
D34*
X27219000Y-14268000D03*
D35*
X13899000Y-14018000D03*
D36*
X27544000Y-20898000D03*
D37*
X13619000Y-21993000D03*
D38*
X27544000Y-25978000D03*
D39*
X13644000Y-27918000D03*
D40*
X27319000Y-27483000D03*
D41*
X27294000Y-28143000D03*
D18*
X42968000Y-28321000D03*
X41868000Y-28321000D03*
D20*
X19616000Y-38100000D03*
X20516000Y-38100000D03*
D12*
X20320000Y-44011000D03*
X20320000Y-43111000D03*
D30*
X20320000Y-41444000D03*
X20320000Y-40344000D03*
D18*
X22310000Y-38608000D03*
X23410000Y-38608000D03*
X16976000Y-39116000D03*
X18076000Y-39116000D03*
X25993000Y-30480000D03*
X27093000Y-30480000D03*
X31157000Y-32512000D03*
X30057000Y-32512000D03*
D32*
X25285000Y-38608000D03*
X26785000Y-38608000D03*
X23253000Y-32385000D03*
X24753000Y-32385000D03*
D18*
X37931000Y-34163000D03*
X39031000Y-34163000D03*
X25231000Y-40513000D03*
X26331000Y-40513000D03*
X23072000Y-34290000D03*
X24172000Y-34290000D03*
X37931000Y-35941000D03*
X39031000Y-35941000D03*
X30819000Y-36449000D03*
X31919000Y-36449000D03*
X36237000Y-38608000D03*
X35137000Y-38608000D03*
X30014000Y-41275000D03*
X28914000Y-41275000D03*
X38439000Y-22860000D03*
X39539000Y-22860000D03*
D32*
X38469000Y-21082000D03*
X36969000Y-21082000D03*
D31*
X38227000Y-39866000D03*
X38227000Y-38366000D03*
D18*
X40344000Y-40259000D03*
X41444000Y-40259000D03*
D30*
X35814000Y-41360000D03*
X35814000Y-42460000D03*
D18*
X18076000Y-44958000D03*
X16976000Y-44958000D03*
D20*
X23045000Y-30480000D03*
X23945000Y-30480000D03*
X26855000Y-34290000D03*
X27755000Y-34290000D03*
X27167000Y-32512000D03*
X28067000Y-32512000D03*
X29776000Y-34290000D03*
X30676000Y-34290000D03*
X21960000Y-40513000D03*
X22860000Y-40513000D03*
X16949000Y-36957000D03*
X17849000Y-36957000D03*
X28887000Y-30480000D03*
X29787000Y-30480000D03*
X16949000Y-34544000D03*
X17849000Y-34544000D03*
D12*
X27178000Y-42730000D03*
X27178000Y-43630000D03*
D20*
X20897000Y-36068000D03*
X19997000Y-36068000D03*
X34094000Y-36449000D03*
X34994000Y-36449000D03*
X28887000Y-43561000D03*
X29787000Y-43561000D03*
X29141000Y-38608000D03*
X30041000Y-38608000D03*
X27871000Y-36449000D03*
X28771000Y-36449000D03*
X32131000Y-38608000D03*
X33031000Y-38608000D03*
X25596000Y-36449000D03*
X24696000Y-36449000D03*
X32893000Y-28702000D03*
X33793000Y-28702000D03*
X33851000Y-27051000D03*
X32951000Y-27051000D03*
D12*
X33274000Y-25215000D03*
X33274000Y-24315000D03*
X38100000Y-29141000D03*
X38100000Y-30041000D03*
D20*
X40709000Y-29972000D03*
X39809000Y-29972000D03*
X38804000Y-32004000D03*
X37904000Y-32004000D03*
D29*
X22302000Y-42149000D03*
X22302000Y-42799000D03*
X22302000Y-43449000D03*
X22302000Y-44099000D03*
X24892000Y-44099000D03*
X24892000Y-43449000D03*
X24892000Y-42799000D03*
X24892000Y-42149000D03*
D28*
X21351000Y-31496000D03*
X20701000Y-31496000D03*
X20051000Y-31496000D03*
X19401000Y-31496000D03*
X19401000Y-34086000D03*
X20051000Y-34086000D03*
X20701000Y-34086000D03*
X21351000Y-34086000D03*
X35717000Y-31700000D03*
X35067000Y-31700000D03*
X34417000Y-31700000D03*
X33767000Y-31700000D03*
X33767000Y-34290000D03*
X34417000Y-34290000D03*
X35067000Y-34290000D03*
X35717000Y-34290000D03*
D27*
X36408000Y-24679000D03*
X36408000Y-25329000D03*
X36408000Y-25979000D03*
X36408000Y-26629000D03*
X40808000Y-26629000D03*
X40808000Y-25979000D03*
X40808000Y-25329000D03*
X40808000Y-24679000D03*
D26*
X40320000Y-42173000D03*
X38420000Y-42173000D03*
X39370000Y-44323000D03*
D25*
X17991000Y-43114000D03*
X17991000Y-42164000D03*
X17991000Y-41214000D03*
X15791000Y-41214000D03*
X15791000Y-43114000D03*
X15791000Y-42164000D03*
D21*
X31928000Y-41332000D03*
D22*
X31879000Y-44069000D03*
X33909000Y-44069000D03*
D21*
X33860000Y-41332000D03*
D23*
X32894000Y-41332000D03*
D24*
X32894000Y-43435000D03*
D18*
X43138000Y-42799000D03*
X44238000Y-42799000D03*
X43011000Y-36322000D03*
X44111000Y-36322000D03*
X43011000Y-34544000D03*
X44111000Y-34544000D03*
D20*
X43884000Y-22733000D03*
X42984000Y-22733000D03*
D19*
X44130000Y-30185000D03*
X43180000Y-30185000D03*
X42230000Y-30185000D03*
X42230000Y-32385000D03*
X44130000Y-32385000D03*
D18*
X29930000Y-22606000D03*
X31030000Y-22606000D03*
X31327000Y-16891000D03*
X32427000Y-16891000D03*
D17*
X29829760Y-26603960D03*
X30480000Y-26603960D03*
X31130240Y-26603960D03*
X31130240Y-24704040D03*
X30480000Y-24704040D03*
X29829760Y-24704040D03*
X29829760Y-20634960D03*
X30480000Y-20634960D03*
X31130240Y-20634960D03*
X31130240Y-18735040D03*
X30480000Y-18735040D03*
X29829760Y-18735040D03*
D13*
X38959000Y-17145000D03*
X39609000Y-17145000D03*
X40259000Y-17145000D03*
X40909000Y-17145000D03*
X41559000Y-17145000D03*
D14*
X37159000Y-16820000D03*
X43359000Y-16820000D03*
D15*
X44359000Y-14470000D03*
D16*
X41109000Y-14470000D03*
X39409000Y-14470000D03*
D15*
X36159000Y-14470000D03*
D12*
X34925000Y-21913000D03*
X34925000Y-21013000D03*
D11*
X43053000Y-40640000D03*
X44003000Y-40640000D03*
X44953000Y-40640000D03*
X44953000Y-38290000D03*
X43053000Y-38290000D03*
M02*
