G04 #@! TF.FileFunction,Profile,NP*
%FSLAX46Y46*%
G04 Gerber Fmt 4.6, Leading zero omitted, Abs format (unit mm)*
G04 Created by KiCad (PCBNEW 4.0.2+dfsg1-stable) date Wed 22 Jun 2016 02:24:39 PM EDT*
%MOMM*%
G01*
G04 APERTURE LIST*
%ADD10C,0.100000*%
%ADD11C,0.254000*%
G04 APERTURE END LIST*
D10*
D11*
X7700000Y-120760000D02*
X120760000Y-120760000D01*
X7700000Y-115760000D02*
X120760000Y-115760000D01*
X7700000Y-82740000D02*
X120760000Y-82740000D01*
X7700000Y-80740000D02*
X120760000Y-80740000D01*
X7700000Y-47720000D02*
X120760000Y-47720000D01*
X7700000Y-45720000D02*
X120760000Y-45720000D01*
X7700000Y-12700000D02*
X120760000Y-12700000D01*
X7700000Y-7700000D02*
X120760000Y-7700000D01*
X120760000Y-7700000D02*
X120760000Y-120760000D01*
X115760000Y-7700000D02*
X115760000Y-120760000D01*
X82740000Y-7700000D02*
X82740000Y-120760000D01*
X80740000Y-7700000D02*
X80740000Y-120760000D01*
X47720000Y-7700000D02*
X47720000Y-120760000D01*
X45720000Y-7700000D02*
X45720000Y-120760000D01*
X12700000Y-7700000D02*
X12700000Y-120760000D01*
X7700000Y-7700000D02*
X7700000Y-120760000D01*
D10*
X115379000Y-83060000D02*
X113099000Y-83060000D01*
X113099000Y-83060000D02*
X113099000Y-84559000D01*
X112718000Y-84940000D02*
G75*
G03X113099000Y-84559000I0J381000D01*
G01*
X112718000Y-84940000D02*
X112630000Y-84940000D01*
X112249000Y-84559000D02*
G75*
G03X112630000Y-84940000I381000J0D01*
G01*
X112249000Y-84559000D02*
X112249000Y-83060000D01*
X112249000Y-83060000D02*
X108349000Y-83060000D01*
X108349000Y-83060000D02*
X108349000Y-84559000D01*
X107968000Y-84940000D02*
G75*
G03X108349000Y-84559000I0J381000D01*
G01*
X107968000Y-84940000D02*
X107880000Y-84940000D01*
X107499000Y-84559000D02*
G75*
G03X107880000Y-84940000I381000J0D01*
G01*
X107499000Y-84559000D02*
X107499000Y-83060000D01*
X107499000Y-83060000D02*
X105219000Y-83060000D01*
X115379000Y-48040000D02*
X113099000Y-48040000D01*
X113099000Y-48040000D02*
X113099000Y-49539000D01*
X112718000Y-49920000D02*
G75*
G03X113099000Y-49539000I0J381000D01*
G01*
X112718000Y-49920000D02*
X112630000Y-49920000D01*
X112249000Y-49539000D02*
G75*
G03X112630000Y-49920000I381000J0D01*
G01*
X112249000Y-49539000D02*
X112249000Y-48040000D01*
X112249000Y-48040000D02*
X108349000Y-48040000D01*
X108349000Y-48040000D02*
X108349000Y-49539000D01*
X107968000Y-49920000D02*
G75*
G03X108349000Y-49539000I0J381000D01*
G01*
X107968000Y-49920000D02*
X107880000Y-49920000D01*
X107499000Y-49539000D02*
G75*
G03X107880000Y-49920000I381000J0D01*
G01*
X107499000Y-49539000D02*
X107499000Y-48040000D01*
X107499000Y-48040000D02*
X105219000Y-48040000D01*
X115379000Y-13020000D02*
X113099000Y-13020000D01*
X113099000Y-13020000D02*
X113099000Y-14519000D01*
X112718000Y-14900000D02*
G75*
G03X113099000Y-14519000I0J381000D01*
G01*
X112718000Y-14900000D02*
X112630000Y-14900000D01*
X112249000Y-14519000D02*
G75*
G03X112630000Y-14900000I381000J0D01*
G01*
X112249000Y-14519000D02*
X112249000Y-13020000D01*
X112249000Y-13020000D02*
X108349000Y-13020000D01*
X108349000Y-13020000D02*
X108349000Y-14519000D01*
X107968000Y-14900000D02*
G75*
G03X108349000Y-14519000I0J381000D01*
G01*
X107968000Y-14900000D02*
X107880000Y-14900000D01*
X107499000Y-14519000D02*
G75*
G03X107880000Y-14900000I381000J0D01*
G01*
X107499000Y-14519000D02*
X107499000Y-13020000D01*
X107499000Y-13020000D02*
X105219000Y-13020000D01*
X80359000Y-83060000D02*
X78079000Y-83060000D01*
X78079000Y-83060000D02*
X78079000Y-84559000D01*
X77698000Y-84940000D02*
G75*
G03X78079000Y-84559000I0J381000D01*
G01*
X77698000Y-84940000D02*
X77610000Y-84940000D01*
X77229000Y-84559000D02*
G75*
G03X77610000Y-84940000I381000J0D01*
G01*
X77229000Y-84559000D02*
X77229000Y-83060000D01*
X77229000Y-83060000D02*
X73329000Y-83060000D01*
X73329000Y-83060000D02*
X73329000Y-84559000D01*
X72948000Y-84940000D02*
G75*
G03X73329000Y-84559000I0J381000D01*
G01*
X72948000Y-84940000D02*
X72860000Y-84940000D01*
X72479000Y-84559000D02*
G75*
G03X72860000Y-84940000I381000J0D01*
G01*
X72479000Y-84559000D02*
X72479000Y-83060000D01*
X72479000Y-83060000D02*
X70199000Y-83060000D01*
X80359000Y-48040000D02*
X78079000Y-48040000D01*
X78079000Y-48040000D02*
X78079000Y-49539000D01*
X77698000Y-49920000D02*
G75*
G03X78079000Y-49539000I0J381000D01*
G01*
X77698000Y-49920000D02*
X77610000Y-49920000D01*
X77229000Y-49539000D02*
G75*
G03X77610000Y-49920000I381000J0D01*
G01*
X77229000Y-49539000D02*
X77229000Y-48040000D01*
X77229000Y-48040000D02*
X73329000Y-48040000D01*
X73329000Y-48040000D02*
X73329000Y-49539000D01*
X72948000Y-49920000D02*
G75*
G03X73329000Y-49539000I0J381000D01*
G01*
X72948000Y-49920000D02*
X72860000Y-49920000D01*
X72479000Y-49539000D02*
G75*
G03X72860000Y-49920000I381000J0D01*
G01*
X72479000Y-49539000D02*
X72479000Y-48040000D01*
X72479000Y-48040000D02*
X70199000Y-48040000D01*
X80359000Y-13020000D02*
X78079000Y-13020000D01*
X78079000Y-13020000D02*
X78079000Y-14519000D01*
X77698000Y-14900000D02*
G75*
G03X78079000Y-14519000I0J381000D01*
G01*
X77698000Y-14900000D02*
X77610000Y-14900000D01*
X77229000Y-14519000D02*
G75*
G03X77610000Y-14900000I381000J0D01*
G01*
X77229000Y-14519000D02*
X77229000Y-13020000D01*
X77229000Y-13020000D02*
X73329000Y-13020000D01*
X73329000Y-13020000D02*
X73329000Y-14519000D01*
X72948000Y-14900000D02*
G75*
G03X73329000Y-14519000I0J381000D01*
G01*
X72948000Y-14900000D02*
X72860000Y-14900000D01*
X72479000Y-14519000D02*
G75*
G03X72860000Y-14900000I381000J0D01*
G01*
X72479000Y-14519000D02*
X72479000Y-13020000D01*
X72479000Y-13020000D02*
X70199000Y-13020000D01*
X45339000Y-83060000D02*
X43059000Y-83060000D01*
X43059000Y-83060000D02*
X43059000Y-84559000D01*
X42678000Y-84940000D02*
G75*
G03X43059000Y-84559000I0J381000D01*
G01*
X42678000Y-84940000D02*
X42590000Y-84940000D01*
X42209000Y-84559000D02*
G75*
G03X42590000Y-84940000I381000J0D01*
G01*
X42209000Y-84559000D02*
X42209000Y-83060000D01*
X42209000Y-83060000D02*
X38309000Y-83060000D01*
X38309000Y-83060000D02*
X38309000Y-84559000D01*
X37928000Y-84940000D02*
G75*
G03X38309000Y-84559000I0J381000D01*
G01*
X37928000Y-84940000D02*
X37840000Y-84940000D01*
X37459000Y-84559000D02*
G75*
G03X37840000Y-84940000I381000J0D01*
G01*
X37459000Y-84559000D02*
X37459000Y-83060000D01*
X37459000Y-83060000D02*
X35179000Y-83060000D01*
X45339000Y-48040000D02*
X43059000Y-48040000D01*
X43059000Y-48040000D02*
X43059000Y-49539000D01*
X42678000Y-49920000D02*
G75*
G03X43059000Y-49539000I0J381000D01*
G01*
X42678000Y-49920000D02*
X42590000Y-49920000D01*
X42209000Y-49539000D02*
G75*
G03X42590000Y-49920000I381000J0D01*
G01*
X42209000Y-49539000D02*
X42209000Y-48040000D01*
X42209000Y-48040000D02*
X38309000Y-48040000D01*
X38309000Y-48040000D02*
X38309000Y-49539000D01*
X37928000Y-49920000D02*
G75*
G03X38309000Y-49539000I0J381000D01*
G01*
X37928000Y-49920000D02*
X37840000Y-49920000D01*
X37459000Y-49539000D02*
G75*
G03X37840000Y-49920000I381000J0D01*
G01*
X37459000Y-49539000D02*
X37459000Y-48040000D01*
X37459000Y-48040000D02*
X35179000Y-48040000D01*
X45339000Y-13020000D02*
X43059000Y-13020000D01*
X43059000Y-13020000D02*
X43059000Y-14519000D01*
X42678000Y-14900000D02*
G75*
G03X43059000Y-14519000I0J381000D01*
G01*
X42678000Y-14900000D02*
X42590000Y-14900000D01*
X42209000Y-14519000D02*
G75*
G03X42590000Y-14900000I381000J0D01*
G01*
X42209000Y-14519000D02*
X42209000Y-13020000D01*
X42209000Y-13020000D02*
X38309000Y-13020000D01*
X38309000Y-13020000D02*
X38309000Y-14519000D01*
X37928000Y-14900000D02*
G75*
G03X38309000Y-14519000I0J381000D01*
G01*
X37928000Y-14900000D02*
X37840000Y-14900000D01*
X37459000Y-14519000D02*
G75*
G03X37840000Y-14900000I381000J0D01*
G01*
X37459000Y-14519000D02*
X37459000Y-13020000D01*
X37459000Y-13020000D02*
X35179000Y-13020000D01*
M02*
