G04 #@! TF.FileFunction,Soldermask,Bot*
%FSLAX46Y46*%
G04 Gerber Fmt 4.6, Leading zero omitted, Abs format (unit mm)*
G04 Created by KiCad (PCBNEW 4.0.2+dfsg1-stable) date Wed 22 Jun 2016 02:24:39 PM EDT*
%MOMM*%
G01*
G04 APERTURE LIST*
%ADD10C,0.100000*%
%ADD11R,2.503200X1.753200*%
%ADD12R,0.903200X1.703200*%
%ADD13R,1.703200X0.957200*%
%ADD14R,1.703200X0.903200*%
%ADD15R,1.753200X2.503200*%
%ADD16R,0.803200X0.703200*%
%ADD17R,3.599180X1.701800*%
%ADD18R,3.700780X1.198880*%
%ADD19R,0.953200X1.003200*%
G04 APERTURE END LIST*
D10*
D11*
X84772000Y-113918500D03*
D12*
X105103000Y-101477000D03*
X102103000Y-101477000D03*
X106103000Y-101477000D03*
X107103000Y-101477000D03*
X108103000Y-101477000D03*
X109103000Y-101477000D03*
X110103000Y-101477000D03*
X111103000Y-101477000D03*
X101103000Y-101477000D03*
X100103000Y-101477000D03*
X99103000Y-101477000D03*
X98103000Y-101477000D03*
X97103000Y-101477000D03*
X96103000Y-101477000D03*
D13*
X112681900Y-99898100D03*
D14*
X94524100Y-99898100D03*
X112681900Y-98898100D03*
X112681900Y-97898100D03*
X112681900Y-96898100D03*
X112681900Y-95898100D03*
X112681900Y-94898100D03*
X112681900Y-93898100D03*
X112681900Y-92898100D03*
X112681900Y-91898100D03*
X94524100Y-98898100D03*
X94524100Y-97898100D03*
X94524100Y-96898100D03*
X94524100Y-95898100D03*
X94524100Y-94898100D03*
X94524100Y-93898100D03*
X94524100Y-92898100D03*
X94524100Y-91898100D03*
D15*
X108521000Y-104584000D03*
X100075500Y-105854000D03*
X95757500Y-105600000D03*
D16*
X91969000Y-88963000D03*
X93069000Y-88963000D03*
X91969000Y-86677000D03*
X93069000Y-86677000D03*
D15*
X104393500Y-104584000D03*
X97218000Y-113855000D03*
X90868000Y-102171000D03*
X90868000Y-106616000D03*
X90741000Y-110680000D03*
D11*
X88836000Y-90677500D03*
X88836000Y-94551000D03*
X84391000Y-97535500D03*
D15*
X85788000Y-101409000D03*
D11*
X88836000Y-87248500D03*
X88836000Y-84200500D03*
X84518000Y-94360500D03*
X84518000Y-90995000D03*
X84518000Y-87502500D03*
X84645000Y-84200500D03*
D16*
X114998000Y-103441000D03*
X113898000Y-103441000D03*
D17*
X113474000Y-107667560D03*
D18*
X107924100Y-110017060D03*
X107924100Y-112013500D03*
D17*
X113474000Y-114363000D03*
D19*
X87693000Y-114224000D03*
X87693000Y-112724000D03*
D11*
X84772000Y-78898500D03*
D12*
X105103000Y-66457000D03*
X102103000Y-66457000D03*
X106103000Y-66457000D03*
X107103000Y-66457000D03*
X108103000Y-66457000D03*
X109103000Y-66457000D03*
X110103000Y-66457000D03*
X111103000Y-66457000D03*
X101103000Y-66457000D03*
X100103000Y-66457000D03*
X99103000Y-66457000D03*
X98103000Y-66457000D03*
X97103000Y-66457000D03*
X96103000Y-66457000D03*
D13*
X112681900Y-64878100D03*
D14*
X94524100Y-64878100D03*
X112681900Y-63878100D03*
X112681900Y-62878100D03*
X112681900Y-61878100D03*
X112681900Y-60878100D03*
X112681900Y-59878100D03*
X112681900Y-58878100D03*
X112681900Y-57878100D03*
X112681900Y-56878100D03*
X94524100Y-63878100D03*
X94524100Y-62878100D03*
X94524100Y-61878100D03*
X94524100Y-60878100D03*
X94524100Y-59878100D03*
X94524100Y-58878100D03*
X94524100Y-57878100D03*
X94524100Y-56878100D03*
D15*
X108521000Y-69564000D03*
X100075500Y-70834000D03*
X95757500Y-70580000D03*
D16*
X91969000Y-53943000D03*
X93069000Y-53943000D03*
X91969000Y-51657000D03*
X93069000Y-51657000D03*
D15*
X104393500Y-69564000D03*
X97218000Y-78835000D03*
X90868000Y-67151000D03*
X90868000Y-71596000D03*
X90741000Y-75660000D03*
D11*
X88836000Y-55657500D03*
X88836000Y-59531000D03*
X84391000Y-62515500D03*
D15*
X85788000Y-66389000D03*
D11*
X88836000Y-52228500D03*
X88836000Y-49180500D03*
X84518000Y-59340500D03*
X84518000Y-55975000D03*
X84518000Y-52482500D03*
X84645000Y-49180500D03*
D16*
X114998000Y-68421000D03*
X113898000Y-68421000D03*
D17*
X113474000Y-72647560D03*
D18*
X107924100Y-74997060D03*
X107924100Y-76993500D03*
D17*
X113474000Y-79343000D03*
D19*
X87693000Y-79204000D03*
X87693000Y-77704000D03*
D11*
X84772000Y-43878500D03*
D12*
X105103000Y-31437000D03*
X102103000Y-31437000D03*
X106103000Y-31437000D03*
X107103000Y-31437000D03*
X108103000Y-31437000D03*
X109103000Y-31437000D03*
X110103000Y-31437000D03*
X111103000Y-31437000D03*
X101103000Y-31437000D03*
X100103000Y-31437000D03*
X99103000Y-31437000D03*
X98103000Y-31437000D03*
X97103000Y-31437000D03*
X96103000Y-31437000D03*
D13*
X112681900Y-29858100D03*
D14*
X94524100Y-29858100D03*
X112681900Y-28858100D03*
X112681900Y-27858100D03*
X112681900Y-26858100D03*
X112681900Y-25858100D03*
X112681900Y-24858100D03*
X112681900Y-23858100D03*
X112681900Y-22858100D03*
X112681900Y-21858100D03*
X94524100Y-28858100D03*
X94524100Y-27858100D03*
X94524100Y-26858100D03*
X94524100Y-25858100D03*
X94524100Y-24858100D03*
X94524100Y-23858100D03*
X94524100Y-22858100D03*
X94524100Y-21858100D03*
D15*
X108521000Y-34544000D03*
X100075500Y-35814000D03*
X95757500Y-35560000D03*
D16*
X91969000Y-18923000D03*
X93069000Y-18923000D03*
X91969000Y-16637000D03*
X93069000Y-16637000D03*
D15*
X104393500Y-34544000D03*
X97218000Y-43815000D03*
X90868000Y-32131000D03*
X90868000Y-36576000D03*
X90741000Y-40640000D03*
D11*
X88836000Y-20637500D03*
X88836000Y-24511000D03*
X84391000Y-27495500D03*
D15*
X85788000Y-31369000D03*
D11*
X88836000Y-17208500D03*
X88836000Y-14160500D03*
X84518000Y-24320500D03*
X84518000Y-20955000D03*
X84518000Y-17462500D03*
X84645000Y-14160500D03*
D16*
X114998000Y-33401000D03*
X113898000Y-33401000D03*
D17*
X113474000Y-37627560D03*
D18*
X107924100Y-39977060D03*
X107924100Y-41973500D03*
D17*
X113474000Y-44323000D03*
D19*
X87693000Y-44184000D03*
X87693000Y-42684000D03*
D11*
X49752000Y-113918500D03*
D12*
X70083000Y-101477000D03*
X67083000Y-101477000D03*
X71083000Y-101477000D03*
X72083000Y-101477000D03*
X73083000Y-101477000D03*
X74083000Y-101477000D03*
X75083000Y-101477000D03*
X76083000Y-101477000D03*
X66083000Y-101477000D03*
X65083000Y-101477000D03*
X64083000Y-101477000D03*
X63083000Y-101477000D03*
X62083000Y-101477000D03*
X61083000Y-101477000D03*
D13*
X77661900Y-99898100D03*
D14*
X59504100Y-99898100D03*
X77661900Y-98898100D03*
X77661900Y-97898100D03*
X77661900Y-96898100D03*
X77661900Y-95898100D03*
X77661900Y-94898100D03*
X77661900Y-93898100D03*
X77661900Y-92898100D03*
X77661900Y-91898100D03*
X59504100Y-98898100D03*
X59504100Y-97898100D03*
X59504100Y-96898100D03*
X59504100Y-95898100D03*
X59504100Y-94898100D03*
X59504100Y-93898100D03*
X59504100Y-92898100D03*
X59504100Y-91898100D03*
D15*
X73501000Y-104584000D03*
X65055500Y-105854000D03*
X60737500Y-105600000D03*
D16*
X56949000Y-88963000D03*
X58049000Y-88963000D03*
X56949000Y-86677000D03*
X58049000Y-86677000D03*
D15*
X69373500Y-104584000D03*
X62198000Y-113855000D03*
X55848000Y-102171000D03*
X55848000Y-106616000D03*
X55721000Y-110680000D03*
D11*
X53816000Y-90677500D03*
X53816000Y-94551000D03*
X49371000Y-97535500D03*
D15*
X50768000Y-101409000D03*
D11*
X53816000Y-87248500D03*
X53816000Y-84200500D03*
X49498000Y-94360500D03*
X49498000Y-90995000D03*
X49498000Y-87502500D03*
X49625000Y-84200500D03*
D16*
X79978000Y-103441000D03*
X78878000Y-103441000D03*
D17*
X78454000Y-107667560D03*
D18*
X72904100Y-110017060D03*
X72904100Y-112013500D03*
D17*
X78454000Y-114363000D03*
D19*
X52673000Y-114224000D03*
X52673000Y-112724000D03*
D11*
X49752000Y-78898500D03*
D12*
X70083000Y-66457000D03*
X67083000Y-66457000D03*
X71083000Y-66457000D03*
X72083000Y-66457000D03*
X73083000Y-66457000D03*
X74083000Y-66457000D03*
X75083000Y-66457000D03*
X76083000Y-66457000D03*
X66083000Y-66457000D03*
X65083000Y-66457000D03*
X64083000Y-66457000D03*
X63083000Y-66457000D03*
X62083000Y-66457000D03*
X61083000Y-66457000D03*
D13*
X77661900Y-64878100D03*
D14*
X59504100Y-64878100D03*
X77661900Y-63878100D03*
X77661900Y-62878100D03*
X77661900Y-61878100D03*
X77661900Y-60878100D03*
X77661900Y-59878100D03*
X77661900Y-58878100D03*
X77661900Y-57878100D03*
X77661900Y-56878100D03*
X59504100Y-63878100D03*
X59504100Y-62878100D03*
X59504100Y-61878100D03*
X59504100Y-60878100D03*
X59504100Y-59878100D03*
X59504100Y-58878100D03*
X59504100Y-57878100D03*
X59504100Y-56878100D03*
D15*
X73501000Y-69564000D03*
X65055500Y-70834000D03*
X60737500Y-70580000D03*
D16*
X56949000Y-53943000D03*
X58049000Y-53943000D03*
X56949000Y-51657000D03*
X58049000Y-51657000D03*
D15*
X69373500Y-69564000D03*
X62198000Y-78835000D03*
X55848000Y-67151000D03*
X55848000Y-71596000D03*
X55721000Y-75660000D03*
D11*
X53816000Y-55657500D03*
X53816000Y-59531000D03*
X49371000Y-62515500D03*
D15*
X50768000Y-66389000D03*
D11*
X53816000Y-52228500D03*
X53816000Y-49180500D03*
X49498000Y-59340500D03*
X49498000Y-55975000D03*
X49498000Y-52482500D03*
X49625000Y-49180500D03*
D16*
X79978000Y-68421000D03*
X78878000Y-68421000D03*
D17*
X78454000Y-72647560D03*
D18*
X72904100Y-74997060D03*
X72904100Y-76993500D03*
D17*
X78454000Y-79343000D03*
D19*
X52673000Y-79204000D03*
X52673000Y-77704000D03*
D11*
X49752000Y-43878500D03*
D12*
X70083000Y-31437000D03*
X67083000Y-31437000D03*
X71083000Y-31437000D03*
X72083000Y-31437000D03*
X73083000Y-31437000D03*
X74083000Y-31437000D03*
X75083000Y-31437000D03*
X76083000Y-31437000D03*
X66083000Y-31437000D03*
X65083000Y-31437000D03*
X64083000Y-31437000D03*
X63083000Y-31437000D03*
X62083000Y-31437000D03*
X61083000Y-31437000D03*
D13*
X77661900Y-29858100D03*
D14*
X59504100Y-29858100D03*
X77661900Y-28858100D03*
X77661900Y-27858100D03*
X77661900Y-26858100D03*
X77661900Y-25858100D03*
X77661900Y-24858100D03*
X77661900Y-23858100D03*
X77661900Y-22858100D03*
X77661900Y-21858100D03*
X59504100Y-28858100D03*
X59504100Y-27858100D03*
X59504100Y-26858100D03*
X59504100Y-25858100D03*
X59504100Y-24858100D03*
X59504100Y-23858100D03*
X59504100Y-22858100D03*
X59504100Y-21858100D03*
D15*
X73501000Y-34544000D03*
X65055500Y-35814000D03*
X60737500Y-35560000D03*
D16*
X56949000Y-18923000D03*
X58049000Y-18923000D03*
X56949000Y-16637000D03*
X58049000Y-16637000D03*
D15*
X69373500Y-34544000D03*
X62198000Y-43815000D03*
X55848000Y-32131000D03*
X55848000Y-36576000D03*
X55721000Y-40640000D03*
D11*
X53816000Y-20637500D03*
X53816000Y-24511000D03*
X49371000Y-27495500D03*
D15*
X50768000Y-31369000D03*
D11*
X53816000Y-17208500D03*
X53816000Y-14160500D03*
X49498000Y-24320500D03*
X49498000Y-20955000D03*
X49498000Y-17462500D03*
X49625000Y-14160500D03*
D16*
X79978000Y-33401000D03*
X78878000Y-33401000D03*
D17*
X78454000Y-37627560D03*
D18*
X72904100Y-39977060D03*
X72904100Y-41973500D03*
D17*
X78454000Y-44323000D03*
D19*
X52673000Y-44184000D03*
X52673000Y-42684000D03*
D11*
X14732000Y-113918500D03*
D12*
X35063000Y-101477000D03*
X32063000Y-101477000D03*
X36063000Y-101477000D03*
X37063000Y-101477000D03*
X38063000Y-101477000D03*
X39063000Y-101477000D03*
X40063000Y-101477000D03*
X41063000Y-101477000D03*
X31063000Y-101477000D03*
X30063000Y-101477000D03*
X29063000Y-101477000D03*
X28063000Y-101477000D03*
X27063000Y-101477000D03*
X26063000Y-101477000D03*
D13*
X42641900Y-99898100D03*
D14*
X24484100Y-99898100D03*
X42641900Y-98898100D03*
X42641900Y-97898100D03*
X42641900Y-96898100D03*
X42641900Y-95898100D03*
X42641900Y-94898100D03*
X42641900Y-93898100D03*
X42641900Y-92898100D03*
X42641900Y-91898100D03*
X24484100Y-98898100D03*
X24484100Y-97898100D03*
X24484100Y-96898100D03*
X24484100Y-95898100D03*
X24484100Y-94898100D03*
X24484100Y-93898100D03*
X24484100Y-92898100D03*
X24484100Y-91898100D03*
D15*
X38481000Y-104584000D03*
X30035500Y-105854000D03*
X25717500Y-105600000D03*
D16*
X21929000Y-88963000D03*
X23029000Y-88963000D03*
X21929000Y-86677000D03*
X23029000Y-86677000D03*
D15*
X34353500Y-104584000D03*
X27178000Y-113855000D03*
X20828000Y-102171000D03*
X20828000Y-106616000D03*
X20701000Y-110680000D03*
D11*
X18796000Y-90677500D03*
X18796000Y-94551000D03*
X14351000Y-97535500D03*
D15*
X15748000Y-101409000D03*
D11*
X18796000Y-87248500D03*
X18796000Y-84200500D03*
X14478000Y-94360500D03*
X14478000Y-90995000D03*
X14478000Y-87502500D03*
X14605000Y-84200500D03*
D16*
X44958000Y-103441000D03*
X43858000Y-103441000D03*
D17*
X43434000Y-107667560D03*
D18*
X37884100Y-110017060D03*
X37884100Y-112013500D03*
D17*
X43434000Y-114363000D03*
D19*
X17653000Y-114224000D03*
X17653000Y-112724000D03*
D11*
X14732000Y-78898500D03*
D12*
X35063000Y-66457000D03*
X32063000Y-66457000D03*
X36063000Y-66457000D03*
X37063000Y-66457000D03*
X38063000Y-66457000D03*
X39063000Y-66457000D03*
X40063000Y-66457000D03*
X41063000Y-66457000D03*
X31063000Y-66457000D03*
X30063000Y-66457000D03*
X29063000Y-66457000D03*
X28063000Y-66457000D03*
X27063000Y-66457000D03*
X26063000Y-66457000D03*
D13*
X42641900Y-64878100D03*
D14*
X24484100Y-64878100D03*
X42641900Y-63878100D03*
X42641900Y-62878100D03*
X42641900Y-61878100D03*
X42641900Y-60878100D03*
X42641900Y-59878100D03*
X42641900Y-58878100D03*
X42641900Y-57878100D03*
X42641900Y-56878100D03*
X24484100Y-63878100D03*
X24484100Y-62878100D03*
X24484100Y-61878100D03*
X24484100Y-60878100D03*
X24484100Y-59878100D03*
X24484100Y-58878100D03*
X24484100Y-57878100D03*
X24484100Y-56878100D03*
D15*
X38481000Y-69564000D03*
X30035500Y-70834000D03*
X25717500Y-70580000D03*
D16*
X21929000Y-53943000D03*
X23029000Y-53943000D03*
X21929000Y-51657000D03*
X23029000Y-51657000D03*
D15*
X34353500Y-69564000D03*
X27178000Y-78835000D03*
X20828000Y-67151000D03*
X20828000Y-71596000D03*
X20701000Y-75660000D03*
D11*
X18796000Y-55657500D03*
X18796000Y-59531000D03*
X14351000Y-62515500D03*
D15*
X15748000Y-66389000D03*
D11*
X18796000Y-52228500D03*
X18796000Y-49180500D03*
X14478000Y-59340500D03*
X14478000Y-55975000D03*
X14478000Y-52482500D03*
X14605000Y-49180500D03*
D16*
X44958000Y-68421000D03*
X43858000Y-68421000D03*
D17*
X43434000Y-72647560D03*
D18*
X37884100Y-74997060D03*
X37884100Y-76993500D03*
D17*
X43434000Y-79343000D03*
D19*
X17653000Y-79204000D03*
X17653000Y-77704000D03*
X17653000Y-44184000D03*
X17653000Y-42684000D03*
D17*
X43434000Y-37627560D03*
D18*
X37884100Y-39977060D03*
X37884100Y-41973500D03*
D17*
X43434000Y-44323000D03*
D16*
X44958000Y-33401000D03*
X43858000Y-33401000D03*
D11*
X14605000Y-14160500D03*
X14478000Y-17462500D03*
X14478000Y-20955000D03*
X14478000Y-24320500D03*
X18796000Y-14160500D03*
X18796000Y-17208500D03*
D15*
X15748000Y-31369000D03*
D11*
X14351000Y-27495500D03*
X18796000Y-24511000D03*
X18796000Y-20637500D03*
D15*
X20701000Y-40640000D03*
X20828000Y-36576000D03*
X20828000Y-32131000D03*
X27178000Y-43815000D03*
X34353500Y-34544000D03*
D16*
X21929000Y-16637000D03*
X23029000Y-16637000D03*
X21929000Y-18923000D03*
X23029000Y-18923000D03*
D15*
X25717500Y-35560000D03*
X30035500Y-35814000D03*
X38481000Y-34544000D03*
D12*
X35063000Y-31437000D03*
X32063000Y-31437000D03*
X36063000Y-31437000D03*
X37063000Y-31437000D03*
X38063000Y-31437000D03*
X39063000Y-31437000D03*
X40063000Y-31437000D03*
X41063000Y-31437000D03*
X31063000Y-31437000D03*
X30063000Y-31437000D03*
X29063000Y-31437000D03*
X28063000Y-31437000D03*
X27063000Y-31437000D03*
X26063000Y-31437000D03*
D13*
X42641900Y-29858100D03*
D14*
X24484100Y-29858100D03*
X42641900Y-28858100D03*
X42641900Y-27858100D03*
X42641900Y-26858100D03*
X42641900Y-25858100D03*
X42641900Y-24858100D03*
X42641900Y-23858100D03*
X42641900Y-22858100D03*
X42641900Y-21858100D03*
X24484100Y-28858100D03*
X24484100Y-27858100D03*
X24484100Y-26858100D03*
X24484100Y-25858100D03*
X24484100Y-24858100D03*
X24484100Y-23858100D03*
X24484100Y-22858100D03*
X24484100Y-21858100D03*
D11*
X14732000Y-43878500D03*
M02*
