G04 #@! TF.FileFunction,Soldermask,Top*
%FSLAX46Y46*%
G04 Gerber Fmt 4.6, Leading zero omitted, Abs format (unit mm)*
G04 Created by KiCad (PCBNEW 4.0.0-stable) date Thursday, June 23, 2016 'AMt' 11:02:30 AM*
%MOMM*%
G01*
G04 APERTURE LIST*
%ADD10C,0.100000*%
%ADD11R,1.200000X1.800000*%
%ADD12R,1.750000X2.200000*%
%ADD13R,1.560000X1.900000*%
%ADD14R,1.050000X2.540000*%
%ADD15R,1.000000X1.550000*%
%ADD16R,1.050000X2.000000*%
%ADD17R,1.050000X1.700000*%
%ADD18R,1.500000X0.850000*%
%ADD19R,1.550000X0.850000*%
%ADD20R,1.000000X0.900000*%
%ADD21R,0.800000X1.000000*%
%ADD22R,1.000000X0.800000*%
%ADD23R,0.900000X1.000000*%
%ADD24R,1.200000X1.150000*%
%ADD25R,1.150000X1.200000*%
%ADD26R,1.390000X0.880000*%
%ADD27R,0.880000X1.390000*%
%ADD28R,1.850000X0.850000*%
%ADD29R,1.000000X1.650000*%
%ADD30R,1.460000X1.050000*%
%ADD31C,1.123000*%
%ADD32C,0.962000*%
%ADD33C,0.912000*%
%ADD34C,1.624000*%
%ADD35R,1.050000X1.460000*%
%ADD36R,0.798780X1.149300*%
%ADD37R,0.800000X1.750000*%
%ADD38R,2.500000X2.400000*%
%ADD39R,2.000000X2.300000*%
%ADD40R,1.600000X2.300000*%
%ADD41R,0.900000X1.600000*%
G04 APERTURE END LIST*
D10*
D11*
X100370000Y-142429000D03*
X99270000Y-142429000D03*
X98170000Y-142429000D03*
X97070000Y-142429000D03*
X95970000Y-142429000D03*
X94870000Y-142429000D03*
X93770000Y-142429000D03*
X92670000Y-142429000D03*
D12*
X101260000Y-140379000D03*
D13*
X87940000Y-140129000D03*
D14*
X101585000Y-147009000D03*
D15*
X87660000Y-148104000D03*
D16*
X101585000Y-152089000D03*
D17*
X87685000Y-154029000D03*
D18*
X101360000Y-153594000D03*
D19*
X101335000Y-154254000D03*
D20*
X117009000Y-154432000D03*
X115909000Y-154432000D03*
D21*
X93657000Y-164211000D03*
X94557000Y-164211000D03*
D22*
X94361000Y-170122000D03*
X94361000Y-169222000D03*
D23*
X94361000Y-167555000D03*
X94361000Y-166455000D03*
D20*
X96351000Y-164719000D03*
X97451000Y-164719000D03*
X91017000Y-165227000D03*
X92117000Y-165227000D03*
X100034000Y-156591000D03*
X101134000Y-156591000D03*
X105198000Y-158623000D03*
X104098000Y-158623000D03*
D24*
X99326000Y-164719000D03*
X100826000Y-164719000D03*
X97294000Y-158496000D03*
X98794000Y-158496000D03*
D20*
X111972000Y-160274000D03*
X113072000Y-160274000D03*
X99272000Y-166624000D03*
X100372000Y-166624000D03*
X97113000Y-160401000D03*
X98213000Y-160401000D03*
X111972000Y-162052000D03*
X113072000Y-162052000D03*
X104860000Y-162560000D03*
X105960000Y-162560000D03*
X110278000Y-164719000D03*
X109178000Y-164719000D03*
X104055000Y-167386000D03*
X102955000Y-167386000D03*
X112480000Y-148971000D03*
X113580000Y-148971000D03*
D24*
X112510000Y-147193000D03*
X111010000Y-147193000D03*
D25*
X112268000Y-165977000D03*
X112268000Y-164477000D03*
D20*
X114385000Y-166370000D03*
X115485000Y-166370000D03*
D23*
X109855000Y-167471000D03*
X109855000Y-168571000D03*
D20*
X92117000Y-171069000D03*
X91017000Y-171069000D03*
D21*
X97086000Y-156591000D03*
X97986000Y-156591000D03*
X100896000Y-160401000D03*
X101796000Y-160401000D03*
X101208000Y-158623000D03*
X102108000Y-158623000D03*
X103817000Y-160401000D03*
X104717000Y-160401000D03*
X96001000Y-166624000D03*
X96901000Y-166624000D03*
X90990000Y-163068000D03*
X91890000Y-163068000D03*
X102928000Y-156591000D03*
X103828000Y-156591000D03*
X90990000Y-160655000D03*
X91890000Y-160655000D03*
D22*
X101219000Y-168841000D03*
X101219000Y-169741000D03*
D21*
X94938000Y-162179000D03*
X94038000Y-162179000D03*
X108135000Y-162560000D03*
X109035000Y-162560000D03*
X102928000Y-169672000D03*
X103828000Y-169672000D03*
X103182000Y-164719000D03*
X104082000Y-164719000D03*
X101912000Y-162560000D03*
X102812000Y-162560000D03*
X106172000Y-164719000D03*
X107072000Y-164719000D03*
X99637000Y-162560000D03*
X98737000Y-162560000D03*
X106934000Y-154813000D03*
X107834000Y-154813000D03*
X107892000Y-153162000D03*
X106992000Y-153162000D03*
D22*
X107315000Y-151326000D03*
X107315000Y-150426000D03*
X112141000Y-155252000D03*
X112141000Y-156152000D03*
D21*
X114750000Y-156083000D03*
X113850000Y-156083000D03*
X112845000Y-158115000D03*
X111945000Y-158115000D03*
D26*
X96343000Y-168260000D03*
X96343000Y-168910000D03*
X96343000Y-169560000D03*
X96343000Y-170210000D03*
X98933000Y-170210000D03*
X98933000Y-169560000D03*
X98933000Y-168910000D03*
X98933000Y-168260000D03*
D27*
X95392000Y-157607000D03*
X94742000Y-157607000D03*
X94092000Y-157607000D03*
X93442000Y-157607000D03*
X93442000Y-160197000D03*
X94092000Y-160197000D03*
X94742000Y-160197000D03*
X95392000Y-160197000D03*
X109758000Y-157811000D03*
X109108000Y-157811000D03*
X108458000Y-157811000D03*
X107808000Y-157811000D03*
X107808000Y-160401000D03*
X108458000Y-160401000D03*
X109108000Y-160401000D03*
X109758000Y-160401000D03*
D28*
X110449000Y-150790000D03*
X110449000Y-151440000D03*
X110449000Y-152090000D03*
X110449000Y-152740000D03*
X114849000Y-152740000D03*
X114849000Y-152090000D03*
X114849000Y-151440000D03*
X114849000Y-150790000D03*
D29*
X114361000Y-168284000D03*
X112461000Y-168284000D03*
X113411000Y-170434000D03*
D30*
X92032000Y-169225000D03*
X92032000Y-168275000D03*
X92032000Y-167325000D03*
X89832000Y-167325000D03*
X89832000Y-169225000D03*
X89832000Y-168275000D03*
D31*
X105969000Y-167443000D03*
D32*
X105920000Y-170180000D03*
X107950000Y-170180000D03*
D31*
X107901000Y-167443000D03*
D33*
X106935000Y-167443000D03*
D34*
X106935000Y-169546000D03*
D20*
X117179000Y-168910000D03*
X118279000Y-168910000D03*
X117052000Y-162433000D03*
X118152000Y-162433000D03*
X117052000Y-160655000D03*
X118152000Y-160655000D03*
D21*
X117925000Y-148844000D03*
X117025000Y-148844000D03*
D35*
X118171000Y-156296000D03*
X117221000Y-156296000D03*
X116271000Y-156296000D03*
X116271000Y-158496000D03*
X118171000Y-158496000D03*
D20*
X103971000Y-148717000D03*
X105071000Y-148717000D03*
X105368000Y-143002000D03*
X106468000Y-143002000D03*
D36*
X103870760Y-152714960D03*
X104521000Y-152714960D03*
X105171240Y-152714960D03*
X105171240Y-150815040D03*
X104521000Y-150815040D03*
X103870760Y-150815040D03*
X103870760Y-146745960D03*
X104521000Y-146745960D03*
X105171240Y-146745960D03*
X105171240Y-144846040D03*
X104521000Y-144846040D03*
X103870760Y-144846040D03*
D37*
X113000000Y-143256000D03*
X113650000Y-143256000D03*
X114300000Y-143256000D03*
X114950000Y-143256000D03*
X115600000Y-143256000D03*
D38*
X111200000Y-142931000D03*
X117400000Y-142931000D03*
D39*
X118400000Y-140581000D03*
D40*
X115150000Y-140581000D03*
X113450000Y-140581000D03*
D39*
X110200000Y-140581000D03*
D22*
X108966000Y-148024000D03*
X108966000Y-147124000D03*
D41*
X117094000Y-166751000D03*
X118044000Y-166751000D03*
X118994000Y-166751000D03*
X118994000Y-164401000D03*
X117094000Y-164401000D03*
M02*
