M48
;DRILL file {KiCad 4.0.2+dfsg1-stable} date Wed 22 Jun 2016 02:56:28 PM EDT
;FORMAT={2:4/ absolute / inch / suppress leading zeros}
FMAT,2
INCH,TZ
T1C0.008
T2C0.010
T3C0.015
T4C0.024
T5C0.063
%
G90
G05
M72
T1
X34400Y-61650
X34600Y-64650
X34850Y-55900
X34950Y-58550
X35350Y-65500
X35950Y-60450
X36200Y-62050
X36267Y-65450
X36450Y-64600
X36550Y-63700
X36750Y-66350
X37050Y-61450
X37250Y-67400
X37300Y-59750
X37350Y-55000
X37650Y-58342
X37650Y-60150
X37650Y-60550
X37800Y-56650
X37950Y-62050
X37950Y-67400
X38000Y-60350
X38100Y-57850
X38150Y-65200
X38200Y-63650
X38250Y-55500
X38300Y-64000
X38450Y-66600
X38650Y-55250
X38700Y-64550
X38850Y-65250
X38950Y-67450
X39200Y-62850
X39300Y-61250
X39450Y-66000
X39800Y-66100
X39950Y-58750
X40000Y-57050
X40150Y-64500
X40200Y-66200
X40300Y-61300
X40400Y-59850
X40500Y-59350
X40550Y-60150
X40550Y-62800
X40600Y-60700
X40900Y-56550
X41200Y-58950
X41350Y-67350
X41500Y-55850
X41500Y-61350
X41750Y-56750
X41750Y-57800
X42050Y-61450
X42050Y-63150
X42050Y-65350
X42150Y-58250
X42150Y-58550
X42350Y-56500
X42550Y-65450
X42650Y-59550
X42850Y-67350
X42872Y-59622
X42900Y-61300
X43000Y-64400
X43300Y-58450
X43500Y-59000
X43500Y-60800
X43600Y-63800
X43712Y-62650
X43750Y-57000
X44150Y-57500
X44150Y-60650
X44200Y-64250
X44550Y-60600
X44650Y-60150
X45200Y-60550
X45250Y-59000
X45450Y-62800
X45450Y-65900
X45950Y-57700
X46100Y-63650
X46250Y-57000
X46450Y-65100
X46800Y-58950
T2
X43950Y-66950
T3
X36800Y-67350
X44900Y-64600
X45150Y-67050
X45500Y-66250
T4
X42100Y-66750
T5
X41698Y-55200
X42100Y-57200
X42486Y-55200
T0
M30
