G04 #@! TF.FileFunction,Copper,L2,Inr,Signal*
%FSLAX46Y46*%
G04 Gerber Fmt 4.6, Leading zero omitted, Abs format (unit mm)*
G04 Created by KiCad (PCBNEW 4.0.0-stable) date Thursday, June 23, 2016 'AMt' 11:02:30 AM*
%MOMM*%
G01*
G04 APERTURE LIST*
%ADD10C,0.100000*%
%ADD11C,0.406400*%
%ADD12C,0.762000*%
%ADD13C,0.508000*%
%ADD14C,0.203200*%
%ADD15C,0.254000*%
G04 APERTURE END LIST*
D10*
D11*
X92117000Y-166243000D03*
X108966000Y-155702000D03*
D12*
X93472000Y-171069000D03*
D11*
X110744000Y-162052000D03*
X96012000Y-143891000D03*
X116713000Y-146558000D03*
X107061000Y-147955000D03*
X112141000Y-146050000D03*
X105410000Y-141859000D03*
X117094000Y-161671000D03*
X108077000Y-166243000D03*
D12*
X115570000Y-168275000D03*
D11*
X98298000Y-163957000D03*
X97028000Y-161671000D03*
X102108000Y-168148000D03*
X87884000Y-164211000D03*
X108331000Y-151257000D03*
X102362000Y-155702000D03*
X94742000Y-151765000D03*
X96520000Y-153289000D03*
X94615000Y-171196000D03*
X113157000Y-153924000D03*
X96774000Y-146939000D03*
X110490000Y-154432000D03*
X102997000Y-159512000D03*
X109220000Y-163576000D03*
X112268000Y-163195000D03*
X96901000Y-165608000D03*
X98679000Y-165735000D03*
X97663000Y-169164000D03*
X92583000Y-164084000D03*
X108839000Y-171069000D03*
X105029000Y-171069000D03*
D12*
X114681000Y-170307000D03*
D11*
X91948000Y-157607000D03*
X107569000Y-143510000D03*
X117475000Y-144780000D03*
X111125000Y-144780000D03*
X91313000Y-153543000D03*
X114808000Y-153797000D03*
X105410000Y-155829000D03*
X88519000Y-141986000D03*
X88773000Y-148717000D03*
X98171000Y-140335000D03*
X100203000Y-167640000D03*
X101981000Y-163830000D03*
X99568000Y-159639000D03*
X107061000Y-148717000D03*
X101600000Y-144907000D03*
X102616000Y-152019000D03*
X117983000Y-165354000D03*
X114935000Y-149860000D03*
X115443000Y-167386000D03*
X93345000Y-168529000D03*
X96393000Y-171196000D03*
X111029000Y-159131000D03*
X101092000Y-167894000D03*
X99822000Y-155575000D03*
X97155000Y-140970000D03*
X102870000Y-150749000D03*
X103886000Y-143637000D03*
X94869000Y-139700000D03*
X95631000Y-148189300D03*
X96393000Y-157607000D03*
X94107000Y-156083000D03*
X106807000Y-160401000D03*
X106807000Y-156083000D03*
X113411000Y-152781000D03*
X106807000Y-165989000D03*
X92837000Y-161798000D03*
X108895000Y-151440000D03*
D13*
X111633000Y-170053000D03*
D11*
X98933000Y-171323000D03*
X97282000Y-162560000D03*
X110490000Y-149860000D03*
X89789000Y-166370000D03*
X102997000Y-152781000D03*
X87376000Y-156591000D03*
X95631000Y-152781000D03*
X101473000Y-149225000D03*
X95631000Y-153797000D03*
X112141000Y-154051000D03*
D12*
X114046000Y-164084000D03*
D11*
X118872000Y-149733000D03*
X115443000Y-159512000D03*
X106045000Y-146812000D03*
X106045000Y-144145000D03*
X104648000Y-149733000D03*
X103124000Y-154178000D03*
X109982000Y-148463000D03*
D14*
X100203000Y-167640000D02*
X100203000Y-167927368D01*
X100203000Y-167927368D02*
X100626833Y-168351201D01*
X100626833Y-168351201D02*
X101904799Y-168351201D01*
X101904799Y-168351201D02*
X102108000Y-168148000D01*
X92583000Y-164084000D02*
X88011000Y-164084000D01*
X88011000Y-164084000D02*
X87884000Y-164211000D01*
X107061000Y-148717000D02*
X107061000Y-149987000D01*
X107061000Y-149987000D02*
X108331000Y-151257000D01*
X102997000Y-159512000D02*
X102997000Y-156337000D01*
X102997000Y-156337000D02*
X102362000Y-155702000D01*
X96520000Y-153289000D02*
X95462342Y-153289000D01*
X95462342Y-153289000D02*
X94742000Y-152568658D01*
X94742000Y-152568658D02*
X94742000Y-151765000D01*
X91313000Y-153543000D02*
X91617790Y-153238210D01*
X91617790Y-153238210D02*
X96469210Y-153238210D01*
X96469210Y-153238210D02*
X96520000Y-153289000D01*
X110490000Y-154432000D02*
X110693199Y-154635199D01*
X110693199Y-154635199D02*
X112445801Y-154635199D01*
X112445801Y-154635199D02*
X113157000Y-153924000D01*
X114935000Y-149860000D02*
X110490000Y-154305000D01*
X110490000Y-154305000D02*
X110490000Y-154432000D01*
X99568000Y-159639000D02*
X102870000Y-159639000D01*
X102870000Y-159639000D02*
X102997000Y-159512000D01*
X112268000Y-163195000D02*
X109601000Y-163195000D01*
X109601000Y-163195000D02*
X109220000Y-163576000D01*
X98679000Y-165735000D02*
X97028000Y-165735000D01*
X97028000Y-165735000D02*
X96901000Y-165608000D01*
X100203000Y-167640000D02*
X100203000Y-167259000D01*
X100203000Y-167259000D02*
X98679000Y-165735000D01*
X96393000Y-171196000D02*
X96393000Y-170434000D01*
X96393000Y-170434000D02*
X97663000Y-169164000D01*
X93345000Y-168529000D02*
X93345000Y-164846000D01*
X93345000Y-164846000D02*
X92583000Y-164084000D01*
X101981000Y-163830000D02*
X101650799Y-164160201D01*
D15*
G36*
X105303368Y-139292395D02*
X104999463Y-139595771D01*
X104834787Y-139992352D01*
X104834413Y-140421764D01*
X104998395Y-140818632D01*
X105301771Y-141122537D01*
X105698352Y-141287213D01*
X106127764Y-141287587D01*
X106524632Y-141123605D01*
X106828537Y-140820229D01*
X106914007Y-140614396D01*
X106998395Y-140818632D01*
X107301771Y-141122537D01*
X107698352Y-141287213D01*
X108127764Y-141287587D01*
X108524632Y-141123605D01*
X108828537Y-140820229D01*
X108993213Y-140423648D01*
X108993587Y-139994236D01*
X108829605Y-139597368D01*
X108526229Y-139293463D01*
X108217821Y-139165400D01*
X108947443Y-139165400D01*
X108961868Y-139237922D01*
X109022434Y-139328566D01*
X109113078Y-139389132D01*
X109220000Y-139410400D01*
X111220600Y-139410400D01*
X111220600Y-140630000D01*
X111225969Y-140656991D01*
X111225969Y-140684509D01*
X111254970Y-140830305D01*
X111254970Y-140830309D01*
X111265518Y-140855774D01*
X111296689Y-140931028D01*
X111296690Y-140931029D01*
X111379279Y-141054633D01*
X111379280Y-141054635D01*
X111417823Y-141093177D01*
X111456365Y-141131720D01*
X111456367Y-141131721D01*
X111579970Y-141214309D01*
X111579972Y-141214311D01*
X111579973Y-141214311D01*
X111680691Y-141256030D01*
X111680694Y-141256030D01*
X111826491Y-141285031D01*
X111854008Y-141285031D01*
X111881000Y-141290400D01*
X111969000Y-141290400D01*
X111995991Y-141285031D01*
X112023509Y-141285031D01*
X112169305Y-141256030D01*
X112169309Y-141256030D01*
X112228309Y-141231591D01*
X112270028Y-141214311D01*
X112270030Y-141214309D01*
X112393633Y-141131721D01*
X112393635Y-141131720D01*
X112432177Y-141093177D01*
X112470720Y-141054635D01*
X112470721Y-141054633D01*
X112553311Y-140931027D01*
X112595030Y-140830309D01*
X112595030Y-140830306D01*
X112624031Y-140684509D01*
X112624031Y-140656992D01*
X112629400Y-140630000D01*
X112629400Y-139410400D01*
X115970600Y-139410400D01*
X115970600Y-140630000D01*
X115975969Y-140656991D01*
X115975969Y-140684509D01*
X116004970Y-140830305D01*
X116004970Y-140830309D01*
X116015518Y-140855774D01*
X116046689Y-140931028D01*
X116046690Y-140931029D01*
X116129279Y-141054633D01*
X116129280Y-141054635D01*
X116167823Y-141093177D01*
X116206365Y-141131720D01*
X116206367Y-141131721D01*
X116329970Y-141214309D01*
X116329972Y-141214311D01*
X116329973Y-141214311D01*
X116430691Y-141256030D01*
X116430694Y-141256030D01*
X116576491Y-141285031D01*
X116604008Y-141285031D01*
X116631000Y-141290400D01*
X116719000Y-141290400D01*
X116745991Y-141285031D01*
X116773509Y-141285031D01*
X116919305Y-141256030D01*
X116919309Y-141256030D01*
X116978309Y-141231591D01*
X117020028Y-141214311D01*
X117020030Y-141214309D01*
X117143633Y-141131721D01*
X117143635Y-141131720D01*
X117182177Y-141093177D01*
X117220720Y-141054635D01*
X117220721Y-141054633D01*
X117303311Y-140931027D01*
X117345030Y-140830309D01*
X117345030Y-140830306D01*
X117374031Y-140684509D01*
X117374031Y-140656992D01*
X117379400Y-140630000D01*
X117379400Y-139410400D01*
X119380000Y-139410400D01*
X119406600Y-139405109D01*
X119406600Y-171476600D01*
X99391771Y-171476600D01*
X99415516Y-171419416D01*
X99415684Y-171227426D01*
X99342367Y-171049986D01*
X99206728Y-170914110D01*
X99029416Y-170840484D01*
X98837426Y-170840316D01*
X98659986Y-170913633D01*
X98524110Y-171049272D01*
X98450484Y-171226584D01*
X98450316Y-171418574D01*
X98474292Y-171476600D01*
X93998450Y-171476600D01*
X94031533Y-171443575D01*
X94132285Y-171200938D01*
X94132514Y-170938215D01*
X94032186Y-170695402D01*
X93846575Y-170509467D01*
X93603938Y-170408715D01*
X93341215Y-170408486D01*
X93098402Y-170508814D01*
X92912467Y-170694425D01*
X92811715Y-170937062D01*
X92811486Y-171199785D01*
X92911814Y-171442598D01*
X92945757Y-171476600D01*
X87095400Y-171476600D01*
X87095400Y-170158634D01*
X111099508Y-170158634D01*
X111180542Y-170354752D01*
X111330459Y-170504931D01*
X111526435Y-170586307D01*
X111738634Y-170586492D01*
X111934752Y-170505458D01*
X112084931Y-170355541D01*
X112166307Y-170159565D01*
X112166492Y-169947366D01*
X112085458Y-169751248D01*
X111935541Y-169601069D01*
X111739565Y-169519693D01*
X111527366Y-169519508D01*
X111331248Y-169600542D01*
X111181069Y-169750459D01*
X111099693Y-169946435D01*
X111099508Y-170158634D01*
X87095400Y-170158634D01*
X87095400Y-169661734D01*
X106350499Y-169661734D01*
X106439281Y-169876603D01*
X106603532Y-170041141D01*
X106818246Y-170130298D01*
X107050734Y-170130501D01*
X107265603Y-170041719D01*
X107430141Y-169877468D01*
X107519298Y-169662754D01*
X107519501Y-169430266D01*
X107430719Y-169215397D01*
X107266468Y-169050859D01*
X107051754Y-168961702D01*
X106819266Y-168961499D01*
X106604397Y-169050281D01*
X106439859Y-169214532D01*
X106350702Y-169429246D01*
X106350499Y-169661734D01*
X87095400Y-169661734D01*
X87095400Y-168405785D01*
X114909486Y-168405785D01*
X115009814Y-168648598D01*
X115195425Y-168834533D01*
X115438062Y-168935285D01*
X115700785Y-168935514D01*
X115943598Y-168835186D01*
X116129533Y-168649575D01*
X116230285Y-168406938D01*
X116230514Y-168144215D01*
X116130186Y-167901402D01*
X115944575Y-167715467D01*
X115701938Y-167614715D01*
X115439215Y-167614486D01*
X115196402Y-167714814D01*
X115010467Y-167900425D01*
X114909715Y-168143062D01*
X114909486Y-168405785D01*
X87095400Y-168405785D01*
X87095400Y-167989574D01*
X100609316Y-167989574D01*
X100682633Y-168167014D01*
X100818272Y-168302890D01*
X100995584Y-168376516D01*
X101187574Y-168376684D01*
X101365014Y-168303367D01*
X101500890Y-168167728D01*
X101574516Y-167990416D01*
X101574684Y-167798426D01*
X101501367Y-167620986D01*
X101365728Y-167485110D01*
X101188416Y-167411484D01*
X100996426Y-167411316D01*
X100818986Y-167484633D01*
X100683110Y-167620272D01*
X100609484Y-167797584D01*
X100609316Y-167989574D01*
X87095400Y-167989574D01*
X87095400Y-166465574D01*
X89306316Y-166465574D01*
X89379633Y-166643014D01*
X89515272Y-166778890D01*
X89692584Y-166852516D01*
X89884574Y-166852684D01*
X90062014Y-166779367D01*
X90197890Y-166643728D01*
X90271516Y-166466416D01*
X90271627Y-166338574D01*
X91634316Y-166338574D01*
X91707633Y-166516014D01*
X91843272Y-166651890D01*
X92020584Y-166725516D01*
X92212574Y-166725684D01*
X92390014Y-166652367D01*
X92525890Y-166516728D01*
X92599516Y-166339416D01*
X92599684Y-166147426D01*
X92573714Y-166084574D01*
X106324316Y-166084574D01*
X106397633Y-166262014D01*
X106533272Y-166397890D01*
X106710584Y-166471516D01*
X106902574Y-166471684D01*
X107080014Y-166398367D01*
X107139911Y-166338574D01*
X107594316Y-166338574D01*
X107667633Y-166516014D01*
X107803272Y-166651890D01*
X107980584Y-166725516D01*
X108172574Y-166725684D01*
X108350014Y-166652367D01*
X108485890Y-166516728D01*
X108559516Y-166339416D01*
X108559684Y-166147426D01*
X108486367Y-165969986D01*
X108350728Y-165834110D01*
X108173416Y-165760484D01*
X107981426Y-165760316D01*
X107803986Y-165833633D01*
X107668110Y-165969272D01*
X107594484Y-166146584D01*
X107594316Y-166338574D01*
X107139911Y-166338574D01*
X107215890Y-166262728D01*
X107289516Y-166085416D01*
X107289684Y-165893426D01*
X107216367Y-165715986D01*
X107080728Y-165580110D01*
X106903416Y-165506484D01*
X106711426Y-165506316D01*
X106533986Y-165579633D01*
X106398110Y-165715272D01*
X106324484Y-165892584D01*
X106324316Y-166084574D01*
X92573714Y-166084574D01*
X92526367Y-165969986D01*
X92390728Y-165834110D01*
X92213416Y-165760484D01*
X92021426Y-165760316D01*
X91843986Y-165833633D01*
X91708110Y-165969272D01*
X91634484Y-166146584D01*
X91634316Y-166338574D01*
X90271627Y-166338574D01*
X90271684Y-166274426D01*
X90198367Y-166096986D01*
X90062728Y-165961110D01*
X89885416Y-165887484D01*
X89693426Y-165887316D01*
X89515986Y-165960633D01*
X89380110Y-166096272D01*
X89306484Y-166273584D01*
X89306316Y-166465574D01*
X87095400Y-166465574D01*
X87095400Y-164052574D01*
X97815316Y-164052574D01*
X97888633Y-164230014D01*
X98024272Y-164365890D01*
X98201584Y-164439516D01*
X98393574Y-164439684D01*
X98571014Y-164366367D01*
X98706890Y-164230728D01*
X98713510Y-164214785D01*
X113385486Y-164214785D01*
X113485814Y-164457598D01*
X113671425Y-164643533D01*
X113914062Y-164744285D01*
X114176785Y-164744514D01*
X114419598Y-164644186D01*
X114605533Y-164458575D01*
X114706285Y-164215938D01*
X114706514Y-163953215D01*
X114606186Y-163710402D01*
X114420575Y-163524467D01*
X114177938Y-163423715D01*
X113915215Y-163423486D01*
X113672402Y-163523814D01*
X113486467Y-163709425D01*
X113385715Y-163952062D01*
X113385486Y-164214785D01*
X98713510Y-164214785D01*
X98780516Y-164053416D01*
X98780684Y-163861426D01*
X98707367Y-163683986D01*
X98571728Y-163548110D01*
X98394416Y-163474484D01*
X98202426Y-163474316D01*
X98024986Y-163547633D01*
X97889110Y-163683272D01*
X97815484Y-163860584D01*
X97815316Y-164052574D01*
X87095400Y-164052574D01*
X87095400Y-161893574D01*
X92354316Y-161893574D01*
X92427633Y-162071014D01*
X92563272Y-162206890D01*
X92740584Y-162280516D01*
X92932574Y-162280684D01*
X93110014Y-162207367D01*
X93245890Y-162071728D01*
X93319516Y-161894416D01*
X93319627Y-161766574D01*
X96545316Y-161766574D01*
X96618633Y-161944014D01*
X96754272Y-162079890D01*
X96931584Y-162153516D01*
X97006033Y-162153581D01*
X96873110Y-162286272D01*
X96799484Y-162463584D01*
X96799316Y-162655574D01*
X96872633Y-162833014D01*
X97008272Y-162968890D01*
X97185584Y-163042516D01*
X97377574Y-163042684D01*
X97555014Y-162969367D01*
X97690890Y-162833728D01*
X97764516Y-162656416D01*
X97764684Y-162464426D01*
X97691367Y-162286986D01*
X97555728Y-162151110D01*
X97547213Y-162147574D01*
X110261316Y-162147574D01*
X110334633Y-162325014D01*
X110470272Y-162460890D01*
X110647584Y-162534516D01*
X110839574Y-162534684D01*
X111017014Y-162461367D01*
X111152890Y-162325728D01*
X111226516Y-162148416D01*
X111226684Y-161956426D01*
X111153367Y-161778986D01*
X111140977Y-161766574D01*
X116611316Y-161766574D01*
X116684633Y-161944014D01*
X116820272Y-162079890D01*
X116997584Y-162153516D01*
X117189574Y-162153684D01*
X117367014Y-162080367D01*
X117502890Y-161944728D01*
X117576516Y-161767416D01*
X117576684Y-161575426D01*
X117503367Y-161397986D01*
X117367728Y-161262110D01*
X117190416Y-161188484D01*
X116998426Y-161188316D01*
X116820986Y-161261633D01*
X116685110Y-161397272D01*
X116611484Y-161574584D01*
X116611316Y-161766574D01*
X111140977Y-161766574D01*
X111017728Y-161643110D01*
X110840416Y-161569484D01*
X110648426Y-161569316D01*
X110470986Y-161642633D01*
X110335110Y-161778272D01*
X110261484Y-161955584D01*
X110261316Y-162147574D01*
X97547213Y-162147574D01*
X97378416Y-162077484D01*
X97303967Y-162077419D01*
X97436890Y-161944728D01*
X97510516Y-161767416D01*
X97510684Y-161575426D01*
X97437367Y-161397986D01*
X97301728Y-161262110D01*
X97124416Y-161188484D01*
X96932426Y-161188316D01*
X96754986Y-161261633D01*
X96619110Y-161397272D01*
X96545484Y-161574584D01*
X96545316Y-161766574D01*
X93319627Y-161766574D01*
X93319684Y-161702426D01*
X93246367Y-161524986D01*
X93110728Y-161389110D01*
X92933416Y-161315484D01*
X92741426Y-161315316D01*
X92563986Y-161388633D01*
X92428110Y-161524272D01*
X92354484Y-161701584D01*
X92354316Y-161893574D01*
X87095400Y-161893574D01*
X87095400Y-160496574D01*
X106324316Y-160496574D01*
X106397633Y-160674014D01*
X106533272Y-160809890D01*
X106710584Y-160883516D01*
X106902574Y-160883684D01*
X107080014Y-160810367D01*
X107215890Y-160674728D01*
X107289516Y-160497416D01*
X107289684Y-160305426D01*
X107216367Y-160127986D01*
X107080728Y-159992110D01*
X106903416Y-159918484D01*
X106711426Y-159918316D01*
X106533986Y-159991633D01*
X106398110Y-160127272D01*
X106324484Y-160304584D01*
X106324316Y-160496574D01*
X87095400Y-160496574D01*
X87095400Y-159226574D01*
X110546316Y-159226574D01*
X110619633Y-159404014D01*
X110755272Y-159539890D01*
X110932584Y-159613516D01*
X111124574Y-159613684D01*
X111139361Y-159607574D01*
X114960316Y-159607574D01*
X115033633Y-159785014D01*
X115169272Y-159920890D01*
X115346584Y-159994516D01*
X115538574Y-159994684D01*
X115716014Y-159921367D01*
X115851890Y-159785728D01*
X115925516Y-159608416D01*
X115925684Y-159416426D01*
X115852367Y-159238986D01*
X115716728Y-159103110D01*
X115539416Y-159029484D01*
X115347426Y-159029316D01*
X115169986Y-159102633D01*
X115034110Y-159238272D01*
X114960484Y-159415584D01*
X114960316Y-159607574D01*
X111139361Y-159607574D01*
X111302014Y-159540367D01*
X111437890Y-159404728D01*
X111511516Y-159227416D01*
X111511684Y-159035426D01*
X111438367Y-158857986D01*
X111302728Y-158722110D01*
X111125416Y-158648484D01*
X110933426Y-158648316D01*
X110755986Y-158721633D01*
X110620110Y-158857272D01*
X110546484Y-159034584D01*
X110546316Y-159226574D01*
X87095400Y-159226574D01*
X87095400Y-157702574D01*
X95910316Y-157702574D01*
X95983633Y-157880014D01*
X96119272Y-158015890D01*
X96296584Y-158089516D01*
X96488574Y-158089684D01*
X96666014Y-158016367D01*
X96801890Y-157880728D01*
X96875516Y-157703416D01*
X96875684Y-157511426D01*
X96802367Y-157333986D01*
X96666728Y-157198110D01*
X96489416Y-157124484D01*
X96297426Y-157124316D01*
X96119986Y-157197633D01*
X95984110Y-157333272D01*
X95910484Y-157510584D01*
X95910316Y-157702574D01*
X87095400Y-157702574D01*
X87095400Y-156993006D01*
X87102272Y-156999890D01*
X87279584Y-157073516D01*
X87471574Y-157073684D01*
X87649014Y-157000367D01*
X87784890Y-156864728D01*
X87858516Y-156687416D01*
X87858684Y-156495426D01*
X87785367Y-156317986D01*
X87649728Y-156182110D01*
X87641213Y-156178574D01*
X93624316Y-156178574D01*
X93697633Y-156356014D01*
X93833272Y-156491890D01*
X94010584Y-156565516D01*
X94202574Y-156565684D01*
X94380014Y-156492367D01*
X94515890Y-156356728D01*
X94589516Y-156179416D01*
X94589516Y-156178574D01*
X106324316Y-156178574D01*
X106397633Y-156356014D01*
X106533272Y-156491890D01*
X106710584Y-156565516D01*
X106902574Y-156565684D01*
X107080014Y-156492367D01*
X107215890Y-156356728D01*
X107289516Y-156179416D01*
X107289684Y-155987426D01*
X107216367Y-155809986D01*
X107203977Y-155797574D01*
X108483316Y-155797574D01*
X108556633Y-155975014D01*
X108692272Y-156110890D01*
X108869584Y-156184516D01*
X109061574Y-156184684D01*
X109239014Y-156111367D01*
X109374890Y-155975728D01*
X109448516Y-155798416D01*
X109448684Y-155606426D01*
X109375367Y-155428986D01*
X109239728Y-155293110D01*
X109062416Y-155219484D01*
X108870426Y-155219316D01*
X108692986Y-155292633D01*
X108557110Y-155428272D01*
X108483484Y-155605584D01*
X108483316Y-155797574D01*
X107203977Y-155797574D01*
X107080728Y-155674110D01*
X106903416Y-155600484D01*
X106711426Y-155600316D01*
X106533986Y-155673633D01*
X106398110Y-155809272D01*
X106324484Y-155986584D01*
X106324316Y-156178574D01*
X94589516Y-156178574D01*
X94589684Y-155987426D01*
X94516367Y-155809986D01*
X94380728Y-155674110D01*
X94372213Y-155670574D01*
X99339316Y-155670574D01*
X99412633Y-155848014D01*
X99548272Y-155983890D01*
X99725584Y-156057516D01*
X99917574Y-156057684D01*
X100095014Y-155984367D01*
X100230890Y-155848728D01*
X100304516Y-155671416D01*
X100304684Y-155479426D01*
X100231367Y-155301986D01*
X100095728Y-155166110D01*
X99918416Y-155092484D01*
X99726426Y-155092316D01*
X99548986Y-155165633D01*
X99413110Y-155301272D01*
X99339484Y-155478584D01*
X99339316Y-155670574D01*
X94372213Y-155670574D01*
X94203416Y-155600484D01*
X94011426Y-155600316D01*
X93833986Y-155673633D01*
X93698110Y-155809272D01*
X93624484Y-155986584D01*
X93624316Y-156178574D01*
X87641213Y-156178574D01*
X87472416Y-156108484D01*
X87280426Y-156108316D01*
X87102986Y-156181633D01*
X87095400Y-156189206D01*
X87095400Y-153892574D01*
X95148316Y-153892574D01*
X95221633Y-154070014D01*
X95357272Y-154205890D01*
X95534584Y-154279516D01*
X95726574Y-154279684D01*
X95741361Y-154273574D01*
X102641316Y-154273574D01*
X102714633Y-154451014D01*
X102850272Y-154586890D01*
X103027584Y-154660516D01*
X103219574Y-154660684D01*
X103397014Y-154587367D01*
X103532890Y-154451728D01*
X103606516Y-154274416D01*
X103606627Y-154146574D01*
X111658316Y-154146574D01*
X111731633Y-154324014D01*
X111867272Y-154459890D01*
X112044584Y-154533516D01*
X112236574Y-154533684D01*
X112414014Y-154460367D01*
X112549890Y-154324728D01*
X112623516Y-154147416D01*
X112623684Y-153955426D01*
X112550367Y-153777986D01*
X112414728Y-153642110D01*
X112237416Y-153568484D01*
X112045426Y-153568316D01*
X111867986Y-153641633D01*
X111732110Y-153777272D01*
X111658484Y-153954584D01*
X111658316Y-154146574D01*
X103606627Y-154146574D01*
X103606684Y-154082426D01*
X103533367Y-153904986D01*
X103397728Y-153769110D01*
X103220416Y-153695484D01*
X103028426Y-153695316D01*
X102850986Y-153768633D01*
X102715110Y-153904272D01*
X102641484Y-154081584D01*
X102641316Y-154273574D01*
X95741361Y-154273574D01*
X95904014Y-154206367D01*
X96039890Y-154070728D01*
X96113516Y-153893416D01*
X96113684Y-153701426D01*
X96040367Y-153523986D01*
X95904728Y-153388110D01*
X95727416Y-153314484D01*
X95535426Y-153314316D01*
X95357986Y-153387633D01*
X95222110Y-153523272D01*
X95148484Y-153700584D01*
X95148316Y-153892574D01*
X87095400Y-153892574D01*
X87095400Y-152876574D01*
X95148316Y-152876574D01*
X95221633Y-153054014D01*
X95357272Y-153189890D01*
X95534584Y-153263516D01*
X95726574Y-153263684D01*
X95904014Y-153190367D01*
X96039890Y-153054728D01*
X96113516Y-152877416D01*
X96113516Y-152876574D01*
X102514316Y-152876574D01*
X102587633Y-153054014D01*
X102723272Y-153189890D01*
X102900584Y-153263516D01*
X103092574Y-153263684D01*
X103270014Y-153190367D01*
X103405890Y-153054728D01*
X103479516Y-152877416D01*
X103479516Y-152876574D01*
X112928316Y-152876574D01*
X113001633Y-153054014D01*
X113137272Y-153189890D01*
X113314584Y-153263516D01*
X113506574Y-153263684D01*
X113684014Y-153190367D01*
X113819890Y-153054728D01*
X113893516Y-152877416D01*
X113893684Y-152685426D01*
X113820367Y-152507986D01*
X113684728Y-152372110D01*
X113507416Y-152298484D01*
X113315426Y-152298316D01*
X113137986Y-152371633D01*
X113002110Y-152507272D01*
X112928484Y-152684584D01*
X112928316Y-152876574D01*
X103479516Y-152876574D01*
X103479684Y-152685426D01*
X103406367Y-152507986D01*
X103270728Y-152372110D01*
X103093416Y-152298484D01*
X102901426Y-152298316D01*
X102723986Y-152371633D01*
X102588110Y-152507272D01*
X102514484Y-152684584D01*
X102514316Y-152876574D01*
X96113516Y-152876574D01*
X96113684Y-152685426D01*
X96040367Y-152507986D01*
X95904728Y-152372110D01*
X95727416Y-152298484D01*
X95535426Y-152298316D01*
X95357986Y-152371633D01*
X95222110Y-152507272D01*
X95148484Y-152684584D01*
X95148316Y-152876574D01*
X87095400Y-152876574D01*
X87095400Y-151535574D01*
X108412316Y-151535574D01*
X108485633Y-151713014D01*
X108621272Y-151848890D01*
X108798584Y-151922516D01*
X108990574Y-151922684D01*
X109168014Y-151849367D01*
X109303890Y-151713728D01*
X109377516Y-151536416D01*
X109377684Y-151344426D01*
X109304367Y-151166986D01*
X109168728Y-151031110D01*
X108991416Y-150957484D01*
X108799426Y-150957316D01*
X108621986Y-151030633D01*
X108486110Y-151166272D01*
X108412484Y-151343584D01*
X108412316Y-151535574D01*
X87095400Y-151535574D01*
X87095400Y-150844574D01*
X102387316Y-150844574D01*
X102460633Y-151022014D01*
X102596272Y-151157890D01*
X102773584Y-151231516D01*
X102965574Y-151231684D01*
X103143014Y-151158367D01*
X103278890Y-151022728D01*
X103352516Y-150845416D01*
X103352684Y-150653426D01*
X103279367Y-150475986D01*
X103143728Y-150340110D01*
X102966416Y-150266484D01*
X102774426Y-150266316D01*
X102596986Y-150339633D01*
X102461110Y-150475272D01*
X102387484Y-150652584D01*
X102387316Y-150844574D01*
X87095400Y-150844574D01*
X87095400Y-149828574D01*
X104165316Y-149828574D01*
X104238633Y-150006014D01*
X104374272Y-150141890D01*
X104551584Y-150215516D01*
X104743574Y-150215684D01*
X104921014Y-150142367D01*
X105056890Y-150006728D01*
X105078130Y-149955574D01*
X110007316Y-149955574D01*
X110080633Y-150133014D01*
X110216272Y-150268890D01*
X110393584Y-150342516D01*
X110585574Y-150342684D01*
X110763014Y-150269367D01*
X110898890Y-150133728D01*
X110972516Y-149956416D01*
X110972627Y-149828574D01*
X118389316Y-149828574D01*
X118462633Y-150006014D01*
X118598272Y-150141890D01*
X118775584Y-150215516D01*
X118967574Y-150215684D01*
X119145014Y-150142367D01*
X119280890Y-150006728D01*
X119354516Y-149829416D01*
X119354684Y-149637426D01*
X119281367Y-149459986D01*
X119145728Y-149324110D01*
X118968416Y-149250484D01*
X118776426Y-149250316D01*
X118598986Y-149323633D01*
X118463110Y-149459272D01*
X118389484Y-149636584D01*
X118389316Y-149828574D01*
X110972627Y-149828574D01*
X110972684Y-149764426D01*
X110899367Y-149586986D01*
X110763728Y-149451110D01*
X110586416Y-149377484D01*
X110394426Y-149377316D01*
X110216986Y-149450633D01*
X110081110Y-149586272D01*
X110007484Y-149763584D01*
X110007316Y-149955574D01*
X105078130Y-149955574D01*
X105130516Y-149829416D01*
X105130684Y-149637426D01*
X105057367Y-149459986D01*
X104921728Y-149324110D01*
X104744416Y-149250484D01*
X104552426Y-149250316D01*
X104374986Y-149323633D01*
X104239110Y-149459272D01*
X104165484Y-149636584D01*
X104165316Y-149828574D01*
X87095400Y-149828574D01*
X87095400Y-149320574D01*
X100990316Y-149320574D01*
X101063633Y-149498014D01*
X101199272Y-149633890D01*
X101376584Y-149707516D01*
X101568574Y-149707684D01*
X101746014Y-149634367D01*
X101881890Y-149498728D01*
X101955516Y-149321416D01*
X101955684Y-149129426D01*
X101882367Y-148951986D01*
X101746728Y-148816110D01*
X101569416Y-148742484D01*
X101377426Y-148742316D01*
X101199986Y-148815633D01*
X101064110Y-148951272D01*
X100990484Y-149128584D01*
X100990316Y-149320574D01*
X87095400Y-149320574D01*
X87095400Y-148284874D01*
X95148316Y-148284874D01*
X95221633Y-148462314D01*
X95357272Y-148598190D01*
X95534584Y-148671816D01*
X95726574Y-148671984D01*
X95904014Y-148598667D01*
X95944177Y-148558574D01*
X109499316Y-148558574D01*
X109572633Y-148736014D01*
X109708272Y-148871890D01*
X109885584Y-148945516D01*
X110077574Y-148945684D01*
X110255014Y-148872367D01*
X110390890Y-148736728D01*
X110464516Y-148559416D01*
X110464684Y-148367426D01*
X110391367Y-148189986D01*
X110255728Y-148054110D01*
X110078416Y-147980484D01*
X109886426Y-147980316D01*
X109708986Y-148053633D01*
X109573110Y-148189272D01*
X109499484Y-148366584D01*
X109499316Y-148558574D01*
X95944177Y-148558574D01*
X96039890Y-148463028D01*
X96113516Y-148285716D01*
X96113684Y-148093726D01*
X96095854Y-148050574D01*
X106578316Y-148050574D01*
X106651633Y-148228014D01*
X106787272Y-148363890D01*
X106964584Y-148437516D01*
X107156574Y-148437684D01*
X107334014Y-148364367D01*
X107469890Y-148228728D01*
X107543516Y-148051416D01*
X107543684Y-147859426D01*
X107470367Y-147681986D01*
X107334728Y-147546110D01*
X107157416Y-147472484D01*
X106965426Y-147472316D01*
X106787986Y-147545633D01*
X106652110Y-147681272D01*
X106578484Y-147858584D01*
X106578316Y-148050574D01*
X96095854Y-148050574D01*
X96040367Y-147916286D01*
X95904728Y-147780410D01*
X95727416Y-147706784D01*
X95535426Y-147706616D01*
X95357986Y-147779933D01*
X95222110Y-147915572D01*
X95148484Y-148092884D01*
X95148316Y-148284874D01*
X87095400Y-148284874D01*
X87095400Y-146907574D01*
X105562316Y-146907574D01*
X105635633Y-147085014D01*
X105771272Y-147220890D01*
X105948584Y-147294516D01*
X106140574Y-147294684D01*
X106318014Y-147221367D01*
X106453890Y-147085728D01*
X106527516Y-146908416D01*
X106527684Y-146716426D01*
X106501714Y-146653574D01*
X116230316Y-146653574D01*
X116303633Y-146831014D01*
X116439272Y-146966890D01*
X116616584Y-147040516D01*
X116808574Y-147040684D01*
X116986014Y-146967367D01*
X117121890Y-146831728D01*
X117195516Y-146654416D01*
X117195684Y-146462426D01*
X117122367Y-146284986D01*
X116986728Y-146149110D01*
X116809416Y-146075484D01*
X116617426Y-146075316D01*
X116439986Y-146148633D01*
X116304110Y-146284272D01*
X116230484Y-146461584D01*
X116230316Y-146653574D01*
X106501714Y-146653574D01*
X106454367Y-146538986D01*
X106318728Y-146403110D01*
X106141416Y-146329484D01*
X105949426Y-146329316D01*
X105771986Y-146402633D01*
X105636110Y-146538272D01*
X105562484Y-146715584D01*
X105562316Y-146907574D01*
X87095400Y-146907574D01*
X87095400Y-143986574D01*
X95529316Y-143986574D01*
X95602633Y-144164014D01*
X95738272Y-144299890D01*
X95915584Y-144373516D01*
X96107574Y-144373684D01*
X96285014Y-144300367D01*
X96344911Y-144240574D01*
X105562316Y-144240574D01*
X105635633Y-144418014D01*
X105771272Y-144553890D01*
X105948584Y-144627516D01*
X106067698Y-144627620D01*
X106019463Y-144675771D01*
X105854787Y-145072352D01*
X105854413Y-145501764D01*
X106018395Y-145898632D01*
X106321771Y-146202537D01*
X106718352Y-146367213D01*
X107147764Y-146367587D01*
X107544632Y-146203605D01*
X107602764Y-146145574D01*
X111658316Y-146145574D01*
X111731633Y-146323014D01*
X111867272Y-146458890D01*
X112044584Y-146532516D01*
X112236574Y-146532684D01*
X112414014Y-146459367D01*
X112549890Y-146323728D01*
X112623516Y-146146416D01*
X112623684Y-145954426D01*
X112550367Y-145776986D01*
X112414728Y-145641110D01*
X112237416Y-145567484D01*
X112045426Y-145567316D01*
X111867986Y-145640633D01*
X111732110Y-145776272D01*
X111658484Y-145953584D01*
X111658316Y-146145574D01*
X107602764Y-146145574D01*
X107848537Y-145900229D01*
X108013213Y-145503648D01*
X108013587Y-145074236D01*
X107849605Y-144677368D01*
X107546229Y-144373463D01*
X107149648Y-144208787D01*
X106720236Y-144208413D01*
X106504145Y-144297700D01*
X106527516Y-144241416D01*
X106527684Y-144049426D01*
X106454367Y-143871986D01*
X106318728Y-143736110D01*
X106141416Y-143662484D01*
X105949426Y-143662316D01*
X105771986Y-143735633D01*
X105636110Y-143871272D01*
X105562484Y-144048584D01*
X105562316Y-144240574D01*
X96344911Y-144240574D01*
X96420890Y-144164728D01*
X96494516Y-143987416D01*
X96494684Y-143795426D01*
X96468714Y-143732574D01*
X103403316Y-143732574D01*
X103476633Y-143910014D01*
X103612272Y-144045890D01*
X103789584Y-144119516D01*
X103981574Y-144119684D01*
X104159014Y-144046367D01*
X104294890Y-143910728D01*
X104368516Y-143733416D01*
X104368684Y-143541426D01*
X104295367Y-143363986D01*
X104159728Y-143228110D01*
X103982416Y-143154484D01*
X103790426Y-143154316D01*
X103612986Y-143227633D01*
X103477110Y-143363272D01*
X103403484Y-143540584D01*
X103403316Y-143732574D01*
X96468714Y-143732574D01*
X96421367Y-143617986D01*
X96285728Y-143482110D01*
X96108416Y-143408484D01*
X95916426Y-143408316D01*
X95738986Y-143481633D01*
X95603110Y-143617272D01*
X95529484Y-143794584D01*
X95529316Y-143986574D01*
X87095400Y-143986574D01*
X87095400Y-141954574D01*
X104927316Y-141954574D01*
X105000633Y-142132014D01*
X105136272Y-142267890D01*
X105313584Y-142341516D01*
X105505574Y-142341684D01*
X105683014Y-142268367D01*
X105818890Y-142132728D01*
X105892516Y-141955416D01*
X105892684Y-141763426D01*
X105819367Y-141585986D01*
X105683728Y-141450110D01*
X105506416Y-141376484D01*
X105314426Y-141376316D01*
X105136986Y-141449633D01*
X105001110Y-141585272D01*
X104927484Y-141762584D01*
X104927316Y-141954574D01*
X87095400Y-141954574D01*
X87095400Y-141065574D01*
X96672316Y-141065574D01*
X96745633Y-141243014D01*
X96881272Y-141378890D01*
X97058584Y-141452516D01*
X97250574Y-141452684D01*
X97428014Y-141379367D01*
X97563890Y-141243728D01*
X97637516Y-141066416D01*
X97637684Y-140874426D01*
X97564367Y-140696986D01*
X97428728Y-140561110D01*
X97251416Y-140487484D01*
X97059426Y-140487316D01*
X96881986Y-140560633D01*
X96746110Y-140696272D01*
X96672484Y-140873584D01*
X96672316Y-141065574D01*
X87095400Y-141065574D01*
X87095400Y-139795574D01*
X94386316Y-139795574D01*
X94459633Y-139973014D01*
X94595272Y-140108890D01*
X94772584Y-140182516D01*
X94964574Y-140182684D01*
X95142014Y-140109367D01*
X95277890Y-139973728D01*
X95351516Y-139796416D01*
X95351684Y-139604426D01*
X95278367Y-139426986D01*
X95142728Y-139291110D01*
X94965416Y-139217484D01*
X94773426Y-139217316D01*
X94595986Y-139290633D01*
X94460110Y-139426272D01*
X94386484Y-139603584D01*
X94386316Y-139795574D01*
X87095400Y-139795574D01*
X87095400Y-139165400D01*
X105610720Y-139165400D01*
X105303368Y-139292395D01*
X105303368Y-139292395D01*
G37*
X105303368Y-139292395D02*
X104999463Y-139595771D01*
X104834787Y-139992352D01*
X104834413Y-140421764D01*
X104998395Y-140818632D01*
X105301771Y-141122537D01*
X105698352Y-141287213D01*
X106127764Y-141287587D01*
X106524632Y-141123605D01*
X106828537Y-140820229D01*
X106914007Y-140614396D01*
X106998395Y-140818632D01*
X107301771Y-141122537D01*
X107698352Y-141287213D01*
X108127764Y-141287587D01*
X108524632Y-141123605D01*
X108828537Y-140820229D01*
X108993213Y-140423648D01*
X108993587Y-139994236D01*
X108829605Y-139597368D01*
X108526229Y-139293463D01*
X108217821Y-139165400D01*
X108947443Y-139165400D01*
X108961868Y-139237922D01*
X109022434Y-139328566D01*
X109113078Y-139389132D01*
X109220000Y-139410400D01*
X111220600Y-139410400D01*
X111220600Y-140630000D01*
X111225969Y-140656991D01*
X111225969Y-140684509D01*
X111254970Y-140830305D01*
X111254970Y-140830309D01*
X111265518Y-140855774D01*
X111296689Y-140931028D01*
X111296690Y-140931029D01*
X111379279Y-141054633D01*
X111379280Y-141054635D01*
X111417823Y-141093177D01*
X111456365Y-141131720D01*
X111456367Y-141131721D01*
X111579970Y-141214309D01*
X111579972Y-141214311D01*
X111579973Y-141214311D01*
X111680691Y-141256030D01*
X111680694Y-141256030D01*
X111826491Y-141285031D01*
X111854008Y-141285031D01*
X111881000Y-141290400D01*
X111969000Y-141290400D01*
X111995991Y-141285031D01*
X112023509Y-141285031D01*
X112169305Y-141256030D01*
X112169309Y-141256030D01*
X112228309Y-141231591D01*
X112270028Y-141214311D01*
X112270030Y-141214309D01*
X112393633Y-141131721D01*
X112393635Y-141131720D01*
X112432177Y-141093177D01*
X112470720Y-141054635D01*
X112470721Y-141054633D01*
X112553311Y-140931027D01*
X112595030Y-140830309D01*
X112595030Y-140830306D01*
X112624031Y-140684509D01*
X112624031Y-140656992D01*
X112629400Y-140630000D01*
X112629400Y-139410400D01*
X115970600Y-139410400D01*
X115970600Y-140630000D01*
X115975969Y-140656991D01*
X115975969Y-140684509D01*
X116004970Y-140830305D01*
X116004970Y-140830309D01*
X116015518Y-140855774D01*
X116046689Y-140931028D01*
X116046690Y-140931029D01*
X116129279Y-141054633D01*
X116129280Y-141054635D01*
X116167823Y-141093177D01*
X116206365Y-141131720D01*
X116206367Y-141131721D01*
X116329970Y-141214309D01*
X116329972Y-141214311D01*
X116329973Y-141214311D01*
X116430691Y-141256030D01*
X116430694Y-141256030D01*
X116576491Y-141285031D01*
X116604008Y-141285031D01*
X116631000Y-141290400D01*
X116719000Y-141290400D01*
X116745991Y-141285031D01*
X116773509Y-141285031D01*
X116919305Y-141256030D01*
X116919309Y-141256030D01*
X116978309Y-141231591D01*
X117020028Y-141214311D01*
X117020030Y-141214309D01*
X117143633Y-141131721D01*
X117143635Y-141131720D01*
X117182177Y-141093177D01*
X117220720Y-141054635D01*
X117220721Y-141054633D01*
X117303311Y-140931027D01*
X117345030Y-140830309D01*
X117345030Y-140830306D01*
X117374031Y-140684509D01*
X117374031Y-140656992D01*
X117379400Y-140630000D01*
X117379400Y-139410400D01*
X119380000Y-139410400D01*
X119406600Y-139405109D01*
X119406600Y-171476600D01*
X99391771Y-171476600D01*
X99415516Y-171419416D01*
X99415684Y-171227426D01*
X99342367Y-171049986D01*
X99206728Y-170914110D01*
X99029416Y-170840484D01*
X98837426Y-170840316D01*
X98659986Y-170913633D01*
X98524110Y-171049272D01*
X98450484Y-171226584D01*
X98450316Y-171418574D01*
X98474292Y-171476600D01*
X93998450Y-171476600D01*
X94031533Y-171443575D01*
X94132285Y-171200938D01*
X94132514Y-170938215D01*
X94032186Y-170695402D01*
X93846575Y-170509467D01*
X93603938Y-170408715D01*
X93341215Y-170408486D01*
X93098402Y-170508814D01*
X92912467Y-170694425D01*
X92811715Y-170937062D01*
X92811486Y-171199785D01*
X92911814Y-171442598D01*
X92945757Y-171476600D01*
X87095400Y-171476600D01*
X87095400Y-170158634D01*
X111099508Y-170158634D01*
X111180542Y-170354752D01*
X111330459Y-170504931D01*
X111526435Y-170586307D01*
X111738634Y-170586492D01*
X111934752Y-170505458D01*
X112084931Y-170355541D01*
X112166307Y-170159565D01*
X112166492Y-169947366D01*
X112085458Y-169751248D01*
X111935541Y-169601069D01*
X111739565Y-169519693D01*
X111527366Y-169519508D01*
X111331248Y-169600542D01*
X111181069Y-169750459D01*
X111099693Y-169946435D01*
X111099508Y-170158634D01*
X87095400Y-170158634D01*
X87095400Y-169661734D01*
X106350499Y-169661734D01*
X106439281Y-169876603D01*
X106603532Y-170041141D01*
X106818246Y-170130298D01*
X107050734Y-170130501D01*
X107265603Y-170041719D01*
X107430141Y-169877468D01*
X107519298Y-169662754D01*
X107519501Y-169430266D01*
X107430719Y-169215397D01*
X107266468Y-169050859D01*
X107051754Y-168961702D01*
X106819266Y-168961499D01*
X106604397Y-169050281D01*
X106439859Y-169214532D01*
X106350702Y-169429246D01*
X106350499Y-169661734D01*
X87095400Y-169661734D01*
X87095400Y-168405785D01*
X114909486Y-168405785D01*
X115009814Y-168648598D01*
X115195425Y-168834533D01*
X115438062Y-168935285D01*
X115700785Y-168935514D01*
X115943598Y-168835186D01*
X116129533Y-168649575D01*
X116230285Y-168406938D01*
X116230514Y-168144215D01*
X116130186Y-167901402D01*
X115944575Y-167715467D01*
X115701938Y-167614715D01*
X115439215Y-167614486D01*
X115196402Y-167714814D01*
X115010467Y-167900425D01*
X114909715Y-168143062D01*
X114909486Y-168405785D01*
X87095400Y-168405785D01*
X87095400Y-167989574D01*
X100609316Y-167989574D01*
X100682633Y-168167014D01*
X100818272Y-168302890D01*
X100995584Y-168376516D01*
X101187574Y-168376684D01*
X101365014Y-168303367D01*
X101500890Y-168167728D01*
X101574516Y-167990416D01*
X101574684Y-167798426D01*
X101501367Y-167620986D01*
X101365728Y-167485110D01*
X101188416Y-167411484D01*
X100996426Y-167411316D01*
X100818986Y-167484633D01*
X100683110Y-167620272D01*
X100609484Y-167797584D01*
X100609316Y-167989574D01*
X87095400Y-167989574D01*
X87095400Y-166465574D01*
X89306316Y-166465574D01*
X89379633Y-166643014D01*
X89515272Y-166778890D01*
X89692584Y-166852516D01*
X89884574Y-166852684D01*
X90062014Y-166779367D01*
X90197890Y-166643728D01*
X90271516Y-166466416D01*
X90271627Y-166338574D01*
X91634316Y-166338574D01*
X91707633Y-166516014D01*
X91843272Y-166651890D01*
X92020584Y-166725516D01*
X92212574Y-166725684D01*
X92390014Y-166652367D01*
X92525890Y-166516728D01*
X92599516Y-166339416D01*
X92599684Y-166147426D01*
X92573714Y-166084574D01*
X106324316Y-166084574D01*
X106397633Y-166262014D01*
X106533272Y-166397890D01*
X106710584Y-166471516D01*
X106902574Y-166471684D01*
X107080014Y-166398367D01*
X107139911Y-166338574D01*
X107594316Y-166338574D01*
X107667633Y-166516014D01*
X107803272Y-166651890D01*
X107980584Y-166725516D01*
X108172574Y-166725684D01*
X108350014Y-166652367D01*
X108485890Y-166516728D01*
X108559516Y-166339416D01*
X108559684Y-166147426D01*
X108486367Y-165969986D01*
X108350728Y-165834110D01*
X108173416Y-165760484D01*
X107981426Y-165760316D01*
X107803986Y-165833633D01*
X107668110Y-165969272D01*
X107594484Y-166146584D01*
X107594316Y-166338574D01*
X107139911Y-166338574D01*
X107215890Y-166262728D01*
X107289516Y-166085416D01*
X107289684Y-165893426D01*
X107216367Y-165715986D01*
X107080728Y-165580110D01*
X106903416Y-165506484D01*
X106711426Y-165506316D01*
X106533986Y-165579633D01*
X106398110Y-165715272D01*
X106324484Y-165892584D01*
X106324316Y-166084574D01*
X92573714Y-166084574D01*
X92526367Y-165969986D01*
X92390728Y-165834110D01*
X92213416Y-165760484D01*
X92021426Y-165760316D01*
X91843986Y-165833633D01*
X91708110Y-165969272D01*
X91634484Y-166146584D01*
X91634316Y-166338574D01*
X90271627Y-166338574D01*
X90271684Y-166274426D01*
X90198367Y-166096986D01*
X90062728Y-165961110D01*
X89885416Y-165887484D01*
X89693426Y-165887316D01*
X89515986Y-165960633D01*
X89380110Y-166096272D01*
X89306484Y-166273584D01*
X89306316Y-166465574D01*
X87095400Y-166465574D01*
X87095400Y-164052574D01*
X97815316Y-164052574D01*
X97888633Y-164230014D01*
X98024272Y-164365890D01*
X98201584Y-164439516D01*
X98393574Y-164439684D01*
X98571014Y-164366367D01*
X98706890Y-164230728D01*
X98713510Y-164214785D01*
X113385486Y-164214785D01*
X113485814Y-164457598D01*
X113671425Y-164643533D01*
X113914062Y-164744285D01*
X114176785Y-164744514D01*
X114419598Y-164644186D01*
X114605533Y-164458575D01*
X114706285Y-164215938D01*
X114706514Y-163953215D01*
X114606186Y-163710402D01*
X114420575Y-163524467D01*
X114177938Y-163423715D01*
X113915215Y-163423486D01*
X113672402Y-163523814D01*
X113486467Y-163709425D01*
X113385715Y-163952062D01*
X113385486Y-164214785D01*
X98713510Y-164214785D01*
X98780516Y-164053416D01*
X98780684Y-163861426D01*
X98707367Y-163683986D01*
X98571728Y-163548110D01*
X98394416Y-163474484D01*
X98202426Y-163474316D01*
X98024986Y-163547633D01*
X97889110Y-163683272D01*
X97815484Y-163860584D01*
X97815316Y-164052574D01*
X87095400Y-164052574D01*
X87095400Y-161893574D01*
X92354316Y-161893574D01*
X92427633Y-162071014D01*
X92563272Y-162206890D01*
X92740584Y-162280516D01*
X92932574Y-162280684D01*
X93110014Y-162207367D01*
X93245890Y-162071728D01*
X93319516Y-161894416D01*
X93319627Y-161766574D01*
X96545316Y-161766574D01*
X96618633Y-161944014D01*
X96754272Y-162079890D01*
X96931584Y-162153516D01*
X97006033Y-162153581D01*
X96873110Y-162286272D01*
X96799484Y-162463584D01*
X96799316Y-162655574D01*
X96872633Y-162833014D01*
X97008272Y-162968890D01*
X97185584Y-163042516D01*
X97377574Y-163042684D01*
X97555014Y-162969367D01*
X97690890Y-162833728D01*
X97764516Y-162656416D01*
X97764684Y-162464426D01*
X97691367Y-162286986D01*
X97555728Y-162151110D01*
X97547213Y-162147574D01*
X110261316Y-162147574D01*
X110334633Y-162325014D01*
X110470272Y-162460890D01*
X110647584Y-162534516D01*
X110839574Y-162534684D01*
X111017014Y-162461367D01*
X111152890Y-162325728D01*
X111226516Y-162148416D01*
X111226684Y-161956426D01*
X111153367Y-161778986D01*
X111140977Y-161766574D01*
X116611316Y-161766574D01*
X116684633Y-161944014D01*
X116820272Y-162079890D01*
X116997584Y-162153516D01*
X117189574Y-162153684D01*
X117367014Y-162080367D01*
X117502890Y-161944728D01*
X117576516Y-161767416D01*
X117576684Y-161575426D01*
X117503367Y-161397986D01*
X117367728Y-161262110D01*
X117190416Y-161188484D01*
X116998426Y-161188316D01*
X116820986Y-161261633D01*
X116685110Y-161397272D01*
X116611484Y-161574584D01*
X116611316Y-161766574D01*
X111140977Y-161766574D01*
X111017728Y-161643110D01*
X110840416Y-161569484D01*
X110648426Y-161569316D01*
X110470986Y-161642633D01*
X110335110Y-161778272D01*
X110261484Y-161955584D01*
X110261316Y-162147574D01*
X97547213Y-162147574D01*
X97378416Y-162077484D01*
X97303967Y-162077419D01*
X97436890Y-161944728D01*
X97510516Y-161767416D01*
X97510684Y-161575426D01*
X97437367Y-161397986D01*
X97301728Y-161262110D01*
X97124416Y-161188484D01*
X96932426Y-161188316D01*
X96754986Y-161261633D01*
X96619110Y-161397272D01*
X96545484Y-161574584D01*
X96545316Y-161766574D01*
X93319627Y-161766574D01*
X93319684Y-161702426D01*
X93246367Y-161524986D01*
X93110728Y-161389110D01*
X92933416Y-161315484D01*
X92741426Y-161315316D01*
X92563986Y-161388633D01*
X92428110Y-161524272D01*
X92354484Y-161701584D01*
X92354316Y-161893574D01*
X87095400Y-161893574D01*
X87095400Y-160496574D01*
X106324316Y-160496574D01*
X106397633Y-160674014D01*
X106533272Y-160809890D01*
X106710584Y-160883516D01*
X106902574Y-160883684D01*
X107080014Y-160810367D01*
X107215890Y-160674728D01*
X107289516Y-160497416D01*
X107289684Y-160305426D01*
X107216367Y-160127986D01*
X107080728Y-159992110D01*
X106903416Y-159918484D01*
X106711426Y-159918316D01*
X106533986Y-159991633D01*
X106398110Y-160127272D01*
X106324484Y-160304584D01*
X106324316Y-160496574D01*
X87095400Y-160496574D01*
X87095400Y-159226574D01*
X110546316Y-159226574D01*
X110619633Y-159404014D01*
X110755272Y-159539890D01*
X110932584Y-159613516D01*
X111124574Y-159613684D01*
X111139361Y-159607574D01*
X114960316Y-159607574D01*
X115033633Y-159785014D01*
X115169272Y-159920890D01*
X115346584Y-159994516D01*
X115538574Y-159994684D01*
X115716014Y-159921367D01*
X115851890Y-159785728D01*
X115925516Y-159608416D01*
X115925684Y-159416426D01*
X115852367Y-159238986D01*
X115716728Y-159103110D01*
X115539416Y-159029484D01*
X115347426Y-159029316D01*
X115169986Y-159102633D01*
X115034110Y-159238272D01*
X114960484Y-159415584D01*
X114960316Y-159607574D01*
X111139361Y-159607574D01*
X111302014Y-159540367D01*
X111437890Y-159404728D01*
X111511516Y-159227416D01*
X111511684Y-159035426D01*
X111438367Y-158857986D01*
X111302728Y-158722110D01*
X111125416Y-158648484D01*
X110933426Y-158648316D01*
X110755986Y-158721633D01*
X110620110Y-158857272D01*
X110546484Y-159034584D01*
X110546316Y-159226574D01*
X87095400Y-159226574D01*
X87095400Y-157702574D01*
X95910316Y-157702574D01*
X95983633Y-157880014D01*
X96119272Y-158015890D01*
X96296584Y-158089516D01*
X96488574Y-158089684D01*
X96666014Y-158016367D01*
X96801890Y-157880728D01*
X96875516Y-157703416D01*
X96875684Y-157511426D01*
X96802367Y-157333986D01*
X96666728Y-157198110D01*
X96489416Y-157124484D01*
X96297426Y-157124316D01*
X96119986Y-157197633D01*
X95984110Y-157333272D01*
X95910484Y-157510584D01*
X95910316Y-157702574D01*
X87095400Y-157702574D01*
X87095400Y-156993006D01*
X87102272Y-156999890D01*
X87279584Y-157073516D01*
X87471574Y-157073684D01*
X87649014Y-157000367D01*
X87784890Y-156864728D01*
X87858516Y-156687416D01*
X87858684Y-156495426D01*
X87785367Y-156317986D01*
X87649728Y-156182110D01*
X87641213Y-156178574D01*
X93624316Y-156178574D01*
X93697633Y-156356014D01*
X93833272Y-156491890D01*
X94010584Y-156565516D01*
X94202574Y-156565684D01*
X94380014Y-156492367D01*
X94515890Y-156356728D01*
X94589516Y-156179416D01*
X94589516Y-156178574D01*
X106324316Y-156178574D01*
X106397633Y-156356014D01*
X106533272Y-156491890D01*
X106710584Y-156565516D01*
X106902574Y-156565684D01*
X107080014Y-156492367D01*
X107215890Y-156356728D01*
X107289516Y-156179416D01*
X107289684Y-155987426D01*
X107216367Y-155809986D01*
X107203977Y-155797574D01*
X108483316Y-155797574D01*
X108556633Y-155975014D01*
X108692272Y-156110890D01*
X108869584Y-156184516D01*
X109061574Y-156184684D01*
X109239014Y-156111367D01*
X109374890Y-155975728D01*
X109448516Y-155798416D01*
X109448684Y-155606426D01*
X109375367Y-155428986D01*
X109239728Y-155293110D01*
X109062416Y-155219484D01*
X108870426Y-155219316D01*
X108692986Y-155292633D01*
X108557110Y-155428272D01*
X108483484Y-155605584D01*
X108483316Y-155797574D01*
X107203977Y-155797574D01*
X107080728Y-155674110D01*
X106903416Y-155600484D01*
X106711426Y-155600316D01*
X106533986Y-155673633D01*
X106398110Y-155809272D01*
X106324484Y-155986584D01*
X106324316Y-156178574D01*
X94589516Y-156178574D01*
X94589684Y-155987426D01*
X94516367Y-155809986D01*
X94380728Y-155674110D01*
X94372213Y-155670574D01*
X99339316Y-155670574D01*
X99412633Y-155848014D01*
X99548272Y-155983890D01*
X99725584Y-156057516D01*
X99917574Y-156057684D01*
X100095014Y-155984367D01*
X100230890Y-155848728D01*
X100304516Y-155671416D01*
X100304684Y-155479426D01*
X100231367Y-155301986D01*
X100095728Y-155166110D01*
X99918416Y-155092484D01*
X99726426Y-155092316D01*
X99548986Y-155165633D01*
X99413110Y-155301272D01*
X99339484Y-155478584D01*
X99339316Y-155670574D01*
X94372213Y-155670574D01*
X94203416Y-155600484D01*
X94011426Y-155600316D01*
X93833986Y-155673633D01*
X93698110Y-155809272D01*
X93624484Y-155986584D01*
X93624316Y-156178574D01*
X87641213Y-156178574D01*
X87472416Y-156108484D01*
X87280426Y-156108316D01*
X87102986Y-156181633D01*
X87095400Y-156189206D01*
X87095400Y-153892574D01*
X95148316Y-153892574D01*
X95221633Y-154070014D01*
X95357272Y-154205890D01*
X95534584Y-154279516D01*
X95726574Y-154279684D01*
X95741361Y-154273574D01*
X102641316Y-154273574D01*
X102714633Y-154451014D01*
X102850272Y-154586890D01*
X103027584Y-154660516D01*
X103219574Y-154660684D01*
X103397014Y-154587367D01*
X103532890Y-154451728D01*
X103606516Y-154274416D01*
X103606627Y-154146574D01*
X111658316Y-154146574D01*
X111731633Y-154324014D01*
X111867272Y-154459890D01*
X112044584Y-154533516D01*
X112236574Y-154533684D01*
X112414014Y-154460367D01*
X112549890Y-154324728D01*
X112623516Y-154147416D01*
X112623684Y-153955426D01*
X112550367Y-153777986D01*
X112414728Y-153642110D01*
X112237416Y-153568484D01*
X112045426Y-153568316D01*
X111867986Y-153641633D01*
X111732110Y-153777272D01*
X111658484Y-153954584D01*
X111658316Y-154146574D01*
X103606627Y-154146574D01*
X103606684Y-154082426D01*
X103533367Y-153904986D01*
X103397728Y-153769110D01*
X103220416Y-153695484D01*
X103028426Y-153695316D01*
X102850986Y-153768633D01*
X102715110Y-153904272D01*
X102641484Y-154081584D01*
X102641316Y-154273574D01*
X95741361Y-154273574D01*
X95904014Y-154206367D01*
X96039890Y-154070728D01*
X96113516Y-153893416D01*
X96113684Y-153701426D01*
X96040367Y-153523986D01*
X95904728Y-153388110D01*
X95727416Y-153314484D01*
X95535426Y-153314316D01*
X95357986Y-153387633D01*
X95222110Y-153523272D01*
X95148484Y-153700584D01*
X95148316Y-153892574D01*
X87095400Y-153892574D01*
X87095400Y-152876574D01*
X95148316Y-152876574D01*
X95221633Y-153054014D01*
X95357272Y-153189890D01*
X95534584Y-153263516D01*
X95726574Y-153263684D01*
X95904014Y-153190367D01*
X96039890Y-153054728D01*
X96113516Y-152877416D01*
X96113516Y-152876574D01*
X102514316Y-152876574D01*
X102587633Y-153054014D01*
X102723272Y-153189890D01*
X102900584Y-153263516D01*
X103092574Y-153263684D01*
X103270014Y-153190367D01*
X103405890Y-153054728D01*
X103479516Y-152877416D01*
X103479516Y-152876574D01*
X112928316Y-152876574D01*
X113001633Y-153054014D01*
X113137272Y-153189890D01*
X113314584Y-153263516D01*
X113506574Y-153263684D01*
X113684014Y-153190367D01*
X113819890Y-153054728D01*
X113893516Y-152877416D01*
X113893684Y-152685426D01*
X113820367Y-152507986D01*
X113684728Y-152372110D01*
X113507416Y-152298484D01*
X113315426Y-152298316D01*
X113137986Y-152371633D01*
X113002110Y-152507272D01*
X112928484Y-152684584D01*
X112928316Y-152876574D01*
X103479516Y-152876574D01*
X103479684Y-152685426D01*
X103406367Y-152507986D01*
X103270728Y-152372110D01*
X103093416Y-152298484D01*
X102901426Y-152298316D01*
X102723986Y-152371633D01*
X102588110Y-152507272D01*
X102514484Y-152684584D01*
X102514316Y-152876574D01*
X96113516Y-152876574D01*
X96113684Y-152685426D01*
X96040367Y-152507986D01*
X95904728Y-152372110D01*
X95727416Y-152298484D01*
X95535426Y-152298316D01*
X95357986Y-152371633D01*
X95222110Y-152507272D01*
X95148484Y-152684584D01*
X95148316Y-152876574D01*
X87095400Y-152876574D01*
X87095400Y-151535574D01*
X108412316Y-151535574D01*
X108485633Y-151713014D01*
X108621272Y-151848890D01*
X108798584Y-151922516D01*
X108990574Y-151922684D01*
X109168014Y-151849367D01*
X109303890Y-151713728D01*
X109377516Y-151536416D01*
X109377684Y-151344426D01*
X109304367Y-151166986D01*
X109168728Y-151031110D01*
X108991416Y-150957484D01*
X108799426Y-150957316D01*
X108621986Y-151030633D01*
X108486110Y-151166272D01*
X108412484Y-151343584D01*
X108412316Y-151535574D01*
X87095400Y-151535574D01*
X87095400Y-150844574D01*
X102387316Y-150844574D01*
X102460633Y-151022014D01*
X102596272Y-151157890D01*
X102773584Y-151231516D01*
X102965574Y-151231684D01*
X103143014Y-151158367D01*
X103278890Y-151022728D01*
X103352516Y-150845416D01*
X103352684Y-150653426D01*
X103279367Y-150475986D01*
X103143728Y-150340110D01*
X102966416Y-150266484D01*
X102774426Y-150266316D01*
X102596986Y-150339633D01*
X102461110Y-150475272D01*
X102387484Y-150652584D01*
X102387316Y-150844574D01*
X87095400Y-150844574D01*
X87095400Y-149828574D01*
X104165316Y-149828574D01*
X104238633Y-150006014D01*
X104374272Y-150141890D01*
X104551584Y-150215516D01*
X104743574Y-150215684D01*
X104921014Y-150142367D01*
X105056890Y-150006728D01*
X105078130Y-149955574D01*
X110007316Y-149955574D01*
X110080633Y-150133014D01*
X110216272Y-150268890D01*
X110393584Y-150342516D01*
X110585574Y-150342684D01*
X110763014Y-150269367D01*
X110898890Y-150133728D01*
X110972516Y-149956416D01*
X110972627Y-149828574D01*
X118389316Y-149828574D01*
X118462633Y-150006014D01*
X118598272Y-150141890D01*
X118775584Y-150215516D01*
X118967574Y-150215684D01*
X119145014Y-150142367D01*
X119280890Y-150006728D01*
X119354516Y-149829416D01*
X119354684Y-149637426D01*
X119281367Y-149459986D01*
X119145728Y-149324110D01*
X118968416Y-149250484D01*
X118776426Y-149250316D01*
X118598986Y-149323633D01*
X118463110Y-149459272D01*
X118389484Y-149636584D01*
X118389316Y-149828574D01*
X110972627Y-149828574D01*
X110972684Y-149764426D01*
X110899367Y-149586986D01*
X110763728Y-149451110D01*
X110586416Y-149377484D01*
X110394426Y-149377316D01*
X110216986Y-149450633D01*
X110081110Y-149586272D01*
X110007484Y-149763584D01*
X110007316Y-149955574D01*
X105078130Y-149955574D01*
X105130516Y-149829416D01*
X105130684Y-149637426D01*
X105057367Y-149459986D01*
X104921728Y-149324110D01*
X104744416Y-149250484D01*
X104552426Y-149250316D01*
X104374986Y-149323633D01*
X104239110Y-149459272D01*
X104165484Y-149636584D01*
X104165316Y-149828574D01*
X87095400Y-149828574D01*
X87095400Y-149320574D01*
X100990316Y-149320574D01*
X101063633Y-149498014D01*
X101199272Y-149633890D01*
X101376584Y-149707516D01*
X101568574Y-149707684D01*
X101746014Y-149634367D01*
X101881890Y-149498728D01*
X101955516Y-149321416D01*
X101955684Y-149129426D01*
X101882367Y-148951986D01*
X101746728Y-148816110D01*
X101569416Y-148742484D01*
X101377426Y-148742316D01*
X101199986Y-148815633D01*
X101064110Y-148951272D01*
X100990484Y-149128584D01*
X100990316Y-149320574D01*
X87095400Y-149320574D01*
X87095400Y-148284874D01*
X95148316Y-148284874D01*
X95221633Y-148462314D01*
X95357272Y-148598190D01*
X95534584Y-148671816D01*
X95726574Y-148671984D01*
X95904014Y-148598667D01*
X95944177Y-148558574D01*
X109499316Y-148558574D01*
X109572633Y-148736014D01*
X109708272Y-148871890D01*
X109885584Y-148945516D01*
X110077574Y-148945684D01*
X110255014Y-148872367D01*
X110390890Y-148736728D01*
X110464516Y-148559416D01*
X110464684Y-148367426D01*
X110391367Y-148189986D01*
X110255728Y-148054110D01*
X110078416Y-147980484D01*
X109886426Y-147980316D01*
X109708986Y-148053633D01*
X109573110Y-148189272D01*
X109499484Y-148366584D01*
X109499316Y-148558574D01*
X95944177Y-148558574D01*
X96039890Y-148463028D01*
X96113516Y-148285716D01*
X96113684Y-148093726D01*
X96095854Y-148050574D01*
X106578316Y-148050574D01*
X106651633Y-148228014D01*
X106787272Y-148363890D01*
X106964584Y-148437516D01*
X107156574Y-148437684D01*
X107334014Y-148364367D01*
X107469890Y-148228728D01*
X107543516Y-148051416D01*
X107543684Y-147859426D01*
X107470367Y-147681986D01*
X107334728Y-147546110D01*
X107157416Y-147472484D01*
X106965426Y-147472316D01*
X106787986Y-147545633D01*
X106652110Y-147681272D01*
X106578484Y-147858584D01*
X106578316Y-148050574D01*
X96095854Y-148050574D01*
X96040367Y-147916286D01*
X95904728Y-147780410D01*
X95727416Y-147706784D01*
X95535426Y-147706616D01*
X95357986Y-147779933D01*
X95222110Y-147915572D01*
X95148484Y-148092884D01*
X95148316Y-148284874D01*
X87095400Y-148284874D01*
X87095400Y-146907574D01*
X105562316Y-146907574D01*
X105635633Y-147085014D01*
X105771272Y-147220890D01*
X105948584Y-147294516D01*
X106140574Y-147294684D01*
X106318014Y-147221367D01*
X106453890Y-147085728D01*
X106527516Y-146908416D01*
X106527684Y-146716426D01*
X106501714Y-146653574D01*
X116230316Y-146653574D01*
X116303633Y-146831014D01*
X116439272Y-146966890D01*
X116616584Y-147040516D01*
X116808574Y-147040684D01*
X116986014Y-146967367D01*
X117121890Y-146831728D01*
X117195516Y-146654416D01*
X117195684Y-146462426D01*
X117122367Y-146284986D01*
X116986728Y-146149110D01*
X116809416Y-146075484D01*
X116617426Y-146075316D01*
X116439986Y-146148633D01*
X116304110Y-146284272D01*
X116230484Y-146461584D01*
X116230316Y-146653574D01*
X106501714Y-146653574D01*
X106454367Y-146538986D01*
X106318728Y-146403110D01*
X106141416Y-146329484D01*
X105949426Y-146329316D01*
X105771986Y-146402633D01*
X105636110Y-146538272D01*
X105562484Y-146715584D01*
X105562316Y-146907574D01*
X87095400Y-146907574D01*
X87095400Y-143986574D01*
X95529316Y-143986574D01*
X95602633Y-144164014D01*
X95738272Y-144299890D01*
X95915584Y-144373516D01*
X96107574Y-144373684D01*
X96285014Y-144300367D01*
X96344911Y-144240574D01*
X105562316Y-144240574D01*
X105635633Y-144418014D01*
X105771272Y-144553890D01*
X105948584Y-144627516D01*
X106067698Y-144627620D01*
X106019463Y-144675771D01*
X105854787Y-145072352D01*
X105854413Y-145501764D01*
X106018395Y-145898632D01*
X106321771Y-146202537D01*
X106718352Y-146367213D01*
X107147764Y-146367587D01*
X107544632Y-146203605D01*
X107602764Y-146145574D01*
X111658316Y-146145574D01*
X111731633Y-146323014D01*
X111867272Y-146458890D01*
X112044584Y-146532516D01*
X112236574Y-146532684D01*
X112414014Y-146459367D01*
X112549890Y-146323728D01*
X112623516Y-146146416D01*
X112623684Y-145954426D01*
X112550367Y-145776986D01*
X112414728Y-145641110D01*
X112237416Y-145567484D01*
X112045426Y-145567316D01*
X111867986Y-145640633D01*
X111732110Y-145776272D01*
X111658484Y-145953584D01*
X111658316Y-146145574D01*
X107602764Y-146145574D01*
X107848537Y-145900229D01*
X108013213Y-145503648D01*
X108013587Y-145074236D01*
X107849605Y-144677368D01*
X107546229Y-144373463D01*
X107149648Y-144208787D01*
X106720236Y-144208413D01*
X106504145Y-144297700D01*
X106527516Y-144241416D01*
X106527684Y-144049426D01*
X106454367Y-143871986D01*
X106318728Y-143736110D01*
X106141416Y-143662484D01*
X105949426Y-143662316D01*
X105771986Y-143735633D01*
X105636110Y-143871272D01*
X105562484Y-144048584D01*
X105562316Y-144240574D01*
X96344911Y-144240574D01*
X96420890Y-144164728D01*
X96494516Y-143987416D01*
X96494684Y-143795426D01*
X96468714Y-143732574D01*
X103403316Y-143732574D01*
X103476633Y-143910014D01*
X103612272Y-144045890D01*
X103789584Y-144119516D01*
X103981574Y-144119684D01*
X104159014Y-144046367D01*
X104294890Y-143910728D01*
X104368516Y-143733416D01*
X104368684Y-143541426D01*
X104295367Y-143363986D01*
X104159728Y-143228110D01*
X103982416Y-143154484D01*
X103790426Y-143154316D01*
X103612986Y-143227633D01*
X103477110Y-143363272D01*
X103403484Y-143540584D01*
X103403316Y-143732574D01*
X96468714Y-143732574D01*
X96421367Y-143617986D01*
X96285728Y-143482110D01*
X96108416Y-143408484D01*
X95916426Y-143408316D01*
X95738986Y-143481633D01*
X95603110Y-143617272D01*
X95529484Y-143794584D01*
X95529316Y-143986574D01*
X87095400Y-143986574D01*
X87095400Y-141954574D01*
X104927316Y-141954574D01*
X105000633Y-142132014D01*
X105136272Y-142267890D01*
X105313584Y-142341516D01*
X105505574Y-142341684D01*
X105683014Y-142268367D01*
X105818890Y-142132728D01*
X105892516Y-141955416D01*
X105892684Y-141763426D01*
X105819367Y-141585986D01*
X105683728Y-141450110D01*
X105506416Y-141376484D01*
X105314426Y-141376316D01*
X105136986Y-141449633D01*
X105001110Y-141585272D01*
X104927484Y-141762584D01*
X104927316Y-141954574D01*
X87095400Y-141954574D01*
X87095400Y-141065574D01*
X96672316Y-141065574D01*
X96745633Y-141243014D01*
X96881272Y-141378890D01*
X97058584Y-141452516D01*
X97250574Y-141452684D01*
X97428014Y-141379367D01*
X97563890Y-141243728D01*
X97637516Y-141066416D01*
X97637684Y-140874426D01*
X97564367Y-140696986D01*
X97428728Y-140561110D01*
X97251416Y-140487484D01*
X97059426Y-140487316D01*
X96881986Y-140560633D01*
X96746110Y-140696272D01*
X96672484Y-140873584D01*
X96672316Y-141065574D01*
X87095400Y-141065574D01*
X87095400Y-139795574D01*
X94386316Y-139795574D01*
X94459633Y-139973014D01*
X94595272Y-140108890D01*
X94772584Y-140182516D01*
X94964574Y-140182684D01*
X95142014Y-140109367D01*
X95277890Y-139973728D01*
X95351516Y-139796416D01*
X95351684Y-139604426D01*
X95278367Y-139426986D01*
X95142728Y-139291110D01*
X94965416Y-139217484D01*
X94773426Y-139217316D01*
X94595986Y-139290633D01*
X94460110Y-139426272D01*
X94386484Y-139603584D01*
X94386316Y-139795574D01*
X87095400Y-139795574D01*
X87095400Y-139165400D01*
X105610720Y-139165400D01*
X105303368Y-139292395D01*
M02*
