G04 #@! TF.FileFunction,Legend,Top*
%FSLAX46Y46*%
G04 Gerber Fmt 4.6, Leading zero omitted, Abs format (unit mm)*
G04 Created by KiCad (PCBNEW 4.0.0-stable) date Thursday, June 23, 2016 'AMt' 11:02:30 AM*
%MOMM*%
G01*
G04 APERTURE LIST*
%ADD10C,0.100000*%
%ADD11C,0.127000*%
%ADD12C,0.150000*%
%ADD13C,0.307000*%
%ADD14C,0.500000*%
%ADD15C,0.200000*%
%ADD16C,0.121920*%
G04 APERTURE END LIST*
D10*
D11*
X87686243Y-167331572D02*
X87722529Y-167367858D01*
X87758814Y-167476715D01*
X87758814Y-167549286D01*
X87722529Y-167658143D01*
X87649957Y-167730715D01*
X87577386Y-167767000D01*
X87432243Y-167803286D01*
X87323386Y-167803286D01*
X87178243Y-167767000D01*
X87105671Y-167730715D01*
X87033100Y-167658143D01*
X86996814Y-167549286D01*
X86996814Y-167476715D01*
X87033100Y-167367858D01*
X87069386Y-167331572D01*
X87758814Y-166896143D02*
X87722529Y-166968715D01*
X87686243Y-167005000D01*
X87613671Y-167041286D01*
X87395957Y-167041286D01*
X87323386Y-167005000D01*
X87287100Y-166968715D01*
X87250814Y-166896143D01*
X87250814Y-166787286D01*
X87287100Y-166714715D01*
X87323386Y-166678429D01*
X87395957Y-166642143D01*
X87613671Y-166642143D01*
X87686243Y-166678429D01*
X87722529Y-166714715D01*
X87758814Y-166787286D01*
X87758814Y-166896143D01*
X87250814Y-165989000D02*
X87758814Y-165989000D01*
X87250814Y-166315571D02*
X87649957Y-166315571D01*
X87722529Y-166279286D01*
X87758814Y-166206714D01*
X87758814Y-166097857D01*
X87722529Y-166025286D01*
X87686243Y-165989000D01*
X87250814Y-165299571D02*
X87867671Y-165299571D01*
X87940243Y-165335857D01*
X87976529Y-165372142D01*
X88012814Y-165444714D01*
X88012814Y-165553571D01*
X87976529Y-165626142D01*
X87722529Y-165299571D02*
X87758814Y-165372142D01*
X87758814Y-165517285D01*
X87722529Y-165589857D01*
X87686243Y-165626142D01*
X87613671Y-165662428D01*
X87395957Y-165662428D01*
X87323386Y-165626142D01*
X87287100Y-165589857D01*
X87250814Y-165517285D01*
X87250814Y-165372142D01*
X87287100Y-165299571D01*
X87758814Y-164936713D02*
X86996814Y-164936713D01*
X87758814Y-164610142D02*
X87359671Y-164610142D01*
X87287100Y-164646428D01*
X87250814Y-164718999D01*
X87250814Y-164827856D01*
X87287100Y-164900428D01*
X87323386Y-164936713D01*
X87686243Y-163811856D02*
X87722529Y-163848142D01*
X87758814Y-163956999D01*
X87758814Y-164029570D01*
X87722529Y-164138427D01*
X87649957Y-164210999D01*
X87577386Y-164247284D01*
X87432243Y-164283570D01*
X87323386Y-164283570D01*
X87178243Y-164247284D01*
X87105671Y-164210999D01*
X87033100Y-164138427D01*
X86996814Y-164029570D01*
X86996814Y-163956999D01*
X87033100Y-163848142D01*
X87069386Y-163811856D01*
X87758814Y-163158713D02*
X87359671Y-163158713D01*
X87287100Y-163194999D01*
X87250814Y-163267570D01*
X87250814Y-163412713D01*
X87287100Y-163485284D01*
X87722529Y-163158713D02*
X87758814Y-163231284D01*
X87758814Y-163412713D01*
X87722529Y-163485284D01*
X87649957Y-163521570D01*
X87577386Y-163521570D01*
X87504814Y-163485284D01*
X87468529Y-163412713D01*
X87468529Y-163231284D01*
X87432243Y-163158713D01*
X87250814Y-162904713D02*
X87250814Y-162614427D01*
X86996814Y-162795855D02*
X87649957Y-162795855D01*
X87722529Y-162759570D01*
X87758814Y-162686998D01*
X87758814Y-162614427D01*
X87722529Y-162033855D02*
X87758814Y-162106426D01*
X87758814Y-162251569D01*
X87722529Y-162324141D01*
X87686243Y-162360426D01*
X87613671Y-162396712D01*
X87395957Y-162396712D01*
X87323386Y-162360426D01*
X87287100Y-162324141D01*
X87250814Y-162251569D01*
X87250814Y-162106426D01*
X87287100Y-162033855D01*
X87758814Y-161707283D02*
X86996814Y-161707283D01*
X87758814Y-161380712D02*
X87359671Y-161380712D01*
X87287100Y-161416998D01*
X87250814Y-161489569D01*
X87250814Y-161598426D01*
X87287100Y-161670998D01*
X87323386Y-161707283D01*
X87722529Y-160727569D02*
X87758814Y-160800140D01*
X87758814Y-160945283D01*
X87722529Y-161017854D01*
X87649957Y-161054140D01*
X87359671Y-161054140D01*
X87287100Y-161017854D01*
X87250814Y-160945283D01*
X87250814Y-160800140D01*
X87287100Y-160727569D01*
X87359671Y-160691283D01*
X87432243Y-160691283D01*
X87504814Y-161054140D01*
X87758814Y-160364711D02*
X87250814Y-160364711D01*
X87395957Y-160364711D02*
X87323386Y-160328426D01*
X87287100Y-160292140D01*
X87250814Y-160219569D01*
X87250814Y-160146997D01*
X87250814Y-159384998D02*
X87758814Y-159203569D01*
X87250814Y-159022141D01*
X86996814Y-158586713D02*
X86996814Y-158514141D01*
X87033100Y-158441570D01*
X87069386Y-158405284D01*
X87141957Y-158368998D01*
X87287100Y-158332713D01*
X87468529Y-158332713D01*
X87613671Y-158368998D01*
X87686243Y-158405284D01*
X87722529Y-158441570D01*
X87758814Y-158514141D01*
X87758814Y-158586713D01*
X87722529Y-158659284D01*
X87686243Y-158695570D01*
X87613671Y-158731855D01*
X87468529Y-158768141D01*
X87287100Y-158768141D01*
X87141957Y-158731855D01*
X87069386Y-158695570D01*
X87033100Y-158659284D01*
X86996814Y-158586713D01*
X88952614Y-166587714D02*
X88190614Y-166587714D01*
X88553471Y-166587714D02*
X88553471Y-166152286D01*
X88952614Y-166152286D02*
X88190614Y-166152286D01*
X88444614Y-165462857D02*
X88952614Y-165462857D01*
X88444614Y-165789428D02*
X88843757Y-165789428D01*
X88916329Y-165753143D01*
X88952614Y-165680571D01*
X88952614Y-165571714D01*
X88916329Y-165499143D01*
X88880043Y-165462857D01*
X88952614Y-164773428D02*
X88553471Y-164773428D01*
X88480900Y-164809714D01*
X88444614Y-164882285D01*
X88444614Y-165027428D01*
X88480900Y-165099999D01*
X88916329Y-164773428D02*
X88952614Y-164845999D01*
X88952614Y-165027428D01*
X88916329Y-165099999D01*
X88843757Y-165136285D01*
X88771186Y-165136285D01*
X88698614Y-165099999D01*
X88662329Y-165027428D01*
X88662329Y-164845999D01*
X88626043Y-164773428D01*
X88444614Y-164410570D02*
X88952614Y-164410570D01*
X88517186Y-164410570D02*
X88480900Y-164374285D01*
X88444614Y-164301713D01*
X88444614Y-164192856D01*
X88480900Y-164120285D01*
X88553471Y-164083999D01*
X88952614Y-164083999D01*
X88444614Y-163394570D02*
X89061471Y-163394570D01*
X89134043Y-163430856D01*
X89170329Y-163467141D01*
X89206614Y-163539713D01*
X89206614Y-163648570D01*
X89170329Y-163721141D01*
X88916329Y-163394570D02*
X88952614Y-163467141D01*
X88952614Y-163612284D01*
X88916329Y-163684856D01*
X88880043Y-163721141D01*
X88807471Y-163757427D01*
X88589757Y-163757427D01*
X88517186Y-163721141D01*
X88480900Y-163684856D01*
X88444614Y-163612284D01*
X88444614Y-163467141D01*
X88480900Y-163394570D01*
X88916329Y-162995427D02*
X88952614Y-162995427D01*
X89025186Y-163031712D01*
X89061471Y-163067998D01*
X88263186Y-162124570D02*
X88226900Y-162088284D01*
X88190614Y-162015713D01*
X88190614Y-161834284D01*
X88226900Y-161761713D01*
X88263186Y-161725427D01*
X88335757Y-161689142D01*
X88408329Y-161689142D01*
X88517186Y-161725427D01*
X88952614Y-162160856D01*
X88952614Y-161689142D01*
X88190614Y-161217428D02*
X88190614Y-161144856D01*
X88226900Y-161072285D01*
X88263186Y-161035999D01*
X88335757Y-160999713D01*
X88480900Y-160963428D01*
X88662329Y-160963428D01*
X88807471Y-160999713D01*
X88880043Y-161035999D01*
X88916329Y-161072285D01*
X88952614Y-161144856D01*
X88952614Y-161217428D01*
X88916329Y-161289999D01*
X88880043Y-161326285D01*
X88807471Y-161362570D01*
X88662329Y-161398856D01*
X88480900Y-161398856D01*
X88335757Y-161362570D01*
X88263186Y-161326285D01*
X88226900Y-161289999D01*
X88190614Y-161217428D01*
X88952614Y-160237714D02*
X88952614Y-160673142D01*
X88952614Y-160455428D02*
X88190614Y-160455428D01*
X88299471Y-160527999D01*
X88372043Y-160600571D01*
X88408329Y-160673142D01*
X88190614Y-159584571D02*
X88190614Y-159729714D01*
X88226900Y-159802285D01*
X88263186Y-159838571D01*
X88372043Y-159911142D01*
X88517186Y-159947428D01*
X88807471Y-159947428D01*
X88880043Y-159911142D01*
X88916329Y-159874857D01*
X88952614Y-159802285D01*
X88952614Y-159657142D01*
X88916329Y-159584571D01*
X88880043Y-159548285D01*
X88807471Y-159512000D01*
X88626043Y-159512000D01*
X88553471Y-159548285D01*
X88517186Y-159584571D01*
X88480900Y-159657142D01*
X88480900Y-159802285D01*
X88517186Y-159874857D01*
X88553471Y-159911142D01*
X88626043Y-159947428D01*
X91210000Y-146579000D02*
X89810000Y-146579000D01*
X89810000Y-146579000D02*
X89810000Y-150079000D01*
X91210000Y-146579000D02*
X91210000Y-150079000D01*
X101070000Y-150749000D02*
X101070000Y-145219000D01*
X101070000Y-150749000D02*
X92070000Y-150749000D01*
X92070000Y-145219000D02*
X92070000Y-150749000D01*
X101070000Y-145219000D02*
X92070000Y-145219000D01*
X100420000Y-154379000D02*
X88320000Y-154379000D01*
X87660000Y-153029000D02*
X87660000Y-149029000D01*
X87660000Y-147129000D02*
X87660000Y-141329000D01*
X87660000Y-138929000D02*
X87660000Y-138179000D01*
X101695000Y-138179000D02*
X87660000Y-138179000D01*
X101695000Y-139129000D02*
X101695000Y-138179000D01*
X101695000Y-151029000D02*
X101695000Y-148329000D01*
X101695000Y-145669000D02*
X101695000Y-141679000D01*
X91210000Y-150079000D02*
X89810000Y-150079000D01*
D12*
X116209000Y-154907000D02*
X116709000Y-154907000D01*
X116709000Y-153957000D02*
X116209000Y-153957000D01*
X94357000Y-163686000D02*
X93857000Y-163686000D01*
X93857000Y-164736000D02*
X94357000Y-164736000D01*
X93836000Y-169422000D02*
X93836000Y-169922000D01*
X94886000Y-169922000D02*
X94886000Y-169422000D01*
X93886000Y-166755000D02*
X93886000Y-167255000D01*
X94836000Y-167255000D02*
X94836000Y-166755000D01*
X97151000Y-164244000D02*
X96651000Y-164244000D01*
X96651000Y-165194000D02*
X97151000Y-165194000D01*
X91817000Y-164752000D02*
X91317000Y-164752000D01*
X91317000Y-165702000D02*
X91817000Y-165702000D01*
X100834000Y-156116000D02*
X100334000Y-156116000D01*
X100334000Y-157066000D02*
X100834000Y-157066000D01*
X104398000Y-159098000D02*
X104898000Y-159098000D01*
X104898000Y-158148000D02*
X104398000Y-158148000D01*
X99726000Y-164119000D02*
X100426000Y-164119000D01*
X100426000Y-165319000D02*
X99726000Y-165319000D01*
X97694000Y-157896000D02*
X98394000Y-157896000D01*
X98394000Y-159096000D02*
X97694000Y-159096000D01*
X112772000Y-159799000D02*
X112272000Y-159799000D01*
X112272000Y-160749000D02*
X112772000Y-160749000D01*
X100072000Y-166149000D02*
X99572000Y-166149000D01*
X99572000Y-167099000D02*
X100072000Y-167099000D01*
X97913000Y-159926000D02*
X97413000Y-159926000D01*
X97413000Y-160876000D02*
X97913000Y-160876000D01*
X112772000Y-161577000D02*
X112272000Y-161577000D01*
X112272000Y-162527000D02*
X112772000Y-162527000D01*
X105660000Y-162085000D02*
X105160000Y-162085000D01*
X105160000Y-163035000D02*
X105660000Y-163035000D01*
X109478000Y-165194000D02*
X109978000Y-165194000D01*
X109978000Y-164244000D02*
X109478000Y-164244000D01*
X103255000Y-167861000D02*
X103755000Y-167861000D01*
X103755000Y-166911000D02*
X103255000Y-166911000D01*
X113280000Y-148496000D02*
X112780000Y-148496000D01*
X112780000Y-149446000D02*
X113280000Y-149446000D01*
X112110000Y-147793000D02*
X111410000Y-147793000D01*
X111410000Y-146593000D02*
X112110000Y-146593000D01*
X111668000Y-165577000D02*
X111668000Y-164877000D01*
X112868000Y-164877000D02*
X112868000Y-165577000D01*
X115185000Y-165895000D02*
X114685000Y-165895000D01*
X114685000Y-166845000D02*
X115185000Y-166845000D01*
X110330000Y-168271000D02*
X110330000Y-167771000D01*
X109380000Y-167771000D02*
X109380000Y-168271000D01*
X91317000Y-171544000D02*
X91817000Y-171544000D01*
X91817000Y-170594000D02*
X91317000Y-170594000D01*
X97786000Y-156066000D02*
X97286000Y-156066000D01*
X97286000Y-157116000D02*
X97786000Y-157116000D01*
X101596000Y-159876000D02*
X101096000Y-159876000D01*
X101096000Y-160926000D02*
X101596000Y-160926000D01*
X101908000Y-158098000D02*
X101408000Y-158098000D01*
X101408000Y-159148000D02*
X101908000Y-159148000D01*
X104517000Y-159876000D02*
X104017000Y-159876000D01*
X104017000Y-160926000D02*
X104517000Y-160926000D01*
X96701000Y-166099000D02*
X96201000Y-166099000D01*
X96201000Y-167149000D02*
X96701000Y-167149000D01*
X91690000Y-162543000D02*
X91190000Y-162543000D01*
X91190000Y-163593000D02*
X91690000Y-163593000D01*
X103628000Y-156066000D02*
X103128000Y-156066000D01*
X103128000Y-157116000D02*
X103628000Y-157116000D01*
X91690000Y-160130000D02*
X91190000Y-160130000D01*
X91190000Y-161180000D02*
X91690000Y-161180000D01*
X101744000Y-169541000D02*
X101744000Y-169041000D01*
X100694000Y-169041000D02*
X100694000Y-169541000D01*
X94238000Y-162704000D02*
X94738000Y-162704000D01*
X94738000Y-161654000D02*
X94238000Y-161654000D01*
X108835000Y-162035000D02*
X108335000Y-162035000D01*
X108335000Y-163085000D02*
X108835000Y-163085000D01*
X103628000Y-169147000D02*
X103128000Y-169147000D01*
X103128000Y-170197000D02*
X103628000Y-170197000D01*
X103882000Y-164194000D02*
X103382000Y-164194000D01*
X103382000Y-165244000D02*
X103882000Y-165244000D01*
X102612000Y-162035000D02*
X102112000Y-162035000D01*
X102112000Y-163085000D02*
X102612000Y-163085000D01*
X106872000Y-164194000D02*
X106372000Y-164194000D01*
X106372000Y-165244000D02*
X106872000Y-165244000D01*
X98937000Y-163085000D02*
X99437000Y-163085000D01*
X99437000Y-162035000D02*
X98937000Y-162035000D01*
X107634000Y-154288000D02*
X107134000Y-154288000D01*
X107134000Y-155338000D02*
X107634000Y-155338000D01*
X107192000Y-153687000D02*
X107692000Y-153687000D01*
X107692000Y-152637000D02*
X107192000Y-152637000D01*
X106790000Y-150626000D02*
X106790000Y-151126000D01*
X107840000Y-151126000D02*
X107840000Y-150626000D01*
X112666000Y-155952000D02*
X112666000Y-155452000D01*
X111616000Y-155452000D02*
X111616000Y-155952000D01*
X114050000Y-156608000D02*
X114550000Y-156608000D01*
X114550000Y-155558000D02*
X114050000Y-155558000D01*
X112145000Y-158640000D02*
X112645000Y-158640000D01*
X112645000Y-157590000D02*
X112145000Y-157590000D01*
D13*
X97359000Y-167752000D02*
X97867000Y-167752000D01*
X97359000Y-170800000D02*
X97359000Y-167752000D01*
X97867000Y-170800000D02*
X97359000Y-170800000D01*
X97867000Y-167752000D02*
X97867000Y-170800000D01*
D14*
X96593000Y-166736000D02*
G75*
G03X96593000Y-166736000I-250000J0D01*
G01*
D13*
X95900000Y-158623000D02*
X95900000Y-159131000D01*
X92852000Y-158623000D02*
X95900000Y-158623000D01*
X92852000Y-159131000D02*
X92852000Y-158623000D01*
X95900000Y-159131000D02*
X92852000Y-159131000D01*
D14*
X97166000Y-157607000D02*
G75*
G03X97166000Y-157607000I-250000J0D01*
G01*
D13*
X110266000Y-158827000D02*
X110266000Y-159335000D01*
X107218000Y-158827000D02*
X110266000Y-158827000D01*
X107218000Y-159335000D02*
X107218000Y-158827000D01*
X110266000Y-159335000D02*
X107218000Y-159335000D01*
D14*
X111532000Y-157811000D02*
G75*
G03X111532000Y-157811000I-250000J0D01*
G01*
D12*
X110974000Y-150090000D02*
X110974000Y-150340000D01*
X114324000Y-150090000D02*
X114324000Y-150340000D01*
X114324000Y-153440000D02*
X114324000Y-153190000D01*
X110974000Y-153440000D02*
X110974000Y-153190000D01*
X110974000Y-150090000D02*
X114324000Y-150090000D01*
X110974000Y-153440000D02*
X114324000Y-153440000D01*
X110974000Y-150340000D02*
X109724000Y-150340000D01*
X91432000Y-169975000D02*
G75*
G03X91432000Y-169975000I-100000J0D01*
G01*
X90682000Y-169725000D02*
X91182000Y-169725000D01*
X90682000Y-166825000D02*
X90682000Y-169725000D01*
X91182000Y-166825000D02*
X90682000Y-166825000D01*
X91182000Y-169725000D02*
X91182000Y-166825000D01*
D15*
X108535000Y-166810000D02*
X105335000Y-166810000D01*
X108535000Y-170770000D02*
X108535000Y-166810000D01*
X108535000Y-170770000D02*
X105335000Y-170770000D01*
X105335000Y-166810000D02*
X105335000Y-170770000D01*
D12*
X117979000Y-168435000D02*
X117479000Y-168435000D01*
X117479000Y-169385000D02*
X117979000Y-169385000D01*
X117852000Y-161958000D02*
X117352000Y-161958000D01*
X117352000Y-162908000D02*
X117852000Y-162908000D01*
X117852000Y-160180000D02*
X117352000Y-160180000D01*
X117352000Y-161130000D02*
X117852000Y-161130000D01*
X117225000Y-149369000D02*
X117725000Y-149369000D01*
X117725000Y-148319000D02*
X117225000Y-148319000D01*
X119021000Y-157096000D02*
G75*
G03X119021000Y-157096000I-100000J0D01*
G01*
X118671000Y-157646000D02*
X118671000Y-157146000D01*
X115771000Y-157646000D02*
X118671000Y-157646000D01*
X115771000Y-157146000D02*
X115771000Y-157646000D01*
X118671000Y-157146000D02*
X115771000Y-157146000D01*
X104771000Y-148242000D02*
X104271000Y-148242000D01*
X104271000Y-149192000D02*
X104771000Y-149192000D01*
X106168000Y-142527000D02*
X105668000Y-142527000D01*
X105668000Y-143477000D02*
X106168000Y-143477000D01*
X103190040Y-152925780D02*
X103190040Y-153535380D01*
X103190040Y-153535380D02*
X103621840Y-153545540D01*
X103190040Y-146956780D02*
X103190040Y-147566380D01*
X103190040Y-147566380D02*
X103621840Y-147576540D01*
D11*
X118050000Y-138531000D02*
X118050000Y-143531000D01*
X118050000Y-143531000D02*
X110550000Y-143531000D01*
X110550000Y-143531000D02*
X110550000Y-138531000D01*
X118050000Y-138531000D02*
X118000000Y-138531000D01*
X118000000Y-138531000D02*
X110600000Y-138531000D01*
X110600000Y-138531000D02*
X110550000Y-138531000D01*
X118000000Y-138531000D02*
X118400000Y-138031000D01*
X110600000Y-138531000D02*
X110200000Y-138031000D01*
D12*
X108441000Y-147324000D02*
X108441000Y-147824000D01*
X109491000Y-147824000D02*
X109491000Y-147324000D01*
X102452714Y-140334999D02*
X102997000Y-140334999D01*
X103105857Y-140371285D01*
X103178429Y-140443856D01*
X103214714Y-140552713D01*
X103214714Y-140625285D01*
X103214714Y-139573000D02*
X103214714Y-140008428D01*
X103214714Y-139790714D02*
X102452714Y-139790714D01*
X102561571Y-139863285D01*
X102634143Y-139935857D01*
X102670429Y-140008428D01*
X90872381Y-148994714D02*
X89872381Y-148994714D01*
X90872381Y-148423285D02*
X90300952Y-148851857D01*
X89872381Y-148423285D02*
X90443810Y-148994714D01*
X89872381Y-147804238D02*
X89872381Y-147613761D01*
X89920000Y-147518523D01*
X90015238Y-147423285D01*
X90205714Y-147375666D01*
X90539048Y-147375666D01*
X90729524Y-147423285D01*
X90824762Y-147518523D01*
X90872381Y-147613761D01*
X90872381Y-147804238D01*
X90824762Y-147899476D01*
X90729524Y-147994714D01*
X90539048Y-148042333D01*
X90205714Y-148042333D01*
X90015238Y-147994714D01*
X89920000Y-147899476D01*
X89872381Y-147804238D01*
X93043809Y-148661381D02*
X93043809Y-147661381D01*
X93615238Y-148661381D02*
X93186666Y-148089952D01*
X93615238Y-147661381D02*
X93043809Y-148232810D01*
X94043809Y-148137571D02*
X94377143Y-148137571D01*
X94520000Y-148661381D02*
X94043809Y-148661381D01*
X94043809Y-147661381D01*
X94520000Y-147661381D01*
X94948571Y-148137571D02*
X95281905Y-148137571D01*
X95424762Y-148661381D02*
X94948571Y-148661381D01*
X94948571Y-147661381D01*
X95424762Y-147661381D01*
X95853333Y-148661381D02*
X95853333Y-147661381D01*
X96234286Y-147661381D01*
X96329524Y-147709000D01*
X96377143Y-147756619D01*
X96424762Y-147851857D01*
X96424762Y-147994714D01*
X96377143Y-148089952D01*
X96329524Y-148137571D01*
X96234286Y-148185190D01*
X95853333Y-148185190D01*
X97805714Y-147661381D02*
X97996191Y-147661381D01*
X98091429Y-147709000D01*
X98186667Y-147804238D01*
X98234286Y-147994714D01*
X98234286Y-148328048D01*
X98186667Y-148518524D01*
X98091429Y-148613762D01*
X97996191Y-148661381D01*
X97805714Y-148661381D01*
X97710476Y-148613762D01*
X97615238Y-148518524D01*
X97567619Y-148328048D01*
X97567619Y-147994714D01*
X97615238Y-147804238D01*
X97710476Y-147709000D01*
X97805714Y-147661381D01*
X98662857Y-147661381D02*
X98662857Y-148470905D01*
X98710476Y-148566143D01*
X98758095Y-148613762D01*
X98853333Y-148661381D01*
X99043810Y-148661381D01*
X99139048Y-148613762D01*
X99186667Y-148566143D01*
X99234286Y-148470905D01*
X99234286Y-147661381D01*
X99567619Y-147661381D02*
X100139048Y-147661381D01*
X99853333Y-148661381D02*
X99853333Y-147661381D01*
X117324143Y-153042857D02*
X117371762Y-153090476D01*
X117419381Y-153233333D01*
X117419381Y-153328571D01*
X117371762Y-153471429D01*
X117276524Y-153566667D01*
X117181286Y-153614286D01*
X116990810Y-153661905D01*
X116847952Y-153661905D01*
X116657476Y-153614286D01*
X116562238Y-153566667D01*
X116467000Y-153471429D01*
X116419381Y-153328571D01*
X116419381Y-153233333D01*
X116467000Y-153090476D01*
X116514619Y-153042857D01*
X116514619Y-152661905D02*
X116467000Y-152614286D01*
X116419381Y-152519048D01*
X116419381Y-152280952D01*
X116467000Y-152185714D01*
X116514619Y-152138095D01*
X116609857Y-152090476D01*
X116705095Y-152090476D01*
X116847952Y-152138095D01*
X117419381Y-152709524D01*
X117419381Y-152090476D01*
X116752714Y-151233333D02*
X117419381Y-151233333D01*
X116371762Y-151471429D02*
X117086048Y-151709524D01*
X117086048Y-151090476D01*
X93617143Y-165698714D02*
X93363143Y-165335857D01*
X93181715Y-165698714D02*
X93181715Y-164936714D01*
X93472000Y-164936714D01*
X93544572Y-164973000D01*
X93580857Y-165009286D01*
X93617143Y-165081857D01*
X93617143Y-165190714D01*
X93580857Y-165263286D01*
X93544572Y-165299571D01*
X93472000Y-165335857D01*
X93181715Y-165335857D01*
X94342857Y-165698714D02*
X93907429Y-165698714D01*
X94125143Y-165698714D02*
X94125143Y-164936714D01*
X94052572Y-165045571D01*
X93980000Y-165118143D01*
X93907429Y-165154429D01*
X94996000Y-165190714D02*
X94996000Y-165698714D01*
X94814571Y-164900429D02*
X94633143Y-165444714D01*
X95104857Y-165444714D01*
X94234000Y-171540714D02*
X93980000Y-171177857D01*
X93798572Y-171540714D02*
X93798572Y-170778714D01*
X94088857Y-170778714D01*
X94161429Y-170815000D01*
X94197714Y-170851286D01*
X94234000Y-170923857D01*
X94234000Y-171032714D01*
X94197714Y-171105286D01*
X94161429Y-171141571D01*
X94088857Y-171177857D01*
X93798572Y-171177857D01*
X94669429Y-171105286D02*
X94596857Y-171069000D01*
X94560572Y-171032714D01*
X94524286Y-170960143D01*
X94524286Y-170923857D01*
X94560572Y-170851286D01*
X94596857Y-170815000D01*
X94669429Y-170778714D01*
X94814572Y-170778714D01*
X94887143Y-170815000D01*
X94923429Y-170851286D01*
X94959714Y-170923857D01*
X94959714Y-170960143D01*
X94923429Y-171032714D01*
X94887143Y-171069000D01*
X94814572Y-171105286D01*
X94669429Y-171105286D01*
X94596857Y-171141571D01*
X94560572Y-171177857D01*
X94524286Y-171250429D01*
X94524286Y-171395571D01*
X94560572Y-171468143D01*
X94596857Y-171504429D01*
X94669429Y-171540714D01*
X94814572Y-171540714D01*
X94887143Y-171504429D01*
X94923429Y-171468143D01*
X94959714Y-171395571D01*
X94959714Y-171250429D01*
X94923429Y-171177857D01*
X94887143Y-171141571D01*
X94814572Y-171105286D01*
X93617143Y-167536857D02*
X93653429Y-167573143D01*
X93689714Y-167682000D01*
X93689714Y-167754571D01*
X93653429Y-167863428D01*
X93580857Y-167936000D01*
X93508286Y-167972285D01*
X93363143Y-168008571D01*
X93254286Y-168008571D01*
X93109143Y-167972285D01*
X93036571Y-167936000D01*
X92964000Y-167863428D01*
X92927714Y-167754571D01*
X92927714Y-167682000D01*
X92964000Y-167573143D01*
X93000286Y-167536857D01*
X93689714Y-166811143D02*
X93689714Y-167246571D01*
X93689714Y-167028857D02*
X92927714Y-167028857D01*
X93036571Y-167101428D01*
X93109143Y-167174000D01*
X93145429Y-167246571D01*
X93181714Y-166158000D02*
X93689714Y-166158000D01*
X92891429Y-166339429D02*
X93435714Y-166520857D01*
X93435714Y-166049143D01*
X96774000Y-163975143D02*
X96737714Y-164011429D01*
X96628857Y-164047714D01*
X96556286Y-164047714D01*
X96447429Y-164011429D01*
X96374857Y-163938857D01*
X96338572Y-163866286D01*
X96302286Y-163721143D01*
X96302286Y-163612286D01*
X96338572Y-163467143D01*
X96374857Y-163394571D01*
X96447429Y-163322000D01*
X96556286Y-163285714D01*
X96628857Y-163285714D01*
X96737714Y-163322000D01*
X96774000Y-163358286D01*
X97499714Y-164047714D02*
X97064286Y-164047714D01*
X97282000Y-164047714D02*
X97282000Y-163285714D01*
X97209429Y-163394571D01*
X97136857Y-163467143D01*
X97064286Y-163503429D01*
X91440000Y-164483143D02*
X91403714Y-164519429D01*
X91294857Y-164555714D01*
X91222286Y-164555714D01*
X91113429Y-164519429D01*
X91040857Y-164446857D01*
X91004572Y-164374286D01*
X90968286Y-164229143D01*
X90968286Y-164120286D01*
X91004572Y-163975143D01*
X91040857Y-163902571D01*
X91113429Y-163830000D01*
X91222286Y-163793714D01*
X91294857Y-163793714D01*
X91403714Y-163830000D01*
X91440000Y-163866286D01*
X91730286Y-163866286D02*
X91766572Y-163830000D01*
X91839143Y-163793714D01*
X92020572Y-163793714D01*
X92093143Y-163830000D01*
X92129429Y-163866286D01*
X92165714Y-163938857D01*
X92165714Y-164011429D01*
X92129429Y-164120286D01*
X91694000Y-164555714D01*
X92165714Y-164555714D01*
X99332143Y-156718000D02*
X99368429Y-156754286D01*
X99404714Y-156863143D01*
X99404714Y-156935714D01*
X99368429Y-157044571D01*
X99295857Y-157117143D01*
X99223286Y-157153428D01*
X99078143Y-157189714D01*
X98969286Y-157189714D01*
X98824143Y-157153428D01*
X98751571Y-157117143D01*
X98679000Y-157044571D01*
X98642714Y-156935714D01*
X98642714Y-156863143D01*
X98679000Y-156754286D01*
X98715286Y-156718000D01*
X98642714Y-156464000D02*
X98642714Y-155992286D01*
X98933000Y-156246286D01*
X98933000Y-156137428D01*
X98969286Y-156064857D01*
X99005571Y-156028571D01*
X99078143Y-155992286D01*
X99259571Y-155992286D01*
X99332143Y-156028571D01*
X99368429Y-156064857D01*
X99404714Y-156137428D01*
X99404714Y-156355143D01*
X99368429Y-156427714D01*
X99332143Y-156464000D01*
X106571143Y-158750000D02*
X106607429Y-158786286D01*
X106643714Y-158895143D01*
X106643714Y-158967714D01*
X106607429Y-159076571D01*
X106534857Y-159149143D01*
X106462286Y-159185428D01*
X106317143Y-159221714D01*
X106208286Y-159221714D01*
X106063143Y-159185428D01*
X105990571Y-159149143D01*
X105918000Y-159076571D01*
X105881714Y-158967714D01*
X105881714Y-158895143D01*
X105918000Y-158786286D01*
X105954286Y-158750000D01*
X106135714Y-158096857D02*
X106643714Y-158096857D01*
X105845429Y-158278286D02*
X106389714Y-158459714D01*
X106389714Y-157988000D01*
X102380143Y-164846000D02*
X102416429Y-164882286D01*
X102452714Y-164991143D01*
X102452714Y-165063714D01*
X102416429Y-165172571D01*
X102343857Y-165245143D01*
X102271286Y-165281428D01*
X102126143Y-165317714D01*
X102017286Y-165317714D01*
X101872143Y-165281428D01*
X101799571Y-165245143D01*
X101727000Y-165172571D01*
X101690714Y-165063714D01*
X101690714Y-164991143D01*
X101727000Y-164882286D01*
X101763286Y-164846000D01*
X101690714Y-164156571D02*
X101690714Y-164519428D01*
X102053571Y-164555714D01*
X102017286Y-164519428D01*
X101981000Y-164446857D01*
X101981000Y-164265428D01*
X102017286Y-164192857D01*
X102053571Y-164156571D01*
X102126143Y-164120286D01*
X102307571Y-164120286D01*
X102380143Y-164156571D01*
X102416429Y-164192857D01*
X102452714Y-164265428D01*
X102452714Y-164446857D01*
X102416429Y-164519428D01*
X102380143Y-164555714D01*
X100348143Y-158623000D02*
X100384429Y-158659286D01*
X100420714Y-158768143D01*
X100420714Y-158840714D01*
X100384429Y-158949571D01*
X100311857Y-159022143D01*
X100239286Y-159058428D01*
X100094143Y-159094714D01*
X99985286Y-159094714D01*
X99840143Y-159058428D01*
X99767571Y-159022143D01*
X99695000Y-158949571D01*
X99658714Y-158840714D01*
X99658714Y-158768143D01*
X99695000Y-158659286D01*
X99731286Y-158623000D01*
X99658714Y-157969857D02*
X99658714Y-158115000D01*
X99695000Y-158187571D01*
X99731286Y-158223857D01*
X99840143Y-158296428D01*
X99985286Y-158332714D01*
X100275571Y-158332714D01*
X100348143Y-158296428D01*
X100384429Y-158260143D01*
X100420714Y-158187571D01*
X100420714Y-158042428D01*
X100384429Y-157969857D01*
X100348143Y-157933571D01*
X100275571Y-157897286D01*
X100094143Y-157897286D01*
X100021571Y-157933571D01*
X99985286Y-157969857D01*
X99949000Y-158042428D01*
X99949000Y-158187571D01*
X99985286Y-158260143D01*
X100021571Y-158296428D01*
X100094143Y-158332714D01*
X114173000Y-160546143D02*
X114136714Y-160582429D01*
X114027857Y-160618714D01*
X113955286Y-160618714D01*
X113846429Y-160582429D01*
X113773857Y-160509857D01*
X113737572Y-160437286D01*
X113701286Y-160292143D01*
X113701286Y-160183286D01*
X113737572Y-160038143D01*
X113773857Y-159965571D01*
X113846429Y-159893000D01*
X113955286Y-159856714D01*
X114027857Y-159856714D01*
X114136714Y-159893000D01*
X114173000Y-159929286D01*
X114427000Y-159856714D02*
X114935000Y-159856714D01*
X114608429Y-160618714D01*
X101473000Y-166896143D02*
X101436714Y-166932429D01*
X101327857Y-166968714D01*
X101255286Y-166968714D01*
X101146429Y-166932429D01*
X101073857Y-166859857D01*
X101037572Y-166787286D01*
X101001286Y-166642143D01*
X101001286Y-166533286D01*
X101037572Y-166388143D01*
X101073857Y-166315571D01*
X101146429Y-166243000D01*
X101255286Y-166206714D01*
X101327857Y-166206714D01*
X101436714Y-166243000D01*
X101473000Y-166279286D01*
X101908429Y-166533286D02*
X101835857Y-166497000D01*
X101799572Y-166460714D01*
X101763286Y-166388143D01*
X101763286Y-166351857D01*
X101799572Y-166279286D01*
X101835857Y-166243000D01*
X101908429Y-166206714D01*
X102053572Y-166206714D01*
X102126143Y-166243000D01*
X102162429Y-166279286D01*
X102198714Y-166351857D01*
X102198714Y-166388143D01*
X102162429Y-166460714D01*
X102126143Y-166497000D01*
X102053572Y-166533286D01*
X101908429Y-166533286D01*
X101835857Y-166569571D01*
X101799572Y-166605857D01*
X101763286Y-166678429D01*
X101763286Y-166823571D01*
X101799572Y-166896143D01*
X101835857Y-166932429D01*
X101908429Y-166968714D01*
X102053572Y-166968714D01*
X102126143Y-166932429D01*
X102162429Y-166896143D01*
X102198714Y-166823571D01*
X102198714Y-166678429D01*
X102162429Y-166605857D01*
X102126143Y-166569571D01*
X102053572Y-166533286D01*
X99441000Y-160673143D02*
X99404714Y-160709429D01*
X99295857Y-160745714D01*
X99223286Y-160745714D01*
X99114429Y-160709429D01*
X99041857Y-160636857D01*
X99005572Y-160564286D01*
X98969286Y-160419143D01*
X98969286Y-160310286D01*
X99005572Y-160165143D01*
X99041857Y-160092571D01*
X99114429Y-160020000D01*
X99223286Y-159983714D01*
X99295857Y-159983714D01*
X99404714Y-160020000D01*
X99441000Y-160056286D01*
X99803857Y-160745714D02*
X99949000Y-160745714D01*
X100021572Y-160709429D01*
X100057857Y-160673143D01*
X100130429Y-160564286D01*
X100166714Y-160419143D01*
X100166714Y-160128857D01*
X100130429Y-160056286D01*
X100094143Y-160020000D01*
X100021572Y-159983714D01*
X99876429Y-159983714D01*
X99803857Y-160020000D01*
X99767572Y-160056286D01*
X99731286Y-160128857D01*
X99731286Y-160310286D01*
X99767572Y-160382857D01*
X99803857Y-160419143D01*
X99876429Y-160455429D01*
X100021572Y-160455429D01*
X100094143Y-160419143D01*
X100130429Y-160382857D01*
X100166714Y-160310286D01*
X114191143Y-161816143D02*
X114154857Y-161852429D01*
X114046000Y-161888714D01*
X113973429Y-161888714D01*
X113864572Y-161852429D01*
X113792000Y-161779857D01*
X113755715Y-161707286D01*
X113719429Y-161562143D01*
X113719429Y-161453286D01*
X113755715Y-161308143D01*
X113792000Y-161235571D01*
X113864572Y-161163000D01*
X113973429Y-161126714D01*
X114046000Y-161126714D01*
X114154857Y-161163000D01*
X114191143Y-161199286D01*
X114916857Y-161888714D02*
X114481429Y-161888714D01*
X114699143Y-161888714D02*
X114699143Y-161126714D01*
X114626572Y-161235571D01*
X114554000Y-161308143D01*
X114481429Y-161344429D01*
X115388571Y-161126714D02*
X115461143Y-161126714D01*
X115533714Y-161163000D01*
X115570000Y-161199286D01*
X115606286Y-161271857D01*
X115642571Y-161417000D01*
X115642571Y-161598429D01*
X115606286Y-161743571D01*
X115570000Y-161816143D01*
X115533714Y-161852429D01*
X115461143Y-161888714D01*
X115388571Y-161888714D01*
X115316000Y-161852429D01*
X115279714Y-161816143D01*
X115243429Y-161743571D01*
X115207143Y-161598429D01*
X115207143Y-161417000D01*
X115243429Y-161271857D01*
X115279714Y-161199286D01*
X115316000Y-161163000D01*
X115388571Y-161126714D01*
X107333143Y-163303857D02*
X107369429Y-163340143D01*
X107405714Y-163449000D01*
X107405714Y-163521571D01*
X107369429Y-163630428D01*
X107296857Y-163703000D01*
X107224286Y-163739285D01*
X107079143Y-163775571D01*
X106970286Y-163775571D01*
X106825143Y-163739285D01*
X106752571Y-163703000D01*
X106680000Y-163630428D01*
X106643714Y-163521571D01*
X106643714Y-163449000D01*
X106680000Y-163340143D01*
X106716286Y-163303857D01*
X107405714Y-162578143D02*
X107405714Y-163013571D01*
X107405714Y-162795857D02*
X106643714Y-162795857D01*
X106752571Y-162868428D01*
X106825143Y-162941000D01*
X106861429Y-163013571D01*
X107405714Y-161852429D02*
X107405714Y-162287857D01*
X107405714Y-162070143D02*
X106643714Y-162070143D01*
X106752571Y-162142714D01*
X106825143Y-162215286D01*
X106861429Y-162287857D01*
X109238143Y-166388143D02*
X109201857Y-166424429D01*
X109093000Y-166460714D01*
X109020429Y-166460714D01*
X108911572Y-166424429D01*
X108839000Y-166351857D01*
X108802715Y-166279286D01*
X108766429Y-166134143D01*
X108766429Y-166025286D01*
X108802715Y-165880143D01*
X108839000Y-165807571D01*
X108911572Y-165735000D01*
X109020429Y-165698714D01*
X109093000Y-165698714D01*
X109201857Y-165735000D01*
X109238143Y-165771286D01*
X109963857Y-166460714D02*
X109528429Y-166460714D01*
X109746143Y-166460714D02*
X109746143Y-165698714D01*
X109673572Y-165807571D01*
X109601000Y-165880143D01*
X109528429Y-165916429D01*
X110254143Y-165771286D02*
X110290429Y-165735000D01*
X110363000Y-165698714D01*
X110544429Y-165698714D01*
X110617000Y-165735000D01*
X110653286Y-165771286D01*
X110689571Y-165843857D01*
X110689571Y-165916429D01*
X110653286Y-166025286D01*
X110217857Y-166460714D01*
X110689571Y-166460714D01*
X103015143Y-166515143D02*
X102978857Y-166551429D01*
X102870000Y-166587714D01*
X102797429Y-166587714D01*
X102688572Y-166551429D01*
X102616000Y-166478857D01*
X102579715Y-166406286D01*
X102543429Y-166261143D01*
X102543429Y-166152286D01*
X102579715Y-166007143D01*
X102616000Y-165934571D01*
X102688572Y-165862000D01*
X102797429Y-165825714D01*
X102870000Y-165825714D01*
X102978857Y-165862000D01*
X103015143Y-165898286D01*
X103740857Y-166587714D02*
X103305429Y-166587714D01*
X103523143Y-166587714D02*
X103523143Y-165825714D01*
X103450572Y-165934571D01*
X103378000Y-166007143D01*
X103305429Y-166043429D01*
X103994857Y-165825714D02*
X104466571Y-165825714D01*
X104212571Y-166116000D01*
X104321429Y-166116000D01*
X104394000Y-166152286D01*
X104430286Y-166188571D01*
X104466571Y-166261143D01*
X104466571Y-166442571D01*
X104430286Y-166515143D01*
X104394000Y-166551429D01*
X104321429Y-166587714D01*
X104103714Y-166587714D01*
X104031143Y-166551429D01*
X103994857Y-166515143D01*
X114699143Y-149243143D02*
X114662857Y-149279429D01*
X114554000Y-149315714D01*
X114481429Y-149315714D01*
X114372572Y-149279429D01*
X114300000Y-149206857D01*
X114263715Y-149134286D01*
X114227429Y-148989143D01*
X114227429Y-148880286D01*
X114263715Y-148735143D01*
X114300000Y-148662571D01*
X114372572Y-148590000D01*
X114481429Y-148553714D01*
X114554000Y-148553714D01*
X114662857Y-148590000D01*
X114699143Y-148626286D01*
X115424857Y-149315714D02*
X114989429Y-149315714D01*
X115207143Y-149315714D02*
X115207143Y-148553714D01*
X115134572Y-148662571D01*
X115062000Y-148735143D01*
X114989429Y-148771429D01*
X116114286Y-148553714D02*
X115751429Y-148553714D01*
X115715143Y-148916571D01*
X115751429Y-148880286D01*
X115824000Y-148844000D01*
X116005429Y-148844000D01*
X116078000Y-148880286D01*
X116114286Y-148916571D01*
X116150571Y-148989143D01*
X116150571Y-149170571D01*
X116114286Y-149243143D01*
X116078000Y-149279429D01*
X116005429Y-149315714D01*
X115824000Y-149315714D01*
X115751429Y-149279429D01*
X115715143Y-149243143D01*
X110381143Y-146322143D02*
X110344857Y-146358429D01*
X110236000Y-146394714D01*
X110163429Y-146394714D01*
X110054572Y-146358429D01*
X109982000Y-146285857D01*
X109945715Y-146213286D01*
X109909429Y-146068143D01*
X109909429Y-145959286D01*
X109945715Y-145814143D01*
X109982000Y-145741571D01*
X110054572Y-145669000D01*
X110163429Y-145632714D01*
X110236000Y-145632714D01*
X110344857Y-145669000D01*
X110381143Y-145705286D01*
X111106857Y-146394714D02*
X110671429Y-146394714D01*
X110889143Y-146394714D02*
X110889143Y-145632714D01*
X110816572Y-145741571D01*
X110744000Y-145814143D01*
X110671429Y-145850429D01*
X111760000Y-145632714D02*
X111614857Y-145632714D01*
X111542286Y-145669000D01*
X111506000Y-145705286D01*
X111433429Y-145814143D01*
X111397143Y-145959286D01*
X111397143Y-146249571D01*
X111433429Y-146322143D01*
X111469714Y-146358429D01*
X111542286Y-146394714D01*
X111687429Y-146394714D01*
X111760000Y-146358429D01*
X111796286Y-146322143D01*
X111832571Y-146249571D01*
X111832571Y-146068143D01*
X111796286Y-145995571D01*
X111760000Y-145959286D01*
X111687429Y-145923000D01*
X111542286Y-145923000D01*
X111469714Y-145959286D01*
X111433429Y-145995571D01*
X111397143Y-146068143D01*
X111778143Y-163594143D02*
X111741857Y-163630429D01*
X111633000Y-163666714D01*
X111560429Y-163666714D01*
X111451572Y-163630429D01*
X111379000Y-163557857D01*
X111342715Y-163485286D01*
X111306429Y-163340143D01*
X111306429Y-163231286D01*
X111342715Y-163086143D01*
X111379000Y-163013571D01*
X111451572Y-162941000D01*
X111560429Y-162904714D01*
X111633000Y-162904714D01*
X111741857Y-162941000D01*
X111778143Y-162977286D01*
X112503857Y-163666714D02*
X112068429Y-163666714D01*
X112286143Y-163666714D02*
X112286143Y-162904714D01*
X112213572Y-163013571D01*
X112141000Y-163086143D01*
X112068429Y-163122429D01*
X112757857Y-162904714D02*
X113265857Y-162904714D01*
X112939286Y-163666714D01*
X114445143Y-165499143D02*
X114408857Y-165535429D01*
X114300000Y-165571714D01*
X114227429Y-165571714D01*
X114118572Y-165535429D01*
X114046000Y-165462857D01*
X114009715Y-165390286D01*
X113973429Y-165245143D01*
X113973429Y-165136286D01*
X114009715Y-164991143D01*
X114046000Y-164918571D01*
X114118572Y-164846000D01*
X114227429Y-164809714D01*
X114300000Y-164809714D01*
X114408857Y-164846000D01*
X114445143Y-164882286D01*
X115170857Y-165571714D02*
X114735429Y-165571714D01*
X114953143Y-165571714D02*
X114953143Y-164809714D01*
X114880572Y-164918571D01*
X114808000Y-164991143D01*
X114735429Y-165027429D01*
X115606286Y-165136286D02*
X115533714Y-165100000D01*
X115497429Y-165063714D01*
X115461143Y-164991143D01*
X115461143Y-164954857D01*
X115497429Y-164882286D01*
X115533714Y-164846000D01*
X115606286Y-164809714D01*
X115751429Y-164809714D01*
X115824000Y-164846000D01*
X115860286Y-164882286D01*
X115896571Y-164954857D01*
X115896571Y-164991143D01*
X115860286Y-165063714D01*
X115824000Y-165100000D01*
X115751429Y-165136286D01*
X115606286Y-165136286D01*
X115533714Y-165172571D01*
X115497429Y-165208857D01*
X115461143Y-165281429D01*
X115461143Y-165426571D01*
X115497429Y-165499143D01*
X115533714Y-165535429D01*
X115606286Y-165571714D01*
X115751429Y-165571714D01*
X115824000Y-165535429D01*
X115860286Y-165499143D01*
X115896571Y-165426571D01*
X115896571Y-165281429D01*
X115860286Y-165208857D01*
X115824000Y-165172571D01*
X115751429Y-165136286D01*
X109365143Y-170071143D02*
X109328857Y-170107429D01*
X109220000Y-170143714D01*
X109147429Y-170143714D01*
X109038572Y-170107429D01*
X108966000Y-170034857D01*
X108929715Y-169962286D01*
X108893429Y-169817143D01*
X108893429Y-169708286D01*
X108929715Y-169563143D01*
X108966000Y-169490571D01*
X109038572Y-169418000D01*
X109147429Y-169381714D01*
X109220000Y-169381714D01*
X109328857Y-169418000D01*
X109365143Y-169454286D01*
X110090857Y-170143714D02*
X109655429Y-170143714D01*
X109873143Y-170143714D02*
X109873143Y-169381714D01*
X109800572Y-169490571D01*
X109728000Y-169563143D01*
X109655429Y-169599429D01*
X110453714Y-170143714D02*
X110598857Y-170143714D01*
X110671429Y-170107429D01*
X110707714Y-170071143D01*
X110780286Y-169962286D01*
X110816571Y-169817143D01*
X110816571Y-169526857D01*
X110780286Y-169454286D01*
X110744000Y-169418000D01*
X110671429Y-169381714D01*
X110526286Y-169381714D01*
X110453714Y-169418000D01*
X110417429Y-169454286D01*
X110381143Y-169526857D01*
X110381143Y-169708286D01*
X110417429Y-169780857D01*
X110453714Y-169817143D01*
X110526286Y-169853429D01*
X110671429Y-169853429D01*
X110744000Y-169817143D01*
X110780286Y-169780857D01*
X110816571Y-169708286D01*
X90061143Y-171177857D02*
X90097429Y-171214143D01*
X90133714Y-171323000D01*
X90133714Y-171395571D01*
X90097429Y-171504428D01*
X90024857Y-171577000D01*
X89952286Y-171613285D01*
X89807143Y-171649571D01*
X89698286Y-171649571D01*
X89553143Y-171613285D01*
X89480571Y-171577000D01*
X89408000Y-171504428D01*
X89371714Y-171395571D01*
X89371714Y-171323000D01*
X89408000Y-171214143D01*
X89444286Y-171177857D01*
X89444286Y-170887571D02*
X89408000Y-170851285D01*
X89371714Y-170778714D01*
X89371714Y-170597285D01*
X89408000Y-170524714D01*
X89444286Y-170488428D01*
X89516857Y-170452143D01*
X89589429Y-170452143D01*
X89698286Y-170488428D01*
X90133714Y-170923857D01*
X90133714Y-170452143D01*
X89371714Y-169980429D02*
X89371714Y-169907857D01*
X89408000Y-169835286D01*
X89444286Y-169799000D01*
X89516857Y-169762714D01*
X89662000Y-169726429D01*
X89843429Y-169726429D01*
X89988571Y-169762714D01*
X90061143Y-169799000D01*
X90097429Y-169835286D01*
X90133714Y-169907857D01*
X90133714Y-169980429D01*
X90097429Y-170053000D01*
X90061143Y-170089286D01*
X89988571Y-170125571D01*
X89843429Y-170161857D01*
X89662000Y-170161857D01*
X89516857Y-170125571D01*
X89444286Y-170089286D01*
X89408000Y-170053000D01*
X89371714Y-169980429D01*
X96356714Y-156210000D02*
X95993857Y-156464000D01*
X96356714Y-156645428D02*
X95594714Y-156645428D01*
X95594714Y-156355143D01*
X95631000Y-156282571D01*
X95667286Y-156246286D01*
X95739857Y-156210000D01*
X95848714Y-156210000D01*
X95921286Y-156246286D01*
X95957571Y-156282571D01*
X95993857Y-156355143D01*
X95993857Y-156645428D01*
X96356714Y-155484286D02*
X96356714Y-155919714D01*
X96356714Y-155702000D02*
X95594714Y-155702000D01*
X95703571Y-155774571D01*
X95776143Y-155847143D01*
X95812429Y-155919714D01*
X103214714Y-160528000D02*
X102851857Y-160782000D01*
X103214714Y-160963428D02*
X102452714Y-160963428D01*
X102452714Y-160673143D01*
X102489000Y-160600571D01*
X102525286Y-160564286D01*
X102597857Y-160528000D01*
X102706714Y-160528000D01*
X102779286Y-160564286D01*
X102815571Y-160600571D01*
X102851857Y-160673143D01*
X102851857Y-160963428D01*
X102525286Y-160237714D02*
X102489000Y-160201428D01*
X102452714Y-160128857D01*
X102452714Y-159947428D01*
X102489000Y-159874857D01*
X102525286Y-159838571D01*
X102597857Y-159802286D01*
X102670429Y-159802286D01*
X102779286Y-159838571D01*
X103214714Y-160274000D01*
X103214714Y-159802286D01*
X103341714Y-158750000D02*
X102978857Y-159004000D01*
X103341714Y-159185428D02*
X102579714Y-159185428D01*
X102579714Y-158895143D01*
X102616000Y-158822571D01*
X102652286Y-158786286D01*
X102724857Y-158750000D01*
X102833714Y-158750000D01*
X102906286Y-158786286D01*
X102942571Y-158822571D01*
X102978857Y-158895143D01*
X102978857Y-159185428D01*
X102579714Y-158496000D02*
X102579714Y-158024286D01*
X102870000Y-158278286D01*
X102870000Y-158169428D01*
X102906286Y-158096857D01*
X102942571Y-158060571D01*
X103015143Y-158024286D01*
X103196571Y-158024286D01*
X103269143Y-158060571D01*
X103305429Y-158096857D01*
X103341714Y-158169428D01*
X103341714Y-158387143D01*
X103305429Y-158459714D01*
X103269143Y-158496000D01*
X106077714Y-160528000D02*
X105714857Y-160782000D01*
X106077714Y-160963428D02*
X105315714Y-160963428D01*
X105315714Y-160673143D01*
X105352000Y-160600571D01*
X105388286Y-160564286D01*
X105460857Y-160528000D01*
X105569714Y-160528000D01*
X105642286Y-160564286D01*
X105678571Y-160600571D01*
X105714857Y-160673143D01*
X105714857Y-160963428D01*
X105569714Y-159874857D02*
X106077714Y-159874857D01*
X105279429Y-160056286D02*
X105823714Y-160237714D01*
X105823714Y-159766000D01*
X97917000Y-167095714D02*
X97663000Y-166732857D01*
X97481572Y-167095714D02*
X97481572Y-166333714D01*
X97771857Y-166333714D01*
X97844429Y-166370000D01*
X97880714Y-166406286D01*
X97917000Y-166478857D01*
X97917000Y-166587714D01*
X97880714Y-166660286D01*
X97844429Y-166696571D01*
X97771857Y-166732857D01*
X97481572Y-166732857D01*
X98606429Y-166333714D02*
X98243572Y-166333714D01*
X98207286Y-166696571D01*
X98243572Y-166660286D01*
X98316143Y-166624000D01*
X98497572Y-166624000D01*
X98570143Y-166660286D01*
X98606429Y-166696571D01*
X98642714Y-166769143D01*
X98642714Y-166950571D01*
X98606429Y-167023143D01*
X98570143Y-167059429D01*
X98497572Y-167095714D01*
X98316143Y-167095714D01*
X98243572Y-167059429D01*
X98207286Y-167023143D01*
X90387714Y-163195000D02*
X90024857Y-163449000D01*
X90387714Y-163630428D02*
X89625714Y-163630428D01*
X89625714Y-163340143D01*
X89662000Y-163267571D01*
X89698286Y-163231286D01*
X89770857Y-163195000D01*
X89879714Y-163195000D01*
X89952286Y-163231286D01*
X89988571Y-163267571D01*
X90024857Y-163340143D01*
X90024857Y-163630428D01*
X89625714Y-162541857D02*
X89625714Y-162687000D01*
X89662000Y-162759571D01*
X89698286Y-162795857D01*
X89807143Y-162868428D01*
X89952286Y-162904714D01*
X90242571Y-162904714D01*
X90315143Y-162868428D01*
X90351429Y-162832143D01*
X90387714Y-162759571D01*
X90387714Y-162614428D01*
X90351429Y-162541857D01*
X90315143Y-162505571D01*
X90242571Y-162469286D01*
X90061143Y-162469286D01*
X89988571Y-162505571D01*
X89952286Y-162541857D01*
X89916000Y-162614428D01*
X89916000Y-162759571D01*
X89952286Y-162832143D01*
X89988571Y-162868428D01*
X90061143Y-162904714D01*
X105156000Y-156935714D02*
X104902000Y-156572857D01*
X104720572Y-156935714D02*
X104720572Y-156173714D01*
X105010857Y-156173714D01*
X105083429Y-156210000D01*
X105119714Y-156246286D01*
X105156000Y-156318857D01*
X105156000Y-156427714D01*
X105119714Y-156500286D01*
X105083429Y-156536571D01*
X105010857Y-156572857D01*
X104720572Y-156572857D01*
X105410000Y-156173714D02*
X105918000Y-156173714D01*
X105591429Y-156935714D01*
X90387714Y-160655000D02*
X90024857Y-160909000D01*
X90387714Y-161090428D02*
X89625714Y-161090428D01*
X89625714Y-160800143D01*
X89662000Y-160727571D01*
X89698286Y-160691286D01*
X89770857Y-160655000D01*
X89879714Y-160655000D01*
X89952286Y-160691286D01*
X89988571Y-160727571D01*
X90024857Y-160800143D01*
X90024857Y-161090428D01*
X90387714Y-160292143D02*
X90387714Y-160147000D01*
X90351429Y-160074428D01*
X90315143Y-160038143D01*
X90206286Y-159965571D01*
X90061143Y-159929286D01*
X89770857Y-159929286D01*
X89698286Y-159965571D01*
X89662000Y-160001857D01*
X89625714Y-160074428D01*
X89625714Y-160219571D01*
X89662000Y-160292143D01*
X89698286Y-160328428D01*
X89770857Y-160364714D01*
X89952286Y-160364714D01*
X90024857Y-160328428D01*
X90061143Y-160292143D01*
X90097429Y-160219571D01*
X90097429Y-160074428D01*
X90061143Y-160001857D01*
X90024857Y-159965571D01*
X89952286Y-159929286D01*
X100856143Y-171286714D02*
X100602143Y-170923857D01*
X100420715Y-171286714D02*
X100420715Y-170524714D01*
X100711000Y-170524714D01*
X100783572Y-170561000D01*
X100819857Y-170597286D01*
X100856143Y-170669857D01*
X100856143Y-170778714D01*
X100819857Y-170851286D01*
X100783572Y-170887571D01*
X100711000Y-170923857D01*
X100420715Y-170923857D01*
X101581857Y-171286714D02*
X101146429Y-171286714D01*
X101364143Y-171286714D02*
X101364143Y-170524714D01*
X101291572Y-170633571D01*
X101219000Y-170706143D01*
X101146429Y-170742429D01*
X102053571Y-170524714D02*
X102126143Y-170524714D01*
X102198714Y-170561000D01*
X102235000Y-170597286D01*
X102271286Y-170669857D01*
X102307571Y-170815000D01*
X102307571Y-170996429D01*
X102271286Y-171141571D01*
X102235000Y-171214143D01*
X102198714Y-171250429D01*
X102126143Y-171286714D01*
X102053571Y-171286714D01*
X101981000Y-171250429D01*
X101944714Y-171214143D01*
X101908429Y-171141571D01*
X101872143Y-170996429D01*
X101872143Y-170815000D01*
X101908429Y-170669857D01*
X101944714Y-170597286D01*
X101981000Y-170561000D01*
X102053571Y-170524714D01*
X96157143Y-162523714D02*
X95903143Y-162160857D01*
X95721715Y-162523714D02*
X95721715Y-161761714D01*
X96012000Y-161761714D01*
X96084572Y-161798000D01*
X96120857Y-161834286D01*
X96157143Y-161906857D01*
X96157143Y-162015714D01*
X96120857Y-162088286D01*
X96084572Y-162124571D01*
X96012000Y-162160857D01*
X95721715Y-162160857D01*
X96882857Y-162523714D02*
X96447429Y-162523714D01*
X96665143Y-162523714D02*
X96665143Y-161761714D01*
X96592572Y-161870571D01*
X96520000Y-161943143D01*
X96447429Y-161979429D01*
X97608571Y-162523714D02*
X97173143Y-162523714D01*
X97390857Y-162523714D02*
X97390857Y-161761714D01*
X97318286Y-161870571D01*
X97245714Y-161943143D01*
X97173143Y-161979429D01*
X110453714Y-163430857D02*
X110090857Y-163684857D01*
X110453714Y-163866285D02*
X109691714Y-163866285D01*
X109691714Y-163576000D01*
X109728000Y-163503428D01*
X109764286Y-163467143D01*
X109836857Y-163430857D01*
X109945714Y-163430857D01*
X110018286Y-163467143D01*
X110054571Y-163503428D01*
X110090857Y-163576000D01*
X110090857Y-163866285D01*
X110453714Y-162705143D02*
X110453714Y-163140571D01*
X110453714Y-162922857D02*
X109691714Y-162922857D01*
X109800571Y-162995428D01*
X109873143Y-163068000D01*
X109909429Y-163140571D01*
X109764286Y-162414857D02*
X109728000Y-162378571D01*
X109691714Y-162306000D01*
X109691714Y-162124571D01*
X109728000Y-162052000D01*
X109764286Y-162015714D01*
X109836857Y-161979429D01*
X109909429Y-161979429D01*
X110018286Y-162015714D01*
X110453714Y-162451143D01*
X110453714Y-161979429D01*
X102830143Y-168873714D02*
X102576143Y-168510857D01*
X102394715Y-168873714D02*
X102394715Y-168111714D01*
X102685000Y-168111714D01*
X102757572Y-168148000D01*
X102793857Y-168184286D01*
X102830143Y-168256857D01*
X102830143Y-168365714D01*
X102793857Y-168438286D01*
X102757572Y-168474571D01*
X102685000Y-168510857D01*
X102394715Y-168510857D01*
X103555857Y-168873714D02*
X103120429Y-168873714D01*
X103338143Y-168873714D02*
X103338143Y-168111714D01*
X103265572Y-168220571D01*
X103193000Y-168293143D01*
X103120429Y-168329429D01*
X103809857Y-168111714D02*
X104281571Y-168111714D01*
X104027571Y-168402000D01*
X104136429Y-168402000D01*
X104209000Y-168438286D01*
X104245286Y-168474571D01*
X104281571Y-168547143D01*
X104281571Y-168728571D01*
X104245286Y-168801143D01*
X104209000Y-168837429D01*
X104136429Y-168873714D01*
X103918714Y-168873714D01*
X103846143Y-168837429D01*
X103809857Y-168801143D01*
X105500714Y-165716857D02*
X105137857Y-165970857D01*
X105500714Y-166152285D02*
X104738714Y-166152285D01*
X104738714Y-165862000D01*
X104775000Y-165789428D01*
X104811286Y-165753143D01*
X104883857Y-165716857D01*
X104992714Y-165716857D01*
X105065286Y-165753143D01*
X105101571Y-165789428D01*
X105137857Y-165862000D01*
X105137857Y-166152285D01*
X105500714Y-164991143D02*
X105500714Y-165426571D01*
X105500714Y-165208857D02*
X104738714Y-165208857D01*
X104847571Y-165281428D01*
X104920143Y-165354000D01*
X104956429Y-165426571D01*
X104738714Y-164301714D02*
X104738714Y-164664571D01*
X105101571Y-164700857D01*
X105065286Y-164664571D01*
X105029000Y-164592000D01*
X105029000Y-164410571D01*
X105065286Y-164338000D01*
X105101571Y-164301714D01*
X105174143Y-164265429D01*
X105355571Y-164265429D01*
X105428143Y-164301714D01*
X105464429Y-164338000D01*
X105500714Y-164410571D01*
X105500714Y-164592000D01*
X105464429Y-164664571D01*
X105428143Y-164700857D01*
X104103714Y-163176857D02*
X103740857Y-163430857D01*
X104103714Y-163612285D02*
X103341714Y-163612285D01*
X103341714Y-163322000D01*
X103378000Y-163249428D01*
X103414286Y-163213143D01*
X103486857Y-163176857D01*
X103595714Y-163176857D01*
X103668286Y-163213143D01*
X103704571Y-163249428D01*
X103740857Y-163322000D01*
X103740857Y-163612285D01*
X104103714Y-162451143D02*
X104103714Y-162886571D01*
X104103714Y-162668857D02*
X103341714Y-162668857D01*
X103450571Y-162741428D01*
X103523143Y-162814000D01*
X103559429Y-162886571D01*
X103341714Y-161798000D02*
X103341714Y-161943143D01*
X103378000Y-162015714D01*
X103414286Y-162052000D01*
X103523143Y-162124571D01*
X103668286Y-162160857D01*
X103958571Y-162160857D01*
X104031143Y-162124571D01*
X104067429Y-162088286D01*
X104103714Y-162015714D01*
X104103714Y-161870571D01*
X104067429Y-161798000D01*
X104031143Y-161761714D01*
X103958571Y-161725429D01*
X103777143Y-161725429D01*
X103704571Y-161761714D01*
X103668286Y-161798000D01*
X103632000Y-161870571D01*
X103632000Y-162015714D01*
X103668286Y-162088286D01*
X103704571Y-162124571D01*
X103777143Y-162160857D01*
X108421714Y-165716857D02*
X108058857Y-165970857D01*
X108421714Y-166152285D02*
X107659714Y-166152285D01*
X107659714Y-165862000D01*
X107696000Y-165789428D01*
X107732286Y-165753143D01*
X107804857Y-165716857D01*
X107913714Y-165716857D01*
X107986286Y-165753143D01*
X108022571Y-165789428D01*
X108058857Y-165862000D01*
X108058857Y-166152285D01*
X108421714Y-164991143D02*
X108421714Y-165426571D01*
X108421714Y-165208857D02*
X107659714Y-165208857D01*
X107768571Y-165281428D01*
X107841143Y-165354000D01*
X107877429Y-165426571D01*
X107659714Y-164737143D02*
X107659714Y-164229143D01*
X108421714Y-164555714D01*
X100928714Y-163176857D02*
X100565857Y-163430857D01*
X100928714Y-163612285D02*
X100166714Y-163612285D01*
X100166714Y-163322000D01*
X100203000Y-163249428D01*
X100239286Y-163213143D01*
X100311857Y-163176857D01*
X100420714Y-163176857D01*
X100493286Y-163213143D01*
X100529571Y-163249428D01*
X100565857Y-163322000D01*
X100565857Y-163612285D01*
X100928714Y-162451143D02*
X100928714Y-162886571D01*
X100928714Y-162668857D02*
X100166714Y-162668857D01*
X100275571Y-162741428D01*
X100348143Y-162814000D01*
X100384429Y-162886571D01*
X100493286Y-162015714D02*
X100457000Y-162088286D01*
X100420714Y-162124571D01*
X100348143Y-162160857D01*
X100311857Y-162160857D01*
X100239286Y-162124571D01*
X100203000Y-162088286D01*
X100166714Y-162015714D01*
X100166714Y-161870571D01*
X100203000Y-161798000D01*
X100239286Y-161761714D01*
X100311857Y-161725429D01*
X100348143Y-161725429D01*
X100420714Y-161761714D01*
X100457000Y-161798000D01*
X100493286Y-161870571D01*
X100493286Y-162015714D01*
X100529571Y-162088286D01*
X100565857Y-162124571D01*
X100638429Y-162160857D01*
X100783571Y-162160857D01*
X100856143Y-162124571D01*
X100892429Y-162088286D01*
X100928714Y-162015714D01*
X100928714Y-161870571D01*
X100892429Y-161798000D01*
X100856143Y-161761714D01*
X100783571Y-161725429D01*
X100638429Y-161725429D01*
X100565857Y-161761714D01*
X100529571Y-161798000D01*
X100493286Y-161870571D01*
X108857143Y-155157714D02*
X108603143Y-154794857D01*
X108421715Y-155157714D02*
X108421715Y-154395714D01*
X108712000Y-154395714D01*
X108784572Y-154432000D01*
X108820857Y-154468286D01*
X108857143Y-154540857D01*
X108857143Y-154649714D01*
X108820857Y-154722286D01*
X108784572Y-154758571D01*
X108712000Y-154794857D01*
X108421715Y-154794857D01*
X109582857Y-155157714D02*
X109147429Y-155157714D01*
X109365143Y-155157714D02*
X109365143Y-154395714D01*
X109292572Y-154504571D01*
X109220000Y-154577143D01*
X109147429Y-154613429D01*
X109945714Y-155157714D02*
X110090857Y-155157714D01*
X110163429Y-155121429D01*
X110199714Y-155085143D01*
X110272286Y-154976286D01*
X110308571Y-154831143D01*
X110308571Y-154540857D01*
X110272286Y-154468286D01*
X110236000Y-154432000D01*
X110163429Y-154395714D01*
X110018286Y-154395714D01*
X109945714Y-154432000D01*
X109909429Y-154468286D01*
X109873143Y-154540857D01*
X109873143Y-154722286D01*
X109909429Y-154794857D01*
X109945714Y-154831143D01*
X110018286Y-154867429D01*
X110163429Y-154867429D01*
X110236000Y-154831143D01*
X110272286Y-154794857D01*
X110308571Y-154722286D01*
X108857143Y-154141714D02*
X108603143Y-153778857D01*
X108421715Y-154141714D02*
X108421715Y-153379714D01*
X108712000Y-153379714D01*
X108784572Y-153416000D01*
X108820857Y-153452286D01*
X108857143Y-153524857D01*
X108857143Y-153633714D01*
X108820857Y-153706286D01*
X108784572Y-153742571D01*
X108712000Y-153778857D01*
X108421715Y-153778857D01*
X109147429Y-153452286D02*
X109183715Y-153416000D01*
X109256286Y-153379714D01*
X109437715Y-153379714D01*
X109510286Y-153416000D01*
X109546572Y-153452286D01*
X109582857Y-153524857D01*
X109582857Y-153597429D01*
X109546572Y-153706286D01*
X109111143Y-154141714D01*
X109582857Y-154141714D01*
X110054571Y-153379714D02*
X110127143Y-153379714D01*
X110199714Y-153416000D01*
X110236000Y-153452286D01*
X110272286Y-153524857D01*
X110308571Y-153670000D01*
X110308571Y-153851429D01*
X110272286Y-153996571D01*
X110236000Y-154069143D01*
X110199714Y-154105429D01*
X110127143Y-154141714D01*
X110054571Y-154141714D01*
X109982000Y-154105429D01*
X109945714Y-154069143D01*
X109909429Y-153996571D01*
X109873143Y-153851429D01*
X109873143Y-153670000D01*
X109909429Y-153524857D01*
X109945714Y-153452286D01*
X109982000Y-153416000D01*
X110054571Y-153379714D01*
X107333143Y-149823714D02*
X107079143Y-149460857D01*
X106897715Y-149823714D02*
X106897715Y-149061714D01*
X107188000Y-149061714D01*
X107260572Y-149098000D01*
X107296857Y-149134286D01*
X107333143Y-149206857D01*
X107333143Y-149315714D01*
X107296857Y-149388286D01*
X107260572Y-149424571D01*
X107188000Y-149460857D01*
X106897715Y-149460857D01*
X107623429Y-149134286D02*
X107659715Y-149098000D01*
X107732286Y-149061714D01*
X107913715Y-149061714D01*
X107986286Y-149098000D01*
X108022572Y-149134286D01*
X108058857Y-149206857D01*
X108058857Y-149279429D01*
X108022572Y-149388286D01*
X107587143Y-149823714D01*
X108058857Y-149823714D01*
X108784571Y-149823714D02*
X108349143Y-149823714D01*
X108566857Y-149823714D02*
X108566857Y-149061714D01*
X108494286Y-149170571D01*
X108421714Y-149243143D01*
X108349143Y-149279429D01*
X111342714Y-156191857D02*
X110979857Y-156445857D01*
X111342714Y-156627285D02*
X110580714Y-156627285D01*
X110580714Y-156337000D01*
X110617000Y-156264428D01*
X110653286Y-156228143D01*
X110725857Y-156191857D01*
X110834714Y-156191857D01*
X110907286Y-156228143D01*
X110943571Y-156264428D01*
X110979857Y-156337000D01*
X110979857Y-156627285D01*
X110653286Y-155901571D02*
X110617000Y-155865285D01*
X110580714Y-155792714D01*
X110580714Y-155611285D01*
X110617000Y-155538714D01*
X110653286Y-155502428D01*
X110725857Y-155466143D01*
X110798429Y-155466143D01*
X110907286Y-155502428D01*
X111342714Y-155937857D01*
X111342714Y-155466143D01*
X110653286Y-155175857D02*
X110617000Y-155139571D01*
X110580714Y-155067000D01*
X110580714Y-154885571D01*
X110617000Y-154813000D01*
X110653286Y-154776714D01*
X110725857Y-154740429D01*
X110798429Y-154740429D01*
X110907286Y-154776714D01*
X111342714Y-155212143D01*
X111342714Y-154740429D01*
X113810143Y-155284714D02*
X113556143Y-154921857D01*
X113374715Y-155284714D02*
X113374715Y-154522714D01*
X113665000Y-154522714D01*
X113737572Y-154559000D01*
X113773857Y-154595286D01*
X113810143Y-154667857D01*
X113810143Y-154776714D01*
X113773857Y-154849286D01*
X113737572Y-154885571D01*
X113665000Y-154921857D01*
X113374715Y-154921857D01*
X114100429Y-154595286D02*
X114136715Y-154559000D01*
X114209286Y-154522714D01*
X114390715Y-154522714D01*
X114463286Y-154559000D01*
X114499572Y-154595286D01*
X114535857Y-154667857D01*
X114535857Y-154740429D01*
X114499572Y-154849286D01*
X114064143Y-155284714D01*
X114535857Y-155284714D01*
X114789857Y-154522714D02*
X115261571Y-154522714D01*
X115007571Y-154813000D01*
X115116429Y-154813000D01*
X115189000Y-154849286D01*
X115225286Y-154885571D01*
X115261571Y-154958143D01*
X115261571Y-155139571D01*
X115225286Y-155212143D01*
X115189000Y-155248429D01*
X115116429Y-155284714D01*
X114898714Y-155284714D01*
X114826143Y-155248429D01*
X114789857Y-155212143D01*
X113937143Y-158459714D02*
X113683143Y-158096857D01*
X113501715Y-158459714D02*
X113501715Y-157697714D01*
X113792000Y-157697714D01*
X113864572Y-157734000D01*
X113900857Y-157770286D01*
X113937143Y-157842857D01*
X113937143Y-157951714D01*
X113900857Y-158024286D01*
X113864572Y-158060571D01*
X113792000Y-158096857D01*
X113501715Y-158096857D01*
X114227429Y-157770286D02*
X114263715Y-157734000D01*
X114336286Y-157697714D01*
X114517715Y-157697714D01*
X114590286Y-157734000D01*
X114626572Y-157770286D01*
X114662857Y-157842857D01*
X114662857Y-157915429D01*
X114626572Y-158024286D01*
X114191143Y-158459714D01*
X114662857Y-158459714D01*
X115316000Y-157951714D02*
X115316000Y-158459714D01*
X115134571Y-157661429D02*
X114953143Y-158205714D01*
X115424857Y-158205714D01*
X94796429Y-170905714D02*
X94796429Y-171522571D01*
X94832714Y-171595143D01*
X94869000Y-171631429D01*
X94941571Y-171667714D01*
X95086714Y-171667714D01*
X95159286Y-171631429D01*
X95195571Y-171595143D01*
X95231857Y-171522571D01*
X95231857Y-170905714D01*
X95558429Y-170978286D02*
X95594715Y-170942000D01*
X95667286Y-170905714D01*
X95848715Y-170905714D01*
X95921286Y-170942000D01*
X95957572Y-170978286D01*
X95993857Y-171050857D01*
X95993857Y-171123429D01*
X95957572Y-171232286D01*
X95522143Y-171667714D01*
X95993857Y-171667714D01*
X91240429Y-158713714D02*
X91240429Y-159330571D01*
X91276714Y-159403143D01*
X91313000Y-159439429D01*
X91385571Y-159475714D01*
X91530714Y-159475714D01*
X91603286Y-159439429D01*
X91639571Y-159403143D01*
X91675857Y-159330571D01*
X91675857Y-158713714D01*
X91966143Y-158713714D02*
X92437857Y-158713714D01*
X92183857Y-159004000D01*
X92292715Y-159004000D01*
X92365286Y-159040286D01*
X92401572Y-159076571D01*
X92437857Y-159149143D01*
X92437857Y-159330571D01*
X92401572Y-159403143D01*
X92365286Y-159439429D01*
X92292715Y-159475714D01*
X92075000Y-159475714D01*
X92002429Y-159439429D01*
X91966143Y-159403143D01*
X110326714Y-160981571D02*
X110943571Y-160981571D01*
X111016143Y-160945286D01*
X111052429Y-160909000D01*
X111088714Y-160836429D01*
X111088714Y-160691286D01*
X111052429Y-160618714D01*
X111016143Y-160582429D01*
X110943571Y-160546143D01*
X110326714Y-160546143D01*
X110580714Y-159856714D02*
X111088714Y-159856714D01*
X110290429Y-160038143D02*
X110834714Y-160219571D01*
X110834714Y-159747857D01*
X109528429Y-149188714D02*
X109528429Y-149805571D01*
X109564714Y-149878143D01*
X109601000Y-149914429D01*
X109673571Y-149950714D01*
X109818714Y-149950714D01*
X109891286Y-149914429D01*
X109927571Y-149878143D01*
X109963857Y-149805571D01*
X109963857Y-149188714D01*
X110689572Y-149188714D02*
X110326715Y-149188714D01*
X110290429Y-149551571D01*
X110326715Y-149515286D01*
X110399286Y-149479000D01*
X110580715Y-149479000D01*
X110653286Y-149515286D01*
X110689572Y-149551571D01*
X110725857Y-149624143D01*
X110725857Y-149805571D01*
X110689572Y-149878143D01*
X110653286Y-149914429D01*
X110580715Y-149950714D01*
X110399286Y-149950714D01*
X110326715Y-149914429D01*
X110290429Y-149878143D01*
X111306429Y-170651714D02*
X111306429Y-171268571D01*
X111342714Y-171341143D01*
X111379000Y-171377429D01*
X111451571Y-171413714D01*
X111596714Y-171413714D01*
X111669286Y-171377429D01*
X111705571Y-171341143D01*
X111741857Y-171268571D01*
X111741857Y-170651714D01*
X112431286Y-170651714D02*
X112286143Y-170651714D01*
X112213572Y-170688000D01*
X112177286Y-170724286D01*
X112104715Y-170833143D01*
X112068429Y-170978286D01*
X112068429Y-171268571D01*
X112104715Y-171341143D01*
X112141000Y-171377429D01*
X112213572Y-171413714D01*
X112358715Y-171413714D01*
X112431286Y-171377429D01*
X112467572Y-171341143D01*
X112503857Y-171268571D01*
X112503857Y-171087143D01*
X112467572Y-171014571D01*
X112431286Y-170978286D01*
X112358715Y-170942000D01*
X112213572Y-170942000D01*
X112141000Y-170978286D01*
X112104715Y-171014571D01*
X112068429Y-171087143D01*
X87684429Y-167984714D02*
X87684429Y-168601571D01*
X87720714Y-168674143D01*
X87757000Y-168710429D01*
X87829571Y-168746714D01*
X87974714Y-168746714D01*
X88047286Y-168710429D01*
X88083571Y-168674143D01*
X88119857Y-168601571D01*
X88119857Y-167984714D01*
X88410143Y-167984714D02*
X88918143Y-167984714D01*
X88591572Y-168746714D01*
X106226429Y-165825714D02*
X106226429Y-166442571D01*
X106262714Y-166515143D01*
X106299000Y-166551429D01*
X106371571Y-166587714D01*
X106516714Y-166587714D01*
X106589286Y-166551429D01*
X106625571Y-166515143D01*
X106661857Y-166442571D01*
X106661857Y-165825714D01*
X107133572Y-166152286D02*
X107061000Y-166116000D01*
X107024715Y-166079714D01*
X106988429Y-166007143D01*
X106988429Y-165970857D01*
X107024715Y-165898286D01*
X107061000Y-165862000D01*
X107133572Y-165825714D01*
X107278715Y-165825714D01*
X107351286Y-165862000D01*
X107387572Y-165898286D01*
X107423857Y-165970857D01*
X107423857Y-166007143D01*
X107387572Y-166079714D01*
X107351286Y-166116000D01*
X107278715Y-166152286D01*
X107133572Y-166152286D01*
X107061000Y-166188571D01*
X107024715Y-166224857D01*
X106988429Y-166297429D01*
X106988429Y-166442571D01*
X107024715Y-166515143D01*
X107061000Y-166551429D01*
X107133572Y-166587714D01*
X107278715Y-166587714D01*
X107351286Y-166551429D01*
X107387572Y-166515143D01*
X107423857Y-166442571D01*
X107423857Y-166297429D01*
X107387572Y-166224857D01*
X107351286Y-166188571D01*
X107278715Y-166152286D01*
X117086143Y-170410143D02*
X117038524Y-170457762D01*
X116895667Y-170505381D01*
X116800429Y-170505381D01*
X116657571Y-170457762D01*
X116562333Y-170362524D01*
X116514714Y-170267286D01*
X116467095Y-170076810D01*
X116467095Y-169933952D01*
X116514714Y-169743476D01*
X116562333Y-169648238D01*
X116657571Y-169553000D01*
X116800429Y-169505381D01*
X116895667Y-169505381D01*
X117038524Y-169553000D01*
X117086143Y-169600619D01*
X117467095Y-169600619D02*
X117514714Y-169553000D01*
X117609952Y-169505381D01*
X117848048Y-169505381D01*
X117943286Y-169553000D01*
X117990905Y-169600619D01*
X118038524Y-169695857D01*
X118038524Y-169791095D01*
X117990905Y-169933952D01*
X117419476Y-170505381D01*
X118038524Y-170505381D01*
X118419476Y-169600619D02*
X118467095Y-169553000D01*
X118562333Y-169505381D01*
X118800429Y-169505381D01*
X118895667Y-169553000D01*
X118943286Y-169600619D01*
X118990905Y-169695857D01*
X118990905Y-169791095D01*
X118943286Y-169933952D01*
X118371857Y-170505381D01*
X118990905Y-170505381D01*
X114826143Y-162832143D02*
X114789857Y-162868429D01*
X114681000Y-162904714D01*
X114608429Y-162904714D01*
X114499572Y-162868429D01*
X114427000Y-162795857D01*
X114390715Y-162723286D01*
X114354429Y-162578143D01*
X114354429Y-162469286D01*
X114390715Y-162324143D01*
X114427000Y-162251571D01*
X114499572Y-162179000D01*
X114608429Y-162142714D01*
X114681000Y-162142714D01*
X114789857Y-162179000D01*
X114826143Y-162215286D01*
X115116429Y-162215286D02*
X115152715Y-162179000D01*
X115225286Y-162142714D01*
X115406715Y-162142714D01*
X115479286Y-162179000D01*
X115515572Y-162215286D01*
X115551857Y-162287857D01*
X115551857Y-162360429D01*
X115515572Y-162469286D01*
X115080143Y-162904714D01*
X115551857Y-162904714D01*
X115805857Y-162142714D02*
X116277571Y-162142714D01*
X116023571Y-162433000D01*
X116132429Y-162433000D01*
X116205000Y-162469286D01*
X116241286Y-162505571D01*
X116277571Y-162578143D01*
X116277571Y-162759571D01*
X116241286Y-162832143D01*
X116205000Y-162868429D01*
X116132429Y-162904714D01*
X115914714Y-162904714D01*
X115842143Y-162868429D01*
X115805857Y-162832143D01*
X119525143Y-161271857D02*
X119561429Y-161308143D01*
X119597714Y-161417000D01*
X119597714Y-161489571D01*
X119561429Y-161598428D01*
X119488857Y-161671000D01*
X119416286Y-161707285D01*
X119271143Y-161743571D01*
X119162286Y-161743571D01*
X119017143Y-161707285D01*
X118944571Y-161671000D01*
X118872000Y-161598428D01*
X118835714Y-161489571D01*
X118835714Y-161417000D01*
X118872000Y-161308143D01*
X118908286Y-161271857D01*
X118908286Y-160981571D02*
X118872000Y-160945285D01*
X118835714Y-160872714D01*
X118835714Y-160691285D01*
X118872000Y-160618714D01*
X118908286Y-160582428D01*
X118980857Y-160546143D01*
X119053429Y-160546143D01*
X119162286Y-160582428D01*
X119597714Y-161017857D01*
X119597714Y-160546143D01*
X118835714Y-159856714D02*
X118835714Y-160219571D01*
X119198571Y-160255857D01*
X119162286Y-160219571D01*
X119126000Y-160147000D01*
X119126000Y-159965571D01*
X119162286Y-159893000D01*
X119198571Y-159856714D01*
X119271143Y-159820429D01*
X119452571Y-159820429D01*
X119525143Y-159856714D01*
X119561429Y-159893000D01*
X119597714Y-159965571D01*
X119597714Y-160147000D01*
X119561429Y-160219571D01*
X119525143Y-160255857D01*
X116382143Y-148026381D02*
X116048809Y-147550190D01*
X115810714Y-148026381D02*
X115810714Y-147026381D01*
X116191667Y-147026381D01*
X116286905Y-147074000D01*
X116334524Y-147121619D01*
X116382143Y-147216857D01*
X116382143Y-147359714D01*
X116334524Y-147454952D01*
X116286905Y-147502571D01*
X116191667Y-147550190D01*
X115810714Y-147550190D01*
X116763095Y-147121619D02*
X116810714Y-147074000D01*
X116905952Y-147026381D01*
X117144048Y-147026381D01*
X117239286Y-147074000D01*
X117286905Y-147121619D01*
X117334524Y-147216857D01*
X117334524Y-147312095D01*
X117286905Y-147454952D01*
X116715476Y-148026381D01*
X117334524Y-148026381D01*
X118239286Y-147026381D02*
X117763095Y-147026381D01*
X117715476Y-147502571D01*
X117763095Y-147454952D01*
X117858333Y-147407333D01*
X118096429Y-147407333D01*
X118191667Y-147454952D01*
X118239286Y-147502571D01*
X118286905Y-147597810D01*
X118286905Y-147835905D01*
X118239286Y-147931143D01*
X118191667Y-147978762D01*
X118096429Y-148026381D01*
X117858333Y-148026381D01*
X117763095Y-147978762D01*
X117715476Y-147931143D01*
X117986381Y-154570095D02*
X118795905Y-154570095D01*
X118891143Y-154522476D01*
X118938762Y-154474857D01*
X118986381Y-154379619D01*
X118986381Y-154189142D01*
X118938762Y-154093904D01*
X118891143Y-154046285D01*
X118795905Y-153998666D01*
X117986381Y-153998666D01*
X118986381Y-152998666D02*
X118986381Y-153570095D01*
X118986381Y-153284381D02*
X117986381Y-153284381D01*
X118129238Y-153379619D01*
X118224476Y-153474857D01*
X118272095Y-153570095D01*
X118986381Y-152046285D02*
X118986381Y-152617714D01*
X118986381Y-152332000D02*
X117986381Y-152332000D01*
X118129238Y-152427238D01*
X118224476Y-152522476D01*
X118272095Y-152617714D01*
X102380143Y-149206857D02*
X102416429Y-149243143D01*
X102452714Y-149352000D01*
X102452714Y-149424571D01*
X102416429Y-149533428D01*
X102343857Y-149606000D01*
X102271286Y-149642285D01*
X102126143Y-149678571D01*
X102017286Y-149678571D01*
X101872143Y-149642285D01*
X101799571Y-149606000D01*
X101727000Y-149533428D01*
X101690714Y-149424571D01*
X101690714Y-149352000D01*
X101727000Y-149243143D01*
X101763286Y-149206857D01*
X101763286Y-148916571D02*
X101727000Y-148880285D01*
X101690714Y-148807714D01*
X101690714Y-148626285D01*
X101727000Y-148553714D01*
X101763286Y-148517428D01*
X101835857Y-148481143D01*
X101908429Y-148481143D01*
X102017286Y-148517428D01*
X102452714Y-148952857D01*
X102452714Y-148481143D01*
X101690714Y-147828000D02*
X101690714Y-147973143D01*
X101727000Y-148045714D01*
X101763286Y-148082000D01*
X101872143Y-148154571D01*
X102017286Y-148190857D01*
X102307571Y-148190857D01*
X102380143Y-148154571D01*
X102416429Y-148118286D01*
X102452714Y-148045714D01*
X102452714Y-147900571D01*
X102416429Y-147828000D01*
X102380143Y-147791714D01*
X102307571Y-147755429D01*
X102126143Y-147755429D01*
X102053571Y-147791714D01*
X102017286Y-147828000D01*
X101981000Y-147900571D01*
X101981000Y-148045714D01*
X102017286Y-148118286D01*
X102053571Y-148154571D01*
X102126143Y-148190857D01*
X107714143Y-143274143D02*
X107677857Y-143310429D01*
X107569000Y-143346714D01*
X107496429Y-143346714D01*
X107387572Y-143310429D01*
X107315000Y-143237857D01*
X107278715Y-143165286D01*
X107242429Y-143020143D01*
X107242429Y-142911286D01*
X107278715Y-142766143D01*
X107315000Y-142693571D01*
X107387572Y-142621000D01*
X107496429Y-142584714D01*
X107569000Y-142584714D01*
X107677857Y-142621000D01*
X107714143Y-142657286D01*
X108004429Y-142657286D02*
X108040715Y-142621000D01*
X108113286Y-142584714D01*
X108294715Y-142584714D01*
X108367286Y-142621000D01*
X108403572Y-142657286D01*
X108439857Y-142729857D01*
X108439857Y-142802429D01*
X108403572Y-142911286D01*
X107968143Y-143346714D01*
X108439857Y-143346714D01*
X108693857Y-142584714D02*
X109201857Y-142584714D01*
X108875286Y-143346714D01*
X105754714Y-151565428D02*
X106371571Y-151565428D01*
X106444143Y-151529143D01*
X106480429Y-151492857D01*
X106516714Y-151420286D01*
X106516714Y-151275143D01*
X106480429Y-151202571D01*
X106444143Y-151166286D01*
X106371571Y-151130000D01*
X105754714Y-151130000D01*
X106516714Y-150368000D02*
X106516714Y-150803428D01*
X106516714Y-150585714D02*
X105754714Y-150585714D01*
X105863571Y-150658285D01*
X105936143Y-150730857D01*
X105972429Y-150803428D01*
X105754714Y-150114000D02*
X105754714Y-149642286D01*
X106045000Y-149896286D01*
X106045000Y-149787428D01*
X106081286Y-149714857D01*
X106117571Y-149678571D01*
X106190143Y-149642286D01*
X106371571Y-149642286D01*
X106444143Y-149678571D01*
X106480429Y-149714857D01*
X106516714Y-149787428D01*
X106516714Y-150005143D01*
X106480429Y-150077714D01*
X106444143Y-150114000D01*
X105695905Y-146518381D02*
X105695905Y-147327905D01*
X105743524Y-147423143D01*
X105791143Y-147470762D01*
X105886381Y-147518381D01*
X106076858Y-147518381D01*
X106172096Y-147470762D01*
X106219715Y-147423143D01*
X106267334Y-147327905D01*
X106267334Y-146518381D01*
X107267334Y-147518381D02*
X106695905Y-147518381D01*
X106981619Y-147518381D02*
X106981619Y-146518381D01*
X106886381Y-146661238D01*
X106791143Y-146756476D01*
X106695905Y-146804095D01*
X108124477Y-146851714D02*
X108124477Y-147518381D01*
X107886381Y-146470762D02*
X107648286Y-147185048D01*
X108267334Y-147185048D01*
D16*
X113104991Y-143219838D02*
X113104991Y-144001190D01*
X113150952Y-144093114D01*
X113196914Y-144139076D01*
X113288838Y-144185038D01*
X113472686Y-144185038D01*
X113564610Y-144139076D01*
X113610571Y-144093114D01*
X113656533Y-144001190D01*
X113656533Y-143219838D01*
X114621733Y-144185038D02*
X114070191Y-144185038D01*
X114345962Y-144185038D02*
X114345962Y-143219838D01*
X114254038Y-143357724D01*
X114162114Y-143449648D01*
X114070191Y-143495610D01*
X115219238Y-143219838D02*
X115311162Y-143219838D01*
X115403086Y-143265800D01*
X115449048Y-143311762D01*
X115495010Y-143403686D01*
X115540971Y-143587533D01*
X115540971Y-143817343D01*
X115495010Y-144001190D01*
X115449048Y-144093114D01*
X115403086Y-144139076D01*
X115311162Y-144185038D01*
X115219238Y-144185038D01*
X115127314Y-144139076D01*
X115081352Y-144093114D01*
X115035391Y-144001190D01*
X114989429Y-143817343D01*
X114989429Y-143587533D01*
X115035391Y-143403686D01*
X115081352Y-143311762D01*
X115127314Y-143265800D01*
X115219238Y-143219838D01*
X108141106Y-137185038D02*
X108141106Y-136541571D01*
X108141106Y-136633495D02*
X108187067Y-136587533D01*
X108278991Y-136541571D01*
X108416877Y-136541571D01*
X108508801Y-136587533D01*
X108554763Y-136679457D01*
X108554763Y-137185038D01*
X108554763Y-136679457D02*
X108600725Y-136587533D01*
X108692648Y-136541571D01*
X108830534Y-136541571D01*
X108922458Y-136587533D01*
X108968420Y-136679457D01*
X108968420Y-137185038D01*
X109428039Y-137185038D02*
X109428039Y-136541571D01*
X109428039Y-136219838D02*
X109382077Y-136265800D01*
X109428039Y-136311762D01*
X109474000Y-136265800D01*
X109428039Y-136219838D01*
X109428039Y-136311762D01*
X110301315Y-137139076D02*
X110209391Y-137185038D01*
X110025543Y-137185038D01*
X109933619Y-137139076D01*
X109887658Y-137093114D01*
X109841696Y-137001190D01*
X109841696Y-136725419D01*
X109887658Y-136633495D01*
X109933619Y-136587533D01*
X110025543Y-136541571D01*
X110209391Y-136541571D01*
X110301315Y-136587533D01*
X110714972Y-137185038D02*
X110714972Y-136541571D01*
X110714972Y-136725419D02*
X110760933Y-136633495D01*
X110806895Y-136587533D01*
X110898819Y-136541571D01*
X110990743Y-136541571D01*
X111450362Y-137185038D02*
X111358438Y-137139076D01*
X111312477Y-137093114D01*
X111266515Y-137001190D01*
X111266515Y-136725419D01*
X111312477Y-136633495D01*
X111358438Y-136587533D01*
X111450362Y-136541571D01*
X111588248Y-136541571D01*
X111680172Y-136587533D01*
X111726134Y-136633495D01*
X111772096Y-136725419D01*
X111772096Y-137001190D01*
X111726134Y-137093114D01*
X111680172Y-137139076D01*
X111588248Y-137185038D01*
X111450362Y-137185038D01*
X112185753Y-136219838D02*
X112185753Y-137001190D01*
X112231714Y-137093114D01*
X112277676Y-137139076D01*
X112369600Y-137185038D01*
X112553448Y-137185038D01*
X112645372Y-137139076D01*
X112691333Y-137093114D01*
X112737295Y-137001190D01*
X112737295Y-136219838D01*
X113150953Y-137139076D02*
X113288838Y-137185038D01*
X113518648Y-137185038D01*
X113610572Y-137139076D01*
X113656534Y-137093114D01*
X113702495Y-137001190D01*
X113702495Y-136909267D01*
X113656534Y-136817343D01*
X113610572Y-136771381D01*
X113518648Y-136725419D01*
X113334800Y-136679457D01*
X113242876Y-136633495D01*
X113196915Y-136587533D01*
X113150953Y-136495610D01*
X113150953Y-136403686D01*
X113196915Y-136311762D01*
X113242876Y-136265800D01*
X113334800Y-136219838D01*
X113564610Y-136219838D01*
X113702495Y-136265800D01*
X114437886Y-136679457D02*
X114575772Y-136725419D01*
X114621733Y-136771381D01*
X114667695Y-136863305D01*
X114667695Y-137001190D01*
X114621733Y-137093114D01*
X114575772Y-137139076D01*
X114483848Y-137185038D01*
X114116153Y-137185038D01*
X114116153Y-136219838D01*
X114437886Y-136219838D01*
X114529810Y-136265800D01*
X114575772Y-136311762D01*
X114621733Y-136403686D01*
X114621733Y-136495610D01*
X114575772Y-136587533D01*
X114529810Y-136633495D01*
X114437886Y-136679457D01*
X114116153Y-136679457D01*
X115081353Y-136817343D02*
X115816743Y-136817343D01*
X116598096Y-136679457D02*
X116735982Y-136725419D01*
X116781943Y-136771381D01*
X116827905Y-136863305D01*
X116827905Y-137001190D01*
X116781943Y-137093114D01*
X116735982Y-137139076D01*
X116644058Y-137185038D01*
X116276363Y-137185038D01*
X116276363Y-136219838D01*
X116598096Y-136219838D01*
X116690020Y-136265800D01*
X116735982Y-136311762D01*
X116781943Y-136403686D01*
X116781943Y-136495610D01*
X116735982Y-136587533D01*
X116690020Y-136633495D01*
X116598096Y-136679457D01*
X116276363Y-136679457D01*
X117011753Y-137276962D02*
X117747143Y-137276962D01*
X117930991Y-137139076D02*
X118022914Y-137185038D01*
X118206762Y-137185038D01*
X118298686Y-137139076D01*
X118344648Y-137047152D01*
X118344648Y-137001190D01*
X118298686Y-136909267D01*
X118206762Y-136863305D01*
X118068876Y-136863305D01*
X117976953Y-136817343D01*
X117930991Y-136725419D01*
X117930991Y-136679457D01*
X117976953Y-136587533D01*
X118068876Y-136541571D01*
X118206762Y-136541571D01*
X118298686Y-136587533D01*
X118758305Y-137185038D02*
X118758305Y-136541571D01*
X118758305Y-136633495D02*
X118804266Y-136587533D01*
X118896190Y-136541571D01*
X119034076Y-136541571D01*
X119126000Y-136587533D01*
X119171962Y-136679457D01*
X119171962Y-137185038D01*
X119171962Y-136679457D02*
X119217924Y-136587533D01*
X119309847Y-136541571D01*
X119447733Y-136541571D01*
X119539657Y-136587533D01*
X119585619Y-136679457D01*
X119585619Y-137185038D01*
X120458895Y-137185038D02*
X120458895Y-136219838D01*
X120458895Y-137139076D02*
X120366971Y-137185038D01*
X120183123Y-137185038D01*
X120091199Y-137139076D01*
X120045238Y-137093114D01*
X119999276Y-137001190D01*
X119999276Y-136725419D01*
X120045238Y-136633495D01*
X120091199Y-136587533D01*
X120183123Y-136541571D01*
X120366971Y-136541571D01*
X120458895Y-136587533D01*
D12*
X108476143Y-146521714D02*
X108222143Y-146158857D01*
X108040715Y-146521714D02*
X108040715Y-145759714D01*
X108331000Y-145759714D01*
X108403572Y-145796000D01*
X108439857Y-145832286D01*
X108476143Y-145904857D01*
X108476143Y-146013714D01*
X108439857Y-146086286D01*
X108403572Y-146122571D01*
X108331000Y-146158857D01*
X108040715Y-146158857D01*
X108766429Y-145832286D02*
X108802715Y-145796000D01*
X108875286Y-145759714D01*
X109056715Y-145759714D01*
X109129286Y-145796000D01*
X109165572Y-145832286D01*
X109201857Y-145904857D01*
X109201857Y-145977429D01*
X109165572Y-146086286D01*
X108730143Y-146521714D01*
X109201857Y-146521714D01*
X109855000Y-145759714D02*
X109709857Y-145759714D01*
X109637286Y-145796000D01*
X109601000Y-145832286D01*
X109528429Y-145941143D01*
X109492143Y-146086286D01*
X109492143Y-146376571D01*
X109528429Y-146449143D01*
X109564714Y-146485429D01*
X109637286Y-146521714D01*
X109782429Y-146521714D01*
X109855000Y-146485429D01*
X109891286Y-146449143D01*
X109927571Y-146376571D01*
X109927571Y-146195143D01*
X109891286Y-146122571D01*
X109855000Y-146086286D01*
X109782429Y-146050000D01*
X109637286Y-146050000D01*
X109564714Y-146086286D01*
X109528429Y-146122571D01*
X109492143Y-146195143D01*
X117602095Y-168743381D02*
X117602095Y-169552905D01*
X117649714Y-169648143D01*
X117697333Y-169695762D01*
X117792571Y-169743381D01*
X117983048Y-169743381D01*
X118078286Y-169695762D01*
X118125905Y-169648143D01*
X118173524Y-169552905D01*
X118173524Y-168743381D01*
X118697333Y-169743381D02*
X118887809Y-169743381D01*
X118983048Y-169695762D01*
X119030667Y-169648143D01*
X119125905Y-169505286D01*
X119173524Y-169314810D01*
X119173524Y-168933857D01*
X119125905Y-168838619D01*
X119078286Y-168791000D01*
X118983048Y-168743381D01*
X118792571Y-168743381D01*
X118697333Y-168791000D01*
X118649714Y-168838619D01*
X118602095Y-168933857D01*
X118602095Y-169171952D01*
X118649714Y-169267190D01*
X118697333Y-169314810D01*
X118792571Y-169362429D01*
X118983048Y-169362429D01*
X119078286Y-169314810D01*
X119125905Y-169267190D01*
X119173524Y-169171952D01*
M02*
