G04 #@! TF.FileFunction,Copper,L4,Bot,Signal*
%FSLAX46Y46*%
G04 Gerber Fmt 4.6, Leading zero omitted, Abs format (unit mm)*
G04 Created by KiCad (PCBNEW 4.0.0-stable) date Thursday, June 23, 2016 'AMt' 11:02:30 AM*
%MOMM*%
G01*
G04 APERTURE LIST*
%ADD10C,0.100000*%
%ADD11R,0.750000X0.800000*%
%ADD12R,3.395980X1.498600*%
%ADD13R,3.497580X0.995680*%
%ADD14R,0.600000X0.500000*%
%ADD15R,2.300000X1.550000*%
%ADD16R,1.550000X2.300000*%
%ADD17R,0.700000X1.500000*%
%ADD18R,1.500000X0.754000*%
%ADD19R,1.500000X0.700000*%
%ADD20C,0.406400*%
%ADD21C,0.762000*%
%ADD22C,0.508000*%
%ADD23C,0.203200*%
%ADD24C,0.381000*%
G04 APERTURE END LIST*
D10*
D11*
X91694000Y-170295000D03*
X91694000Y-168795000D03*
D12*
X117475000Y-163738560D03*
D13*
X111925100Y-166088060D03*
X111925100Y-168084500D03*
D12*
X117475000Y-170434000D03*
D14*
X118999000Y-159512000D03*
X117899000Y-159512000D03*
D15*
X88646000Y-140271500D03*
X88519000Y-143573500D03*
X88519000Y-147066000D03*
X88519000Y-150431500D03*
X92837000Y-140271500D03*
X92837000Y-143319500D03*
D16*
X89789000Y-157480000D03*
D15*
X88392000Y-153606500D03*
X92837000Y-150622000D03*
X92837000Y-146748500D03*
D16*
X94742000Y-166751000D03*
X94869000Y-162687000D03*
X94869000Y-158242000D03*
X101219000Y-169926000D03*
X108394500Y-160655000D03*
D14*
X95970000Y-142748000D03*
X97070000Y-142748000D03*
X95970000Y-145034000D03*
X97070000Y-145034000D03*
D16*
X99758500Y-161671000D03*
X104076500Y-161925000D03*
X112522000Y-160655000D03*
D17*
X109104000Y-157548000D03*
X106104000Y-157548000D03*
X110104000Y-157548000D03*
X111104000Y-157548000D03*
X112104000Y-157548000D03*
X113104000Y-157548000D03*
X114104000Y-157548000D03*
X115104000Y-157548000D03*
X105104000Y-157548000D03*
X104104000Y-157548000D03*
X103104000Y-157548000D03*
X102104000Y-157548000D03*
X101104000Y-157548000D03*
X100104000Y-157548000D03*
D18*
X116682900Y-155969100D03*
D19*
X98525100Y-155969100D03*
X116682900Y-154969100D03*
X116682900Y-153969100D03*
X116682900Y-152969100D03*
X116682900Y-151969100D03*
X116682900Y-150969100D03*
X116682900Y-149969100D03*
X116682900Y-148969100D03*
X116682900Y-147969100D03*
X98525100Y-154969100D03*
X98525100Y-153969100D03*
X98525100Y-152969100D03*
X98525100Y-151969100D03*
X98525100Y-150969100D03*
X98525100Y-149969100D03*
X98525100Y-148969100D03*
X98525100Y-147969100D03*
D15*
X88773000Y-169989500D03*
D20*
X92117000Y-166243000D03*
X108966000Y-155702000D03*
D21*
X93472000Y-171069000D03*
D20*
X110744000Y-162052000D03*
X96012000Y-143891000D03*
X116713000Y-146558000D03*
X107061000Y-147955000D03*
X112141000Y-146050000D03*
X105410000Y-141859000D03*
X117094000Y-161671000D03*
X108077000Y-166243000D03*
D21*
X115570000Y-168275000D03*
D20*
X98298000Y-163957000D03*
X97028000Y-161671000D03*
X102108000Y-168148000D03*
X87884000Y-164211000D03*
X108331000Y-151257000D03*
X102362000Y-155702000D03*
X94742000Y-151765000D03*
X96520000Y-153289000D03*
X94615000Y-171196000D03*
X113157000Y-153924000D03*
X96774000Y-146939000D03*
X110490000Y-154432000D03*
X102997000Y-159512000D03*
X109220000Y-163576000D03*
X112268000Y-163195000D03*
X96901000Y-165608000D03*
X98679000Y-165735000D03*
X97663000Y-169164000D03*
X92583000Y-164084000D03*
X108839000Y-171069000D03*
X105029000Y-171069000D03*
D21*
X114681000Y-170307000D03*
D20*
X91948000Y-157607000D03*
X107569000Y-143510000D03*
X117475000Y-144780000D03*
X111125000Y-144780000D03*
X91313000Y-153543000D03*
X114808000Y-153797000D03*
X105410000Y-155829000D03*
X88519000Y-141986000D03*
X88773000Y-148717000D03*
X98171000Y-140335000D03*
X100203000Y-167640000D03*
X101981000Y-163830000D03*
X99568000Y-159639000D03*
X107061000Y-148717000D03*
X101600000Y-144907000D03*
X102616000Y-152019000D03*
X117983000Y-165354000D03*
X114935000Y-149860000D03*
X115443000Y-167386000D03*
X93345000Y-168529000D03*
X96393000Y-171196000D03*
X111029000Y-159131000D03*
X101092000Y-167894000D03*
X99822000Y-155575000D03*
X97155000Y-140970000D03*
X102870000Y-150749000D03*
X103886000Y-143637000D03*
X94869000Y-139700000D03*
X95631000Y-148189300D03*
X96393000Y-157607000D03*
X94107000Y-156083000D03*
X106807000Y-160401000D03*
X106807000Y-156083000D03*
X113411000Y-152781000D03*
X106807000Y-165989000D03*
X92837000Y-161798000D03*
X108895000Y-151440000D03*
D22*
X111633000Y-170053000D03*
D20*
X98933000Y-171323000D03*
X97282000Y-162560000D03*
X110490000Y-149860000D03*
X89789000Y-166370000D03*
X102997000Y-152781000D03*
X87376000Y-156591000D03*
X95631000Y-152781000D03*
X101473000Y-149225000D03*
X95631000Y-153797000D03*
X112141000Y-154051000D03*
D21*
X114046000Y-164084000D03*
D20*
X118872000Y-149733000D03*
X115443000Y-159512000D03*
X106045000Y-146812000D03*
X106045000Y-144145000D03*
X104648000Y-149733000D03*
X103124000Y-154178000D03*
X109982000Y-148463000D03*
D23*
X92117000Y-166243000D02*
X94234000Y-166243000D01*
X94234000Y-166243000D02*
X94742000Y-166751000D01*
X108966000Y-155702000D02*
X108394500Y-156273500D01*
X108394500Y-156273500D02*
X108394500Y-160655000D01*
D24*
X91694000Y-170295000D02*
X92698000Y-170295000D01*
X92698000Y-170295000D02*
X93472000Y-171069000D01*
X91694000Y-170295000D02*
X89078500Y-170295000D01*
D23*
X89078500Y-170295000D02*
X88773000Y-169989500D01*
X96012000Y-143891000D02*
X96012000Y-142790000D01*
X96012000Y-142790000D02*
X95970000Y-142748000D01*
X96012000Y-143891000D02*
X96012000Y-144992000D01*
X96012000Y-144992000D02*
X95970000Y-145034000D01*
X116682900Y-147969100D02*
X116682900Y-146588100D01*
X116682900Y-146588100D02*
X116713000Y-146558000D01*
X91694000Y-168795000D02*
X92272200Y-168795000D01*
X92272200Y-168795000D02*
X94615000Y-171137800D01*
X94615000Y-171137800D02*
X94615000Y-171196000D01*
D24*
X111925100Y-168084500D02*
X111925100Y-168785540D01*
X111925100Y-168785540D02*
X113446560Y-170307000D01*
X113446560Y-170307000D02*
X114681000Y-170307000D01*
D23*
X88519000Y-150431500D02*
X88519000Y-151409700D01*
X88519000Y-151409700D02*
X90652300Y-153543000D01*
X90652300Y-153543000D02*
X91313000Y-153543000D01*
X112522000Y-160655000D02*
X112522000Y-160280000D01*
X112522000Y-160280000D02*
X111373000Y-159131000D01*
X111373000Y-159131000D02*
X111029000Y-159131000D01*
X101092000Y-167894000D02*
X101092000Y-169799000D01*
X101092000Y-169799000D02*
X101219000Y-169926000D01*
X101084200Y-155575000D02*
X99822000Y-155575000D01*
X102104000Y-156594800D02*
X101084200Y-155575000D01*
X102104000Y-157548000D02*
X102104000Y-156594800D01*
X102104000Y-157548000D02*
X102104000Y-160303700D01*
X102104000Y-160303700D02*
X100736700Y-161671000D01*
X100736700Y-161671000D02*
X99758500Y-161671000D01*
X102108000Y-157544000D02*
X102104000Y-157548000D01*
X95561500Y-140970000D02*
X97155000Y-140970000D01*
X92837000Y-143319500D02*
X93212000Y-143319500D01*
X93212000Y-143319500D02*
X95561500Y-140970000D01*
X100711000Y-140970000D02*
X102870000Y-143129000D01*
X97155000Y-140970000D02*
X100711000Y-140970000D01*
X102870000Y-143129000D02*
X102870000Y-150749000D01*
X94869000Y-139700000D02*
X93408500Y-139700000D01*
X93408500Y-139700000D02*
X92837000Y-140271500D01*
X103886000Y-143637000D02*
X103886000Y-141732000D01*
X103886000Y-141732000D02*
X101854000Y-139700000D01*
X101854000Y-139700000D02*
X94869000Y-139700000D01*
X98525100Y-151969100D02*
X97571900Y-151969100D01*
X97571900Y-151969100D02*
X95631000Y-150028200D01*
X95631000Y-150028200D02*
X95631000Y-148189300D01*
X92837000Y-146748500D02*
X94190200Y-146748500D01*
X94190200Y-146748500D02*
X95631000Y-148189300D01*
X98448000Y-151892000D02*
X98525100Y-151969100D01*
X96393000Y-157607000D02*
X95504000Y-157607000D01*
X95504000Y-157607000D02*
X94869000Y-158242000D01*
X93345000Y-156083000D02*
X94107000Y-156083000D01*
X92837000Y-156591000D02*
X93345000Y-156083000D01*
X92837000Y-161798000D02*
X92837000Y-156591000D01*
X106807000Y-165989000D02*
X106807000Y-160401000D01*
X106807000Y-160401000D02*
X106807000Y-156083000D01*
X106807000Y-156083000D02*
X107061000Y-155829000D01*
X107061000Y-155829000D02*
X108895000Y-153995000D01*
X92837000Y-161798000D02*
X91313000Y-163322000D01*
X91313000Y-163322000D02*
X91313000Y-167173658D01*
X91313000Y-167173658D02*
X95792543Y-171653201D01*
X95792543Y-171653201D02*
X98602799Y-171653201D01*
X98602799Y-171653201D02*
X98729801Y-171526199D01*
X98729801Y-171526199D02*
X98933000Y-171323000D01*
X108895000Y-153995000D02*
X108895000Y-151440000D01*
X106807000Y-165989000D02*
X101177342Y-165989000D01*
X101177342Y-165989000D02*
X98933000Y-168233342D01*
X98933000Y-168233342D02*
X98933000Y-171035632D01*
X98933000Y-171035632D02*
X98933000Y-171323000D01*
X106807000Y-165989000D02*
X106807000Y-166276368D01*
X106807000Y-166276368D02*
X110583632Y-170053000D01*
X111273790Y-170053000D02*
X111633000Y-170053000D01*
X110583632Y-170053000D02*
X111273790Y-170053000D01*
X108895000Y-151440000D02*
X112070000Y-151440000D01*
X112070000Y-151440000D02*
X113411000Y-152781000D01*
X97282000Y-162560000D02*
X94996000Y-162560000D01*
X94996000Y-162560000D02*
X94869000Y-162687000D01*
X110490000Y-149860000D02*
X112016598Y-149860000D01*
X112016598Y-149860000D02*
X116125698Y-153969100D01*
X116125698Y-153969100D02*
X116682900Y-153969100D01*
X116601000Y-154051000D02*
X116682900Y-153969100D01*
X89789000Y-166370000D02*
X89789000Y-157480000D01*
X89789000Y-157480000D02*
X92329000Y-154940000D01*
X92329000Y-154940000D02*
X98496000Y-154940000D01*
X98496000Y-154940000D02*
X98525100Y-154969100D01*
X102997000Y-152781000D02*
X100808900Y-154969100D01*
X100808900Y-154969100D02*
X98525100Y-154969100D01*
X87376000Y-156591000D02*
X87376000Y-154622500D01*
X87376000Y-154622500D02*
X88392000Y-153606500D01*
X95631000Y-152781000D02*
X98337000Y-152781000D01*
X98337000Y-152781000D02*
X98525100Y-152969100D01*
X95631000Y-153797000D02*
X95631000Y-153479500D01*
X95631000Y-153479500D02*
X92710000Y-150558500D01*
X99478300Y-153969100D02*
X101473000Y-151974400D01*
X98525100Y-153969100D02*
X99478300Y-153969100D01*
X95631000Y-153797000D02*
X98353000Y-153797000D01*
X98353000Y-153797000D02*
X98525100Y-153969100D01*
X101473000Y-151974400D02*
X101473000Y-149225000D01*
X112141000Y-154051000D02*
X113059100Y-154969100D01*
X113059100Y-154969100D02*
X116682900Y-154969100D01*
D24*
X114046000Y-164084000D02*
X112041940Y-166088060D01*
D23*
X112041940Y-166088060D02*
X111925100Y-166088060D01*
X118872000Y-149733000D02*
X118872000Y-159385000D01*
X118872000Y-159385000D02*
X118999000Y-159512000D01*
X115443000Y-159512000D02*
X117899000Y-159512000D01*
X106104000Y-157548000D02*
X106104000Y-146871000D01*
X106104000Y-146871000D02*
X106045000Y-146812000D01*
X104104000Y-157548000D02*
X104104000Y-161897500D01*
X104104000Y-161897500D02*
X104076500Y-161925000D01*
X104648000Y-149733000D02*
X104648000Y-145542000D01*
X104648000Y-145542000D02*
X106045000Y-144145000D01*
X104648000Y-149733000D02*
X104597201Y-149783799D01*
X104597201Y-149783799D02*
X104597201Y-156101599D01*
X104597201Y-156101599D02*
X104104000Y-156594800D01*
X104104000Y-156594800D02*
X104104000Y-157548000D01*
X103104000Y-155214000D02*
X103104000Y-154198000D01*
X103104000Y-154198000D02*
X103124000Y-154178000D01*
X103104000Y-157548000D02*
X103104000Y-155214000D01*
X109982000Y-148463000D02*
X111619598Y-148463000D01*
X111619598Y-148463000D02*
X116125698Y-152969100D01*
X116125698Y-152969100D02*
X116682900Y-152969100D01*
G36*
X108985335Y-139228202D02*
X109040395Y-139310605D01*
X109122798Y-139365665D01*
X109220000Y-139385000D01*
X111246000Y-139385000D01*
X111246000Y-140630000D01*
X111250881Y-140654538D01*
X111250881Y-140679553D01*
X111279882Y-140825350D01*
X111279882Y-140825353D01*
X111317808Y-140916916D01*
X111400398Y-141040522D01*
X111470478Y-141110602D01*
X111594084Y-141193192D01*
X111685647Y-141231118D01*
X111685650Y-141231118D01*
X111831446Y-141260119D01*
X111856462Y-141260119D01*
X111881000Y-141265000D01*
X111969000Y-141265000D01*
X111993538Y-141260119D01*
X112018553Y-141260119D01*
X112164350Y-141231118D01*
X112164353Y-141231118D01*
X112255916Y-141193192D01*
X112379522Y-141110602D01*
X112449602Y-141040522D01*
X112532192Y-140916916D01*
X112570118Y-140825353D01*
X112570118Y-140825350D01*
X112599119Y-140679554D01*
X112599119Y-140654538D01*
X112604000Y-140630000D01*
X112604000Y-139385000D01*
X115996000Y-139385000D01*
X115996000Y-140630000D01*
X116000881Y-140654538D01*
X116000881Y-140679553D01*
X116029882Y-140825350D01*
X116029882Y-140825353D01*
X116067808Y-140916916D01*
X116150398Y-141040522D01*
X116220478Y-141110602D01*
X116344084Y-141193192D01*
X116435647Y-141231118D01*
X116435650Y-141231118D01*
X116581446Y-141260119D01*
X116606462Y-141260119D01*
X116631000Y-141265000D01*
X116719000Y-141265000D01*
X116743538Y-141260119D01*
X116768553Y-141260119D01*
X116914350Y-141231118D01*
X116914353Y-141231118D01*
X117005916Y-141193192D01*
X117129522Y-141110602D01*
X117199602Y-141040522D01*
X117282192Y-140916916D01*
X117320118Y-140825353D01*
X117320118Y-140825350D01*
X117349119Y-140679554D01*
X117349119Y-140654538D01*
X117354000Y-140630000D01*
X117354000Y-139385000D01*
X119380000Y-139385000D01*
X119432000Y-139374656D01*
X119432000Y-159045459D01*
X119399756Y-159023428D01*
X119299000Y-159003024D01*
X119227600Y-159003024D01*
X119227600Y-150024035D01*
X119259369Y-149992321D01*
X119329120Y-149824342D01*
X119329279Y-149642456D01*
X119259821Y-149474355D01*
X119131321Y-149345631D01*
X118963342Y-149275880D01*
X118781456Y-149275721D01*
X118613355Y-149345179D01*
X118484631Y-149473679D01*
X118414880Y-149641658D01*
X118414721Y-149823544D01*
X118484179Y-149991645D01*
X118516400Y-150023922D01*
X118516400Y-159079326D01*
X118460428Y-159161244D01*
X118449330Y-159216048D01*
X118440265Y-159167873D01*
X118384636Y-159081424D01*
X118299756Y-159023428D01*
X118199000Y-159003024D01*
X117599000Y-159003024D01*
X117504873Y-159020735D01*
X117418424Y-159076364D01*
X117363738Y-159156400D01*
X115734035Y-159156400D01*
X115702321Y-159124631D01*
X115534342Y-159054880D01*
X115352456Y-159054721D01*
X115184355Y-159124179D01*
X115055631Y-159252679D01*
X114985880Y-159420658D01*
X114985721Y-159602544D01*
X115055179Y-159770645D01*
X115183679Y-159899369D01*
X115351658Y-159969120D01*
X115533544Y-159969279D01*
X115701645Y-159899821D01*
X115733922Y-159867600D01*
X117365118Y-159867600D01*
X117413364Y-159942576D01*
X117498244Y-160000572D01*
X117599000Y-160020976D01*
X118199000Y-160020976D01*
X118293127Y-160003265D01*
X118379576Y-159947636D01*
X118437572Y-159862756D01*
X118448670Y-159807952D01*
X118457735Y-159856127D01*
X118513364Y-159942576D01*
X118598244Y-160000572D01*
X118699000Y-160020976D01*
X119299000Y-160020976D01*
X119393127Y-160003265D01*
X119432000Y-159978251D01*
X119432000Y-171502000D01*
X99353721Y-171502000D01*
X99390120Y-171414342D01*
X99390279Y-171232456D01*
X99320821Y-171064355D01*
X99288600Y-171032078D01*
X99288600Y-168776000D01*
X100185024Y-168776000D01*
X100185024Y-171076000D01*
X100202735Y-171170127D01*
X100258364Y-171256576D01*
X100343244Y-171314572D01*
X100444000Y-171334976D01*
X101994000Y-171334976D01*
X102088127Y-171317265D01*
X102174576Y-171261636D01*
X102232572Y-171176756D01*
X102252976Y-171076000D01*
X102252976Y-169656704D01*
X106375904Y-169656704D01*
X106460827Y-169862234D01*
X106617939Y-170019620D01*
X106823320Y-170104902D01*
X107045704Y-170105096D01*
X107251234Y-170020173D01*
X107408620Y-169863061D01*
X107493902Y-169657680D01*
X107494096Y-169435296D01*
X107409173Y-169229766D01*
X107252061Y-169072380D01*
X107046680Y-168987098D01*
X106824296Y-168986904D01*
X106618766Y-169071827D01*
X106461380Y-169228939D01*
X106376098Y-169434320D01*
X106375904Y-169656704D01*
X102252976Y-169656704D01*
X102252976Y-168776000D01*
X102235265Y-168681873D01*
X102179636Y-168595424D01*
X102094756Y-168537428D01*
X101994000Y-168517024D01*
X101447600Y-168517024D01*
X101447600Y-168185035D01*
X101479369Y-168153321D01*
X101549120Y-167985342D01*
X101549279Y-167803456D01*
X101479821Y-167635355D01*
X101351321Y-167506631D01*
X101183342Y-167436880D01*
X101001456Y-167436721D01*
X100833355Y-167506179D01*
X100704631Y-167634679D01*
X100634880Y-167802658D01*
X100634721Y-167984544D01*
X100704179Y-168152645D01*
X100736400Y-168184922D01*
X100736400Y-168517024D01*
X100444000Y-168517024D01*
X100349873Y-168534735D01*
X100263424Y-168590364D01*
X100205428Y-168675244D01*
X100185024Y-168776000D01*
X99288600Y-168776000D01*
X99288600Y-168380636D01*
X101324636Y-166344600D01*
X106464972Y-166344600D01*
X106478468Y-166412451D01*
X106555553Y-166527815D01*
X110332185Y-170304447D01*
X110447549Y-170381532D01*
X110583632Y-170408600D01*
X111270186Y-170408600D01*
X111344866Y-170483410D01*
X111531509Y-170560911D01*
X111733604Y-170561088D01*
X111920383Y-170483912D01*
X112063410Y-170341134D01*
X112140911Y-170154491D01*
X112141088Y-169952396D01*
X112063912Y-169765617D01*
X111983136Y-169684700D01*
X115518034Y-169684700D01*
X115518034Y-171183300D01*
X115535745Y-171277427D01*
X115591374Y-171363876D01*
X115676254Y-171421872D01*
X115777010Y-171442276D01*
X119172990Y-171442276D01*
X119267117Y-171424565D01*
X119353566Y-171368936D01*
X119411562Y-171284056D01*
X119431966Y-171183300D01*
X119431966Y-169684700D01*
X119414255Y-169590573D01*
X119358626Y-169504124D01*
X119273746Y-169446128D01*
X119172990Y-169425724D01*
X115777010Y-169425724D01*
X115682883Y-169443435D01*
X115596434Y-169499064D01*
X115538438Y-169583944D01*
X115518034Y-169684700D01*
X111983136Y-169684700D01*
X111921134Y-169622590D01*
X111734491Y-169545089D01*
X111532396Y-169544912D01*
X111345617Y-169622088D01*
X111270174Y-169697400D01*
X110730926Y-169697400D01*
X110225466Y-169191940D01*
X111620300Y-169191940D01*
X111772700Y-169039540D01*
X111772700Y-168236900D01*
X112077500Y-168236900D01*
X112077500Y-169039540D01*
X112229900Y-169191940D01*
X113795147Y-169191940D01*
X114019201Y-169099134D01*
X114190684Y-168927651D01*
X114283490Y-168703597D01*
X114283490Y-168400755D01*
X114934890Y-168400755D01*
X115031360Y-168634228D01*
X115209832Y-168813013D01*
X115443137Y-168909889D01*
X115695755Y-168910110D01*
X115929228Y-168813640D01*
X116108013Y-168635168D01*
X116204889Y-168401863D01*
X116205110Y-168149245D01*
X116108640Y-167915772D01*
X115930168Y-167736987D01*
X115696863Y-167640111D01*
X115444245Y-167639890D01*
X115210772Y-167736360D01*
X115031987Y-167914832D01*
X114935111Y-168148137D01*
X114934890Y-168400755D01*
X114283490Y-168400755D01*
X114283490Y-168389300D01*
X114131090Y-168236900D01*
X112077500Y-168236900D01*
X111772700Y-168236900D01*
X109719110Y-168236900D01*
X109566710Y-168389300D01*
X109566710Y-168533184D01*
X108498929Y-167465403D01*
X109566710Y-167465403D01*
X109566710Y-167779700D01*
X109719110Y-167932100D01*
X111772700Y-167932100D01*
X111772700Y-167129460D01*
X112077500Y-167129460D01*
X112077500Y-167932100D01*
X114131090Y-167932100D01*
X114283490Y-167779700D01*
X114283490Y-167465403D01*
X114190684Y-167241349D01*
X114019201Y-167069866D01*
X113795147Y-166977060D01*
X112229900Y-166977060D01*
X112077500Y-167129460D01*
X111772700Y-167129460D01*
X111620300Y-166977060D01*
X110055053Y-166977060D01*
X109830999Y-167069866D01*
X109659516Y-167241349D01*
X109566710Y-167465403D01*
X108498929Y-167465403D01*
X107367070Y-166333544D01*
X107619721Y-166333544D01*
X107689179Y-166501645D01*
X107817679Y-166630369D01*
X107985658Y-166700120D01*
X108167544Y-166700279D01*
X108335645Y-166630821D01*
X108464369Y-166502321D01*
X108534120Y-166334342D01*
X108534279Y-166152456D01*
X108464821Y-165984355D01*
X108336321Y-165855631D01*
X108168342Y-165785880D01*
X107986456Y-165785721D01*
X107818355Y-165855179D01*
X107689631Y-165983679D01*
X107619880Y-166151658D01*
X107619721Y-166333544D01*
X107367070Y-166333544D01*
X107220035Y-166186509D01*
X107264120Y-166080342D01*
X107264279Y-165898456D01*
X107194821Y-165730355D01*
X107162600Y-165698078D01*
X107162600Y-165590220D01*
X109917334Y-165590220D01*
X109917334Y-166585900D01*
X109935045Y-166680027D01*
X109990674Y-166766476D01*
X110075554Y-166824472D01*
X110176310Y-166844876D01*
X113673890Y-166844876D01*
X113768017Y-166827165D01*
X113854466Y-166771536D01*
X113912462Y-166686656D01*
X113932866Y-166585900D01*
X113932866Y-165590220D01*
X113915155Y-165496093D01*
X113859526Y-165409644D01*
X113774646Y-165351648D01*
X113673890Y-165331244D01*
X113427374Y-165331244D01*
X114039624Y-164718994D01*
X114171755Y-164719110D01*
X114405228Y-164622640D01*
X114584013Y-164444168D01*
X114680889Y-164210863D01*
X114681110Y-163958245D01*
X114584640Y-163724772D01*
X114406168Y-163545987D01*
X114172863Y-163449111D01*
X113920245Y-163448890D01*
X113686772Y-163545360D01*
X113507987Y-163723832D01*
X113411111Y-163957137D01*
X113410994Y-164090388D01*
X112170138Y-165331244D01*
X110176310Y-165331244D01*
X110082183Y-165348955D01*
X109995734Y-165404584D01*
X109937738Y-165489464D01*
X109917334Y-165590220D01*
X107162600Y-165590220D01*
X107162600Y-162989260D01*
X115518034Y-162989260D01*
X115518034Y-164487860D01*
X115535745Y-164581987D01*
X115591374Y-164668436D01*
X115676254Y-164726432D01*
X115777010Y-164746836D01*
X119172990Y-164746836D01*
X119267117Y-164729125D01*
X119353566Y-164673496D01*
X119411562Y-164588616D01*
X119431966Y-164487860D01*
X119431966Y-162989260D01*
X119414255Y-162895133D01*
X119358626Y-162808684D01*
X119273746Y-162750688D01*
X119172990Y-162730284D01*
X115777010Y-162730284D01*
X115682883Y-162747995D01*
X115596434Y-162803624D01*
X115538438Y-162888504D01*
X115518034Y-162989260D01*
X107162600Y-162989260D01*
X107162600Y-162142544D01*
X110286721Y-162142544D01*
X110356179Y-162310645D01*
X110484679Y-162439369D01*
X110652658Y-162509120D01*
X110834544Y-162509279D01*
X111002645Y-162439821D01*
X111131369Y-162311321D01*
X111201120Y-162143342D01*
X111201279Y-161961456D01*
X111131821Y-161793355D01*
X111003321Y-161664631D01*
X110835342Y-161594880D01*
X110653456Y-161594721D01*
X110485355Y-161664179D01*
X110356631Y-161792679D01*
X110286880Y-161960658D01*
X110286721Y-162142544D01*
X107162600Y-162142544D01*
X107162600Y-160692035D01*
X107194369Y-160660321D01*
X107264120Y-160492342D01*
X107264279Y-160310456D01*
X107194821Y-160142355D01*
X107162600Y-160110078D01*
X107162600Y-159505000D01*
X107360524Y-159505000D01*
X107360524Y-161805000D01*
X107378235Y-161899127D01*
X107433864Y-161985576D01*
X107518744Y-162043572D01*
X107619500Y-162063976D01*
X109169500Y-162063976D01*
X109263627Y-162046265D01*
X109350076Y-161990636D01*
X109408072Y-161905756D01*
X109428476Y-161805000D01*
X109428476Y-159505000D01*
X109410765Y-159410873D01*
X109355136Y-159324424D01*
X109270256Y-159266428D01*
X109169500Y-159246024D01*
X108750100Y-159246024D01*
X108750100Y-159221544D01*
X110571721Y-159221544D01*
X110641179Y-159389645D01*
X110769679Y-159518369D01*
X110937658Y-159588120D01*
X111119544Y-159588279D01*
X111266616Y-159527510D01*
X111488024Y-159748918D01*
X111488024Y-161805000D01*
X111505735Y-161899127D01*
X111561364Y-161985576D01*
X111646244Y-162043572D01*
X111747000Y-162063976D01*
X113297000Y-162063976D01*
X113391127Y-162046265D01*
X113477576Y-161990636D01*
X113535572Y-161905756D01*
X113555976Y-161805000D01*
X113555976Y-161761544D01*
X116636721Y-161761544D01*
X116706179Y-161929645D01*
X116834679Y-162058369D01*
X117002658Y-162128120D01*
X117184544Y-162128279D01*
X117352645Y-162058821D01*
X117481369Y-161930321D01*
X117551120Y-161762342D01*
X117551279Y-161580456D01*
X117481821Y-161412355D01*
X117353321Y-161283631D01*
X117185342Y-161213880D01*
X117003456Y-161213721D01*
X116835355Y-161283179D01*
X116706631Y-161411679D01*
X116636880Y-161579658D01*
X116636721Y-161761544D01*
X113555976Y-161761544D01*
X113555976Y-159505000D01*
X113538265Y-159410873D01*
X113482636Y-159324424D01*
X113397756Y-159266428D01*
X113297000Y-159246024D01*
X111990918Y-159246024D01*
X111624447Y-158879553D01*
X111509083Y-158802468D01*
X111373000Y-158775400D01*
X111320035Y-158775400D01*
X111288321Y-158743631D01*
X111120342Y-158673880D01*
X110938456Y-158673721D01*
X110770355Y-158743179D01*
X110641631Y-158871679D01*
X110571880Y-159039658D01*
X110571721Y-159221544D01*
X108750100Y-159221544D01*
X108750100Y-158556186D01*
X108754000Y-158556976D01*
X109454000Y-158556976D01*
X109548127Y-158539265D01*
X109604291Y-158503124D01*
X109653244Y-158536572D01*
X109754000Y-158556976D01*
X110454000Y-158556976D01*
X110548127Y-158539265D01*
X110604291Y-158503124D01*
X110653244Y-158536572D01*
X110754000Y-158556976D01*
X111454000Y-158556976D01*
X111548127Y-158539265D01*
X111604291Y-158503124D01*
X111653244Y-158536572D01*
X111754000Y-158556976D01*
X112454000Y-158556976D01*
X112548127Y-158539265D01*
X112604291Y-158503124D01*
X112653244Y-158536572D01*
X112754000Y-158556976D01*
X113454000Y-158556976D01*
X113548127Y-158539265D01*
X113604291Y-158503124D01*
X113653244Y-158536572D01*
X113754000Y-158556976D01*
X114454000Y-158556976D01*
X114548127Y-158539265D01*
X114604291Y-158503124D01*
X114653244Y-158536572D01*
X114754000Y-158556976D01*
X115454000Y-158556976D01*
X115548127Y-158539265D01*
X115634576Y-158483636D01*
X115692572Y-158398756D01*
X115712976Y-158298000D01*
X115712976Y-156798000D01*
X115695265Y-156703873D01*
X115639636Y-156617424D01*
X115554756Y-156559428D01*
X115454000Y-156539024D01*
X114754000Y-156539024D01*
X114659873Y-156556735D01*
X114603709Y-156592876D01*
X114554756Y-156559428D01*
X114454000Y-156539024D01*
X113754000Y-156539024D01*
X113659873Y-156556735D01*
X113603709Y-156592876D01*
X113554756Y-156559428D01*
X113454000Y-156539024D01*
X112754000Y-156539024D01*
X112659873Y-156556735D01*
X112603709Y-156592876D01*
X112554756Y-156559428D01*
X112454000Y-156539024D01*
X111754000Y-156539024D01*
X111659873Y-156556735D01*
X111603709Y-156592876D01*
X111554756Y-156559428D01*
X111454000Y-156539024D01*
X110754000Y-156539024D01*
X110659873Y-156556735D01*
X110603709Y-156592876D01*
X110554756Y-156559428D01*
X110454000Y-156539024D01*
X109754000Y-156539024D01*
X109659873Y-156556735D01*
X109603709Y-156592876D01*
X109554756Y-156559428D01*
X109454000Y-156539024D01*
X108754000Y-156539024D01*
X108750100Y-156539758D01*
X108750100Y-156420794D01*
X109011654Y-156159240D01*
X109056544Y-156159279D01*
X109224645Y-156089821D01*
X109353369Y-155961321D01*
X109423120Y-155793342D01*
X109423279Y-155611456D01*
X109353821Y-155443355D01*
X109225321Y-155314631D01*
X109057342Y-155244880D01*
X108875456Y-155244721D01*
X108707355Y-155314179D01*
X108578631Y-155442679D01*
X108508880Y-155610658D01*
X108508840Y-155656266D01*
X108143053Y-156022053D01*
X108065968Y-156137417D01*
X108052798Y-156203631D01*
X108038900Y-156273500D01*
X108038900Y-159246024D01*
X107619500Y-159246024D01*
X107525373Y-159263735D01*
X107438924Y-159319364D01*
X107380928Y-159404244D01*
X107360524Y-159505000D01*
X107162600Y-159505000D01*
X107162600Y-156374035D01*
X107194369Y-156342321D01*
X107264120Y-156174342D01*
X107264160Y-156128734D01*
X109146447Y-154246447D01*
X109223532Y-154131082D01*
X109250600Y-153995000D01*
X109250600Y-151795600D01*
X111922706Y-151795600D01*
X112953760Y-152826654D01*
X112953721Y-152871544D01*
X113023179Y-153039645D01*
X113151679Y-153168369D01*
X113319658Y-153238120D01*
X113501544Y-153238279D01*
X113669645Y-153168821D01*
X113798369Y-153040321D01*
X113868120Y-152872342D01*
X113868279Y-152690456D01*
X113798821Y-152522355D01*
X113670321Y-152393631D01*
X113502342Y-152323880D01*
X113456734Y-152323840D01*
X112321447Y-151188553D01*
X112206083Y-151111468D01*
X112070000Y-151084400D01*
X109186035Y-151084400D01*
X109154321Y-151052631D01*
X108986342Y-150982880D01*
X108804456Y-150982721D01*
X108636355Y-151052179D01*
X108507631Y-151180679D01*
X108437880Y-151348658D01*
X108437721Y-151530544D01*
X108507179Y-151698645D01*
X108539400Y-151730922D01*
X108539400Y-153847706D01*
X106761346Y-155625760D01*
X106716456Y-155625721D01*
X106548355Y-155695179D01*
X106459600Y-155783780D01*
X106459600Y-148553544D01*
X109524721Y-148553544D01*
X109594179Y-148721645D01*
X109722679Y-148850369D01*
X109890658Y-148920120D01*
X110072544Y-148920279D01*
X110240645Y-148850821D01*
X110272922Y-148818600D01*
X111472304Y-148818600D01*
X112250601Y-149596897D01*
X112152681Y-149531468D01*
X112016598Y-149504400D01*
X110781035Y-149504400D01*
X110749321Y-149472631D01*
X110581342Y-149402880D01*
X110399456Y-149402721D01*
X110231355Y-149472179D01*
X110102631Y-149600679D01*
X110032880Y-149768658D01*
X110032721Y-149950544D01*
X110102179Y-150118645D01*
X110230679Y-150247369D01*
X110398658Y-150317120D01*
X110580544Y-150317279D01*
X110748645Y-150247821D01*
X110780922Y-150215600D01*
X111869304Y-150215600D01*
X115673924Y-154020220D01*
X115673924Y-154319100D01*
X115691635Y-154413227D01*
X115727776Y-154469391D01*
X115694328Y-154518344D01*
X115675058Y-154613500D01*
X113206395Y-154613500D01*
X112598240Y-154005346D01*
X112598279Y-153960456D01*
X112528821Y-153792355D01*
X112400321Y-153663631D01*
X112232342Y-153593880D01*
X112050456Y-153593721D01*
X111882355Y-153663179D01*
X111753631Y-153791679D01*
X111683880Y-153959658D01*
X111683721Y-154141544D01*
X111753179Y-154309645D01*
X111881679Y-154438369D01*
X112049658Y-154508120D01*
X112095266Y-154508160D01*
X112807652Y-155220547D01*
X112846446Y-155246468D01*
X112923018Y-155297632D01*
X113059100Y-155324700D01*
X115674978Y-155324700D01*
X115691635Y-155413227D01*
X115718828Y-155455486D01*
X115694328Y-155491344D01*
X115673924Y-155592100D01*
X115673924Y-156346100D01*
X115691635Y-156440227D01*
X115747264Y-156526676D01*
X115832144Y-156584672D01*
X115932900Y-156605076D01*
X117432900Y-156605076D01*
X117527027Y-156587365D01*
X117613476Y-156531736D01*
X117671472Y-156446856D01*
X117691876Y-156346100D01*
X117691876Y-155592100D01*
X117674165Y-155497973D01*
X117646972Y-155455714D01*
X117671472Y-155419856D01*
X117691876Y-155319100D01*
X117691876Y-154619100D01*
X117674165Y-154524973D01*
X117638024Y-154468809D01*
X117671472Y-154419856D01*
X117691876Y-154319100D01*
X117691876Y-153619100D01*
X117674165Y-153524973D01*
X117638024Y-153468809D01*
X117671472Y-153419856D01*
X117691876Y-153319100D01*
X117691876Y-152619100D01*
X117674165Y-152524973D01*
X117638024Y-152468809D01*
X117671472Y-152419856D01*
X117691876Y-152319100D01*
X117691876Y-151619100D01*
X117674165Y-151524973D01*
X117638024Y-151468809D01*
X117671472Y-151419856D01*
X117691876Y-151319100D01*
X117691876Y-150619100D01*
X117674165Y-150524973D01*
X117638024Y-150468809D01*
X117671472Y-150419856D01*
X117691876Y-150319100D01*
X117691876Y-149619100D01*
X117674165Y-149524973D01*
X117638024Y-149468809D01*
X117671472Y-149419856D01*
X117691876Y-149319100D01*
X117691876Y-148619100D01*
X117674165Y-148524973D01*
X117638024Y-148468809D01*
X117671472Y-148419856D01*
X117691876Y-148319100D01*
X117691876Y-147619100D01*
X117674165Y-147524973D01*
X117618536Y-147438524D01*
X117533656Y-147380528D01*
X117432900Y-147360124D01*
X117038500Y-147360124D01*
X117038500Y-146879082D01*
X117100369Y-146817321D01*
X117170120Y-146649342D01*
X117170279Y-146467456D01*
X117100821Y-146299355D01*
X116972321Y-146170631D01*
X116804342Y-146100880D01*
X116622456Y-146100721D01*
X116454355Y-146170179D01*
X116325631Y-146298679D01*
X116255880Y-146466658D01*
X116255721Y-146648544D01*
X116325179Y-146816645D01*
X116327300Y-146818770D01*
X116327300Y-147360124D01*
X115932900Y-147360124D01*
X115838773Y-147377835D01*
X115752324Y-147433464D01*
X115694328Y-147518344D01*
X115673924Y-147619100D01*
X115673924Y-148319100D01*
X115691635Y-148413227D01*
X115727776Y-148469391D01*
X115694328Y-148518344D01*
X115673924Y-148619100D01*
X115673924Y-149319100D01*
X115691635Y-149413227D01*
X115727776Y-149469391D01*
X115694328Y-149518344D01*
X115673924Y-149619100D01*
X115673924Y-150319100D01*
X115691635Y-150413227D01*
X115727776Y-150469391D01*
X115694328Y-150518344D01*
X115673924Y-150619100D01*
X115673924Y-151319100D01*
X115691635Y-151413227D01*
X115727776Y-151469391D01*
X115694328Y-151518344D01*
X115673924Y-151619100D01*
X115673924Y-152014432D01*
X111871045Y-148211553D01*
X111755681Y-148134468D01*
X111619598Y-148107400D01*
X110273035Y-148107400D01*
X110241321Y-148075631D01*
X110073342Y-148005880D01*
X109891456Y-148005721D01*
X109723355Y-148075179D01*
X109594631Y-148203679D01*
X109524880Y-148371658D01*
X109524721Y-148553544D01*
X106459600Y-148553544D01*
X106459600Y-148045544D01*
X106603721Y-148045544D01*
X106673179Y-148213645D01*
X106801679Y-148342369D01*
X106969658Y-148412120D01*
X107151544Y-148412279D01*
X107319645Y-148342821D01*
X107448369Y-148214321D01*
X107518120Y-148046342D01*
X107518279Y-147864456D01*
X107448821Y-147696355D01*
X107320321Y-147567631D01*
X107152342Y-147497880D01*
X106970456Y-147497721D01*
X106802355Y-147567179D01*
X106673631Y-147695679D01*
X106603880Y-147863658D01*
X106603721Y-148045544D01*
X106459600Y-148045544D01*
X106459600Y-147005741D01*
X106502120Y-146903342D01*
X106502279Y-146721456D01*
X106432821Y-146553355D01*
X106304321Y-146424631D01*
X106136342Y-146354880D01*
X105954456Y-146354721D01*
X105786355Y-146424179D01*
X105657631Y-146552679D01*
X105587880Y-146720658D01*
X105587721Y-146902544D01*
X105657179Y-147070645D01*
X105748400Y-147162025D01*
X105748400Y-156540078D01*
X105659873Y-156556735D01*
X105603709Y-156592876D01*
X105554756Y-156559428D01*
X105454000Y-156539024D01*
X104754000Y-156539024D01*
X104659873Y-156556735D01*
X104618040Y-156583654D01*
X104848648Y-156353046D01*
X104925733Y-156237681D01*
X104952801Y-156101599D01*
X104952801Y-150074745D01*
X105035369Y-149992321D01*
X105105120Y-149824342D01*
X105105279Y-149642456D01*
X105035821Y-149474355D01*
X105003600Y-149442078D01*
X105003600Y-145689294D01*
X106090654Y-144602240D01*
X106129040Y-144602273D01*
X106040983Y-144690177D01*
X105880183Y-145077427D01*
X105879818Y-145496734D01*
X106039941Y-145884263D01*
X106336177Y-146181017D01*
X106723427Y-146341817D01*
X107142734Y-146342182D01*
X107530263Y-146182059D01*
X107571850Y-146140544D01*
X111683721Y-146140544D01*
X111753179Y-146308645D01*
X111881679Y-146437369D01*
X112049658Y-146507120D01*
X112231544Y-146507279D01*
X112399645Y-146437821D01*
X112528369Y-146309321D01*
X112598120Y-146141342D01*
X112598279Y-145959456D01*
X112528821Y-145791355D01*
X112400321Y-145662631D01*
X112232342Y-145592880D01*
X112050456Y-145592721D01*
X111882355Y-145662179D01*
X111753631Y-145790679D01*
X111683880Y-145958658D01*
X111683721Y-146140544D01*
X107571850Y-146140544D01*
X107827017Y-145885823D01*
X107987817Y-145498573D01*
X107988182Y-145079266D01*
X107828059Y-144691737D01*
X107531823Y-144394983D01*
X107144573Y-144234183D01*
X106725266Y-144233818D01*
X106457171Y-144344592D01*
X106502120Y-144236342D01*
X106502279Y-144054456D01*
X106432821Y-143886355D01*
X106304321Y-143757631D01*
X106136342Y-143687880D01*
X105954456Y-143687721D01*
X105786355Y-143757179D01*
X105657631Y-143885679D01*
X105587880Y-144053658D01*
X105587840Y-144099266D01*
X104396553Y-145290553D01*
X104319468Y-145405917D01*
X104319468Y-145405918D01*
X104292400Y-145542000D01*
X104292400Y-149441965D01*
X104260631Y-149473679D01*
X104190880Y-149641658D01*
X104190721Y-149823544D01*
X104241601Y-149946683D01*
X104241601Y-155954305D01*
X103852553Y-156343353D01*
X103775468Y-156458717D01*
X103760944Y-156531736D01*
X103759494Y-156539024D01*
X103754000Y-156539024D01*
X103659873Y-156556735D01*
X103603709Y-156592876D01*
X103554756Y-156559428D01*
X103459600Y-156540158D01*
X103459600Y-154489000D01*
X103511369Y-154437321D01*
X103581120Y-154269342D01*
X103581279Y-154087456D01*
X103511821Y-153919355D01*
X103383321Y-153790631D01*
X103215342Y-153720880D01*
X103033456Y-153720721D01*
X102865355Y-153790179D01*
X102736631Y-153918679D01*
X102666880Y-154086658D01*
X102666721Y-154268544D01*
X102736179Y-154436645D01*
X102748400Y-154448887D01*
X102748400Y-156540078D01*
X102659873Y-156556735D01*
X102603709Y-156592876D01*
X102554756Y-156559428D01*
X102454000Y-156539024D01*
X102448506Y-156539024D01*
X102447056Y-156531736D01*
X102432532Y-156458717D01*
X102355447Y-156343353D01*
X101335647Y-155323553D01*
X101220283Y-155246468D01*
X101084200Y-155219400D01*
X101061494Y-155219400D01*
X103042654Y-153238240D01*
X103087544Y-153238279D01*
X103255645Y-153168821D01*
X103384369Y-153040321D01*
X103454120Y-152872342D01*
X103454279Y-152690456D01*
X103384821Y-152522355D01*
X103256321Y-152393631D01*
X103088342Y-152323880D01*
X102906456Y-152323721D01*
X102738355Y-152393179D01*
X102609631Y-152521679D01*
X102539880Y-152689658D01*
X102539840Y-152735266D01*
X100661606Y-154613500D01*
X99533022Y-154613500D01*
X99516365Y-154524973D01*
X99480224Y-154468809D01*
X99513672Y-154419856D01*
X99534076Y-154319100D01*
X99534076Y-154313606D01*
X99614383Y-154297632D01*
X99729747Y-154220547D01*
X101724447Y-152225847D01*
X101801532Y-152110483D01*
X101828600Y-151974400D01*
X101828600Y-149516035D01*
X101860369Y-149484321D01*
X101930120Y-149316342D01*
X101930279Y-149134456D01*
X101860821Y-148966355D01*
X101732321Y-148837631D01*
X101564342Y-148767880D01*
X101382456Y-148767721D01*
X101214355Y-148837179D01*
X101085631Y-148965679D01*
X101015880Y-149133658D01*
X101015721Y-149315544D01*
X101085179Y-149483645D01*
X101117400Y-149515922D01*
X101117400Y-151827106D01*
X99489990Y-153454516D01*
X99513672Y-153419856D01*
X99534076Y-153319100D01*
X99534076Y-152619100D01*
X99516365Y-152524973D01*
X99480224Y-152468809D01*
X99513672Y-152419856D01*
X99534076Y-152319100D01*
X99534076Y-151619100D01*
X99516365Y-151524973D01*
X99480224Y-151468809D01*
X99513672Y-151419856D01*
X99534076Y-151319100D01*
X99534076Y-150619100D01*
X99516365Y-150524973D01*
X99480224Y-150468809D01*
X99513672Y-150419856D01*
X99534076Y-150319100D01*
X99534076Y-149619100D01*
X99516365Y-149524973D01*
X99480224Y-149468809D01*
X99513672Y-149419856D01*
X99534076Y-149319100D01*
X99534076Y-148871655D01*
X99620411Y-148835894D01*
X99791894Y-148664411D01*
X99884700Y-148440357D01*
X99884700Y-148273900D01*
X99732300Y-148121500D01*
X98677500Y-148121500D01*
X98677500Y-148141500D01*
X98372700Y-148141500D01*
X98372700Y-148121500D01*
X97317900Y-148121500D01*
X97165500Y-148273900D01*
X97165500Y-148440357D01*
X97258306Y-148664411D01*
X97429789Y-148835894D01*
X97516124Y-148871655D01*
X97516124Y-149319100D01*
X97533835Y-149413227D01*
X97569976Y-149469391D01*
X97536528Y-149518344D01*
X97516124Y-149619100D01*
X97516124Y-150319100D01*
X97533835Y-150413227D01*
X97569976Y-150469391D01*
X97536528Y-150518344D01*
X97516124Y-150619100D01*
X97516124Y-151319100D01*
X97533835Y-151413227D01*
X97560754Y-151455060D01*
X95986600Y-149880906D01*
X95986600Y-148480335D01*
X96018369Y-148448621D01*
X96088120Y-148280642D01*
X96088279Y-148098756D01*
X96018821Y-147930655D01*
X95890321Y-147801931D01*
X95722342Y-147732180D01*
X95676734Y-147732140D01*
X95442437Y-147497843D01*
X97165500Y-147497843D01*
X97165500Y-147664300D01*
X97317900Y-147816700D01*
X98372700Y-147816700D01*
X98372700Y-147161900D01*
X98677500Y-147161900D01*
X98677500Y-147816700D01*
X99732300Y-147816700D01*
X99884700Y-147664300D01*
X99884700Y-147497843D01*
X99791894Y-147273789D01*
X99620411Y-147102306D01*
X99396357Y-147009500D01*
X98829900Y-147009500D01*
X98677500Y-147161900D01*
X98372700Y-147161900D01*
X98220300Y-147009500D01*
X97653843Y-147009500D01*
X97429789Y-147102306D01*
X97258306Y-147273789D01*
X97165500Y-147497843D01*
X95442437Y-147497843D01*
X94441647Y-146497053D01*
X94326283Y-146419968D01*
X94245976Y-146403994D01*
X94245976Y-145973500D01*
X94228265Y-145879373D01*
X94172636Y-145792924D01*
X94087756Y-145734928D01*
X93987000Y-145714524D01*
X91687000Y-145714524D01*
X91592873Y-145732235D01*
X91506424Y-145787864D01*
X91448428Y-145872744D01*
X91428024Y-145973500D01*
X91428024Y-147523500D01*
X91445735Y-147617627D01*
X91501364Y-147704076D01*
X91586244Y-147762072D01*
X91687000Y-147782476D01*
X93987000Y-147782476D01*
X94081127Y-147764765D01*
X94167576Y-147709136D01*
X94225572Y-147624256D01*
X94245976Y-147523500D01*
X94245976Y-147307170D01*
X95173760Y-148234954D01*
X95173721Y-148279844D01*
X95243179Y-148447945D01*
X95275400Y-148480222D01*
X95275400Y-150028200D01*
X95302468Y-150164283D01*
X95379553Y-150279647D01*
X97320453Y-152220547D01*
X97435817Y-152297632D01*
X97516124Y-152313606D01*
X97516124Y-152319100D01*
X97533835Y-152413227D01*
X97541668Y-152425400D01*
X95922035Y-152425400D01*
X95890321Y-152393631D01*
X95722342Y-152323880D01*
X95540456Y-152323721D01*
X95372355Y-152393179D01*
X95243631Y-152521679D01*
X95223809Y-152569415D01*
X94195769Y-151541375D01*
X94225572Y-151497756D01*
X94245976Y-151397000D01*
X94245976Y-149847000D01*
X94228265Y-149752873D01*
X94172636Y-149666424D01*
X94087756Y-149608428D01*
X93987000Y-149588024D01*
X91687000Y-149588024D01*
X91592873Y-149605735D01*
X91506424Y-149661364D01*
X91448428Y-149746244D01*
X91428024Y-149847000D01*
X91428024Y-151397000D01*
X91445735Y-151491127D01*
X91501364Y-151577576D01*
X91586244Y-151635572D01*
X91687000Y-151655976D01*
X93304582Y-151655976D01*
X95226805Y-153578199D01*
X95173880Y-153705658D01*
X95173721Y-153887544D01*
X95243179Y-154055645D01*
X95371679Y-154184369D01*
X95539658Y-154254120D01*
X95721544Y-154254279D01*
X95889645Y-154184821D01*
X95921922Y-154152600D01*
X97516124Y-154152600D01*
X97516124Y-154319100D01*
X97533835Y-154413227D01*
X97569976Y-154469391D01*
X97536528Y-154518344D01*
X97523151Y-154584400D01*
X92329000Y-154584400D01*
X92192918Y-154611468D01*
X92176408Y-154622500D01*
X92077553Y-154688553D01*
X90670650Y-156095456D01*
X90664756Y-156091428D01*
X90564000Y-156071024D01*
X89014000Y-156071024D01*
X88919873Y-156088735D01*
X88833424Y-156144364D01*
X88775428Y-156229244D01*
X88755024Y-156330000D01*
X88755024Y-158630000D01*
X88772735Y-158724127D01*
X88828364Y-158810576D01*
X88913244Y-158868572D01*
X89014000Y-158888976D01*
X89433400Y-158888976D01*
X89433400Y-166078965D01*
X89401631Y-166110679D01*
X89331880Y-166278658D01*
X89331721Y-166460544D01*
X89401179Y-166628645D01*
X89529679Y-166757369D01*
X89697658Y-166827120D01*
X89879544Y-166827279D01*
X90047645Y-166757821D01*
X90176369Y-166629321D01*
X90246120Y-166461342D01*
X90246279Y-166279456D01*
X90176821Y-166111355D01*
X90144600Y-166079078D01*
X90144600Y-158888976D01*
X90564000Y-158888976D01*
X90658127Y-158871265D01*
X90744576Y-158815636D01*
X90802572Y-158730756D01*
X90822976Y-158630000D01*
X90822976Y-156948918D01*
X92476294Y-155295600D01*
X97516124Y-155295600D01*
X97516124Y-155319100D01*
X97533835Y-155413227D01*
X97569976Y-155469391D01*
X97536528Y-155518344D01*
X97516124Y-155619100D01*
X97516124Y-156319100D01*
X97533835Y-156413227D01*
X97589464Y-156499676D01*
X97674344Y-156557672D01*
X97775100Y-156578076D01*
X99275100Y-156578076D01*
X99369227Y-156560365D01*
X99455676Y-156504736D01*
X99513672Y-156419856D01*
X99534076Y-156319100D01*
X99534076Y-155933716D01*
X99562679Y-155962369D01*
X99730658Y-156032120D01*
X99912544Y-156032279D01*
X100080645Y-155962821D01*
X100112922Y-155930600D01*
X100936906Y-155930600D01*
X101589416Y-156583110D01*
X101554756Y-156559428D01*
X101454000Y-156539024D01*
X100754000Y-156539024D01*
X100659873Y-156556735D01*
X100603709Y-156592876D01*
X100554756Y-156559428D01*
X100454000Y-156539024D01*
X99754000Y-156539024D01*
X99659873Y-156556735D01*
X99573424Y-156612364D01*
X99515428Y-156697244D01*
X99495024Y-156798000D01*
X99495024Y-158298000D01*
X99512735Y-158392127D01*
X99568364Y-158478576D01*
X99653244Y-158536572D01*
X99754000Y-158556976D01*
X100454000Y-158556976D01*
X100548127Y-158539265D01*
X100604291Y-158503124D01*
X100653244Y-158536572D01*
X100754000Y-158556976D01*
X101454000Y-158556976D01*
X101548127Y-158539265D01*
X101604291Y-158503124D01*
X101653244Y-158536572D01*
X101748400Y-158555842D01*
X101748400Y-160156406D01*
X100792476Y-161112330D01*
X100792476Y-160521000D01*
X100774765Y-160426873D01*
X100719136Y-160340424D01*
X100634256Y-160282428D01*
X100533500Y-160262024D01*
X98983500Y-160262024D01*
X98889373Y-160279735D01*
X98802924Y-160335364D01*
X98744928Y-160420244D01*
X98724524Y-160521000D01*
X98724524Y-162821000D01*
X98742235Y-162915127D01*
X98797864Y-163001576D01*
X98882744Y-163059572D01*
X98983500Y-163079976D01*
X100533500Y-163079976D01*
X100627627Y-163062265D01*
X100714076Y-163006636D01*
X100772072Y-162921756D01*
X100792476Y-162821000D01*
X100792476Y-162015506D01*
X100872783Y-161999532D01*
X100988147Y-161922447D01*
X102355447Y-160555147D01*
X102432532Y-160439783D01*
X102459600Y-160303700D01*
X102459600Y-158555922D01*
X102548127Y-158539265D01*
X102604291Y-158503124D01*
X102653244Y-158536572D01*
X102754000Y-158556976D01*
X103454000Y-158556976D01*
X103548127Y-158539265D01*
X103604291Y-158503124D01*
X103653244Y-158536572D01*
X103748400Y-158555842D01*
X103748400Y-160516024D01*
X103301500Y-160516024D01*
X103207373Y-160533735D01*
X103120924Y-160589364D01*
X103062928Y-160674244D01*
X103042524Y-160775000D01*
X103042524Y-163075000D01*
X103060235Y-163169127D01*
X103115864Y-163255576D01*
X103200744Y-163313572D01*
X103301500Y-163333976D01*
X104851500Y-163333976D01*
X104945627Y-163316265D01*
X105032076Y-163260636D01*
X105090072Y-163175756D01*
X105110476Y-163075000D01*
X105110476Y-160775000D01*
X105092765Y-160680873D01*
X105037136Y-160594424D01*
X104952256Y-160536428D01*
X104851500Y-160516024D01*
X104459600Y-160516024D01*
X104459600Y-158555922D01*
X104548127Y-158539265D01*
X104604291Y-158503124D01*
X104653244Y-158536572D01*
X104754000Y-158556976D01*
X105454000Y-158556976D01*
X105548127Y-158539265D01*
X105604291Y-158503124D01*
X105653244Y-158536572D01*
X105754000Y-158556976D01*
X106451400Y-158556976D01*
X106451400Y-160109965D01*
X106419631Y-160141679D01*
X106349880Y-160309658D01*
X106349721Y-160491544D01*
X106419179Y-160659645D01*
X106451400Y-160691922D01*
X106451400Y-165633400D01*
X101177342Y-165633400D01*
X101041259Y-165660468D01*
X100925895Y-165737553D01*
X98681553Y-167981895D01*
X98604468Y-168097259D01*
X98604468Y-168097260D01*
X98577400Y-168233342D01*
X98577400Y-171031965D01*
X98545631Y-171063679D01*
X98475880Y-171231658D01*
X98475840Y-171277266D01*
X98455505Y-171297601D01*
X95939837Y-171297601D01*
X91668600Y-167026364D01*
X91668600Y-166355033D01*
X91729179Y-166501645D01*
X91857679Y-166630369D01*
X92025658Y-166700120D01*
X92207544Y-166700279D01*
X92375645Y-166630821D01*
X92407922Y-166598600D01*
X93708024Y-166598600D01*
X93708024Y-167901000D01*
X93725735Y-167995127D01*
X93781364Y-168081576D01*
X93866244Y-168139572D01*
X93967000Y-168159976D01*
X95517000Y-168159976D01*
X95611127Y-168142265D01*
X95697576Y-168086636D01*
X95755572Y-168001756D01*
X95775976Y-167901000D01*
X95775976Y-165601000D01*
X95758265Y-165506873D01*
X95702636Y-165420424D01*
X95617756Y-165362428D01*
X95517000Y-165342024D01*
X93967000Y-165342024D01*
X93872873Y-165359735D01*
X93786424Y-165415364D01*
X93728428Y-165500244D01*
X93708024Y-165601000D01*
X93708024Y-165887400D01*
X92408035Y-165887400D01*
X92376321Y-165855631D01*
X92208342Y-165785880D01*
X92026456Y-165785721D01*
X91858355Y-165855179D01*
X91729631Y-165983679D01*
X91668600Y-166130658D01*
X91668600Y-163469294D01*
X92882655Y-162255240D01*
X92927544Y-162255279D01*
X93095645Y-162185821D01*
X93224369Y-162057321D01*
X93294120Y-161889342D01*
X93294279Y-161707456D01*
X93224821Y-161539355D01*
X93222471Y-161537000D01*
X93835024Y-161537000D01*
X93835024Y-163837000D01*
X93852735Y-163931127D01*
X93908364Y-164017576D01*
X93993244Y-164075572D01*
X94094000Y-164095976D01*
X95644000Y-164095976D01*
X95738127Y-164078265D01*
X95785868Y-164047544D01*
X97840721Y-164047544D01*
X97910179Y-164215645D01*
X98038679Y-164344369D01*
X98206658Y-164414120D01*
X98388544Y-164414279D01*
X98556645Y-164344821D01*
X98685369Y-164216321D01*
X98755120Y-164048342D01*
X98755279Y-163866456D01*
X98685821Y-163698355D01*
X98557321Y-163569631D01*
X98389342Y-163499880D01*
X98207456Y-163499721D01*
X98039355Y-163569179D01*
X97910631Y-163697679D01*
X97840880Y-163865658D01*
X97840721Y-164047544D01*
X95785868Y-164047544D01*
X95824576Y-164022636D01*
X95882572Y-163937756D01*
X95902976Y-163837000D01*
X95902976Y-162915600D01*
X96990965Y-162915600D01*
X97022679Y-162947369D01*
X97190658Y-163017120D01*
X97372544Y-163017279D01*
X97540645Y-162947821D01*
X97669369Y-162819321D01*
X97739120Y-162651342D01*
X97739279Y-162469456D01*
X97669821Y-162301355D01*
X97541321Y-162172631D01*
X97373342Y-162102880D01*
X97191456Y-162102721D01*
X97023355Y-162172179D01*
X96991078Y-162204400D01*
X95902976Y-162204400D01*
X95902976Y-161761544D01*
X96570721Y-161761544D01*
X96640179Y-161929645D01*
X96768679Y-162058369D01*
X96936658Y-162128120D01*
X97118544Y-162128279D01*
X97286645Y-162058821D01*
X97415369Y-161930321D01*
X97485120Y-161762342D01*
X97485279Y-161580456D01*
X97415821Y-161412355D01*
X97287321Y-161283631D01*
X97119342Y-161213880D01*
X96937456Y-161213721D01*
X96769355Y-161283179D01*
X96640631Y-161411679D01*
X96570880Y-161579658D01*
X96570721Y-161761544D01*
X95902976Y-161761544D01*
X95902976Y-161537000D01*
X95885265Y-161442873D01*
X95829636Y-161356424D01*
X95744756Y-161298428D01*
X95644000Y-161278024D01*
X94094000Y-161278024D01*
X93999873Y-161295735D01*
X93913424Y-161351364D01*
X93855428Y-161436244D01*
X93835024Y-161537000D01*
X93222471Y-161537000D01*
X93192600Y-161507078D01*
X93192600Y-157092000D01*
X93835024Y-157092000D01*
X93835024Y-159392000D01*
X93852735Y-159486127D01*
X93908364Y-159572576D01*
X93993244Y-159630572D01*
X94094000Y-159650976D01*
X95644000Y-159650976D01*
X95738127Y-159633265D01*
X95824576Y-159577636D01*
X95882572Y-159492756D01*
X95902976Y-159392000D01*
X95902976Y-157962600D01*
X96101965Y-157962600D01*
X96133679Y-157994369D01*
X96301658Y-158064120D01*
X96483544Y-158064279D01*
X96651645Y-157994821D01*
X96780369Y-157866321D01*
X96850120Y-157698342D01*
X96850279Y-157516456D01*
X96780821Y-157348355D01*
X96652321Y-157219631D01*
X96484342Y-157149880D01*
X96302456Y-157149721D01*
X96134355Y-157219179D01*
X96102078Y-157251400D01*
X95902976Y-157251400D01*
X95902976Y-157092000D01*
X95885265Y-156997873D01*
X95829636Y-156911424D01*
X95744756Y-156853428D01*
X95644000Y-156833024D01*
X94094000Y-156833024D01*
X93999873Y-156850735D01*
X93913424Y-156906364D01*
X93855428Y-156991244D01*
X93835024Y-157092000D01*
X93192600Y-157092000D01*
X93192600Y-156738294D01*
X93492295Y-156438600D01*
X93815965Y-156438600D01*
X93847679Y-156470369D01*
X94015658Y-156540120D01*
X94197544Y-156540279D01*
X94365645Y-156470821D01*
X94494369Y-156342321D01*
X94564120Y-156174342D01*
X94564279Y-155992456D01*
X94494821Y-155824355D01*
X94366321Y-155695631D01*
X94198342Y-155625880D01*
X94016456Y-155625721D01*
X93848355Y-155695179D01*
X93816078Y-155727400D01*
X93345000Y-155727400D01*
X93208918Y-155754468D01*
X93208916Y-155754469D01*
X93208917Y-155754469D01*
X93093552Y-155831553D01*
X92585553Y-156339553D01*
X92508468Y-156454917D01*
X92491489Y-156540279D01*
X92481400Y-156591000D01*
X92481400Y-161506965D01*
X92449631Y-161538679D01*
X92379880Y-161706658D01*
X92379840Y-161752265D01*
X91061553Y-163070553D01*
X90984468Y-163185917D01*
X90984468Y-163185918D01*
X90957400Y-163322000D01*
X90957400Y-167173658D01*
X90984468Y-167309741D01*
X91061553Y-167425105D01*
X91541598Y-167905150D01*
X91541598Y-167937798D01*
X91389200Y-167785400D01*
X91197743Y-167785400D01*
X90973689Y-167878206D01*
X90802206Y-168049689D01*
X90709400Y-168273743D01*
X90709400Y-168490200D01*
X90861800Y-168642600D01*
X91541600Y-168642600D01*
X91541600Y-168622600D01*
X91846400Y-168622600D01*
X91846400Y-168642600D01*
X91866400Y-168642600D01*
X91866400Y-168947400D01*
X91846400Y-168947400D01*
X91846400Y-168967400D01*
X91541600Y-168967400D01*
X91541600Y-168947400D01*
X90861800Y-168947400D01*
X90709400Y-169099800D01*
X90709400Y-169316257D01*
X90802206Y-169540311D01*
X90973689Y-169711794D01*
X91100791Y-169764441D01*
X91080428Y-169794244D01*
X91069036Y-169850500D01*
X90181976Y-169850500D01*
X90181976Y-169214500D01*
X90164265Y-169120373D01*
X90108636Y-169033924D01*
X90023756Y-168975928D01*
X89923000Y-168955524D01*
X87623000Y-168955524D01*
X87528873Y-168973235D01*
X87442424Y-169028864D01*
X87384428Y-169113744D01*
X87364024Y-169214500D01*
X87364024Y-170764500D01*
X87381735Y-170858627D01*
X87437364Y-170945076D01*
X87522244Y-171003072D01*
X87623000Y-171023476D01*
X89923000Y-171023476D01*
X90017127Y-171005765D01*
X90103576Y-170950136D01*
X90161572Y-170865256D01*
X90181976Y-170764500D01*
X90181976Y-170739500D01*
X91068397Y-170739500D01*
X91077735Y-170789127D01*
X91133364Y-170875576D01*
X91218244Y-170933572D01*
X91319000Y-170953976D01*
X92069000Y-170953976D01*
X92163127Y-170936265D01*
X92249576Y-170880636D01*
X92307572Y-170795756D01*
X92318964Y-170739500D01*
X92513882Y-170739500D01*
X92837006Y-171062624D01*
X92836890Y-171194755D01*
X92933360Y-171428228D01*
X93007003Y-171502000D01*
X87070000Y-171502000D01*
X87070000Y-156931609D01*
X87116679Y-156978369D01*
X87284658Y-157048120D01*
X87466544Y-157048279D01*
X87634645Y-156978821D01*
X87763369Y-156850321D01*
X87833120Y-156682342D01*
X87833279Y-156500456D01*
X87763821Y-156332355D01*
X87731600Y-156300078D01*
X87731600Y-154769794D01*
X87860918Y-154640476D01*
X89542000Y-154640476D01*
X89636127Y-154622765D01*
X89722576Y-154567136D01*
X89780572Y-154482256D01*
X89800976Y-154381500D01*
X89800976Y-152831500D01*
X89783265Y-152737373D01*
X89727636Y-152650924D01*
X89642756Y-152592928D01*
X89542000Y-152572524D01*
X87242000Y-152572524D01*
X87147873Y-152590235D01*
X87070000Y-152640345D01*
X87070000Y-151742477D01*
X87247743Y-151816100D01*
X88214200Y-151816100D01*
X88366600Y-151663700D01*
X88366600Y-150583900D01*
X88671400Y-150583900D01*
X88671400Y-151663700D01*
X88823800Y-151816100D01*
X89790257Y-151816100D01*
X90014311Y-151723294D01*
X90185794Y-151551811D01*
X90278600Y-151327757D01*
X90278600Y-150736300D01*
X90126200Y-150583900D01*
X88671400Y-150583900D01*
X88366600Y-150583900D01*
X88346600Y-150583900D01*
X88346600Y-150279100D01*
X88366600Y-150279100D01*
X88366600Y-149199300D01*
X88671400Y-149199300D01*
X88671400Y-150279100D01*
X90126200Y-150279100D01*
X90278600Y-150126700D01*
X90278600Y-149535243D01*
X90185794Y-149311189D01*
X90014311Y-149139706D01*
X89790257Y-149046900D01*
X88823800Y-149046900D01*
X88671400Y-149199300D01*
X88366600Y-149199300D01*
X88214200Y-149046900D01*
X87247743Y-149046900D01*
X87070000Y-149120523D01*
X87070000Y-148376977D01*
X87247743Y-148450600D01*
X88214200Y-148450600D01*
X88366600Y-148298200D01*
X88366600Y-147218400D01*
X88671400Y-147218400D01*
X88671400Y-148298200D01*
X88823800Y-148450600D01*
X89790257Y-148450600D01*
X90014311Y-148357794D01*
X90185794Y-148186311D01*
X90278600Y-147962257D01*
X90278600Y-147370800D01*
X90126200Y-147218400D01*
X88671400Y-147218400D01*
X88366600Y-147218400D01*
X88346600Y-147218400D01*
X88346600Y-146913600D01*
X88366600Y-146913600D01*
X88366600Y-145833800D01*
X88671400Y-145833800D01*
X88671400Y-146913600D01*
X90126200Y-146913600D01*
X90278600Y-146761200D01*
X90278600Y-146169743D01*
X90185794Y-145945689D01*
X90014311Y-145774206D01*
X89790257Y-145681400D01*
X88823800Y-145681400D01*
X88671400Y-145833800D01*
X88366600Y-145833800D01*
X88214200Y-145681400D01*
X87247743Y-145681400D01*
X87070000Y-145755023D01*
X87070000Y-144884477D01*
X87247743Y-144958100D01*
X88214200Y-144958100D01*
X88366600Y-144805700D01*
X88366600Y-143725900D01*
X88671400Y-143725900D01*
X88671400Y-144805700D01*
X88823800Y-144958100D01*
X89790257Y-144958100D01*
X90014311Y-144865294D01*
X90185794Y-144693811D01*
X90278600Y-144469757D01*
X90278600Y-143878300D01*
X90126200Y-143725900D01*
X88671400Y-143725900D01*
X88366600Y-143725900D01*
X88346600Y-143725900D01*
X88346600Y-143421100D01*
X88366600Y-143421100D01*
X88366600Y-142341300D01*
X88671400Y-142341300D01*
X88671400Y-143421100D01*
X90126200Y-143421100D01*
X90278600Y-143268700D01*
X90278600Y-142677243D01*
X90223617Y-142544500D01*
X91428024Y-142544500D01*
X91428024Y-144094500D01*
X91445735Y-144188627D01*
X91501364Y-144275076D01*
X91586244Y-144333072D01*
X91687000Y-144353476D01*
X93987000Y-144353476D01*
X94081127Y-144335765D01*
X94167576Y-144280136D01*
X94225572Y-144195256D01*
X94245976Y-144094500D01*
X94245976Y-142788418D01*
X94536394Y-142498000D01*
X95411024Y-142498000D01*
X95411024Y-142998000D01*
X95428735Y-143092127D01*
X95484364Y-143178576D01*
X95569244Y-143236572D01*
X95656400Y-143254222D01*
X95656400Y-143599965D01*
X95624631Y-143631679D01*
X95554880Y-143799658D01*
X95554721Y-143981544D01*
X95624179Y-144149645D01*
X95656400Y-144181922D01*
X95656400Y-144527583D01*
X95575873Y-144542735D01*
X95489424Y-144598364D01*
X95431428Y-144683244D01*
X95411024Y-144784000D01*
X95411024Y-145284000D01*
X95428735Y-145378127D01*
X95484364Y-145464576D01*
X95569244Y-145522572D01*
X95670000Y-145542976D01*
X96217445Y-145542976D01*
X96253206Y-145629311D01*
X96424689Y-145800794D01*
X96648743Y-145893600D01*
X96767600Y-145893600D01*
X96920000Y-145741200D01*
X96920000Y-145159000D01*
X97220000Y-145159000D01*
X97220000Y-145741200D01*
X97372400Y-145893600D01*
X97491257Y-145893600D01*
X97715311Y-145800794D01*
X97886794Y-145629311D01*
X97979600Y-145405257D01*
X97979600Y-145311400D01*
X97827200Y-145159000D01*
X97220000Y-145159000D01*
X96920000Y-145159000D01*
X96897600Y-145159000D01*
X96897600Y-144909000D01*
X96920000Y-144909000D01*
X96920000Y-144326800D01*
X97220000Y-144326800D01*
X97220000Y-144909000D01*
X97827200Y-144909000D01*
X97979600Y-144756600D01*
X97979600Y-144662743D01*
X97886794Y-144438689D01*
X97715311Y-144267206D01*
X97491257Y-144174400D01*
X97372400Y-144174400D01*
X97220000Y-144326800D01*
X96920000Y-144326800D01*
X96767600Y-144174400D01*
X96648743Y-144174400D01*
X96424689Y-144267206D01*
X96367600Y-144324295D01*
X96367600Y-144182035D01*
X96399369Y-144150321D01*
X96469120Y-143982342D01*
X96469279Y-143800456D01*
X96399821Y-143632355D01*
X96367600Y-143600078D01*
X96367600Y-143457705D01*
X96424689Y-143514794D01*
X96648743Y-143607600D01*
X96767600Y-143607600D01*
X96920000Y-143455200D01*
X96920000Y-142873000D01*
X97220000Y-142873000D01*
X97220000Y-143455200D01*
X97372400Y-143607600D01*
X97491257Y-143607600D01*
X97715311Y-143514794D01*
X97886794Y-143343311D01*
X97979600Y-143119257D01*
X97979600Y-143025400D01*
X97827200Y-142873000D01*
X97220000Y-142873000D01*
X96920000Y-142873000D01*
X96897600Y-142873000D01*
X96897600Y-142623000D01*
X96920000Y-142623000D01*
X96920000Y-142040800D01*
X97220000Y-142040800D01*
X97220000Y-142623000D01*
X97827200Y-142623000D01*
X97979600Y-142470600D01*
X97979600Y-142376743D01*
X97886794Y-142152689D01*
X97715311Y-141981206D01*
X97491257Y-141888400D01*
X97372400Y-141888400D01*
X97220000Y-142040800D01*
X96920000Y-142040800D01*
X96767600Y-141888400D01*
X96648743Y-141888400D01*
X96424689Y-141981206D01*
X96253206Y-142152689D01*
X96217445Y-142239024D01*
X95670000Y-142239024D01*
X95575873Y-142256735D01*
X95489424Y-142312364D01*
X95431428Y-142397244D01*
X95411024Y-142498000D01*
X94536394Y-142498000D01*
X95708794Y-141325600D01*
X96863965Y-141325600D01*
X96895679Y-141357369D01*
X97063658Y-141427120D01*
X97245544Y-141427279D01*
X97413645Y-141357821D01*
X97445922Y-141325600D01*
X100563706Y-141325600D01*
X102514400Y-143276294D01*
X102514400Y-150457965D01*
X102482631Y-150489679D01*
X102412880Y-150657658D01*
X102412721Y-150839544D01*
X102482179Y-151007645D01*
X102610679Y-151136369D01*
X102778658Y-151206120D01*
X102960544Y-151206279D01*
X103128645Y-151136821D01*
X103257369Y-151008321D01*
X103327120Y-150840342D01*
X103327279Y-150658456D01*
X103257821Y-150490355D01*
X103225600Y-150458078D01*
X103225600Y-143129000D01*
X103198532Y-142992918D01*
X103198532Y-142992917D01*
X103121447Y-142877553D01*
X100962447Y-140718553D01*
X100847083Y-140641468D01*
X100711000Y-140614400D01*
X97446035Y-140614400D01*
X97414321Y-140582631D01*
X97246342Y-140512880D01*
X97064456Y-140512721D01*
X96896355Y-140582179D01*
X96864078Y-140614400D01*
X95561500Y-140614400D01*
X95425417Y-140641468D01*
X95310053Y-140718553D01*
X93743082Y-142285524D01*
X91687000Y-142285524D01*
X91592873Y-142303235D01*
X91506424Y-142358864D01*
X91448428Y-142443744D01*
X91428024Y-142544500D01*
X90223617Y-142544500D01*
X90185794Y-142453189D01*
X90014311Y-142281706D01*
X89790257Y-142188900D01*
X88823800Y-142188900D01*
X88671400Y-142341300D01*
X88366600Y-142341300D01*
X88214200Y-142188900D01*
X87247743Y-142188900D01*
X87070000Y-142262523D01*
X87070000Y-141482605D01*
X87150689Y-141563294D01*
X87374743Y-141656100D01*
X88341200Y-141656100D01*
X88493600Y-141503700D01*
X88493600Y-140423900D01*
X88798400Y-140423900D01*
X88798400Y-141503700D01*
X88950800Y-141656100D01*
X89917257Y-141656100D01*
X90141311Y-141563294D01*
X90312794Y-141391811D01*
X90405600Y-141167757D01*
X90405600Y-140576300D01*
X90253200Y-140423900D01*
X88798400Y-140423900D01*
X88493600Y-140423900D01*
X88473600Y-140423900D01*
X88473600Y-140119100D01*
X88493600Y-140119100D01*
X88493600Y-140099100D01*
X88798400Y-140099100D01*
X88798400Y-140119100D01*
X90253200Y-140119100D01*
X90405600Y-139966700D01*
X90405600Y-139496500D01*
X91428024Y-139496500D01*
X91428024Y-141046500D01*
X91445735Y-141140627D01*
X91501364Y-141227076D01*
X91586244Y-141285072D01*
X91687000Y-141305476D01*
X93987000Y-141305476D01*
X94081127Y-141287765D01*
X94167576Y-141232136D01*
X94225572Y-141147256D01*
X94245976Y-141046500D01*
X94245976Y-140055600D01*
X94577965Y-140055600D01*
X94609679Y-140087369D01*
X94777658Y-140157120D01*
X94959544Y-140157279D01*
X95127645Y-140087821D01*
X95159922Y-140055600D01*
X101706706Y-140055600D01*
X103530400Y-141879294D01*
X103530400Y-143345965D01*
X103498631Y-143377679D01*
X103428880Y-143545658D01*
X103428721Y-143727544D01*
X103498179Y-143895645D01*
X103626679Y-144024369D01*
X103794658Y-144094120D01*
X103976544Y-144094279D01*
X104144645Y-144024821D01*
X104273369Y-143896321D01*
X104343120Y-143728342D01*
X104343279Y-143546456D01*
X104273821Y-143378355D01*
X104241600Y-143346078D01*
X104241600Y-141949544D01*
X104952721Y-141949544D01*
X105022179Y-142117645D01*
X105150679Y-142246369D01*
X105318658Y-142316120D01*
X105500544Y-142316279D01*
X105668645Y-142246821D01*
X105797369Y-142118321D01*
X105867120Y-141950342D01*
X105867279Y-141768456D01*
X105797821Y-141600355D01*
X105669321Y-141471631D01*
X105501342Y-141401880D01*
X105319456Y-141401721D01*
X105151355Y-141471179D01*
X105022631Y-141599679D01*
X104952880Y-141767658D01*
X104952721Y-141949544D01*
X104241600Y-141949544D01*
X104241600Y-141732000D01*
X104214532Y-141595918D01*
X104214532Y-141595917D01*
X104137447Y-141480553D01*
X103073628Y-140416734D01*
X104859818Y-140416734D01*
X105019941Y-140804263D01*
X105316177Y-141101017D01*
X105703427Y-141261817D01*
X106122734Y-141262182D01*
X106510263Y-141102059D01*
X106807017Y-140805823D01*
X106914065Y-140548022D01*
X107019941Y-140804263D01*
X107316177Y-141101017D01*
X107703427Y-141261817D01*
X108122734Y-141262182D01*
X108510263Y-141102059D01*
X108807017Y-140805823D01*
X108967817Y-140418573D01*
X108968182Y-139999266D01*
X108808059Y-139611737D01*
X108511823Y-139314983D01*
X108124573Y-139154183D01*
X107705266Y-139153818D01*
X107317737Y-139313941D01*
X107020983Y-139610177D01*
X106913935Y-139867978D01*
X106808059Y-139611737D01*
X106511823Y-139314983D01*
X106124573Y-139154183D01*
X105705266Y-139153818D01*
X105317737Y-139313941D01*
X105020983Y-139610177D01*
X104860183Y-139997427D01*
X104859818Y-140416734D01*
X103073628Y-140416734D01*
X102105447Y-139448553D01*
X101990083Y-139371468D01*
X101854000Y-139344400D01*
X95160035Y-139344400D01*
X95128321Y-139312631D01*
X94960342Y-139242880D01*
X94778456Y-139242721D01*
X94610355Y-139312179D01*
X94578078Y-139344400D01*
X94190960Y-139344400D01*
X94172636Y-139315924D01*
X94087756Y-139257928D01*
X93987000Y-139237524D01*
X91687000Y-139237524D01*
X91592873Y-139255235D01*
X91506424Y-139310864D01*
X91448428Y-139395744D01*
X91428024Y-139496500D01*
X90405600Y-139496500D01*
X90405600Y-139375243D01*
X90312794Y-139151189D01*
X90301605Y-139140000D01*
X108967790Y-139140000D01*
X108985335Y-139228202D01*
X108985335Y-139228202D01*
G37*
X108985335Y-139228202D02*
X109040395Y-139310605D01*
X109122798Y-139365665D01*
X109220000Y-139385000D01*
X111246000Y-139385000D01*
X111246000Y-140630000D01*
X111250881Y-140654538D01*
X111250881Y-140679553D01*
X111279882Y-140825350D01*
X111279882Y-140825353D01*
X111317808Y-140916916D01*
X111400398Y-141040522D01*
X111470478Y-141110602D01*
X111594084Y-141193192D01*
X111685647Y-141231118D01*
X111685650Y-141231118D01*
X111831446Y-141260119D01*
X111856462Y-141260119D01*
X111881000Y-141265000D01*
X111969000Y-141265000D01*
X111993538Y-141260119D01*
X112018553Y-141260119D01*
X112164350Y-141231118D01*
X112164353Y-141231118D01*
X112255916Y-141193192D01*
X112379522Y-141110602D01*
X112449602Y-141040522D01*
X112532192Y-140916916D01*
X112570118Y-140825353D01*
X112570118Y-140825350D01*
X112599119Y-140679554D01*
X112599119Y-140654538D01*
X112604000Y-140630000D01*
X112604000Y-139385000D01*
X115996000Y-139385000D01*
X115996000Y-140630000D01*
X116000881Y-140654538D01*
X116000881Y-140679553D01*
X116029882Y-140825350D01*
X116029882Y-140825353D01*
X116067808Y-140916916D01*
X116150398Y-141040522D01*
X116220478Y-141110602D01*
X116344084Y-141193192D01*
X116435647Y-141231118D01*
X116435650Y-141231118D01*
X116581446Y-141260119D01*
X116606462Y-141260119D01*
X116631000Y-141265000D01*
X116719000Y-141265000D01*
X116743538Y-141260119D01*
X116768553Y-141260119D01*
X116914350Y-141231118D01*
X116914353Y-141231118D01*
X117005916Y-141193192D01*
X117129522Y-141110602D01*
X117199602Y-141040522D01*
X117282192Y-140916916D01*
X117320118Y-140825353D01*
X117320118Y-140825350D01*
X117349119Y-140679554D01*
X117349119Y-140654538D01*
X117354000Y-140630000D01*
X117354000Y-139385000D01*
X119380000Y-139385000D01*
X119432000Y-139374656D01*
X119432000Y-159045459D01*
X119399756Y-159023428D01*
X119299000Y-159003024D01*
X119227600Y-159003024D01*
X119227600Y-150024035D01*
X119259369Y-149992321D01*
X119329120Y-149824342D01*
X119329279Y-149642456D01*
X119259821Y-149474355D01*
X119131321Y-149345631D01*
X118963342Y-149275880D01*
X118781456Y-149275721D01*
X118613355Y-149345179D01*
X118484631Y-149473679D01*
X118414880Y-149641658D01*
X118414721Y-149823544D01*
X118484179Y-149991645D01*
X118516400Y-150023922D01*
X118516400Y-159079326D01*
X118460428Y-159161244D01*
X118449330Y-159216048D01*
X118440265Y-159167873D01*
X118384636Y-159081424D01*
X118299756Y-159023428D01*
X118199000Y-159003024D01*
X117599000Y-159003024D01*
X117504873Y-159020735D01*
X117418424Y-159076364D01*
X117363738Y-159156400D01*
X115734035Y-159156400D01*
X115702321Y-159124631D01*
X115534342Y-159054880D01*
X115352456Y-159054721D01*
X115184355Y-159124179D01*
X115055631Y-159252679D01*
X114985880Y-159420658D01*
X114985721Y-159602544D01*
X115055179Y-159770645D01*
X115183679Y-159899369D01*
X115351658Y-159969120D01*
X115533544Y-159969279D01*
X115701645Y-159899821D01*
X115733922Y-159867600D01*
X117365118Y-159867600D01*
X117413364Y-159942576D01*
X117498244Y-160000572D01*
X117599000Y-160020976D01*
X118199000Y-160020976D01*
X118293127Y-160003265D01*
X118379576Y-159947636D01*
X118437572Y-159862756D01*
X118448670Y-159807952D01*
X118457735Y-159856127D01*
X118513364Y-159942576D01*
X118598244Y-160000572D01*
X118699000Y-160020976D01*
X119299000Y-160020976D01*
X119393127Y-160003265D01*
X119432000Y-159978251D01*
X119432000Y-171502000D01*
X99353721Y-171502000D01*
X99390120Y-171414342D01*
X99390279Y-171232456D01*
X99320821Y-171064355D01*
X99288600Y-171032078D01*
X99288600Y-168776000D01*
X100185024Y-168776000D01*
X100185024Y-171076000D01*
X100202735Y-171170127D01*
X100258364Y-171256576D01*
X100343244Y-171314572D01*
X100444000Y-171334976D01*
X101994000Y-171334976D01*
X102088127Y-171317265D01*
X102174576Y-171261636D01*
X102232572Y-171176756D01*
X102252976Y-171076000D01*
X102252976Y-169656704D01*
X106375904Y-169656704D01*
X106460827Y-169862234D01*
X106617939Y-170019620D01*
X106823320Y-170104902D01*
X107045704Y-170105096D01*
X107251234Y-170020173D01*
X107408620Y-169863061D01*
X107493902Y-169657680D01*
X107494096Y-169435296D01*
X107409173Y-169229766D01*
X107252061Y-169072380D01*
X107046680Y-168987098D01*
X106824296Y-168986904D01*
X106618766Y-169071827D01*
X106461380Y-169228939D01*
X106376098Y-169434320D01*
X106375904Y-169656704D01*
X102252976Y-169656704D01*
X102252976Y-168776000D01*
X102235265Y-168681873D01*
X102179636Y-168595424D01*
X102094756Y-168537428D01*
X101994000Y-168517024D01*
X101447600Y-168517024D01*
X101447600Y-168185035D01*
X101479369Y-168153321D01*
X101549120Y-167985342D01*
X101549279Y-167803456D01*
X101479821Y-167635355D01*
X101351321Y-167506631D01*
X101183342Y-167436880D01*
X101001456Y-167436721D01*
X100833355Y-167506179D01*
X100704631Y-167634679D01*
X100634880Y-167802658D01*
X100634721Y-167984544D01*
X100704179Y-168152645D01*
X100736400Y-168184922D01*
X100736400Y-168517024D01*
X100444000Y-168517024D01*
X100349873Y-168534735D01*
X100263424Y-168590364D01*
X100205428Y-168675244D01*
X100185024Y-168776000D01*
X99288600Y-168776000D01*
X99288600Y-168380636D01*
X101324636Y-166344600D01*
X106464972Y-166344600D01*
X106478468Y-166412451D01*
X106555553Y-166527815D01*
X110332185Y-170304447D01*
X110447549Y-170381532D01*
X110583632Y-170408600D01*
X111270186Y-170408600D01*
X111344866Y-170483410D01*
X111531509Y-170560911D01*
X111733604Y-170561088D01*
X111920383Y-170483912D01*
X112063410Y-170341134D01*
X112140911Y-170154491D01*
X112141088Y-169952396D01*
X112063912Y-169765617D01*
X111983136Y-169684700D01*
X115518034Y-169684700D01*
X115518034Y-171183300D01*
X115535745Y-171277427D01*
X115591374Y-171363876D01*
X115676254Y-171421872D01*
X115777010Y-171442276D01*
X119172990Y-171442276D01*
X119267117Y-171424565D01*
X119353566Y-171368936D01*
X119411562Y-171284056D01*
X119431966Y-171183300D01*
X119431966Y-169684700D01*
X119414255Y-169590573D01*
X119358626Y-169504124D01*
X119273746Y-169446128D01*
X119172990Y-169425724D01*
X115777010Y-169425724D01*
X115682883Y-169443435D01*
X115596434Y-169499064D01*
X115538438Y-169583944D01*
X115518034Y-169684700D01*
X111983136Y-169684700D01*
X111921134Y-169622590D01*
X111734491Y-169545089D01*
X111532396Y-169544912D01*
X111345617Y-169622088D01*
X111270174Y-169697400D01*
X110730926Y-169697400D01*
X110225466Y-169191940D01*
X111620300Y-169191940D01*
X111772700Y-169039540D01*
X111772700Y-168236900D01*
X112077500Y-168236900D01*
X112077500Y-169039540D01*
X112229900Y-169191940D01*
X113795147Y-169191940D01*
X114019201Y-169099134D01*
X114190684Y-168927651D01*
X114283490Y-168703597D01*
X114283490Y-168400755D01*
X114934890Y-168400755D01*
X115031360Y-168634228D01*
X115209832Y-168813013D01*
X115443137Y-168909889D01*
X115695755Y-168910110D01*
X115929228Y-168813640D01*
X116108013Y-168635168D01*
X116204889Y-168401863D01*
X116205110Y-168149245D01*
X116108640Y-167915772D01*
X115930168Y-167736987D01*
X115696863Y-167640111D01*
X115444245Y-167639890D01*
X115210772Y-167736360D01*
X115031987Y-167914832D01*
X114935111Y-168148137D01*
X114934890Y-168400755D01*
X114283490Y-168400755D01*
X114283490Y-168389300D01*
X114131090Y-168236900D01*
X112077500Y-168236900D01*
X111772700Y-168236900D01*
X109719110Y-168236900D01*
X109566710Y-168389300D01*
X109566710Y-168533184D01*
X108498929Y-167465403D01*
X109566710Y-167465403D01*
X109566710Y-167779700D01*
X109719110Y-167932100D01*
X111772700Y-167932100D01*
X111772700Y-167129460D01*
X112077500Y-167129460D01*
X112077500Y-167932100D01*
X114131090Y-167932100D01*
X114283490Y-167779700D01*
X114283490Y-167465403D01*
X114190684Y-167241349D01*
X114019201Y-167069866D01*
X113795147Y-166977060D01*
X112229900Y-166977060D01*
X112077500Y-167129460D01*
X111772700Y-167129460D01*
X111620300Y-166977060D01*
X110055053Y-166977060D01*
X109830999Y-167069866D01*
X109659516Y-167241349D01*
X109566710Y-167465403D01*
X108498929Y-167465403D01*
X107367070Y-166333544D01*
X107619721Y-166333544D01*
X107689179Y-166501645D01*
X107817679Y-166630369D01*
X107985658Y-166700120D01*
X108167544Y-166700279D01*
X108335645Y-166630821D01*
X108464369Y-166502321D01*
X108534120Y-166334342D01*
X108534279Y-166152456D01*
X108464821Y-165984355D01*
X108336321Y-165855631D01*
X108168342Y-165785880D01*
X107986456Y-165785721D01*
X107818355Y-165855179D01*
X107689631Y-165983679D01*
X107619880Y-166151658D01*
X107619721Y-166333544D01*
X107367070Y-166333544D01*
X107220035Y-166186509D01*
X107264120Y-166080342D01*
X107264279Y-165898456D01*
X107194821Y-165730355D01*
X107162600Y-165698078D01*
X107162600Y-165590220D01*
X109917334Y-165590220D01*
X109917334Y-166585900D01*
X109935045Y-166680027D01*
X109990674Y-166766476D01*
X110075554Y-166824472D01*
X110176310Y-166844876D01*
X113673890Y-166844876D01*
X113768017Y-166827165D01*
X113854466Y-166771536D01*
X113912462Y-166686656D01*
X113932866Y-166585900D01*
X113932866Y-165590220D01*
X113915155Y-165496093D01*
X113859526Y-165409644D01*
X113774646Y-165351648D01*
X113673890Y-165331244D01*
X113427374Y-165331244D01*
X114039624Y-164718994D01*
X114171755Y-164719110D01*
X114405228Y-164622640D01*
X114584013Y-164444168D01*
X114680889Y-164210863D01*
X114681110Y-163958245D01*
X114584640Y-163724772D01*
X114406168Y-163545987D01*
X114172863Y-163449111D01*
X113920245Y-163448890D01*
X113686772Y-163545360D01*
X113507987Y-163723832D01*
X113411111Y-163957137D01*
X113410994Y-164090388D01*
X112170138Y-165331244D01*
X110176310Y-165331244D01*
X110082183Y-165348955D01*
X109995734Y-165404584D01*
X109937738Y-165489464D01*
X109917334Y-165590220D01*
X107162600Y-165590220D01*
X107162600Y-162989260D01*
X115518034Y-162989260D01*
X115518034Y-164487860D01*
X115535745Y-164581987D01*
X115591374Y-164668436D01*
X115676254Y-164726432D01*
X115777010Y-164746836D01*
X119172990Y-164746836D01*
X119267117Y-164729125D01*
X119353566Y-164673496D01*
X119411562Y-164588616D01*
X119431966Y-164487860D01*
X119431966Y-162989260D01*
X119414255Y-162895133D01*
X119358626Y-162808684D01*
X119273746Y-162750688D01*
X119172990Y-162730284D01*
X115777010Y-162730284D01*
X115682883Y-162747995D01*
X115596434Y-162803624D01*
X115538438Y-162888504D01*
X115518034Y-162989260D01*
X107162600Y-162989260D01*
X107162600Y-162142544D01*
X110286721Y-162142544D01*
X110356179Y-162310645D01*
X110484679Y-162439369D01*
X110652658Y-162509120D01*
X110834544Y-162509279D01*
X111002645Y-162439821D01*
X111131369Y-162311321D01*
X111201120Y-162143342D01*
X111201279Y-161961456D01*
X111131821Y-161793355D01*
X111003321Y-161664631D01*
X110835342Y-161594880D01*
X110653456Y-161594721D01*
X110485355Y-161664179D01*
X110356631Y-161792679D01*
X110286880Y-161960658D01*
X110286721Y-162142544D01*
X107162600Y-162142544D01*
X107162600Y-160692035D01*
X107194369Y-160660321D01*
X107264120Y-160492342D01*
X107264279Y-160310456D01*
X107194821Y-160142355D01*
X107162600Y-160110078D01*
X107162600Y-159505000D01*
X107360524Y-159505000D01*
X107360524Y-161805000D01*
X107378235Y-161899127D01*
X107433864Y-161985576D01*
X107518744Y-162043572D01*
X107619500Y-162063976D01*
X109169500Y-162063976D01*
X109263627Y-162046265D01*
X109350076Y-161990636D01*
X109408072Y-161905756D01*
X109428476Y-161805000D01*
X109428476Y-159505000D01*
X109410765Y-159410873D01*
X109355136Y-159324424D01*
X109270256Y-159266428D01*
X109169500Y-159246024D01*
X108750100Y-159246024D01*
X108750100Y-159221544D01*
X110571721Y-159221544D01*
X110641179Y-159389645D01*
X110769679Y-159518369D01*
X110937658Y-159588120D01*
X111119544Y-159588279D01*
X111266616Y-159527510D01*
X111488024Y-159748918D01*
X111488024Y-161805000D01*
X111505735Y-161899127D01*
X111561364Y-161985576D01*
X111646244Y-162043572D01*
X111747000Y-162063976D01*
X113297000Y-162063976D01*
X113391127Y-162046265D01*
X113477576Y-161990636D01*
X113535572Y-161905756D01*
X113555976Y-161805000D01*
X113555976Y-161761544D01*
X116636721Y-161761544D01*
X116706179Y-161929645D01*
X116834679Y-162058369D01*
X117002658Y-162128120D01*
X117184544Y-162128279D01*
X117352645Y-162058821D01*
X117481369Y-161930321D01*
X117551120Y-161762342D01*
X117551279Y-161580456D01*
X117481821Y-161412355D01*
X117353321Y-161283631D01*
X117185342Y-161213880D01*
X117003456Y-161213721D01*
X116835355Y-161283179D01*
X116706631Y-161411679D01*
X116636880Y-161579658D01*
X116636721Y-161761544D01*
X113555976Y-161761544D01*
X113555976Y-159505000D01*
X113538265Y-159410873D01*
X113482636Y-159324424D01*
X113397756Y-159266428D01*
X113297000Y-159246024D01*
X111990918Y-159246024D01*
X111624447Y-158879553D01*
X111509083Y-158802468D01*
X111373000Y-158775400D01*
X111320035Y-158775400D01*
X111288321Y-158743631D01*
X111120342Y-158673880D01*
X110938456Y-158673721D01*
X110770355Y-158743179D01*
X110641631Y-158871679D01*
X110571880Y-159039658D01*
X110571721Y-159221544D01*
X108750100Y-159221544D01*
X108750100Y-158556186D01*
X108754000Y-158556976D01*
X109454000Y-158556976D01*
X109548127Y-158539265D01*
X109604291Y-158503124D01*
X109653244Y-158536572D01*
X109754000Y-158556976D01*
X110454000Y-158556976D01*
X110548127Y-158539265D01*
X110604291Y-158503124D01*
X110653244Y-158536572D01*
X110754000Y-158556976D01*
X111454000Y-158556976D01*
X111548127Y-158539265D01*
X111604291Y-158503124D01*
X111653244Y-158536572D01*
X111754000Y-158556976D01*
X112454000Y-158556976D01*
X112548127Y-158539265D01*
X112604291Y-158503124D01*
X112653244Y-158536572D01*
X112754000Y-158556976D01*
X113454000Y-158556976D01*
X113548127Y-158539265D01*
X113604291Y-158503124D01*
X113653244Y-158536572D01*
X113754000Y-158556976D01*
X114454000Y-158556976D01*
X114548127Y-158539265D01*
X114604291Y-158503124D01*
X114653244Y-158536572D01*
X114754000Y-158556976D01*
X115454000Y-158556976D01*
X115548127Y-158539265D01*
X115634576Y-158483636D01*
X115692572Y-158398756D01*
X115712976Y-158298000D01*
X115712976Y-156798000D01*
X115695265Y-156703873D01*
X115639636Y-156617424D01*
X115554756Y-156559428D01*
X115454000Y-156539024D01*
X114754000Y-156539024D01*
X114659873Y-156556735D01*
X114603709Y-156592876D01*
X114554756Y-156559428D01*
X114454000Y-156539024D01*
X113754000Y-156539024D01*
X113659873Y-156556735D01*
X113603709Y-156592876D01*
X113554756Y-156559428D01*
X113454000Y-156539024D01*
X112754000Y-156539024D01*
X112659873Y-156556735D01*
X112603709Y-156592876D01*
X112554756Y-156559428D01*
X112454000Y-156539024D01*
X111754000Y-156539024D01*
X111659873Y-156556735D01*
X111603709Y-156592876D01*
X111554756Y-156559428D01*
X111454000Y-156539024D01*
X110754000Y-156539024D01*
X110659873Y-156556735D01*
X110603709Y-156592876D01*
X110554756Y-156559428D01*
X110454000Y-156539024D01*
X109754000Y-156539024D01*
X109659873Y-156556735D01*
X109603709Y-156592876D01*
X109554756Y-156559428D01*
X109454000Y-156539024D01*
X108754000Y-156539024D01*
X108750100Y-156539758D01*
X108750100Y-156420794D01*
X109011654Y-156159240D01*
X109056544Y-156159279D01*
X109224645Y-156089821D01*
X109353369Y-155961321D01*
X109423120Y-155793342D01*
X109423279Y-155611456D01*
X109353821Y-155443355D01*
X109225321Y-155314631D01*
X109057342Y-155244880D01*
X108875456Y-155244721D01*
X108707355Y-155314179D01*
X108578631Y-155442679D01*
X108508880Y-155610658D01*
X108508840Y-155656266D01*
X108143053Y-156022053D01*
X108065968Y-156137417D01*
X108052798Y-156203631D01*
X108038900Y-156273500D01*
X108038900Y-159246024D01*
X107619500Y-159246024D01*
X107525373Y-159263735D01*
X107438924Y-159319364D01*
X107380928Y-159404244D01*
X107360524Y-159505000D01*
X107162600Y-159505000D01*
X107162600Y-156374035D01*
X107194369Y-156342321D01*
X107264120Y-156174342D01*
X107264160Y-156128734D01*
X109146447Y-154246447D01*
X109223532Y-154131082D01*
X109250600Y-153995000D01*
X109250600Y-151795600D01*
X111922706Y-151795600D01*
X112953760Y-152826654D01*
X112953721Y-152871544D01*
X113023179Y-153039645D01*
X113151679Y-153168369D01*
X113319658Y-153238120D01*
X113501544Y-153238279D01*
X113669645Y-153168821D01*
X113798369Y-153040321D01*
X113868120Y-152872342D01*
X113868279Y-152690456D01*
X113798821Y-152522355D01*
X113670321Y-152393631D01*
X113502342Y-152323880D01*
X113456734Y-152323840D01*
X112321447Y-151188553D01*
X112206083Y-151111468D01*
X112070000Y-151084400D01*
X109186035Y-151084400D01*
X109154321Y-151052631D01*
X108986342Y-150982880D01*
X108804456Y-150982721D01*
X108636355Y-151052179D01*
X108507631Y-151180679D01*
X108437880Y-151348658D01*
X108437721Y-151530544D01*
X108507179Y-151698645D01*
X108539400Y-151730922D01*
X108539400Y-153847706D01*
X106761346Y-155625760D01*
X106716456Y-155625721D01*
X106548355Y-155695179D01*
X106459600Y-155783780D01*
X106459600Y-148553544D01*
X109524721Y-148553544D01*
X109594179Y-148721645D01*
X109722679Y-148850369D01*
X109890658Y-148920120D01*
X110072544Y-148920279D01*
X110240645Y-148850821D01*
X110272922Y-148818600D01*
X111472304Y-148818600D01*
X112250601Y-149596897D01*
X112152681Y-149531468D01*
X112016598Y-149504400D01*
X110781035Y-149504400D01*
X110749321Y-149472631D01*
X110581342Y-149402880D01*
X110399456Y-149402721D01*
X110231355Y-149472179D01*
X110102631Y-149600679D01*
X110032880Y-149768658D01*
X110032721Y-149950544D01*
X110102179Y-150118645D01*
X110230679Y-150247369D01*
X110398658Y-150317120D01*
X110580544Y-150317279D01*
X110748645Y-150247821D01*
X110780922Y-150215600D01*
X111869304Y-150215600D01*
X115673924Y-154020220D01*
X115673924Y-154319100D01*
X115691635Y-154413227D01*
X115727776Y-154469391D01*
X115694328Y-154518344D01*
X115675058Y-154613500D01*
X113206395Y-154613500D01*
X112598240Y-154005346D01*
X112598279Y-153960456D01*
X112528821Y-153792355D01*
X112400321Y-153663631D01*
X112232342Y-153593880D01*
X112050456Y-153593721D01*
X111882355Y-153663179D01*
X111753631Y-153791679D01*
X111683880Y-153959658D01*
X111683721Y-154141544D01*
X111753179Y-154309645D01*
X111881679Y-154438369D01*
X112049658Y-154508120D01*
X112095266Y-154508160D01*
X112807652Y-155220547D01*
X112846446Y-155246468D01*
X112923018Y-155297632D01*
X113059100Y-155324700D01*
X115674978Y-155324700D01*
X115691635Y-155413227D01*
X115718828Y-155455486D01*
X115694328Y-155491344D01*
X115673924Y-155592100D01*
X115673924Y-156346100D01*
X115691635Y-156440227D01*
X115747264Y-156526676D01*
X115832144Y-156584672D01*
X115932900Y-156605076D01*
X117432900Y-156605076D01*
X117527027Y-156587365D01*
X117613476Y-156531736D01*
X117671472Y-156446856D01*
X117691876Y-156346100D01*
X117691876Y-155592100D01*
X117674165Y-155497973D01*
X117646972Y-155455714D01*
X117671472Y-155419856D01*
X117691876Y-155319100D01*
X117691876Y-154619100D01*
X117674165Y-154524973D01*
X117638024Y-154468809D01*
X117671472Y-154419856D01*
X117691876Y-154319100D01*
X117691876Y-153619100D01*
X117674165Y-153524973D01*
X117638024Y-153468809D01*
X117671472Y-153419856D01*
X117691876Y-153319100D01*
X117691876Y-152619100D01*
X117674165Y-152524973D01*
X117638024Y-152468809D01*
X117671472Y-152419856D01*
X117691876Y-152319100D01*
X117691876Y-151619100D01*
X117674165Y-151524973D01*
X117638024Y-151468809D01*
X117671472Y-151419856D01*
X117691876Y-151319100D01*
X117691876Y-150619100D01*
X117674165Y-150524973D01*
X117638024Y-150468809D01*
X117671472Y-150419856D01*
X117691876Y-150319100D01*
X117691876Y-149619100D01*
X117674165Y-149524973D01*
X117638024Y-149468809D01*
X117671472Y-149419856D01*
X117691876Y-149319100D01*
X117691876Y-148619100D01*
X117674165Y-148524973D01*
X117638024Y-148468809D01*
X117671472Y-148419856D01*
X117691876Y-148319100D01*
X117691876Y-147619100D01*
X117674165Y-147524973D01*
X117618536Y-147438524D01*
X117533656Y-147380528D01*
X117432900Y-147360124D01*
X117038500Y-147360124D01*
X117038500Y-146879082D01*
X117100369Y-146817321D01*
X117170120Y-146649342D01*
X117170279Y-146467456D01*
X117100821Y-146299355D01*
X116972321Y-146170631D01*
X116804342Y-146100880D01*
X116622456Y-146100721D01*
X116454355Y-146170179D01*
X116325631Y-146298679D01*
X116255880Y-146466658D01*
X116255721Y-146648544D01*
X116325179Y-146816645D01*
X116327300Y-146818770D01*
X116327300Y-147360124D01*
X115932900Y-147360124D01*
X115838773Y-147377835D01*
X115752324Y-147433464D01*
X115694328Y-147518344D01*
X115673924Y-147619100D01*
X115673924Y-148319100D01*
X115691635Y-148413227D01*
X115727776Y-148469391D01*
X115694328Y-148518344D01*
X115673924Y-148619100D01*
X115673924Y-149319100D01*
X115691635Y-149413227D01*
X115727776Y-149469391D01*
X115694328Y-149518344D01*
X115673924Y-149619100D01*
X115673924Y-150319100D01*
X115691635Y-150413227D01*
X115727776Y-150469391D01*
X115694328Y-150518344D01*
X115673924Y-150619100D01*
X115673924Y-151319100D01*
X115691635Y-151413227D01*
X115727776Y-151469391D01*
X115694328Y-151518344D01*
X115673924Y-151619100D01*
X115673924Y-152014432D01*
X111871045Y-148211553D01*
X111755681Y-148134468D01*
X111619598Y-148107400D01*
X110273035Y-148107400D01*
X110241321Y-148075631D01*
X110073342Y-148005880D01*
X109891456Y-148005721D01*
X109723355Y-148075179D01*
X109594631Y-148203679D01*
X109524880Y-148371658D01*
X109524721Y-148553544D01*
X106459600Y-148553544D01*
X106459600Y-148045544D01*
X106603721Y-148045544D01*
X106673179Y-148213645D01*
X106801679Y-148342369D01*
X106969658Y-148412120D01*
X107151544Y-148412279D01*
X107319645Y-148342821D01*
X107448369Y-148214321D01*
X107518120Y-148046342D01*
X107518279Y-147864456D01*
X107448821Y-147696355D01*
X107320321Y-147567631D01*
X107152342Y-147497880D01*
X106970456Y-147497721D01*
X106802355Y-147567179D01*
X106673631Y-147695679D01*
X106603880Y-147863658D01*
X106603721Y-148045544D01*
X106459600Y-148045544D01*
X106459600Y-147005741D01*
X106502120Y-146903342D01*
X106502279Y-146721456D01*
X106432821Y-146553355D01*
X106304321Y-146424631D01*
X106136342Y-146354880D01*
X105954456Y-146354721D01*
X105786355Y-146424179D01*
X105657631Y-146552679D01*
X105587880Y-146720658D01*
X105587721Y-146902544D01*
X105657179Y-147070645D01*
X105748400Y-147162025D01*
X105748400Y-156540078D01*
X105659873Y-156556735D01*
X105603709Y-156592876D01*
X105554756Y-156559428D01*
X105454000Y-156539024D01*
X104754000Y-156539024D01*
X104659873Y-156556735D01*
X104618040Y-156583654D01*
X104848648Y-156353046D01*
X104925733Y-156237681D01*
X104952801Y-156101599D01*
X104952801Y-150074745D01*
X105035369Y-149992321D01*
X105105120Y-149824342D01*
X105105279Y-149642456D01*
X105035821Y-149474355D01*
X105003600Y-149442078D01*
X105003600Y-145689294D01*
X106090654Y-144602240D01*
X106129040Y-144602273D01*
X106040983Y-144690177D01*
X105880183Y-145077427D01*
X105879818Y-145496734D01*
X106039941Y-145884263D01*
X106336177Y-146181017D01*
X106723427Y-146341817D01*
X107142734Y-146342182D01*
X107530263Y-146182059D01*
X107571850Y-146140544D01*
X111683721Y-146140544D01*
X111753179Y-146308645D01*
X111881679Y-146437369D01*
X112049658Y-146507120D01*
X112231544Y-146507279D01*
X112399645Y-146437821D01*
X112528369Y-146309321D01*
X112598120Y-146141342D01*
X112598279Y-145959456D01*
X112528821Y-145791355D01*
X112400321Y-145662631D01*
X112232342Y-145592880D01*
X112050456Y-145592721D01*
X111882355Y-145662179D01*
X111753631Y-145790679D01*
X111683880Y-145958658D01*
X111683721Y-146140544D01*
X107571850Y-146140544D01*
X107827017Y-145885823D01*
X107987817Y-145498573D01*
X107988182Y-145079266D01*
X107828059Y-144691737D01*
X107531823Y-144394983D01*
X107144573Y-144234183D01*
X106725266Y-144233818D01*
X106457171Y-144344592D01*
X106502120Y-144236342D01*
X106502279Y-144054456D01*
X106432821Y-143886355D01*
X106304321Y-143757631D01*
X106136342Y-143687880D01*
X105954456Y-143687721D01*
X105786355Y-143757179D01*
X105657631Y-143885679D01*
X105587880Y-144053658D01*
X105587840Y-144099266D01*
X104396553Y-145290553D01*
X104319468Y-145405917D01*
X104319468Y-145405918D01*
X104292400Y-145542000D01*
X104292400Y-149441965D01*
X104260631Y-149473679D01*
X104190880Y-149641658D01*
X104190721Y-149823544D01*
X104241601Y-149946683D01*
X104241601Y-155954305D01*
X103852553Y-156343353D01*
X103775468Y-156458717D01*
X103760944Y-156531736D01*
X103759494Y-156539024D01*
X103754000Y-156539024D01*
X103659873Y-156556735D01*
X103603709Y-156592876D01*
X103554756Y-156559428D01*
X103459600Y-156540158D01*
X103459600Y-154489000D01*
X103511369Y-154437321D01*
X103581120Y-154269342D01*
X103581279Y-154087456D01*
X103511821Y-153919355D01*
X103383321Y-153790631D01*
X103215342Y-153720880D01*
X103033456Y-153720721D01*
X102865355Y-153790179D01*
X102736631Y-153918679D01*
X102666880Y-154086658D01*
X102666721Y-154268544D01*
X102736179Y-154436645D01*
X102748400Y-154448887D01*
X102748400Y-156540078D01*
X102659873Y-156556735D01*
X102603709Y-156592876D01*
X102554756Y-156559428D01*
X102454000Y-156539024D01*
X102448506Y-156539024D01*
X102447056Y-156531736D01*
X102432532Y-156458717D01*
X102355447Y-156343353D01*
X101335647Y-155323553D01*
X101220283Y-155246468D01*
X101084200Y-155219400D01*
X101061494Y-155219400D01*
X103042654Y-153238240D01*
X103087544Y-153238279D01*
X103255645Y-153168821D01*
X103384369Y-153040321D01*
X103454120Y-152872342D01*
X103454279Y-152690456D01*
X103384821Y-152522355D01*
X103256321Y-152393631D01*
X103088342Y-152323880D01*
X102906456Y-152323721D01*
X102738355Y-152393179D01*
X102609631Y-152521679D01*
X102539880Y-152689658D01*
X102539840Y-152735266D01*
X100661606Y-154613500D01*
X99533022Y-154613500D01*
X99516365Y-154524973D01*
X99480224Y-154468809D01*
X99513672Y-154419856D01*
X99534076Y-154319100D01*
X99534076Y-154313606D01*
X99614383Y-154297632D01*
X99729747Y-154220547D01*
X101724447Y-152225847D01*
X101801532Y-152110483D01*
X101828600Y-151974400D01*
X101828600Y-149516035D01*
X101860369Y-149484321D01*
X101930120Y-149316342D01*
X101930279Y-149134456D01*
X101860821Y-148966355D01*
X101732321Y-148837631D01*
X101564342Y-148767880D01*
X101382456Y-148767721D01*
X101214355Y-148837179D01*
X101085631Y-148965679D01*
X101015880Y-149133658D01*
X101015721Y-149315544D01*
X101085179Y-149483645D01*
X101117400Y-149515922D01*
X101117400Y-151827106D01*
X99489990Y-153454516D01*
X99513672Y-153419856D01*
X99534076Y-153319100D01*
X99534076Y-152619100D01*
X99516365Y-152524973D01*
X99480224Y-152468809D01*
X99513672Y-152419856D01*
X99534076Y-152319100D01*
X99534076Y-151619100D01*
X99516365Y-151524973D01*
X99480224Y-151468809D01*
X99513672Y-151419856D01*
X99534076Y-151319100D01*
X99534076Y-150619100D01*
X99516365Y-150524973D01*
X99480224Y-150468809D01*
X99513672Y-150419856D01*
X99534076Y-150319100D01*
X99534076Y-149619100D01*
X99516365Y-149524973D01*
X99480224Y-149468809D01*
X99513672Y-149419856D01*
X99534076Y-149319100D01*
X99534076Y-148871655D01*
X99620411Y-148835894D01*
X99791894Y-148664411D01*
X99884700Y-148440357D01*
X99884700Y-148273900D01*
X99732300Y-148121500D01*
X98677500Y-148121500D01*
X98677500Y-148141500D01*
X98372700Y-148141500D01*
X98372700Y-148121500D01*
X97317900Y-148121500D01*
X97165500Y-148273900D01*
X97165500Y-148440357D01*
X97258306Y-148664411D01*
X97429789Y-148835894D01*
X97516124Y-148871655D01*
X97516124Y-149319100D01*
X97533835Y-149413227D01*
X97569976Y-149469391D01*
X97536528Y-149518344D01*
X97516124Y-149619100D01*
X97516124Y-150319100D01*
X97533835Y-150413227D01*
X97569976Y-150469391D01*
X97536528Y-150518344D01*
X97516124Y-150619100D01*
X97516124Y-151319100D01*
X97533835Y-151413227D01*
X97560754Y-151455060D01*
X95986600Y-149880906D01*
X95986600Y-148480335D01*
X96018369Y-148448621D01*
X96088120Y-148280642D01*
X96088279Y-148098756D01*
X96018821Y-147930655D01*
X95890321Y-147801931D01*
X95722342Y-147732180D01*
X95676734Y-147732140D01*
X95442437Y-147497843D01*
X97165500Y-147497843D01*
X97165500Y-147664300D01*
X97317900Y-147816700D01*
X98372700Y-147816700D01*
X98372700Y-147161900D01*
X98677500Y-147161900D01*
X98677500Y-147816700D01*
X99732300Y-147816700D01*
X99884700Y-147664300D01*
X99884700Y-147497843D01*
X99791894Y-147273789D01*
X99620411Y-147102306D01*
X99396357Y-147009500D01*
X98829900Y-147009500D01*
X98677500Y-147161900D01*
X98372700Y-147161900D01*
X98220300Y-147009500D01*
X97653843Y-147009500D01*
X97429789Y-147102306D01*
X97258306Y-147273789D01*
X97165500Y-147497843D01*
X95442437Y-147497843D01*
X94441647Y-146497053D01*
X94326283Y-146419968D01*
X94245976Y-146403994D01*
X94245976Y-145973500D01*
X94228265Y-145879373D01*
X94172636Y-145792924D01*
X94087756Y-145734928D01*
X93987000Y-145714524D01*
X91687000Y-145714524D01*
X91592873Y-145732235D01*
X91506424Y-145787864D01*
X91448428Y-145872744D01*
X91428024Y-145973500D01*
X91428024Y-147523500D01*
X91445735Y-147617627D01*
X91501364Y-147704076D01*
X91586244Y-147762072D01*
X91687000Y-147782476D01*
X93987000Y-147782476D01*
X94081127Y-147764765D01*
X94167576Y-147709136D01*
X94225572Y-147624256D01*
X94245976Y-147523500D01*
X94245976Y-147307170D01*
X95173760Y-148234954D01*
X95173721Y-148279844D01*
X95243179Y-148447945D01*
X95275400Y-148480222D01*
X95275400Y-150028200D01*
X95302468Y-150164283D01*
X95379553Y-150279647D01*
X97320453Y-152220547D01*
X97435817Y-152297632D01*
X97516124Y-152313606D01*
X97516124Y-152319100D01*
X97533835Y-152413227D01*
X97541668Y-152425400D01*
X95922035Y-152425400D01*
X95890321Y-152393631D01*
X95722342Y-152323880D01*
X95540456Y-152323721D01*
X95372355Y-152393179D01*
X95243631Y-152521679D01*
X95223809Y-152569415D01*
X94195769Y-151541375D01*
X94225572Y-151497756D01*
X94245976Y-151397000D01*
X94245976Y-149847000D01*
X94228265Y-149752873D01*
X94172636Y-149666424D01*
X94087756Y-149608428D01*
X93987000Y-149588024D01*
X91687000Y-149588024D01*
X91592873Y-149605735D01*
X91506424Y-149661364D01*
X91448428Y-149746244D01*
X91428024Y-149847000D01*
X91428024Y-151397000D01*
X91445735Y-151491127D01*
X91501364Y-151577576D01*
X91586244Y-151635572D01*
X91687000Y-151655976D01*
X93304582Y-151655976D01*
X95226805Y-153578199D01*
X95173880Y-153705658D01*
X95173721Y-153887544D01*
X95243179Y-154055645D01*
X95371679Y-154184369D01*
X95539658Y-154254120D01*
X95721544Y-154254279D01*
X95889645Y-154184821D01*
X95921922Y-154152600D01*
X97516124Y-154152600D01*
X97516124Y-154319100D01*
X97533835Y-154413227D01*
X97569976Y-154469391D01*
X97536528Y-154518344D01*
X97523151Y-154584400D01*
X92329000Y-154584400D01*
X92192918Y-154611468D01*
X92176408Y-154622500D01*
X92077553Y-154688553D01*
X90670650Y-156095456D01*
X90664756Y-156091428D01*
X90564000Y-156071024D01*
X89014000Y-156071024D01*
X88919873Y-156088735D01*
X88833424Y-156144364D01*
X88775428Y-156229244D01*
X88755024Y-156330000D01*
X88755024Y-158630000D01*
X88772735Y-158724127D01*
X88828364Y-158810576D01*
X88913244Y-158868572D01*
X89014000Y-158888976D01*
X89433400Y-158888976D01*
X89433400Y-166078965D01*
X89401631Y-166110679D01*
X89331880Y-166278658D01*
X89331721Y-166460544D01*
X89401179Y-166628645D01*
X89529679Y-166757369D01*
X89697658Y-166827120D01*
X89879544Y-166827279D01*
X90047645Y-166757821D01*
X90176369Y-166629321D01*
X90246120Y-166461342D01*
X90246279Y-166279456D01*
X90176821Y-166111355D01*
X90144600Y-166079078D01*
X90144600Y-158888976D01*
X90564000Y-158888976D01*
X90658127Y-158871265D01*
X90744576Y-158815636D01*
X90802572Y-158730756D01*
X90822976Y-158630000D01*
X90822976Y-156948918D01*
X92476294Y-155295600D01*
X97516124Y-155295600D01*
X97516124Y-155319100D01*
X97533835Y-155413227D01*
X97569976Y-155469391D01*
X97536528Y-155518344D01*
X97516124Y-155619100D01*
X97516124Y-156319100D01*
X97533835Y-156413227D01*
X97589464Y-156499676D01*
X97674344Y-156557672D01*
X97775100Y-156578076D01*
X99275100Y-156578076D01*
X99369227Y-156560365D01*
X99455676Y-156504736D01*
X99513672Y-156419856D01*
X99534076Y-156319100D01*
X99534076Y-155933716D01*
X99562679Y-155962369D01*
X99730658Y-156032120D01*
X99912544Y-156032279D01*
X100080645Y-155962821D01*
X100112922Y-155930600D01*
X100936906Y-155930600D01*
X101589416Y-156583110D01*
X101554756Y-156559428D01*
X101454000Y-156539024D01*
X100754000Y-156539024D01*
X100659873Y-156556735D01*
X100603709Y-156592876D01*
X100554756Y-156559428D01*
X100454000Y-156539024D01*
X99754000Y-156539024D01*
X99659873Y-156556735D01*
X99573424Y-156612364D01*
X99515428Y-156697244D01*
X99495024Y-156798000D01*
X99495024Y-158298000D01*
X99512735Y-158392127D01*
X99568364Y-158478576D01*
X99653244Y-158536572D01*
X99754000Y-158556976D01*
X100454000Y-158556976D01*
X100548127Y-158539265D01*
X100604291Y-158503124D01*
X100653244Y-158536572D01*
X100754000Y-158556976D01*
X101454000Y-158556976D01*
X101548127Y-158539265D01*
X101604291Y-158503124D01*
X101653244Y-158536572D01*
X101748400Y-158555842D01*
X101748400Y-160156406D01*
X100792476Y-161112330D01*
X100792476Y-160521000D01*
X100774765Y-160426873D01*
X100719136Y-160340424D01*
X100634256Y-160282428D01*
X100533500Y-160262024D01*
X98983500Y-160262024D01*
X98889373Y-160279735D01*
X98802924Y-160335364D01*
X98744928Y-160420244D01*
X98724524Y-160521000D01*
X98724524Y-162821000D01*
X98742235Y-162915127D01*
X98797864Y-163001576D01*
X98882744Y-163059572D01*
X98983500Y-163079976D01*
X100533500Y-163079976D01*
X100627627Y-163062265D01*
X100714076Y-163006636D01*
X100772072Y-162921756D01*
X100792476Y-162821000D01*
X100792476Y-162015506D01*
X100872783Y-161999532D01*
X100988147Y-161922447D01*
X102355447Y-160555147D01*
X102432532Y-160439783D01*
X102459600Y-160303700D01*
X102459600Y-158555922D01*
X102548127Y-158539265D01*
X102604291Y-158503124D01*
X102653244Y-158536572D01*
X102754000Y-158556976D01*
X103454000Y-158556976D01*
X103548127Y-158539265D01*
X103604291Y-158503124D01*
X103653244Y-158536572D01*
X103748400Y-158555842D01*
X103748400Y-160516024D01*
X103301500Y-160516024D01*
X103207373Y-160533735D01*
X103120924Y-160589364D01*
X103062928Y-160674244D01*
X103042524Y-160775000D01*
X103042524Y-163075000D01*
X103060235Y-163169127D01*
X103115864Y-163255576D01*
X103200744Y-163313572D01*
X103301500Y-163333976D01*
X104851500Y-163333976D01*
X104945627Y-163316265D01*
X105032076Y-163260636D01*
X105090072Y-163175756D01*
X105110476Y-163075000D01*
X105110476Y-160775000D01*
X105092765Y-160680873D01*
X105037136Y-160594424D01*
X104952256Y-160536428D01*
X104851500Y-160516024D01*
X104459600Y-160516024D01*
X104459600Y-158555922D01*
X104548127Y-158539265D01*
X104604291Y-158503124D01*
X104653244Y-158536572D01*
X104754000Y-158556976D01*
X105454000Y-158556976D01*
X105548127Y-158539265D01*
X105604291Y-158503124D01*
X105653244Y-158536572D01*
X105754000Y-158556976D01*
X106451400Y-158556976D01*
X106451400Y-160109965D01*
X106419631Y-160141679D01*
X106349880Y-160309658D01*
X106349721Y-160491544D01*
X106419179Y-160659645D01*
X106451400Y-160691922D01*
X106451400Y-165633400D01*
X101177342Y-165633400D01*
X101041259Y-165660468D01*
X100925895Y-165737553D01*
X98681553Y-167981895D01*
X98604468Y-168097259D01*
X98604468Y-168097260D01*
X98577400Y-168233342D01*
X98577400Y-171031965D01*
X98545631Y-171063679D01*
X98475880Y-171231658D01*
X98475840Y-171277266D01*
X98455505Y-171297601D01*
X95939837Y-171297601D01*
X91668600Y-167026364D01*
X91668600Y-166355033D01*
X91729179Y-166501645D01*
X91857679Y-166630369D01*
X92025658Y-166700120D01*
X92207544Y-166700279D01*
X92375645Y-166630821D01*
X92407922Y-166598600D01*
X93708024Y-166598600D01*
X93708024Y-167901000D01*
X93725735Y-167995127D01*
X93781364Y-168081576D01*
X93866244Y-168139572D01*
X93967000Y-168159976D01*
X95517000Y-168159976D01*
X95611127Y-168142265D01*
X95697576Y-168086636D01*
X95755572Y-168001756D01*
X95775976Y-167901000D01*
X95775976Y-165601000D01*
X95758265Y-165506873D01*
X95702636Y-165420424D01*
X95617756Y-165362428D01*
X95517000Y-165342024D01*
X93967000Y-165342024D01*
X93872873Y-165359735D01*
X93786424Y-165415364D01*
X93728428Y-165500244D01*
X93708024Y-165601000D01*
X93708024Y-165887400D01*
X92408035Y-165887400D01*
X92376321Y-165855631D01*
X92208342Y-165785880D01*
X92026456Y-165785721D01*
X91858355Y-165855179D01*
X91729631Y-165983679D01*
X91668600Y-166130658D01*
X91668600Y-163469294D01*
X92882655Y-162255240D01*
X92927544Y-162255279D01*
X93095645Y-162185821D01*
X93224369Y-162057321D01*
X93294120Y-161889342D01*
X93294279Y-161707456D01*
X93224821Y-161539355D01*
X93222471Y-161537000D01*
X93835024Y-161537000D01*
X93835024Y-163837000D01*
X93852735Y-163931127D01*
X93908364Y-164017576D01*
X93993244Y-164075572D01*
X94094000Y-164095976D01*
X95644000Y-164095976D01*
X95738127Y-164078265D01*
X95785868Y-164047544D01*
X97840721Y-164047544D01*
X97910179Y-164215645D01*
X98038679Y-164344369D01*
X98206658Y-164414120D01*
X98388544Y-164414279D01*
X98556645Y-164344821D01*
X98685369Y-164216321D01*
X98755120Y-164048342D01*
X98755279Y-163866456D01*
X98685821Y-163698355D01*
X98557321Y-163569631D01*
X98389342Y-163499880D01*
X98207456Y-163499721D01*
X98039355Y-163569179D01*
X97910631Y-163697679D01*
X97840880Y-163865658D01*
X97840721Y-164047544D01*
X95785868Y-164047544D01*
X95824576Y-164022636D01*
X95882572Y-163937756D01*
X95902976Y-163837000D01*
X95902976Y-162915600D01*
X96990965Y-162915600D01*
X97022679Y-162947369D01*
X97190658Y-163017120D01*
X97372544Y-163017279D01*
X97540645Y-162947821D01*
X97669369Y-162819321D01*
X97739120Y-162651342D01*
X97739279Y-162469456D01*
X97669821Y-162301355D01*
X97541321Y-162172631D01*
X97373342Y-162102880D01*
X97191456Y-162102721D01*
X97023355Y-162172179D01*
X96991078Y-162204400D01*
X95902976Y-162204400D01*
X95902976Y-161761544D01*
X96570721Y-161761544D01*
X96640179Y-161929645D01*
X96768679Y-162058369D01*
X96936658Y-162128120D01*
X97118544Y-162128279D01*
X97286645Y-162058821D01*
X97415369Y-161930321D01*
X97485120Y-161762342D01*
X97485279Y-161580456D01*
X97415821Y-161412355D01*
X97287321Y-161283631D01*
X97119342Y-161213880D01*
X96937456Y-161213721D01*
X96769355Y-161283179D01*
X96640631Y-161411679D01*
X96570880Y-161579658D01*
X96570721Y-161761544D01*
X95902976Y-161761544D01*
X95902976Y-161537000D01*
X95885265Y-161442873D01*
X95829636Y-161356424D01*
X95744756Y-161298428D01*
X95644000Y-161278024D01*
X94094000Y-161278024D01*
X93999873Y-161295735D01*
X93913424Y-161351364D01*
X93855428Y-161436244D01*
X93835024Y-161537000D01*
X93222471Y-161537000D01*
X93192600Y-161507078D01*
X93192600Y-157092000D01*
X93835024Y-157092000D01*
X93835024Y-159392000D01*
X93852735Y-159486127D01*
X93908364Y-159572576D01*
X93993244Y-159630572D01*
X94094000Y-159650976D01*
X95644000Y-159650976D01*
X95738127Y-159633265D01*
X95824576Y-159577636D01*
X95882572Y-159492756D01*
X95902976Y-159392000D01*
X95902976Y-157962600D01*
X96101965Y-157962600D01*
X96133679Y-157994369D01*
X96301658Y-158064120D01*
X96483544Y-158064279D01*
X96651645Y-157994821D01*
X96780369Y-157866321D01*
X96850120Y-157698342D01*
X96850279Y-157516456D01*
X96780821Y-157348355D01*
X96652321Y-157219631D01*
X96484342Y-157149880D01*
X96302456Y-157149721D01*
X96134355Y-157219179D01*
X96102078Y-157251400D01*
X95902976Y-157251400D01*
X95902976Y-157092000D01*
X95885265Y-156997873D01*
X95829636Y-156911424D01*
X95744756Y-156853428D01*
X95644000Y-156833024D01*
X94094000Y-156833024D01*
X93999873Y-156850735D01*
X93913424Y-156906364D01*
X93855428Y-156991244D01*
X93835024Y-157092000D01*
X93192600Y-157092000D01*
X93192600Y-156738294D01*
X93492295Y-156438600D01*
X93815965Y-156438600D01*
X93847679Y-156470369D01*
X94015658Y-156540120D01*
X94197544Y-156540279D01*
X94365645Y-156470821D01*
X94494369Y-156342321D01*
X94564120Y-156174342D01*
X94564279Y-155992456D01*
X94494821Y-155824355D01*
X94366321Y-155695631D01*
X94198342Y-155625880D01*
X94016456Y-155625721D01*
X93848355Y-155695179D01*
X93816078Y-155727400D01*
X93345000Y-155727400D01*
X93208918Y-155754468D01*
X93208916Y-155754469D01*
X93208917Y-155754469D01*
X93093552Y-155831553D01*
X92585553Y-156339553D01*
X92508468Y-156454917D01*
X92491489Y-156540279D01*
X92481400Y-156591000D01*
X92481400Y-161506965D01*
X92449631Y-161538679D01*
X92379880Y-161706658D01*
X92379840Y-161752265D01*
X91061553Y-163070553D01*
X90984468Y-163185917D01*
X90984468Y-163185918D01*
X90957400Y-163322000D01*
X90957400Y-167173658D01*
X90984468Y-167309741D01*
X91061553Y-167425105D01*
X91541598Y-167905150D01*
X91541598Y-167937798D01*
X91389200Y-167785400D01*
X91197743Y-167785400D01*
X90973689Y-167878206D01*
X90802206Y-168049689D01*
X90709400Y-168273743D01*
X90709400Y-168490200D01*
X90861800Y-168642600D01*
X91541600Y-168642600D01*
X91541600Y-168622600D01*
X91846400Y-168622600D01*
X91846400Y-168642600D01*
X91866400Y-168642600D01*
X91866400Y-168947400D01*
X91846400Y-168947400D01*
X91846400Y-168967400D01*
X91541600Y-168967400D01*
X91541600Y-168947400D01*
X90861800Y-168947400D01*
X90709400Y-169099800D01*
X90709400Y-169316257D01*
X90802206Y-169540311D01*
X90973689Y-169711794D01*
X91100791Y-169764441D01*
X91080428Y-169794244D01*
X91069036Y-169850500D01*
X90181976Y-169850500D01*
X90181976Y-169214500D01*
X90164265Y-169120373D01*
X90108636Y-169033924D01*
X90023756Y-168975928D01*
X89923000Y-168955524D01*
X87623000Y-168955524D01*
X87528873Y-168973235D01*
X87442424Y-169028864D01*
X87384428Y-169113744D01*
X87364024Y-169214500D01*
X87364024Y-170764500D01*
X87381735Y-170858627D01*
X87437364Y-170945076D01*
X87522244Y-171003072D01*
X87623000Y-171023476D01*
X89923000Y-171023476D01*
X90017127Y-171005765D01*
X90103576Y-170950136D01*
X90161572Y-170865256D01*
X90181976Y-170764500D01*
X90181976Y-170739500D01*
X91068397Y-170739500D01*
X91077735Y-170789127D01*
X91133364Y-170875576D01*
X91218244Y-170933572D01*
X91319000Y-170953976D01*
X92069000Y-170953976D01*
X92163127Y-170936265D01*
X92249576Y-170880636D01*
X92307572Y-170795756D01*
X92318964Y-170739500D01*
X92513882Y-170739500D01*
X92837006Y-171062624D01*
X92836890Y-171194755D01*
X92933360Y-171428228D01*
X93007003Y-171502000D01*
X87070000Y-171502000D01*
X87070000Y-156931609D01*
X87116679Y-156978369D01*
X87284658Y-157048120D01*
X87466544Y-157048279D01*
X87634645Y-156978821D01*
X87763369Y-156850321D01*
X87833120Y-156682342D01*
X87833279Y-156500456D01*
X87763821Y-156332355D01*
X87731600Y-156300078D01*
X87731600Y-154769794D01*
X87860918Y-154640476D01*
X89542000Y-154640476D01*
X89636127Y-154622765D01*
X89722576Y-154567136D01*
X89780572Y-154482256D01*
X89800976Y-154381500D01*
X89800976Y-152831500D01*
X89783265Y-152737373D01*
X89727636Y-152650924D01*
X89642756Y-152592928D01*
X89542000Y-152572524D01*
X87242000Y-152572524D01*
X87147873Y-152590235D01*
X87070000Y-152640345D01*
X87070000Y-151742477D01*
X87247743Y-151816100D01*
X88214200Y-151816100D01*
X88366600Y-151663700D01*
X88366600Y-150583900D01*
X88671400Y-150583900D01*
X88671400Y-151663700D01*
X88823800Y-151816100D01*
X89790257Y-151816100D01*
X90014311Y-151723294D01*
X90185794Y-151551811D01*
X90278600Y-151327757D01*
X90278600Y-150736300D01*
X90126200Y-150583900D01*
X88671400Y-150583900D01*
X88366600Y-150583900D01*
X88346600Y-150583900D01*
X88346600Y-150279100D01*
X88366600Y-150279100D01*
X88366600Y-149199300D01*
X88671400Y-149199300D01*
X88671400Y-150279100D01*
X90126200Y-150279100D01*
X90278600Y-150126700D01*
X90278600Y-149535243D01*
X90185794Y-149311189D01*
X90014311Y-149139706D01*
X89790257Y-149046900D01*
X88823800Y-149046900D01*
X88671400Y-149199300D01*
X88366600Y-149199300D01*
X88214200Y-149046900D01*
X87247743Y-149046900D01*
X87070000Y-149120523D01*
X87070000Y-148376977D01*
X87247743Y-148450600D01*
X88214200Y-148450600D01*
X88366600Y-148298200D01*
X88366600Y-147218400D01*
X88671400Y-147218400D01*
X88671400Y-148298200D01*
X88823800Y-148450600D01*
X89790257Y-148450600D01*
X90014311Y-148357794D01*
X90185794Y-148186311D01*
X90278600Y-147962257D01*
X90278600Y-147370800D01*
X90126200Y-147218400D01*
X88671400Y-147218400D01*
X88366600Y-147218400D01*
X88346600Y-147218400D01*
X88346600Y-146913600D01*
X88366600Y-146913600D01*
X88366600Y-145833800D01*
X88671400Y-145833800D01*
X88671400Y-146913600D01*
X90126200Y-146913600D01*
X90278600Y-146761200D01*
X90278600Y-146169743D01*
X90185794Y-145945689D01*
X90014311Y-145774206D01*
X89790257Y-145681400D01*
X88823800Y-145681400D01*
X88671400Y-145833800D01*
X88366600Y-145833800D01*
X88214200Y-145681400D01*
X87247743Y-145681400D01*
X87070000Y-145755023D01*
X87070000Y-144884477D01*
X87247743Y-144958100D01*
X88214200Y-144958100D01*
X88366600Y-144805700D01*
X88366600Y-143725900D01*
X88671400Y-143725900D01*
X88671400Y-144805700D01*
X88823800Y-144958100D01*
X89790257Y-144958100D01*
X90014311Y-144865294D01*
X90185794Y-144693811D01*
X90278600Y-144469757D01*
X90278600Y-143878300D01*
X90126200Y-143725900D01*
X88671400Y-143725900D01*
X88366600Y-143725900D01*
X88346600Y-143725900D01*
X88346600Y-143421100D01*
X88366600Y-143421100D01*
X88366600Y-142341300D01*
X88671400Y-142341300D01*
X88671400Y-143421100D01*
X90126200Y-143421100D01*
X90278600Y-143268700D01*
X90278600Y-142677243D01*
X90223617Y-142544500D01*
X91428024Y-142544500D01*
X91428024Y-144094500D01*
X91445735Y-144188627D01*
X91501364Y-144275076D01*
X91586244Y-144333072D01*
X91687000Y-144353476D01*
X93987000Y-144353476D01*
X94081127Y-144335765D01*
X94167576Y-144280136D01*
X94225572Y-144195256D01*
X94245976Y-144094500D01*
X94245976Y-142788418D01*
X94536394Y-142498000D01*
X95411024Y-142498000D01*
X95411024Y-142998000D01*
X95428735Y-143092127D01*
X95484364Y-143178576D01*
X95569244Y-143236572D01*
X95656400Y-143254222D01*
X95656400Y-143599965D01*
X95624631Y-143631679D01*
X95554880Y-143799658D01*
X95554721Y-143981544D01*
X95624179Y-144149645D01*
X95656400Y-144181922D01*
X95656400Y-144527583D01*
X95575873Y-144542735D01*
X95489424Y-144598364D01*
X95431428Y-144683244D01*
X95411024Y-144784000D01*
X95411024Y-145284000D01*
X95428735Y-145378127D01*
X95484364Y-145464576D01*
X95569244Y-145522572D01*
X95670000Y-145542976D01*
X96217445Y-145542976D01*
X96253206Y-145629311D01*
X96424689Y-145800794D01*
X96648743Y-145893600D01*
X96767600Y-145893600D01*
X96920000Y-145741200D01*
X96920000Y-145159000D01*
X97220000Y-145159000D01*
X97220000Y-145741200D01*
X97372400Y-145893600D01*
X97491257Y-145893600D01*
X97715311Y-145800794D01*
X97886794Y-145629311D01*
X97979600Y-145405257D01*
X97979600Y-145311400D01*
X97827200Y-145159000D01*
X97220000Y-145159000D01*
X96920000Y-145159000D01*
X96897600Y-145159000D01*
X96897600Y-144909000D01*
X96920000Y-144909000D01*
X96920000Y-144326800D01*
X97220000Y-144326800D01*
X97220000Y-144909000D01*
X97827200Y-144909000D01*
X97979600Y-144756600D01*
X97979600Y-144662743D01*
X97886794Y-144438689D01*
X97715311Y-144267206D01*
X97491257Y-144174400D01*
X97372400Y-144174400D01*
X97220000Y-144326800D01*
X96920000Y-144326800D01*
X96767600Y-144174400D01*
X96648743Y-144174400D01*
X96424689Y-144267206D01*
X96367600Y-144324295D01*
X96367600Y-144182035D01*
X96399369Y-144150321D01*
X96469120Y-143982342D01*
X96469279Y-143800456D01*
X96399821Y-143632355D01*
X96367600Y-143600078D01*
X96367600Y-143457705D01*
X96424689Y-143514794D01*
X96648743Y-143607600D01*
X96767600Y-143607600D01*
X96920000Y-143455200D01*
X96920000Y-142873000D01*
X97220000Y-142873000D01*
X97220000Y-143455200D01*
X97372400Y-143607600D01*
X97491257Y-143607600D01*
X97715311Y-143514794D01*
X97886794Y-143343311D01*
X97979600Y-143119257D01*
X97979600Y-143025400D01*
X97827200Y-142873000D01*
X97220000Y-142873000D01*
X96920000Y-142873000D01*
X96897600Y-142873000D01*
X96897600Y-142623000D01*
X96920000Y-142623000D01*
X96920000Y-142040800D01*
X97220000Y-142040800D01*
X97220000Y-142623000D01*
X97827200Y-142623000D01*
X97979600Y-142470600D01*
X97979600Y-142376743D01*
X97886794Y-142152689D01*
X97715311Y-141981206D01*
X97491257Y-141888400D01*
X97372400Y-141888400D01*
X97220000Y-142040800D01*
X96920000Y-142040800D01*
X96767600Y-141888400D01*
X96648743Y-141888400D01*
X96424689Y-141981206D01*
X96253206Y-142152689D01*
X96217445Y-142239024D01*
X95670000Y-142239024D01*
X95575873Y-142256735D01*
X95489424Y-142312364D01*
X95431428Y-142397244D01*
X95411024Y-142498000D01*
X94536394Y-142498000D01*
X95708794Y-141325600D01*
X96863965Y-141325600D01*
X96895679Y-141357369D01*
X97063658Y-141427120D01*
X97245544Y-141427279D01*
X97413645Y-141357821D01*
X97445922Y-141325600D01*
X100563706Y-141325600D01*
X102514400Y-143276294D01*
X102514400Y-150457965D01*
X102482631Y-150489679D01*
X102412880Y-150657658D01*
X102412721Y-150839544D01*
X102482179Y-151007645D01*
X102610679Y-151136369D01*
X102778658Y-151206120D01*
X102960544Y-151206279D01*
X103128645Y-151136821D01*
X103257369Y-151008321D01*
X103327120Y-150840342D01*
X103327279Y-150658456D01*
X103257821Y-150490355D01*
X103225600Y-150458078D01*
X103225600Y-143129000D01*
X103198532Y-142992918D01*
X103198532Y-142992917D01*
X103121447Y-142877553D01*
X100962447Y-140718553D01*
X100847083Y-140641468D01*
X100711000Y-140614400D01*
X97446035Y-140614400D01*
X97414321Y-140582631D01*
X97246342Y-140512880D01*
X97064456Y-140512721D01*
X96896355Y-140582179D01*
X96864078Y-140614400D01*
X95561500Y-140614400D01*
X95425417Y-140641468D01*
X95310053Y-140718553D01*
X93743082Y-142285524D01*
X91687000Y-142285524D01*
X91592873Y-142303235D01*
X91506424Y-142358864D01*
X91448428Y-142443744D01*
X91428024Y-142544500D01*
X90223617Y-142544500D01*
X90185794Y-142453189D01*
X90014311Y-142281706D01*
X89790257Y-142188900D01*
X88823800Y-142188900D01*
X88671400Y-142341300D01*
X88366600Y-142341300D01*
X88214200Y-142188900D01*
X87247743Y-142188900D01*
X87070000Y-142262523D01*
X87070000Y-141482605D01*
X87150689Y-141563294D01*
X87374743Y-141656100D01*
X88341200Y-141656100D01*
X88493600Y-141503700D01*
X88493600Y-140423900D01*
X88798400Y-140423900D01*
X88798400Y-141503700D01*
X88950800Y-141656100D01*
X89917257Y-141656100D01*
X90141311Y-141563294D01*
X90312794Y-141391811D01*
X90405600Y-141167757D01*
X90405600Y-140576300D01*
X90253200Y-140423900D01*
X88798400Y-140423900D01*
X88493600Y-140423900D01*
X88473600Y-140423900D01*
X88473600Y-140119100D01*
X88493600Y-140119100D01*
X88493600Y-140099100D01*
X88798400Y-140099100D01*
X88798400Y-140119100D01*
X90253200Y-140119100D01*
X90405600Y-139966700D01*
X90405600Y-139496500D01*
X91428024Y-139496500D01*
X91428024Y-141046500D01*
X91445735Y-141140627D01*
X91501364Y-141227076D01*
X91586244Y-141285072D01*
X91687000Y-141305476D01*
X93987000Y-141305476D01*
X94081127Y-141287765D01*
X94167576Y-141232136D01*
X94225572Y-141147256D01*
X94245976Y-141046500D01*
X94245976Y-140055600D01*
X94577965Y-140055600D01*
X94609679Y-140087369D01*
X94777658Y-140157120D01*
X94959544Y-140157279D01*
X95127645Y-140087821D01*
X95159922Y-140055600D01*
X101706706Y-140055600D01*
X103530400Y-141879294D01*
X103530400Y-143345965D01*
X103498631Y-143377679D01*
X103428880Y-143545658D01*
X103428721Y-143727544D01*
X103498179Y-143895645D01*
X103626679Y-144024369D01*
X103794658Y-144094120D01*
X103976544Y-144094279D01*
X104144645Y-144024821D01*
X104273369Y-143896321D01*
X104343120Y-143728342D01*
X104343279Y-143546456D01*
X104273821Y-143378355D01*
X104241600Y-143346078D01*
X104241600Y-141949544D01*
X104952721Y-141949544D01*
X105022179Y-142117645D01*
X105150679Y-142246369D01*
X105318658Y-142316120D01*
X105500544Y-142316279D01*
X105668645Y-142246821D01*
X105797369Y-142118321D01*
X105867120Y-141950342D01*
X105867279Y-141768456D01*
X105797821Y-141600355D01*
X105669321Y-141471631D01*
X105501342Y-141401880D01*
X105319456Y-141401721D01*
X105151355Y-141471179D01*
X105022631Y-141599679D01*
X104952880Y-141767658D01*
X104952721Y-141949544D01*
X104241600Y-141949544D01*
X104241600Y-141732000D01*
X104214532Y-141595918D01*
X104214532Y-141595917D01*
X104137447Y-141480553D01*
X103073628Y-140416734D01*
X104859818Y-140416734D01*
X105019941Y-140804263D01*
X105316177Y-141101017D01*
X105703427Y-141261817D01*
X106122734Y-141262182D01*
X106510263Y-141102059D01*
X106807017Y-140805823D01*
X106914065Y-140548022D01*
X107019941Y-140804263D01*
X107316177Y-141101017D01*
X107703427Y-141261817D01*
X108122734Y-141262182D01*
X108510263Y-141102059D01*
X108807017Y-140805823D01*
X108967817Y-140418573D01*
X108968182Y-139999266D01*
X108808059Y-139611737D01*
X108511823Y-139314983D01*
X108124573Y-139154183D01*
X107705266Y-139153818D01*
X107317737Y-139313941D01*
X107020983Y-139610177D01*
X106913935Y-139867978D01*
X106808059Y-139611737D01*
X106511823Y-139314983D01*
X106124573Y-139154183D01*
X105705266Y-139153818D01*
X105317737Y-139313941D01*
X105020983Y-139610177D01*
X104860183Y-139997427D01*
X104859818Y-140416734D01*
X103073628Y-140416734D01*
X102105447Y-139448553D01*
X101990083Y-139371468D01*
X101854000Y-139344400D01*
X95160035Y-139344400D01*
X95128321Y-139312631D01*
X94960342Y-139242880D01*
X94778456Y-139242721D01*
X94610355Y-139312179D01*
X94578078Y-139344400D01*
X94190960Y-139344400D01*
X94172636Y-139315924D01*
X94087756Y-139257928D01*
X93987000Y-139237524D01*
X91687000Y-139237524D01*
X91592873Y-139255235D01*
X91506424Y-139310864D01*
X91448428Y-139395744D01*
X91428024Y-139496500D01*
X90405600Y-139496500D01*
X90405600Y-139375243D01*
X90312794Y-139151189D01*
X90301605Y-139140000D01*
X108967790Y-139140000D01*
X108985335Y-139228202D01*
G36*
X95138448Y-171502000D02*
X93937053Y-171502000D01*
X94010013Y-171429168D01*
X94106889Y-171195863D01*
X94107110Y-170943245D01*
X94010640Y-170709772D01*
X93832168Y-170530987D01*
X93598863Y-170434111D01*
X93465612Y-170433994D01*
X93012309Y-169980691D01*
X92968635Y-169951509D01*
X92868103Y-169884336D01*
X92698000Y-169850500D01*
X92319603Y-169850500D01*
X92310265Y-169800873D01*
X92286903Y-169764568D01*
X92414311Y-169711794D01*
X92585794Y-169540311D01*
X92678600Y-169316257D01*
X92678600Y-169099800D01*
X92526202Y-168947402D01*
X92583850Y-168947402D01*
X95138448Y-171502000D01*
X95138448Y-171502000D01*
G37*
X95138448Y-171502000D02*
X93937053Y-171502000D01*
X94010013Y-171429168D01*
X94106889Y-171195863D01*
X94107110Y-170943245D01*
X94010640Y-170709772D01*
X93832168Y-170530987D01*
X93598863Y-170434111D01*
X93465612Y-170433994D01*
X93012309Y-169980691D01*
X92968635Y-169951509D01*
X92868103Y-169884336D01*
X92698000Y-169850500D01*
X92319603Y-169850500D01*
X92310265Y-169800873D01*
X92286903Y-169764568D01*
X92414311Y-169711794D01*
X92585794Y-169540311D01*
X92678600Y-169316257D01*
X92678600Y-169099800D01*
X92526202Y-168947402D01*
X92583850Y-168947402D01*
X95138448Y-171502000D01*
G36*
X97516124Y-153319100D02*
X97533835Y-153413227D01*
X97551964Y-153441400D01*
X95979022Y-153441400D01*
X95959532Y-153343417D01*
X95882447Y-153228053D01*
X95842638Y-153188244D01*
X95889645Y-153168821D01*
X95921922Y-153136600D01*
X97516124Y-153136600D01*
X97516124Y-153319100D01*
X97516124Y-153319100D01*
G37*
X97516124Y-153319100D02*
X97533835Y-153413227D01*
X97551964Y-153441400D01*
X95979022Y-153441400D01*
X95959532Y-153343417D01*
X95882447Y-153228053D01*
X95842638Y-153188244D01*
X95889645Y-153168821D01*
X95921922Y-153136600D01*
X97516124Y-153136600D01*
X97516124Y-153319100D01*
M02*
