G04 #@! TF.FileFunction,Soldermask,Bot*
%FSLAX46Y46*%
G04 Gerber Fmt 4.6, Leading zero omitted, Abs format (unit mm)*
G04 Created by KiCad (PCBNEW 4.0.0-stable) date Thursday, June 23, 2016 'AMt' 11:02:30 AM*
%MOMM*%
G01*
G04 APERTURE LIST*
%ADD10C,0.100000*%
%ADD11R,1.150000X1.200000*%
%ADD12R,3.795980X1.898600*%
%ADD13R,3.897580X1.395680*%
%ADD14R,1.000000X0.900000*%
%ADD15R,2.700000X1.950000*%
%ADD16R,1.950000X2.700000*%
%ADD17R,1.100000X1.900000*%
%ADD18R,1.900000X1.154000*%
%ADD19R,1.900000X1.100000*%
G04 APERTURE END LIST*
D10*
D11*
X91694000Y-170295000D03*
X91694000Y-168795000D03*
D12*
X117475000Y-163738560D03*
D13*
X111925100Y-166088060D03*
X111925100Y-168084500D03*
D12*
X117475000Y-170434000D03*
D14*
X118999000Y-159512000D03*
X117899000Y-159512000D03*
D15*
X88646000Y-140271500D03*
X88519000Y-143573500D03*
X88519000Y-147066000D03*
X88519000Y-150431500D03*
X92837000Y-140271500D03*
X92837000Y-143319500D03*
D16*
X89789000Y-157480000D03*
D15*
X88392000Y-153606500D03*
X92837000Y-150622000D03*
X92837000Y-146748500D03*
D16*
X94742000Y-166751000D03*
X94869000Y-162687000D03*
X94869000Y-158242000D03*
X101219000Y-169926000D03*
X108394500Y-160655000D03*
D14*
X95970000Y-142748000D03*
X97070000Y-142748000D03*
X95970000Y-145034000D03*
X97070000Y-145034000D03*
D16*
X99758500Y-161671000D03*
X104076500Y-161925000D03*
X112522000Y-160655000D03*
D17*
X109104000Y-157548000D03*
X106104000Y-157548000D03*
X110104000Y-157548000D03*
X111104000Y-157548000D03*
X112104000Y-157548000D03*
X113104000Y-157548000D03*
X114104000Y-157548000D03*
X115104000Y-157548000D03*
X105104000Y-157548000D03*
X104104000Y-157548000D03*
X103104000Y-157548000D03*
X102104000Y-157548000D03*
X101104000Y-157548000D03*
X100104000Y-157548000D03*
D18*
X116682900Y-155969100D03*
D19*
X98525100Y-155969100D03*
X116682900Y-154969100D03*
X116682900Y-153969100D03*
X116682900Y-152969100D03*
X116682900Y-151969100D03*
X116682900Y-150969100D03*
X116682900Y-149969100D03*
X116682900Y-148969100D03*
X116682900Y-147969100D03*
X98525100Y-154969100D03*
X98525100Y-153969100D03*
X98525100Y-152969100D03*
X98525100Y-151969100D03*
X98525100Y-150969100D03*
X98525100Y-149969100D03*
X98525100Y-148969100D03*
X98525100Y-147969100D03*
D15*
X88773000Y-169989500D03*
M02*
