M48
;DRILL file {KiCad 0.201601221447+6507~42~ubuntu15.10.1-product} date Fri 22 Jan 2016 06:42:13 PM EST
;FORMAT={2:4/ absolute / inch / suppress trailing zeros}
FMAT,2
INCH,LZ
T1C0.024
T2C0.037
T3C0.079
%
G90
G05
M72
T1
X01305Y-02705
X01305Y-0523
X01305Y-07755
X01305Y-1028
X0289Y-02705
X0289Y-0523
X0289Y-07755
X0289Y-1028
X04475Y-02705
X04475Y-0523
X04475Y-07755
X04475Y-1028
X0606Y-02705
X0606Y-0523
X0606Y-07755
X0606Y-1028
T2
X00919Y-026948
X00919Y-052198
X00919Y-077448
X00919Y-102698
X01065Y-02695
X01065Y-0522
X01065Y-07745
X01065Y-1027
X02504Y-026948
X02504Y-052198
X02504Y-077448
X02504Y-102698
X0265Y-02695
X0265Y-0522
X0265Y-07745
X0265Y-1027
X04089Y-026948
X04089Y-052198
X04089Y-077448
X04089Y-102698
X04235Y-02695
X04235Y-0522
X04235Y-07745
X04235Y-1027
X05674Y-026948
X05674Y-052198
X05674Y-077448
X05674Y-102698
X0582Y-02695
X0582Y-0522
X0582Y-07745
X0582Y-1027
T3
X007773Y-023665
X007773Y-048915
X007773Y-074165
X007773Y-099415
X015883Y-012369
X015883Y-037619
X015883Y-062869
X015883Y-088119
X023623Y-023665
X023623Y-048915
X023623Y-074165
X023623Y-099415
X031733Y-012369
X031733Y-037619
X031733Y-062869
X031733Y-088119
X039473Y-023665
X039473Y-048915
X039473Y-074165
X039473Y-099415
X047583Y-012369
X047583Y-037619
X047583Y-062869
X047583Y-088119
X055323Y-023665
X055323Y-048915
X055323Y-074165
X055323Y-099415
X063433Y-012369
X063433Y-037619
X063433Y-062869
X063433Y-088119
T0
M30
