G04 #@! TF.FileFunction,Copper,L2,Inr,Signal*
%FSLAX46Y46*%
G04 Gerber Fmt 4.6, Leading zero omitted, Abs format (unit mm)*
G04 Created by KiCad (PCBNEW 0.201601221447+6507~42~ubuntu15.10.1-product) date Fri 22 Jan 2016 05:48:07 PM EST*
%MOMM*%
G01*
G04 APERTURE LIST*
%ADD10C,0.100000*%
%ADD11R,2.032000X1.727200*%
%ADD12O,2.032000X1.727200*%
%ADD13C,1.680000*%
%ADD14C,1.150000*%
%ADD15C,0.457000*%
%ADD16R,2.032000X2.032000*%
%ADD17O,2.032000X2.032000*%
%ADD18C,1.600000*%
%ADD19C,0.863600*%
%ADD20C,0.685800*%
%ADD21C,0.254000*%
G04 APERTURE END LIST*
D10*
D11*
X126746000Y-129921000D03*
D12*
X126746000Y-127381000D03*
X126746000Y-124841000D03*
D13*
X146304000Y-137922000D03*
X131826000Y-125349000D03*
X138303000Y-119634000D03*
X136525000Y-125730000D03*
X136779000Y-140462000D03*
X140081000Y-140462000D03*
X143002000Y-130048000D03*
D14*
X139953000Y-100076000D03*
X136653000Y-102576000D03*
X136653000Y-97576000D03*
D15*
X144283400Y-109892800D03*
X143283400Y-109892800D03*
X144283400Y-108892800D03*
X143283400Y-108892800D03*
D16*
X126746000Y-136906000D03*
D17*
X126746000Y-134366000D03*
D18*
X137160000Y-90797000D03*
X130810000Y-90797000D03*
D19*
X139567000Y-107639200D03*
X136448800Y-95021400D03*
D20*
X148209000Y-120777000D03*
X139319000Y-147447000D03*
X136906000Y-147320000D03*
X146939000Y-147701000D03*
X143637000Y-147701000D03*
X147574000Y-145542000D03*
X129159000Y-111887000D03*
X130810000Y-113919000D03*
X135636000Y-112395000D03*
X129921000Y-125984000D03*
X130429000Y-128143000D03*
X136398000Y-128143000D03*
X143383000Y-119888000D03*
X131064000Y-133604000D03*
X133477000Y-135255000D03*
X146431000Y-114554000D03*
X137160000Y-123698000D03*
X140208000Y-125857000D03*
X144780000Y-126619000D03*
X135763000Y-132842000D03*
X129235200Y-142214600D03*
X142011400Y-102768400D03*
X143967200Y-102717600D03*
D19*
X153898600Y-126822200D03*
X141605000Y-147574000D03*
X128828800Y-100939600D03*
X144678400Y-141884400D03*
X132537200Y-147497800D03*
D20*
X137033000Y-104267000D03*
X141351000Y-136906000D03*
D19*
X155016200Y-91287600D03*
X132588000Y-105283000D03*
X147828000Y-125476000D03*
D20*
X129159000Y-122301000D03*
X134239000Y-126238000D03*
X141605000Y-123317000D03*
X145542000Y-111760000D03*
X140208000Y-127381000D03*
X157454600Y-117195600D03*
D19*
X140462000Y-144653000D03*
X147370800Y-143078200D03*
X152298400Y-95123000D03*
X146253200Y-123393200D03*
X129032000Y-140843000D03*
D20*
X138049000Y-133985000D03*
X145669000Y-132842000D03*
X142494000Y-132842000D03*
X143256000Y-137287000D03*
X134797800Y-95504000D03*
X146786335Y-121101162D03*
X133934200Y-95504000D03*
X146175679Y-121711818D03*
X145694400Y-107492800D03*
X150114000Y-95123000D03*
X143304518Y-112422682D03*
X153289000Y-91186000D03*
X144018000Y-113919000D03*
X155575000Y-94869000D03*
X156591000Y-102235000D03*
X156718000Y-94869000D03*
X147955000Y-114046000D03*
X154559000Y-105029000D03*
X146474272Y-113643272D03*
X140524520Y-109030673D03*
X141884400Y-107492800D03*
X146456400Y-112776000D03*
X156718000Y-111887000D03*
X134620000Y-121539000D03*
X149860000Y-110490000D03*
X147701000Y-123444000D03*
X147066000Y-111506000D03*
X155448000Y-122301000D03*
X148082000Y-119253000D03*
X154003081Y-120570919D03*
X146939000Y-116332000D03*
X153924000Y-115316000D03*
X154940000Y-113919000D03*
X148082000Y-117856000D03*
D21*
G36*
X129363035Y-90580223D02*
X129390222Y-91150454D01*
X129556136Y-91551005D01*
X129802255Y-91625139D01*
X130630395Y-90797000D01*
X130616252Y-90782858D01*
X130795858Y-90603253D01*
X130810000Y-90617395D01*
X130824143Y-90603253D01*
X131003748Y-90782858D01*
X130989605Y-90797000D01*
X131817745Y-91625139D01*
X132063864Y-91551005D01*
X132256965Y-91013777D01*
X132229778Y-90443546D01*
X132147537Y-90245000D01*
X135833527Y-90245000D01*
X135713035Y-90580223D01*
X135740222Y-91150454D01*
X135906136Y-91551005D01*
X136152255Y-91625139D01*
X136980395Y-90797000D01*
X136966252Y-90782858D01*
X137145858Y-90603253D01*
X137160000Y-90617395D01*
X137174143Y-90603253D01*
X137353748Y-90782858D01*
X137339605Y-90797000D01*
X138167745Y-91625139D01*
X138413864Y-91551005D01*
X138606965Y-91013777D01*
X138579778Y-90443546D01*
X138497537Y-90245000D01*
X153005623Y-90245000D01*
X152735788Y-90356493D01*
X152460460Y-90631341D01*
X152311270Y-90990630D01*
X152310931Y-91379663D01*
X152459493Y-91739212D01*
X152734341Y-92014540D01*
X153093630Y-92163730D01*
X153482663Y-92164069D01*
X153842212Y-92015507D01*
X154117540Y-91740659D01*
X154266730Y-91381370D01*
X154267069Y-90992337D01*
X154118507Y-90632788D01*
X153843659Y-90357460D01*
X153572826Y-90245000D01*
X158802000Y-90245000D01*
X158802000Y-128397000D01*
X148971000Y-128397000D01*
X148922399Y-128406667D01*
X148881197Y-128434197D01*
X148853667Y-128475399D01*
X148844000Y-128524000D01*
X148844000Y-147880000D01*
X125043000Y-147880000D01*
X125043000Y-145503824D01*
X133865808Y-145503824D01*
X134034439Y-145911943D01*
X134346415Y-146224463D01*
X134754239Y-146393807D01*
X135195824Y-146394192D01*
X135603943Y-146225561D01*
X135916463Y-145913585D01*
X136084950Y-145507824D01*
X137573808Y-145507824D01*
X137742439Y-145915943D01*
X138054415Y-146228463D01*
X138462239Y-146397807D01*
X138903824Y-146398192D01*
X139311943Y-146229561D01*
X139624463Y-145917585D01*
X139703120Y-145728157D01*
X143839837Y-145728157D01*
X143982642Y-146073772D01*
X144246837Y-146338429D01*
X144592202Y-146481837D01*
X144966157Y-146482163D01*
X145311772Y-146339358D01*
X145576429Y-146075163D01*
X145719837Y-145729798D01*
X145720163Y-145355843D01*
X145577358Y-145010228D01*
X145313163Y-144745571D01*
X144967798Y-144602163D01*
X144593843Y-144601837D01*
X144248228Y-144744642D01*
X143983571Y-145008837D01*
X143840163Y-145354202D01*
X143839837Y-145728157D01*
X139703120Y-145728157D01*
X139793807Y-145509761D01*
X139793821Y-145493656D01*
X139856917Y-145556862D01*
X140248869Y-145719615D01*
X140673269Y-145719985D01*
X141065504Y-145557916D01*
X141365862Y-145258083D01*
X141528615Y-144866131D01*
X141528985Y-144441731D01*
X141366916Y-144049496D01*
X141067083Y-143749138D01*
X140675131Y-143586385D01*
X140250731Y-143586015D01*
X139858496Y-143748084D01*
X139558138Y-144047917D01*
X139398432Y-144432532D01*
X139313585Y-144347537D01*
X138905761Y-144178193D01*
X138464176Y-144177808D01*
X138056057Y-144346439D01*
X137743537Y-144658415D01*
X137574193Y-145066239D01*
X137573808Y-145507824D01*
X136084950Y-145507824D01*
X136085807Y-145505761D01*
X136086192Y-145064176D01*
X135917561Y-144656057D01*
X135605585Y-144343537D01*
X135197761Y-144174193D01*
X134756176Y-144173808D01*
X134348057Y-144342439D01*
X134035537Y-144654415D01*
X133866193Y-145062239D01*
X133865808Y-145503824D01*
X125043000Y-145503824D01*
X125043000Y-143289469D01*
X146303815Y-143289469D01*
X146465884Y-143681704D01*
X146765717Y-143982062D01*
X147157669Y-144144815D01*
X147582069Y-144145185D01*
X147974304Y-143983116D01*
X148274662Y-143683283D01*
X148437415Y-143291331D01*
X148437785Y-142866931D01*
X148275716Y-142474696D01*
X147975883Y-142174338D01*
X147583931Y-142011585D01*
X147159531Y-142011215D01*
X146767296Y-142173284D01*
X146466938Y-142473117D01*
X146304185Y-142865069D01*
X146303815Y-143289469D01*
X125043000Y-143289469D01*
X125043000Y-141054269D01*
X127965015Y-141054269D01*
X128127084Y-141446504D01*
X128426917Y-141746862D01*
X128818869Y-141909615D01*
X129243269Y-141909985D01*
X129635504Y-141747916D01*
X129935862Y-141448083D01*
X130098615Y-141056131D01*
X130098878Y-140754108D01*
X135303744Y-140754108D01*
X135527827Y-141296429D01*
X135942389Y-141711715D01*
X136484317Y-141936743D01*
X137071108Y-141937256D01*
X137613429Y-141713173D01*
X138028715Y-141298611D01*
X138253743Y-140756683D01*
X138253745Y-140754108D01*
X138605744Y-140754108D01*
X138829827Y-141296429D01*
X139244389Y-141711715D01*
X139786317Y-141936743D01*
X140373108Y-141937256D01*
X140915429Y-141713173D01*
X141330715Y-141298611D01*
X141555743Y-140756683D01*
X141556256Y-140169892D01*
X141332173Y-139627571D01*
X140917611Y-139212285D01*
X140375683Y-138987257D01*
X139788892Y-138986744D01*
X139246571Y-139210827D01*
X138831285Y-139625389D01*
X138606257Y-140167317D01*
X138605744Y-140754108D01*
X138253745Y-140754108D01*
X138254256Y-140169892D01*
X138030173Y-139627571D01*
X137615611Y-139212285D01*
X137073683Y-138987257D01*
X136486892Y-138986744D01*
X135944571Y-139210827D01*
X135529285Y-139625389D01*
X135304257Y-140167317D01*
X135303744Y-140754108D01*
X130098878Y-140754108D01*
X130098985Y-140631731D01*
X129936916Y-140239496D01*
X129637083Y-139939138D01*
X129245131Y-139776385D01*
X128820731Y-139776015D01*
X128428496Y-139938084D01*
X128128138Y-140237917D01*
X127965385Y-140629869D01*
X127965015Y-141054269D01*
X125043000Y-141054269D01*
X125043000Y-137191750D01*
X125095000Y-137191750D01*
X125095000Y-138048310D01*
X125191673Y-138281699D01*
X125370302Y-138460327D01*
X125603691Y-138557000D01*
X126460250Y-138557000D01*
X126619000Y-138398250D01*
X126619000Y-137033000D01*
X126873000Y-137033000D01*
X126873000Y-138398250D01*
X127031750Y-138557000D01*
X127888309Y-138557000D01*
X128121698Y-138460327D01*
X128300327Y-138281699D01*
X128397000Y-138048310D01*
X128397000Y-137266795D01*
X129740716Y-137266795D01*
X129989106Y-137867943D01*
X130448637Y-138328278D01*
X131049352Y-138577716D01*
X131699795Y-138578284D01*
X132300943Y-138329894D01*
X132761278Y-137870363D01*
X132923095Y-137480663D01*
X142277931Y-137480663D01*
X142426493Y-137840212D01*
X142701341Y-138115540D01*
X143060630Y-138264730D01*
X143449663Y-138265069D01*
X143572998Y-138214108D01*
X144828744Y-138214108D01*
X145052827Y-138756429D01*
X145467389Y-139171715D01*
X146009317Y-139396743D01*
X146596108Y-139397256D01*
X147138429Y-139173173D01*
X147553715Y-138758611D01*
X147778743Y-138216683D01*
X147779256Y-137629892D01*
X147555173Y-137087571D01*
X147140611Y-136672285D01*
X146598683Y-136447257D01*
X146011892Y-136446744D01*
X145469571Y-136670827D01*
X145054285Y-137085389D01*
X144829257Y-137627317D01*
X144828744Y-138214108D01*
X143572998Y-138214108D01*
X143809212Y-138116507D01*
X144084540Y-137841659D01*
X144233730Y-137482370D01*
X144234069Y-137093337D01*
X144085507Y-136733788D01*
X143810659Y-136458460D01*
X143451370Y-136309270D01*
X143062337Y-136308931D01*
X142702788Y-136457493D01*
X142427460Y-136732341D01*
X142278270Y-137091630D01*
X142277931Y-137480663D01*
X132923095Y-137480663D01*
X133010716Y-137269648D01*
X133011284Y-136619205D01*
X132762894Y-136018057D01*
X132303363Y-135557722D01*
X131702648Y-135308284D01*
X131052205Y-135307716D01*
X130451057Y-135556106D01*
X129990722Y-136015637D01*
X129741284Y-136616352D01*
X129740716Y-137266795D01*
X128397000Y-137266795D01*
X128397000Y-137191750D01*
X128238250Y-137033000D01*
X126873000Y-137033000D01*
X126619000Y-137033000D01*
X125253750Y-137033000D01*
X125095000Y-137191750D01*
X125043000Y-137191750D01*
X125043000Y-134366000D01*
X125062655Y-134366000D01*
X125188330Y-134997810D01*
X125412966Y-135334001D01*
X125370302Y-135351673D01*
X125191673Y-135530301D01*
X125095000Y-135763690D01*
X125095000Y-136620250D01*
X125253750Y-136779000D01*
X126619000Y-136779000D01*
X126619000Y-136759000D01*
X126873000Y-136759000D01*
X126873000Y-136779000D01*
X128238250Y-136779000D01*
X128397000Y-136620250D01*
X128397000Y-135763690D01*
X128300327Y-135530301D01*
X128121698Y-135351673D01*
X128079034Y-135334001D01*
X128303670Y-134997810D01*
X128429345Y-134366000D01*
X128392082Y-134178663D01*
X137070931Y-134178663D01*
X137219493Y-134538212D01*
X137494341Y-134813540D01*
X137853630Y-134962730D01*
X138242663Y-134963069D01*
X138602212Y-134814507D01*
X138877540Y-134539659D01*
X139026730Y-134180370D01*
X139027069Y-133791337D01*
X138878507Y-133431788D01*
X138603659Y-133156460D01*
X138312748Y-133035663D01*
X141515931Y-133035663D01*
X141664493Y-133395212D01*
X141939341Y-133670540D01*
X142298630Y-133819730D01*
X142687663Y-133820069D01*
X143047212Y-133671507D01*
X143322540Y-133396659D01*
X143471730Y-133037370D01*
X143471731Y-133035663D01*
X144690931Y-133035663D01*
X144839493Y-133395212D01*
X145114341Y-133670540D01*
X145473630Y-133819730D01*
X145862663Y-133820069D01*
X146222212Y-133671507D01*
X146497540Y-133396659D01*
X146646730Y-133037370D01*
X146647069Y-132648337D01*
X146498507Y-132288788D01*
X146223659Y-132013460D01*
X145864370Y-131864270D01*
X145475337Y-131863931D01*
X145115788Y-132012493D01*
X144840460Y-132287341D01*
X144691270Y-132646630D01*
X144690931Y-133035663D01*
X143471731Y-133035663D01*
X143472069Y-132648337D01*
X143323507Y-132288788D01*
X143048659Y-132013460D01*
X142689370Y-131864270D01*
X142300337Y-131863931D01*
X141940788Y-132012493D01*
X141665460Y-132287341D01*
X141516270Y-132646630D01*
X141515931Y-133035663D01*
X138312748Y-133035663D01*
X138244370Y-133007270D01*
X137855337Y-133006931D01*
X137495788Y-133155493D01*
X137220460Y-133430341D01*
X137071270Y-133789630D01*
X137070931Y-134178663D01*
X128392082Y-134178663D01*
X128303670Y-133734190D01*
X127945778Y-133198567D01*
X127410155Y-132840675D01*
X126778345Y-132715000D01*
X126713655Y-132715000D01*
X126081845Y-132840675D01*
X125546222Y-133198567D01*
X125188330Y-133734190D01*
X125062655Y-134366000D01*
X125043000Y-134366000D01*
X125043000Y-130206750D01*
X125095000Y-130206750D01*
X125095000Y-130910910D01*
X125191673Y-131144299D01*
X125370302Y-131322927D01*
X125603691Y-131419600D01*
X126460250Y-131419600D01*
X126619000Y-131260850D01*
X126619000Y-130048000D01*
X126873000Y-130048000D01*
X126873000Y-131260850D01*
X127031750Y-131419600D01*
X127888309Y-131419600D01*
X128121698Y-131322927D01*
X128300327Y-131144299D01*
X128397000Y-130910910D01*
X128397000Y-130340108D01*
X141526744Y-130340108D01*
X141750827Y-130882429D01*
X142165389Y-131297715D01*
X142707317Y-131522743D01*
X143294108Y-131523256D01*
X143836429Y-131299173D01*
X144251715Y-130884611D01*
X144476743Y-130342683D01*
X144477256Y-129755892D01*
X144253173Y-129213571D01*
X143838611Y-128798285D01*
X143296683Y-128573257D01*
X142709892Y-128572744D01*
X142167571Y-128796827D01*
X141752285Y-129211389D01*
X141527257Y-129753317D01*
X141526744Y-130340108D01*
X128397000Y-130340108D01*
X128397000Y-130206750D01*
X128238250Y-130048000D01*
X126873000Y-130048000D01*
X126619000Y-130048000D01*
X125253750Y-130048000D01*
X125095000Y-130206750D01*
X125043000Y-130206750D01*
X125043000Y-124841000D01*
X125062655Y-124841000D01*
X125176729Y-125414489D01*
X125501585Y-125900670D01*
X125816366Y-126111000D01*
X125501585Y-126321330D01*
X125176729Y-126807511D01*
X125062655Y-127381000D01*
X125176729Y-127954489D01*
X125501585Y-128440670D01*
X125523780Y-128455500D01*
X125370302Y-128519073D01*
X125191673Y-128697701D01*
X125095000Y-128931090D01*
X125095000Y-129635250D01*
X125253750Y-129794000D01*
X126619000Y-129794000D01*
X126619000Y-129774000D01*
X126873000Y-129774000D01*
X126873000Y-129794000D01*
X128238250Y-129794000D01*
X128397000Y-129635250D01*
X128397000Y-128931090D01*
X128300327Y-128697701D01*
X128121698Y-128519073D01*
X127968220Y-128455500D01*
X127990415Y-128440670D01*
X128315271Y-127954489D01*
X128390823Y-127574663D01*
X139229931Y-127574663D01*
X139378493Y-127934212D01*
X139653341Y-128209540D01*
X140012630Y-128358730D01*
X140401663Y-128359069D01*
X140761212Y-128210507D01*
X141036540Y-127935659D01*
X141185730Y-127576370D01*
X141186069Y-127187337D01*
X141037507Y-126827788D01*
X140762659Y-126552460D01*
X140403370Y-126403270D01*
X140014337Y-126402931D01*
X139654788Y-126551493D01*
X139379460Y-126826341D01*
X139230270Y-127185630D01*
X139229931Y-127574663D01*
X128390823Y-127574663D01*
X128429345Y-127381000D01*
X128315271Y-126807511D01*
X127990415Y-126321330D01*
X127675634Y-126111000D01*
X127990415Y-125900670D01*
X128163848Y-125641108D01*
X130350744Y-125641108D01*
X130574827Y-126183429D01*
X130989389Y-126598715D01*
X131531317Y-126823743D01*
X132118108Y-126824256D01*
X132660429Y-126600173D01*
X132829233Y-126431663D01*
X133260931Y-126431663D01*
X133409493Y-126791212D01*
X133684341Y-127066540D01*
X134043630Y-127215730D01*
X134432663Y-127216069D01*
X134792212Y-127067507D01*
X135067540Y-126792659D01*
X135216730Y-126433370D01*
X135216736Y-126426259D01*
X135273827Y-126564429D01*
X135688389Y-126979715D01*
X136230317Y-127204743D01*
X136817108Y-127205256D01*
X137359429Y-126981173D01*
X137774715Y-126566611D01*
X137999743Y-126024683D01*
X138000256Y-125437892D01*
X137776173Y-124895571D01*
X137361611Y-124480285D01*
X136819683Y-124255257D01*
X136232892Y-124254744D01*
X135690571Y-124478827D01*
X135275285Y-124893389D01*
X135050257Y-125435317D01*
X135050055Y-125666304D01*
X134793659Y-125409460D01*
X134434370Y-125260270D01*
X134045337Y-125259931D01*
X133685788Y-125408493D01*
X133410460Y-125683341D01*
X133261270Y-126042630D01*
X133260931Y-126431663D01*
X132829233Y-126431663D01*
X133075715Y-126185611D01*
X133300743Y-125643683D01*
X133301256Y-125056892D01*
X133077173Y-124514571D01*
X132662611Y-124099285D01*
X132120683Y-123874257D01*
X131533892Y-123873744D01*
X130991571Y-124097827D01*
X130576285Y-124512389D01*
X130351257Y-125054317D01*
X130350744Y-125641108D01*
X128163848Y-125641108D01*
X128315271Y-125414489D01*
X128429345Y-124841000D01*
X128315271Y-124267511D01*
X127990415Y-123781330D01*
X127585334Y-123510663D01*
X140626931Y-123510663D01*
X140775493Y-123870212D01*
X141050341Y-124145540D01*
X141409630Y-124294730D01*
X141798663Y-124295069D01*
X142158212Y-124146507D01*
X142433540Y-123871659D01*
X142544487Y-123604469D01*
X145186215Y-123604469D01*
X145348284Y-123996704D01*
X145648117Y-124297062D01*
X146040069Y-124459815D01*
X146464469Y-124460185D01*
X146856704Y-124298116D01*
X147014564Y-124140532D01*
X147146341Y-124272540D01*
X147505630Y-124421730D01*
X147585789Y-124421800D01*
X147224496Y-124571084D01*
X146924138Y-124870917D01*
X146761385Y-125262869D01*
X146761015Y-125687269D01*
X146923084Y-126079504D01*
X147222917Y-126379862D01*
X147614869Y-126542615D01*
X148039269Y-126542985D01*
X148431504Y-126380916D01*
X148731862Y-126081083D01*
X148894615Y-125689131D01*
X148894985Y-125264731D01*
X148732916Y-124872496D01*
X148433083Y-124572138D01*
X148041131Y-124409385D01*
X147925605Y-124409284D01*
X148254212Y-124273507D01*
X148529540Y-123998659D01*
X148678730Y-123639370D01*
X148679069Y-123250337D01*
X148530507Y-122890788D01*
X148255659Y-122615460D01*
X147964748Y-122494663D01*
X154469931Y-122494663D01*
X154618493Y-122854212D01*
X154893341Y-123129540D01*
X155252630Y-123278730D01*
X155641663Y-123279069D01*
X156001212Y-123130507D01*
X156276540Y-122855659D01*
X156425730Y-122496370D01*
X156426069Y-122107337D01*
X156277507Y-121747788D01*
X156002659Y-121472460D01*
X155643370Y-121323270D01*
X155254337Y-121322931D01*
X154894788Y-121471493D01*
X154619460Y-121746341D01*
X154470270Y-122105630D01*
X154469931Y-122494663D01*
X147964748Y-122494663D01*
X147896370Y-122466270D01*
X147507337Y-122465931D01*
X147147788Y-122614493D01*
X147065360Y-122696777D01*
X146858283Y-122489338D01*
X146803681Y-122466665D01*
X147004219Y-122266477D01*
X147103089Y-122028371D01*
X147339547Y-121930669D01*
X147614875Y-121655821D01*
X147641214Y-121592390D01*
X147654341Y-121605540D01*
X148013630Y-121754730D01*
X148402663Y-121755069D01*
X148762212Y-121606507D01*
X149037540Y-121331659D01*
X149186730Y-120972370D01*
X149186911Y-120764582D01*
X153025012Y-120764582D01*
X153173574Y-121124131D01*
X153448422Y-121399459D01*
X153807711Y-121548649D01*
X154196744Y-121548988D01*
X154556293Y-121400426D01*
X154831621Y-121125578D01*
X154980811Y-120766289D01*
X154981150Y-120377256D01*
X154832588Y-120017707D01*
X154557740Y-119742379D01*
X154198451Y-119593189D01*
X153809418Y-119592850D01*
X153449869Y-119741412D01*
X153174541Y-120016260D01*
X153025351Y-120375549D01*
X153025012Y-120764582D01*
X149186911Y-120764582D01*
X149187069Y-120583337D01*
X149038507Y-120223788D01*
X148766571Y-119951377D01*
X148910540Y-119807659D01*
X149059730Y-119448370D01*
X149060069Y-119059337D01*
X148911507Y-118699788D01*
X148766460Y-118554488D01*
X148910540Y-118410659D01*
X149059730Y-118051370D01*
X149060069Y-117662337D01*
X148947238Y-117389263D01*
X156476531Y-117389263D01*
X156625093Y-117748812D01*
X156899941Y-118024140D01*
X157259230Y-118173330D01*
X157648263Y-118173669D01*
X158007812Y-118025107D01*
X158283140Y-117750259D01*
X158432330Y-117390970D01*
X158432669Y-117001937D01*
X158284107Y-116642388D01*
X158009259Y-116367060D01*
X157649970Y-116217870D01*
X157260937Y-116217531D01*
X156901388Y-116366093D01*
X156626060Y-116640941D01*
X156476870Y-117000230D01*
X156476531Y-117389263D01*
X148947238Y-117389263D01*
X148911507Y-117302788D01*
X148636659Y-117027460D01*
X148277370Y-116878270D01*
X147888337Y-116877931D01*
X147697148Y-116956928D01*
X147767540Y-116886659D01*
X147916730Y-116527370D01*
X147917069Y-116138337D01*
X147768507Y-115778788D01*
X147499852Y-115509663D01*
X152945931Y-115509663D01*
X153094493Y-115869212D01*
X153369341Y-116144540D01*
X153728630Y-116293730D01*
X154117663Y-116294069D01*
X154477212Y-116145507D01*
X154752540Y-115870659D01*
X154901730Y-115511370D01*
X154902069Y-115122337D01*
X154808874Y-114896786D01*
X155133663Y-114897069D01*
X155493212Y-114748507D01*
X155768540Y-114473659D01*
X155917730Y-114114370D01*
X155918069Y-113725337D01*
X155769507Y-113365788D01*
X155494659Y-113090460D01*
X155135370Y-112941270D01*
X154746337Y-112940931D01*
X154386788Y-113089493D01*
X154111460Y-113364341D01*
X153962270Y-113723630D01*
X153961931Y-114112663D01*
X154055126Y-114338214D01*
X153730337Y-114337931D01*
X153370788Y-114486493D01*
X153095460Y-114761341D01*
X152946270Y-115120630D01*
X152945931Y-115509663D01*
X147499852Y-115509663D01*
X147493659Y-115503460D01*
X147134370Y-115354270D01*
X146745337Y-115353931D01*
X146385788Y-115502493D01*
X146110460Y-115777341D01*
X145961270Y-116136630D01*
X145960931Y-116525663D01*
X146109493Y-116885212D01*
X146384341Y-117160540D01*
X146743630Y-117309730D01*
X147132663Y-117310069D01*
X147323852Y-117231072D01*
X147253460Y-117301341D01*
X147104270Y-117660630D01*
X147103931Y-118049663D01*
X147252493Y-118409212D01*
X147397540Y-118554512D01*
X147253460Y-118698341D01*
X147104270Y-119057630D01*
X147103931Y-119446663D01*
X147252493Y-119806212D01*
X147524429Y-120078623D01*
X147380460Y-120222341D01*
X147354121Y-120285772D01*
X147340994Y-120272622D01*
X146981705Y-120123432D01*
X146592672Y-120123093D01*
X146233123Y-120271655D01*
X145957795Y-120546503D01*
X145858925Y-120784609D01*
X145622467Y-120882311D01*
X145347139Y-121157159D01*
X145197949Y-121516448D01*
X145197610Y-121905481D01*
X145346172Y-122265030D01*
X145609296Y-122528613D01*
X145349338Y-122788117D01*
X145186585Y-123180069D01*
X145186215Y-123604469D01*
X142544487Y-123604469D01*
X142582730Y-123512370D01*
X142583069Y-123123337D01*
X142434507Y-122763788D01*
X142159659Y-122488460D01*
X141800370Y-122339270D01*
X141411337Y-122338931D01*
X141051788Y-122487493D01*
X140776460Y-122762341D01*
X140627270Y-123121630D01*
X140626931Y-123510663D01*
X127585334Y-123510663D01*
X127504234Y-123456474D01*
X126930745Y-123342400D01*
X126561255Y-123342400D01*
X125987766Y-123456474D01*
X125501585Y-123781330D01*
X125176729Y-124267511D01*
X125062655Y-124841000D01*
X125043000Y-124841000D01*
X125043000Y-122494663D01*
X128180931Y-122494663D01*
X128329493Y-122854212D01*
X128604341Y-123129540D01*
X128963630Y-123278730D01*
X129352663Y-123279069D01*
X129712212Y-123130507D01*
X129987540Y-122855659D01*
X130136730Y-122496370D01*
X130137069Y-122107337D01*
X129988507Y-121747788D01*
X129973409Y-121732663D01*
X133641931Y-121732663D01*
X133790493Y-122092212D01*
X134065341Y-122367540D01*
X134424630Y-122516730D01*
X134813663Y-122517069D01*
X135173212Y-122368507D01*
X135448540Y-122093659D01*
X135597730Y-121734370D01*
X135598069Y-121345337D01*
X135449507Y-120985788D01*
X135174659Y-120710460D01*
X134815370Y-120561270D01*
X134426337Y-120560931D01*
X134066788Y-120709493D01*
X133791460Y-120984341D01*
X133642270Y-121343630D01*
X133641931Y-121732663D01*
X129973409Y-121732663D01*
X129713659Y-121472460D01*
X129354370Y-121323270D01*
X128965337Y-121322931D01*
X128605788Y-121471493D01*
X128330460Y-121746341D01*
X128181270Y-122105630D01*
X128180931Y-122494663D01*
X125043000Y-122494663D01*
X125043000Y-119926108D01*
X136827744Y-119926108D01*
X137051827Y-120468429D01*
X137466389Y-120883715D01*
X138008317Y-121108743D01*
X138595108Y-121109256D01*
X139137429Y-120885173D01*
X139552715Y-120470611D01*
X139777743Y-119928683D01*
X139778256Y-119341892D01*
X139554173Y-118799571D01*
X139139611Y-118384285D01*
X138597683Y-118159257D01*
X138010892Y-118158744D01*
X137468571Y-118382827D01*
X137053285Y-118797389D01*
X136828257Y-119339317D01*
X136827744Y-119926108D01*
X125043000Y-119926108D01*
X125043000Y-112616345D01*
X142326449Y-112616345D01*
X142475011Y-112975894D01*
X142749859Y-113251222D01*
X143109148Y-113400412D01*
X143174458Y-113400469D01*
X143040270Y-113723630D01*
X143039931Y-114112663D01*
X143188493Y-114472212D01*
X143463341Y-114747540D01*
X143822630Y-114896730D01*
X144211663Y-114897069D01*
X144571212Y-114748507D01*
X144846540Y-114473659D01*
X144995730Y-114114370D01*
X144996069Y-113725337D01*
X144847507Y-113365788D01*
X144572659Y-113090460D01*
X144213370Y-112941270D01*
X144148060Y-112941213D01*
X144282248Y-112618052D01*
X144282587Y-112229019D01*
X144168813Y-111953663D01*
X144563931Y-111953663D01*
X144712493Y-112313212D01*
X144987341Y-112588540D01*
X145346630Y-112737730D01*
X145478533Y-112737845D01*
X145478331Y-112969663D01*
X145586460Y-113231356D01*
X145496542Y-113447902D01*
X145496203Y-113836935D01*
X145644765Y-114196484D01*
X145919613Y-114471812D01*
X146278902Y-114621002D01*
X146667935Y-114621341D01*
X147027484Y-114472779D01*
X147059887Y-114440433D01*
X147125493Y-114599212D01*
X147400341Y-114874540D01*
X147759630Y-115023730D01*
X148148663Y-115024069D01*
X148508212Y-114875507D01*
X148783540Y-114600659D01*
X148932730Y-114241370D01*
X148933069Y-113852337D01*
X148784507Y-113492788D01*
X148509659Y-113217460D01*
X148150370Y-113068270D01*
X147761337Y-113067931D01*
X147401788Y-113216493D01*
X147369385Y-113248839D01*
X147344212Y-113187916D01*
X147434130Y-112971370D01*
X147434469Y-112582337D01*
X147374295Y-112436704D01*
X147619212Y-112335507D01*
X147874501Y-112080663D01*
X155739931Y-112080663D01*
X155888493Y-112440212D01*
X156163341Y-112715540D01*
X156522630Y-112864730D01*
X156911663Y-112865069D01*
X157271212Y-112716507D01*
X157546540Y-112441659D01*
X157695730Y-112082370D01*
X157696069Y-111693337D01*
X157547507Y-111333788D01*
X157272659Y-111058460D01*
X156913370Y-110909270D01*
X156524337Y-110908931D01*
X156164788Y-111057493D01*
X155889460Y-111332341D01*
X155740270Y-111691630D01*
X155739931Y-112080663D01*
X147874501Y-112080663D01*
X147894540Y-112060659D01*
X148043730Y-111701370D01*
X148044069Y-111312337D01*
X147895507Y-110952788D01*
X147626852Y-110683663D01*
X148881931Y-110683663D01*
X149030493Y-111043212D01*
X149305341Y-111318540D01*
X149664630Y-111467730D01*
X150053663Y-111468069D01*
X150413212Y-111319507D01*
X150688540Y-111044659D01*
X150837730Y-110685370D01*
X150838069Y-110296337D01*
X150689507Y-109936788D01*
X150414659Y-109661460D01*
X150055370Y-109512270D01*
X149666337Y-109511931D01*
X149306788Y-109660493D01*
X149031460Y-109935341D01*
X148882270Y-110294630D01*
X148881931Y-110683663D01*
X147626852Y-110683663D01*
X147620659Y-110677460D01*
X147261370Y-110528270D01*
X146872337Y-110527931D01*
X146512788Y-110676493D01*
X146237460Y-110951341D01*
X146201928Y-111036912D01*
X146096659Y-110931460D01*
X145737370Y-110782270D01*
X145348337Y-110781931D01*
X144988788Y-110930493D01*
X144713460Y-111205341D01*
X144564270Y-111564630D01*
X144563931Y-111953663D01*
X144168813Y-111953663D01*
X144134025Y-111869470D01*
X143859177Y-111594142D01*
X143499888Y-111444952D01*
X143110855Y-111444613D01*
X142751306Y-111593175D01*
X142475978Y-111868023D01*
X142326788Y-112227312D01*
X142326449Y-112616345D01*
X125043000Y-112616345D01*
X125043000Y-107850469D01*
X138500015Y-107850469D01*
X138662084Y-108242704D01*
X138961917Y-108543062D01*
X139353869Y-108705815D01*
X139600469Y-108706030D01*
X139546790Y-108835303D01*
X139546451Y-109224336D01*
X139695013Y-109583885D01*
X139969861Y-109859213D01*
X140329150Y-110008403D01*
X140718183Y-110008742D01*
X141077732Y-109860180D01*
X141353060Y-109585332D01*
X141502250Y-109226043D01*
X141502589Y-108837010D01*
X141487339Y-108800101D01*
X142407876Y-108800101D01*
X142439047Y-109142206D01*
X142509996Y-109313491D01*
X142619744Y-109314876D01*
X142572806Y-109361814D01*
X142603792Y-109392800D01*
X142572806Y-109423786D01*
X142619744Y-109470724D01*
X142509996Y-109472109D01*
X142407876Y-109800101D01*
X142439047Y-110142206D01*
X142509996Y-110313491D01*
X142698753Y-110315873D01*
X143121826Y-109892800D01*
X143098668Y-109869642D01*
X143200917Y-109767393D01*
X143352107Y-109753617D01*
X143408807Y-109810317D01*
X143422583Y-109961507D01*
X143306558Y-110077532D01*
X143283400Y-110054374D01*
X142860327Y-110477447D01*
X142862709Y-110666204D01*
X143190701Y-110768324D01*
X143532806Y-110737153D01*
X143704091Y-110666204D01*
X143705476Y-110556456D01*
X143752414Y-110603394D01*
X143783400Y-110572408D01*
X143814386Y-110603394D01*
X143861324Y-110556456D01*
X143862709Y-110666204D01*
X144190701Y-110768324D01*
X144532806Y-110737153D01*
X144704091Y-110666204D01*
X144706473Y-110477447D01*
X144283400Y-110054374D01*
X144260242Y-110077532D01*
X144157993Y-109975283D01*
X144144217Y-109824093D01*
X144200917Y-109767393D01*
X144352107Y-109753617D01*
X144468132Y-109869642D01*
X144444974Y-109892800D01*
X144868047Y-110315873D01*
X145056804Y-110313491D01*
X145158924Y-109985499D01*
X145127753Y-109643394D01*
X145056804Y-109472109D01*
X144947056Y-109470724D01*
X144993994Y-109423786D01*
X144963008Y-109392800D01*
X144993994Y-109361814D01*
X144947056Y-109314876D01*
X145056804Y-109313491D01*
X145158924Y-108985499D01*
X145127753Y-108643394D01*
X145100167Y-108576795D01*
X150340716Y-108576795D01*
X150589106Y-109177943D01*
X151048637Y-109638278D01*
X151649352Y-109887716D01*
X152299795Y-109888284D01*
X152900943Y-109639894D01*
X153361278Y-109180363D01*
X153610716Y-108579648D01*
X153611284Y-107929205D01*
X153362894Y-107328057D01*
X152903363Y-106867722D01*
X152302648Y-106618284D01*
X151652205Y-106617716D01*
X151051057Y-106866106D01*
X150590722Y-107325637D01*
X150341284Y-107926352D01*
X150340716Y-108576795D01*
X145100167Y-108576795D01*
X145056804Y-108472109D01*
X144868047Y-108469727D01*
X144444974Y-108892800D01*
X144468132Y-108915958D01*
X144365883Y-109018207D01*
X144214693Y-109031983D01*
X144157993Y-108975283D01*
X144144217Y-108824093D01*
X144260242Y-108708068D01*
X144283400Y-108731226D01*
X144706473Y-108308153D01*
X144704091Y-108119396D01*
X144376099Y-108017276D01*
X144033994Y-108048447D01*
X143862709Y-108119396D01*
X143861324Y-108229144D01*
X143814386Y-108182206D01*
X143783400Y-108213192D01*
X143752414Y-108182206D01*
X143705476Y-108229144D01*
X143704091Y-108119396D01*
X143376099Y-108017276D01*
X143033994Y-108048447D01*
X142862709Y-108119396D01*
X142860327Y-108308153D01*
X143283400Y-108731226D01*
X143306558Y-108708068D01*
X143408807Y-108810317D01*
X143422583Y-108961507D01*
X143365883Y-109018207D01*
X143214693Y-109031983D01*
X143098668Y-108915958D01*
X143121826Y-108892800D01*
X142698753Y-108469727D01*
X142509996Y-108472109D01*
X142407876Y-108800101D01*
X141487339Y-108800101D01*
X141354027Y-108477461D01*
X141079179Y-108202133D01*
X140719890Y-108052943D01*
X140550375Y-108052795D01*
X140633615Y-107852331D01*
X140633759Y-107686463D01*
X140906331Y-107686463D01*
X141054893Y-108046012D01*
X141329741Y-108321340D01*
X141689030Y-108470530D01*
X142078063Y-108470869D01*
X142437612Y-108322307D01*
X142712940Y-108047459D01*
X142862130Y-107688170D01*
X142862131Y-107686463D01*
X144716331Y-107686463D01*
X144864893Y-108046012D01*
X145139741Y-108321340D01*
X145499030Y-108470530D01*
X145888063Y-108470869D01*
X146247612Y-108322307D01*
X146522940Y-108047459D01*
X146672130Y-107688170D01*
X146672469Y-107299137D01*
X146523907Y-106939588D01*
X146249059Y-106664260D01*
X145889770Y-106515070D01*
X145500737Y-106514731D01*
X145141188Y-106663293D01*
X144865860Y-106938141D01*
X144716670Y-107297430D01*
X144716331Y-107686463D01*
X142862131Y-107686463D01*
X142862469Y-107299137D01*
X142713907Y-106939588D01*
X142439059Y-106664260D01*
X142079770Y-106515070D01*
X141690737Y-106514731D01*
X141331188Y-106663293D01*
X141055860Y-106938141D01*
X140906670Y-107297430D01*
X140906331Y-107686463D01*
X140633759Y-107686463D01*
X140633985Y-107427931D01*
X140471916Y-107035696D01*
X140172083Y-106735338D01*
X139780131Y-106572585D01*
X139355731Y-106572215D01*
X138963496Y-106734284D01*
X138663138Y-107034117D01*
X138500385Y-107426069D01*
X138500015Y-107850469D01*
X125043000Y-107850469D01*
X125043000Y-105494269D01*
X131521015Y-105494269D01*
X131683084Y-105886504D01*
X131982917Y-106186862D01*
X132374869Y-106349615D01*
X132799269Y-106349985D01*
X133191504Y-106187916D01*
X133491862Y-105888083D01*
X133654615Y-105496131D01*
X133654853Y-105222663D01*
X153580931Y-105222663D01*
X153729493Y-105582212D01*
X154004341Y-105857540D01*
X154363630Y-106006730D01*
X154752663Y-106007069D01*
X155112212Y-105858507D01*
X155387540Y-105583659D01*
X155536730Y-105224370D01*
X155537069Y-104835337D01*
X155388507Y-104475788D01*
X155113659Y-104200460D01*
X154754370Y-104051270D01*
X154365337Y-104050931D01*
X154005788Y-104199493D01*
X153730460Y-104474341D01*
X153581270Y-104833630D01*
X153580931Y-105222663D01*
X133654853Y-105222663D01*
X133654985Y-105071731D01*
X133492916Y-104679496D01*
X133193083Y-104379138D01*
X132801131Y-104216385D01*
X132376731Y-104216015D01*
X131984496Y-104378084D01*
X131684138Y-104677917D01*
X131521385Y-105069869D01*
X131521015Y-105494269D01*
X125043000Y-105494269D01*
X125043000Y-102815628D01*
X135442791Y-102815628D01*
X135626614Y-103260514D01*
X135966695Y-103601190D01*
X136411260Y-103785789D01*
X136892628Y-103786209D01*
X137337514Y-103602386D01*
X137678190Y-103262305D01*
X137862789Y-102817740D01*
X137863128Y-102428663D01*
X155612931Y-102428663D01*
X155761493Y-102788212D01*
X156036341Y-103063540D01*
X156395630Y-103212730D01*
X156784663Y-103213069D01*
X157144212Y-103064507D01*
X157419540Y-102789659D01*
X157568730Y-102430370D01*
X157569069Y-102041337D01*
X157420507Y-101681788D01*
X157145659Y-101406460D01*
X156786370Y-101257270D01*
X156397337Y-101256931D01*
X156037788Y-101405493D01*
X155762460Y-101680341D01*
X155613270Y-102039630D01*
X155612931Y-102428663D01*
X137863128Y-102428663D01*
X137863209Y-102336372D01*
X137679386Y-101891486D01*
X137339305Y-101550810D01*
X136894740Y-101366211D01*
X136413372Y-101365791D01*
X135968486Y-101549614D01*
X135627810Y-101889695D01*
X135443211Y-102334260D01*
X135442791Y-102815628D01*
X125043000Y-102815628D01*
X125043000Y-100315628D01*
X138742791Y-100315628D01*
X138926614Y-100760514D01*
X139266695Y-101101190D01*
X139711260Y-101285789D01*
X140192628Y-101286209D01*
X140637514Y-101102386D01*
X140978190Y-100762305D01*
X141162789Y-100317740D01*
X141163209Y-99836372D01*
X140979386Y-99391486D01*
X140639305Y-99050810D01*
X140194740Y-98866211D01*
X139713372Y-98865791D01*
X139268486Y-99049614D01*
X138927810Y-99389695D01*
X138743211Y-99834260D01*
X138742791Y-100315628D01*
X125043000Y-100315628D01*
X125043000Y-97815628D01*
X135442791Y-97815628D01*
X135626614Y-98260514D01*
X135966695Y-98601190D01*
X136411260Y-98785789D01*
X136892628Y-98786209D01*
X137337514Y-98602386D01*
X137678190Y-98262305D01*
X137862789Y-97817740D01*
X137863209Y-97336372D01*
X137679386Y-96891486D01*
X137339305Y-96550810D01*
X136894740Y-96366211D01*
X136413372Y-96365791D01*
X135968486Y-96549614D01*
X135627810Y-96889695D01*
X135443211Y-97334260D01*
X135442791Y-97815628D01*
X125043000Y-97815628D01*
X125043000Y-95697663D01*
X132956131Y-95697663D01*
X133104693Y-96057212D01*
X133379541Y-96332540D01*
X133738830Y-96481730D01*
X134127863Y-96482069D01*
X134366142Y-96383615D01*
X134602430Y-96481730D01*
X134991463Y-96482069D01*
X135351012Y-96333507D01*
X135626340Y-96058659D01*
X135729317Y-95810662D01*
X135843717Y-95925262D01*
X136235669Y-96088015D01*
X136660069Y-96088385D01*
X137052304Y-95926316D01*
X137352662Y-95626483D01*
X137481310Y-95316663D01*
X149135931Y-95316663D01*
X149284493Y-95676212D01*
X149559341Y-95951540D01*
X149918630Y-96100730D01*
X150307663Y-96101069D01*
X150667212Y-95952507D01*
X150942540Y-95677659D01*
X151085128Y-95334269D01*
X151231415Y-95334269D01*
X151393484Y-95726504D01*
X151693317Y-96026862D01*
X152085269Y-96189615D01*
X152509669Y-96189985D01*
X152901904Y-96027916D01*
X153202262Y-95728083D01*
X153365015Y-95336131D01*
X153365253Y-95062663D01*
X154596931Y-95062663D01*
X154745493Y-95422212D01*
X155020341Y-95697540D01*
X155379630Y-95846730D01*
X155768663Y-95847069D01*
X156128212Y-95698507D01*
X156146291Y-95680460D01*
X156163341Y-95697540D01*
X156522630Y-95846730D01*
X156911663Y-95847069D01*
X157271212Y-95698507D01*
X157546540Y-95423659D01*
X157695730Y-95064370D01*
X157696069Y-94675337D01*
X157547507Y-94315788D01*
X157272659Y-94040460D01*
X156913370Y-93891270D01*
X156524337Y-93890931D01*
X156164788Y-94039493D01*
X156146709Y-94057540D01*
X156129659Y-94040460D01*
X155770370Y-93891270D01*
X155381337Y-93890931D01*
X155021788Y-94039493D01*
X154746460Y-94314341D01*
X154597270Y-94673630D01*
X154596931Y-95062663D01*
X153365253Y-95062663D01*
X153365385Y-94911731D01*
X153203316Y-94519496D01*
X152903483Y-94219138D01*
X152511531Y-94056385D01*
X152087131Y-94056015D01*
X151694896Y-94218084D01*
X151394538Y-94517917D01*
X151231785Y-94909869D01*
X151231415Y-95334269D01*
X151085128Y-95334269D01*
X151091730Y-95318370D01*
X151092069Y-94929337D01*
X150943507Y-94569788D01*
X150668659Y-94294460D01*
X150309370Y-94145270D01*
X149920337Y-94144931D01*
X149560788Y-94293493D01*
X149285460Y-94568341D01*
X149136270Y-94927630D01*
X149135931Y-95316663D01*
X137481310Y-95316663D01*
X137515415Y-95234531D01*
X137515785Y-94810131D01*
X137353716Y-94417896D01*
X137053883Y-94117538D01*
X136661931Y-93954785D01*
X136237531Y-93954415D01*
X135845296Y-94116484D01*
X135544938Y-94416317D01*
X135412399Y-94735505D01*
X135352459Y-94675460D01*
X134993170Y-94526270D01*
X134604137Y-94525931D01*
X134365858Y-94624385D01*
X134129570Y-94526270D01*
X133740537Y-94525931D01*
X133380988Y-94674493D01*
X133105660Y-94949341D01*
X132956470Y-95308630D01*
X132956131Y-95697663D01*
X125043000Y-95697663D01*
X125043000Y-91804745D01*
X129981861Y-91804745D01*
X130055995Y-92050864D01*
X130593223Y-92243965D01*
X131163454Y-92216778D01*
X131564005Y-92050864D01*
X131638139Y-91804745D01*
X136331861Y-91804745D01*
X136405995Y-92050864D01*
X136943223Y-92243965D01*
X137513454Y-92216778D01*
X137914005Y-92050864D01*
X137988139Y-91804745D01*
X137160000Y-90976605D01*
X136331861Y-91804745D01*
X131638139Y-91804745D01*
X130810000Y-90976605D01*
X129981861Y-91804745D01*
X125043000Y-91804745D01*
X125043000Y-90245000D01*
X129483527Y-90245000D01*
X129363035Y-90580223D01*
X129363035Y-90580223D01*
G37*
X129363035Y-90580223D02*
X129390222Y-91150454D01*
X129556136Y-91551005D01*
X129802255Y-91625139D01*
X130630395Y-90797000D01*
X130616252Y-90782858D01*
X130795858Y-90603253D01*
X130810000Y-90617395D01*
X130824143Y-90603253D01*
X131003748Y-90782858D01*
X130989605Y-90797000D01*
X131817745Y-91625139D01*
X132063864Y-91551005D01*
X132256965Y-91013777D01*
X132229778Y-90443546D01*
X132147537Y-90245000D01*
X135833527Y-90245000D01*
X135713035Y-90580223D01*
X135740222Y-91150454D01*
X135906136Y-91551005D01*
X136152255Y-91625139D01*
X136980395Y-90797000D01*
X136966252Y-90782858D01*
X137145858Y-90603253D01*
X137160000Y-90617395D01*
X137174143Y-90603253D01*
X137353748Y-90782858D01*
X137339605Y-90797000D01*
X138167745Y-91625139D01*
X138413864Y-91551005D01*
X138606965Y-91013777D01*
X138579778Y-90443546D01*
X138497537Y-90245000D01*
X153005623Y-90245000D01*
X152735788Y-90356493D01*
X152460460Y-90631341D01*
X152311270Y-90990630D01*
X152310931Y-91379663D01*
X152459493Y-91739212D01*
X152734341Y-92014540D01*
X153093630Y-92163730D01*
X153482663Y-92164069D01*
X153842212Y-92015507D01*
X154117540Y-91740659D01*
X154266730Y-91381370D01*
X154267069Y-90992337D01*
X154118507Y-90632788D01*
X153843659Y-90357460D01*
X153572826Y-90245000D01*
X158802000Y-90245000D01*
X158802000Y-128397000D01*
X148971000Y-128397000D01*
X148922399Y-128406667D01*
X148881197Y-128434197D01*
X148853667Y-128475399D01*
X148844000Y-128524000D01*
X148844000Y-147880000D01*
X125043000Y-147880000D01*
X125043000Y-145503824D01*
X133865808Y-145503824D01*
X134034439Y-145911943D01*
X134346415Y-146224463D01*
X134754239Y-146393807D01*
X135195824Y-146394192D01*
X135603943Y-146225561D01*
X135916463Y-145913585D01*
X136084950Y-145507824D01*
X137573808Y-145507824D01*
X137742439Y-145915943D01*
X138054415Y-146228463D01*
X138462239Y-146397807D01*
X138903824Y-146398192D01*
X139311943Y-146229561D01*
X139624463Y-145917585D01*
X139703120Y-145728157D01*
X143839837Y-145728157D01*
X143982642Y-146073772D01*
X144246837Y-146338429D01*
X144592202Y-146481837D01*
X144966157Y-146482163D01*
X145311772Y-146339358D01*
X145576429Y-146075163D01*
X145719837Y-145729798D01*
X145720163Y-145355843D01*
X145577358Y-145010228D01*
X145313163Y-144745571D01*
X144967798Y-144602163D01*
X144593843Y-144601837D01*
X144248228Y-144744642D01*
X143983571Y-145008837D01*
X143840163Y-145354202D01*
X143839837Y-145728157D01*
X139703120Y-145728157D01*
X139793807Y-145509761D01*
X139793821Y-145493656D01*
X139856917Y-145556862D01*
X140248869Y-145719615D01*
X140673269Y-145719985D01*
X141065504Y-145557916D01*
X141365862Y-145258083D01*
X141528615Y-144866131D01*
X141528985Y-144441731D01*
X141366916Y-144049496D01*
X141067083Y-143749138D01*
X140675131Y-143586385D01*
X140250731Y-143586015D01*
X139858496Y-143748084D01*
X139558138Y-144047917D01*
X139398432Y-144432532D01*
X139313585Y-144347537D01*
X138905761Y-144178193D01*
X138464176Y-144177808D01*
X138056057Y-144346439D01*
X137743537Y-144658415D01*
X137574193Y-145066239D01*
X137573808Y-145507824D01*
X136084950Y-145507824D01*
X136085807Y-145505761D01*
X136086192Y-145064176D01*
X135917561Y-144656057D01*
X135605585Y-144343537D01*
X135197761Y-144174193D01*
X134756176Y-144173808D01*
X134348057Y-144342439D01*
X134035537Y-144654415D01*
X133866193Y-145062239D01*
X133865808Y-145503824D01*
X125043000Y-145503824D01*
X125043000Y-143289469D01*
X146303815Y-143289469D01*
X146465884Y-143681704D01*
X146765717Y-143982062D01*
X147157669Y-144144815D01*
X147582069Y-144145185D01*
X147974304Y-143983116D01*
X148274662Y-143683283D01*
X148437415Y-143291331D01*
X148437785Y-142866931D01*
X148275716Y-142474696D01*
X147975883Y-142174338D01*
X147583931Y-142011585D01*
X147159531Y-142011215D01*
X146767296Y-142173284D01*
X146466938Y-142473117D01*
X146304185Y-142865069D01*
X146303815Y-143289469D01*
X125043000Y-143289469D01*
X125043000Y-141054269D01*
X127965015Y-141054269D01*
X128127084Y-141446504D01*
X128426917Y-141746862D01*
X128818869Y-141909615D01*
X129243269Y-141909985D01*
X129635504Y-141747916D01*
X129935862Y-141448083D01*
X130098615Y-141056131D01*
X130098878Y-140754108D01*
X135303744Y-140754108D01*
X135527827Y-141296429D01*
X135942389Y-141711715D01*
X136484317Y-141936743D01*
X137071108Y-141937256D01*
X137613429Y-141713173D01*
X138028715Y-141298611D01*
X138253743Y-140756683D01*
X138253745Y-140754108D01*
X138605744Y-140754108D01*
X138829827Y-141296429D01*
X139244389Y-141711715D01*
X139786317Y-141936743D01*
X140373108Y-141937256D01*
X140915429Y-141713173D01*
X141330715Y-141298611D01*
X141555743Y-140756683D01*
X141556256Y-140169892D01*
X141332173Y-139627571D01*
X140917611Y-139212285D01*
X140375683Y-138987257D01*
X139788892Y-138986744D01*
X139246571Y-139210827D01*
X138831285Y-139625389D01*
X138606257Y-140167317D01*
X138605744Y-140754108D01*
X138253745Y-140754108D01*
X138254256Y-140169892D01*
X138030173Y-139627571D01*
X137615611Y-139212285D01*
X137073683Y-138987257D01*
X136486892Y-138986744D01*
X135944571Y-139210827D01*
X135529285Y-139625389D01*
X135304257Y-140167317D01*
X135303744Y-140754108D01*
X130098878Y-140754108D01*
X130098985Y-140631731D01*
X129936916Y-140239496D01*
X129637083Y-139939138D01*
X129245131Y-139776385D01*
X128820731Y-139776015D01*
X128428496Y-139938084D01*
X128128138Y-140237917D01*
X127965385Y-140629869D01*
X127965015Y-141054269D01*
X125043000Y-141054269D01*
X125043000Y-137191750D01*
X125095000Y-137191750D01*
X125095000Y-138048310D01*
X125191673Y-138281699D01*
X125370302Y-138460327D01*
X125603691Y-138557000D01*
X126460250Y-138557000D01*
X126619000Y-138398250D01*
X126619000Y-137033000D01*
X126873000Y-137033000D01*
X126873000Y-138398250D01*
X127031750Y-138557000D01*
X127888309Y-138557000D01*
X128121698Y-138460327D01*
X128300327Y-138281699D01*
X128397000Y-138048310D01*
X128397000Y-137266795D01*
X129740716Y-137266795D01*
X129989106Y-137867943D01*
X130448637Y-138328278D01*
X131049352Y-138577716D01*
X131699795Y-138578284D01*
X132300943Y-138329894D01*
X132761278Y-137870363D01*
X132923095Y-137480663D01*
X142277931Y-137480663D01*
X142426493Y-137840212D01*
X142701341Y-138115540D01*
X143060630Y-138264730D01*
X143449663Y-138265069D01*
X143572998Y-138214108D01*
X144828744Y-138214108D01*
X145052827Y-138756429D01*
X145467389Y-139171715D01*
X146009317Y-139396743D01*
X146596108Y-139397256D01*
X147138429Y-139173173D01*
X147553715Y-138758611D01*
X147778743Y-138216683D01*
X147779256Y-137629892D01*
X147555173Y-137087571D01*
X147140611Y-136672285D01*
X146598683Y-136447257D01*
X146011892Y-136446744D01*
X145469571Y-136670827D01*
X145054285Y-137085389D01*
X144829257Y-137627317D01*
X144828744Y-138214108D01*
X143572998Y-138214108D01*
X143809212Y-138116507D01*
X144084540Y-137841659D01*
X144233730Y-137482370D01*
X144234069Y-137093337D01*
X144085507Y-136733788D01*
X143810659Y-136458460D01*
X143451370Y-136309270D01*
X143062337Y-136308931D01*
X142702788Y-136457493D01*
X142427460Y-136732341D01*
X142278270Y-137091630D01*
X142277931Y-137480663D01*
X132923095Y-137480663D01*
X133010716Y-137269648D01*
X133011284Y-136619205D01*
X132762894Y-136018057D01*
X132303363Y-135557722D01*
X131702648Y-135308284D01*
X131052205Y-135307716D01*
X130451057Y-135556106D01*
X129990722Y-136015637D01*
X129741284Y-136616352D01*
X129740716Y-137266795D01*
X128397000Y-137266795D01*
X128397000Y-137191750D01*
X128238250Y-137033000D01*
X126873000Y-137033000D01*
X126619000Y-137033000D01*
X125253750Y-137033000D01*
X125095000Y-137191750D01*
X125043000Y-137191750D01*
X125043000Y-134366000D01*
X125062655Y-134366000D01*
X125188330Y-134997810D01*
X125412966Y-135334001D01*
X125370302Y-135351673D01*
X125191673Y-135530301D01*
X125095000Y-135763690D01*
X125095000Y-136620250D01*
X125253750Y-136779000D01*
X126619000Y-136779000D01*
X126619000Y-136759000D01*
X126873000Y-136759000D01*
X126873000Y-136779000D01*
X128238250Y-136779000D01*
X128397000Y-136620250D01*
X128397000Y-135763690D01*
X128300327Y-135530301D01*
X128121698Y-135351673D01*
X128079034Y-135334001D01*
X128303670Y-134997810D01*
X128429345Y-134366000D01*
X128392082Y-134178663D01*
X137070931Y-134178663D01*
X137219493Y-134538212D01*
X137494341Y-134813540D01*
X137853630Y-134962730D01*
X138242663Y-134963069D01*
X138602212Y-134814507D01*
X138877540Y-134539659D01*
X139026730Y-134180370D01*
X139027069Y-133791337D01*
X138878507Y-133431788D01*
X138603659Y-133156460D01*
X138312748Y-133035663D01*
X141515931Y-133035663D01*
X141664493Y-133395212D01*
X141939341Y-133670540D01*
X142298630Y-133819730D01*
X142687663Y-133820069D01*
X143047212Y-133671507D01*
X143322540Y-133396659D01*
X143471730Y-133037370D01*
X143471731Y-133035663D01*
X144690931Y-133035663D01*
X144839493Y-133395212D01*
X145114341Y-133670540D01*
X145473630Y-133819730D01*
X145862663Y-133820069D01*
X146222212Y-133671507D01*
X146497540Y-133396659D01*
X146646730Y-133037370D01*
X146647069Y-132648337D01*
X146498507Y-132288788D01*
X146223659Y-132013460D01*
X145864370Y-131864270D01*
X145475337Y-131863931D01*
X145115788Y-132012493D01*
X144840460Y-132287341D01*
X144691270Y-132646630D01*
X144690931Y-133035663D01*
X143471731Y-133035663D01*
X143472069Y-132648337D01*
X143323507Y-132288788D01*
X143048659Y-132013460D01*
X142689370Y-131864270D01*
X142300337Y-131863931D01*
X141940788Y-132012493D01*
X141665460Y-132287341D01*
X141516270Y-132646630D01*
X141515931Y-133035663D01*
X138312748Y-133035663D01*
X138244370Y-133007270D01*
X137855337Y-133006931D01*
X137495788Y-133155493D01*
X137220460Y-133430341D01*
X137071270Y-133789630D01*
X137070931Y-134178663D01*
X128392082Y-134178663D01*
X128303670Y-133734190D01*
X127945778Y-133198567D01*
X127410155Y-132840675D01*
X126778345Y-132715000D01*
X126713655Y-132715000D01*
X126081845Y-132840675D01*
X125546222Y-133198567D01*
X125188330Y-133734190D01*
X125062655Y-134366000D01*
X125043000Y-134366000D01*
X125043000Y-130206750D01*
X125095000Y-130206750D01*
X125095000Y-130910910D01*
X125191673Y-131144299D01*
X125370302Y-131322927D01*
X125603691Y-131419600D01*
X126460250Y-131419600D01*
X126619000Y-131260850D01*
X126619000Y-130048000D01*
X126873000Y-130048000D01*
X126873000Y-131260850D01*
X127031750Y-131419600D01*
X127888309Y-131419600D01*
X128121698Y-131322927D01*
X128300327Y-131144299D01*
X128397000Y-130910910D01*
X128397000Y-130340108D01*
X141526744Y-130340108D01*
X141750827Y-130882429D01*
X142165389Y-131297715D01*
X142707317Y-131522743D01*
X143294108Y-131523256D01*
X143836429Y-131299173D01*
X144251715Y-130884611D01*
X144476743Y-130342683D01*
X144477256Y-129755892D01*
X144253173Y-129213571D01*
X143838611Y-128798285D01*
X143296683Y-128573257D01*
X142709892Y-128572744D01*
X142167571Y-128796827D01*
X141752285Y-129211389D01*
X141527257Y-129753317D01*
X141526744Y-130340108D01*
X128397000Y-130340108D01*
X128397000Y-130206750D01*
X128238250Y-130048000D01*
X126873000Y-130048000D01*
X126619000Y-130048000D01*
X125253750Y-130048000D01*
X125095000Y-130206750D01*
X125043000Y-130206750D01*
X125043000Y-124841000D01*
X125062655Y-124841000D01*
X125176729Y-125414489D01*
X125501585Y-125900670D01*
X125816366Y-126111000D01*
X125501585Y-126321330D01*
X125176729Y-126807511D01*
X125062655Y-127381000D01*
X125176729Y-127954489D01*
X125501585Y-128440670D01*
X125523780Y-128455500D01*
X125370302Y-128519073D01*
X125191673Y-128697701D01*
X125095000Y-128931090D01*
X125095000Y-129635250D01*
X125253750Y-129794000D01*
X126619000Y-129794000D01*
X126619000Y-129774000D01*
X126873000Y-129774000D01*
X126873000Y-129794000D01*
X128238250Y-129794000D01*
X128397000Y-129635250D01*
X128397000Y-128931090D01*
X128300327Y-128697701D01*
X128121698Y-128519073D01*
X127968220Y-128455500D01*
X127990415Y-128440670D01*
X128315271Y-127954489D01*
X128390823Y-127574663D01*
X139229931Y-127574663D01*
X139378493Y-127934212D01*
X139653341Y-128209540D01*
X140012630Y-128358730D01*
X140401663Y-128359069D01*
X140761212Y-128210507D01*
X141036540Y-127935659D01*
X141185730Y-127576370D01*
X141186069Y-127187337D01*
X141037507Y-126827788D01*
X140762659Y-126552460D01*
X140403370Y-126403270D01*
X140014337Y-126402931D01*
X139654788Y-126551493D01*
X139379460Y-126826341D01*
X139230270Y-127185630D01*
X139229931Y-127574663D01*
X128390823Y-127574663D01*
X128429345Y-127381000D01*
X128315271Y-126807511D01*
X127990415Y-126321330D01*
X127675634Y-126111000D01*
X127990415Y-125900670D01*
X128163848Y-125641108D01*
X130350744Y-125641108D01*
X130574827Y-126183429D01*
X130989389Y-126598715D01*
X131531317Y-126823743D01*
X132118108Y-126824256D01*
X132660429Y-126600173D01*
X132829233Y-126431663D01*
X133260931Y-126431663D01*
X133409493Y-126791212D01*
X133684341Y-127066540D01*
X134043630Y-127215730D01*
X134432663Y-127216069D01*
X134792212Y-127067507D01*
X135067540Y-126792659D01*
X135216730Y-126433370D01*
X135216736Y-126426259D01*
X135273827Y-126564429D01*
X135688389Y-126979715D01*
X136230317Y-127204743D01*
X136817108Y-127205256D01*
X137359429Y-126981173D01*
X137774715Y-126566611D01*
X137999743Y-126024683D01*
X138000256Y-125437892D01*
X137776173Y-124895571D01*
X137361611Y-124480285D01*
X136819683Y-124255257D01*
X136232892Y-124254744D01*
X135690571Y-124478827D01*
X135275285Y-124893389D01*
X135050257Y-125435317D01*
X135050055Y-125666304D01*
X134793659Y-125409460D01*
X134434370Y-125260270D01*
X134045337Y-125259931D01*
X133685788Y-125408493D01*
X133410460Y-125683341D01*
X133261270Y-126042630D01*
X133260931Y-126431663D01*
X132829233Y-126431663D01*
X133075715Y-126185611D01*
X133300743Y-125643683D01*
X133301256Y-125056892D01*
X133077173Y-124514571D01*
X132662611Y-124099285D01*
X132120683Y-123874257D01*
X131533892Y-123873744D01*
X130991571Y-124097827D01*
X130576285Y-124512389D01*
X130351257Y-125054317D01*
X130350744Y-125641108D01*
X128163848Y-125641108D01*
X128315271Y-125414489D01*
X128429345Y-124841000D01*
X128315271Y-124267511D01*
X127990415Y-123781330D01*
X127585334Y-123510663D01*
X140626931Y-123510663D01*
X140775493Y-123870212D01*
X141050341Y-124145540D01*
X141409630Y-124294730D01*
X141798663Y-124295069D01*
X142158212Y-124146507D01*
X142433540Y-123871659D01*
X142544487Y-123604469D01*
X145186215Y-123604469D01*
X145348284Y-123996704D01*
X145648117Y-124297062D01*
X146040069Y-124459815D01*
X146464469Y-124460185D01*
X146856704Y-124298116D01*
X147014564Y-124140532D01*
X147146341Y-124272540D01*
X147505630Y-124421730D01*
X147585789Y-124421800D01*
X147224496Y-124571084D01*
X146924138Y-124870917D01*
X146761385Y-125262869D01*
X146761015Y-125687269D01*
X146923084Y-126079504D01*
X147222917Y-126379862D01*
X147614869Y-126542615D01*
X148039269Y-126542985D01*
X148431504Y-126380916D01*
X148731862Y-126081083D01*
X148894615Y-125689131D01*
X148894985Y-125264731D01*
X148732916Y-124872496D01*
X148433083Y-124572138D01*
X148041131Y-124409385D01*
X147925605Y-124409284D01*
X148254212Y-124273507D01*
X148529540Y-123998659D01*
X148678730Y-123639370D01*
X148679069Y-123250337D01*
X148530507Y-122890788D01*
X148255659Y-122615460D01*
X147964748Y-122494663D01*
X154469931Y-122494663D01*
X154618493Y-122854212D01*
X154893341Y-123129540D01*
X155252630Y-123278730D01*
X155641663Y-123279069D01*
X156001212Y-123130507D01*
X156276540Y-122855659D01*
X156425730Y-122496370D01*
X156426069Y-122107337D01*
X156277507Y-121747788D01*
X156002659Y-121472460D01*
X155643370Y-121323270D01*
X155254337Y-121322931D01*
X154894788Y-121471493D01*
X154619460Y-121746341D01*
X154470270Y-122105630D01*
X154469931Y-122494663D01*
X147964748Y-122494663D01*
X147896370Y-122466270D01*
X147507337Y-122465931D01*
X147147788Y-122614493D01*
X147065360Y-122696777D01*
X146858283Y-122489338D01*
X146803681Y-122466665D01*
X147004219Y-122266477D01*
X147103089Y-122028371D01*
X147339547Y-121930669D01*
X147614875Y-121655821D01*
X147641214Y-121592390D01*
X147654341Y-121605540D01*
X148013630Y-121754730D01*
X148402663Y-121755069D01*
X148762212Y-121606507D01*
X149037540Y-121331659D01*
X149186730Y-120972370D01*
X149186911Y-120764582D01*
X153025012Y-120764582D01*
X153173574Y-121124131D01*
X153448422Y-121399459D01*
X153807711Y-121548649D01*
X154196744Y-121548988D01*
X154556293Y-121400426D01*
X154831621Y-121125578D01*
X154980811Y-120766289D01*
X154981150Y-120377256D01*
X154832588Y-120017707D01*
X154557740Y-119742379D01*
X154198451Y-119593189D01*
X153809418Y-119592850D01*
X153449869Y-119741412D01*
X153174541Y-120016260D01*
X153025351Y-120375549D01*
X153025012Y-120764582D01*
X149186911Y-120764582D01*
X149187069Y-120583337D01*
X149038507Y-120223788D01*
X148766571Y-119951377D01*
X148910540Y-119807659D01*
X149059730Y-119448370D01*
X149060069Y-119059337D01*
X148911507Y-118699788D01*
X148766460Y-118554488D01*
X148910540Y-118410659D01*
X149059730Y-118051370D01*
X149060069Y-117662337D01*
X148947238Y-117389263D01*
X156476531Y-117389263D01*
X156625093Y-117748812D01*
X156899941Y-118024140D01*
X157259230Y-118173330D01*
X157648263Y-118173669D01*
X158007812Y-118025107D01*
X158283140Y-117750259D01*
X158432330Y-117390970D01*
X158432669Y-117001937D01*
X158284107Y-116642388D01*
X158009259Y-116367060D01*
X157649970Y-116217870D01*
X157260937Y-116217531D01*
X156901388Y-116366093D01*
X156626060Y-116640941D01*
X156476870Y-117000230D01*
X156476531Y-117389263D01*
X148947238Y-117389263D01*
X148911507Y-117302788D01*
X148636659Y-117027460D01*
X148277370Y-116878270D01*
X147888337Y-116877931D01*
X147697148Y-116956928D01*
X147767540Y-116886659D01*
X147916730Y-116527370D01*
X147917069Y-116138337D01*
X147768507Y-115778788D01*
X147499852Y-115509663D01*
X152945931Y-115509663D01*
X153094493Y-115869212D01*
X153369341Y-116144540D01*
X153728630Y-116293730D01*
X154117663Y-116294069D01*
X154477212Y-116145507D01*
X154752540Y-115870659D01*
X154901730Y-115511370D01*
X154902069Y-115122337D01*
X154808874Y-114896786D01*
X155133663Y-114897069D01*
X155493212Y-114748507D01*
X155768540Y-114473659D01*
X155917730Y-114114370D01*
X155918069Y-113725337D01*
X155769507Y-113365788D01*
X155494659Y-113090460D01*
X155135370Y-112941270D01*
X154746337Y-112940931D01*
X154386788Y-113089493D01*
X154111460Y-113364341D01*
X153962270Y-113723630D01*
X153961931Y-114112663D01*
X154055126Y-114338214D01*
X153730337Y-114337931D01*
X153370788Y-114486493D01*
X153095460Y-114761341D01*
X152946270Y-115120630D01*
X152945931Y-115509663D01*
X147499852Y-115509663D01*
X147493659Y-115503460D01*
X147134370Y-115354270D01*
X146745337Y-115353931D01*
X146385788Y-115502493D01*
X146110460Y-115777341D01*
X145961270Y-116136630D01*
X145960931Y-116525663D01*
X146109493Y-116885212D01*
X146384341Y-117160540D01*
X146743630Y-117309730D01*
X147132663Y-117310069D01*
X147323852Y-117231072D01*
X147253460Y-117301341D01*
X147104270Y-117660630D01*
X147103931Y-118049663D01*
X147252493Y-118409212D01*
X147397540Y-118554512D01*
X147253460Y-118698341D01*
X147104270Y-119057630D01*
X147103931Y-119446663D01*
X147252493Y-119806212D01*
X147524429Y-120078623D01*
X147380460Y-120222341D01*
X147354121Y-120285772D01*
X147340994Y-120272622D01*
X146981705Y-120123432D01*
X146592672Y-120123093D01*
X146233123Y-120271655D01*
X145957795Y-120546503D01*
X145858925Y-120784609D01*
X145622467Y-120882311D01*
X145347139Y-121157159D01*
X145197949Y-121516448D01*
X145197610Y-121905481D01*
X145346172Y-122265030D01*
X145609296Y-122528613D01*
X145349338Y-122788117D01*
X145186585Y-123180069D01*
X145186215Y-123604469D01*
X142544487Y-123604469D01*
X142582730Y-123512370D01*
X142583069Y-123123337D01*
X142434507Y-122763788D01*
X142159659Y-122488460D01*
X141800370Y-122339270D01*
X141411337Y-122338931D01*
X141051788Y-122487493D01*
X140776460Y-122762341D01*
X140627270Y-123121630D01*
X140626931Y-123510663D01*
X127585334Y-123510663D01*
X127504234Y-123456474D01*
X126930745Y-123342400D01*
X126561255Y-123342400D01*
X125987766Y-123456474D01*
X125501585Y-123781330D01*
X125176729Y-124267511D01*
X125062655Y-124841000D01*
X125043000Y-124841000D01*
X125043000Y-122494663D01*
X128180931Y-122494663D01*
X128329493Y-122854212D01*
X128604341Y-123129540D01*
X128963630Y-123278730D01*
X129352663Y-123279069D01*
X129712212Y-123130507D01*
X129987540Y-122855659D01*
X130136730Y-122496370D01*
X130137069Y-122107337D01*
X129988507Y-121747788D01*
X129973409Y-121732663D01*
X133641931Y-121732663D01*
X133790493Y-122092212D01*
X134065341Y-122367540D01*
X134424630Y-122516730D01*
X134813663Y-122517069D01*
X135173212Y-122368507D01*
X135448540Y-122093659D01*
X135597730Y-121734370D01*
X135598069Y-121345337D01*
X135449507Y-120985788D01*
X135174659Y-120710460D01*
X134815370Y-120561270D01*
X134426337Y-120560931D01*
X134066788Y-120709493D01*
X133791460Y-120984341D01*
X133642270Y-121343630D01*
X133641931Y-121732663D01*
X129973409Y-121732663D01*
X129713659Y-121472460D01*
X129354370Y-121323270D01*
X128965337Y-121322931D01*
X128605788Y-121471493D01*
X128330460Y-121746341D01*
X128181270Y-122105630D01*
X128180931Y-122494663D01*
X125043000Y-122494663D01*
X125043000Y-119926108D01*
X136827744Y-119926108D01*
X137051827Y-120468429D01*
X137466389Y-120883715D01*
X138008317Y-121108743D01*
X138595108Y-121109256D01*
X139137429Y-120885173D01*
X139552715Y-120470611D01*
X139777743Y-119928683D01*
X139778256Y-119341892D01*
X139554173Y-118799571D01*
X139139611Y-118384285D01*
X138597683Y-118159257D01*
X138010892Y-118158744D01*
X137468571Y-118382827D01*
X137053285Y-118797389D01*
X136828257Y-119339317D01*
X136827744Y-119926108D01*
X125043000Y-119926108D01*
X125043000Y-112616345D01*
X142326449Y-112616345D01*
X142475011Y-112975894D01*
X142749859Y-113251222D01*
X143109148Y-113400412D01*
X143174458Y-113400469D01*
X143040270Y-113723630D01*
X143039931Y-114112663D01*
X143188493Y-114472212D01*
X143463341Y-114747540D01*
X143822630Y-114896730D01*
X144211663Y-114897069D01*
X144571212Y-114748507D01*
X144846540Y-114473659D01*
X144995730Y-114114370D01*
X144996069Y-113725337D01*
X144847507Y-113365788D01*
X144572659Y-113090460D01*
X144213370Y-112941270D01*
X144148060Y-112941213D01*
X144282248Y-112618052D01*
X144282587Y-112229019D01*
X144168813Y-111953663D01*
X144563931Y-111953663D01*
X144712493Y-112313212D01*
X144987341Y-112588540D01*
X145346630Y-112737730D01*
X145478533Y-112737845D01*
X145478331Y-112969663D01*
X145586460Y-113231356D01*
X145496542Y-113447902D01*
X145496203Y-113836935D01*
X145644765Y-114196484D01*
X145919613Y-114471812D01*
X146278902Y-114621002D01*
X146667935Y-114621341D01*
X147027484Y-114472779D01*
X147059887Y-114440433D01*
X147125493Y-114599212D01*
X147400341Y-114874540D01*
X147759630Y-115023730D01*
X148148663Y-115024069D01*
X148508212Y-114875507D01*
X148783540Y-114600659D01*
X148932730Y-114241370D01*
X148933069Y-113852337D01*
X148784507Y-113492788D01*
X148509659Y-113217460D01*
X148150370Y-113068270D01*
X147761337Y-113067931D01*
X147401788Y-113216493D01*
X147369385Y-113248839D01*
X147344212Y-113187916D01*
X147434130Y-112971370D01*
X147434469Y-112582337D01*
X147374295Y-112436704D01*
X147619212Y-112335507D01*
X147874501Y-112080663D01*
X155739931Y-112080663D01*
X155888493Y-112440212D01*
X156163341Y-112715540D01*
X156522630Y-112864730D01*
X156911663Y-112865069D01*
X157271212Y-112716507D01*
X157546540Y-112441659D01*
X157695730Y-112082370D01*
X157696069Y-111693337D01*
X157547507Y-111333788D01*
X157272659Y-111058460D01*
X156913370Y-110909270D01*
X156524337Y-110908931D01*
X156164788Y-111057493D01*
X155889460Y-111332341D01*
X155740270Y-111691630D01*
X155739931Y-112080663D01*
X147874501Y-112080663D01*
X147894540Y-112060659D01*
X148043730Y-111701370D01*
X148044069Y-111312337D01*
X147895507Y-110952788D01*
X147626852Y-110683663D01*
X148881931Y-110683663D01*
X149030493Y-111043212D01*
X149305341Y-111318540D01*
X149664630Y-111467730D01*
X150053663Y-111468069D01*
X150413212Y-111319507D01*
X150688540Y-111044659D01*
X150837730Y-110685370D01*
X150838069Y-110296337D01*
X150689507Y-109936788D01*
X150414659Y-109661460D01*
X150055370Y-109512270D01*
X149666337Y-109511931D01*
X149306788Y-109660493D01*
X149031460Y-109935341D01*
X148882270Y-110294630D01*
X148881931Y-110683663D01*
X147626852Y-110683663D01*
X147620659Y-110677460D01*
X147261370Y-110528270D01*
X146872337Y-110527931D01*
X146512788Y-110676493D01*
X146237460Y-110951341D01*
X146201928Y-111036912D01*
X146096659Y-110931460D01*
X145737370Y-110782270D01*
X145348337Y-110781931D01*
X144988788Y-110930493D01*
X144713460Y-111205341D01*
X144564270Y-111564630D01*
X144563931Y-111953663D01*
X144168813Y-111953663D01*
X144134025Y-111869470D01*
X143859177Y-111594142D01*
X143499888Y-111444952D01*
X143110855Y-111444613D01*
X142751306Y-111593175D01*
X142475978Y-111868023D01*
X142326788Y-112227312D01*
X142326449Y-112616345D01*
X125043000Y-112616345D01*
X125043000Y-107850469D01*
X138500015Y-107850469D01*
X138662084Y-108242704D01*
X138961917Y-108543062D01*
X139353869Y-108705815D01*
X139600469Y-108706030D01*
X139546790Y-108835303D01*
X139546451Y-109224336D01*
X139695013Y-109583885D01*
X139969861Y-109859213D01*
X140329150Y-110008403D01*
X140718183Y-110008742D01*
X141077732Y-109860180D01*
X141353060Y-109585332D01*
X141502250Y-109226043D01*
X141502589Y-108837010D01*
X141487339Y-108800101D01*
X142407876Y-108800101D01*
X142439047Y-109142206D01*
X142509996Y-109313491D01*
X142619744Y-109314876D01*
X142572806Y-109361814D01*
X142603792Y-109392800D01*
X142572806Y-109423786D01*
X142619744Y-109470724D01*
X142509996Y-109472109D01*
X142407876Y-109800101D01*
X142439047Y-110142206D01*
X142509996Y-110313491D01*
X142698753Y-110315873D01*
X143121826Y-109892800D01*
X143098668Y-109869642D01*
X143200917Y-109767393D01*
X143352107Y-109753617D01*
X143408807Y-109810317D01*
X143422583Y-109961507D01*
X143306558Y-110077532D01*
X143283400Y-110054374D01*
X142860327Y-110477447D01*
X142862709Y-110666204D01*
X143190701Y-110768324D01*
X143532806Y-110737153D01*
X143704091Y-110666204D01*
X143705476Y-110556456D01*
X143752414Y-110603394D01*
X143783400Y-110572408D01*
X143814386Y-110603394D01*
X143861324Y-110556456D01*
X143862709Y-110666204D01*
X144190701Y-110768324D01*
X144532806Y-110737153D01*
X144704091Y-110666204D01*
X144706473Y-110477447D01*
X144283400Y-110054374D01*
X144260242Y-110077532D01*
X144157993Y-109975283D01*
X144144217Y-109824093D01*
X144200917Y-109767393D01*
X144352107Y-109753617D01*
X144468132Y-109869642D01*
X144444974Y-109892800D01*
X144868047Y-110315873D01*
X145056804Y-110313491D01*
X145158924Y-109985499D01*
X145127753Y-109643394D01*
X145056804Y-109472109D01*
X144947056Y-109470724D01*
X144993994Y-109423786D01*
X144963008Y-109392800D01*
X144993994Y-109361814D01*
X144947056Y-109314876D01*
X145056804Y-109313491D01*
X145158924Y-108985499D01*
X145127753Y-108643394D01*
X145100167Y-108576795D01*
X150340716Y-108576795D01*
X150589106Y-109177943D01*
X151048637Y-109638278D01*
X151649352Y-109887716D01*
X152299795Y-109888284D01*
X152900943Y-109639894D01*
X153361278Y-109180363D01*
X153610716Y-108579648D01*
X153611284Y-107929205D01*
X153362894Y-107328057D01*
X152903363Y-106867722D01*
X152302648Y-106618284D01*
X151652205Y-106617716D01*
X151051057Y-106866106D01*
X150590722Y-107325637D01*
X150341284Y-107926352D01*
X150340716Y-108576795D01*
X145100167Y-108576795D01*
X145056804Y-108472109D01*
X144868047Y-108469727D01*
X144444974Y-108892800D01*
X144468132Y-108915958D01*
X144365883Y-109018207D01*
X144214693Y-109031983D01*
X144157993Y-108975283D01*
X144144217Y-108824093D01*
X144260242Y-108708068D01*
X144283400Y-108731226D01*
X144706473Y-108308153D01*
X144704091Y-108119396D01*
X144376099Y-108017276D01*
X144033994Y-108048447D01*
X143862709Y-108119396D01*
X143861324Y-108229144D01*
X143814386Y-108182206D01*
X143783400Y-108213192D01*
X143752414Y-108182206D01*
X143705476Y-108229144D01*
X143704091Y-108119396D01*
X143376099Y-108017276D01*
X143033994Y-108048447D01*
X142862709Y-108119396D01*
X142860327Y-108308153D01*
X143283400Y-108731226D01*
X143306558Y-108708068D01*
X143408807Y-108810317D01*
X143422583Y-108961507D01*
X143365883Y-109018207D01*
X143214693Y-109031983D01*
X143098668Y-108915958D01*
X143121826Y-108892800D01*
X142698753Y-108469727D01*
X142509996Y-108472109D01*
X142407876Y-108800101D01*
X141487339Y-108800101D01*
X141354027Y-108477461D01*
X141079179Y-108202133D01*
X140719890Y-108052943D01*
X140550375Y-108052795D01*
X140633615Y-107852331D01*
X140633759Y-107686463D01*
X140906331Y-107686463D01*
X141054893Y-108046012D01*
X141329741Y-108321340D01*
X141689030Y-108470530D01*
X142078063Y-108470869D01*
X142437612Y-108322307D01*
X142712940Y-108047459D01*
X142862130Y-107688170D01*
X142862131Y-107686463D01*
X144716331Y-107686463D01*
X144864893Y-108046012D01*
X145139741Y-108321340D01*
X145499030Y-108470530D01*
X145888063Y-108470869D01*
X146247612Y-108322307D01*
X146522940Y-108047459D01*
X146672130Y-107688170D01*
X146672469Y-107299137D01*
X146523907Y-106939588D01*
X146249059Y-106664260D01*
X145889770Y-106515070D01*
X145500737Y-106514731D01*
X145141188Y-106663293D01*
X144865860Y-106938141D01*
X144716670Y-107297430D01*
X144716331Y-107686463D01*
X142862131Y-107686463D01*
X142862469Y-107299137D01*
X142713907Y-106939588D01*
X142439059Y-106664260D01*
X142079770Y-106515070D01*
X141690737Y-106514731D01*
X141331188Y-106663293D01*
X141055860Y-106938141D01*
X140906670Y-107297430D01*
X140906331Y-107686463D01*
X140633759Y-107686463D01*
X140633985Y-107427931D01*
X140471916Y-107035696D01*
X140172083Y-106735338D01*
X139780131Y-106572585D01*
X139355731Y-106572215D01*
X138963496Y-106734284D01*
X138663138Y-107034117D01*
X138500385Y-107426069D01*
X138500015Y-107850469D01*
X125043000Y-107850469D01*
X125043000Y-105494269D01*
X131521015Y-105494269D01*
X131683084Y-105886504D01*
X131982917Y-106186862D01*
X132374869Y-106349615D01*
X132799269Y-106349985D01*
X133191504Y-106187916D01*
X133491862Y-105888083D01*
X133654615Y-105496131D01*
X133654853Y-105222663D01*
X153580931Y-105222663D01*
X153729493Y-105582212D01*
X154004341Y-105857540D01*
X154363630Y-106006730D01*
X154752663Y-106007069D01*
X155112212Y-105858507D01*
X155387540Y-105583659D01*
X155536730Y-105224370D01*
X155537069Y-104835337D01*
X155388507Y-104475788D01*
X155113659Y-104200460D01*
X154754370Y-104051270D01*
X154365337Y-104050931D01*
X154005788Y-104199493D01*
X153730460Y-104474341D01*
X153581270Y-104833630D01*
X153580931Y-105222663D01*
X133654853Y-105222663D01*
X133654985Y-105071731D01*
X133492916Y-104679496D01*
X133193083Y-104379138D01*
X132801131Y-104216385D01*
X132376731Y-104216015D01*
X131984496Y-104378084D01*
X131684138Y-104677917D01*
X131521385Y-105069869D01*
X131521015Y-105494269D01*
X125043000Y-105494269D01*
X125043000Y-102815628D01*
X135442791Y-102815628D01*
X135626614Y-103260514D01*
X135966695Y-103601190D01*
X136411260Y-103785789D01*
X136892628Y-103786209D01*
X137337514Y-103602386D01*
X137678190Y-103262305D01*
X137862789Y-102817740D01*
X137863128Y-102428663D01*
X155612931Y-102428663D01*
X155761493Y-102788212D01*
X156036341Y-103063540D01*
X156395630Y-103212730D01*
X156784663Y-103213069D01*
X157144212Y-103064507D01*
X157419540Y-102789659D01*
X157568730Y-102430370D01*
X157569069Y-102041337D01*
X157420507Y-101681788D01*
X157145659Y-101406460D01*
X156786370Y-101257270D01*
X156397337Y-101256931D01*
X156037788Y-101405493D01*
X155762460Y-101680341D01*
X155613270Y-102039630D01*
X155612931Y-102428663D01*
X137863128Y-102428663D01*
X137863209Y-102336372D01*
X137679386Y-101891486D01*
X137339305Y-101550810D01*
X136894740Y-101366211D01*
X136413372Y-101365791D01*
X135968486Y-101549614D01*
X135627810Y-101889695D01*
X135443211Y-102334260D01*
X135442791Y-102815628D01*
X125043000Y-102815628D01*
X125043000Y-100315628D01*
X138742791Y-100315628D01*
X138926614Y-100760514D01*
X139266695Y-101101190D01*
X139711260Y-101285789D01*
X140192628Y-101286209D01*
X140637514Y-101102386D01*
X140978190Y-100762305D01*
X141162789Y-100317740D01*
X141163209Y-99836372D01*
X140979386Y-99391486D01*
X140639305Y-99050810D01*
X140194740Y-98866211D01*
X139713372Y-98865791D01*
X139268486Y-99049614D01*
X138927810Y-99389695D01*
X138743211Y-99834260D01*
X138742791Y-100315628D01*
X125043000Y-100315628D01*
X125043000Y-97815628D01*
X135442791Y-97815628D01*
X135626614Y-98260514D01*
X135966695Y-98601190D01*
X136411260Y-98785789D01*
X136892628Y-98786209D01*
X137337514Y-98602386D01*
X137678190Y-98262305D01*
X137862789Y-97817740D01*
X137863209Y-97336372D01*
X137679386Y-96891486D01*
X137339305Y-96550810D01*
X136894740Y-96366211D01*
X136413372Y-96365791D01*
X135968486Y-96549614D01*
X135627810Y-96889695D01*
X135443211Y-97334260D01*
X135442791Y-97815628D01*
X125043000Y-97815628D01*
X125043000Y-95697663D01*
X132956131Y-95697663D01*
X133104693Y-96057212D01*
X133379541Y-96332540D01*
X133738830Y-96481730D01*
X134127863Y-96482069D01*
X134366142Y-96383615D01*
X134602430Y-96481730D01*
X134991463Y-96482069D01*
X135351012Y-96333507D01*
X135626340Y-96058659D01*
X135729317Y-95810662D01*
X135843717Y-95925262D01*
X136235669Y-96088015D01*
X136660069Y-96088385D01*
X137052304Y-95926316D01*
X137352662Y-95626483D01*
X137481310Y-95316663D01*
X149135931Y-95316663D01*
X149284493Y-95676212D01*
X149559341Y-95951540D01*
X149918630Y-96100730D01*
X150307663Y-96101069D01*
X150667212Y-95952507D01*
X150942540Y-95677659D01*
X151085128Y-95334269D01*
X151231415Y-95334269D01*
X151393484Y-95726504D01*
X151693317Y-96026862D01*
X152085269Y-96189615D01*
X152509669Y-96189985D01*
X152901904Y-96027916D01*
X153202262Y-95728083D01*
X153365015Y-95336131D01*
X153365253Y-95062663D01*
X154596931Y-95062663D01*
X154745493Y-95422212D01*
X155020341Y-95697540D01*
X155379630Y-95846730D01*
X155768663Y-95847069D01*
X156128212Y-95698507D01*
X156146291Y-95680460D01*
X156163341Y-95697540D01*
X156522630Y-95846730D01*
X156911663Y-95847069D01*
X157271212Y-95698507D01*
X157546540Y-95423659D01*
X157695730Y-95064370D01*
X157696069Y-94675337D01*
X157547507Y-94315788D01*
X157272659Y-94040460D01*
X156913370Y-93891270D01*
X156524337Y-93890931D01*
X156164788Y-94039493D01*
X156146709Y-94057540D01*
X156129659Y-94040460D01*
X155770370Y-93891270D01*
X155381337Y-93890931D01*
X155021788Y-94039493D01*
X154746460Y-94314341D01*
X154597270Y-94673630D01*
X154596931Y-95062663D01*
X153365253Y-95062663D01*
X153365385Y-94911731D01*
X153203316Y-94519496D01*
X152903483Y-94219138D01*
X152511531Y-94056385D01*
X152087131Y-94056015D01*
X151694896Y-94218084D01*
X151394538Y-94517917D01*
X151231785Y-94909869D01*
X151231415Y-95334269D01*
X151085128Y-95334269D01*
X151091730Y-95318370D01*
X151092069Y-94929337D01*
X150943507Y-94569788D01*
X150668659Y-94294460D01*
X150309370Y-94145270D01*
X149920337Y-94144931D01*
X149560788Y-94293493D01*
X149285460Y-94568341D01*
X149136270Y-94927630D01*
X149135931Y-95316663D01*
X137481310Y-95316663D01*
X137515415Y-95234531D01*
X137515785Y-94810131D01*
X137353716Y-94417896D01*
X137053883Y-94117538D01*
X136661931Y-93954785D01*
X136237531Y-93954415D01*
X135845296Y-94116484D01*
X135544938Y-94416317D01*
X135412399Y-94735505D01*
X135352459Y-94675460D01*
X134993170Y-94526270D01*
X134604137Y-94525931D01*
X134365858Y-94624385D01*
X134129570Y-94526270D01*
X133740537Y-94525931D01*
X133380988Y-94674493D01*
X133105660Y-94949341D01*
X132956470Y-95308630D01*
X132956131Y-95697663D01*
X125043000Y-95697663D01*
X125043000Y-91804745D01*
X129981861Y-91804745D01*
X130055995Y-92050864D01*
X130593223Y-92243965D01*
X131163454Y-92216778D01*
X131564005Y-92050864D01*
X131638139Y-91804745D01*
X136331861Y-91804745D01*
X136405995Y-92050864D01*
X136943223Y-92243965D01*
X137513454Y-92216778D01*
X137914005Y-92050864D01*
X137988139Y-91804745D01*
X137160000Y-90976605D01*
X136331861Y-91804745D01*
X131638139Y-91804745D01*
X130810000Y-90976605D01*
X129981861Y-91804745D01*
X125043000Y-91804745D01*
X125043000Y-90245000D01*
X129483527Y-90245000D01*
X129363035Y-90580223D01*
M02*
