G04 #@! TF.FileFunction,Soldermask,Bot*
%FSLAX46Y46*%
G04 Gerber Fmt 4.6, Leading zero omitted, Abs format (unit mm)*
G04 Created by KiCad (PCBNEW 0.201601221447+6507~42~ubuntu15.10.1-product) date Fri 22 Jan 2016 06:42:10 PM EST*
%MOMM*%
G01*
G04 APERTURE LIST*
%ADD10C,0.100000*%
%ADD11C,1.803200*%
%ADD12R,2.235200X2.235200*%
%ADD13O,2.235200X2.235200*%
%ADD14C,1.353200*%
%ADD15C,1.883200*%
%ADD16R,2.235200X1.930400*%
%ADD17O,2.235200X1.930400*%
G04 APERTURE END LIST*
D10*
D11*
X146304000Y-206367000D03*
X139954000Y-206367000D03*
D12*
X135890000Y-252476000D03*
D13*
X135890000Y-249936000D03*
D14*
X149097000Y-215646000D03*
X145797000Y-218146000D03*
X145797000Y-213146000D03*
D15*
X152146000Y-245618000D03*
X149225000Y-256032000D03*
X145923000Y-256032000D03*
X145669000Y-241300000D03*
X147447000Y-235204000D03*
X140970000Y-240919000D03*
X155448000Y-253492000D03*
D16*
X135890000Y-245491000D03*
D17*
X135890000Y-242951000D03*
X135890000Y-240411000D03*
D11*
X146304000Y-142232000D03*
X139954000Y-142232000D03*
D12*
X135890000Y-188341000D03*
D13*
X135890000Y-185801000D03*
D14*
X149097000Y-151511000D03*
X145797000Y-154011000D03*
X145797000Y-149011000D03*
D15*
X152146000Y-181483000D03*
X149225000Y-191897000D03*
X145923000Y-191897000D03*
X145669000Y-177165000D03*
X147447000Y-171069000D03*
X140970000Y-176784000D03*
X155448000Y-189357000D03*
D16*
X135890000Y-181356000D03*
D17*
X135890000Y-178816000D03*
X135890000Y-176276000D03*
D11*
X146304000Y-78097000D03*
X139954000Y-78097000D03*
D12*
X135890000Y-124206000D03*
D13*
X135890000Y-121666000D03*
D14*
X149097000Y-87376000D03*
X145797000Y-89876000D03*
X145797000Y-84876000D03*
D15*
X152146000Y-117348000D03*
X149225000Y-127762000D03*
X145923000Y-127762000D03*
X145669000Y-113030000D03*
X147447000Y-106934000D03*
X140970000Y-112649000D03*
X155448000Y-125222000D03*
D16*
X135890000Y-117221000D03*
D17*
X135890000Y-114681000D03*
X135890000Y-112141000D03*
D11*
X146304000Y-13962000D03*
X139954000Y-13962000D03*
D12*
X135890000Y-60071000D03*
D13*
X135890000Y-57531000D03*
D14*
X149097000Y-23241000D03*
X145797000Y-25741000D03*
X145797000Y-20741000D03*
D15*
X152146000Y-53213000D03*
X149225000Y-63627000D03*
X145923000Y-63627000D03*
X145669000Y-48895000D03*
X147447000Y-42799000D03*
X140970000Y-48514000D03*
X155448000Y-61087000D03*
D16*
X135890000Y-53086000D03*
D17*
X135890000Y-50546000D03*
X135890000Y-48006000D03*
D11*
X106045000Y-206367000D03*
X99695000Y-206367000D03*
D12*
X95631000Y-252476000D03*
D13*
X95631000Y-249936000D03*
D14*
X108838000Y-215646000D03*
X105538000Y-218146000D03*
X105538000Y-213146000D03*
D15*
X111887000Y-245618000D03*
X108966000Y-256032000D03*
X105664000Y-256032000D03*
X105410000Y-241300000D03*
X107188000Y-235204000D03*
X100711000Y-240919000D03*
X115189000Y-253492000D03*
D16*
X95631000Y-245491000D03*
D17*
X95631000Y-242951000D03*
X95631000Y-240411000D03*
D11*
X106045000Y-142232000D03*
X99695000Y-142232000D03*
D12*
X95631000Y-188341000D03*
D13*
X95631000Y-185801000D03*
D14*
X108838000Y-151511000D03*
X105538000Y-154011000D03*
X105538000Y-149011000D03*
D15*
X111887000Y-181483000D03*
X108966000Y-191897000D03*
X105664000Y-191897000D03*
X105410000Y-177165000D03*
X107188000Y-171069000D03*
X100711000Y-176784000D03*
X115189000Y-189357000D03*
D16*
X95631000Y-181356000D03*
D17*
X95631000Y-178816000D03*
X95631000Y-176276000D03*
D11*
X106045000Y-78097000D03*
X99695000Y-78097000D03*
D12*
X95631000Y-124206000D03*
D13*
X95631000Y-121666000D03*
D14*
X108838000Y-87376000D03*
X105538000Y-89876000D03*
X105538000Y-84876000D03*
D15*
X111887000Y-117348000D03*
X108966000Y-127762000D03*
X105664000Y-127762000D03*
X105410000Y-113030000D03*
X107188000Y-106934000D03*
X100711000Y-112649000D03*
X115189000Y-125222000D03*
D16*
X95631000Y-117221000D03*
D17*
X95631000Y-114681000D03*
X95631000Y-112141000D03*
D11*
X106045000Y-13962000D03*
X99695000Y-13962000D03*
D12*
X95631000Y-60071000D03*
D13*
X95631000Y-57531000D03*
D14*
X108838000Y-23241000D03*
X105538000Y-25741000D03*
X105538000Y-20741000D03*
D15*
X111887000Y-53213000D03*
X108966000Y-63627000D03*
X105664000Y-63627000D03*
X105410000Y-48895000D03*
X107188000Y-42799000D03*
X100711000Y-48514000D03*
X115189000Y-61087000D03*
D16*
X95631000Y-53086000D03*
D17*
X95631000Y-50546000D03*
X95631000Y-48006000D03*
D11*
X65786000Y-206367000D03*
X59436000Y-206367000D03*
D12*
X55372000Y-252476000D03*
D13*
X55372000Y-249936000D03*
D14*
X68579000Y-215646000D03*
X65279000Y-218146000D03*
X65279000Y-213146000D03*
D15*
X71628000Y-245618000D03*
X68707000Y-256032000D03*
X65405000Y-256032000D03*
X65151000Y-241300000D03*
X66929000Y-235204000D03*
X60452000Y-240919000D03*
X74930000Y-253492000D03*
D16*
X55372000Y-245491000D03*
D17*
X55372000Y-242951000D03*
X55372000Y-240411000D03*
D11*
X65786000Y-142232000D03*
X59436000Y-142232000D03*
D12*
X55372000Y-188341000D03*
D13*
X55372000Y-185801000D03*
D14*
X68579000Y-151511000D03*
X65279000Y-154011000D03*
X65279000Y-149011000D03*
D15*
X71628000Y-181483000D03*
X68707000Y-191897000D03*
X65405000Y-191897000D03*
X65151000Y-177165000D03*
X66929000Y-171069000D03*
X60452000Y-176784000D03*
X74930000Y-189357000D03*
D16*
X55372000Y-181356000D03*
D17*
X55372000Y-178816000D03*
X55372000Y-176276000D03*
D11*
X65786000Y-78097000D03*
X59436000Y-78097000D03*
D12*
X55372000Y-124206000D03*
D13*
X55372000Y-121666000D03*
D14*
X68579000Y-87376000D03*
X65279000Y-89876000D03*
X65279000Y-84876000D03*
D15*
X71628000Y-117348000D03*
X68707000Y-127762000D03*
X65405000Y-127762000D03*
X65151000Y-113030000D03*
X66929000Y-106934000D03*
X60452000Y-112649000D03*
X74930000Y-125222000D03*
D16*
X55372000Y-117221000D03*
D17*
X55372000Y-114681000D03*
X55372000Y-112141000D03*
D11*
X65786000Y-13962000D03*
X59436000Y-13962000D03*
D12*
X55372000Y-60071000D03*
D13*
X55372000Y-57531000D03*
D14*
X68579000Y-23241000D03*
X65279000Y-25741000D03*
X65279000Y-20741000D03*
D15*
X71628000Y-53213000D03*
X68707000Y-63627000D03*
X65405000Y-63627000D03*
X65151000Y-48895000D03*
X66929000Y-42799000D03*
X60452000Y-48514000D03*
X74930000Y-61087000D03*
D16*
X55372000Y-53086000D03*
D17*
X55372000Y-50546000D03*
X55372000Y-48006000D03*
D11*
X25527000Y-206367000D03*
X19177000Y-206367000D03*
D12*
X15113000Y-252476000D03*
D13*
X15113000Y-249936000D03*
D14*
X28320000Y-215646000D03*
X25020000Y-218146000D03*
X25020000Y-213146000D03*
D15*
X31369000Y-245618000D03*
X28448000Y-256032000D03*
X25146000Y-256032000D03*
X24892000Y-241300000D03*
X26670000Y-235204000D03*
X20193000Y-240919000D03*
X34671000Y-253492000D03*
D16*
X15113000Y-245491000D03*
D17*
X15113000Y-242951000D03*
X15113000Y-240411000D03*
D11*
X25527000Y-142232000D03*
X19177000Y-142232000D03*
D12*
X15113000Y-188341000D03*
D13*
X15113000Y-185801000D03*
D14*
X28320000Y-151511000D03*
X25020000Y-154011000D03*
X25020000Y-149011000D03*
D15*
X31369000Y-181483000D03*
X28448000Y-191897000D03*
X25146000Y-191897000D03*
X24892000Y-177165000D03*
X26670000Y-171069000D03*
X20193000Y-176784000D03*
X34671000Y-189357000D03*
D16*
X15113000Y-181356000D03*
D17*
X15113000Y-178816000D03*
X15113000Y-176276000D03*
D11*
X25527000Y-78097000D03*
X19177000Y-78097000D03*
D12*
X15113000Y-124206000D03*
D13*
X15113000Y-121666000D03*
D14*
X28320000Y-87376000D03*
X25020000Y-89876000D03*
X25020000Y-84876000D03*
D15*
X31369000Y-117348000D03*
X28448000Y-127762000D03*
X25146000Y-127762000D03*
X24892000Y-113030000D03*
X26670000Y-106934000D03*
X20193000Y-112649000D03*
X34671000Y-125222000D03*
D16*
X15113000Y-117221000D03*
D17*
X15113000Y-114681000D03*
X15113000Y-112141000D03*
D16*
X15113000Y-53086000D03*
D17*
X15113000Y-50546000D03*
X15113000Y-48006000D03*
D15*
X34671000Y-61087000D03*
X20193000Y-48514000D03*
X26670000Y-42799000D03*
X24892000Y-48895000D03*
X25146000Y-63627000D03*
X28448000Y-63627000D03*
X31369000Y-53213000D03*
D14*
X28320000Y-23241000D03*
X25020000Y-25741000D03*
X25020000Y-20741000D03*
D12*
X15113000Y-60071000D03*
D13*
X15113000Y-57531000D03*
D11*
X25527000Y-13962000D03*
X19177000Y-13962000D03*
M02*
