M48
INCH,TZ
T10C0.008
T11C0.013
T12C0.020
T13C0.020
T14C0.031
T15C0.040
T16C0.047
T17C0.024
T18C0.037
T19C0.079
%
T10
X056411Y-42871
X056411Y-43265
X056804Y-42871
X056804Y-43265
T11
X050880Y-55990
X050900Y-42400
X051700Y-49250
X051950Y-46750
X052070Y-52600
X052200Y-41450
X052200Y-49250
X052510Y-53010
X052610Y-50440
X052730Y-37600
X053070Y-37600
X053650Y-52800
X053950Y-41050
X054200Y-52800
X054250Y-44400
X054930Y-45750
X054948Y-42378
X055325Y-42925
X055650Y-53900
X055860Y-42320
X055910Y-40460
X056100Y-48100
X056100Y-52300
X056400Y-54050
X056419Y-44261
X056680Y-40440
X056700Y-45990
X056900Y-45040
X056990Y-51280
X057130Y-47750
X057181Y-44239
X057360Y-42320
X057549Y-47918
X057660Y-44400
X057660Y-44760
X057790Y-47678
X057900Y-43900
X058150Y-48600
X058250Y-44900
X058250Y-52300
X058350Y-47550
X058380Y-46600
X059000Y-43500
X059100Y-37450
X060350Y-35900
X060600Y-43500
X060650Y-44650
X060650Y-45300
X060850Y-41350
X060850Y-48150
X061250Y-37350
X061650Y-40250
X061700Y-37350
X061990Y-46140
T12
X051431Y-35885
X054069Y-35885
T13
X049740Y-45580
X050720Y-39740
X050800Y-55450
X050850Y-47300
X050850Y-52170
X051620Y-44420
X052180Y-58070
X053720Y-37410
X055350Y-56600
X055750Y-58100
X056960Y-55860
X057580Y-48580
X058020Y-56330
X058200Y-49400
X059960Y-37450
X060590Y-49930
X061030Y-35940
T14
X053800Y-38416
X053800Y-40384
X055100Y-39400
T15
X049900Y-52900
X049900Y-53900
X050050Y-49150
X050050Y-50150
X050050Y-51150
T16
X053250Y-45200
X053500Y-55550
X054150Y-48650
X055280Y-47560
X055650Y-49500
X055850Y-55600
X057600Y-54300
T17
X057000Y-57300
T18
X053140Y-57198
X054600Y-57200
T19
X051723Y-53915
X059833Y-42619
M30

