G04 #@! TF.FileFunction,Copper,L3,Inr,Signal*
%FSLAX46Y46*%
G04 Gerber Fmt 4.6, Leading zero omitted, Abs format (unit mm)*
G04 Created by KiCad (PCBNEW 0.201601221447+6507~42~ubuntu15.10.1-product) date Fri 22 Jan 2016 05:48:07 PM EST*
%MOMM*%
G01*
G04 APERTURE LIST*
%ADD10C,0.100000*%
%ADD11R,2.032000X1.727200*%
%ADD12O,2.032000X1.727200*%
%ADD13C,1.680000*%
%ADD14C,1.150000*%
%ADD15C,0.457000*%
%ADD16R,2.032000X2.032000*%
%ADD17O,2.032000X2.032000*%
%ADD18C,1.600000*%
%ADD19C,0.863600*%
%ADD20C,0.685800*%
%ADD21C,0.254000*%
G04 APERTURE END LIST*
D10*
D11*
X126746000Y-129921000D03*
D12*
X126746000Y-127381000D03*
X126746000Y-124841000D03*
D13*
X146304000Y-137922000D03*
X131826000Y-125349000D03*
X138303000Y-119634000D03*
X136525000Y-125730000D03*
X136779000Y-140462000D03*
X140081000Y-140462000D03*
X143002000Y-130048000D03*
D14*
X139953000Y-100076000D03*
X136653000Y-102576000D03*
X136653000Y-97576000D03*
D15*
X144283400Y-109892800D03*
X143283400Y-109892800D03*
X144283400Y-108892800D03*
X143283400Y-108892800D03*
D16*
X126746000Y-136906000D03*
D17*
X126746000Y-134366000D03*
D18*
X137160000Y-90797000D03*
X130810000Y-90797000D03*
D19*
X139567000Y-107639200D03*
X136448800Y-95021400D03*
D20*
X148209000Y-120777000D03*
X139319000Y-147447000D03*
X136906000Y-147320000D03*
X146939000Y-147701000D03*
X143637000Y-147701000D03*
X147574000Y-145542000D03*
X129159000Y-111887000D03*
X130810000Y-113919000D03*
X135636000Y-112395000D03*
X129921000Y-125984000D03*
X130429000Y-128143000D03*
X136398000Y-128143000D03*
X143383000Y-119888000D03*
X131064000Y-133604000D03*
X133477000Y-135255000D03*
X146431000Y-114554000D03*
X137160000Y-123698000D03*
X140208000Y-125857000D03*
X144780000Y-126619000D03*
X135763000Y-132842000D03*
X129235200Y-142214600D03*
X142011400Y-102768400D03*
X143967200Y-102717600D03*
D19*
X153898600Y-126822200D03*
X141605000Y-147574000D03*
X128828800Y-100939600D03*
X144678400Y-141884400D03*
X132537200Y-147497800D03*
D20*
X137033000Y-104267000D03*
X141351000Y-136906000D03*
D19*
X155016200Y-91287600D03*
X132588000Y-105283000D03*
X147828000Y-125476000D03*
D20*
X129159000Y-122301000D03*
X134239000Y-126238000D03*
X141605000Y-123317000D03*
X145542000Y-111760000D03*
X140208000Y-127381000D03*
X157454600Y-117195600D03*
D19*
X140462000Y-144653000D03*
X147370800Y-143078200D03*
X152298400Y-95123000D03*
X146253200Y-123393200D03*
X129032000Y-140843000D03*
D20*
X138049000Y-133985000D03*
X145669000Y-132842000D03*
X142494000Y-132842000D03*
X143256000Y-137287000D03*
X134797800Y-95504000D03*
X146786335Y-121101162D03*
X133934200Y-95504000D03*
X146175679Y-121711818D03*
X145694400Y-107492800D03*
X150114000Y-95123000D03*
X143304518Y-112422682D03*
X153289000Y-91186000D03*
X144018000Y-113919000D03*
X155575000Y-94869000D03*
X156591000Y-102235000D03*
X156718000Y-94869000D03*
X147955000Y-114046000D03*
X154559000Y-105029000D03*
X146474272Y-113643272D03*
X140524520Y-109030673D03*
X141884400Y-107492800D03*
X146456400Y-112776000D03*
X156718000Y-111887000D03*
X134620000Y-121539000D03*
X149860000Y-110490000D03*
X147701000Y-123444000D03*
X147066000Y-111506000D03*
X155448000Y-122301000D03*
X148082000Y-119253000D03*
X154003081Y-120570919D03*
X146939000Y-116332000D03*
X153924000Y-115316000D03*
X154940000Y-113919000D03*
X148082000Y-117856000D03*
D21*
X132588000Y-111633000D02*
X146431000Y-125476000D01*
X146431000Y-125476000D02*
X147828000Y-125476000D01*
X132588000Y-105283000D02*
X132588000Y-111633000D01*
G36*
X129375250Y-90510309D02*
X129374752Y-91081187D01*
X129592757Y-91608800D01*
X129996077Y-92012824D01*
X130523309Y-92231750D01*
X131094187Y-92232248D01*
X131621800Y-92014243D01*
X132025824Y-91610923D01*
X132244750Y-91083691D01*
X132245248Y-90512813D01*
X132134590Y-90245000D01*
X135835416Y-90245000D01*
X135725250Y-90510309D01*
X135724752Y-91081187D01*
X135942757Y-91608800D01*
X136346077Y-92012824D01*
X136873309Y-92231750D01*
X137444187Y-92232248D01*
X137971800Y-92014243D01*
X138375824Y-91610923D01*
X138594750Y-91083691D01*
X138595248Y-90512813D01*
X138484590Y-90245000D01*
X153005623Y-90245000D01*
X152735788Y-90356493D01*
X152460460Y-90631341D01*
X152311270Y-90990630D01*
X152310931Y-91379663D01*
X152459493Y-91739212D01*
X152734341Y-92014540D01*
X153093630Y-92163730D01*
X153482663Y-92164069D01*
X153842212Y-92015507D01*
X154069101Y-91789014D01*
X154111284Y-91891104D01*
X154411117Y-92191462D01*
X154803069Y-92354215D01*
X155227469Y-92354585D01*
X155619704Y-92192516D01*
X155920062Y-91892683D01*
X156082815Y-91500731D01*
X156083185Y-91076331D01*
X155921116Y-90684096D01*
X155621283Y-90383738D01*
X155287165Y-90245000D01*
X158802000Y-90245000D01*
X158802000Y-128397000D01*
X148971000Y-128397000D01*
X148922399Y-128406667D01*
X148881197Y-128434197D01*
X148853667Y-128475399D01*
X148844000Y-128524000D01*
X148844000Y-147880000D01*
X147916744Y-147880000D01*
X147917069Y-147507337D01*
X147768507Y-147147788D01*
X147493659Y-146872460D01*
X147134370Y-146723270D01*
X146745337Y-146722931D01*
X146385788Y-146871493D01*
X146110460Y-147146341D01*
X145961270Y-147505630D01*
X145960944Y-147880000D01*
X144614744Y-147880000D01*
X144615069Y-147507337D01*
X144466507Y-147147788D01*
X144191659Y-146872460D01*
X143832370Y-146723270D01*
X143443337Y-146722931D01*
X143083788Y-146871493D01*
X142808460Y-147146341D01*
X142671887Y-147475245D01*
X142671985Y-147362731D01*
X142509916Y-146970496D01*
X142210083Y-146670138D01*
X141818131Y-146507385D01*
X141393731Y-146507015D01*
X141001496Y-146669084D01*
X140701138Y-146968917D01*
X140538385Y-147360869D01*
X140538015Y-147785269D01*
X140577157Y-147880000D01*
X140198057Y-147880000D01*
X140296730Y-147642370D01*
X140297069Y-147253337D01*
X140148507Y-146893788D01*
X139873659Y-146618460D01*
X139514370Y-146469270D01*
X139125337Y-146468931D01*
X138765788Y-146617493D01*
X138490460Y-146892341D01*
X138341270Y-147251630D01*
X138340931Y-147640663D01*
X138439823Y-147880000D01*
X137729190Y-147880000D01*
X137734540Y-147874659D01*
X137883730Y-147515370D01*
X137884069Y-147126337D01*
X137735507Y-146766788D01*
X137460659Y-146491460D01*
X137101370Y-146342270D01*
X136712337Y-146341931D01*
X136352788Y-146490493D01*
X136077460Y-146765341D01*
X135928270Y-147124630D01*
X135927931Y-147513663D01*
X136076493Y-147873212D01*
X136083269Y-147880000D01*
X133533611Y-147880000D01*
X133603815Y-147710931D01*
X133604185Y-147286531D01*
X133442116Y-146894296D01*
X133142283Y-146593938D01*
X132750331Y-146431185D01*
X132325931Y-146430815D01*
X131933696Y-146592884D01*
X131633338Y-146892717D01*
X131470585Y-147284669D01*
X131470215Y-147709069D01*
X131540843Y-147880000D01*
X125043000Y-147880000D01*
X125043000Y-145503824D01*
X133865808Y-145503824D01*
X134034439Y-145911943D01*
X134346415Y-146224463D01*
X134754239Y-146393807D01*
X135195824Y-146394192D01*
X135603943Y-146225561D01*
X135916463Y-145913585D01*
X136084950Y-145507824D01*
X137573808Y-145507824D01*
X137742439Y-145915943D01*
X138054415Y-146228463D01*
X138462239Y-146397807D01*
X138903824Y-146398192D01*
X139311943Y-146229561D01*
X139624463Y-145917585D01*
X139703120Y-145728157D01*
X143839837Y-145728157D01*
X143982642Y-146073772D01*
X144246837Y-146338429D01*
X144592202Y-146481837D01*
X144966157Y-146482163D01*
X145311772Y-146339358D01*
X145576429Y-146075163D01*
X145717401Y-145735663D01*
X146595931Y-145735663D01*
X146744493Y-146095212D01*
X147019341Y-146370540D01*
X147378630Y-146519730D01*
X147767663Y-146520069D01*
X148127212Y-146371507D01*
X148402540Y-146096659D01*
X148551730Y-145737370D01*
X148552069Y-145348337D01*
X148403507Y-144988788D01*
X148128659Y-144713460D01*
X147769370Y-144564270D01*
X147380337Y-144563931D01*
X147020788Y-144712493D01*
X146745460Y-144987341D01*
X146596270Y-145346630D01*
X146595931Y-145735663D01*
X145717401Y-145735663D01*
X145719837Y-145729798D01*
X145720163Y-145355843D01*
X145577358Y-145010228D01*
X145313163Y-144745571D01*
X144967798Y-144602163D01*
X144593843Y-144601837D01*
X144248228Y-144744642D01*
X143983571Y-145008837D01*
X143840163Y-145354202D01*
X143839837Y-145728157D01*
X139703120Y-145728157D01*
X139793807Y-145509761D01*
X139794192Y-145068176D01*
X139625561Y-144660057D01*
X139313585Y-144347537D01*
X138905761Y-144178193D01*
X138464176Y-144177808D01*
X138056057Y-144346439D01*
X137743537Y-144658415D01*
X137574193Y-145066239D01*
X137573808Y-145507824D01*
X136084950Y-145507824D01*
X136085807Y-145505761D01*
X136086192Y-145064176D01*
X135917561Y-144656057D01*
X135605585Y-144343537D01*
X135197761Y-144174193D01*
X134756176Y-144173808D01*
X134348057Y-144342439D01*
X134035537Y-144654415D01*
X133866193Y-145062239D01*
X133865808Y-145503824D01*
X125043000Y-145503824D01*
X125043000Y-142408263D01*
X128257131Y-142408263D01*
X128405693Y-142767812D01*
X128680541Y-143043140D01*
X129039830Y-143192330D01*
X129428863Y-143192669D01*
X129788412Y-143044107D01*
X130063740Y-142769259D01*
X130212930Y-142409970D01*
X130213203Y-142095669D01*
X143611415Y-142095669D01*
X143773484Y-142487904D01*
X144073317Y-142788262D01*
X144465269Y-142951015D01*
X144889669Y-142951385D01*
X145281904Y-142789316D01*
X145582262Y-142489483D01*
X145745015Y-142097531D01*
X145745385Y-141673131D01*
X145583316Y-141280896D01*
X145283483Y-140980538D01*
X144891531Y-140817785D01*
X144467131Y-140817415D01*
X144074896Y-140979484D01*
X143774538Y-141279317D01*
X143611785Y-141671269D01*
X143611415Y-142095669D01*
X130213203Y-142095669D01*
X130213269Y-142020937D01*
X130064707Y-141661388D01*
X129789859Y-141386060D01*
X129430570Y-141236870D01*
X129041537Y-141236531D01*
X128681988Y-141385093D01*
X128406660Y-141659941D01*
X128257470Y-142019230D01*
X128257131Y-142408263D01*
X125043000Y-142408263D01*
X125043000Y-140754108D01*
X135303744Y-140754108D01*
X135527827Y-141296429D01*
X135942389Y-141711715D01*
X136484317Y-141936743D01*
X137071108Y-141937256D01*
X137613429Y-141713173D01*
X138028715Y-141298611D01*
X138253743Y-140756683D01*
X138253745Y-140754108D01*
X138605744Y-140754108D01*
X138829827Y-141296429D01*
X139244389Y-141711715D01*
X139786317Y-141936743D01*
X140373108Y-141937256D01*
X140915429Y-141713173D01*
X141330715Y-141298611D01*
X141555743Y-140756683D01*
X141556256Y-140169892D01*
X141332173Y-139627571D01*
X140917611Y-139212285D01*
X140375683Y-138987257D01*
X139788892Y-138986744D01*
X139246571Y-139210827D01*
X138831285Y-139625389D01*
X138606257Y-140167317D01*
X138605744Y-140754108D01*
X138253745Y-140754108D01*
X138254256Y-140169892D01*
X138030173Y-139627571D01*
X137615611Y-139212285D01*
X137073683Y-138987257D01*
X136486892Y-138986744D01*
X135944571Y-139210827D01*
X135529285Y-139625389D01*
X135304257Y-140167317D01*
X135303744Y-140754108D01*
X125043000Y-140754108D01*
X125043000Y-135890000D01*
X125082560Y-135890000D01*
X125082560Y-137922000D01*
X125131843Y-138169765D01*
X125272191Y-138379809D01*
X125482235Y-138520157D01*
X125730000Y-138569440D01*
X127762000Y-138569440D01*
X128009765Y-138520157D01*
X128219809Y-138379809D01*
X128360157Y-138169765D01*
X128409440Y-137922000D01*
X128409440Y-137266795D01*
X129740716Y-137266795D01*
X129989106Y-137867943D01*
X130448637Y-138328278D01*
X131049352Y-138577716D01*
X131699795Y-138578284D01*
X132300943Y-138329894D01*
X132761278Y-137870363D01*
X133010716Y-137269648D01*
X133010864Y-137099663D01*
X140372931Y-137099663D01*
X140521493Y-137459212D01*
X140796341Y-137734540D01*
X141155630Y-137883730D01*
X141544663Y-137884069D01*
X141904212Y-137735507D01*
X142179540Y-137460659D01*
X142278155Y-137223167D01*
X142277931Y-137480663D01*
X142426493Y-137840212D01*
X142701341Y-138115540D01*
X143060630Y-138264730D01*
X143449663Y-138265069D01*
X143572998Y-138214108D01*
X144828744Y-138214108D01*
X145052827Y-138756429D01*
X145467389Y-139171715D01*
X146009317Y-139396743D01*
X146596108Y-139397256D01*
X147138429Y-139173173D01*
X147553715Y-138758611D01*
X147778743Y-138216683D01*
X147779256Y-137629892D01*
X147555173Y-137087571D01*
X147140611Y-136672285D01*
X146598683Y-136447257D01*
X146011892Y-136446744D01*
X145469571Y-136670827D01*
X145054285Y-137085389D01*
X144829257Y-137627317D01*
X144828744Y-138214108D01*
X143572998Y-138214108D01*
X143809212Y-138116507D01*
X144084540Y-137841659D01*
X144233730Y-137482370D01*
X144234069Y-137093337D01*
X144085507Y-136733788D01*
X143810659Y-136458460D01*
X143451370Y-136309270D01*
X143062337Y-136308931D01*
X142702788Y-136457493D01*
X142427460Y-136732341D01*
X142328845Y-136969833D01*
X142329069Y-136712337D01*
X142180507Y-136352788D01*
X141905659Y-136077460D01*
X141546370Y-135928270D01*
X141157337Y-135927931D01*
X140797788Y-136076493D01*
X140522460Y-136351341D01*
X140373270Y-136710630D01*
X140372931Y-137099663D01*
X133010864Y-137099663D01*
X133011284Y-136619205D01*
X132762894Y-136018057D01*
X132303363Y-135557722D01*
X132040720Y-135448663D01*
X132498931Y-135448663D01*
X132647493Y-135808212D01*
X132922341Y-136083540D01*
X133281630Y-136232730D01*
X133670663Y-136233069D01*
X134030212Y-136084507D01*
X134305540Y-135809659D01*
X134454730Y-135450370D01*
X134455069Y-135061337D01*
X134306507Y-134701788D01*
X134031659Y-134426460D01*
X133672370Y-134277270D01*
X133283337Y-134276931D01*
X132923788Y-134425493D01*
X132648460Y-134700341D01*
X132499270Y-135059630D01*
X132498931Y-135448663D01*
X132040720Y-135448663D01*
X131702648Y-135308284D01*
X131052205Y-135307716D01*
X130451057Y-135556106D01*
X129990722Y-136015637D01*
X129741284Y-136616352D01*
X129740716Y-137266795D01*
X128409440Y-137266795D01*
X128409440Y-135890000D01*
X128360157Y-135642235D01*
X128219809Y-135432191D01*
X128062887Y-135327338D01*
X128152385Y-135230818D01*
X128351975Y-134748944D01*
X128232836Y-134493000D01*
X126873000Y-134493000D01*
X126873000Y-134513000D01*
X126619000Y-134513000D01*
X126619000Y-134493000D01*
X125259164Y-134493000D01*
X125140025Y-134748944D01*
X125339615Y-135230818D01*
X125429113Y-135327338D01*
X125272191Y-135432191D01*
X125131843Y-135642235D01*
X125082560Y-135890000D01*
X125043000Y-135890000D01*
X125043000Y-133983056D01*
X125140025Y-133983056D01*
X125259164Y-134239000D01*
X126619000Y-134239000D01*
X126619000Y-132878633D01*
X126873000Y-132878633D01*
X126873000Y-134239000D01*
X128232836Y-134239000D01*
X128351975Y-133983056D01*
X128275187Y-133797663D01*
X130085931Y-133797663D01*
X130234493Y-134157212D01*
X130509341Y-134432540D01*
X130868630Y-134581730D01*
X131257663Y-134582069D01*
X131617212Y-134433507D01*
X131892540Y-134158659D01*
X132041730Y-133799370D01*
X132042069Y-133410337D01*
X131893507Y-133050788D01*
X131878409Y-133035663D01*
X134784931Y-133035663D01*
X134933493Y-133395212D01*
X135208341Y-133670540D01*
X135567630Y-133819730D01*
X135956663Y-133820069D01*
X136316212Y-133671507D01*
X136591540Y-133396659D01*
X136740730Y-133037370D01*
X136740731Y-133035663D01*
X141515931Y-133035663D01*
X141664493Y-133395212D01*
X141939341Y-133670540D01*
X142298630Y-133819730D01*
X142687663Y-133820069D01*
X143047212Y-133671507D01*
X143322540Y-133396659D01*
X143471730Y-133037370D01*
X143471731Y-133035663D01*
X144690931Y-133035663D01*
X144839493Y-133395212D01*
X145114341Y-133670540D01*
X145473630Y-133819730D01*
X145862663Y-133820069D01*
X146222212Y-133671507D01*
X146497540Y-133396659D01*
X146646730Y-133037370D01*
X146647069Y-132648337D01*
X146498507Y-132288788D01*
X146223659Y-132013460D01*
X145864370Y-131864270D01*
X145475337Y-131863931D01*
X145115788Y-132012493D01*
X144840460Y-132287341D01*
X144691270Y-132646630D01*
X144690931Y-133035663D01*
X143471731Y-133035663D01*
X143472069Y-132648337D01*
X143323507Y-132288788D01*
X143048659Y-132013460D01*
X142689370Y-131864270D01*
X142300337Y-131863931D01*
X141940788Y-132012493D01*
X141665460Y-132287341D01*
X141516270Y-132646630D01*
X141515931Y-133035663D01*
X136740731Y-133035663D01*
X136741069Y-132648337D01*
X136592507Y-132288788D01*
X136317659Y-132013460D01*
X135958370Y-131864270D01*
X135569337Y-131863931D01*
X135209788Y-132012493D01*
X134934460Y-132287341D01*
X134785270Y-132646630D01*
X134784931Y-133035663D01*
X131878409Y-133035663D01*
X131618659Y-132775460D01*
X131259370Y-132626270D01*
X130870337Y-132625931D01*
X130510788Y-132774493D01*
X130235460Y-133049341D01*
X130086270Y-133408630D01*
X130085931Y-133797663D01*
X128275187Y-133797663D01*
X128152385Y-133501182D01*
X127714379Y-133028812D01*
X127128946Y-132760017D01*
X126873000Y-132878633D01*
X126619000Y-132878633D01*
X126363054Y-132760017D01*
X125777621Y-133028812D01*
X125339615Y-133501182D01*
X125140025Y-133983056D01*
X125043000Y-133983056D01*
X125043000Y-124841000D01*
X125062655Y-124841000D01*
X125176729Y-125414489D01*
X125501585Y-125900670D01*
X125816366Y-126111000D01*
X125501585Y-126321330D01*
X125176729Y-126807511D01*
X125062655Y-127381000D01*
X125176729Y-127954489D01*
X125501585Y-128440670D01*
X125518566Y-128452016D01*
X125482235Y-128459243D01*
X125272191Y-128599591D01*
X125131843Y-128809635D01*
X125082560Y-129057400D01*
X125082560Y-130784600D01*
X125131843Y-131032365D01*
X125272191Y-131242409D01*
X125482235Y-131382757D01*
X125730000Y-131432040D01*
X127762000Y-131432040D01*
X128009765Y-131382757D01*
X128219809Y-131242409D01*
X128360157Y-131032365D01*
X128409440Y-130784600D01*
X128409440Y-130340108D01*
X141526744Y-130340108D01*
X141750827Y-130882429D01*
X142165389Y-131297715D01*
X142707317Y-131522743D01*
X143294108Y-131523256D01*
X143836429Y-131299173D01*
X144251715Y-130884611D01*
X144476743Y-130342683D01*
X144477256Y-129755892D01*
X144253173Y-129213571D01*
X143838611Y-128798285D01*
X143296683Y-128573257D01*
X142709892Y-128572744D01*
X142167571Y-128796827D01*
X141752285Y-129211389D01*
X141527257Y-129753317D01*
X141526744Y-130340108D01*
X128409440Y-130340108D01*
X128409440Y-129057400D01*
X128360157Y-128809635D01*
X128219809Y-128599591D01*
X128009765Y-128459243D01*
X127973434Y-128452016D01*
X127990415Y-128440670D01*
X128059910Y-128336663D01*
X129450931Y-128336663D01*
X129599493Y-128696212D01*
X129874341Y-128971540D01*
X130233630Y-129120730D01*
X130622663Y-129121069D01*
X130982212Y-128972507D01*
X131257540Y-128697659D01*
X131406730Y-128338370D01*
X131407069Y-127949337D01*
X131258507Y-127589788D01*
X130983659Y-127314460D01*
X130624370Y-127165270D01*
X130235337Y-127164931D01*
X129875788Y-127313493D01*
X129600460Y-127588341D01*
X129451270Y-127947630D01*
X129450931Y-128336663D01*
X128059910Y-128336663D01*
X128315271Y-127954489D01*
X128429345Y-127381000D01*
X128315271Y-126807511D01*
X127990415Y-126321330D01*
X127775403Y-126177663D01*
X128942931Y-126177663D01*
X129091493Y-126537212D01*
X129366341Y-126812540D01*
X129725630Y-126961730D01*
X130114663Y-126962069D01*
X130474212Y-126813507D01*
X130749540Y-126538659D01*
X130802388Y-126411387D01*
X130989389Y-126598715D01*
X131531317Y-126823743D01*
X132118108Y-126824256D01*
X132660429Y-126600173D01*
X133075715Y-126185611D01*
X133143607Y-126022108D01*
X135049744Y-126022108D01*
X135273827Y-126564429D01*
X135688389Y-126979715D01*
X136169302Y-127179407D01*
X135844788Y-127313493D01*
X135569460Y-127588341D01*
X135420270Y-127947630D01*
X135419931Y-128336663D01*
X135568493Y-128696212D01*
X135843341Y-128971540D01*
X136202630Y-129120730D01*
X136591663Y-129121069D01*
X136951212Y-128972507D01*
X137226540Y-128697659D01*
X137375730Y-128338370D01*
X137376069Y-127949337D01*
X137227507Y-127589788D01*
X136952659Y-127314460D01*
X136689398Y-127205144D01*
X136817108Y-127205256D01*
X137359429Y-126981173D01*
X137774715Y-126566611D01*
X137988955Y-126050663D01*
X139229931Y-126050663D01*
X139378493Y-126410212D01*
X139653341Y-126685540D01*
X140012630Y-126834730D01*
X140401663Y-126835069D01*
X140455889Y-126812663D01*
X143801931Y-126812663D01*
X143950493Y-127172212D01*
X144225341Y-127447540D01*
X144584630Y-127596730D01*
X144973663Y-127597069D01*
X145333212Y-127448507D01*
X145608540Y-127173659D01*
X145666752Y-127033469D01*
X152831615Y-127033469D01*
X152993684Y-127425704D01*
X153293517Y-127726062D01*
X153685469Y-127888815D01*
X154109869Y-127889185D01*
X154502104Y-127727116D01*
X154802462Y-127427283D01*
X154965215Y-127035331D01*
X154965585Y-126610931D01*
X154803516Y-126218696D01*
X154503683Y-125918338D01*
X154111731Y-125755585D01*
X153687331Y-125755215D01*
X153295096Y-125917284D01*
X152994738Y-126217117D01*
X152831985Y-126609069D01*
X152831615Y-127033469D01*
X145666752Y-127033469D01*
X145757730Y-126814370D01*
X145758069Y-126425337D01*
X145609507Y-126065788D01*
X145334659Y-125790460D01*
X144975370Y-125641270D01*
X144586337Y-125640931D01*
X144226788Y-125789493D01*
X143951460Y-126064341D01*
X143802270Y-126423630D01*
X143801931Y-126812663D01*
X140455889Y-126812663D01*
X140761212Y-126686507D01*
X141036540Y-126411659D01*
X141185730Y-126052370D01*
X141186069Y-125663337D01*
X141037507Y-125303788D01*
X140762659Y-125028460D01*
X140403370Y-124879270D01*
X140014337Y-124878931D01*
X139654788Y-125027493D01*
X139379460Y-125302341D01*
X139230270Y-125661630D01*
X139229931Y-126050663D01*
X137988955Y-126050663D01*
X137999743Y-126024683D01*
X138000256Y-125437892D01*
X137776173Y-124895571D01*
X137497660Y-124616571D01*
X137713212Y-124527507D01*
X137988540Y-124252659D01*
X138137730Y-123893370D01*
X138138069Y-123504337D01*
X137989507Y-123144788D01*
X137714659Y-122869460D01*
X137355370Y-122720270D01*
X136966337Y-122719931D01*
X136606788Y-122868493D01*
X136331460Y-123143341D01*
X136182270Y-123502630D01*
X136181931Y-123891663D01*
X136330493Y-124251212D01*
X136334107Y-124254832D01*
X136232892Y-124254744D01*
X135690571Y-124478827D01*
X135275285Y-124893389D01*
X135050257Y-125435317D01*
X135049744Y-126022108D01*
X133143607Y-126022108D01*
X133300743Y-125643683D01*
X133301256Y-125056892D01*
X133077173Y-124514571D01*
X132662611Y-124099285D01*
X132120683Y-123874257D01*
X131533892Y-123873744D01*
X130991571Y-124097827D01*
X130576285Y-124512389D01*
X130351257Y-125054317D01*
X130351214Y-125103786D01*
X130116370Y-125006270D01*
X129727337Y-125005931D01*
X129367788Y-125154493D01*
X129092460Y-125429341D01*
X128943270Y-125788630D01*
X128942931Y-126177663D01*
X127775403Y-126177663D01*
X127675634Y-126111000D01*
X127990415Y-125900670D01*
X128315271Y-125414489D01*
X128429345Y-124841000D01*
X128315271Y-124267511D01*
X127990415Y-123781330D01*
X127504234Y-123456474D01*
X126930745Y-123342400D01*
X126561255Y-123342400D01*
X125987766Y-123456474D01*
X125501585Y-123781330D01*
X125176729Y-124267511D01*
X125062655Y-124841000D01*
X125043000Y-124841000D01*
X125043000Y-121732663D01*
X133641931Y-121732663D01*
X133790493Y-122092212D01*
X134065341Y-122367540D01*
X134424630Y-122516730D01*
X134813663Y-122517069D01*
X135173212Y-122368507D01*
X135448540Y-122093659D01*
X135597730Y-121734370D01*
X135598069Y-121345337D01*
X135449507Y-120985788D01*
X135174659Y-120710460D01*
X134815370Y-120561270D01*
X134426337Y-120560931D01*
X134066788Y-120709493D01*
X133791460Y-120984341D01*
X133642270Y-121343630D01*
X133641931Y-121732663D01*
X125043000Y-121732663D01*
X125043000Y-114112663D01*
X129831931Y-114112663D01*
X129980493Y-114472212D01*
X130255341Y-114747540D01*
X130614630Y-114896730D01*
X131003663Y-114897069D01*
X131363212Y-114748507D01*
X131638540Y-114473659D01*
X131787730Y-114114370D01*
X131788069Y-113725337D01*
X131639507Y-113365788D01*
X131364659Y-113090460D01*
X131005370Y-112941270D01*
X130616337Y-112940931D01*
X130256788Y-113089493D01*
X129981460Y-113364341D01*
X129832270Y-113723630D01*
X129831931Y-114112663D01*
X125043000Y-114112663D01*
X125043000Y-112080663D01*
X128180931Y-112080663D01*
X128329493Y-112440212D01*
X128604341Y-112715540D01*
X128963630Y-112864730D01*
X129352663Y-112865069D01*
X129712212Y-112716507D01*
X129987540Y-112441659D01*
X130136730Y-112082370D01*
X130137069Y-111693337D01*
X129988507Y-111333788D01*
X129713659Y-111058460D01*
X129354370Y-110909270D01*
X128965337Y-110908931D01*
X128605788Y-111057493D01*
X128330460Y-111332341D01*
X128181270Y-111691630D01*
X128180931Y-112080663D01*
X125043000Y-112080663D01*
X125043000Y-105494269D01*
X131521015Y-105494269D01*
X131683084Y-105886504D01*
X131826000Y-106029670D01*
X131826000Y-111633000D01*
X131884004Y-111924605D01*
X131973946Y-112059212D01*
X132049185Y-112171815D01*
X138036136Y-118158766D01*
X138010892Y-118158744D01*
X137468571Y-118382827D01*
X137053285Y-118797389D01*
X136828257Y-119339317D01*
X136827744Y-119926108D01*
X137051827Y-120468429D01*
X137466389Y-120883715D01*
X138008317Y-121108743D01*
X138595108Y-121109256D01*
X139137429Y-120885173D01*
X139552715Y-120470611D01*
X139777743Y-119928683D01*
X139777768Y-119900398D01*
X145892184Y-126014815D01*
X146135903Y-126177663D01*
X146139395Y-126179996D01*
X146431000Y-126238000D01*
X147081303Y-126238000D01*
X147222917Y-126379862D01*
X147614869Y-126542615D01*
X148039269Y-126542985D01*
X148431504Y-126380916D01*
X148731862Y-126081083D01*
X148894615Y-125689131D01*
X148894985Y-125264731D01*
X148732916Y-124872496D01*
X148433083Y-124572138D01*
X148041131Y-124409385D01*
X147925605Y-124409284D01*
X148254212Y-124273507D01*
X148529540Y-123998659D01*
X148678730Y-123639370D01*
X148679069Y-123250337D01*
X148530507Y-122890788D01*
X148255659Y-122615460D01*
X147964748Y-122494663D01*
X154469931Y-122494663D01*
X154618493Y-122854212D01*
X154893341Y-123129540D01*
X155252630Y-123278730D01*
X155641663Y-123279069D01*
X156001212Y-123130507D01*
X156276540Y-122855659D01*
X156425730Y-122496370D01*
X156426069Y-122107337D01*
X156277507Y-121747788D01*
X156002659Y-121472460D01*
X155643370Y-121323270D01*
X155254337Y-121322931D01*
X154894788Y-121471493D01*
X154619460Y-121746341D01*
X154470270Y-122105630D01*
X154469931Y-122494663D01*
X147964748Y-122494663D01*
X147896370Y-122466270D01*
X147507337Y-122465931D01*
X147147788Y-122614493D01*
X146872460Y-122889341D01*
X146723270Y-123248630D01*
X146722931Y-123637663D01*
X146871493Y-123997212D01*
X147146341Y-124272540D01*
X147505630Y-124421730D01*
X147585789Y-124421800D01*
X147224496Y-124571084D01*
X147081330Y-124714000D01*
X146746631Y-124714000D01*
X143938112Y-121905481D01*
X145197610Y-121905481D01*
X145346172Y-122265030D01*
X145621020Y-122540358D01*
X145980309Y-122689548D01*
X146369342Y-122689887D01*
X146728891Y-122541325D01*
X147004219Y-122266477D01*
X147103089Y-122028371D01*
X147339547Y-121930669D01*
X147614875Y-121655821D01*
X147641214Y-121592390D01*
X147654341Y-121605540D01*
X148013630Y-121754730D01*
X148402663Y-121755069D01*
X148762212Y-121606507D01*
X149037540Y-121331659D01*
X149186730Y-120972370D01*
X149186911Y-120764582D01*
X153025012Y-120764582D01*
X153173574Y-121124131D01*
X153448422Y-121399459D01*
X153807711Y-121548649D01*
X154196744Y-121548988D01*
X154556293Y-121400426D01*
X154831621Y-121125578D01*
X154980811Y-120766289D01*
X154981150Y-120377256D01*
X154832588Y-120017707D01*
X154557740Y-119742379D01*
X154198451Y-119593189D01*
X153809418Y-119592850D01*
X153449869Y-119741412D01*
X153174541Y-120016260D01*
X153025351Y-120375549D01*
X153025012Y-120764582D01*
X149186911Y-120764582D01*
X149187069Y-120583337D01*
X149038507Y-120223788D01*
X148766571Y-119951377D01*
X148910540Y-119807659D01*
X149059730Y-119448370D01*
X149060069Y-119059337D01*
X148911507Y-118699788D01*
X148766460Y-118554488D01*
X148910540Y-118410659D01*
X149059730Y-118051370D01*
X149060069Y-117662337D01*
X148911507Y-117302788D01*
X148636659Y-117027460D01*
X148277370Y-116878270D01*
X147888337Y-116877931D01*
X147697148Y-116956928D01*
X147767540Y-116886659D01*
X147916730Y-116527370D01*
X147917069Y-116138337D01*
X147768507Y-115778788D01*
X147499852Y-115509663D01*
X152945931Y-115509663D01*
X153094493Y-115869212D01*
X153369341Y-116144540D01*
X153728630Y-116293730D01*
X154117663Y-116294069D01*
X154477212Y-116145507D01*
X154752540Y-115870659D01*
X154901730Y-115511370D01*
X154902069Y-115122337D01*
X154808874Y-114896786D01*
X155133663Y-114897069D01*
X155493212Y-114748507D01*
X155768540Y-114473659D01*
X155917730Y-114114370D01*
X155918069Y-113725337D01*
X155769507Y-113365788D01*
X155494659Y-113090460D01*
X155135370Y-112941270D01*
X154746337Y-112940931D01*
X154386788Y-113089493D01*
X154111460Y-113364341D01*
X153962270Y-113723630D01*
X153961931Y-114112663D01*
X154055126Y-114338214D01*
X153730337Y-114337931D01*
X153370788Y-114486493D01*
X153095460Y-114761341D01*
X152946270Y-115120630D01*
X152945931Y-115509663D01*
X147499852Y-115509663D01*
X147493659Y-115503460D01*
X147134370Y-115354270D01*
X147013605Y-115354165D01*
X147259540Y-115108659D01*
X147369559Y-114843704D01*
X147400341Y-114874540D01*
X147759630Y-115023730D01*
X148148663Y-115024069D01*
X148508212Y-114875507D01*
X148783540Y-114600659D01*
X148932730Y-114241370D01*
X148933069Y-113852337D01*
X148784507Y-113492788D01*
X148509659Y-113217460D01*
X148150370Y-113068270D01*
X147761337Y-113067931D01*
X147401788Y-113216493D01*
X147369385Y-113248839D01*
X147344212Y-113187916D01*
X147434130Y-112971370D01*
X147434469Y-112582337D01*
X147374295Y-112436704D01*
X147619212Y-112335507D01*
X147874501Y-112080663D01*
X155739931Y-112080663D01*
X155888493Y-112440212D01*
X156163341Y-112715540D01*
X156522630Y-112864730D01*
X156911663Y-112865069D01*
X157271212Y-112716507D01*
X157546540Y-112441659D01*
X157695730Y-112082370D01*
X157696069Y-111693337D01*
X157547507Y-111333788D01*
X157272659Y-111058460D01*
X156913370Y-110909270D01*
X156524337Y-110908931D01*
X156164788Y-111057493D01*
X155889460Y-111332341D01*
X155740270Y-111691630D01*
X155739931Y-112080663D01*
X147874501Y-112080663D01*
X147894540Y-112060659D01*
X148043730Y-111701370D01*
X148044069Y-111312337D01*
X147895507Y-110952788D01*
X147626852Y-110683663D01*
X148881931Y-110683663D01*
X149030493Y-111043212D01*
X149305341Y-111318540D01*
X149664630Y-111467730D01*
X150053663Y-111468069D01*
X150413212Y-111319507D01*
X150688540Y-111044659D01*
X150837730Y-110685370D01*
X150838069Y-110296337D01*
X150689507Y-109936788D01*
X150414659Y-109661460D01*
X150055370Y-109512270D01*
X149666337Y-109511931D01*
X149306788Y-109660493D01*
X149031460Y-109935341D01*
X148882270Y-110294630D01*
X148881931Y-110683663D01*
X147626852Y-110683663D01*
X147620659Y-110677460D01*
X147261370Y-110528270D01*
X146872337Y-110527931D01*
X146512788Y-110676493D01*
X146237460Y-110951341D01*
X146088270Y-111310630D01*
X146087931Y-111699663D01*
X146148105Y-111845296D01*
X145903188Y-111946493D01*
X145627860Y-112221341D01*
X145478670Y-112580630D01*
X145478331Y-112969663D01*
X145586460Y-113231356D01*
X145496542Y-113447902D01*
X145496203Y-113836935D01*
X145582835Y-114046602D01*
X145453270Y-114358630D01*
X145452931Y-114747663D01*
X145601493Y-115107212D01*
X145876341Y-115382540D01*
X146235630Y-115531730D01*
X146356395Y-115531835D01*
X146110460Y-115777341D01*
X145961270Y-116136630D01*
X145960931Y-116525663D01*
X146109493Y-116885212D01*
X146384341Y-117160540D01*
X146743630Y-117309730D01*
X147132663Y-117310069D01*
X147323852Y-117231072D01*
X147253460Y-117301341D01*
X147104270Y-117660630D01*
X147103931Y-118049663D01*
X147252493Y-118409212D01*
X147397540Y-118554512D01*
X147253460Y-118698341D01*
X147104270Y-119057630D01*
X147103931Y-119446663D01*
X147252493Y-119806212D01*
X147524429Y-120078623D01*
X147380460Y-120222341D01*
X147354121Y-120285772D01*
X147340994Y-120272622D01*
X146981705Y-120123432D01*
X146592672Y-120123093D01*
X146233123Y-120271655D01*
X145957795Y-120546503D01*
X145858925Y-120784609D01*
X145622467Y-120882311D01*
X145347139Y-121157159D01*
X145197949Y-121516448D01*
X145197610Y-121905481D01*
X143938112Y-121905481D01*
X142114294Y-120081663D01*
X142404931Y-120081663D01*
X142553493Y-120441212D01*
X142828341Y-120716540D01*
X143187630Y-120865730D01*
X143576663Y-120866069D01*
X143936212Y-120717507D01*
X144211540Y-120442659D01*
X144360730Y-120083370D01*
X144361069Y-119694337D01*
X144212507Y-119334788D01*
X143937659Y-119059460D01*
X143578370Y-118910270D01*
X143189337Y-118909931D01*
X142829788Y-119058493D01*
X142554460Y-119333341D01*
X142405270Y-119692630D01*
X142404931Y-120081663D01*
X142114294Y-120081663D01*
X135380315Y-113347685D01*
X135440630Y-113372730D01*
X135829663Y-113373069D01*
X136189212Y-113224507D01*
X136464540Y-112949659D01*
X136602944Y-112616345D01*
X142326449Y-112616345D01*
X142475011Y-112975894D01*
X142749859Y-113251222D01*
X143109148Y-113400412D01*
X143174458Y-113400469D01*
X143040270Y-113723630D01*
X143039931Y-114112663D01*
X143188493Y-114472212D01*
X143463341Y-114747540D01*
X143822630Y-114896730D01*
X144211663Y-114897069D01*
X144571212Y-114748507D01*
X144846540Y-114473659D01*
X144995730Y-114114370D01*
X144996069Y-113725337D01*
X144847507Y-113365788D01*
X144572659Y-113090460D01*
X144213370Y-112941270D01*
X144148060Y-112941213D01*
X144282248Y-112618052D01*
X144282587Y-112229019D01*
X144134025Y-111869470D01*
X143859177Y-111594142D01*
X143499888Y-111444952D01*
X143110855Y-111444613D01*
X142751306Y-111593175D01*
X142475978Y-111868023D01*
X142326788Y-112227312D01*
X142326449Y-112616345D01*
X136602944Y-112616345D01*
X136613730Y-112590370D01*
X136614069Y-112201337D01*
X136465507Y-111841788D01*
X136190659Y-111566460D01*
X135831370Y-111417270D01*
X135442337Y-111416931D01*
X135082788Y-111565493D01*
X134807460Y-111840341D01*
X134658270Y-112199630D01*
X134657931Y-112588663D01*
X134683729Y-112651099D01*
X133350000Y-111317370D01*
X133350000Y-107850469D01*
X138500015Y-107850469D01*
X138662084Y-108242704D01*
X138961917Y-108543062D01*
X139353869Y-108705815D01*
X139600469Y-108706030D01*
X139546790Y-108835303D01*
X139546451Y-109224336D01*
X139695013Y-109583885D01*
X139969861Y-109859213D01*
X140329150Y-110008403D01*
X140718183Y-110008742D01*
X141077732Y-109860180D01*
X141353060Y-109585332D01*
X141502250Y-109226043D01*
X141502391Y-109063807D01*
X142419750Y-109063807D01*
X142550933Y-109381294D01*
X142562226Y-109392607D01*
X142551787Y-109403028D01*
X142420050Y-109720286D01*
X142419750Y-110063807D01*
X142550933Y-110381294D01*
X142793628Y-110624413D01*
X143110886Y-110756150D01*
X143454407Y-110756450D01*
X143771894Y-110625267D01*
X143783207Y-110613974D01*
X143793628Y-110624413D01*
X144110886Y-110756150D01*
X144454407Y-110756450D01*
X144771894Y-110625267D01*
X145015013Y-110382572D01*
X145146750Y-110065314D01*
X145147050Y-109721793D01*
X145015867Y-109404306D01*
X145004574Y-109392993D01*
X145015013Y-109382572D01*
X145146750Y-109065314D01*
X145147050Y-108721793D01*
X145087139Y-108576795D01*
X150340716Y-108576795D01*
X150589106Y-109177943D01*
X151048637Y-109638278D01*
X151649352Y-109887716D01*
X152299795Y-109888284D01*
X152900943Y-109639894D01*
X153361278Y-109180363D01*
X153610716Y-108579648D01*
X153611284Y-107929205D01*
X153362894Y-107328057D01*
X152903363Y-106867722D01*
X152302648Y-106618284D01*
X151652205Y-106617716D01*
X151051057Y-106866106D01*
X150590722Y-107325637D01*
X150341284Y-107926352D01*
X150340716Y-108576795D01*
X145087139Y-108576795D01*
X145015867Y-108404306D01*
X144773172Y-108161187D01*
X144455914Y-108029450D01*
X144112393Y-108029150D01*
X143794906Y-108160333D01*
X143783593Y-108171626D01*
X143773172Y-108161187D01*
X143455914Y-108029450D01*
X143112393Y-108029150D01*
X142794906Y-108160333D01*
X142551787Y-108403028D01*
X142420050Y-108720286D01*
X142419750Y-109063807D01*
X141502391Y-109063807D01*
X141502589Y-108837010D01*
X141354027Y-108477461D01*
X141079179Y-108202133D01*
X140719890Y-108052943D01*
X140550375Y-108052795D01*
X140633615Y-107852331D01*
X140633759Y-107686463D01*
X140906331Y-107686463D01*
X141054893Y-108046012D01*
X141329741Y-108321340D01*
X141689030Y-108470530D01*
X142078063Y-108470869D01*
X142437612Y-108322307D01*
X142712940Y-108047459D01*
X142862130Y-107688170D01*
X142862131Y-107686463D01*
X144716331Y-107686463D01*
X144864893Y-108046012D01*
X145139741Y-108321340D01*
X145499030Y-108470530D01*
X145888063Y-108470869D01*
X146247612Y-108322307D01*
X146522940Y-108047459D01*
X146672130Y-107688170D01*
X146672469Y-107299137D01*
X146523907Y-106939588D01*
X146249059Y-106664260D01*
X145889770Y-106515070D01*
X145500737Y-106514731D01*
X145141188Y-106663293D01*
X144865860Y-106938141D01*
X144716670Y-107297430D01*
X144716331Y-107686463D01*
X142862131Y-107686463D01*
X142862469Y-107299137D01*
X142713907Y-106939588D01*
X142439059Y-106664260D01*
X142079770Y-106515070D01*
X141690737Y-106514731D01*
X141331188Y-106663293D01*
X141055860Y-106938141D01*
X140906670Y-107297430D01*
X140906331Y-107686463D01*
X140633759Y-107686463D01*
X140633985Y-107427931D01*
X140471916Y-107035696D01*
X140172083Y-106735338D01*
X139780131Y-106572585D01*
X139355731Y-106572215D01*
X138963496Y-106734284D01*
X138663138Y-107034117D01*
X138500385Y-107426069D01*
X138500015Y-107850469D01*
X133350000Y-107850469D01*
X133350000Y-106029697D01*
X133491862Y-105888083D01*
X133654615Y-105496131D01*
X133654985Y-105071731D01*
X133492916Y-104679496D01*
X133193083Y-104379138D01*
X132801131Y-104216385D01*
X132376731Y-104216015D01*
X131984496Y-104378084D01*
X131684138Y-104677917D01*
X131521385Y-105069869D01*
X131521015Y-105494269D01*
X125043000Y-105494269D01*
X125043000Y-102815628D01*
X135442791Y-102815628D01*
X135626614Y-103260514D01*
X135966695Y-103601190D01*
X136213249Y-103703568D01*
X136204460Y-103712341D01*
X136055270Y-104071630D01*
X136054931Y-104460663D01*
X136203493Y-104820212D01*
X136478341Y-105095540D01*
X136837630Y-105244730D01*
X137226663Y-105245069D01*
X137280889Y-105222663D01*
X153580931Y-105222663D01*
X153729493Y-105582212D01*
X154004341Y-105857540D01*
X154363630Y-106006730D01*
X154752663Y-106007069D01*
X155112212Y-105858507D01*
X155387540Y-105583659D01*
X155536730Y-105224370D01*
X155537069Y-104835337D01*
X155388507Y-104475788D01*
X155113659Y-104200460D01*
X154754370Y-104051270D01*
X154365337Y-104050931D01*
X154005788Y-104199493D01*
X153730460Y-104474341D01*
X153581270Y-104833630D01*
X153580931Y-105222663D01*
X137280889Y-105222663D01*
X137586212Y-105096507D01*
X137861540Y-104821659D01*
X138010730Y-104462370D01*
X138011069Y-104073337D01*
X137862507Y-103713788D01*
X137587659Y-103438460D01*
X137526971Y-103413260D01*
X137678190Y-103262305D01*
X137802861Y-102962063D01*
X141033331Y-102962063D01*
X141181893Y-103321612D01*
X141456741Y-103596940D01*
X141816030Y-103746130D01*
X142205063Y-103746469D01*
X142564612Y-103597907D01*
X142839940Y-103323059D01*
X142989130Y-102963770D01*
X142989176Y-102911371D01*
X143137693Y-103270812D01*
X143412541Y-103546140D01*
X143771830Y-103695330D01*
X144160863Y-103695669D01*
X144520412Y-103547107D01*
X144795740Y-103272259D01*
X144944930Y-102912970D01*
X144945269Y-102523937D01*
X144905903Y-102428663D01*
X155612931Y-102428663D01*
X155761493Y-102788212D01*
X156036341Y-103063540D01*
X156395630Y-103212730D01*
X156784663Y-103213069D01*
X157144212Y-103064507D01*
X157419540Y-102789659D01*
X157568730Y-102430370D01*
X157569069Y-102041337D01*
X157420507Y-101681788D01*
X157145659Y-101406460D01*
X156786370Y-101257270D01*
X156397337Y-101256931D01*
X156037788Y-101405493D01*
X155762460Y-101680341D01*
X155613270Y-102039630D01*
X155612931Y-102428663D01*
X144905903Y-102428663D01*
X144796707Y-102164388D01*
X144521859Y-101889060D01*
X144162570Y-101739870D01*
X143773537Y-101739531D01*
X143413988Y-101888093D01*
X143138660Y-102162941D01*
X142989470Y-102522230D01*
X142989424Y-102574629D01*
X142840907Y-102215188D01*
X142566059Y-101939860D01*
X142206770Y-101790670D01*
X141817737Y-101790331D01*
X141458188Y-101938893D01*
X141182860Y-102213741D01*
X141033670Y-102573030D01*
X141033331Y-102962063D01*
X137802861Y-102962063D01*
X137862789Y-102817740D01*
X137863209Y-102336372D01*
X137679386Y-101891486D01*
X137339305Y-101550810D01*
X136894740Y-101366211D01*
X136413372Y-101365791D01*
X135968486Y-101549614D01*
X135627810Y-101889695D01*
X135443211Y-102334260D01*
X135442791Y-102815628D01*
X125043000Y-102815628D01*
X125043000Y-101150869D01*
X127761815Y-101150869D01*
X127923884Y-101543104D01*
X128223717Y-101843462D01*
X128615669Y-102006215D01*
X129040069Y-102006585D01*
X129432304Y-101844516D01*
X129732662Y-101544683D01*
X129895415Y-101152731D01*
X129895785Y-100728331D01*
X129733716Y-100336096D01*
X129713284Y-100315628D01*
X138742791Y-100315628D01*
X138926614Y-100760514D01*
X139266695Y-101101190D01*
X139711260Y-101285789D01*
X140192628Y-101286209D01*
X140637514Y-101102386D01*
X140978190Y-100762305D01*
X141162789Y-100317740D01*
X141163209Y-99836372D01*
X140979386Y-99391486D01*
X140639305Y-99050810D01*
X140194740Y-98866211D01*
X139713372Y-98865791D01*
X139268486Y-99049614D01*
X138927810Y-99389695D01*
X138743211Y-99834260D01*
X138742791Y-100315628D01*
X129713284Y-100315628D01*
X129433883Y-100035738D01*
X129041931Y-99872985D01*
X128617531Y-99872615D01*
X128225296Y-100034684D01*
X127924938Y-100334517D01*
X127762185Y-100726469D01*
X127761815Y-101150869D01*
X125043000Y-101150869D01*
X125043000Y-97815628D01*
X135442791Y-97815628D01*
X135626614Y-98260514D01*
X135966695Y-98601190D01*
X136411260Y-98785789D01*
X136892628Y-98786209D01*
X137337514Y-98602386D01*
X137678190Y-98262305D01*
X137862789Y-97817740D01*
X137863209Y-97336372D01*
X137679386Y-96891486D01*
X137339305Y-96550810D01*
X136894740Y-96366211D01*
X136413372Y-96365791D01*
X135968486Y-96549614D01*
X135627810Y-96889695D01*
X135443211Y-97334260D01*
X135442791Y-97815628D01*
X125043000Y-97815628D01*
X125043000Y-95697663D01*
X132956131Y-95697663D01*
X133104693Y-96057212D01*
X133379541Y-96332540D01*
X133738830Y-96481730D01*
X134127863Y-96482069D01*
X134366142Y-96383615D01*
X134602430Y-96481730D01*
X134991463Y-96482069D01*
X135351012Y-96333507D01*
X135626340Y-96058659D01*
X135729317Y-95810662D01*
X135843717Y-95925262D01*
X136235669Y-96088015D01*
X136660069Y-96088385D01*
X137052304Y-95926316D01*
X137352662Y-95626483D01*
X137481310Y-95316663D01*
X149135931Y-95316663D01*
X149284493Y-95676212D01*
X149559341Y-95951540D01*
X149918630Y-96100730D01*
X150307663Y-96101069D01*
X150667212Y-95952507D01*
X150942540Y-95677659D01*
X151091730Y-95318370D01*
X151091952Y-95062663D01*
X154596931Y-95062663D01*
X154745493Y-95422212D01*
X155020341Y-95697540D01*
X155379630Y-95846730D01*
X155768663Y-95847069D01*
X156128212Y-95698507D01*
X156146291Y-95680460D01*
X156163341Y-95697540D01*
X156522630Y-95846730D01*
X156911663Y-95847069D01*
X157271212Y-95698507D01*
X157546540Y-95423659D01*
X157695730Y-95064370D01*
X157696069Y-94675337D01*
X157547507Y-94315788D01*
X157272659Y-94040460D01*
X156913370Y-93891270D01*
X156524337Y-93890931D01*
X156164788Y-94039493D01*
X156146709Y-94057540D01*
X156129659Y-94040460D01*
X155770370Y-93891270D01*
X155381337Y-93890931D01*
X155021788Y-94039493D01*
X154746460Y-94314341D01*
X154597270Y-94673630D01*
X154596931Y-95062663D01*
X151091952Y-95062663D01*
X151092069Y-94929337D01*
X150943507Y-94569788D01*
X150668659Y-94294460D01*
X150309370Y-94145270D01*
X149920337Y-94144931D01*
X149560788Y-94293493D01*
X149285460Y-94568341D01*
X149136270Y-94927630D01*
X149135931Y-95316663D01*
X137481310Y-95316663D01*
X137515415Y-95234531D01*
X137515785Y-94810131D01*
X137353716Y-94417896D01*
X137053883Y-94117538D01*
X136661931Y-93954785D01*
X136237531Y-93954415D01*
X135845296Y-94116484D01*
X135544938Y-94416317D01*
X135412399Y-94735505D01*
X135352459Y-94675460D01*
X134993170Y-94526270D01*
X134604137Y-94525931D01*
X134365858Y-94624385D01*
X134129570Y-94526270D01*
X133740537Y-94525931D01*
X133380988Y-94674493D01*
X133105660Y-94949341D01*
X132956470Y-95308630D01*
X132956131Y-95697663D01*
X125043000Y-95697663D01*
X125043000Y-90245000D01*
X129485416Y-90245000D01*
X129375250Y-90510309D01*
X129375250Y-90510309D01*
G37*
X129375250Y-90510309D02*
X129374752Y-91081187D01*
X129592757Y-91608800D01*
X129996077Y-92012824D01*
X130523309Y-92231750D01*
X131094187Y-92232248D01*
X131621800Y-92014243D01*
X132025824Y-91610923D01*
X132244750Y-91083691D01*
X132245248Y-90512813D01*
X132134590Y-90245000D01*
X135835416Y-90245000D01*
X135725250Y-90510309D01*
X135724752Y-91081187D01*
X135942757Y-91608800D01*
X136346077Y-92012824D01*
X136873309Y-92231750D01*
X137444187Y-92232248D01*
X137971800Y-92014243D01*
X138375824Y-91610923D01*
X138594750Y-91083691D01*
X138595248Y-90512813D01*
X138484590Y-90245000D01*
X153005623Y-90245000D01*
X152735788Y-90356493D01*
X152460460Y-90631341D01*
X152311270Y-90990630D01*
X152310931Y-91379663D01*
X152459493Y-91739212D01*
X152734341Y-92014540D01*
X153093630Y-92163730D01*
X153482663Y-92164069D01*
X153842212Y-92015507D01*
X154069101Y-91789014D01*
X154111284Y-91891104D01*
X154411117Y-92191462D01*
X154803069Y-92354215D01*
X155227469Y-92354585D01*
X155619704Y-92192516D01*
X155920062Y-91892683D01*
X156082815Y-91500731D01*
X156083185Y-91076331D01*
X155921116Y-90684096D01*
X155621283Y-90383738D01*
X155287165Y-90245000D01*
X158802000Y-90245000D01*
X158802000Y-128397000D01*
X148971000Y-128397000D01*
X148922399Y-128406667D01*
X148881197Y-128434197D01*
X148853667Y-128475399D01*
X148844000Y-128524000D01*
X148844000Y-147880000D01*
X147916744Y-147880000D01*
X147917069Y-147507337D01*
X147768507Y-147147788D01*
X147493659Y-146872460D01*
X147134370Y-146723270D01*
X146745337Y-146722931D01*
X146385788Y-146871493D01*
X146110460Y-147146341D01*
X145961270Y-147505630D01*
X145960944Y-147880000D01*
X144614744Y-147880000D01*
X144615069Y-147507337D01*
X144466507Y-147147788D01*
X144191659Y-146872460D01*
X143832370Y-146723270D01*
X143443337Y-146722931D01*
X143083788Y-146871493D01*
X142808460Y-147146341D01*
X142671887Y-147475245D01*
X142671985Y-147362731D01*
X142509916Y-146970496D01*
X142210083Y-146670138D01*
X141818131Y-146507385D01*
X141393731Y-146507015D01*
X141001496Y-146669084D01*
X140701138Y-146968917D01*
X140538385Y-147360869D01*
X140538015Y-147785269D01*
X140577157Y-147880000D01*
X140198057Y-147880000D01*
X140296730Y-147642370D01*
X140297069Y-147253337D01*
X140148507Y-146893788D01*
X139873659Y-146618460D01*
X139514370Y-146469270D01*
X139125337Y-146468931D01*
X138765788Y-146617493D01*
X138490460Y-146892341D01*
X138341270Y-147251630D01*
X138340931Y-147640663D01*
X138439823Y-147880000D01*
X137729190Y-147880000D01*
X137734540Y-147874659D01*
X137883730Y-147515370D01*
X137884069Y-147126337D01*
X137735507Y-146766788D01*
X137460659Y-146491460D01*
X137101370Y-146342270D01*
X136712337Y-146341931D01*
X136352788Y-146490493D01*
X136077460Y-146765341D01*
X135928270Y-147124630D01*
X135927931Y-147513663D01*
X136076493Y-147873212D01*
X136083269Y-147880000D01*
X133533611Y-147880000D01*
X133603815Y-147710931D01*
X133604185Y-147286531D01*
X133442116Y-146894296D01*
X133142283Y-146593938D01*
X132750331Y-146431185D01*
X132325931Y-146430815D01*
X131933696Y-146592884D01*
X131633338Y-146892717D01*
X131470585Y-147284669D01*
X131470215Y-147709069D01*
X131540843Y-147880000D01*
X125043000Y-147880000D01*
X125043000Y-145503824D01*
X133865808Y-145503824D01*
X134034439Y-145911943D01*
X134346415Y-146224463D01*
X134754239Y-146393807D01*
X135195824Y-146394192D01*
X135603943Y-146225561D01*
X135916463Y-145913585D01*
X136084950Y-145507824D01*
X137573808Y-145507824D01*
X137742439Y-145915943D01*
X138054415Y-146228463D01*
X138462239Y-146397807D01*
X138903824Y-146398192D01*
X139311943Y-146229561D01*
X139624463Y-145917585D01*
X139703120Y-145728157D01*
X143839837Y-145728157D01*
X143982642Y-146073772D01*
X144246837Y-146338429D01*
X144592202Y-146481837D01*
X144966157Y-146482163D01*
X145311772Y-146339358D01*
X145576429Y-146075163D01*
X145717401Y-145735663D01*
X146595931Y-145735663D01*
X146744493Y-146095212D01*
X147019341Y-146370540D01*
X147378630Y-146519730D01*
X147767663Y-146520069D01*
X148127212Y-146371507D01*
X148402540Y-146096659D01*
X148551730Y-145737370D01*
X148552069Y-145348337D01*
X148403507Y-144988788D01*
X148128659Y-144713460D01*
X147769370Y-144564270D01*
X147380337Y-144563931D01*
X147020788Y-144712493D01*
X146745460Y-144987341D01*
X146596270Y-145346630D01*
X146595931Y-145735663D01*
X145717401Y-145735663D01*
X145719837Y-145729798D01*
X145720163Y-145355843D01*
X145577358Y-145010228D01*
X145313163Y-144745571D01*
X144967798Y-144602163D01*
X144593843Y-144601837D01*
X144248228Y-144744642D01*
X143983571Y-145008837D01*
X143840163Y-145354202D01*
X143839837Y-145728157D01*
X139703120Y-145728157D01*
X139793807Y-145509761D01*
X139794192Y-145068176D01*
X139625561Y-144660057D01*
X139313585Y-144347537D01*
X138905761Y-144178193D01*
X138464176Y-144177808D01*
X138056057Y-144346439D01*
X137743537Y-144658415D01*
X137574193Y-145066239D01*
X137573808Y-145507824D01*
X136084950Y-145507824D01*
X136085807Y-145505761D01*
X136086192Y-145064176D01*
X135917561Y-144656057D01*
X135605585Y-144343537D01*
X135197761Y-144174193D01*
X134756176Y-144173808D01*
X134348057Y-144342439D01*
X134035537Y-144654415D01*
X133866193Y-145062239D01*
X133865808Y-145503824D01*
X125043000Y-145503824D01*
X125043000Y-142408263D01*
X128257131Y-142408263D01*
X128405693Y-142767812D01*
X128680541Y-143043140D01*
X129039830Y-143192330D01*
X129428863Y-143192669D01*
X129788412Y-143044107D01*
X130063740Y-142769259D01*
X130212930Y-142409970D01*
X130213203Y-142095669D01*
X143611415Y-142095669D01*
X143773484Y-142487904D01*
X144073317Y-142788262D01*
X144465269Y-142951015D01*
X144889669Y-142951385D01*
X145281904Y-142789316D01*
X145582262Y-142489483D01*
X145745015Y-142097531D01*
X145745385Y-141673131D01*
X145583316Y-141280896D01*
X145283483Y-140980538D01*
X144891531Y-140817785D01*
X144467131Y-140817415D01*
X144074896Y-140979484D01*
X143774538Y-141279317D01*
X143611785Y-141671269D01*
X143611415Y-142095669D01*
X130213203Y-142095669D01*
X130213269Y-142020937D01*
X130064707Y-141661388D01*
X129789859Y-141386060D01*
X129430570Y-141236870D01*
X129041537Y-141236531D01*
X128681988Y-141385093D01*
X128406660Y-141659941D01*
X128257470Y-142019230D01*
X128257131Y-142408263D01*
X125043000Y-142408263D01*
X125043000Y-140754108D01*
X135303744Y-140754108D01*
X135527827Y-141296429D01*
X135942389Y-141711715D01*
X136484317Y-141936743D01*
X137071108Y-141937256D01*
X137613429Y-141713173D01*
X138028715Y-141298611D01*
X138253743Y-140756683D01*
X138253745Y-140754108D01*
X138605744Y-140754108D01*
X138829827Y-141296429D01*
X139244389Y-141711715D01*
X139786317Y-141936743D01*
X140373108Y-141937256D01*
X140915429Y-141713173D01*
X141330715Y-141298611D01*
X141555743Y-140756683D01*
X141556256Y-140169892D01*
X141332173Y-139627571D01*
X140917611Y-139212285D01*
X140375683Y-138987257D01*
X139788892Y-138986744D01*
X139246571Y-139210827D01*
X138831285Y-139625389D01*
X138606257Y-140167317D01*
X138605744Y-140754108D01*
X138253745Y-140754108D01*
X138254256Y-140169892D01*
X138030173Y-139627571D01*
X137615611Y-139212285D01*
X137073683Y-138987257D01*
X136486892Y-138986744D01*
X135944571Y-139210827D01*
X135529285Y-139625389D01*
X135304257Y-140167317D01*
X135303744Y-140754108D01*
X125043000Y-140754108D01*
X125043000Y-135890000D01*
X125082560Y-135890000D01*
X125082560Y-137922000D01*
X125131843Y-138169765D01*
X125272191Y-138379809D01*
X125482235Y-138520157D01*
X125730000Y-138569440D01*
X127762000Y-138569440D01*
X128009765Y-138520157D01*
X128219809Y-138379809D01*
X128360157Y-138169765D01*
X128409440Y-137922000D01*
X128409440Y-137266795D01*
X129740716Y-137266795D01*
X129989106Y-137867943D01*
X130448637Y-138328278D01*
X131049352Y-138577716D01*
X131699795Y-138578284D01*
X132300943Y-138329894D01*
X132761278Y-137870363D01*
X133010716Y-137269648D01*
X133010864Y-137099663D01*
X140372931Y-137099663D01*
X140521493Y-137459212D01*
X140796341Y-137734540D01*
X141155630Y-137883730D01*
X141544663Y-137884069D01*
X141904212Y-137735507D01*
X142179540Y-137460659D01*
X142278155Y-137223167D01*
X142277931Y-137480663D01*
X142426493Y-137840212D01*
X142701341Y-138115540D01*
X143060630Y-138264730D01*
X143449663Y-138265069D01*
X143572998Y-138214108D01*
X144828744Y-138214108D01*
X145052827Y-138756429D01*
X145467389Y-139171715D01*
X146009317Y-139396743D01*
X146596108Y-139397256D01*
X147138429Y-139173173D01*
X147553715Y-138758611D01*
X147778743Y-138216683D01*
X147779256Y-137629892D01*
X147555173Y-137087571D01*
X147140611Y-136672285D01*
X146598683Y-136447257D01*
X146011892Y-136446744D01*
X145469571Y-136670827D01*
X145054285Y-137085389D01*
X144829257Y-137627317D01*
X144828744Y-138214108D01*
X143572998Y-138214108D01*
X143809212Y-138116507D01*
X144084540Y-137841659D01*
X144233730Y-137482370D01*
X144234069Y-137093337D01*
X144085507Y-136733788D01*
X143810659Y-136458460D01*
X143451370Y-136309270D01*
X143062337Y-136308931D01*
X142702788Y-136457493D01*
X142427460Y-136732341D01*
X142328845Y-136969833D01*
X142329069Y-136712337D01*
X142180507Y-136352788D01*
X141905659Y-136077460D01*
X141546370Y-135928270D01*
X141157337Y-135927931D01*
X140797788Y-136076493D01*
X140522460Y-136351341D01*
X140373270Y-136710630D01*
X140372931Y-137099663D01*
X133010864Y-137099663D01*
X133011284Y-136619205D01*
X132762894Y-136018057D01*
X132303363Y-135557722D01*
X132040720Y-135448663D01*
X132498931Y-135448663D01*
X132647493Y-135808212D01*
X132922341Y-136083540D01*
X133281630Y-136232730D01*
X133670663Y-136233069D01*
X134030212Y-136084507D01*
X134305540Y-135809659D01*
X134454730Y-135450370D01*
X134455069Y-135061337D01*
X134306507Y-134701788D01*
X134031659Y-134426460D01*
X133672370Y-134277270D01*
X133283337Y-134276931D01*
X132923788Y-134425493D01*
X132648460Y-134700341D01*
X132499270Y-135059630D01*
X132498931Y-135448663D01*
X132040720Y-135448663D01*
X131702648Y-135308284D01*
X131052205Y-135307716D01*
X130451057Y-135556106D01*
X129990722Y-136015637D01*
X129741284Y-136616352D01*
X129740716Y-137266795D01*
X128409440Y-137266795D01*
X128409440Y-135890000D01*
X128360157Y-135642235D01*
X128219809Y-135432191D01*
X128062887Y-135327338D01*
X128152385Y-135230818D01*
X128351975Y-134748944D01*
X128232836Y-134493000D01*
X126873000Y-134493000D01*
X126873000Y-134513000D01*
X126619000Y-134513000D01*
X126619000Y-134493000D01*
X125259164Y-134493000D01*
X125140025Y-134748944D01*
X125339615Y-135230818D01*
X125429113Y-135327338D01*
X125272191Y-135432191D01*
X125131843Y-135642235D01*
X125082560Y-135890000D01*
X125043000Y-135890000D01*
X125043000Y-133983056D01*
X125140025Y-133983056D01*
X125259164Y-134239000D01*
X126619000Y-134239000D01*
X126619000Y-132878633D01*
X126873000Y-132878633D01*
X126873000Y-134239000D01*
X128232836Y-134239000D01*
X128351975Y-133983056D01*
X128275187Y-133797663D01*
X130085931Y-133797663D01*
X130234493Y-134157212D01*
X130509341Y-134432540D01*
X130868630Y-134581730D01*
X131257663Y-134582069D01*
X131617212Y-134433507D01*
X131892540Y-134158659D01*
X132041730Y-133799370D01*
X132042069Y-133410337D01*
X131893507Y-133050788D01*
X131878409Y-133035663D01*
X134784931Y-133035663D01*
X134933493Y-133395212D01*
X135208341Y-133670540D01*
X135567630Y-133819730D01*
X135956663Y-133820069D01*
X136316212Y-133671507D01*
X136591540Y-133396659D01*
X136740730Y-133037370D01*
X136740731Y-133035663D01*
X141515931Y-133035663D01*
X141664493Y-133395212D01*
X141939341Y-133670540D01*
X142298630Y-133819730D01*
X142687663Y-133820069D01*
X143047212Y-133671507D01*
X143322540Y-133396659D01*
X143471730Y-133037370D01*
X143471731Y-133035663D01*
X144690931Y-133035663D01*
X144839493Y-133395212D01*
X145114341Y-133670540D01*
X145473630Y-133819730D01*
X145862663Y-133820069D01*
X146222212Y-133671507D01*
X146497540Y-133396659D01*
X146646730Y-133037370D01*
X146647069Y-132648337D01*
X146498507Y-132288788D01*
X146223659Y-132013460D01*
X145864370Y-131864270D01*
X145475337Y-131863931D01*
X145115788Y-132012493D01*
X144840460Y-132287341D01*
X144691270Y-132646630D01*
X144690931Y-133035663D01*
X143471731Y-133035663D01*
X143472069Y-132648337D01*
X143323507Y-132288788D01*
X143048659Y-132013460D01*
X142689370Y-131864270D01*
X142300337Y-131863931D01*
X141940788Y-132012493D01*
X141665460Y-132287341D01*
X141516270Y-132646630D01*
X141515931Y-133035663D01*
X136740731Y-133035663D01*
X136741069Y-132648337D01*
X136592507Y-132288788D01*
X136317659Y-132013460D01*
X135958370Y-131864270D01*
X135569337Y-131863931D01*
X135209788Y-132012493D01*
X134934460Y-132287341D01*
X134785270Y-132646630D01*
X134784931Y-133035663D01*
X131878409Y-133035663D01*
X131618659Y-132775460D01*
X131259370Y-132626270D01*
X130870337Y-132625931D01*
X130510788Y-132774493D01*
X130235460Y-133049341D01*
X130086270Y-133408630D01*
X130085931Y-133797663D01*
X128275187Y-133797663D01*
X128152385Y-133501182D01*
X127714379Y-133028812D01*
X127128946Y-132760017D01*
X126873000Y-132878633D01*
X126619000Y-132878633D01*
X126363054Y-132760017D01*
X125777621Y-133028812D01*
X125339615Y-133501182D01*
X125140025Y-133983056D01*
X125043000Y-133983056D01*
X125043000Y-124841000D01*
X125062655Y-124841000D01*
X125176729Y-125414489D01*
X125501585Y-125900670D01*
X125816366Y-126111000D01*
X125501585Y-126321330D01*
X125176729Y-126807511D01*
X125062655Y-127381000D01*
X125176729Y-127954489D01*
X125501585Y-128440670D01*
X125518566Y-128452016D01*
X125482235Y-128459243D01*
X125272191Y-128599591D01*
X125131843Y-128809635D01*
X125082560Y-129057400D01*
X125082560Y-130784600D01*
X125131843Y-131032365D01*
X125272191Y-131242409D01*
X125482235Y-131382757D01*
X125730000Y-131432040D01*
X127762000Y-131432040D01*
X128009765Y-131382757D01*
X128219809Y-131242409D01*
X128360157Y-131032365D01*
X128409440Y-130784600D01*
X128409440Y-130340108D01*
X141526744Y-130340108D01*
X141750827Y-130882429D01*
X142165389Y-131297715D01*
X142707317Y-131522743D01*
X143294108Y-131523256D01*
X143836429Y-131299173D01*
X144251715Y-130884611D01*
X144476743Y-130342683D01*
X144477256Y-129755892D01*
X144253173Y-129213571D01*
X143838611Y-128798285D01*
X143296683Y-128573257D01*
X142709892Y-128572744D01*
X142167571Y-128796827D01*
X141752285Y-129211389D01*
X141527257Y-129753317D01*
X141526744Y-130340108D01*
X128409440Y-130340108D01*
X128409440Y-129057400D01*
X128360157Y-128809635D01*
X128219809Y-128599591D01*
X128009765Y-128459243D01*
X127973434Y-128452016D01*
X127990415Y-128440670D01*
X128059910Y-128336663D01*
X129450931Y-128336663D01*
X129599493Y-128696212D01*
X129874341Y-128971540D01*
X130233630Y-129120730D01*
X130622663Y-129121069D01*
X130982212Y-128972507D01*
X131257540Y-128697659D01*
X131406730Y-128338370D01*
X131407069Y-127949337D01*
X131258507Y-127589788D01*
X130983659Y-127314460D01*
X130624370Y-127165270D01*
X130235337Y-127164931D01*
X129875788Y-127313493D01*
X129600460Y-127588341D01*
X129451270Y-127947630D01*
X129450931Y-128336663D01*
X128059910Y-128336663D01*
X128315271Y-127954489D01*
X128429345Y-127381000D01*
X128315271Y-126807511D01*
X127990415Y-126321330D01*
X127775403Y-126177663D01*
X128942931Y-126177663D01*
X129091493Y-126537212D01*
X129366341Y-126812540D01*
X129725630Y-126961730D01*
X130114663Y-126962069D01*
X130474212Y-126813507D01*
X130749540Y-126538659D01*
X130802388Y-126411387D01*
X130989389Y-126598715D01*
X131531317Y-126823743D01*
X132118108Y-126824256D01*
X132660429Y-126600173D01*
X133075715Y-126185611D01*
X133143607Y-126022108D01*
X135049744Y-126022108D01*
X135273827Y-126564429D01*
X135688389Y-126979715D01*
X136169302Y-127179407D01*
X135844788Y-127313493D01*
X135569460Y-127588341D01*
X135420270Y-127947630D01*
X135419931Y-128336663D01*
X135568493Y-128696212D01*
X135843341Y-128971540D01*
X136202630Y-129120730D01*
X136591663Y-129121069D01*
X136951212Y-128972507D01*
X137226540Y-128697659D01*
X137375730Y-128338370D01*
X137376069Y-127949337D01*
X137227507Y-127589788D01*
X136952659Y-127314460D01*
X136689398Y-127205144D01*
X136817108Y-127205256D01*
X137359429Y-126981173D01*
X137774715Y-126566611D01*
X137988955Y-126050663D01*
X139229931Y-126050663D01*
X139378493Y-126410212D01*
X139653341Y-126685540D01*
X140012630Y-126834730D01*
X140401663Y-126835069D01*
X140455889Y-126812663D01*
X143801931Y-126812663D01*
X143950493Y-127172212D01*
X144225341Y-127447540D01*
X144584630Y-127596730D01*
X144973663Y-127597069D01*
X145333212Y-127448507D01*
X145608540Y-127173659D01*
X145666752Y-127033469D01*
X152831615Y-127033469D01*
X152993684Y-127425704D01*
X153293517Y-127726062D01*
X153685469Y-127888815D01*
X154109869Y-127889185D01*
X154502104Y-127727116D01*
X154802462Y-127427283D01*
X154965215Y-127035331D01*
X154965585Y-126610931D01*
X154803516Y-126218696D01*
X154503683Y-125918338D01*
X154111731Y-125755585D01*
X153687331Y-125755215D01*
X153295096Y-125917284D01*
X152994738Y-126217117D01*
X152831985Y-126609069D01*
X152831615Y-127033469D01*
X145666752Y-127033469D01*
X145757730Y-126814370D01*
X145758069Y-126425337D01*
X145609507Y-126065788D01*
X145334659Y-125790460D01*
X144975370Y-125641270D01*
X144586337Y-125640931D01*
X144226788Y-125789493D01*
X143951460Y-126064341D01*
X143802270Y-126423630D01*
X143801931Y-126812663D01*
X140455889Y-126812663D01*
X140761212Y-126686507D01*
X141036540Y-126411659D01*
X141185730Y-126052370D01*
X141186069Y-125663337D01*
X141037507Y-125303788D01*
X140762659Y-125028460D01*
X140403370Y-124879270D01*
X140014337Y-124878931D01*
X139654788Y-125027493D01*
X139379460Y-125302341D01*
X139230270Y-125661630D01*
X139229931Y-126050663D01*
X137988955Y-126050663D01*
X137999743Y-126024683D01*
X138000256Y-125437892D01*
X137776173Y-124895571D01*
X137497660Y-124616571D01*
X137713212Y-124527507D01*
X137988540Y-124252659D01*
X138137730Y-123893370D01*
X138138069Y-123504337D01*
X137989507Y-123144788D01*
X137714659Y-122869460D01*
X137355370Y-122720270D01*
X136966337Y-122719931D01*
X136606788Y-122868493D01*
X136331460Y-123143341D01*
X136182270Y-123502630D01*
X136181931Y-123891663D01*
X136330493Y-124251212D01*
X136334107Y-124254832D01*
X136232892Y-124254744D01*
X135690571Y-124478827D01*
X135275285Y-124893389D01*
X135050257Y-125435317D01*
X135049744Y-126022108D01*
X133143607Y-126022108D01*
X133300743Y-125643683D01*
X133301256Y-125056892D01*
X133077173Y-124514571D01*
X132662611Y-124099285D01*
X132120683Y-123874257D01*
X131533892Y-123873744D01*
X130991571Y-124097827D01*
X130576285Y-124512389D01*
X130351257Y-125054317D01*
X130351214Y-125103786D01*
X130116370Y-125006270D01*
X129727337Y-125005931D01*
X129367788Y-125154493D01*
X129092460Y-125429341D01*
X128943270Y-125788630D01*
X128942931Y-126177663D01*
X127775403Y-126177663D01*
X127675634Y-126111000D01*
X127990415Y-125900670D01*
X128315271Y-125414489D01*
X128429345Y-124841000D01*
X128315271Y-124267511D01*
X127990415Y-123781330D01*
X127504234Y-123456474D01*
X126930745Y-123342400D01*
X126561255Y-123342400D01*
X125987766Y-123456474D01*
X125501585Y-123781330D01*
X125176729Y-124267511D01*
X125062655Y-124841000D01*
X125043000Y-124841000D01*
X125043000Y-121732663D01*
X133641931Y-121732663D01*
X133790493Y-122092212D01*
X134065341Y-122367540D01*
X134424630Y-122516730D01*
X134813663Y-122517069D01*
X135173212Y-122368507D01*
X135448540Y-122093659D01*
X135597730Y-121734370D01*
X135598069Y-121345337D01*
X135449507Y-120985788D01*
X135174659Y-120710460D01*
X134815370Y-120561270D01*
X134426337Y-120560931D01*
X134066788Y-120709493D01*
X133791460Y-120984341D01*
X133642270Y-121343630D01*
X133641931Y-121732663D01*
X125043000Y-121732663D01*
X125043000Y-114112663D01*
X129831931Y-114112663D01*
X129980493Y-114472212D01*
X130255341Y-114747540D01*
X130614630Y-114896730D01*
X131003663Y-114897069D01*
X131363212Y-114748507D01*
X131638540Y-114473659D01*
X131787730Y-114114370D01*
X131788069Y-113725337D01*
X131639507Y-113365788D01*
X131364659Y-113090460D01*
X131005370Y-112941270D01*
X130616337Y-112940931D01*
X130256788Y-113089493D01*
X129981460Y-113364341D01*
X129832270Y-113723630D01*
X129831931Y-114112663D01*
X125043000Y-114112663D01*
X125043000Y-112080663D01*
X128180931Y-112080663D01*
X128329493Y-112440212D01*
X128604341Y-112715540D01*
X128963630Y-112864730D01*
X129352663Y-112865069D01*
X129712212Y-112716507D01*
X129987540Y-112441659D01*
X130136730Y-112082370D01*
X130137069Y-111693337D01*
X129988507Y-111333788D01*
X129713659Y-111058460D01*
X129354370Y-110909270D01*
X128965337Y-110908931D01*
X128605788Y-111057493D01*
X128330460Y-111332341D01*
X128181270Y-111691630D01*
X128180931Y-112080663D01*
X125043000Y-112080663D01*
X125043000Y-105494269D01*
X131521015Y-105494269D01*
X131683084Y-105886504D01*
X131826000Y-106029670D01*
X131826000Y-111633000D01*
X131884004Y-111924605D01*
X131973946Y-112059212D01*
X132049185Y-112171815D01*
X138036136Y-118158766D01*
X138010892Y-118158744D01*
X137468571Y-118382827D01*
X137053285Y-118797389D01*
X136828257Y-119339317D01*
X136827744Y-119926108D01*
X137051827Y-120468429D01*
X137466389Y-120883715D01*
X138008317Y-121108743D01*
X138595108Y-121109256D01*
X139137429Y-120885173D01*
X139552715Y-120470611D01*
X139777743Y-119928683D01*
X139777768Y-119900398D01*
X145892184Y-126014815D01*
X146135903Y-126177663D01*
X146139395Y-126179996D01*
X146431000Y-126238000D01*
X147081303Y-126238000D01*
X147222917Y-126379862D01*
X147614869Y-126542615D01*
X148039269Y-126542985D01*
X148431504Y-126380916D01*
X148731862Y-126081083D01*
X148894615Y-125689131D01*
X148894985Y-125264731D01*
X148732916Y-124872496D01*
X148433083Y-124572138D01*
X148041131Y-124409385D01*
X147925605Y-124409284D01*
X148254212Y-124273507D01*
X148529540Y-123998659D01*
X148678730Y-123639370D01*
X148679069Y-123250337D01*
X148530507Y-122890788D01*
X148255659Y-122615460D01*
X147964748Y-122494663D01*
X154469931Y-122494663D01*
X154618493Y-122854212D01*
X154893341Y-123129540D01*
X155252630Y-123278730D01*
X155641663Y-123279069D01*
X156001212Y-123130507D01*
X156276540Y-122855659D01*
X156425730Y-122496370D01*
X156426069Y-122107337D01*
X156277507Y-121747788D01*
X156002659Y-121472460D01*
X155643370Y-121323270D01*
X155254337Y-121322931D01*
X154894788Y-121471493D01*
X154619460Y-121746341D01*
X154470270Y-122105630D01*
X154469931Y-122494663D01*
X147964748Y-122494663D01*
X147896370Y-122466270D01*
X147507337Y-122465931D01*
X147147788Y-122614493D01*
X146872460Y-122889341D01*
X146723270Y-123248630D01*
X146722931Y-123637663D01*
X146871493Y-123997212D01*
X147146341Y-124272540D01*
X147505630Y-124421730D01*
X147585789Y-124421800D01*
X147224496Y-124571084D01*
X147081330Y-124714000D01*
X146746631Y-124714000D01*
X143938112Y-121905481D01*
X145197610Y-121905481D01*
X145346172Y-122265030D01*
X145621020Y-122540358D01*
X145980309Y-122689548D01*
X146369342Y-122689887D01*
X146728891Y-122541325D01*
X147004219Y-122266477D01*
X147103089Y-122028371D01*
X147339547Y-121930669D01*
X147614875Y-121655821D01*
X147641214Y-121592390D01*
X147654341Y-121605540D01*
X148013630Y-121754730D01*
X148402663Y-121755069D01*
X148762212Y-121606507D01*
X149037540Y-121331659D01*
X149186730Y-120972370D01*
X149186911Y-120764582D01*
X153025012Y-120764582D01*
X153173574Y-121124131D01*
X153448422Y-121399459D01*
X153807711Y-121548649D01*
X154196744Y-121548988D01*
X154556293Y-121400426D01*
X154831621Y-121125578D01*
X154980811Y-120766289D01*
X154981150Y-120377256D01*
X154832588Y-120017707D01*
X154557740Y-119742379D01*
X154198451Y-119593189D01*
X153809418Y-119592850D01*
X153449869Y-119741412D01*
X153174541Y-120016260D01*
X153025351Y-120375549D01*
X153025012Y-120764582D01*
X149186911Y-120764582D01*
X149187069Y-120583337D01*
X149038507Y-120223788D01*
X148766571Y-119951377D01*
X148910540Y-119807659D01*
X149059730Y-119448370D01*
X149060069Y-119059337D01*
X148911507Y-118699788D01*
X148766460Y-118554488D01*
X148910540Y-118410659D01*
X149059730Y-118051370D01*
X149060069Y-117662337D01*
X148911507Y-117302788D01*
X148636659Y-117027460D01*
X148277370Y-116878270D01*
X147888337Y-116877931D01*
X147697148Y-116956928D01*
X147767540Y-116886659D01*
X147916730Y-116527370D01*
X147917069Y-116138337D01*
X147768507Y-115778788D01*
X147499852Y-115509663D01*
X152945931Y-115509663D01*
X153094493Y-115869212D01*
X153369341Y-116144540D01*
X153728630Y-116293730D01*
X154117663Y-116294069D01*
X154477212Y-116145507D01*
X154752540Y-115870659D01*
X154901730Y-115511370D01*
X154902069Y-115122337D01*
X154808874Y-114896786D01*
X155133663Y-114897069D01*
X155493212Y-114748507D01*
X155768540Y-114473659D01*
X155917730Y-114114370D01*
X155918069Y-113725337D01*
X155769507Y-113365788D01*
X155494659Y-113090460D01*
X155135370Y-112941270D01*
X154746337Y-112940931D01*
X154386788Y-113089493D01*
X154111460Y-113364341D01*
X153962270Y-113723630D01*
X153961931Y-114112663D01*
X154055126Y-114338214D01*
X153730337Y-114337931D01*
X153370788Y-114486493D01*
X153095460Y-114761341D01*
X152946270Y-115120630D01*
X152945931Y-115509663D01*
X147499852Y-115509663D01*
X147493659Y-115503460D01*
X147134370Y-115354270D01*
X147013605Y-115354165D01*
X147259540Y-115108659D01*
X147369559Y-114843704D01*
X147400341Y-114874540D01*
X147759630Y-115023730D01*
X148148663Y-115024069D01*
X148508212Y-114875507D01*
X148783540Y-114600659D01*
X148932730Y-114241370D01*
X148933069Y-113852337D01*
X148784507Y-113492788D01*
X148509659Y-113217460D01*
X148150370Y-113068270D01*
X147761337Y-113067931D01*
X147401788Y-113216493D01*
X147369385Y-113248839D01*
X147344212Y-113187916D01*
X147434130Y-112971370D01*
X147434469Y-112582337D01*
X147374295Y-112436704D01*
X147619212Y-112335507D01*
X147874501Y-112080663D01*
X155739931Y-112080663D01*
X155888493Y-112440212D01*
X156163341Y-112715540D01*
X156522630Y-112864730D01*
X156911663Y-112865069D01*
X157271212Y-112716507D01*
X157546540Y-112441659D01*
X157695730Y-112082370D01*
X157696069Y-111693337D01*
X157547507Y-111333788D01*
X157272659Y-111058460D01*
X156913370Y-110909270D01*
X156524337Y-110908931D01*
X156164788Y-111057493D01*
X155889460Y-111332341D01*
X155740270Y-111691630D01*
X155739931Y-112080663D01*
X147874501Y-112080663D01*
X147894540Y-112060659D01*
X148043730Y-111701370D01*
X148044069Y-111312337D01*
X147895507Y-110952788D01*
X147626852Y-110683663D01*
X148881931Y-110683663D01*
X149030493Y-111043212D01*
X149305341Y-111318540D01*
X149664630Y-111467730D01*
X150053663Y-111468069D01*
X150413212Y-111319507D01*
X150688540Y-111044659D01*
X150837730Y-110685370D01*
X150838069Y-110296337D01*
X150689507Y-109936788D01*
X150414659Y-109661460D01*
X150055370Y-109512270D01*
X149666337Y-109511931D01*
X149306788Y-109660493D01*
X149031460Y-109935341D01*
X148882270Y-110294630D01*
X148881931Y-110683663D01*
X147626852Y-110683663D01*
X147620659Y-110677460D01*
X147261370Y-110528270D01*
X146872337Y-110527931D01*
X146512788Y-110676493D01*
X146237460Y-110951341D01*
X146088270Y-111310630D01*
X146087931Y-111699663D01*
X146148105Y-111845296D01*
X145903188Y-111946493D01*
X145627860Y-112221341D01*
X145478670Y-112580630D01*
X145478331Y-112969663D01*
X145586460Y-113231356D01*
X145496542Y-113447902D01*
X145496203Y-113836935D01*
X145582835Y-114046602D01*
X145453270Y-114358630D01*
X145452931Y-114747663D01*
X145601493Y-115107212D01*
X145876341Y-115382540D01*
X146235630Y-115531730D01*
X146356395Y-115531835D01*
X146110460Y-115777341D01*
X145961270Y-116136630D01*
X145960931Y-116525663D01*
X146109493Y-116885212D01*
X146384341Y-117160540D01*
X146743630Y-117309730D01*
X147132663Y-117310069D01*
X147323852Y-117231072D01*
X147253460Y-117301341D01*
X147104270Y-117660630D01*
X147103931Y-118049663D01*
X147252493Y-118409212D01*
X147397540Y-118554512D01*
X147253460Y-118698341D01*
X147104270Y-119057630D01*
X147103931Y-119446663D01*
X147252493Y-119806212D01*
X147524429Y-120078623D01*
X147380460Y-120222341D01*
X147354121Y-120285772D01*
X147340994Y-120272622D01*
X146981705Y-120123432D01*
X146592672Y-120123093D01*
X146233123Y-120271655D01*
X145957795Y-120546503D01*
X145858925Y-120784609D01*
X145622467Y-120882311D01*
X145347139Y-121157159D01*
X145197949Y-121516448D01*
X145197610Y-121905481D01*
X143938112Y-121905481D01*
X142114294Y-120081663D01*
X142404931Y-120081663D01*
X142553493Y-120441212D01*
X142828341Y-120716540D01*
X143187630Y-120865730D01*
X143576663Y-120866069D01*
X143936212Y-120717507D01*
X144211540Y-120442659D01*
X144360730Y-120083370D01*
X144361069Y-119694337D01*
X144212507Y-119334788D01*
X143937659Y-119059460D01*
X143578370Y-118910270D01*
X143189337Y-118909931D01*
X142829788Y-119058493D01*
X142554460Y-119333341D01*
X142405270Y-119692630D01*
X142404931Y-120081663D01*
X142114294Y-120081663D01*
X135380315Y-113347685D01*
X135440630Y-113372730D01*
X135829663Y-113373069D01*
X136189212Y-113224507D01*
X136464540Y-112949659D01*
X136602944Y-112616345D01*
X142326449Y-112616345D01*
X142475011Y-112975894D01*
X142749859Y-113251222D01*
X143109148Y-113400412D01*
X143174458Y-113400469D01*
X143040270Y-113723630D01*
X143039931Y-114112663D01*
X143188493Y-114472212D01*
X143463341Y-114747540D01*
X143822630Y-114896730D01*
X144211663Y-114897069D01*
X144571212Y-114748507D01*
X144846540Y-114473659D01*
X144995730Y-114114370D01*
X144996069Y-113725337D01*
X144847507Y-113365788D01*
X144572659Y-113090460D01*
X144213370Y-112941270D01*
X144148060Y-112941213D01*
X144282248Y-112618052D01*
X144282587Y-112229019D01*
X144134025Y-111869470D01*
X143859177Y-111594142D01*
X143499888Y-111444952D01*
X143110855Y-111444613D01*
X142751306Y-111593175D01*
X142475978Y-111868023D01*
X142326788Y-112227312D01*
X142326449Y-112616345D01*
X136602944Y-112616345D01*
X136613730Y-112590370D01*
X136614069Y-112201337D01*
X136465507Y-111841788D01*
X136190659Y-111566460D01*
X135831370Y-111417270D01*
X135442337Y-111416931D01*
X135082788Y-111565493D01*
X134807460Y-111840341D01*
X134658270Y-112199630D01*
X134657931Y-112588663D01*
X134683729Y-112651099D01*
X133350000Y-111317370D01*
X133350000Y-107850469D01*
X138500015Y-107850469D01*
X138662084Y-108242704D01*
X138961917Y-108543062D01*
X139353869Y-108705815D01*
X139600469Y-108706030D01*
X139546790Y-108835303D01*
X139546451Y-109224336D01*
X139695013Y-109583885D01*
X139969861Y-109859213D01*
X140329150Y-110008403D01*
X140718183Y-110008742D01*
X141077732Y-109860180D01*
X141353060Y-109585332D01*
X141502250Y-109226043D01*
X141502391Y-109063807D01*
X142419750Y-109063807D01*
X142550933Y-109381294D01*
X142562226Y-109392607D01*
X142551787Y-109403028D01*
X142420050Y-109720286D01*
X142419750Y-110063807D01*
X142550933Y-110381294D01*
X142793628Y-110624413D01*
X143110886Y-110756150D01*
X143454407Y-110756450D01*
X143771894Y-110625267D01*
X143783207Y-110613974D01*
X143793628Y-110624413D01*
X144110886Y-110756150D01*
X144454407Y-110756450D01*
X144771894Y-110625267D01*
X145015013Y-110382572D01*
X145146750Y-110065314D01*
X145147050Y-109721793D01*
X145015867Y-109404306D01*
X145004574Y-109392993D01*
X145015013Y-109382572D01*
X145146750Y-109065314D01*
X145147050Y-108721793D01*
X145087139Y-108576795D01*
X150340716Y-108576795D01*
X150589106Y-109177943D01*
X151048637Y-109638278D01*
X151649352Y-109887716D01*
X152299795Y-109888284D01*
X152900943Y-109639894D01*
X153361278Y-109180363D01*
X153610716Y-108579648D01*
X153611284Y-107929205D01*
X153362894Y-107328057D01*
X152903363Y-106867722D01*
X152302648Y-106618284D01*
X151652205Y-106617716D01*
X151051057Y-106866106D01*
X150590722Y-107325637D01*
X150341284Y-107926352D01*
X150340716Y-108576795D01*
X145087139Y-108576795D01*
X145015867Y-108404306D01*
X144773172Y-108161187D01*
X144455914Y-108029450D01*
X144112393Y-108029150D01*
X143794906Y-108160333D01*
X143783593Y-108171626D01*
X143773172Y-108161187D01*
X143455914Y-108029450D01*
X143112393Y-108029150D01*
X142794906Y-108160333D01*
X142551787Y-108403028D01*
X142420050Y-108720286D01*
X142419750Y-109063807D01*
X141502391Y-109063807D01*
X141502589Y-108837010D01*
X141354027Y-108477461D01*
X141079179Y-108202133D01*
X140719890Y-108052943D01*
X140550375Y-108052795D01*
X140633615Y-107852331D01*
X140633759Y-107686463D01*
X140906331Y-107686463D01*
X141054893Y-108046012D01*
X141329741Y-108321340D01*
X141689030Y-108470530D01*
X142078063Y-108470869D01*
X142437612Y-108322307D01*
X142712940Y-108047459D01*
X142862130Y-107688170D01*
X142862131Y-107686463D01*
X144716331Y-107686463D01*
X144864893Y-108046012D01*
X145139741Y-108321340D01*
X145499030Y-108470530D01*
X145888063Y-108470869D01*
X146247612Y-108322307D01*
X146522940Y-108047459D01*
X146672130Y-107688170D01*
X146672469Y-107299137D01*
X146523907Y-106939588D01*
X146249059Y-106664260D01*
X145889770Y-106515070D01*
X145500737Y-106514731D01*
X145141188Y-106663293D01*
X144865860Y-106938141D01*
X144716670Y-107297430D01*
X144716331Y-107686463D01*
X142862131Y-107686463D01*
X142862469Y-107299137D01*
X142713907Y-106939588D01*
X142439059Y-106664260D01*
X142079770Y-106515070D01*
X141690737Y-106514731D01*
X141331188Y-106663293D01*
X141055860Y-106938141D01*
X140906670Y-107297430D01*
X140906331Y-107686463D01*
X140633759Y-107686463D01*
X140633985Y-107427931D01*
X140471916Y-107035696D01*
X140172083Y-106735338D01*
X139780131Y-106572585D01*
X139355731Y-106572215D01*
X138963496Y-106734284D01*
X138663138Y-107034117D01*
X138500385Y-107426069D01*
X138500015Y-107850469D01*
X133350000Y-107850469D01*
X133350000Y-106029697D01*
X133491862Y-105888083D01*
X133654615Y-105496131D01*
X133654985Y-105071731D01*
X133492916Y-104679496D01*
X133193083Y-104379138D01*
X132801131Y-104216385D01*
X132376731Y-104216015D01*
X131984496Y-104378084D01*
X131684138Y-104677917D01*
X131521385Y-105069869D01*
X131521015Y-105494269D01*
X125043000Y-105494269D01*
X125043000Y-102815628D01*
X135442791Y-102815628D01*
X135626614Y-103260514D01*
X135966695Y-103601190D01*
X136213249Y-103703568D01*
X136204460Y-103712341D01*
X136055270Y-104071630D01*
X136054931Y-104460663D01*
X136203493Y-104820212D01*
X136478341Y-105095540D01*
X136837630Y-105244730D01*
X137226663Y-105245069D01*
X137280889Y-105222663D01*
X153580931Y-105222663D01*
X153729493Y-105582212D01*
X154004341Y-105857540D01*
X154363630Y-106006730D01*
X154752663Y-106007069D01*
X155112212Y-105858507D01*
X155387540Y-105583659D01*
X155536730Y-105224370D01*
X155537069Y-104835337D01*
X155388507Y-104475788D01*
X155113659Y-104200460D01*
X154754370Y-104051270D01*
X154365337Y-104050931D01*
X154005788Y-104199493D01*
X153730460Y-104474341D01*
X153581270Y-104833630D01*
X153580931Y-105222663D01*
X137280889Y-105222663D01*
X137586212Y-105096507D01*
X137861540Y-104821659D01*
X138010730Y-104462370D01*
X138011069Y-104073337D01*
X137862507Y-103713788D01*
X137587659Y-103438460D01*
X137526971Y-103413260D01*
X137678190Y-103262305D01*
X137802861Y-102962063D01*
X141033331Y-102962063D01*
X141181893Y-103321612D01*
X141456741Y-103596940D01*
X141816030Y-103746130D01*
X142205063Y-103746469D01*
X142564612Y-103597907D01*
X142839940Y-103323059D01*
X142989130Y-102963770D01*
X142989176Y-102911371D01*
X143137693Y-103270812D01*
X143412541Y-103546140D01*
X143771830Y-103695330D01*
X144160863Y-103695669D01*
X144520412Y-103547107D01*
X144795740Y-103272259D01*
X144944930Y-102912970D01*
X144945269Y-102523937D01*
X144905903Y-102428663D01*
X155612931Y-102428663D01*
X155761493Y-102788212D01*
X156036341Y-103063540D01*
X156395630Y-103212730D01*
X156784663Y-103213069D01*
X157144212Y-103064507D01*
X157419540Y-102789659D01*
X157568730Y-102430370D01*
X157569069Y-102041337D01*
X157420507Y-101681788D01*
X157145659Y-101406460D01*
X156786370Y-101257270D01*
X156397337Y-101256931D01*
X156037788Y-101405493D01*
X155762460Y-101680341D01*
X155613270Y-102039630D01*
X155612931Y-102428663D01*
X144905903Y-102428663D01*
X144796707Y-102164388D01*
X144521859Y-101889060D01*
X144162570Y-101739870D01*
X143773537Y-101739531D01*
X143413988Y-101888093D01*
X143138660Y-102162941D01*
X142989470Y-102522230D01*
X142989424Y-102574629D01*
X142840907Y-102215188D01*
X142566059Y-101939860D01*
X142206770Y-101790670D01*
X141817737Y-101790331D01*
X141458188Y-101938893D01*
X141182860Y-102213741D01*
X141033670Y-102573030D01*
X141033331Y-102962063D01*
X137802861Y-102962063D01*
X137862789Y-102817740D01*
X137863209Y-102336372D01*
X137679386Y-101891486D01*
X137339305Y-101550810D01*
X136894740Y-101366211D01*
X136413372Y-101365791D01*
X135968486Y-101549614D01*
X135627810Y-101889695D01*
X135443211Y-102334260D01*
X135442791Y-102815628D01*
X125043000Y-102815628D01*
X125043000Y-101150869D01*
X127761815Y-101150869D01*
X127923884Y-101543104D01*
X128223717Y-101843462D01*
X128615669Y-102006215D01*
X129040069Y-102006585D01*
X129432304Y-101844516D01*
X129732662Y-101544683D01*
X129895415Y-101152731D01*
X129895785Y-100728331D01*
X129733716Y-100336096D01*
X129713284Y-100315628D01*
X138742791Y-100315628D01*
X138926614Y-100760514D01*
X139266695Y-101101190D01*
X139711260Y-101285789D01*
X140192628Y-101286209D01*
X140637514Y-101102386D01*
X140978190Y-100762305D01*
X141162789Y-100317740D01*
X141163209Y-99836372D01*
X140979386Y-99391486D01*
X140639305Y-99050810D01*
X140194740Y-98866211D01*
X139713372Y-98865791D01*
X139268486Y-99049614D01*
X138927810Y-99389695D01*
X138743211Y-99834260D01*
X138742791Y-100315628D01*
X129713284Y-100315628D01*
X129433883Y-100035738D01*
X129041931Y-99872985D01*
X128617531Y-99872615D01*
X128225296Y-100034684D01*
X127924938Y-100334517D01*
X127762185Y-100726469D01*
X127761815Y-101150869D01*
X125043000Y-101150869D01*
X125043000Y-97815628D01*
X135442791Y-97815628D01*
X135626614Y-98260514D01*
X135966695Y-98601190D01*
X136411260Y-98785789D01*
X136892628Y-98786209D01*
X137337514Y-98602386D01*
X137678190Y-98262305D01*
X137862789Y-97817740D01*
X137863209Y-97336372D01*
X137679386Y-96891486D01*
X137339305Y-96550810D01*
X136894740Y-96366211D01*
X136413372Y-96365791D01*
X135968486Y-96549614D01*
X135627810Y-96889695D01*
X135443211Y-97334260D01*
X135442791Y-97815628D01*
X125043000Y-97815628D01*
X125043000Y-95697663D01*
X132956131Y-95697663D01*
X133104693Y-96057212D01*
X133379541Y-96332540D01*
X133738830Y-96481730D01*
X134127863Y-96482069D01*
X134366142Y-96383615D01*
X134602430Y-96481730D01*
X134991463Y-96482069D01*
X135351012Y-96333507D01*
X135626340Y-96058659D01*
X135729317Y-95810662D01*
X135843717Y-95925262D01*
X136235669Y-96088015D01*
X136660069Y-96088385D01*
X137052304Y-95926316D01*
X137352662Y-95626483D01*
X137481310Y-95316663D01*
X149135931Y-95316663D01*
X149284493Y-95676212D01*
X149559341Y-95951540D01*
X149918630Y-96100730D01*
X150307663Y-96101069D01*
X150667212Y-95952507D01*
X150942540Y-95677659D01*
X151091730Y-95318370D01*
X151091952Y-95062663D01*
X154596931Y-95062663D01*
X154745493Y-95422212D01*
X155020341Y-95697540D01*
X155379630Y-95846730D01*
X155768663Y-95847069D01*
X156128212Y-95698507D01*
X156146291Y-95680460D01*
X156163341Y-95697540D01*
X156522630Y-95846730D01*
X156911663Y-95847069D01*
X157271212Y-95698507D01*
X157546540Y-95423659D01*
X157695730Y-95064370D01*
X157696069Y-94675337D01*
X157547507Y-94315788D01*
X157272659Y-94040460D01*
X156913370Y-93891270D01*
X156524337Y-93890931D01*
X156164788Y-94039493D01*
X156146709Y-94057540D01*
X156129659Y-94040460D01*
X155770370Y-93891270D01*
X155381337Y-93890931D01*
X155021788Y-94039493D01*
X154746460Y-94314341D01*
X154597270Y-94673630D01*
X154596931Y-95062663D01*
X151091952Y-95062663D01*
X151092069Y-94929337D01*
X150943507Y-94569788D01*
X150668659Y-94294460D01*
X150309370Y-94145270D01*
X149920337Y-94144931D01*
X149560788Y-94293493D01*
X149285460Y-94568341D01*
X149136270Y-94927630D01*
X149135931Y-95316663D01*
X137481310Y-95316663D01*
X137515415Y-95234531D01*
X137515785Y-94810131D01*
X137353716Y-94417896D01*
X137053883Y-94117538D01*
X136661931Y-93954785D01*
X136237531Y-93954415D01*
X135845296Y-94116484D01*
X135544938Y-94416317D01*
X135412399Y-94735505D01*
X135352459Y-94675460D01*
X134993170Y-94526270D01*
X134604137Y-94525931D01*
X134365858Y-94624385D01*
X134129570Y-94526270D01*
X133740537Y-94525931D01*
X133380988Y-94674493D01*
X133105660Y-94949341D01*
X132956470Y-95308630D01*
X132956131Y-95697663D01*
X125043000Y-95697663D01*
X125043000Y-90245000D01*
X129485416Y-90245000D01*
X129375250Y-90510309D01*
M02*
