G04 #@! TF.FileFunction,Copper,L4,Bot,Signal*
%FSLAX46Y46*%
G04 Gerber Fmt 4.6, Leading zero omitted, Abs format (unit mm)*
G04 Created by KiCad (PCBNEW 0.201601221447+6507~42~ubuntu15.10.1-product) date Fri 22 Jan 2016 05:48:07 PM EST*
%MOMM*%
G01*
G04 APERTURE LIST*
%ADD10C,0.100000*%
%ADD11R,2.032000X1.727200*%
%ADD12O,2.032000X1.727200*%
%ADD13C,1.680000*%
%ADD14C,1.150000*%
%ADD15C,0.457000*%
%ADD16R,2.032000X2.032000*%
%ADD17O,2.032000X2.032000*%
%ADD18C,1.600000*%
%ADD19C,0.863600*%
%ADD20C,0.685800*%
%ADD21C,0.152400*%
%ADD22C,0.254000*%
G04 APERTURE END LIST*
D10*
D11*
X126746000Y-129921000D03*
D12*
X126746000Y-127381000D03*
X126746000Y-124841000D03*
D13*
X146304000Y-137922000D03*
X131826000Y-125349000D03*
X138303000Y-119634000D03*
X136525000Y-125730000D03*
X136779000Y-140462000D03*
X140081000Y-140462000D03*
X143002000Y-130048000D03*
D14*
X139953000Y-100076000D03*
X136653000Y-102576000D03*
X136653000Y-97576000D03*
D15*
X144283400Y-109892800D03*
X143283400Y-109892800D03*
X144283400Y-108892800D03*
X143283400Y-108892800D03*
D16*
X126746000Y-136906000D03*
D17*
X126746000Y-134366000D03*
D18*
X137160000Y-90797000D03*
X130810000Y-90797000D03*
D19*
X139567000Y-107639200D03*
X136448800Y-95021400D03*
D20*
X148209000Y-120777000D03*
X139319000Y-147447000D03*
X136906000Y-147320000D03*
X146939000Y-147701000D03*
X143637000Y-147701000D03*
X147574000Y-145542000D03*
X129159000Y-111887000D03*
X130810000Y-113919000D03*
X135636000Y-112395000D03*
X129921000Y-125984000D03*
X130429000Y-128143000D03*
X136398000Y-128143000D03*
X143383000Y-119888000D03*
X131064000Y-133604000D03*
X133477000Y-135255000D03*
X146431000Y-114554000D03*
X137160000Y-123698000D03*
X140208000Y-125857000D03*
X144780000Y-126619000D03*
X135763000Y-132842000D03*
X129235200Y-142214600D03*
X142011400Y-102768400D03*
X143967200Y-102717600D03*
D19*
X153898600Y-126822200D03*
X141605000Y-147574000D03*
X128828800Y-100939600D03*
X144678400Y-141884400D03*
X132537200Y-147497800D03*
D20*
X137033000Y-104267000D03*
X141351000Y-136906000D03*
D19*
X155016200Y-91287600D03*
X132588000Y-105283000D03*
X147828000Y-125476000D03*
D20*
X129159000Y-122301000D03*
X134239000Y-126238000D03*
X141605000Y-123317000D03*
X145542000Y-111760000D03*
X140208000Y-127381000D03*
X157454600Y-117195600D03*
D19*
X140462000Y-144653000D03*
X147370800Y-143078200D03*
X152298400Y-95123000D03*
X146253200Y-123393200D03*
X129032000Y-140843000D03*
D20*
X138049000Y-133985000D03*
X145669000Y-132842000D03*
X142494000Y-132842000D03*
X143256000Y-137287000D03*
X134797800Y-95504000D03*
X146786335Y-121101162D03*
X133934200Y-95504000D03*
X146175679Y-121711818D03*
X145694400Y-107492800D03*
X150114000Y-95123000D03*
X143304518Y-112422682D03*
X153289000Y-91186000D03*
X144018000Y-113919000D03*
X155575000Y-94869000D03*
X156591000Y-102235000D03*
X156718000Y-94869000D03*
X147955000Y-114046000D03*
X154559000Y-105029000D03*
X146474272Y-113643272D03*
X140524520Y-109030673D03*
X141884400Y-107492800D03*
X146456400Y-112776000D03*
X156718000Y-111887000D03*
X134620000Y-121539000D03*
X149860000Y-110490000D03*
X147701000Y-123444000D03*
X147066000Y-111506000D03*
X155448000Y-122301000D03*
X148082000Y-119253000D03*
X154003081Y-120570919D03*
X146939000Y-116332000D03*
X153924000Y-115316000D03*
X154940000Y-113919000D03*
X148082000Y-117856000D03*
D21*
X148209000Y-120777000D02*
X139567000Y-112135000D01*
X139567000Y-112135000D02*
X139567000Y-107639200D01*
D22*
X139567000Y-107639200D02*
X138480800Y-106553000D01*
X138480800Y-106553000D02*
X138480800Y-97053400D01*
X138480800Y-97053400D02*
X136880599Y-95453199D01*
X136880599Y-95453199D02*
X136448800Y-95021400D01*
D21*
X136906000Y-147320000D02*
X139192000Y-147320000D01*
X139192000Y-147320000D02*
X139319000Y-147447000D01*
X142494000Y-132842000D02*
X145669000Y-132842000D01*
X142494000Y-132842000D02*
X142494000Y-136525000D01*
X142494000Y-136525000D02*
X143256000Y-137287000D01*
X134531099Y-95770701D02*
X134797800Y-95504000D01*
X146786335Y-121101162D02*
X146409165Y-121101162D01*
X146409165Y-121101162D02*
X134531099Y-109223096D01*
X134531099Y-109223096D02*
X134531099Y-95770701D01*
X146175679Y-121711818D02*
X146175679Y-121334648D01*
X146175679Y-121334648D02*
X134200901Y-109359870D01*
X134200901Y-95770701D02*
X133934200Y-95504000D01*
X134200901Y-109359870D02*
X134200901Y-95770701D01*
X145694400Y-107492800D02*
X150114000Y-103073200D01*
X150114000Y-103073200D02*
X150114000Y-95123000D01*
X141312899Y-97193101D02*
X147320000Y-91186000D01*
X147320000Y-91186000D02*
X153289000Y-91186000D01*
X143304518Y-112422682D02*
X141312899Y-110431063D01*
X141312899Y-110431063D02*
X141312899Y-97193101D01*
X147701000Y-115316000D02*
X145796000Y-115316000D01*
X144018000Y-113919000D02*
X145415000Y-115316000D01*
X145415000Y-115316000D02*
X145796000Y-115316000D01*
X148272501Y-114744499D02*
X147701000Y-115316000D01*
X155575000Y-95353933D02*
X155575000Y-94869000D01*
X148272501Y-114744499D02*
X155575000Y-107442000D01*
X155575000Y-107442000D02*
X155575000Y-95353933D01*
X156591000Y-102235000D02*
X156591000Y-94996000D01*
X156591000Y-94996000D02*
X156718000Y-94869000D01*
X147955000Y-114046000D02*
X154559000Y-107442000D01*
X154559000Y-107442000D02*
X154559000Y-105029000D01*
X145861000Y-113030000D02*
X141921520Y-113030000D01*
X140524520Y-111633000D02*
X140524520Y-109515606D01*
X146474272Y-113643272D02*
X145861000Y-113030000D01*
X141921520Y-113030000D02*
X140524520Y-111633000D01*
X140524520Y-109515606D02*
X140524520Y-109030673D01*
X146456400Y-112776000D02*
X146456400Y-110389290D01*
X143559910Y-107492800D02*
X142369333Y-107492800D01*
X146456400Y-110389290D02*
X143559910Y-107492800D01*
X142369333Y-107492800D02*
X141884400Y-107492800D01*
X156718000Y-119380000D02*
X156718000Y-111887000D01*
X152654000Y-123444000D02*
X156718000Y-119380000D01*
X147701000Y-123444000D02*
X152654000Y-123444000D01*
X146939000Y-122682000D02*
X135763000Y-122682000D01*
X135763000Y-122682000D02*
X134620000Y-121539000D01*
X146939000Y-122682000D02*
X147701000Y-123444000D01*
X147066000Y-111506000D02*
X148844000Y-111506000D01*
X148844000Y-111506000D02*
X149860000Y-110490000D01*
X155448000Y-122301000D02*
X158369000Y-119380000D01*
X158369000Y-119380000D02*
X158369000Y-92583000D01*
X158369000Y-92583000D02*
X156083000Y-90297000D01*
X156083000Y-90297000D02*
X146304000Y-90297000D01*
X146304000Y-90297000D02*
X139954000Y-96647000D01*
X139954000Y-96647000D02*
X139954000Y-99261828D01*
X139954000Y-99261828D02*
X139953000Y-99262828D01*
X139953000Y-99262828D02*
X139953000Y-100076000D01*
X148082000Y-119253000D02*
X152685162Y-119253000D01*
X152685162Y-119253000D02*
X154003081Y-120570919D01*
X150876000Y-116332000D02*
X151892000Y-115316000D01*
X151892000Y-115316000D02*
X153924000Y-115316000D01*
X146939000Y-116332000D02*
X150876000Y-116332000D01*
X154940000Y-115697000D02*
X154940000Y-113919000D01*
X152781000Y-117856000D02*
X154940000Y-115697000D01*
X148082000Y-117856000D02*
X152781000Y-117856000D01*
D22*
G36*
X129802253Y-89968861D02*
X129556136Y-90042995D01*
X129363035Y-90580223D01*
X129390222Y-91150454D01*
X129556136Y-91551005D01*
X129802255Y-91625139D01*
X130630395Y-90797000D01*
X130616252Y-90782858D01*
X130795858Y-90603252D01*
X130810000Y-90617395D01*
X130824142Y-90603252D01*
X131003748Y-90782858D01*
X130989605Y-90797000D01*
X131817745Y-91625139D01*
X132063864Y-91551005D01*
X132256965Y-91013777D01*
X132229778Y-90443546D01*
X132063864Y-90042995D01*
X131817747Y-89968861D01*
X131897208Y-89889400D01*
X136072792Y-89889400D01*
X136152253Y-89968861D01*
X135906136Y-90042995D01*
X135713035Y-90580223D01*
X135740222Y-91150454D01*
X135906136Y-91551005D01*
X136152255Y-91625139D01*
X136980395Y-90797000D01*
X136966252Y-90782858D01*
X137145858Y-90603252D01*
X137160000Y-90617395D01*
X137174142Y-90603252D01*
X137353748Y-90782858D01*
X137339605Y-90797000D01*
X138167745Y-91625139D01*
X138413864Y-91551005D01*
X138606965Y-91013777D01*
X138579778Y-90443546D01*
X138413864Y-90042995D01*
X138167747Y-89968861D01*
X138247208Y-89889400D01*
X159157600Y-89889400D01*
X159157600Y-128397000D01*
X148971000Y-128397000D01*
X148922399Y-128406667D01*
X148881197Y-128434197D01*
X148853667Y-128475399D01*
X148844000Y-128524000D01*
X148844000Y-148235600D01*
X124687400Y-148235600D01*
X124687400Y-145433401D01*
X134221469Y-145433401D01*
X134336078Y-145710775D01*
X134548109Y-145923177D01*
X134825282Y-146038269D01*
X135125401Y-146038531D01*
X135402775Y-145923922D01*
X135615177Y-145711891D01*
X135729154Y-145437401D01*
X137929469Y-145437401D01*
X138044078Y-145714775D01*
X138256109Y-145927177D01*
X138533282Y-146042269D01*
X138833401Y-146042531D01*
X139110775Y-145927922D01*
X139323177Y-145715891D01*
X139347325Y-145657734D01*
X144195499Y-145657734D01*
X144284281Y-145872603D01*
X144448532Y-146037141D01*
X144663246Y-146126298D01*
X144895734Y-146126501D01*
X145110603Y-146037719D01*
X145275141Y-145873468D01*
X145364298Y-145658754D01*
X145364501Y-145426266D01*
X145275719Y-145211397D01*
X145111468Y-145046859D01*
X144896754Y-144957702D01*
X144664266Y-144957499D01*
X144449397Y-145046281D01*
X144284859Y-145210532D01*
X144195702Y-145425246D01*
X144195499Y-145657734D01*
X139347325Y-145657734D01*
X139438269Y-145438718D01*
X139438531Y-145138599D01*
X139323922Y-144861225D01*
X139256661Y-144793846D01*
X139750677Y-144793846D01*
X139858723Y-145055336D01*
X140058612Y-145255574D01*
X140319913Y-145364076D01*
X140602846Y-145364323D01*
X140864336Y-145256277D01*
X141064574Y-145056388D01*
X141173076Y-144795087D01*
X141173323Y-144512154D01*
X141065277Y-144250664D01*
X140865388Y-144050426D01*
X140604087Y-143941924D01*
X140321154Y-143941677D01*
X140059664Y-144049723D01*
X139859426Y-144249612D01*
X139750924Y-144510913D01*
X139750677Y-144793846D01*
X139256661Y-144793846D01*
X139111891Y-144648823D01*
X138834718Y-144533731D01*
X138534599Y-144533469D01*
X138257225Y-144648078D01*
X138044823Y-144860109D01*
X137929731Y-145137282D01*
X137929469Y-145437401D01*
X135729154Y-145437401D01*
X135730269Y-145434718D01*
X135730531Y-145134599D01*
X135615922Y-144857225D01*
X135403891Y-144644823D01*
X135126718Y-144529731D01*
X134826599Y-144529469D01*
X134549225Y-144644078D01*
X134336823Y-144856109D01*
X134221731Y-145133282D01*
X134221469Y-145433401D01*
X124687400Y-145433401D01*
X124687400Y-143219046D01*
X146659477Y-143219046D01*
X146767523Y-143480536D01*
X146967412Y-143680774D01*
X147228713Y-143789276D01*
X147511646Y-143789523D01*
X147773136Y-143681477D01*
X147973374Y-143481588D01*
X148081876Y-143220287D01*
X148082123Y-142937354D01*
X147974077Y-142675864D01*
X147774188Y-142475626D01*
X147512887Y-142367124D01*
X147229954Y-142366877D01*
X146968464Y-142474923D01*
X146768226Y-142674812D01*
X146659724Y-142936113D01*
X146659477Y-143219046D01*
X124687400Y-143219046D01*
X124687400Y-140983846D01*
X128320677Y-140983846D01*
X128428723Y-141245336D01*
X128628612Y-141445574D01*
X128889913Y-141554076D01*
X129172846Y-141554323D01*
X129434336Y-141446277D01*
X129634574Y-141246388D01*
X129743076Y-140985087D01*
X129743323Y-140702154D01*
X129735692Y-140683685D01*
X135659406Y-140683685D01*
X135829466Y-141095261D01*
X136144083Y-141410428D01*
X136555361Y-141581205D01*
X137000685Y-141581594D01*
X137412261Y-141411534D01*
X137727428Y-141096917D01*
X137898205Y-140685639D01*
X137898206Y-140683685D01*
X138961406Y-140683685D01*
X139131466Y-141095261D01*
X139446083Y-141410428D01*
X139857361Y-141581205D01*
X140302685Y-141581594D01*
X140714261Y-141411534D01*
X141029428Y-141096917D01*
X141200205Y-140685639D01*
X141200594Y-140240315D01*
X141030534Y-139828739D01*
X140715917Y-139513572D01*
X140304639Y-139342795D01*
X139859315Y-139342406D01*
X139447739Y-139512466D01*
X139132572Y-139827083D01*
X138961795Y-140238361D01*
X138961406Y-140683685D01*
X137898206Y-140683685D01*
X137898594Y-140240315D01*
X137728534Y-139828739D01*
X137413917Y-139513572D01*
X137002639Y-139342795D01*
X136557315Y-139342406D01*
X136145739Y-139512466D01*
X135830572Y-139827083D01*
X135659795Y-140238361D01*
X135659406Y-140683685D01*
X129735692Y-140683685D01*
X129635277Y-140440664D01*
X129435388Y-140240426D01*
X129174087Y-140131924D01*
X128891154Y-140131677D01*
X128629664Y-140239723D01*
X128429426Y-140439612D01*
X128320924Y-140700913D01*
X128320677Y-140983846D01*
X124687400Y-140983846D01*
X124687400Y-137191750D01*
X125095000Y-137191750D01*
X125095000Y-138048310D01*
X125191673Y-138281699D01*
X125370302Y-138460327D01*
X125603691Y-138557000D01*
X126460250Y-138557000D01*
X126619000Y-138398250D01*
X126619000Y-137033000D01*
X126873000Y-137033000D01*
X126873000Y-138398250D01*
X127031750Y-138557000D01*
X127888309Y-138557000D01*
X128121698Y-138460327D01*
X128300327Y-138281699D01*
X128397000Y-138048310D01*
X128397000Y-137196372D01*
X130096378Y-137196372D01*
X130290745Y-137666775D01*
X130650332Y-138026990D01*
X131120395Y-138222178D01*
X131629372Y-138222622D01*
X131820413Y-138143685D01*
X145184406Y-138143685D01*
X145354466Y-138555261D01*
X145669083Y-138870428D01*
X146080361Y-139041205D01*
X146525685Y-139041594D01*
X146937261Y-138871534D01*
X147252428Y-138556917D01*
X147423205Y-138145639D01*
X147423594Y-137700315D01*
X147253534Y-137288739D01*
X146938917Y-136973572D01*
X146527639Y-136802795D01*
X146082315Y-136802406D01*
X145670739Y-136972466D01*
X145355572Y-137287083D01*
X145184795Y-137698361D01*
X145184406Y-138143685D01*
X131820413Y-138143685D01*
X132099775Y-138028255D01*
X132459990Y-137668668D01*
X132655178Y-137198605D01*
X132655622Y-136689628D01*
X132461255Y-136219225D01*
X132101668Y-135859010D01*
X131631605Y-135663822D01*
X131122628Y-135663378D01*
X130652225Y-135857745D01*
X130292010Y-136217332D01*
X130096822Y-136687395D01*
X130096378Y-137196372D01*
X128397000Y-137196372D01*
X128397000Y-137191750D01*
X128238250Y-137033000D01*
X126873000Y-137033000D01*
X126619000Y-137033000D01*
X125253750Y-137033000D01*
X125095000Y-137191750D01*
X124687400Y-137191750D01*
X124687400Y-135763690D01*
X125095000Y-135763690D01*
X125095000Y-136620250D01*
X125253750Y-136779000D01*
X126619000Y-136779000D01*
X126619000Y-136759000D01*
X126873000Y-136759000D01*
X126873000Y-136779000D01*
X128238250Y-136779000D01*
X128397000Y-136620250D01*
X128397000Y-135763690D01*
X128300327Y-135530301D01*
X128121698Y-135351673D01*
X127888309Y-135255000D01*
X127705396Y-135255000D01*
X127968172Y-134861728D01*
X128066778Y-134366000D01*
X128015507Y-134108240D01*
X137426592Y-134108240D01*
X137521132Y-134337044D01*
X137696035Y-134512253D01*
X137924674Y-134607192D01*
X138172240Y-134607408D01*
X138401044Y-134512868D01*
X138576253Y-134337965D01*
X138671192Y-134109326D01*
X138671408Y-133861760D01*
X138576868Y-133632956D01*
X138401965Y-133457747D01*
X138173326Y-133362808D01*
X137925760Y-133362592D01*
X137696956Y-133457132D01*
X137521747Y-133632035D01*
X137426808Y-133860674D01*
X137426592Y-134108240D01*
X128015507Y-134108240D01*
X127968172Y-133870272D01*
X127687364Y-133450014D01*
X127267106Y-133169206D01*
X126771378Y-133070600D01*
X126720622Y-133070600D01*
X126224894Y-133169206D01*
X125804636Y-133450014D01*
X125523828Y-133870272D01*
X125425222Y-134366000D01*
X125523828Y-134861728D01*
X125786604Y-135255000D01*
X125603691Y-135255000D01*
X125370302Y-135351673D01*
X125191673Y-135530301D01*
X125095000Y-135763690D01*
X124687400Y-135763690D01*
X124687400Y-132965240D01*
X141871592Y-132965240D01*
X141966132Y-133194044D01*
X142138400Y-133366613D01*
X142138400Y-136525000D01*
X142165468Y-136661083D01*
X142242553Y-136776447D01*
X142633804Y-137167698D01*
X142633592Y-137410240D01*
X142728132Y-137639044D01*
X142903035Y-137814253D01*
X143131674Y-137909192D01*
X143379240Y-137909408D01*
X143608044Y-137814868D01*
X143783253Y-137639965D01*
X143878192Y-137411326D01*
X143878408Y-137163760D01*
X143783868Y-136934956D01*
X143608965Y-136759747D01*
X143380326Y-136664808D01*
X143136489Y-136664595D01*
X142849600Y-136377706D01*
X142849600Y-133366318D01*
X143018613Y-133197600D01*
X145144682Y-133197600D01*
X145316035Y-133369253D01*
X145544674Y-133464192D01*
X145792240Y-133464408D01*
X146021044Y-133369868D01*
X146196253Y-133194965D01*
X146291192Y-132966326D01*
X146291408Y-132718760D01*
X146196868Y-132489956D01*
X146021965Y-132314747D01*
X145793326Y-132219808D01*
X145545760Y-132219592D01*
X145316956Y-132314132D01*
X145144387Y-132486400D01*
X143018318Y-132486400D01*
X142846965Y-132314747D01*
X142618326Y-132219808D01*
X142370760Y-132219592D01*
X142141956Y-132314132D01*
X141966747Y-132489035D01*
X141871808Y-132717674D01*
X141871592Y-132965240D01*
X124687400Y-132965240D01*
X124687400Y-130206750D01*
X125095000Y-130206750D01*
X125095000Y-130910910D01*
X125191673Y-131144299D01*
X125370302Y-131322927D01*
X125603691Y-131419600D01*
X126460250Y-131419600D01*
X126619000Y-131260850D01*
X126619000Y-130048000D01*
X126873000Y-130048000D01*
X126873000Y-131260850D01*
X127031750Y-131419600D01*
X127888309Y-131419600D01*
X128121698Y-131322927D01*
X128300327Y-131144299D01*
X128397000Y-130910910D01*
X128397000Y-130269685D01*
X141882406Y-130269685D01*
X142052466Y-130681261D01*
X142367083Y-130996428D01*
X142778361Y-131167205D01*
X143223685Y-131167594D01*
X143635261Y-130997534D01*
X143950428Y-130682917D01*
X144121205Y-130271639D01*
X144121594Y-129826315D01*
X143951534Y-129414739D01*
X143636917Y-129099572D01*
X143225639Y-128928795D01*
X142780315Y-128928406D01*
X142368739Y-129098466D01*
X142053572Y-129413083D01*
X141882795Y-129824361D01*
X141882406Y-130269685D01*
X128397000Y-130269685D01*
X128397000Y-130206750D01*
X128238250Y-130048000D01*
X126873000Y-130048000D01*
X126619000Y-130048000D01*
X125253750Y-130048000D01*
X125095000Y-130206750D01*
X124687400Y-130206750D01*
X124687400Y-128931090D01*
X125095000Y-128931090D01*
X125095000Y-129635250D01*
X125253750Y-129794000D01*
X126619000Y-129794000D01*
X126619000Y-129774000D01*
X126873000Y-129774000D01*
X126873000Y-129794000D01*
X128238250Y-129794000D01*
X128397000Y-129635250D01*
X128397000Y-128931090D01*
X128300327Y-128697701D01*
X128121698Y-128519073D01*
X127888309Y-128422400D01*
X127383026Y-128422400D01*
X127732001Y-128189223D01*
X127979772Y-127818407D01*
X128042263Y-127504240D01*
X139585592Y-127504240D01*
X139680132Y-127733044D01*
X139855035Y-127908253D01*
X140083674Y-128003192D01*
X140331240Y-128003408D01*
X140560044Y-127908868D01*
X140735253Y-127733965D01*
X140830192Y-127505326D01*
X140830408Y-127257760D01*
X140735868Y-127028956D01*
X140560965Y-126853747D01*
X140332326Y-126758808D01*
X140084760Y-126758592D01*
X139855956Y-126853132D01*
X139680747Y-127028035D01*
X139585808Y-127256674D01*
X139585592Y-127504240D01*
X128042263Y-127504240D01*
X128066778Y-127381000D01*
X127979772Y-126943593D01*
X127732001Y-126572777D01*
X127361185Y-126325006D01*
X126923778Y-126238000D01*
X126568222Y-126238000D01*
X126130815Y-126325006D01*
X125759999Y-126572777D01*
X125512228Y-126943593D01*
X125425222Y-127381000D01*
X125512228Y-127818407D01*
X125759999Y-128189223D01*
X126108974Y-128422400D01*
X125603691Y-128422400D01*
X125370302Y-128519073D01*
X125191673Y-128697701D01*
X125095000Y-128931090D01*
X124687400Y-128931090D01*
X124687400Y-124841000D01*
X125425222Y-124841000D01*
X125512228Y-125278407D01*
X125759999Y-125649223D01*
X126130815Y-125896994D01*
X126568222Y-125984000D01*
X126923778Y-125984000D01*
X127361185Y-125896994D01*
X127732001Y-125649223D01*
X127784478Y-125570685D01*
X130706406Y-125570685D01*
X130876466Y-125982261D01*
X131191083Y-126297428D01*
X131602361Y-126468205D01*
X132047685Y-126468594D01*
X132307501Y-126361240D01*
X133616592Y-126361240D01*
X133711132Y-126590044D01*
X133886035Y-126765253D01*
X134114674Y-126860192D01*
X134362240Y-126860408D01*
X134591044Y-126765868D01*
X134766253Y-126590965D01*
X134861192Y-126362326D01*
X134861408Y-126114760D01*
X134794027Y-125951685D01*
X135405406Y-125951685D01*
X135575466Y-126363261D01*
X135890083Y-126678428D01*
X136301361Y-126849205D01*
X136746685Y-126849594D01*
X137158261Y-126679534D01*
X137473428Y-126364917D01*
X137644205Y-125953639D01*
X137644499Y-125616846D01*
X147116677Y-125616846D01*
X147224723Y-125878336D01*
X147424612Y-126078574D01*
X147685913Y-126187076D01*
X147968846Y-126187323D01*
X148230336Y-126079277D01*
X148430574Y-125879388D01*
X148539076Y-125618087D01*
X148539323Y-125335154D01*
X148431277Y-125073664D01*
X148231388Y-124873426D01*
X147970087Y-124764924D01*
X147687154Y-124764677D01*
X147425664Y-124872723D01*
X147225426Y-125072612D01*
X147116924Y-125333913D01*
X147116677Y-125616846D01*
X137644499Y-125616846D01*
X137644594Y-125508315D01*
X137474534Y-125096739D01*
X137159917Y-124781572D01*
X136748639Y-124610795D01*
X136303315Y-124610406D01*
X135891739Y-124780466D01*
X135576572Y-125095083D01*
X135405795Y-125506361D01*
X135405406Y-125951685D01*
X134794027Y-125951685D01*
X134766868Y-125885956D01*
X134591965Y-125710747D01*
X134363326Y-125615808D01*
X134115760Y-125615592D01*
X133886956Y-125710132D01*
X133711747Y-125885035D01*
X133616808Y-126113674D01*
X133616592Y-126361240D01*
X132307501Y-126361240D01*
X132459261Y-126298534D01*
X132774428Y-125983917D01*
X132945205Y-125572639D01*
X132945594Y-125127315D01*
X132775534Y-124715739D01*
X132460917Y-124400572D01*
X132049639Y-124229795D01*
X131604315Y-124229406D01*
X131192739Y-124399466D01*
X130877572Y-124714083D01*
X130706795Y-125125361D01*
X130706406Y-125570685D01*
X127784478Y-125570685D01*
X127979772Y-125278407D01*
X128066778Y-124841000D01*
X127979772Y-124403593D01*
X127732001Y-124032777D01*
X127361185Y-123785006D01*
X126923778Y-123698000D01*
X126568222Y-123698000D01*
X126130815Y-123785006D01*
X125759999Y-124032777D01*
X125512228Y-124403593D01*
X125425222Y-124841000D01*
X124687400Y-124841000D01*
X124687400Y-122424240D01*
X128536592Y-122424240D01*
X128631132Y-122653044D01*
X128806035Y-122828253D01*
X129034674Y-122923192D01*
X129282240Y-122923408D01*
X129511044Y-122828868D01*
X129686253Y-122653965D01*
X129781192Y-122425326D01*
X129781408Y-122177760D01*
X129686868Y-121948956D01*
X129511965Y-121773747D01*
X129283326Y-121678808D01*
X129035760Y-121678592D01*
X128806956Y-121773132D01*
X128631747Y-121948035D01*
X128536808Y-122176674D01*
X128536592Y-122424240D01*
X124687400Y-122424240D01*
X124687400Y-119855685D01*
X137183406Y-119855685D01*
X137353466Y-120267261D01*
X137668083Y-120582428D01*
X138079361Y-120753205D01*
X138524685Y-120753594D01*
X138936261Y-120583534D01*
X139251428Y-120268917D01*
X139422205Y-119857639D01*
X139422594Y-119412315D01*
X139252534Y-119000739D01*
X138937917Y-118685572D01*
X138526639Y-118514795D01*
X138081315Y-118514406D01*
X137669739Y-118684466D01*
X137354572Y-118999083D01*
X137183795Y-119410361D01*
X137183406Y-119855685D01*
X124687400Y-119855685D01*
X124687400Y-105423846D01*
X131876677Y-105423846D01*
X131984723Y-105685336D01*
X132184612Y-105885574D01*
X132445913Y-105994076D01*
X132728846Y-105994323D01*
X132990336Y-105886277D01*
X133190574Y-105686388D01*
X133299076Y-105425087D01*
X133299323Y-105142154D01*
X133191277Y-104880664D01*
X132991388Y-104680426D01*
X132730087Y-104571924D01*
X132447154Y-104571677D01*
X132185664Y-104679723D01*
X131985426Y-104879612D01*
X131876924Y-105140913D01*
X131876677Y-105423846D01*
X124687400Y-105423846D01*
X124687400Y-95627240D01*
X133311792Y-95627240D01*
X133406332Y-95856044D01*
X133581235Y-96031253D01*
X133809874Y-96126192D01*
X133845301Y-96126223D01*
X133845301Y-109359870D01*
X133872369Y-109495953D01*
X133949454Y-109611317D01*
X145672729Y-121334592D01*
X145648426Y-121358853D01*
X145553487Y-121587492D01*
X145553271Y-121835058D01*
X145647811Y-122063862D01*
X145822714Y-122239071D01*
X146033026Y-122326400D01*
X135910294Y-122326400D01*
X135242196Y-121658302D01*
X135242408Y-121415760D01*
X135147868Y-121186956D01*
X134972965Y-121011747D01*
X134744326Y-120916808D01*
X134496760Y-120916592D01*
X134267956Y-121011132D01*
X134092747Y-121186035D01*
X133997808Y-121414674D01*
X133997592Y-121662240D01*
X134092132Y-121891044D01*
X134267035Y-122066253D01*
X134495674Y-122161192D01*
X134739511Y-122161405D01*
X135511553Y-122933447D01*
X135626917Y-123010532D01*
X135763000Y-123037600D01*
X141047200Y-123037600D01*
X140982808Y-123192674D01*
X140982592Y-123440240D01*
X141077132Y-123669044D01*
X141252035Y-123844253D01*
X141480674Y-123939192D01*
X141728240Y-123939408D01*
X141957044Y-123844868D01*
X142132253Y-123669965D01*
X142227192Y-123441326D01*
X142227408Y-123193760D01*
X142162884Y-123037600D01*
X145630783Y-123037600D01*
X145542124Y-123251113D01*
X145541877Y-123534046D01*
X145649923Y-123795536D01*
X145849812Y-123995774D01*
X146111113Y-124104276D01*
X146394046Y-124104523D01*
X146655536Y-123996477D01*
X146855774Y-123796588D01*
X146964276Y-123535287D01*
X146964523Y-123252354D01*
X146934993Y-123180887D01*
X147078804Y-123324698D01*
X147078592Y-123567240D01*
X147173132Y-123796044D01*
X147348035Y-123971253D01*
X147576674Y-124066192D01*
X147824240Y-124066408D01*
X148053044Y-123971868D01*
X148225613Y-123799600D01*
X152654000Y-123799600D01*
X152790083Y-123772532D01*
X152905447Y-123695447D01*
X156969447Y-119631447D01*
X157046532Y-119516083D01*
X157073600Y-119380000D01*
X157073600Y-117694769D01*
X157101635Y-117722853D01*
X157330274Y-117817792D01*
X157577840Y-117818008D01*
X157806644Y-117723468D01*
X157981853Y-117548565D01*
X158013400Y-117472591D01*
X158013400Y-119232706D01*
X155567302Y-121678804D01*
X155324760Y-121678592D01*
X155095956Y-121773132D01*
X154920747Y-121948035D01*
X154825808Y-122176674D01*
X154825592Y-122424240D01*
X154920132Y-122653044D01*
X155095035Y-122828253D01*
X155323674Y-122923192D01*
X155571240Y-122923408D01*
X155800044Y-122828868D01*
X155975253Y-122653965D01*
X156070192Y-122425326D01*
X156070405Y-122181489D01*
X158620447Y-119631447D01*
X158697532Y-119516083D01*
X158724600Y-119380000D01*
X158724600Y-92583000D01*
X158697532Y-92446918D01*
X158697532Y-92446917D01*
X158620447Y-92331553D01*
X156334447Y-90045553D01*
X156219083Y-89968468D01*
X156083000Y-89941400D01*
X146304000Y-89941400D01*
X146167917Y-89968468D01*
X146052553Y-90045553D01*
X139702553Y-96395553D01*
X139625468Y-96510917D01*
X139625468Y-96510918D01*
X139598400Y-96647000D01*
X139598400Y-99257801D01*
X139597400Y-99262828D01*
X139597400Y-99298468D01*
X139469653Y-99351252D01*
X139229097Y-99591389D01*
X139098748Y-99905304D01*
X139098452Y-100245205D01*
X139228252Y-100559347D01*
X139468389Y-100799903D01*
X139782304Y-100930252D01*
X140122205Y-100930548D01*
X140436347Y-100800748D01*
X140676903Y-100560611D01*
X140807252Y-100246696D01*
X140807548Y-99906795D01*
X140677748Y-99592653D01*
X140437611Y-99352097D01*
X140308600Y-99298527D01*
X140308600Y-99266855D01*
X140309600Y-99261828D01*
X140309600Y-96794294D01*
X146451294Y-90652600D01*
X152950344Y-90652600D01*
X152936956Y-90658132D01*
X152764387Y-90830400D01*
X147320000Y-90830400D01*
X147183918Y-90857468D01*
X147068553Y-90934553D01*
X141061452Y-96941654D01*
X140984367Y-97057018D01*
X140984367Y-97057019D01*
X140957299Y-97193101D01*
X140957299Y-108583374D01*
X140877485Y-108503420D01*
X140648846Y-108408481D01*
X140401280Y-108408265D01*
X140172476Y-108502805D01*
X139997267Y-108677708D01*
X139922600Y-108857526D01*
X139922600Y-108261788D01*
X139969336Y-108242477D01*
X140169574Y-108042588D01*
X140278076Y-107781287D01*
X140278323Y-107498354D01*
X140170277Y-107236864D01*
X139970388Y-107036626D01*
X139709087Y-106928124D01*
X139430417Y-106927881D01*
X138887200Y-106384664D01*
X138887200Y-97053400D01*
X138856265Y-96897877D01*
X138768168Y-96766032D01*
X137159881Y-95157745D01*
X137160123Y-94880554D01*
X137052077Y-94619064D01*
X136852188Y-94418826D01*
X136590887Y-94310324D01*
X136307954Y-94310077D01*
X136046464Y-94418123D01*
X135846226Y-94618012D01*
X135737724Y-94879313D01*
X135737477Y-95162246D01*
X135845523Y-95423736D01*
X136045412Y-95623974D01*
X136306713Y-95732476D01*
X136585383Y-95732719D01*
X138074400Y-97221736D01*
X138074400Y-106553000D01*
X138105335Y-106708523D01*
X138193432Y-106840368D01*
X138855919Y-107502855D01*
X138855677Y-107780046D01*
X138963723Y-108041536D01*
X139163612Y-108241774D01*
X139211400Y-108261617D01*
X139211400Y-112135000D01*
X139238468Y-112271083D01*
X139315553Y-112386447D01*
X147586804Y-120657698D01*
X147586592Y-120900240D01*
X147681132Y-121129044D01*
X147856035Y-121304253D01*
X148084674Y-121399192D01*
X148332240Y-121399408D01*
X148561044Y-121304868D01*
X148736253Y-121129965D01*
X148831192Y-120901326D01*
X148831408Y-120653760D01*
X148736868Y-120424956D01*
X148561965Y-120249747D01*
X148333326Y-120154808D01*
X148089489Y-120154595D01*
X147311134Y-119376240D01*
X147459592Y-119376240D01*
X147554132Y-119605044D01*
X147729035Y-119780253D01*
X147957674Y-119875192D01*
X148205240Y-119875408D01*
X148434044Y-119780868D01*
X148606613Y-119608600D01*
X152537868Y-119608600D01*
X153380885Y-120451617D01*
X153380673Y-120694159D01*
X153475213Y-120922963D01*
X153650116Y-121098172D01*
X153878755Y-121193111D01*
X154126321Y-121193327D01*
X154355125Y-121098787D01*
X154530334Y-120923884D01*
X154625273Y-120695245D01*
X154625489Y-120447679D01*
X154530949Y-120218875D01*
X154356046Y-120043666D01*
X154127407Y-119948727D01*
X153883570Y-119948514D01*
X152936609Y-119001553D01*
X152821245Y-118924468D01*
X152685162Y-118897400D01*
X148606318Y-118897400D01*
X148434965Y-118725747D01*
X148206326Y-118630808D01*
X147958760Y-118630592D01*
X147729956Y-118725132D01*
X147554747Y-118900035D01*
X147459808Y-119128674D01*
X147459592Y-119376240D01*
X147311134Y-119376240D01*
X145914134Y-117979240D01*
X147459592Y-117979240D01*
X147554132Y-118208044D01*
X147729035Y-118383253D01*
X147957674Y-118478192D01*
X148205240Y-118478408D01*
X148434044Y-118383868D01*
X148606613Y-118211600D01*
X152781000Y-118211600D01*
X152917083Y-118184532D01*
X153032447Y-118107447D01*
X155191447Y-115948447D01*
X155268532Y-115833083D01*
X155295600Y-115697000D01*
X155295600Y-114443318D01*
X155467253Y-114271965D01*
X155562192Y-114043326D01*
X155562408Y-113795760D01*
X155467868Y-113566956D01*
X155292965Y-113391747D01*
X155064326Y-113296808D01*
X154816760Y-113296592D01*
X154587956Y-113391132D01*
X154412747Y-113566035D01*
X154317808Y-113794674D01*
X154317592Y-114042240D01*
X154412132Y-114271044D01*
X154584400Y-114443613D01*
X154584400Y-115549706D01*
X152633706Y-117500400D01*
X148606318Y-117500400D01*
X148434965Y-117328747D01*
X148206326Y-117233808D01*
X147958760Y-117233592D01*
X147729956Y-117328132D01*
X147554747Y-117503035D01*
X147459808Y-117731674D01*
X147459592Y-117979240D01*
X145914134Y-117979240D01*
X144390134Y-116455240D01*
X146316592Y-116455240D01*
X146411132Y-116684044D01*
X146586035Y-116859253D01*
X146814674Y-116954192D01*
X147062240Y-116954408D01*
X147291044Y-116859868D01*
X147463613Y-116687600D01*
X150876000Y-116687600D01*
X151012083Y-116660532D01*
X151127447Y-116583447D01*
X152039294Y-115671600D01*
X153399682Y-115671600D01*
X153571035Y-115843253D01*
X153799674Y-115938192D01*
X154047240Y-115938408D01*
X154276044Y-115843868D01*
X154451253Y-115668965D01*
X154546192Y-115440326D01*
X154546408Y-115192760D01*
X154451868Y-114963956D01*
X154276965Y-114788747D01*
X154048326Y-114693808D01*
X153800760Y-114693592D01*
X153571956Y-114788132D01*
X153399387Y-114960400D01*
X151892000Y-114960400D01*
X151755917Y-114987468D01*
X151640553Y-115064553D01*
X150728706Y-115976400D01*
X147463318Y-115976400D01*
X147291965Y-115804747D01*
X147063326Y-115709808D01*
X146815760Y-115709592D01*
X146586956Y-115804132D01*
X146411747Y-115979035D01*
X146316808Y-116207674D01*
X146316592Y-116455240D01*
X144390134Y-116455240D01*
X139922600Y-111987706D01*
X139922600Y-109203498D01*
X139996652Y-109382717D01*
X140168920Y-109555286D01*
X140168920Y-111633000D01*
X140195988Y-111769083D01*
X140273073Y-111884447D01*
X141670073Y-113281447D01*
X141785438Y-113358532D01*
X141921520Y-113385600D01*
X143679344Y-113385600D01*
X143665956Y-113391132D01*
X143490747Y-113566035D01*
X143395808Y-113794674D01*
X143395592Y-114042240D01*
X143490132Y-114271044D01*
X143665035Y-114446253D01*
X143893674Y-114541192D01*
X144137511Y-114541405D01*
X145163553Y-115567447D01*
X145278918Y-115644532D01*
X145415000Y-115671600D01*
X147701000Y-115671600D01*
X147837083Y-115644532D01*
X147952447Y-115567447D01*
X148523948Y-114995947D01*
X148523950Y-114995944D01*
X155826447Y-107693447D01*
X155903532Y-107578083D01*
X155930600Y-107442000D01*
X155930600Y-95393318D01*
X156102253Y-95221965D01*
X156146492Y-95115426D01*
X156190132Y-95221044D01*
X156235400Y-95266391D01*
X156235400Y-101710682D01*
X156063747Y-101882035D01*
X155968808Y-102110674D01*
X155968592Y-102358240D01*
X156063132Y-102587044D01*
X156238035Y-102762253D01*
X156466674Y-102857192D01*
X156714240Y-102857408D01*
X156943044Y-102762868D01*
X157118253Y-102587965D01*
X157213192Y-102359326D01*
X157213408Y-102111760D01*
X157118868Y-101882956D01*
X156946600Y-101710387D01*
X156946600Y-95447874D01*
X157070044Y-95396868D01*
X157245253Y-95221965D01*
X157340192Y-94993326D01*
X157340408Y-94745760D01*
X157245868Y-94516956D01*
X157070965Y-94341747D01*
X156842326Y-94246808D01*
X156594760Y-94246592D01*
X156365956Y-94341132D01*
X156190747Y-94516035D01*
X156146508Y-94622574D01*
X156102868Y-94516956D01*
X155927965Y-94341747D01*
X155699326Y-94246808D01*
X155451760Y-94246592D01*
X155222956Y-94341132D01*
X155047747Y-94516035D01*
X154952808Y-94744674D01*
X154952592Y-94992240D01*
X155047132Y-95221044D01*
X155219400Y-95393613D01*
X155219400Y-107294706D01*
X148577396Y-113936710D01*
X148577405Y-113926489D01*
X154810447Y-107693447D01*
X154846694Y-107639200D01*
X154887532Y-107578082D01*
X154914600Y-107442000D01*
X154914600Y-105553318D01*
X155086253Y-105381965D01*
X155181192Y-105153326D01*
X155181408Y-104905760D01*
X155086868Y-104676956D01*
X154911965Y-104501747D01*
X154683326Y-104406808D01*
X154435760Y-104406592D01*
X154206956Y-104501132D01*
X154031747Y-104676035D01*
X153936808Y-104904674D01*
X153936592Y-105152240D01*
X154031132Y-105381044D01*
X154203400Y-105553613D01*
X154203400Y-107294706D01*
X153255410Y-108242696D01*
X153255622Y-107999628D01*
X153061255Y-107529225D01*
X152701668Y-107169010D01*
X152231605Y-106973822D01*
X151722628Y-106973378D01*
X151252225Y-107167745D01*
X150892010Y-107527332D01*
X150696822Y-107997395D01*
X150696378Y-108506372D01*
X150890745Y-108976775D01*
X151250332Y-109336990D01*
X151720395Y-109532178D01*
X151965714Y-109532392D01*
X148074302Y-113423804D01*
X147831760Y-113423592D01*
X147602956Y-113518132D01*
X147427747Y-113693035D01*
X147332808Y-113921674D01*
X147332592Y-114169240D01*
X147427132Y-114398044D01*
X147602035Y-114573253D01*
X147830674Y-114668192D01*
X147845900Y-114668205D01*
X147553706Y-114960400D01*
X145562294Y-114960400D01*
X144640196Y-114038302D01*
X144640408Y-113795760D01*
X144545868Y-113566956D01*
X144370965Y-113391747D01*
X144356161Y-113385600D01*
X145713706Y-113385600D01*
X145852076Y-113523970D01*
X145851864Y-113766512D01*
X145946404Y-113995316D01*
X146121307Y-114170525D01*
X146349946Y-114265464D01*
X146597512Y-114265680D01*
X146826316Y-114171140D01*
X147001525Y-113996237D01*
X147096464Y-113767598D01*
X147096680Y-113520032D01*
X147002140Y-113291228D01*
X146911781Y-113200711D01*
X146983653Y-113128965D01*
X147078592Y-112900326D01*
X147078808Y-112652760D01*
X146984268Y-112423956D01*
X146812000Y-112251387D01*
X146812000Y-112074347D01*
X146941674Y-112128192D01*
X147189240Y-112128408D01*
X147418044Y-112033868D01*
X147590613Y-111861600D01*
X148844000Y-111861600D01*
X148980083Y-111834532D01*
X149095447Y-111757447D01*
X149740698Y-111112196D01*
X149983240Y-111112408D01*
X150212044Y-111017868D01*
X150387253Y-110842965D01*
X150482192Y-110614326D01*
X150482408Y-110366760D01*
X150387868Y-110137956D01*
X150212965Y-109962747D01*
X149984326Y-109867808D01*
X149736760Y-109867592D01*
X149507956Y-109962132D01*
X149332747Y-110137035D01*
X149237808Y-110365674D01*
X149237595Y-110609511D01*
X148696706Y-111150400D01*
X147590318Y-111150400D01*
X147418965Y-110978747D01*
X147190326Y-110883808D01*
X146942760Y-110883592D01*
X146812000Y-110937621D01*
X146812000Y-110389290D01*
X146784932Y-110253208D01*
X146707847Y-110137843D01*
X145067192Y-108497188D01*
X145056804Y-108472109D01*
X145041925Y-108471921D01*
X144704279Y-108134275D01*
X144704091Y-108119396D01*
X144682758Y-108112754D01*
X144186044Y-107616040D01*
X145071992Y-107616040D01*
X145166532Y-107844844D01*
X145341435Y-108020053D01*
X145570074Y-108114992D01*
X145817640Y-108115208D01*
X146046444Y-108020668D01*
X146221653Y-107845765D01*
X146316592Y-107617126D01*
X146316805Y-107373289D01*
X150365447Y-103324647D01*
X150442532Y-103209283D01*
X150469600Y-103073200D01*
X150469600Y-95647318D01*
X150641253Y-95475965D01*
X150729332Y-95263846D01*
X151587077Y-95263846D01*
X151695123Y-95525336D01*
X151895012Y-95725574D01*
X152156313Y-95834076D01*
X152439246Y-95834323D01*
X152700736Y-95726277D01*
X152900974Y-95526388D01*
X153009476Y-95265087D01*
X153009723Y-94982154D01*
X152901677Y-94720664D01*
X152701788Y-94520426D01*
X152440487Y-94411924D01*
X152157554Y-94411677D01*
X151896064Y-94519723D01*
X151695826Y-94719612D01*
X151587324Y-94980913D01*
X151587077Y-95263846D01*
X150729332Y-95263846D01*
X150736192Y-95247326D01*
X150736408Y-94999760D01*
X150641868Y-94770956D01*
X150466965Y-94595747D01*
X150238326Y-94500808D01*
X149990760Y-94500592D01*
X149761956Y-94595132D01*
X149586747Y-94770035D01*
X149491808Y-94998674D01*
X149491592Y-95246240D01*
X149586132Y-95475044D01*
X149758400Y-95647613D01*
X149758400Y-102925906D01*
X145813702Y-106870604D01*
X145571160Y-106870392D01*
X145342356Y-106964932D01*
X145167147Y-107139835D01*
X145072208Y-107368474D01*
X145071992Y-107616040D01*
X144186044Y-107616040D01*
X143811357Y-107241353D01*
X143695993Y-107164268D01*
X143559910Y-107137200D01*
X142408718Y-107137200D01*
X142237365Y-106965547D01*
X142008726Y-106870608D01*
X141761160Y-106870392D01*
X141668499Y-106908679D01*
X141668499Y-97340395D01*
X147467294Y-91541600D01*
X152764682Y-91541600D01*
X152936035Y-91713253D01*
X153164674Y-91808192D01*
X153412240Y-91808408D01*
X153641044Y-91713868D01*
X153816253Y-91538965D01*
X153911192Y-91310326D01*
X153911408Y-91062760D01*
X153816868Y-90833956D01*
X153641965Y-90658747D01*
X153627161Y-90652600D01*
X155935706Y-90652600D01*
X158013400Y-92730294D01*
X158013400Y-116918417D01*
X157982468Y-116843556D01*
X157807565Y-116668347D01*
X157578926Y-116573408D01*
X157331360Y-116573192D01*
X157102556Y-116667732D01*
X157073600Y-116696637D01*
X157073600Y-112411318D01*
X157245253Y-112239965D01*
X157340192Y-112011326D01*
X157340408Y-111763760D01*
X157245868Y-111534956D01*
X157070965Y-111359747D01*
X156842326Y-111264808D01*
X156594760Y-111264592D01*
X156365956Y-111359132D01*
X156190747Y-111534035D01*
X156095808Y-111762674D01*
X156095592Y-112010240D01*
X156190132Y-112239044D01*
X156362400Y-112411613D01*
X156362400Y-119232706D01*
X152506706Y-123088400D01*
X148225318Y-123088400D01*
X148053965Y-122916747D01*
X147825326Y-122821808D01*
X147581489Y-122821595D01*
X147190447Y-122430553D01*
X147075083Y-122353468D01*
X146939000Y-122326400D01*
X146317859Y-122326400D01*
X146527723Y-122239686D01*
X146702932Y-122064783D01*
X146797871Y-121836144D01*
X146797969Y-121723473D01*
X146909575Y-121723570D01*
X147138379Y-121629030D01*
X147313588Y-121454127D01*
X147408527Y-121225488D01*
X147408743Y-120977922D01*
X147314203Y-120749118D01*
X147139300Y-120573909D01*
X146910661Y-120478970D01*
X146663095Y-120478754D01*
X146434291Y-120573294D01*
X146409219Y-120598322D01*
X134886699Y-109075802D01*
X134886699Y-102745205D01*
X135798452Y-102745205D01*
X135928252Y-103059347D01*
X136168389Y-103299903D01*
X136482304Y-103430252D01*
X136822205Y-103430548D01*
X137136347Y-103300748D01*
X137376903Y-103060611D01*
X137507252Y-102746696D01*
X137507548Y-102406795D01*
X137377748Y-102092653D01*
X137137611Y-101852097D01*
X136823696Y-101721748D01*
X136483795Y-101721452D01*
X136169653Y-101851252D01*
X135929097Y-102091389D01*
X135798748Y-102405304D01*
X135798452Y-102745205D01*
X134886699Y-102745205D01*
X134886699Y-97745205D01*
X135798452Y-97745205D01*
X135928252Y-98059347D01*
X136168389Y-98299903D01*
X136482304Y-98430252D01*
X136822205Y-98430548D01*
X137136347Y-98300748D01*
X137376903Y-98060611D01*
X137507252Y-97746696D01*
X137507548Y-97406795D01*
X137377748Y-97092653D01*
X137137611Y-96852097D01*
X136823696Y-96721748D01*
X136483795Y-96721452D01*
X136169653Y-96851252D01*
X135929097Y-97091389D01*
X135798748Y-97405304D01*
X135798452Y-97745205D01*
X134886699Y-97745205D01*
X134886699Y-96126378D01*
X134921040Y-96126408D01*
X135149844Y-96031868D01*
X135325053Y-95856965D01*
X135419992Y-95628326D01*
X135420208Y-95380760D01*
X135325668Y-95151956D01*
X135150765Y-94976747D01*
X134922126Y-94881808D01*
X134674560Y-94881592D01*
X134445756Y-94976132D01*
X134366014Y-95055734D01*
X134287165Y-94976747D01*
X134058526Y-94881808D01*
X133810960Y-94881592D01*
X133582156Y-94976132D01*
X133406947Y-95151035D01*
X133312008Y-95379674D01*
X133311792Y-95627240D01*
X124687400Y-95627240D01*
X124687400Y-91804745D01*
X129981861Y-91804745D01*
X130055995Y-92050864D01*
X130593223Y-92243965D01*
X131163454Y-92216778D01*
X131564005Y-92050864D01*
X131638139Y-91804745D01*
X136331861Y-91804745D01*
X136405995Y-92050864D01*
X136943223Y-92243965D01*
X137513454Y-92216778D01*
X137914005Y-92050864D01*
X137988139Y-91804745D01*
X137160000Y-90976605D01*
X136331861Y-91804745D01*
X131638139Y-91804745D01*
X130810000Y-90976605D01*
X129981861Y-91804745D01*
X124687400Y-91804745D01*
X124687400Y-89889400D01*
X129722792Y-89889400D01*
X129802253Y-89968861D01*
X129802253Y-89968861D01*
G37*
X129802253Y-89968861D02*
X129556136Y-90042995D01*
X129363035Y-90580223D01*
X129390222Y-91150454D01*
X129556136Y-91551005D01*
X129802255Y-91625139D01*
X130630395Y-90797000D01*
X130616252Y-90782858D01*
X130795858Y-90603252D01*
X130810000Y-90617395D01*
X130824142Y-90603252D01*
X131003748Y-90782858D01*
X130989605Y-90797000D01*
X131817745Y-91625139D01*
X132063864Y-91551005D01*
X132256965Y-91013777D01*
X132229778Y-90443546D01*
X132063864Y-90042995D01*
X131817747Y-89968861D01*
X131897208Y-89889400D01*
X136072792Y-89889400D01*
X136152253Y-89968861D01*
X135906136Y-90042995D01*
X135713035Y-90580223D01*
X135740222Y-91150454D01*
X135906136Y-91551005D01*
X136152255Y-91625139D01*
X136980395Y-90797000D01*
X136966252Y-90782858D01*
X137145858Y-90603252D01*
X137160000Y-90617395D01*
X137174142Y-90603252D01*
X137353748Y-90782858D01*
X137339605Y-90797000D01*
X138167745Y-91625139D01*
X138413864Y-91551005D01*
X138606965Y-91013777D01*
X138579778Y-90443546D01*
X138413864Y-90042995D01*
X138167747Y-89968861D01*
X138247208Y-89889400D01*
X159157600Y-89889400D01*
X159157600Y-128397000D01*
X148971000Y-128397000D01*
X148922399Y-128406667D01*
X148881197Y-128434197D01*
X148853667Y-128475399D01*
X148844000Y-128524000D01*
X148844000Y-148235600D01*
X124687400Y-148235600D01*
X124687400Y-145433401D01*
X134221469Y-145433401D01*
X134336078Y-145710775D01*
X134548109Y-145923177D01*
X134825282Y-146038269D01*
X135125401Y-146038531D01*
X135402775Y-145923922D01*
X135615177Y-145711891D01*
X135729154Y-145437401D01*
X137929469Y-145437401D01*
X138044078Y-145714775D01*
X138256109Y-145927177D01*
X138533282Y-146042269D01*
X138833401Y-146042531D01*
X139110775Y-145927922D01*
X139323177Y-145715891D01*
X139347325Y-145657734D01*
X144195499Y-145657734D01*
X144284281Y-145872603D01*
X144448532Y-146037141D01*
X144663246Y-146126298D01*
X144895734Y-146126501D01*
X145110603Y-146037719D01*
X145275141Y-145873468D01*
X145364298Y-145658754D01*
X145364501Y-145426266D01*
X145275719Y-145211397D01*
X145111468Y-145046859D01*
X144896754Y-144957702D01*
X144664266Y-144957499D01*
X144449397Y-145046281D01*
X144284859Y-145210532D01*
X144195702Y-145425246D01*
X144195499Y-145657734D01*
X139347325Y-145657734D01*
X139438269Y-145438718D01*
X139438531Y-145138599D01*
X139323922Y-144861225D01*
X139256661Y-144793846D01*
X139750677Y-144793846D01*
X139858723Y-145055336D01*
X140058612Y-145255574D01*
X140319913Y-145364076D01*
X140602846Y-145364323D01*
X140864336Y-145256277D01*
X141064574Y-145056388D01*
X141173076Y-144795087D01*
X141173323Y-144512154D01*
X141065277Y-144250664D01*
X140865388Y-144050426D01*
X140604087Y-143941924D01*
X140321154Y-143941677D01*
X140059664Y-144049723D01*
X139859426Y-144249612D01*
X139750924Y-144510913D01*
X139750677Y-144793846D01*
X139256661Y-144793846D01*
X139111891Y-144648823D01*
X138834718Y-144533731D01*
X138534599Y-144533469D01*
X138257225Y-144648078D01*
X138044823Y-144860109D01*
X137929731Y-145137282D01*
X137929469Y-145437401D01*
X135729154Y-145437401D01*
X135730269Y-145434718D01*
X135730531Y-145134599D01*
X135615922Y-144857225D01*
X135403891Y-144644823D01*
X135126718Y-144529731D01*
X134826599Y-144529469D01*
X134549225Y-144644078D01*
X134336823Y-144856109D01*
X134221731Y-145133282D01*
X134221469Y-145433401D01*
X124687400Y-145433401D01*
X124687400Y-143219046D01*
X146659477Y-143219046D01*
X146767523Y-143480536D01*
X146967412Y-143680774D01*
X147228713Y-143789276D01*
X147511646Y-143789523D01*
X147773136Y-143681477D01*
X147973374Y-143481588D01*
X148081876Y-143220287D01*
X148082123Y-142937354D01*
X147974077Y-142675864D01*
X147774188Y-142475626D01*
X147512887Y-142367124D01*
X147229954Y-142366877D01*
X146968464Y-142474923D01*
X146768226Y-142674812D01*
X146659724Y-142936113D01*
X146659477Y-143219046D01*
X124687400Y-143219046D01*
X124687400Y-140983846D01*
X128320677Y-140983846D01*
X128428723Y-141245336D01*
X128628612Y-141445574D01*
X128889913Y-141554076D01*
X129172846Y-141554323D01*
X129434336Y-141446277D01*
X129634574Y-141246388D01*
X129743076Y-140985087D01*
X129743323Y-140702154D01*
X129735692Y-140683685D01*
X135659406Y-140683685D01*
X135829466Y-141095261D01*
X136144083Y-141410428D01*
X136555361Y-141581205D01*
X137000685Y-141581594D01*
X137412261Y-141411534D01*
X137727428Y-141096917D01*
X137898205Y-140685639D01*
X137898206Y-140683685D01*
X138961406Y-140683685D01*
X139131466Y-141095261D01*
X139446083Y-141410428D01*
X139857361Y-141581205D01*
X140302685Y-141581594D01*
X140714261Y-141411534D01*
X141029428Y-141096917D01*
X141200205Y-140685639D01*
X141200594Y-140240315D01*
X141030534Y-139828739D01*
X140715917Y-139513572D01*
X140304639Y-139342795D01*
X139859315Y-139342406D01*
X139447739Y-139512466D01*
X139132572Y-139827083D01*
X138961795Y-140238361D01*
X138961406Y-140683685D01*
X137898206Y-140683685D01*
X137898594Y-140240315D01*
X137728534Y-139828739D01*
X137413917Y-139513572D01*
X137002639Y-139342795D01*
X136557315Y-139342406D01*
X136145739Y-139512466D01*
X135830572Y-139827083D01*
X135659795Y-140238361D01*
X135659406Y-140683685D01*
X129735692Y-140683685D01*
X129635277Y-140440664D01*
X129435388Y-140240426D01*
X129174087Y-140131924D01*
X128891154Y-140131677D01*
X128629664Y-140239723D01*
X128429426Y-140439612D01*
X128320924Y-140700913D01*
X128320677Y-140983846D01*
X124687400Y-140983846D01*
X124687400Y-137191750D01*
X125095000Y-137191750D01*
X125095000Y-138048310D01*
X125191673Y-138281699D01*
X125370302Y-138460327D01*
X125603691Y-138557000D01*
X126460250Y-138557000D01*
X126619000Y-138398250D01*
X126619000Y-137033000D01*
X126873000Y-137033000D01*
X126873000Y-138398250D01*
X127031750Y-138557000D01*
X127888309Y-138557000D01*
X128121698Y-138460327D01*
X128300327Y-138281699D01*
X128397000Y-138048310D01*
X128397000Y-137196372D01*
X130096378Y-137196372D01*
X130290745Y-137666775D01*
X130650332Y-138026990D01*
X131120395Y-138222178D01*
X131629372Y-138222622D01*
X131820413Y-138143685D01*
X145184406Y-138143685D01*
X145354466Y-138555261D01*
X145669083Y-138870428D01*
X146080361Y-139041205D01*
X146525685Y-139041594D01*
X146937261Y-138871534D01*
X147252428Y-138556917D01*
X147423205Y-138145639D01*
X147423594Y-137700315D01*
X147253534Y-137288739D01*
X146938917Y-136973572D01*
X146527639Y-136802795D01*
X146082315Y-136802406D01*
X145670739Y-136972466D01*
X145355572Y-137287083D01*
X145184795Y-137698361D01*
X145184406Y-138143685D01*
X131820413Y-138143685D01*
X132099775Y-138028255D01*
X132459990Y-137668668D01*
X132655178Y-137198605D01*
X132655622Y-136689628D01*
X132461255Y-136219225D01*
X132101668Y-135859010D01*
X131631605Y-135663822D01*
X131122628Y-135663378D01*
X130652225Y-135857745D01*
X130292010Y-136217332D01*
X130096822Y-136687395D01*
X130096378Y-137196372D01*
X128397000Y-137196372D01*
X128397000Y-137191750D01*
X128238250Y-137033000D01*
X126873000Y-137033000D01*
X126619000Y-137033000D01*
X125253750Y-137033000D01*
X125095000Y-137191750D01*
X124687400Y-137191750D01*
X124687400Y-135763690D01*
X125095000Y-135763690D01*
X125095000Y-136620250D01*
X125253750Y-136779000D01*
X126619000Y-136779000D01*
X126619000Y-136759000D01*
X126873000Y-136759000D01*
X126873000Y-136779000D01*
X128238250Y-136779000D01*
X128397000Y-136620250D01*
X128397000Y-135763690D01*
X128300327Y-135530301D01*
X128121698Y-135351673D01*
X127888309Y-135255000D01*
X127705396Y-135255000D01*
X127968172Y-134861728D01*
X128066778Y-134366000D01*
X128015507Y-134108240D01*
X137426592Y-134108240D01*
X137521132Y-134337044D01*
X137696035Y-134512253D01*
X137924674Y-134607192D01*
X138172240Y-134607408D01*
X138401044Y-134512868D01*
X138576253Y-134337965D01*
X138671192Y-134109326D01*
X138671408Y-133861760D01*
X138576868Y-133632956D01*
X138401965Y-133457747D01*
X138173326Y-133362808D01*
X137925760Y-133362592D01*
X137696956Y-133457132D01*
X137521747Y-133632035D01*
X137426808Y-133860674D01*
X137426592Y-134108240D01*
X128015507Y-134108240D01*
X127968172Y-133870272D01*
X127687364Y-133450014D01*
X127267106Y-133169206D01*
X126771378Y-133070600D01*
X126720622Y-133070600D01*
X126224894Y-133169206D01*
X125804636Y-133450014D01*
X125523828Y-133870272D01*
X125425222Y-134366000D01*
X125523828Y-134861728D01*
X125786604Y-135255000D01*
X125603691Y-135255000D01*
X125370302Y-135351673D01*
X125191673Y-135530301D01*
X125095000Y-135763690D01*
X124687400Y-135763690D01*
X124687400Y-132965240D01*
X141871592Y-132965240D01*
X141966132Y-133194044D01*
X142138400Y-133366613D01*
X142138400Y-136525000D01*
X142165468Y-136661083D01*
X142242553Y-136776447D01*
X142633804Y-137167698D01*
X142633592Y-137410240D01*
X142728132Y-137639044D01*
X142903035Y-137814253D01*
X143131674Y-137909192D01*
X143379240Y-137909408D01*
X143608044Y-137814868D01*
X143783253Y-137639965D01*
X143878192Y-137411326D01*
X143878408Y-137163760D01*
X143783868Y-136934956D01*
X143608965Y-136759747D01*
X143380326Y-136664808D01*
X143136489Y-136664595D01*
X142849600Y-136377706D01*
X142849600Y-133366318D01*
X143018613Y-133197600D01*
X145144682Y-133197600D01*
X145316035Y-133369253D01*
X145544674Y-133464192D01*
X145792240Y-133464408D01*
X146021044Y-133369868D01*
X146196253Y-133194965D01*
X146291192Y-132966326D01*
X146291408Y-132718760D01*
X146196868Y-132489956D01*
X146021965Y-132314747D01*
X145793326Y-132219808D01*
X145545760Y-132219592D01*
X145316956Y-132314132D01*
X145144387Y-132486400D01*
X143018318Y-132486400D01*
X142846965Y-132314747D01*
X142618326Y-132219808D01*
X142370760Y-132219592D01*
X142141956Y-132314132D01*
X141966747Y-132489035D01*
X141871808Y-132717674D01*
X141871592Y-132965240D01*
X124687400Y-132965240D01*
X124687400Y-130206750D01*
X125095000Y-130206750D01*
X125095000Y-130910910D01*
X125191673Y-131144299D01*
X125370302Y-131322927D01*
X125603691Y-131419600D01*
X126460250Y-131419600D01*
X126619000Y-131260850D01*
X126619000Y-130048000D01*
X126873000Y-130048000D01*
X126873000Y-131260850D01*
X127031750Y-131419600D01*
X127888309Y-131419600D01*
X128121698Y-131322927D01*
X128300327Y-131144299D01*
X128397000Y-130910910D01*
X128397000Y-130269685D01*
X141882406Y-130269685D01*
X142052466Y-130681261D01*
X142367083Y-130996428D01*
X142778361Y-131167205D01*
X143223685Y-131167594D01*
X143635261Y-130997534D01*
X143950428Y-130682917D01*
X144121205Y-130271639D01*
X144121594Y-129826315D01*
X143951534Y-129414739D01*
X143636917Y-129099572D01*
X143225639Y-128928795D01*
X142780315Y-128928406D01*
X142368739Y-129098466D01*
X142053572Y-129413083D01*
X141882795Y-129824361D01*
X141882406Y-130269685D01*
X128397000Y-130269685D01*
X128397000Y-130206750D01*
X128238250Y-130048000D01*
X126873000Y-130048000D01*
X126619000Y-130048000D01*
X125253750Y-130048000D01*
X125095000Y-130206750D01*
X124687400Y-130206750D01*
X124687400Y-128931090D01*
X125095000Y-128931090D01*
X125095000Y-129635250D01*
X125253750Y-129794000D01*
X126619000Y-129794000D01*
X126619000Y-129774000D01*
X126873000Y-129774000D01*
X126873000Y-129794000D01*
X128238250Y-129794000D01*
X128397000Y-129635250D01*
X128397000Y-128931090D01*
X128300327Y-128697701D01*
X128121698Y-128519073D01*
X127888309Y-128422400D01*
X127383026Y-128422400D01*
X127732001Y-128189223D01*
X127979772Y-127818407D01*
X128042263Y-127504240D01*
X139585592Y-127504240D01*
X139680132Y-127733044D01*
X139855035Y-127908253D01*
X140083674Y-128003192D01*
X140331240Y-128003408D01*
X140560044Y-127908868D01*
X140735253Y-127733965D01*
X140830192Y-127505326D01*
X140830408Y-127257760D01*
X140735868Y-127028956D01*
X140560965Y-126853747D01*
X140332326Y-126758808D01*
X140084760Y-126758592D01*
X139855956Y-126853132D01*
X139680747Y-127028035D01*
X139585808Y-127256674D01*
X139585592Y-127504240D01*
X128042263Y-127504240D01*
X128066778Y-127381000D01*
X127979772Y-126943593D01*
X127732001Y-126572777D01*
X127361185Y-126325006D01*
X126923778Y-126238000D01*
X126568222Y-126238000D01*
X126130815Y-126325006D01*
X125759999Y-126572777D01*
X125512228Y-126943593D01*
X125425222Y-127381000D01*
X125512228Y-127818407D01*
X125759999Y-128189223D01*
X126108974Y-128422400D01*
X125603691Y-128422400D01*
X125370302Y-128519073D01*
X125191673Y-128697701D01*
X125095000Y-128931090D01*
X124687400Y-128931090D01*
X124687400Y-124841000D01*
X125425222Y-124841000D01*
X125512228Y-125278407D01*
X125759999Y-125649223D01*
X126130815Y-125896994D01*
X126568222Y-125984000D01*
X126923778Y-125984000D01*
X127361185Y-125896994D01*
X127732001Y-125649223D01*
X127784478Y-125570685D01*
X130706406Y-125570685D01*
X130876466Y-125982261D01*
X131191083Y-126297428D01*
X131602361Y-126468205D01*
X132047685Y-126468594D01*
X132307501Y-126361240D01*
X133616592Y-126361240D01*
X133711132Y-126590044D01*
X133886035Y-126765253D01*
X134114674Y-126860192D01*
X134362240Y-126860408D01*
X134591044Y-126765868D01*
X134766253Y-126590965D01*
X134861192Y-126362326D01*
X134861408Y-126114760D01*
X134794027Y-125951685D01*
X135405406Y-125951685D01*
X135575466Y-126363261D01*
X135890083Y-126678428D01*
X136301361Y-126849205D01*
X136746685Y-126849594D01*
X137158261Y-126679534D01*
X137473428Y-126364917D01*
X137644205Y-125953639D01*
X137644499Y-125616846D01*
X147116677Y-125616846D01*
X147224723Y-125878336D01*
X147424612Y-126078574D01*
X147685913Y-126187076D01*
X147968846Y-126187323D01*
X148230336Y-126079277D01*
X148430574Y-125879388D01*
X148539076Y-125618087D01*
X148539323Y-125335154D01*
X148431277Y-125073664D01*
X148231388Y-124873426D01*
X147970087Y-124764924D01*
X147687154Y-124764677D01*
X147425664Y-124872723D01*
X147225426Y-125072612D01*
X147116924Y-125333913D01*
X147116677Y-125616846D01*
X137644499Y-125616846D01*
X137644594Y-125508315D01*
X137474534Y-125096739D01*
X137159917Y-124781572D01*
X136748639Y-124610795D01*
X136303315Y-124610406D01*
X135891739Y-124780466D01*
X135576572Y-125095083D01*
X135405795Y-125506361D01*
X135405406Y-125951685D01*
X134794027Y-125951685D01*
X134766868Y-125885956D01*
X134591965Y-125710747D01*
X134363326Y-125615808D01*
X134115760Y-125615592D01*
X133886956Y-125710132D01*
X133711747Y-125885035D01*
X133616808Y-126113674D01*
X133616592Y-126361240D01*
X132307501Y-126361240D01*
X132459261Y-126298534D01*
X132774428Y-125983917D01*
X132945205Y-125572639D01*
X132945594Y-125127315D01*
X132775534Y-124715739D01*
X132460917Y-124400572D01*
X132049639Y-124229795D01*
X131604315Y-124229406D01*
X131192739Y-124399466D01*
X130877572Y-124714083D01*
X130706795Y-125125361D01*
X130706406Y-125570685D01*
X127784478Y-125570685D01*
X127979772Y-125278407D01*
X128066778Y-124841000D01*
X127979772Y-124403593D01*
X127732001Y-124032777D01*
X127361185Y-123785006D01*
X126923778Y-123698000D01*
X126568222Y-123698000D01*
X126130815Y-123785006D01*
X125759999Y-124032777D01*
X125512228Y-124403593D01*
X125425222Y-124841000D01*
X124687400Y-124841000D01*
X124687400Y-122424240D01*
X128536592Y-122424240D01*
X128631132Y-122653044D01*
X128806035Y-122828253D01*
X129034674Y-122923192D01*
X129282240Y-122923408D01*
X129511044Y-122828868D01*
X129686253Y-122653965D01*
X129781192Y-122425326D01*
X129781408Y-122177760D01*
X129686868Y-121948956D01*
X129511965Y-121773747D01*
X129283326Y-121678808D01*
X129035760Y-121678592D01*
X128806956Y-121773132D01*
X128631747Y-121948035D01*
X128536808Y-122176674D01*
X128536592Y-122424240D01*
X124687400Y-122424240D01*
X124687400Y-119855685D01*
X137183406Y-119855685D01*
X137353466Y-120267261D01*
X137668083Y-120582428D01*
X138079361Y-120753205D01*
X138524685Y-120753594D01*
X138936261Y-120583534D01*
X139251428Y-120268917D01*
X139422205Y-119857639D01*
X139422594Y-119412315D01*
X139252534Y-119000739D01*
X138937917Y-118685572D01*
X138526639Y-118514795D01*
X138081315Y-118514406D01*
X137669739Y-118684466D01*
X137354572Y-118999083D01*
X137183795Y-119410361D01*
X137183406Y-119855685D01*
X124687400Y-119855685D01*
X124687400Y-105423846D01*
X131876677Y-105423846D01*
X131984723Y-105685336D01*
X132184612Y-105885574D01*
X132445913Y-105994076D01*
X132728846Y-105994323D01*
X132990336Y-105886277D01*
X133190574Y-105686388D01*
X133299076Y-105425087D01*
X133299323Y-105142154D01*
X133191277Y-104880664D01*
X132991388Y-104680426D01*
X132730087Y-104571924D01*
X132447154Y-104571677D01*
X132185664Y-104679723D01*
X131985426Y-104879612D01*
X131876924Y-105140913D01*
X131876677Y-105423846D01*
X124687400Y-105423846D01*
X124687400Y-95627240D01*
X133311792Y-95627240D01*
X133406332Y-95856044D01*
X133581235Y-96031253D01*
X133809874Y-96126192D01*
X133845301Y-96126223D01*
X133845301Y-109359870D01*
X133872369Y-109495953D01*
X133949454Y-109611317D01*
X145672729Y-121334592D01*
X145648426Y-121358853D01*
X145553487Y-121587492D01*
X145553271Y-121835058D01*
X145647811Y-122063862D01*
X145822714Y-122239071D01*
X146033026Y-122326400D01*
X135910294Y-122326400D01*
X135242196Y-121658302D01*
X135242408Y-121415760D01*
X135147868Y-121186956D01*
X134972965Y-121011747D01*
X134744326Y-120916808D01*
X134496760Y-120916592D01*
X134267956Y-121011132D01*
X134092747Y-121186035D01*
X133997808Y-121414674D01*
X133997592Y-121662240D01*
X134092132Y-121891044D01*
X134267035Y-122066253D01*
X134495674Y-122161192D01*
X134739511Y-122161405D01*
X135511553Y-122933447D01*
X135626917Y-123010532D01*
X135763000Y-123037600D01*
X141047200Y-123037600D01*
X140982808Y-123192674D01*
X140982592Y-123440240D01*
X141077132Y-123669044D01*
X141252035Y-123844253D01*
X141480674Y-123939192D01*
X141728240Y-123939408D01*
X141957044Y-123844868D01*
X142132253Y-123669965D01*
X142227192Y-123441326D01*
X142227408Y-123193760D01*
X142162884Y-123037600D01*
X145630783Y-123037600D01*
X145542124Y-123251113D01*
X145541877Y-123534046D01*
X145649923Y-123795536D01*
X145849812Y-123995774D01*
X146111113Y-124104276D01*
X146394046Y-124104523D01*
X146655536Y-123996477D01*
X146855774Y-123796588D01*
X146964276Y-123535287D01*
X146964523Y-123252354D01*
X146934993Y-123180887D01*
X147078804Y-123324698D01*
X147078592Y-123567240D01*
X147173132Y-123796044D01*
X147348035Y-123971253D01*
X147576674Y-124066192D01*
X147824240Y-124066408D01*
X148053044Y-123971868D01*
X148225613Y-123799600D01*
X152654000Y-123799600D01*
X152790083Y-123772532D01*
X152905447Y-123695447D01*
X156969447Y-119631447D01*
X157046532Y-119516083D01*
X157073600Y-119380000D01*
X157073600Y-117694769D01*
X157101635Y-117722853D01*
X157330274Y-117817792D01*
X157577840Y-117818008D01*
X157806644Y-117723468D01*
X157981853Y-117548565D01*
X158013400Y-117472591D01*
X158013400Y-119232706D01*
X155567302Y-121678804D01*
X155324760Y-121678592D01*
X155095956Y-121773132D01*
X154920747Y-121948035D01*
X154825808Y-122176674D01*
X154825592Y-122424240D01*
X154920132Y-122653044D01*
X155095035Y-122828253D01*
X155323674Y-122923192D01*
X155571240Y-122923408D01*
X155800044Y-122828868D01*
X155975253Y-122653965D01*
X156070192Y-122425326D01*
X156070405Y-122181489D01*
X158620447Y-119631447D01*
X158697532Y-119516083D01*
X158724600Y-119380000D01*
X158724600Y-92583000D01*
X158697532Y-92446918D01*
X158697532Y-92446917D01*
X158620447Y-92331553D01*
X156334447Y-90045553D01*
X156219083Y-89968468D01*
X156083000Y-89941400D01*
X146304000Y-89941400D01*
X146167917Y-89968468D01*
X146052553Y-90045553D01*
X139702553Y-96395553D01*
X139625468Y-96510917D01*
X139625468Y-96510918D01*
X139598400Y-96647000D01*
X139598400Y-99257801D01*
X139597400Y-99262828D01*
X139597400Y-99298468D01*
X139469653Y-99351252D01*
X139229097Y-99591389D01*
X139098748Y-99905304D01*
X139098452Y-100245205D01*
X139228252Y-100559347D01*
X139468389Y-100799903D01*
X139782304Y-100930252D01*
X140122205Y-100930548D01*
X140436347Y-100800748D01*
X140676903Y-100560611D01*
X140807252Y-100246696D01*
X140807548Y-99906795D01*
X140677748Y-99592653D01*
X140437611Y-99352097D01*
X140308600Y-99298527D01*
X140308600Y-99266855D01*
X140309600Y-99261828D01*
X140309600Y-96794294D01*
X146451294Y-90652600D01*
X152950344Y-90652600D01*
X152936956Y-90658132D01*
X152764387Y-90830400D01*
X147320000Y-90830400D01*
X147183918Y-90857468D01*
X147068553Y-90934553D01*
X141061452Y-96941654D01*
X140984367Y-97057018D01*
X140984367Y-97057019D01*
X140957299Y-97193101D01*
X140957299Y-108583374D01*
X140877485Y-108503420D01*
X140648846Y-108408481D01*
X140401280Y-108408265D01*
X140172476Y-108502805D01*
X139997267Y-108677708D01*
X139922600Y-108857526D01*
X139922600Y-108261788D01*
X139969336Y-108242477D01*
X140169574Y-108042588D01*
X140278076Y-107781287D01*
X140278323Y-107498354D01*
X140170277Y-107236864D01*
X139970388Y-107036626D01*
X139709087Y-106928124D01*
X139430417Y-106927881D01*
X138887200Y-106384664D01*
X138887200Y-97053400D01*
X138856265Y-96897877D01*
X138768168Y-96766032D01*
X137159881Y-95157745D01*
X137160123Y-94880554D01*
X137052077Y-94619064D01*
X136852188Y-94418826D01*
X136590887Y-94310324D01*
X136307954Y-94310077D01*
X136046464Y-94418123D01*
X135846226Y-94618012D01*
X135737724Y-94879313D01*
X135737477Y-95162246D01*
X135845523Y-95423736D01*
X136045412Y-95623974D01*
X136306713Y-95732476D01*
X136585383Y-95732719D01*
X138074400Y-97221736D01*
X138074400Y-106553000D01*
X138105335Y-106708523D01*
X138193432Y-106840368D01*
X138855919Y-107502855D01*
X138855677Y-107780046D01*
X138963723Y-108041536D01*
X139163612Y-108241774D01*
X139211400Y-108261617D01*
X139211400Y-112135000D01*
X139238468Y-112271083D01*
X139315553Y-112386447D01*
X147586804Y-120657698D01*
X147586592Y-120900240D01*
X147681132Y-121129044D01*
X147856035Y-121304253D01*
X148084674Y-121399192D01*
X148332240Y-121399408D01*
X148561044Y-121304868D01*
X148736253Y-121129965D01*
X148831192Y-120901326D01*
X148831408Y-120653760D01*
X148736868Y-120424956D01*
X148561965Y-120249747D01*
X148333326Y-120154808D01*
X148089489Y-120154595D01*
X147311134Y-119376240D01*
X147459592Y-119376240D01*
X147554132Y-119605044D01*
X147729035Y-119780253D01*
X147957674Y-119875192D01*
X148205240Y-119875408D01*
X148434044Y-119780868D01*
X148606613Y-119608600D01*
X152537868Y-119608600D01*
X153380885Y-120451617D01*
X153380673Y-120694159D01*
X153475213Y-120922963D01*
X153650116Y-121098172D01*
X153878755Y-121193111D01*
X154126321Y-121193327D01*
X154355125Y-121098787D01*
X154530334Y-120923884D01*
X154625273Y-120695245D01*
X154625489Y-120447679D01*
X154530949Y-120218875D01*
X154356046Y-120043666D01*
X154127407Y-119948727D01*
X153883570Y-119948514D01*
X152936609Y-119001553D01*
X152821245Y-118924468D01*
X152685162Y-118897400D01*
X148606318Y-118897400D01*
X148434965Y-118725747D01*
X148206326Y-118630808D01*
X147958760Y-118630592D01*
X147729956Y-118725132D01*
X147554747Y-118900035D01*
X147459808Y-119128674D01*
X147459592Y-119376240D01*
X147311134Y-119376240D01*
X145914134Y-117979240D01*
X147459592Y-117979240D01*
X147554132Y-118208044D01*
X147729035Y-118383253D01*
X147957674Y-118478192D01*
X148205240Y-118478408D01*
X148434044Y-118383868D01*
X148606613Y-118211600D01*
X152781000Y-118211600D01*
X152917083Y-118184532D01*
X153032447Y-118107447D01*
X155191447Y-115948447D01*
X155268532Y-115833083D01*
X155295600Y-115697000D01*
X155295600Y-114443318D01*
X155467253Y-114271965D01*
X155562192Y-114043326D01*
X155562408Y-113795760D01*
X155467868Y-113566956D01*
X155292965Y-113391747D01*
X155064326Y-113296808D01*
X154816760Y-113296592D01*
X154587956Y-113391132D01*
X154412747Y-113566035D01*
X154317808Y-113794674D01*
X154317592Y-114042240D01*
X154412132Y-114271044D01*
X154584400Y-114443613D01*
X154584400Y-115549706D01*
X152633706Y-117500400D01*
X148606318Y-117500400D01*
X148434965Y-117328747D01*
X148206326Y-117233808D01*
X147958760Y-117233592D01*
X147729956Y-117328132D01*
X147554747Y-117503035D01*
X147459808Y-117731674D01*
X147459592Y-117979240D01*
X145914134Y-117979240D01*
X144390134Y-116455240D01*
X146316592Y-116455240D01*
X146411132Y-116684044D01*
X146586035Y-116859253D01*
X146814674Y-116954192D01*
X147062240Y-116954408D01*
X147291044Y-116859868D01*
X147463613Y-116687600D01*
X150876000Y-116687600D01*
X151012083Y-116660532D01*
X151127447Y-116583447D01*
X152039294Y-115671600D01*
X153399682Y-115671600D01*
X153571035Y-115843253D01*
X153799674Y-115938192D01*
X154047240Y-115938408D01*
X154276044Y-115843868D01*
X154451253Y-115668965D01*
X154546192Y-115440326D01*
X154546408Y-115192760D01*
X154451868Y-114963956D01*
X154276965Y-114788747D01*
X154048326Y-114693808D01*
X153800760Y-114693592D01*
X153571956Y-114788132D01*
X153399387Y-114960400D01*
X151892000Y-114960400D01*
X151755917Y-114987468D01*
X151640553Y-115064553D01*
X150728706Y-115976400D01*
X147463318Y-115976400D01*
X147291965Y-115804747D01*
X147063326Y-115709808D01*
X146815760Y-115709592D01*
X146586956Y-115804132D01*
X146411747Y-115979035D01*
X146316808Y-116207674D01*
X146316592Y-116455240D01*
X144390134Y-116455240D01*
X139922600Y-111987706D01*
X139922600Y-109203498D01*
X139996652Y-109382717D01*
X140168920Y-109555286D01*
X140168920Y-111633000D01*
X140195988Y-111769083D01*
X140273073Y-111884447D01*
X141670073Y-113281447D01*
X141785438Y-113358532D01*
X141921520Y-113385600D01*
X143679344Y-113385600D01*
X143665956Y-113391132D01*
X143490747Y-113566035D01*
X143395808Y-113794674D01*
X143395592Y-114042240D01*
X143490132Y-114271044D01*
X143665035Y-114446253D01*
X143893674Y-114541192D01*
X144137511Y-114541405D01*
X145163553Y-115567447D01*
X145278918Y-115644532D01*
X145415000Y-115671600D01*
X147701000Y-115671600D01*
X147837083Y-115644532D01*
X147952447Y-115567447D01*
X148523948Y-114995947D01*
X148523950Y-114995944D01*
X155826447Y-107693447D01*
X155903532Y-107578083D01*
X155930600Y-107442000D01*
X155930600Y-95393318D01*
X156102253Y-95221965D01*
X156146492Y-95115426D01*
X156190132Y-95221044D01*
X156235400Y-95266391D01*
X156235400Y-101710682D01*
X156063747Y-101882035D01*
X155968808Y-102110674D01*
X155968592Y-102358240D01*
X156063132Y-102587044D01*
X156238035Y-102762253D01*
X156466674Y-102857192D01*
X156714240Y-102857408D01*
X156943044Y-102762868D01*
X157118253Y-102587965D01*
X157213192Y-102359326D01*
X157213408Y-102111760D01*
X157118868Y-101882956D01*
X156946600Y-101710387D01*
X156946600Y-95447874D01*
X157070044Y-95396868D01*
X157245253Y-95221965D01*
X157340192Y-94993326D01*
X157340408Y-94745760D01*
X157245868Y-94516956D01*
X157070965Y-94341747D01*
X156842326Y-94246808D01*
X156594760Y-94246592D01*
X156365956Y-94341132D01*
X156190747Y-94516035D01*
X156146508Y-94622574D01*
X156102868Y-94516956D01*
X155927965Y-94341747D01*
X155699326Y-94246808D01*
X155451760Y-94246592D01*
X155222956Y-94341132D01*
X155047747Y-94516035D01*
X154952808Y-94744674D01*
X154952592Y-94992240D01*
X155047132Y-95221044D01*
X155219400Y-95393613D01*
X155219400Y-107294706D01*
X148577396Y-113936710D01*
X148577405Y-113926489D01*
X154810447Y-107693447D01*
X154846694Y-107639200D01*
X154887532Y-107578082D01*
X154914600Y-107442000D01*
X154914600Y-105553318D01*
X155086253Y-105381965D01*
X155181192Y-105153326D01*
X155181408Y-104905760D01*
X155086868Y-104676956D01*
X154911965Y-104501747D01*
X154683326Y-104406808D01*
X154435760Y-104406592D01*
X154206956Y-104501132D01*
X154031747Y-104676035D01*
X153936808Y-104904674D01*
X153936592Y-105152240D01*
X154031132Y-105381044D01*
X154203400Y-105553613D01*
X154203400Y-107294706D01*
X153255410Y-108242696D01*
X153255622Y-107999628D01*
X153061255Y-107529225D01*
X152701668Y-107169010D01*
X152231605Y-106973822D01*
X151722628Y-106973378D01*
X151252225Y-107167745D01*
X150892010Y-107527332D01*
X150696822Y-107997395D01*
X150696378Y-108506372D01*
X150890745Y-108976775D01*
X151250332Y-109336990D01*
X151720395Y-109532178D01*
X151965714Y-109532392D01*
X148074302Y-113423804D01*
X147831760Y-113423592D01*
X147602956Y-113518132D01*
X147427747Y-113693035D01*
X147332808Y-113921674D01*
X147332592Y-114169240D01*
X147427132Y-114398044D01*
X147602035Y-114573253D01*
X147830674Y-114668192D01*
X147845900Y-114668205D01*
X147553706Y-114960400D01*
X145562294Y-114960400D01*
X144640196Y-114038302D01*
X144640408Y-113795760D01*
X144545868Y-113566956D01*
X144370965Y-113391747D01*
X144356161Y-113385600D01*
X145713706Y-113385600D01*
X145852076Y-113523970D01*
X145851864Y-113766512D01*
X145946404Y-113995316D01*
X146121307Y-114170525D01*
X146349946Y-114265464D01*
X146597512Y-114265680D01*
X146826316Y-114171140D01*
X147001525Y-113996237D01*
X147096464Y-113767598D01*
X147096680Y-113520032D01*
X147002140Y-113291228D01*
X146911781Y-113200711D01*
X146983653Y-113128965D01*
X147078592Y-112900326D01*
X147078808Y-112652760D01*
X146984268Y-112423956D01*
X146812000Y-112251387D01*
X146812000Y-112074347D01*
X146941674Y-112128192D01*
X147189240Y-112128408D01*
X147418044Y-112033868D01*
X147590613Y-111861600D01*
X148844000Y-111861600D01*
X148980083Y-111834532D01*
X149095447Y-111757447D01*
X149740698Y-111112196D01*
X149983240Y-111112408D01*
X150212044Y-111017868D01*
X150387253Y-110842965D01*
X150482192Y-110614326D01*
X150482408Y-110366760D01*
X150387868Y-110137956D01*
X150212965Y-109962747D01*
X149984326Y-109867808D01*
X149736760Y-109867592D01*
X149507956Y-109962132D01*
X149332747Y-110137035D01*
X149237808Y-110365674D01*
X149237595Y-110609511D01*
X148696706Y-111150400D01*
X147590318Y-111150400D01*
X147418965Y-110978747D01*
X147190326Y-110883808D01*
X146942760Y-110883592D01*
X146812000Y-110937621D01*
X146812000Y-110389290D01*
X146784932Y-110253208D01*
X146707847Y-110137843D01*
X145067192Y-108497188D01*
X145056804Y-108472109D01*
X145041925Y-108471921D01*
X144704279Y-108134275D01*
X144704091Y-108119396D01*
X144682758Y-108112754D01*
X144186044Y-107616040D01*
X145071992Y-107616040D01*
X145166532Y-107844844D01*
X145341435Y-108020053D01*
X145570074Y-108114992D01*
X145817640Y-108115208D01*
X146046444Y-108020668D01*
X146221653Y-107845765D01*
X146316592Y-107617126D01*
X146316805Y-107373289D01*
X150365447Y-103324647D01*
X150442532Y-103209283D01*
X150469600Y-103073200D01*
X150469600Y-95647318D01*
X150641253Y-95475965D01*
X150729332Y-95263846D01*
X151587077Y-95263846D01*
X151695123Y-95525336D01*
X151895012Y-95725574D01*
X152156313Y-95834076D01*
X152439246Y-95834323D01*
X152700736Y-95726277D01*
X152900974Y-95526388D01*
X153009476Y-95265087D01*
X153009723Y-94982154D01*
X152901677Y-94720664D01*
X152701788Y-94520426D01*
X152440487Y-94411924D01*
X152157554Y-94411677D01*
X151896064Y-94519723D01*
X151695826Y-94719612D01*
X151587324Y-94980913D01*
X151587077Y-95263846D01*
X150729332Y-95263846D01*
X150736192Y-95247326D01*
X150736408Y-94999760D01*
X150641868Y-94770956D01*
X150466965Y-94595747D01*
X150238326Y-94500808D01*
X149990760Y-94500592D01*
X149761956Y-94595132D01*
X149586747Y-94770035D01*
X149491808Y-94998674D01*
X149491592Y-95246240D01*
X149586132Y-95475044D01*
X149758400Y-95647613D01*
X149758400Y-102925906D01*
X145813702Y-106870604D01*
X145571160Y-106870392D01*
X145342356Y-106964932D01*
X145167147Y-107139835D01*
X145072208Y-107368474D01*
X145071992Y-107616040D01*
X144186044Y-107616040D01*
X143811357Y-107241353D01*
X143695993Y-107164268D01*
X143559910Y-107137200D01*
X142408718Y-107137200D01*
X142237365Y-106965547D01*
X142008726Y-106870608D01*
X141761160Y-106870392D01*
X141668499Y-106908679D01*
X141668499Y-97340395D01*
X147467294Y-91541600D01*
X152764682Y-91541600D01*
X152936035Y-91713253D01*
X153164674Y-91808192D01*
X153412240Y-91808408D01*
X153641044Y-91713868D01*
X153816253Y-91538965D01*
X153911192Y-91310326D01*
X153911408Y-91062760D01*
X153816868Y-90833956D01*
X153641965Y-90658747D01*
X153627161Y-90652600D01*
X155935706Y-90652600D01*
X158013400Y-92730294D01*
X158013400Y-116918417D01*
X157982468Y-116843556D01*
X157807565Y-116668347D01*
X157578926Y-116573408D01*
X157331360Y-116573192D01*
X157102556Y-116667732D01*
X157073600Y-116696637D01*
X157073600Y-112411318D01*
X157245253Y-112239965D01*
X157340192Y-112011326D01*
X157340408Y-111763760D01*
X157245868Y-111534956D01*
X157070965Y-111359747D01*
X156842326Y-111264808D01*
X156594760Y-111264592D01*
X156365956Y-111359132D01*
X156190747Y-111534035D01*
X156095808Y-111762674D01*
X156095592Y-112010240D01*
X156190132Y-112239044D01*
X156362400Y-112411613D01*
X156362400Y-119232706D01*
X152506706Y-123088400D01*
X148225318Y-123088400D01*
X148053965Y-122916747D01*
X147825326Y-122821808D01*
X147581489Y-122821595D01*
X147190447Y-122430553D01*
X147075083Y-122353468D01*
X146939000Y-122326400D01*
X146317859Y-122326400D01*
X146527723Y-122239686D01*
X146702932Y-122064783D01*
X146797871Y-121836144D01*
X146797969Y-121723473D01*
X146909575Y-121723570D01*
X147138379Y-121629030D01*
X147313588Y-121454127D01*
X147408527Y-121225488D01*
X147408743Y-120977922D01*
X147314203Y-120749118D01*
X147139300Y-120573909D01*
X146910661Y-120478970D01*
X146663095Y-120478754D01*
X146434291Y-120573294D01*
X146409219Y-120598322D01*
X134886699Y-109075802D01*
X134886699Y-102745205D01*
X135798452Y-102745205D01*
X135928252Y-103059347D01*
X136168389Y-103299903D01*
X136482304Y-103430252D01*
X136822205Y-103430548D01*
X137136347Y-103300748D01*
X137376903Y-103060611D01*
X137507252Y-102746696D01*
X137507548Y-102406795D01*
X137377748Y-102092653D01*
X137137611Y-101852097D01*
X136823696Y-101721748D01*
X136483795Y-101721452D01*
X136169653Y-101851252D01*
X135929097Y-102091389D01*
X135798748Y-102405304D01*
X135798452Y-102745205D01*
X134886699Y-102745205D01*
X134886699Y-97745205D01*
X135798452Y-97745205D01*
X135928252Y-98059347D01*
X136168389Y-98299903D01*
X136482304Y-98430252D01*
X136822205Y-98430548D01*
X137136347Y-98300748D01*
X137376903Y-98060611D01*
X137507252Y-97746696D01*
X137507548Y-97406795D01*
X137377748Y-97092653D01*
X137137611Y-96852097D01*
X136823696Y-96721748D01*
X136483795Y-96721452D01*
X136169653Y-96851252D01*
X135929097Y-97091389D01*
X135798748Y-97405304D01*
X135798452Y-97745205D01*
X134886699Y-97745205D01*
X134886699Y-96126378D01*
X134921040Y-96126408D01*
X135149844Y-96031868D01*
X135325053Y-95856965D01*
X135419992Y-95628326D01*
X135420208Y-95380760D01*
X135325668Y-95151956D01*
X135150765Y-94976747D01*
X134922126Y-94881808D01*
X134674560Y-94881592D01*
X134445756Y-94976132D01*
X134366014Y-95055734D01*
X134287165Y-94976747D01*
X134058526Y-94881808D01*
X133810960Y-94881592D01*
X133582156Y-94976132D01*
X133406947Y-95151035D01*
X133312008Y-95379674D01*
X133311792Y-95627240D01*
X124687400Y-95627240D01*
X124687400Y-91804745D01*
X129981861Y-91804745D01*
X130055995Y-92050864D01*
X130593223Y-92243965D01*
X131163454Y-92216778D01*
X131564005Y-92050864D01*
X131638139Y-91804745D01*
X136331861Y-91804745D01*
X136405995Y-92050864D01*
X136943223Y-92243965D01*
X137513454Y-92216778D01*
X137914005Y-92050864D01*
X137988139Y-91804745D01*
X137160000Y-90976605D01*
X136331861Y-91804745D01*
X131638139Y-91804745D01*
X130810000Y-90976605D01*
X129981861Y-91804745D01*
X124687400Y-91804745D01*
X124687400Y-89889400D01*
X129722792Y-89889400D01*
X129802253Y-89968861D01*
G36*
X143674353Y-108110137D02*
X143376099Y-108017276D01*
X143033994Y-108048447D01*
X142862709Y-108119396D01*
X142860327Y-108308153D01*
X143283400Y-108731226D01*
X143306558Y-108708068D01*
X143408807Y-108810317D01*
X143422583Y-108961507D01*
X143365883Y-109018207D01*
X143214693Y-109031983D01*
X143098668Y-108915958D01*
X143121826Y-108892800D01*
X142698753Y-108469727D01*
X142509996Y-108472109D01*
X142407876Y-108800101D01*
X142439047Y-109142206D01*
X142509996Y-109313491D01*
X142619744Y-109314876D01*
X142572806Y-109361814D01*
X142603792Y-109392800D01*
X142572806Y-109423786D01*
X142619744Y-109470724D01*
X142509996Y-109472109D01*
X142407876Y-109800101D01*
X142439047Y-110142206D01*
X142509996Y-110313491D01*
X142698753Y-110315873D01*
X143121826Y-109892800D01*
X143098668Y-109869642D01*
X143200917Y-109767393D01*
X143352107Y-109753617D01*
X143408807Y-109810317D01*
X143422583Y-109961507D01*
X143306558Y-110077532D01*
X143283400Y-110054374D01*
X142860327Y-110477447D01*
X142862709Y-110666204D01*
X143190701Y-110768324D01*
X143532806Y-110737153D01*
X143704091Y-110666204D01*
X143705476Y-110556456D01*
X143752414Y-110603394D01*
X143783400Y-110572408D01*
X143814386Y-110603394D01*
X143861324Y-110556456D01*
X143862709Y-110666204D01*
X144190701Y-110768324D01*
X144532806Y-110737153D01*
X144704091Y-110666204D01*
X144706473Y-110477447D01*
X144283400Y-110054374D01*
X144260242Y-110077532D01*
X144157993Y-109975283D01*
X144144217Y-109824093D01*
X144200917Y-109767393D01*
X144352107Y-109753617D01*
X144468132Y-109869642D01*
X144444974Y-109892800D01*
X144868047Y-110315873D01*
X145056804Y-110313491D01*
X145158924Y-109985499D01*
X145127753Y-109643394D01*
X145071285Y-109507069D01*
X146100800Y-110536584D01*
X146100800Y-111482817D01*
X146069868Y-111407956D01*
X145894965Y-111232747D01*
X145666326Y-111137808D01*
X145418760Y-111137592D01*
X145189956Y-111232132D01*
X145014747Y-111407035D01*
X144919808Y-111635674D01*
X144919592Y-111883240D01*
X145014132Y-112112044D01*
X145189035Y-112287253D01*
X145417674Y-112382192D01*
X145665240Y-112382408D01*
X145894044Y-112287868D01*
X146069253Y-112112965D01*
X146100800Y-112036991D01*
X146100800Y-112251682D01*
X145929147Y-112423035D01*
X145834208Y-112651674D01*
X145834188Y-112674400D01*
X143873812Y-112674400D01*
X143926710Y-112547008D01*
X143926926Y-112299442D01*
X143832386Y-112070638D01*
X143657483Y-111895429D01*
X143428844Y-111800490D01*
X143185007Y-111800277D01*
X141668499Y-110283769D01*
X141668499Y-108076967D01*
X141760074Y-108114992D01*
X142007640Y-108115208D01*
X142236444Y-108020668D01*
X142409013Y-107848400D01*
X143412616Y-107848400D01*
X143674353Y-108110137D01*
X143674353Y-108110137D01*
G37*
X143674353Y-108110137D02*
X143376099Y-108017276D01*
X143033994Y-108048447D01*
X142862709Y-108119396D01*
X142860327Y-108308153D01*
X143283400Y-108731226D01*
X143306558Y-108708068D01*
X143408807Y-108810317D01*
X143422583Y-108961507D01*
X143365883Y-109018207D01*
X143214693Y-109031983D01*
X143098668Y-108915958D01*
X143121826Y-108892800D01*
X142698753Y-108469727D01*
X142509996Y-108472109D01*
X142407876Y-108800101D01*
X142439047Y-109142206D01*
X142509996Y-109313491D01*
X142619744Y-109314876D01*
X142572806Y-109361814D01*
X142603792Y-109392800D01*
X142572806Y-109423786D01*
X142619744Y-109470724D01*
X142509996Y-109472109D01*
X142407876Y-109800101D01*
X142439047Y-110142206D01*
X142509996Y-110313491D01*
X142698753Y-110315873D01*
X143121826Y-109892800D01*
X143098668Y-109869642D01*
X143200917Y-109767393D01*
X143352107Y-109753617D01*
X143408807Y-109810317D01*
X143422583Y-109961507D01*
X143306558Y-110077532D01*
X143283400Y-110054374D01*
X142860327Y-110477447D01*
X142862709Y-110666204D01*
X143190701Y-110768324D01*
X143532806Y-110737153D01*
X143704091Y-110666204D01*
X143705476Y-110556456D01*
X143752414Y-110603394D01*
X143783400Y-110572408D01*
X143814386Y-110603394D01*
X143861324Y-110556456D01*
X143862709Y-110666204D01*
X144190701Y-110768324D01*
X144532806Y-110737153D01*
X144704091Y-110666204D01*
X144706473Y-110477447D01*
X144283400Y-110054374D01*
X144260242Y-110077532D01*
X144157993Y-109975283D01*
X144144217Y-109824093D01*
X144200917Y-109767393D01*
X144352107Y-109753617D01*
X144468132Y-109869642D01*
X144444974Y-109892800D01*
X144868047Y-110315873D01*
X145056804Y-110313491D01*
X145158924Y-109985499D01*
X145127753Y-109643394D01*
X145071285Y-109507069D01*
X146100800Y-110536584D01*
X146100800Y-111482817D01*
X146069868Y-111407956D01*
X145894965Y-111232747D01*
X145666326Y-111137808D01*
X145418760Y-111137592D01*
X145189956Y-111232132D01*
X145014747Y-111407035D01*
X144919808Y-111635674D01*
X144919592Y-111883240D01*
X145014132Y-112112044D01*
X145189035Y-112287253D01*
X145417674Y-112382192D01*
X145665240Y-112382408D01*
X145894044Y-112287868D01*
X146069253Y-112112965D01*
X146100800Y-112036991D01*
X146100800Y-112251682D01*
X145929147Y-112423035D01*
X145834208Y-112651674D01*
X145834188Y-112674400D01*
X143873812Y-112674400D01*
X143926710Y-112547008D01*
X143926926Y-112299442D01*
X143832386Y-112070638D01*
X143657483Y-111895429D01*
X143428844Y-111800490D01*
X143185007Y-111800277D01*
X141668499Y-110283769D01*
X141668499Y-108076967D01*
X141760074Y-108114992D01*
X142007640Y-108115208D01*
X142236444Y-108020668D01*
X142409013Y-107848400D01*
X143412616Y-107848400D01*
X143674353Y-108110137D01*
G36*
X144283400Y-108731226D02*
X144289421Y-108725205D01*
X144450995Y-108886779D01*
X144444974Y-108892800D01*
X144468132Y-108915958D01*
X144365883Y-109018207D01*
X144214693Y-109031983D01*
X144157993Y-108975283D01*
X144144217Y-108824093D01*
X144260242Y-108708068D01*
X144283400Y-108731226D01*
X144283400Y-108731226D01*
G37*
X144283400Y-108731226D02*
X144289421Y-108725205D01*
X144450995Y-108886779D01*
X144444974Y-108892800D01*
X144468132Y-108915958D01*
X144365883Y-109018207D01*
X144214693Y-109031983D01*
X144157993Y-108975283D01*
X144144217Y-108824093D01*
X144260242Y-108708068D01*
X144283400Y-108731226D01*
M02*
