M48
;DRILL file {KiCad 0.201601221447+6507~42~ubuntu15.10.1-product} date Fri 22 Jan 2016 05:48:18 PM EST
;FORMAT={2:4/ absolute / inch / suppress trailing zeros}
FMAT,2
INCH,LZ
T1C0.008
T2C0.013
T3C0.020
T4C0.031
T5C0.040
T6C0.047
%
G90
G05
M72
T1
X056411Y-042871
X056411Y-043265
X056804Y-042871
X056804Y-043265
T2
X05085Y-04405
X05085Y-04815
X05088Y-05599
X05115Y-0496
X05135Y-05045
X0515Y-04485
X0516Y-0526
X05255Y-05325
X05273Y-0376
X05285Y-0497
X053Y-04785
X05307Y-0376
X0534Y-04425
X05345Y-0523
X0537Y-05045
X0539Y-058
X05395Y-04105
X054Y-0487
X05435Y-05275
X05485Y-05805
X0552Y-04955
X0552Y-05015
X055325Y-042925
X05565Y-0539
X05575Y-04855
X05586Y-04232
X05591Y-04046
X0561Y-0523
X0564Y-05405
X056419Y-044261
X05645Y-0472
X05655Y-05815
X05668Y-04044
X0567Y-04485
X057Y-04985
X0573Y-044
X05735Y-0523
X05736Y-04232
X057549Y-047918
X05765Y-0451
X05766Y-0444
X057667Y-044741
X05779Y-047678
X05785Y-0458
X05785Y-05815
X0579Y-0439
X0581Y-0573
X05815Y-0486
X05825Y-0449
X0583Y-0464
X0583Y-04695
X05835Y-04755
X059Y-0435
X0591Y-03745
X06035Y-0359
X0606Y-0454
X060631Y-047469
X06085Y-04135
X061Y-04485
X0612Y-04815
X06125Y-03735
X06165Y-04025
X0617Y-03735
X0617Y-04405
X06199Y-04614
T3
X05072Y-03974
X0508Y-05545
X05218Y-05807
X0522Y-04145
X05372Y-03741
X054948Y-042378
X0553Y-05695
X05575Y-0581
X05696Y-05586
X05758Y-04858
X05802Y-05633
X0582Y-0494
X05996Y-03745
X06059Y-04993
X06103Y-03594
T4
X0538Y-038416
X0538Y-040384
X0551Y-0394
T5
X0499Y-04915
X0499Y-05015
X0499Y-05115
X0499Y-0529
X0499Y-0539
T6
X0515Y-035747
X0519Y-04935
X05375Y-0495
X05385Y-0553
X054Y-035747
X05445Y-0471
X05515Y-0553
X0563Y-0512
X0576Y-0543
T0
M30
