G04 #@! TF.FileFunction,Soldermask,Top*
%FSLAX46Y46*%
G04 Gerber Fmt 4.6, Leading zero omitted, Abs format (unit mm)*
G04 Created by KiCad (PCBNEW 0.201601221447+6507~42~ubuntu15.10.1-product) date Fri 22 Jan 2016 05:48:07 PM EST*
%MOMM*%
G01*
G04 APERTURE LIST*
%ADD10C,0.100000*%
%ADD11R,1.000000X0.900000*%
%ADD12R,1.100000X0.600000*%
%ADD13R,2.432000X2.127200*%
%ADD14O,2.432000X2.127200*%
%ADD15R,0.900000X1.000000*%
%ADD16R,1.200000X1.150000*%
%ADD17R,1.150000X1.200000*%
%ADD18R,0.800000X1.000000*%
%ADD19R,1.000000X0.800000*%
%ADD20R,1.000000X1.500000*%
%ADD21R,1.170000X0.820000*%
%ADD22R,0.880000X1.390000*%
%ADD23R,1.000000X1.650000*%
%ADD24C,2.080000*%
%ADD25R,0.670000X1.400000*%
%ADD26R,0.900000X1.600000*%
%ADD27C,1.550000*%
%ADD28R,3.795980X1.898600*%
%ADD29R,3.897580X1.395680*%
%ADD30O,1.400000X0.700000*%
%ADD31O,0.700000X1.400000*%
%ADD32R,1.200000X1.800000*%
%ADD33R,1.750000X2.200000*%
%ADD34R,1.560000X1.900000*%
%ADD35R,1.050000X2.540000*%
%ADD36R,1.000000X1.550000*%
%ADD37R,1.050000X2.000000*%
%ADD38R,1.050000X1.700000*%
%ADD39R,1.500000X0.850000*%
%ADD40R,1.550000X0.850000*%
%ADD41R,2.432000X2.432000*%
%ADD42O,2.432000X2.432000*%
%ADD43R,0.850000X0.850000*%
%ADD44C,1.123000*%
%ADD45C,0.962000*%
%ADD46C,0.912000*%
%ADD47C,1.624000*%
%ADD48R,1.050000X0.945000*%
%ADD49C,1.850000*%
%ADD50R,1.000000X1.200000*%
%ADD51C,1.950000*%
%ADD52R,1.950000X1.000000*%
%ADD53R,2.300000X2.000000*%
%ADD54R,2.000000X1.800000*%
%ADD55R,0.800000X1.750000*%
%ADD56C,2.000000*%
G04 APERTURE END LIST*
D10*
D11*
X140420000Y-121666000D03*
X141520000Y-121666000D03*
D12*
X152781000Y-125443000D03*
X149701000Y-125443000D03*
X152781000Y-125043000D03*
X149701000Y-125043000D03*
X152781000Y-124643000D03*
X149701000Y-124643000D03*
X152781000Y-124243000D03*
X149701000Y-124243000D03*
X152781000Y-123843000D03*
X149701000Y-123843000D03*
X152781000Y-123443000D03*
X149701000Y-123443000D03*
X152781000Y-123043000D03*
X149701000Y-123043000D03*
X152781000Y-122643000D03*
X149701000Y-122643000D03*
X152781000Y-122243000D03*
X149701000Y-122243000D03*
X152781000Y-121843000D03*
X149701000Y-121843000D03*
X152781000Y-121443000D03*
X149701000Y-121443000D03*
X152781000Y-121043000D03*
X149701000Y-121043000D03*
X152781000Y-120643000D03*
X149701000Y-120643000D03*
X152781000Y-120243000D03*
X149701000Y-120243000D03*
X152781000Y-119843000D03*
X149701000Y-119843000D03*
X152781000Y-119443000D03*
X149701000Y-119443000D03*
X152781000Y-119043000D03*
X149701000Y-119043000D03*
X152781000Y-118643000D03*
X149701000Y-118643000D03*
X152781000Y-118243000D03*
X149701000Y-118243000D03*
X152781000Y-117843000D03*
X149701000Y-117843000D03*
X152781000Y-117443000D03*
X149701000Y-117443000D03*
X152781000Y-117043000D03*
X149701000Y-117043000D03*
X152781000Y-116643000D03*
X149701000Y-116643000D03*
X152781000Y-116243000D03*
X149701000Y-116243000D03*
X152781000Y-115843000D03*
X149701000Y-115843000D03*
X152781000Y-115443000D03*
X149701000Y-115443000D03*
X152781000Y-115043000D03*
X149701000Y-115043000D03*
X152781000Y-114643000D03*
X149701000Y-114643000D03*
X152781000Y-114243000D03*
X149701000Y-114243000D03*
X152781000Y-113843000D03*
X149701000Y-113843000D03*
X152781000Y-113443000D03*
X149701000Y-113443000D03*
X152781000Y-113043000D03*
X149701000Y-113043000D03*
X152781000Y-112643000D03*
X149701000Y-112643000D03*
X152781000Y-112243000D03*
X149701000Y-112243000D03*
X152781000Y-111843000D03*
X149701000Y-111843000D03*
D13*
X126746000Y-129921000D03*
D14*
X126746000Y-127381000D03*
X126746000Y-124841000D03*
D11*
X143341000Y-136144000D03*
X144441000Y-136144000D03*
X146981000Y-140970000D03*
X145881000Y-140970000D03*
X138074400Y-105511600D03*
X136974400Y-105511600D03*
X137964000Y-112395000D03*
X136864000Y-112395000D03*
X142833000Y-138430000D03*
X143933000Y-138430000D03*
X144568000Y-125222000D03*
X143468000Y-125222000D03*
D15*
X129921000Y-132546000D03*
X129921000Y-133646000D03*
X135890000Y-137372000D03*
X135890000Y-138472000D03*
D16*
X138037000Y-131064000D03*
X136537000Y-131064000D03*
X140462000Y-119888000D03*
X141962000Y-119888000D03*
D11*
X138091000Y-132842000D03*
X136991000Y-132842000D03*
X146770000Y-132842000D03*
X147870000Y-132842000D03*
X141266000Y-129032000D03*
X140166000Y-129032000D03*
X132630000Y-128905000D03*
X131530000Y-128905000D03*
X134197000Y-128905000D03*
X135297000Y-128905000D03*
X132630000Y-127381000D03*
X131530000Y-127381000D03*
X143341000Y-134112000D03*
X144441000Y-134112000D03*
X134197000Y-127381000D03*
X135297000Y-127381000D03*
D15*
X141605000Y-144865000D03*
X141605000Y-145965000D03*
D17*
X141478000Y-127369000D03*
X141478000Y-125869000D03*
D11*
X130852000Y-143383000D03*
X129752000Y-143383000D03*
D16*
X127623000Y-140843000D03*
X126123000Y-140843000D03*
D15*
X143637000Y-128312000D03*
X143637000Y-127212000D03*
D16*
X129806000Y-146304000D03*
X131306000Y-146304000D03*
D11*
X127085000Y-106045000D03*
X128185000Y-106045000D03*
D18*
X127958000Y-107950000D03*
X127058000Y-107950000D03*
X134308000Y-107569000D03*
X133408000Y-107569000D03*
X138372000Y-129032000D03*
X137472000Y-129032000D03*
X136583000Y-135382000D03*
X137483000Y-135382000D03*
D19*
X138430000Y-127069000D03*
X138430000Y-126169000D03*
X134112000Y-124264000D03*
X134112000Y-125164000D03*
D18*
X141039000Y-138430000D03*
X140139000Y-138430000D03*
D19*
X135763000Y-124021000D03*
X135763000Y-123121000D03*
D18*
X138372000Y-138430000D03*
X137472000Y-138430000D03*
X140139000Y-130556000D03*
X141039000Y-130556000D03*
X143568000Y-131953000D03*
X144468000Y-131953000D03*
D20*
X136057600Y-110439200D03*
X137007600Y-110439200D03*
X137957600Y-110439200D03*
X137957600Y-107639200D03*
X136057600Y-107639200D03*
D21*
X138435000Y-123048000D03*
X138435000Y-123698000D03*
X138435000Y-124348000D03*
X140335000Y-124348000D03*
X140335000Y-123048000D03*
D22*
X139416000Y-135382000D03*
X140066000Y-135382000D03*
X140716000Y-135382000D03*
X141366000Y-135382000D03*
X141366000Y-132792000D03*
X140716000Y-132792000D03*
X140066000Y-132792000D03*
X139416000Y-132792000D03*
D23*
X144785000Y-130048000D03*
X146685000Y-130048000D03*
X145735000Y-127898000D03*
D24*
X146304000Y-137922000D03*
X131826000Y-125349000D03*
X138303000Y-119634000D03*
X136525000Y-125730000D03*
X136779000Y-140462000D03*
X140081000Y-140462000D03*
X143002000Y-130048000D03*
D25*
X132096000Y-130555000D03*
X132096000Y-133605000D03*
X132596000Y-130555000D03*
X132596000Y-133605000D03*
X133096000Y-130555000D03*
X133096000Y-133605000D03*
X133596000Y-130555000D03*
X133596000Y-133605000D03*
X134096000Y-130555000D03*
X134096000Y-133605000D03*
D26*
X127569000Y-143383000D03*
X126619000Y-143383000D03*
X125669000Y-143383000D03*
X125669000Y-145733000D03*
X127569000Y-145733000D03*
D19*
X144907000Y-122511400D03*
X144907000Y-123411400D03*
D27*
X139953000Y-100076000D03*
X136653000Y-102576000D03*
X136653000Y-97576000D03*
D28*
X126911100Y-96619060D03*
D29*
X132461000Y-98968560D03*
X132461000Y-100965000D03*
D28*
X126911100Y-103314500D03*
D30*
X145583400Y-110317800D03*
X145583400Y-109667800D03*
X145583400Y-109017800D03*
X145583400Y-108367800D03*
D31*
X144708400Y-107492800D03*
D30*
X141883400Y-110317800D03*
D31*
X144708400Y-111192800D03*
X144058400Y-107492800D03*
X143408400Y-107492800D03*
X142758400Y-107492800D03*
D30*
X141883400Y-109667800D03*
X141883400Y-109017800D03*
X141883400Y-108367800D03*
D31*
X144058400Y-111192800D03*
X143408400Y-111192800D03*
X142758400Y-111192800D03*
D32*
X156673000Y-93218000D03*
X155573000Y-93218000D03*
X154473000Y-93218000D03*
X153373000Y-93218000D03*
X152273000Y-93218000D03*
X151173000Y-93218000D03*
X150073000Y-93218000D03*
X148973000Y-93218000D03*
D33*
X157563000Y-91168000D03*
D34*
X144243000Y-90918000D03*
D35*
X157888000Y-97798000D03*
D36*
X143963000Y-98893000D03*
D37*
X157888000Y-102878000D03*
D38*
X143988000Y-104818000D03*
D39*
X157663000Y-104383000D03*
D40*
X157638000Y-105043000D03*
D18*
X140901000Y-105410000D03*
X141801000Y-105410000D03*
D19*
X140843000Y-94245000D03*
X140843000Y-93345000D03*
D18*
X156776000Y-110490000D03*
X157676000Y-110490000D03*
D41*
X126746000Y-136906000D03*
D42*
X126746000Y-134366000D03*
D43*
X157473200Y-118294600D03*
X156623200Y-118294600D03*
X157473200Y-119144600D03*
X156623200Y-119144600D03*
D18*
X157904600Y-124510800D03*
X157004600Y-124510800D03*
X156660000Y-115646200D03*
X155760000Y-115646200D03*
X157879200Y-121767600D03*
X156979200Y-121767600D03*
D44*
X143814000Y-143439000D03*
D45*
X143765000Y-146176000D03*
X145795000Y-146176000D03*
D44*
X145746000Y-143439000D03*
D46*
X144780000Y-143439000D03*
D47*
X144780000Y-145542000D03*
D48*
X138209000Y-143810500D03*
X139159000Y-143810500D03*
D49*
X138684000Y-145288000D03*
D50*
X135586000Y-143764000D03*
X134366000Y-143764000D03*
D51*
X134976000Y-145284000D03*
D11*
X135975000Y-121539000D03*
X137075000Y-121539000D03*
D15*
X129921000Y-123783000D03*
X129921000Y-124883000D03*
D52*
X127094000Y-121539000D03*
X132494000Y-121539000D03*
X127094000Y-120269000D03*
X132494000Y-120269000D03*
X127094000Y-118999000D03*
X132494000Y-118999000D03*
X127094000Y-117729000D03*
X132494000Y-117729000D03*
X127094000Y-116459000D03*
X132494000Y-116459000D03*
X127094000Y-115189000D03*
X132494000Y-115189000D03*
X127094000Y-113919000D03*
X132494000Y-113919000D03*
D18*
X127958000Y-111887000D03*
X127058000Y-111887000D03*
D15*
X148336000Y-108627000D03*
X148336000Y-107527000D03*
X145288000Y-112861000D03*
X145288000Y-113961000D03*
D53*
X135185000Y-90797000D03*
X132785000Y-90797000D03*
D54*
X137185000Y-93297000D03*
X130785000Y-93297000D03*
D55*
X135285000Y-93472000D03*
X134635000Y-93472000D03*
X133985000Y-93472000D03*
X133335000Y-93472000D03*
X132685000Y-93472000D03*
D56*
X137160000Y-90797000D03*
X130810000Y-90797000D03*
M02*
