G04 #@! TF.FileFunction,Legend,Bot*
%FSLAX46Y46*%
G04 Gerber Fmt 4.6, Leading zero omitted, Abs format (unit mm)*
G04 Created by KiCad (PCBNEW 0.201601221447+6507~42~ubuntu15.10.1-product) date Fri 22 Jan 2016 05:48:07 PM EST*
%MOMM*%
G01*
G04 APERTURE LIST*
%ADD10C,0.100000*%
%ADD11C,0.063500*%
%ADD12C,0.307000*%
%ADD13C,0.150000*%
%ADD14C,0.025400*%
G04 APERTURE END LIST*
D10*
D11*
X137438190Y-122639667D02*
X137317238Y-122639667D01*
X137462381Y-122784810D02*
X137377714Y-122276810D01*
X137293047Y-122784810D01*
X137208381Y-122784810D02*
X137208381Y-122276810D01*
X137123714Y-122639667D01*
X137039047Y-122276810D01*
X137039047Y-122784810D01*
X136918095Y-122784810D02*
X136918095Y-122276810D01*
X136821333Y-122276810D01*
X136797142Y-122301000D01*
X136785047Y-122325190D01*
X136772952Y-122373571D01*
X136772952Y-122446143D01*
X136785047Y-122494524D01*
X136797142Y-122518714D01*
X136821333Y-122542905D01*
X136918095Y-122542905D01*
X136676190Y-122325190D02*
X136664095Y-122301000D01*
X136639904Y-122276810D01*
X136579428Y-122276810D01*
X136555238Y-122301000D01*
X136543142Y-122325190D01*
X136531047Y-122373571D01*
X136531047Y-122421952D01*
X136543142Y-122494524D01*
X136688285Y-122784810D01*
X136531047Y-122784810D01*
X136482666Y-122833190D02*
X136289142Y-122833190D01*
X136180285Y-122276810D02*
X136131904Y-122276810D01*
X136107713Y-122301000D01*
X136083523Y-122349381D01*
X136071428Y-122446143D01*
X136071428Y-122615476D01*
X136083523Y-122712238D01*
X136107713Y-122760619D01*
X136131904Y-122784810D01*
X136180285Y-122784810D01*
X136204475Y-122760619D01*
X136228666Y-122712238D01*
X136240761Y-122615476D01*
X136240761Y-122446143D01*
X136228666Y-122349381D01*
X136204475Y-122301000D01*
X136180285Y-122276810D01*
X135962571Y-122276810D02*
X135962571Y-122688048D01*
X135950476Y-122736429D01*
X135938380Y-122760619D01*
X135914190Y-122784810D01*
X135865809Y-122784810D01*
X135841618Y-122760619D01*
X135829523Y-122736429D01*
X135817428Y-122688048D01*
X135817428Y-122276810D01*
X135732762Y-122276810D02*
X135587619Y-122276810D01*
X135660190Y-122784810D02*
X135660190Y-122276810D01*
X139089190Y-116894429D02*
X139101285Y-116918619D01*
X139137571Y-116942810D01*
X139161761Y-116942810D01*
X139198047Y-116918619D01*
X139222238Y-116870238D01*
X139234333Y-116821857D01*
X139246428Y-116725095D01*
X139246428Y-116652524D01*
X139234333Y-116555762D01*
X139222238Y-116507381D01*
X139198047Y-116459000D01*
X139161761Y-116434810D01*
X139137571Y-116434810D01*
X139101285Y-116459000D01*
X139089190Y-116483190D01*
X138931952Y-116434810D02*
X138883571Y-116434810D01*
X138859380Y-116459000D01*
X138835190Y-116507381D01*
X138823095Y-116604143D01*
X138823095Y-116773476D01*
X138835190Y-116870238D01*
X138859380Y-116918619D01*
X138883571Y-116942810D01*
X138931952Y-116942810D01*
X138956142Y-116918619D01*
X138980333Y-116870238D01*
X138992428Y-116773476D01*
X138992428Y-116604143D01*
X138980333Y-116507381D01*
X138956142Y-116459000D01*
X138931952Y-116434810D01*
X138714238Y-116942810D02*
X138714238Y-116434810D01*
X138629571Y-116797667D01*
X138544904Y-116434810D01*
X138544904Y-116942810D01*
X138423952Y-116942810D02*
X138423952Y-116434810D01*
X138327190Y-116434810D01*
X138302999Y-116459000D01*
X138290904Y-116483190D01*
X138278809Y-116531571D01*
X138278809Y-116604143D01*
X138290904Y-116652524D01*
X138302999Y-116676714D01*
X138327190Y-116700905D01*
X138423952Y-116700905D01*
X138230428Y-116991190D02*
X138036904Y-116991190D01*
X137928047Y-116434810D02*
X137879666Y-116434810D01*
X137855475Y-116459000D01*
X137831285Y-116507381D01*
X137819190Y-116604143D01*
X137819190Y-116773476D01*
X137831285Y-116870238D01*
X137855475Y-116918619D01*
X137879666Y-116942810D01*
X137928047Y-116942810D01*
X137952237Y-116918619D01*
X137976428Y-116870238D01*
X137988523Y-116773476D01*
X137988523Y-116604143D01*
X137976428Y-116507381D01*
X137952237Y-116459000D01*
X137928047Y-116434810D01*
X137710333Y-116434810D02*
X137710333Y-116846048D01*
X137698238Y-116894429D01*
X137686142Y-116918619D01*
X137661952Y-116942810D01*
X137613571Y-116942810D01*
X137589380Y-116918619D01*
X137577285Y-116894429D01*
X137565190Y-116846048D01*
X137565190Y-116434810D01*
X137480524Y-116434810D02*
X137335381Y-116434810D01*
X137407952Y-116942810D02*
X137407952Y-116434810D01*
X132569857Y-122736429D02*
X132581952Y-122760619D01*
X132618238Y-122784810D01*
X132642428Y-122784810D01*
X132678714Y-122760619D01*
X132702905Y-122712238D01*
X132715000Y-122663857D01*
X132727095Y-122567095D01*
X132727095Y-122494524D01*
X132715000Y-122397762D01*
X132702905Y-122349381D01*
X132678714Y-122301000D01*
X132642428Y-122276810D01*
X132618238Y-122276810D01*
X132581952Y-122301000D01*
X132569857Y-122325190D01*
X132412619Y-122276810D02*
X132364238Y-122276810D01*
X132340047Y-122301000D01*
X132315857Y-122349381D01*
X132303762Y-122446143D01*
X132303762Y-122615476D01*
X132315857Y-122712238D01*
X132340047Y-122760619D01*
X132364238Y-122784810D01*
X132412619Y-122784810D01*
X132436809Y-122760619D01*
X132461000Y-122712238D01*
X132473095Y-122615476D01*
X132473095Y-122446143D01*
X132461000Y-122349381D01*
X132436809Y-122301000D01*
X132412619Y-122276810D01*
X132194905Y-122784810D02*
X132194905Y-122276810D01*
X132110238Y-122639667D01*
X132025571Y-122276810D01*
X132025571Y-122784810D01*
X131904619Y-122784810D02*
X131904619Y-122276810D01*
X131807857Y-122276810D01*
X131783666Y-122301000D01*
X131771571Y-122325190D01*
X131759476Y-122373571D01*
X131759476Y-122446143D01*
X131771571Y-122494524D01*
X131783666Y-122518714D01*
X131807857Y-122542905D01*
X131904619Y-122542905D01*
X131711095Y-122833190D02*
X131517571Y-122833190D01*
X131457095Y-122784810D02*
X131457095Y-122276810D01*
X131336143Y-122784810D02*
X131336143Y-122276810D01*
X131191000Y-122784810D01*
X131191000Y-122276810D01*
X147047857Y-130005667D02*
X146926905Y-130005667D01*
X147072048Y-130150810D02*
X146987381Y-129642810D01*
X146902714Y-130150810D01*
X146818048Y-130150810D02*
X146818048Y-129642810D01*
X146733381Y-130005667D01*
X146648714Y-129642810D01*
X146648714Y-130150810D01*
X146527762Y-130150810D02*
X146527762Y-129642810D01*
X146431000Y-129642810D01*
X146406809Y-129667000D01*
X146394714Y-129691190D01*
X146382619Y-129739571D01*
X146382619Y-129812143D01*
X146394714Y-129860524D01*
X146406809Y-129884714D01*
X146431000Y-129908905D01*
X146527762Y-129908905D01*
X146285857Y-129691190D02*
X146273762Y-129667000D01*
X146249571Y-129642810D01*
X146189095Y-129642810D01*
X146164905Y-129667000D01*
X146152809Y-129691190D01*
X146140714Y-129739571D01*
X146140714Y-129787952D01*
X146152809Y-129860524D01*
X146297952Y-130150810D01*
X146140714Y-130150810D01*
X146092333Y-130199190D02*
X145898809Y-130199190D01*
X145838333Y-130150810D02*
X145838333Y-129642810D01*
X145717381Y-130150810D02*
X145717381Y-129642810D01*
X145572238Y-130150810D01*
X145572238Y-129642810D01*
X137692190Y-142705667D02*
X137571238Y-142705667D01*
X137716381Y-142850810D02*
X137631714Y-142342810D01*
X137547047Y-142850810D01*
X137462381Y-142850810D02*
X137462381Y-142342810D01*
X137377714Y-142705667D01*
X137293047Y-142342810D01*
X137293047Y-142850810D01*
X137172095Y-142850810D02*
X137172095Y-142342810D01*
X137075333Y-142342810D01*
X137051142Y-142367000D01*
X137039047Y-142391190D01*
X137026952Y-142439571D01*
X137026952Y-142512143D01*
X137039047Y-142560524D01*
X137051142Y-142584714D01*
X137075333Y-142608905D01*
X137172095Y-142608905D01*
X136785047Y-142850810D02*
X136930190Y-142850810D01*
X136857619Y-142850810D02*
X136857619Y-142342810D01*
X136881809Y-142415381D01*
X136906000Y-142463762D01*
X136930190Y-142487952D01*
X136736666Y-142899190D02*
X136543142Y-142899190D01*
X136434285Y-142342810D02*
X136385904Y-142342810D01*
X136361713Y-142367000D01*
X136337523Y-142415381D01*
X136325428Y-142512143D01*
X136325428Y-142681476D01*
X136337523Y-142778238D01*
X136361713Y-142826619D01*
X136385904Y-142850810D01*
X136434285Y-142850810D01*
X136458475Y-142826619D01*
X136482666Y-142778238D01*
X136494761Y-142681476D01*
X136494761Y-142512143D01*
X136482666Y-142415381D01*
X136458475Y-142367000D01*
X136434285Y-142342810D01*
X136216571Y-142342810D02*
X136216571Y-142754048D01*
X136204476Y-142802429D01*
X136192380Y-142826619D01*
X136168190Y-142850810D01*
X136119809Y-142850810D01*
X136095618Y-142826619D01*
X136083523Y-142802429D01*
X136071428Y-142754048D01*
X136071428Y-142342810D01*
X135986762Y-142342810D02*
X135841619Y-142342810D01*
X135914190Y-142850810D02*
X135914190Y-142342810D01*
X140951857Y-142705667D02*
X140830905Y-142705667D01*
X140976048Y-142850810D02*
X140891381Y-142342810D01*
X140806714Y-142850810D01*
X140722048Y-142850810D02*
X140722048Y-142342810D01*
X140637381Y-142705667D01*
X140552714Y-142342810D01*
X140552714Y-142850810D01*
X140431762Y-142850810D02*
X140431762Y-142342810D01*
X140335000Y-142342810D01*
X140310809Y-142367000D01*
X140298714Y-142391190D01*
X140286619Y-142439571D01*
X140286619Y-142512143D01*
X140298714Y-142560524D01*
X140310809Y-142584714D01*
X140335000Y-142608905D01*
X140431762Y-142608905D01*
X140044714Y-142850810D02*
X140189857Y-142850810D01*
X140117286Y-142850810D02*
X140117286Y-142342810D01*
X140141476Y-142415381D01*
X140165667Y-142463762D01*
X140189857Y-142487952D01*
X139996333Y-142899190D02*
X139802809Y-142899190D01*
X139742333Y-142850810D02*
X139742333Y-142342810D01*
X139621381Y-142850810D02*
X139621381Y-142342810D01*
X139476238Y-142850810D01*
X139476238Y-142342810D01*
X147035762Y-140183810D02*
X147035762Y-139675810D01*
X146951095Y-140038667D01*
X146866428Y-139675810D01*
X146866428Y-140183810D01*
X146745476Y-140183810D02*
X146745476Y-139675810D01*
X146479381Y-140135429D02*
X146491476Y-140159619D01*
X146527762Y-140183810D01*
X146551952Y-140183810D01*
X146588238Y-140159619D01*
X146612429Y-140111238D01*
X146624524Y-140062857D01*
X146636619Y-139966095D01*
X146636619Y-139893524D01*
X146624524Y-139796762D01*
X146612429Y-139748381D01*
X146588238Y-139700000D01*
X146551952Y-139675810D01*
X146527762Y-139675810D01*
X146491476Y-139700000D01*
X146479381Y-139724190D01*
X146431000Y-140232190D02*
X146237476Y-140232190D01*
X146128619Y-139675810D02*
X146080238Y-139675810D01*
X146056047Y-139700000D01*
X146031857Y-139748381D01*
X146019762Y-139845143D01*
X146019762Y-140014476D01*
X146031857Y-140111238D01*
X146056047Y-140159619D01*
X146080238Y-140183810D01*
X146128619Y-140183810D01*
X146152809Y-140159619D01*
X146177000Y-140111238D01*
X146189095Y-140014476D01*
X146189095Y-139845143D01*
X146177000Y-139748381D01*
X146152809Y-139700000D01*
X146128619Y-139675810D01*
X145910905Y-139675810D02*
X145910905Y-140087048D01*
X145898810Y-140135429D01*
X145886714Y-140159619D01*
X145862524Y-140183810D01*
X145814143Y-140183810D01*
X145789952Y-140159619D01*
X145777857Y-140135429D01*
X145765762Y-140087048D01*
X145765762Y-139675810D01*
X145681096Y-139675810D02*
X145535953Y-139675810D01*
X145608524Y-140183810D02*
X145608524Y-139675810D01*
D12*
X154226000Y-108253000D02*
G75*
G03X154226000Y-108253000I-2250000J0D01*
G01*
X133626000Y-136943000D02*
G75*
G03X133626000Y-136943000I-2250000J0D01*
G01*
D13*
X125476000Y-128651000D02*
X125476000Y-123571000D01*
X125476000Y-123571000D02*
X128016000Y-123571000D01*
X128016000Y-123571000D02*
X128016000Y-128651000D01*
X128296000Y-131471000D02*
X128296000Y-129921000D01*
X128016000Y-128651000D02*
X125476000Y-128651000D01*
X125196000Y-129921000D02*
X125196000Y-131471000D01*
X125196000Y-131471000D02*
X128296000Y-131471000D01*
X128016000Y-135636000D02*
X128016000Y-133096000D01*
X128296000Y-138456000D02*
X128296000Y-136906000D01*
X128016000Y-135636000D02*
X125476000Y-135636000D01*
X125196000Y-136906000D02*
X125196000Y-138456000D01*
X125196000Y-138456000D02*
X128296000Y-138456000D01*
X125476000Y-135636000D02*
X125476000Y-133096000D01*
X125476000Y-133096000D02*
X128016000Y-133096000D01*
D14*
X127060476Y-122784810D02*
X127060476Y-122276810D01*
X126963714Y-122276810D01*
X126939523Y-122301000D01*
X126927428Y-122325190D01*
X126915333Y-122373571D01*
X126915333Y-122446143D01*
X126927428Y-122494524D01*
X126939523Y-122518714D01*
X126963714Y-122542905D01*
X127060476Y-122542905D01*
X126673428Y-122784810D02*
X126818571Y-122784810D01*
X126746000Y-122784810D02*
X126746000Y-122276810D01*
X126770190Y-122349381D01*
X126794381Y-122397762D01*
X126818571Y-122421952D01*
X146533809Y-136119810D02*
X146473333Y-136627810D01*
X146424952Y-136264952D01*
X146376571Y-136627810D01*
X146316095Y-136119810D01*
X146086285Y-136627810D02*
X146231428Y-136627810D01*
X146158857Y-136627810D02*
X146158857Y-136119810D01*
X146183047Y-136192381D01*
X146207238Y-136240762D01*
X146231428Y-136264952D01*
X132055809Y-123546810D02*
X131995333Y-124054810D01*
X131946952Y-123691952D01*
X131898571Y-124054810D01*
X131838095Y-123546810D01*
X131753428Y-123595190D02*
X131741333Y-123571000D01*
X131717142Y-123546810D01*
X131656666Y-123546810D01*
X131632476Y-123571000D01*
X131620380Y-123595190D01*
X131608285Y-123643571D01*
X131608285Y-123691952D01*
X131620380Y-123764524D01*
X131765523Y-124054810D01*
X131608285Y-124054810D01*
X138532809Y-117958810D02*
X138472333Y-118466810D01*
X138423952Y-118103952D01*
X138375571Y-118466810D01*
X138315095Y-117958810D01*
X138109476Y-118128143D02*
X138109476Y-118466810D01*
X138169952Y-117934619D02*
X138230428Y-118297476D01*
X138073190Y-118297476D01*
X136627809Y-123800810D02*
X136567333Y-124308810D01*
X136518952Y-123945952D01*
X136470571Y-124308810D01*
X136410095Y-123800810D01*
X136192380Y-123800810D02*
X136313333Y-123800810D01*
X136325428Y-124042714D01*
X136313333Y-124018524D01*
X136289142Y-123994333D01*
X136228666Y-123994333D01*
X136204476Y-124018524D01*
X136192380Y-124042714D01*
X136180285Y-124091095D01*
X136180285Y-124212048D01*
X136192380Y-124260429D01*
X136204476Y-124284619D01*
X136228666Y-124308810D01*
X136289142Y-124308810D01*
X136313333Y-124284619D01*
X136325428Y-124260429D01*
X137008809Y-138532810D02*
X136948333Y-139040810D01*
X136899952Y-138677952D01*
X136851571Y-139040810D01*
X136791095Y-138532810D01*
X136585476Y-138532810D02*
X136633857Y-138532810D01*
X136658047Y-138557000D01*
X136670142Y-138581190D01*
X136694333Y-138653762D01*
X136706428Y-138750524D01*
X136706428Y-138944048D01*
X136694333Y-138992429D01*
X136682238Y-139016619D01*
X136658047Y-139040810D01*
X136609666Y-139040810D01*
X136585476Y-139016619D01*
X136573380Y-138992429D01*
X136561285Y-138944048D01*
X136561285Y-138823095D01*
X136573380Y-138774714D01*
X136585476Y-138750524D01*
X136609666Y-138726333D01*
X136658047Y-138726333D01*
X136682238Y-138750524D01*
X136694333Y-138774714D01*
X136706428Y-138823095D01*
X140310809Y-138532810D02*
X140250333Y-139040810D01*
X140201952Y-138677952D01*
X140153571Y-139040810D01*
X140093095Y-138532810D01*
X140020523Y-138532810D02*
X139851190Y-138532810D01*
X139960047Y-139040810D01*
X143231809Y-128245810D02*
X143171333Y-128753810D01*
X143122952Y-128390952D01*
X143074571Y-128753810D01*
X143014095Y-128245810D01*
X142881047Y-128463524D02*
X142905238Y-128439333D01*
X142917333Y-128415143D01*
X142929428Y-128366762D01*
X142929428Y-128342571D01*
X142917333Y-128294190D01*
X142905238Y-128270000D01*
X142881047Y-128245810D01*
X142832666Y-128245810D01*
X142808476Y-128270000D01*
X142796380Y-128294190D01*
X142784285Y-128342571D01*
X142784285Y-128366762D01*
X142796380Y-128415143D01*
X142808476Y-128439333D01*
X142832666Y-128463524D01*
X142881047Y-128463524D01*
X142905238Y-128487714D01*
X142917333Y-128511905D01*
X142929428Y-128560286D01*
X142929428Y-128657048D01*
X142917333Y-128705429D01*
X142905238Y-128729619D01*
X142881047Y-128753810D01*
X142832666Y-128753810D01*
X142808476Y-128729619D01*
X142796380Y-128705429D01*
X142784285Y-128657048D01*
X142784285Y-128560286D01*
X142796380Y-128511905D01*
X142808476Y-128487714D01*
X142832666Y-128463524D01*
X126882676Y-139548810D02*
X126882676Y-139040810D01*
X126785914Y-139040810D01*
X126761723Y-139065000D01*
X126749628Y-139089190D01*
X126737533Y-139137571D01*
X126737533Y-139210143D01*
X126749628Y-139258524D01*
X126761723Y-139282714D01*
X126785914Y-139306905D01*
X126882676Y-139306905D01*
X126640771Y-139089190D02*
X126628676Y-139065000D01*
X126604485Y-139040810D01*
X126544009Y-139040810D01*
X126519819Y-139065000D01*
X126507723Y-139089190D01*
X126495628Y-139137571D01*
X126495628Y-139185952D01*
X126507723Y-139258524D01*
X126652866Y-139548810D01*
X126495628Y-139548810D01*
M02*
