M48
;DRILL file {KiCad 0.201601221447+6507~42~ubuntu15.10.1-product} date Fri 22 Jan 2016 06:42:13 PM EST
;FORMAT={2:4/ absolute / inch / suppress trailing zeros}
FMAT,2
INCH,LZ
T1C0.008
T2C0.013
T3C0.020
T4C0.031
T5C0.040
T6C0.047
%
G90
G05
M72
T1
X012461Y-012621
X012461Y-013015
X012461Y-037871
X012461Y-038265
X012461Y-063121
X012461Y-063515
X012461Y-088371
X012461Y-088765
X012854Y-012621
X012854Y-013015
X012854Y-037871
X012854Y-038265
X012854Y-063121
X012854Y-063515
X012854Y-088371
X012854Y-088765
X028311Y-012621
X028311Y-013015
X028311Y-037871
X028311Y-038265
X028311Y-063121
X028311Y-063515
X028311Y-088371
X028311Y-088765
X028704Y-012621
X028704Y-013015
X028704Y-037871
X028704Y-038265
X028704Y-063121
X028704Y-063515
X028704Y-088371
X028704Y-088765
X044161Y-012621
X044161Y-013015
X044161Y-037871
X044161Y-038265
X044161Y-063121
X044161Y-063515
X044161Y-088371
X044161Y-088765
X044554Y-012621
X044554Y-013015
X044554Y-037871
X044554Y-038265
X044554Y-063121
X044554Y-063515
X044554Y-088371
X044554Y-088765
X060011Y-012621
X060011Y-013015
X060011Y-037871
X060011Y-038265
X060011Y-063121
X060011Y-063515
X060011Y-088371
X060011Y-088765
X060404Y-012621
X060404Y-013015
X060404Y-037871
X060404Y-038265
X060404Y-063121
X060404Y-063515
X060404Y-088371
X060404Y-088765
T2
X0069Y-0138
X0069Y-0179
X0069Y-03905
X0069Y-04315
X0069Y-0643
X0069Y-0684
X0069Y-08955
X0069Y-09365
X00693Y-02574
X00693Y-05099
X00693Y-07624
X00693Y-10149
X0072Y-01935
X0072Y-0446
X0072Y-06985
X0072Y-0951
X0074Y-0202
X0074Y-04545
X0074Y-0707
X0074Y-09595
X00755Y-0146
X00755Y-03985
X00755Y-0651
X00755Y-09035
X00765Y-02235
X00765Y-0476
X00765Y-07285
X00765Y-0981
X0086Y-023
X0086Y-04825
X0086Y-0735
X0086Y-09875
X00878Y-00735
X00878Y-0326
X00878Y-05785
X00878Y-0831
X0089Y-01945
X0089Y-0447
X0089Y-06995
X0089Y-0952
X00905Y-0176
X00905Y-04285
X00905Y-0681
X00905Y-09335
X00912Y-00735
X00912Y-0326
X00912Y-05785
X00912Y-0831
X00945Y-014
X00945Y-03925
X00945Y-0645
X00945Y-08975
X0095Y-02205
X0095Y-0473
X0095Y-07255
X0095Y-0978
X00975Y-0202
X00975Y-04545
X00975Y-0707
X00975Y-09595
X00995Y-02775
X00995Y-053
X00995Y-07825
X00995Y-1035
X01Y-0108
X01Y-03605
X01Y-0613
X01Y-08655
X01005Y-01845
X01005Y-0437
X01005Y-06895
X01005Y-0942
X0104Y-0225
X0104Y-04775
X0104Y-073
X0104Y-09825
X0109Y-0278
X0109Y-05305
X0109Y-0783
X0109Y-10355
X01125Y-0193
X01125Y-0199
X01125Y-04455
X01125Y-04515
X01125Y-0698
X01125Y-0704
X01125Y-09505
X01125Y-09565
X011375Y-012675
X011375Y-037925
X011375Y-063175
X011375Y-088425
X0117Y-02365
X0117Y-0489
X0117Y-07415
X0117Y-0994
X0118Y-0183
X0118Y-04355
X0118Y-0688
X0118Y-09405
X01191Y-01207
X01191Y-03732
X01191Y-06257
X01191Y-08782
X01196Y-01021
X01196Y-03546
X01196Y-06071
X01196Y-08596
X01215Y-02205
X01215Y-0473
X01215Y-07255
X01215Y-0978
X01245Y-0238
X01245Y-04905
X01245Y-0743
X01245Y-09955
X012469Y-014011
X012469Y-039261
X012469Y-064511
X012469Y-089761
X0125Y-01695
X0125Y-0422
X0125Y-06745
X0125Y-0927
X0126Y-0279
X0126Y-05315
X0126Y-0784
X0126Y-10365
X01273Y-01019
X01273Y-03544
X01273Y-06069
X01273Y-08594
X01275Y-0146
X01275Y-03985
X01275Y-0651
X01275Y-09035
X01305Y-0196
X01305Y-04485
X01305Y-0701
X01305Y-09535
X01335Y-01375
X01335Y-039
X01335Y-06425
X01335Y-0895
X0134Y-02205
X0134Y-0473
X0134Y-07255
X0134Y-0978
X01341Y-01207
X01341Y-03732
X01341Y-06257
X01341Y-08782
X013599Y-017668
X013599Y-042918
X013599Y-068168
X013599Y-093418
X0137Y-01485
X0137Y-0401
X0137Y-06535
X0137Y-0906
X01371Y-01415
X01371Y-0394
X01371Y-06465
X01371Y-0899
X013717Y-014491
X013717Y-039741
X013717Y-064991
X013717Y-090241
X01384Y-017428
X01384Y-042678
X01384Y-067928
X01384Y-093178
X0139Y-01555
X0139Y-0279
X0139Y-0408
X0139Y-05315
X0139Y-06605
X0139Y-0784
X0139Y-0913
X0139Y-10365
X01395Y-01365
X01395Y-0389
X01395Y-06415
X01395Y-0894
X01415Y-02705
X01415Y-0523
X01415Y-07755
X01415Y-1028
X0142Y-01835
X0142Y-0436
X0142Y-06885
X0142Y-0941
X0143Y-01465
X0143Y-0399
X0143Y-06515
X0143Y-0904
X01435Y-01615
X01435Y-0167
X01435Y-0414
X01435Y-04195
X01435Y-06665
X01435Y-0672
X01435Y-0919
X01435Y-09245
X0144Y-0173
X0144Y-04255
X0144Y-0678
X0144Y-09305
X01505Y-01325
X01505Y-0385
X01505Y-06375
X01505Y-089
X01515Y-0072
X01515Y-03245
X01515Y-0577
X01515Y-08295
X0164Y-00565
X0164Y-0309
X0164Y-05615
X0164Y-0814
X01665Y-01515
X01665Y-0404
X01665Y-06565
X01665Y-0909
X016681Y-017219
X016681Y-042469
X016681Y-067719
X016681Y-092969
X0169Y-0111
X0169Y-03635
X0169Y-0616
X0169Y-08685
X01705Y-0146
X01705Y-03985
X01705Y-0651
X01705Y-09035
X01725Y-0179
X01725Y-04315
X01725Y-0684
X01725Y-09365
X0173Y-0071
X0173Y-03235
X0173Y-0576
X0173Y-08285
X0177Y-01
X0177Y-03525
X0177Y-0605
X0177Y-08575
X01775Y-0071
X01775Y-0138
X01775Y-03235
X01775Y-03905
X01775Y-0576
X01775Y-0643
X01775Y-08285
X01775Y-08955
X01804Y-01589
X01804Y-04114
X01804Y-06639
X01804Y-09164
X02275Y-0138
X02275Y-0179
X02275Y-03905
X02275Y-04315
X02275Y-0643
X02275Y-0684
X02275Y-08955
X02275Y-09365
X02278Y-02574
X02278Y-05099
X02278Y-07624
X02278Y-10149
X02305Y-01935
X02305Y-0446
X02305Y-06985
X02305Y-0951
X02325Y-0202
X02325Y-04545
X02325Y-0707
X02325Y-09595
X0234Y-0146
X0234Y-03985
X0234Y-0651
X0234Y-09035
X0235Y-02235
X0235Y-0476
X0235Y-07285
X0235Y-0981
X02445Y-023
X02445Y-04825
X02445Y-0735
X02445Y-09875
X02463Y-00735
X02463Y-0326
X02463Y-05785
X02463Y-0831
X02475Y-01945
X02475Y-0447
X02475Y-06995
X02475Y-0952
X0249Y-0176
X0249Y-04285
X0249Y-0681
X0249Y-09335
X02497Y-00735
X02497Y-0326
X02497Y-05785
X02497Y-0831
X0253Y-014
X0253Y-03925
X0253Y-0645
X0253Y-08975
X02535Y-02205
X02535Y-0473
X02535Y-07255
X02535Y-0978
X0256Y-0202
X0256Y-04545
X0256Y-0707
X0256Y-09595
X0258Y-02775
X0258Y-053
X0258Y-07825
X0258Y-1035
X02585Y-0108
X02585Y-03605
X02585Y-0613
X02585Y-08655
X0259Y-01845
X0259Y-0437
X0259Y-06895
X0259Y-0942
X02625Y-0225
X02625Y-04775
X02625Y-073
X02625Y-09825
X02675Y-0278
X02675Y-05305
X02675Y-0783
X02675Y-10355
X0271Y-0193
X0271Y-0199
X0271Y-04455
X0271Y-04515
X0271Y-0698
X0271Y-0704
X0271Y-09505
X0271Y-09565
X027225Y-012675
X027225Y-037925
X027225Y-063175
X027225Y-088425
X02755Y-02365
X02755Y-0489
X02755Y-07415
X02755Y-0994
X02765Y-0183
X02765Y-04355
X02765Y-0688
X02765Y-09405
X02776Y-01207
X02776Y-03732
X02776Y-06257
X02776Y-08782
X02781Y-01021
X02781Y-03546
X02781Y-06071
X02781Y-08596
X028Y-02205
X028Y-0473
X028Y-07255
X028Y-0978
X0283Y-0238
X0283Y-04905
X0283Y-0743
X0283Y-09955
X028319Y-014011
X028319Y-039261
X028319Y-064511
X028319Y-089761
X02835Y-01695
X02835Y-0422
X02835Y-06745
X02835Y-0927
X02845Y-0279
X02845Y-05315
X02845Y-0784
X02845Y-10365
X02858Y-01019
X02858Y-03544
X02858Y-06069
X02858Y-08594
X0286Y-0146
X0286Y-03985
X0286Y-0651
X0286Y-09035
X0289Y-0196
X0289Y-04485
X0289Y-0701
X0289Y-09535
X0292Y-01375
X0292Y-039
X0292Y-06425
X0292Y-0895
X02925Y-02205
X02925Y-0473
X02925Y-07255
X02925Y-0978
X02926Y-01207
X02926Y-03732
X02926Y-06257
X02926Y-08782
X029449Y-017668
X029449Y-042918
X029449Y-068168
X029449Y-093418
X02955Y-01485
X02955Y-0401
X02955Y-06535
X02955Y-0906
X02956Y-01415
X02956Y-0394
X02956Y-06465
X02956Y-0899
X029567Y-014491
X029567Y-039741
X029567Y-064991
X029567Y-090241
X02969Y-017428
X02969Y-042678
X02969Y-067928
X02969Y-093178
X02975Y-01555
X02975Y-0279
X02975Y-0408
X02975Y-05315
X02975Y-06605
X02975Y-0784
X02975Y-0913
X02975Y-10365
X0298Y-01365
X0298Y-0389
X0298Y-06415
X0298Y-0894
X03Y-02705
X03Y-0523
X03Y-07755
X03Y-1028
X03005Y-01835
X03005Y-0436
X03005Y-06885
X03005Y-0941
X03015Y-01465
X03015Y-0399
X03015Y-06515
X03015Y-0904
X0302Y-01615
X0302Y-0167
X0302Y-0414
X0302Y-04195
X0302Y-06665
X0302Y-0672
X0302Y-0919
X0302Y-09245
X03025Y-0173
X03025Y-04255
X03025Y-0678
X03025Y-09305
X0309Y-01325
X0309Y-0385
X0309Y-06375
X0309Y-089
X031Y-0072
X031Y-03245
X031Y-0577
X031Y-08295
X03225Y-00565
X03225Y-0309
X03225Y-05615
X03225Y-0814
X0325Y-01515
X0325Y-0404
X0325Y-06565
X0325Y-0909
X032531Y-017219
X032531Y-042469
X032531Y-067719
X032531Y-092969
X03275Y-0111
X03275Y-03635
X03275Y-0616
X03275Y-08685
X0329Y-0146
X0329Y-03985
X0329Y-0651
X0329Y-09035
X0331Y-0179
X0331Y-04315
X0331Y-0684
X0331Y-09365
X03315Y-0071
X03315Y-03235
X03315Y-0576
X03315Y-08285
X03355Y-01
X03355Y-03525
X03355Y-0605
X03355Y-08575
X0336Y-0071
X0336Y-0138
X0336Y-03235
X0336Y-03905
X0336Y-0576
X0336Y-0643
X0336Y-08285
X0336Y-08955
X03389Y-01589
X03389Y-04114
X03389Y-06639
X03389Y-09164
X0386Y-0138
X0386Y-0179
X0386Y-03905
X0386Y-04315
X0386Y-0643
X0386Y-0684
X0386Y-08955
X0386Y-09365
X03863Y-02574
X03863Y-05099
X03863Y-07624
X03863Y-10149
X0389Y-01935
X0389Y-0446
X0389Y-06985
X0389Y-0951
X0391Y-0202
X0391Y-04545
X0391Y-0707
X0391Y-09595
X03925Y-0146
X03925Y-03985
X03925Y-0651
X03925Y-09035
X03935Y-02235
X03935Y-0476
X03935Y-07285
X03935Y-0981
X0403Y-023
X0403Y-04825
X0403Y-0735
X0403Y-09875
X04048Y-00735
X04048Y-0326
X04048Y-05785
X04048Y-0831
X0406Y-01945
X0406Y-0447
X0406Y-06995
X0406Y-0952
X04075Y-0176
X04075Y-04285
X04075Y-0681
X04075Y-09335
X04082Y-00735
X04082Y-0326
X04082Y-05785
X04082Y-0831
X04115Y-014
X04115Y-03925
X04115Y-0645
X04115Y-08975
X0412Y-02205
X0412Y-0473
X0412Y-07255
X0412Y-0978
X04145Y-0202
X04145Y-04545
X04145Y-0707
X04145Y-09595
X04165Y-02775
X04165Y-053
X04165Y-07825
X04165Y-1035
X0417Y-0108
X0417Y-03605
X0417Y-0613
X0417Y-08655
X04175Y-01845
X04175Y-0437
X04175Y-06895
X04175Y-0942
X0421Y-0225
X0421Y-04775
X0421Y-073
X0421Y-09825
X0426Y-0278
X0426Y-05305
X0426Y-0783
X0426Y-10355
X04295Y-0193
X04295Y-0199
X04295Y-04455
X04295Y-04515
X04295Y-0698
X04295Y-0704
X04295Y-09505
X04295Y-09565
X043075Y-012675
X043075Y-037925
X043075Y-063175
X043075Y-088425
X0434Y-02365
X0434Y-0489
X0434Y-07415
X0434Y-0994
X0435Y-0183
X0435Y-04355
X0435Y-0688
X0435Y-09405
X04361Y-01207
X04361Y-03732
X04361Y-06257
X04361Y-08782
X04366Y-01021
X04366Y-03546
X04366Y-06071
X04366Y-08596
X04385Y-02205
X04385Y-0473
X04385Y-07255
X04385Y-0978
X04415Y-0238
X04415Y-04905
X04415Y-0743
X04415Y-09955
X044169Y-014011
X044169Y-039261
X044169Y-064511
X044169Y-089761
X0442Y-01695
X0442Y-0422
X0442Y-06745
X0442Y-0927
X0443Y-0279
X0443Y-05315
X0443Y-0784
X0443Y-10365
X04443Y-01019
X04443Y-03544
X04443Y-06069
X04443Y-08594
X04445Y-0146
X04445Y-03985
X04445Y-0651
X04445Y-09035
X04475Y-0196
X04475Y-04485
X04475Y-0701
X04475Y-09535
X04505Y-01375
X04505Y-039
X04505Y-06425
X04505Y-0895
X0451Y-02205
X0451Y-0473
X0451Y-07255
X0451Y-0978
X04511Y-01207
X04511Y-03732
X04511Y-06257
X04511Y-08782
X045299Y-017668
X045299Y-042918
X045299Y-068168
X045299Y-093418
X0454Y-01485
X0454Y-0401
X0454Y-06535
X0454Y-0906
X04541Y-01415
X04541Y-0394
X04541Y-06465
X04541Y-0899
X045417Y-014491
X045417Y-039741
X045417Y-064991
X045417Y-090241
X04554Y-017428
X04554Y-042678
X04554Y-067928
X04554Y-093178
X0456Y-01555
X0456Y-0279
X0456Y-0408
X0456Y-05315
X0456Y-06605
X0456Y-0784
X0456Y-0913
X0456Y-10365
X04565Y-01365
X04565Y-0389
X04565Y-06415
X04565Y-0894
X04585Y-02705
X04585Y-0523
X04585Y-07755
X04585Y-1028
X0459Y-01835
X0459Y-0436
X0459Y-06885
X0459Y-0941
X046Y-01465
X046Y-0399
X046Y-06515
X046Y-0904
X04605Y-01615
X04605Y-0167
X04605Y-0414
X04605Y-04195
X04605Y-06665
X04605Y-0672
X04605Y-0919
X04605Y-09245
X0461Y-0173
X0461Y-04255
X0461Y-0678
X0461Y-09305
X04675Y-01325
X04675Y-0385
X04675Y-06375
X04675Y-089
X04685Y-0072
X04685Y-03245
X04685Y-0577
X04685Y-08295
X0481Y-00565
X0481Y-0309
X0481Y-05615
X0481Y-0814
X04835Y-01515
X04835Y-0404
X04835Y-06565
X04835Y-0909
X048381Y-017219
X048381Y-042469
X048381Y-067719
X048381Y-092969
X0486Y-0111
X0486Y-03635
X0486Y-0616
X0486Y-08685
X04875Y-0146
X04875Y-03985
X04875Y-0651
X04875Y-09035
X04895Y-0179
X04895Y-04315
X04895Y-0684
X04895Y-09365
X049Y-0071
X049Y-03235
X049Y-0576
X049Y-08285
X0494Y-01
X0494Y-03525
X0494Y-0605
X0494Y-08575
X04945Y-0071
X04945Y-0138
X04945Y-03235
X04945Y-03905
X04945Y-0576
X04945Y-0643
X04945Y-08285
X04945Y-08955
X04974Y-01589
X04974Y-04114
X04974Y-06639
X04974Y-09164
X05445Y-0138
X05445Y-0179
X05445Y-03905
X05445Y-04315
X05445Y-0643
X05445Y-0684
X05445Y-08955
X05445Y-09365
X05448Y-02574
X05448Y-05099
X05448Y-07624
X05448Y-10149
X05475Y-01935
X05475Y-0446
X05475Y-06985
X05475Y-0951
X05495Y-0202
X05495Y-04545
X05495Y-0707
X05495Y-09595
X0551Y-0146
X0551Y-03985
X0551Y-0651
X0551Y-09035
X0552Y-02235
X0552Y-0476
X0552Y-07285
X0552Y-0981
X05615Y-023
X05615Y-04825
X05615Y-0735
X05615Y-09875
X05633Y-00735
X05633Y-0326
X05633Y-05785
X05633Y-0831
X05645Y-01945
X05645Y-0447
X05645Y-06995
X05645Y-0952
X0566Y-0176
X0566Y-04285
X0566Y-0681
X0566Y-09335
X05667Y-00735
X05667Y-0326
X05667Y-05785
X05667Y-0831
X057Y-014
X057Y-03925
X057Y-0645
X057Y-08975
X05705Y-02205
X05705Y-0473
X05705Y-07255
X05705Y-0978
X0573Y-0202
X0573Y-04545
X0573Y-0707
X0573Y-09595
X0575Y-02775
X0575Y-053
X0575Y-07825
X0575Y-1035
X05755Y-0108
X05755Y-03605
X05755Y-0613
X05755Y-08655
X0576Y-01845
X0576Y-0437
X0576Y-06895
X0576Y-0942
X05795Y-0225
X05795Y-04775
X05795Y-073
X05795Y-09825
X05845Y-0278
X05845Y-05305
X05845Y-0783
X05845Y-10355
X0588Y-0193
X0588Y-0199
X0588Y-04455
X0588Y-04515
X0588Y-0698
X0588Y-0704
X0588Y-09505
X0588Y-09565
X058925Y-012675
X058925Y-037925
X058925Y-063175
X058925Y-088425
X05925Y-02365
X05925Y-0489
X05925Y-07415
X05925Y-0994
X05935Y-0183
X05935Y-04355
X05935Y-0688
X05935Y-09405
X05946Y-01207
X05946Y-03732
X05946Y-06257
X05946Y-08782
X05951Y-01021
X05951Y-03546
X05951Y-06071
X05951Y-08596
X0597Y-02205
X0597Y-0473
X0597Y-07255
X0597Y-0978
X06Y-0238
X06Y-04905
X06Y-0743
X06Y-09955
X060019Y-014011
X060019Y-039261
X060019Y-064511
X060019Y-089761
X06005Y-01695
X06005Y-0422
X06005Y-06745
X06005Y-0927
X06015Y-0279
X06015Y-05315
X06015Y-0784
X06015Y-10365
X06028Y-01019
X06028Y-03544
X06028Y-06069
X06028Y-08594
X0603Y-0146
X0603Y-03985
X0603Y-0651
X0603Y-09035
X0606Y-0196
X0606Y-04485
X0606Y-0701
X0606Y-09535
X0609Y-01375
X0609Y-039
X0609Y-06425
X0609Y-0895
X06095Y-02205
X06095Y-0473
X06095Y-07255
X06095Y-0978
X06096Y-01207
X06096Y-03732
X06096Y-06257
X06096Y-08782
X061149Y-017668
X061149Y-042918
X061149Y-068168
X061149Y-093418
X06125Y-01485
X06125Y-0401
X06125Y-06535
X06125Y-0906
X06126Y-01415
X06126Y-0394
X06126Y-06465
X06126Y-0899
X061267Y-014491
X061267Y-039741
X061267Y-064991
X061267Y-090241
X06139Y-017428
X06139Y-042678
X06139Y-067928
X06139Y-093178
X06145Y-01555
X06145Y-0279
X06145Y-0408
X06145Y-05315
X06145Y-06605
X06145Y-0784
X06145Y-0913
X06145Y-10365
X0615Y-01365
X0615Y-0389
X0615Y-06415
X0615Y-0894
X0617Y-02705
X0617Y-0523
X0617Y-07755
X0617Y-1028
X06175Y-01835
X06175Y-0436
X06175Y-06885
X06175Y-0941
X06185Y-01465
X06185Y-0399
X06185Y-06515
X06185Y-0904
X0619Y-01615
X0619Y-0167
X0619Y-0414
X0619Y-04195
X0619Y-06665
X0619Y-0672
X0619Y-0919
X0619Y-09245
X06195Y-0173
X06195Y-04255
X06195Y-0678
X06195Y-09305
X0626Y-01325
X0626Y-0385
X0626Y-06375
X0626Y-089
X0627Y-0072
X0627Y-03245
X0627Y-0577
X0627Y-08295
X06395Y-00565
X06395Y-0309
X06395Y-05615
X06395Y-0814
X0642Y-01515
X0642Y-0404
X0642Y-06565
X0642Y-0909
X064231Y-017219
X064231Y-042469
X064231Y-067719
X064231Y-092969
X06445Y-0111
X06445Y-03635
X06445Y-0616
X06445Y-08685
X0646Y-0146
X0646Y-03985
X0646Y-0651
X0646Y-09035
X0648Y-0179
X0648Y-04315
X0648Y-0684
X0648Y-09365
X06485Y-0071
X06485Y-03235
X06485Y-0576
X06485Y-08285
X06525Y-01
X06525Y-03525
X06525Y-0605
X06525Y-08575
X0653Y-0071
X0653Y-0138
X0653Y-03235
X0653Y-03905
X0653Y-0576
X0653Y-0643
X0653Y-08285
X0653Y-08955
X06559Y-01589
X06559Y-04114
X06559Y-06639
X06559Y-09164
T3
X00677Y-00949
X00677Y-03474
X00677Y-05999
X00677Y-08524
X00685Y-0252
X00685Y-05045
X00685Y-0757
X00685Y-10095
X00823Y-02782
X00823Y-05307
X00823Y-07832
X00823Y-10357
X00825Y-0112
X00825Y-03645
X00825Y-0617
X00825Y-08695
X00977Y-00716
X00977Y-03241
X00977Y-05766
X00977Y-08291
X010998Y-012128
X010998Y-037378
X010998Y-062628
X010998Y-087878
X01135Y-0267
X01135Y-05195
X01135Y-0772
X01135Y-10245
X0118Y-02785
X0118Y-0531
X0118Y-07835
X0118Y-1036
X01301Y-02561
X01301Y-05086
X01301Y-07611
X01301Y-10136
X01363Y-01833
X01363Y-04358
X01363Y-06883
X01363Y-09408
X01407Y-02608
X01407Y-05133
X01407Y-07658
X01407Y-10183
X01425Y-01915
X01425Y-0444
X01425Y-06965
X01425Y-0949
X01601Y-0072
X01601Y-03245
X01601Y-0577
X01601Y-08295
X01664Y-01968
X01664Y-04493
X01664Y-07018
X01664Y-09543
X01708Y-00569
X01708Y-03094
X01708Y-05619
X01708Y-08144
X02262Y-00949
X02262Y-03474
X02262Y-05999
X02262Y-08524
X0227Y-0252
X0227Y-05045
X0227Y-0757
X0227Y-10095
X02408Y-02782
X02408Y-05307
X02408Y-07832
X02408Y-10357
X0241Y-0112
X0241Y-03645
X0241Y-0617
X0241Y-08695
X02562Y-00716
X02562Y-03241
X02562Y-05766
X02562Y-08291
X026848Y-012128
X026848Y-037378
X026848Y-062628
X026848Y-087878
X0272Y-0267
X0272Y-05195
X0272Y-0772
X0272Y-10245
X02765Y-02785
X02765Y-0531
X02765Y-07835
X02765Y-1036
X02886Y-02561
X02886Y-05086
X02886Y-07611
X02886Y-10136
X02948Y-01833
X02948Y-04358
X02948Y-06883
X02948Y-09408
X02992Y-02608
X02992Y-05133
X02992Y-07658
X02992Y-10183
X0301Y-01915
X0301Y-0444
X0301Y-06965
X0301Y-0949
X03186Y-0072
X03186Y-03245
X03186Y-0577
X03186Y-08295
X03249Y-01968
X03249Y-04493
X03249Y-07018
X03249Y-09543
X03293Y-00569
X03293Y-03094
X03293Y-05619
X03293Y-08144
X03847Y-00949
X03847Y-03474
X03847Y-05999
X03847Y-08524
X03855Y-0252
X03855Y-05045
X03855Y-0757
X03855Y-10095
X03993Y-02782
X03993Y-05307
X03993Y-07832
X03993Y-10357
X03995Y-0112
X03995Y-03645
X03995Y-0617
X03995Y-08695
X04147Y-00716
X04147Y-03241
X04147Y-05766
X04147Y-08291
X042698Y-012128
X042698Y-037378
X042698Y-062628
X042698Y-087878
X04305Y-0267
X04305Y-05195
X04305Y-0772
X04305Y-10245
X0435Y-02785
X0435Y-0531
X0435Y-07835
X0435Y-1036
X04471Y-02561
X04471Y-05086
X04471Y-07611
X04471Y-10136
X04533Y-01833
X04533Y-04358
X04533Y-06883
X04533Y-09408
X04577Y-02608
X04577Y-05133
X04577Y-07658
X04577Y-10183
X04595Y-01915
X04595Y-0444
X04595Y-06965
X04595Y-0949
X04771Y-0072
X04771Y-03245
X04771Y-0577
X04771Y-08295
X04834Y-01968
X04834Y-04493
X04834Y-07018
X04834Y-09543
X04878Y-00569
X04878Y-03094
X04878Y-05619
X04878Y-08144
X05432Y-00949
X05432Y-03474
X05432Y-05999
X05432Y-08524
X0544Y-0252
X0544Y-05045
X0544Y-0757
X0544Y-10095
X05578Y-02782
X05578Y-05307
X05578Y-07832
X05578Y-10357
X0558Y-0112
X0558Y-03645
X0558Y-0617
X0558Y-08695
X05732Y-00716
X05732Y-03241
X05732Y-05766
X05732Y-08291
X058548Y-012128
X058548Y-037378
X058548Y-062628
X058548Y-087878
X0589Y-0267
X0589Y-05195
X0589Y-0772
X0589Y-10245
X05935Y-02785
X05935Y-0531
X05935Y-07835
X05935Y-1036
X06056Y-02561
X06056Y-05086
X06056Y-07611
X06056Y-10136
X06118Y-01833
X06118Y-04358
X06118Y-06883
X06118Y-09408
X06162Y-02608
X06162Y-05133
X06162Y-07658
X06162Y-10183
X0618Y-01915
X0618Y-0444
X0618Y-06965
X0618Y-0949
X06356Y-0072
X06356Y-03245
X06356Y-0577
X06356Y-08295
X06419Y-01968
X06419Y-04493
X06419Y-07018
X06419Y-09543
X06463Y-00569
X06463Y-03094
X06463Y-05619
X06463Y-08144
T4
X00985Y-008166
X00985Y-010134
X00985Y-033416
X00985Y-035384
X00985Y-058666
X00985Y-060634
X00985Y-083916
X00985Y-085884
X01115Y-00915
X01115Y-0344
X01115Y-05965
X01115Y-0849
X0257Y-008166
X0257Y-010134
X0257Y-033416
X0257Y-035384
X0257Y-058666
X0257Y-060634
X0257Y-083916
X0257Y-085884
X027Y-00915
X027Y-0344
X027Y-05965
X027Y-0849
X04155Y-008166
X04155Y-010134
X04155Y-033416
X04155Y-035384
X04155Y-058666
X04155Y-060634
X04155Y-083916
X04155Y-085884
X04285Y-00915
X04285Y-0344
X04285Y-05965
X04285Y-0849
X0574Y-008166
X0574Y-010134
X0574Y-033416
X0574Y-035384
X0574Y-058666
X0574Y-060634
X0574Y-083916
X0574Y-085884
X0587Y-00915
X0587Y-0344
X0587Y-05965
X0587Y-0849
T5
X00595Y-0189
X00595Y-0199
X00595Y-0209
X00595Y-02265
X00595Y-02365
X00595Y-04415
X00595Y-04515
X00595Y-04615
X00595Y-0479
X00595Y-0489
X00595Y-0694
X00595Y-0704
X00595Y-0714
X00595Y-07315
X00595Y-07415
X00595Y-09465
X00595Y-09565
X00595Y-09665
X00595Y-0984
X00595Y-0994
X0218Y-0189
X0218Y-0199
X0218Y-0209
X0218Y-02265
X0218Y-02365
X0218Y-04415
X0218Y-04515
X0218Y-04615
X0218Y-0479
X0218Y-0489
X0218Y-0694
X0218Y-0704
X0218Y-0714
X0218Y-07315
X0218Y-07415
X0218Y-09465
X0218Y-09565
X0218Y-09665
X0218Y-0984
X0218Y-0994
X03765Y-0189
X03765Y-0199
X03765Y-0209
X03765Y-02265
X03765Y-02365
X03765Y-04415
X03765Y-04515
X03765Y-04615
X03765Y-0479
X03765Y-0489
X03765Y-0694
X03765Y-0704
X03765Y-0714
X03765Y-07315
X03765Y-07415
X03765Y-09465
X03765Y-09565
X03765Y-09665
X03765Y-0984
X03765Y-0994
X0535Y-0189
X0535Y-0199
X0535Y-0209
X0535Y-02265
X0535Y-02365
X0535Y-04415
X0535Y-04515
X0535Y-04615
X0535Y-0479
X0535Y-0489
X0535Y-0694
X0535Y-0704
X0535Y-0714
X0535Y-07315
X0535Y-07415
X0535Y-09465
X0535Y-09565
X0535Y-09665
X0535Y-0984
X0535Y-0994
T6
X00755Y-005497
X00755Y-030747
X00755Y-055997
X00755Y-081247
X00795Y-0191
X00795Y-04435
X00795Y-0696
X00795Y-09485
X0098Y-01925
X0098Y-0445
X0098Y-06975
X0098Y-095
X0099Y-02505
X0099Y-0503
X0099Y-07555
X0099Y-1008
X01005Y-005497
X01005Y-030747
X01005Y-055997
X01005Y-081247
X0105Y-01685
X0105Y-0421
X0105Y-06735
X0105Y-0926
X0112Y-02505
X0112Y-0503
X0112Y-07555
X0112Y-1008
X01235Y-02095
X01235Y-0462
X01235Y-07145
X01235Y-0967
X01365Y-02405
X01365Y-0493
X01365Y-07455
X01365Y-0998
X0234Y-005497
X0234Y-030747
X0234Y-055997
X0234Y-081247
X0238Y-0191
X0238Y-04435
X0238Y-0696
X0238Y-09485
X02565Y-01925
X02565Y-0445
X02565Y-06975
X02565Y-095
X02575Y-02505
X02575Y-0503
X02575Y-07555
X02575Y-1008
X0259Y-005497
X0259Y-030747
X0259Y-055997
X0259Y-081247
X02635Y-01685
X02635Y-0421
X02635Y-06735
X02635Y-0926
X02705Y-02505
X02705Y-0503
X02705Y-07555
X02705Y-1008
X0282Y-02095
X0282Y-0462
X0282Y-07145
X0282Y-0967
X0295Y-02405
X0295Y-0493
X0295Y-07455
X0295Y-0998
X03925Y-005497
X03925Y-030747
X03925Y-055997
X03925Y-081247
X03965Y-0191
X03965Y-04435
X03965Y-0696
X03965Y-09485
X0415Y-01925
X0415Y-0445
X0415Y-06975
X0415Y-095
X0416Y-02505
X0416Y-0503
X0416Y-07555
X0416Y-1008
X04175Y-005497
X04175Y-030747
X04175Y-055997
X04175Y-081247
X0422Y-01685
X0422Y-0421
X0422Y-06735
X0422Y-0926
X0429Y-02505
X0429Y-0503
X0429Y-07555
X0429Y-1008
X04405Y-02095
X04405Y-0462
X04405Y-07145
X04405Y-0967
X04535Y-02405
X04535Y-0493
X04535Y-07455
X04535Y-0998
X0551Y-005497
X0551Y-030747
X0551Y-055997
X0551Y-081247
X0555Y-0191
X0555Y-04435
X0555Y-0696
X0555Y-09485
X05735Y-01925
X05735Y-0445
X05735Y-06975
X05735Y-095
X05745Y-02505
X05745Y-0503
X05745Y-07555
X05745Y-1008
X0576Y-005497
X0576Y-030747
X0576Y-055997
X0576Y-081247
X05805Y-01685
X05805Y-0421
X05805Y-06735
X05805Y-0926
X05875Y-02505
X05875Y-0503
X05875Y-07555
X05875Y-1008
X0599Y-02095
X0599Y-0462
X0599Y-07145
X0599Y-0967
X0612Y-02405
X0612Y-0493
X0612Y-07455
X0612Y-0998
T0
M30
