G04 #@! TF.FileFunction,Soldermask,Top*
%FSLAX46Y46*%
G04 Gerber Fmt 4.6, Leading zero omitted, Abs format (unit mm)*
G04 Created by KiCad (PCBNEW 0.201601221447+6507~42~ubuntu15.10.1-product) date Fri 22 Jan 2016 06:42:10 PM EST*
%MOMM*%
G01*
G04 APERTURE LIST*
%ADD10C,0.100000*%
%ADD11R,2.103200X1.803200*%
%ADD12R,1.803200X1.603200*%
%ADD13R,0.603200X1.553200*%
%ADD14C,1.803200*%
%ADD15R,0.703200X0.803200*%
%ADD16R,0.603200X0.803200*%
%ADD17R,1.753200X0.803200*%
%ADD18R,0.803200X0.703200*%
%ADD19R,0.803200X1.003200*%
%ADD20C,1.753200*%
%ADD21R,0.853200X0.748200*%
%ADD22C,1.653200*%
%ADD23C,0.926200*%
%ADD24C,0.765200*%
%ADD25C,0.715200*%
%ADD26C,1.427200*%
%ADD27R,0.653200X0.653200*%
%ADD28R,2.235200X2.235200*%
%ADD29O,2.235200X2.235200*%
%ADD30R,0.803200X0.603200*%
%ADD31R,1.003200X1.603200*%
%ADD32R,1.553200X2.003200*%
%ADD33R,1.363200X1.703200*%
%ADD34R,0.853200X2.343200*%
%ADD35R,0.803200X1.353200*%
%ADD36R,0.853200X1.803200*%
%ADD37R,0.853200X1.503200*%
%ADD38R,1.303200X0.653200*%
%ADD39R,1.353200X0.653200*%
%ADD40O,1.203200X0.503200*%
%ADD41O,0.503200X1.203200*%
%ADD42R,3.599180X1.701800*%
%ADD43R,3.700780X1.198880*%
%ADD44C,1.353200*%
%ADD45R,0.703200X1.403200*%
%ADD46R,0.473200X1.203200*%
%ADD47C,1.883200*%
%ADD48R,0.803200X1.453200*%
%ADD49R,0.683200X1.193200*%
%ADD50R,0.973200X0.623200*%
%ADD51R,0.803200X1.303200*%
%ADD52R,1.003200X0.953200*%
%ADD53R,0.953200X1.003200*%
%ADD54R,2.235200X1.930400*%
%ADD55O,2.235200X1.930400*%
%ADD56R,0.903200X0.403200*%
G04 APERTURE END LIST*
D10*
D11*
X144329000Y-206367000D03*
X141929000Y-206367000D03*
D12*
X146329000Y-208867000D03*
X139929000Y-208867000D03*
D13*
X144429000Y-209042000D03*
X143779000Y-209042000D03*
X143129000Y-209042000D03*
X142479000Y-209042000D03*
X141829000Y-209042000D03*
D14*
X146304000Y-206367000D03*
X139954000Y-206367000D03*
D15*
X154432000Y-228431000D03*
X154432000Y-229531000D03*
X157480000Y-224197000D03*
X157480000Y-223097000D03*
D16*
X137102000Y-227457000D03*
X136202000Y-227457000D03*
D17*
X136238000Y-237109000D03*
X141638000Y-237109000D03*
X136238000Y-235839000D03*
X141638000Y-235839000D03*
X136238000Y-234569000D03*
X141638000Y-234569000D03*
X136238000Y-233299000D03*
X141638000Y-233299000D03*
X136238000Y-232029000D03*
X141638000Y-232029000D03*
X136238000Y-230759000D03*
X141638000Y-230759000D03*
X136238000Y-229489000D03*
X141638000Y-229489000D03*
D15*
X139065000Y-239353000D03*
X139065000Y-240453000D03*
D18*
X145119000Y-237109000D03*
X146219000Y-237109000D03*
D19*
X144730000Y-259334000D03*
X143510000Y-259334000D03*
D20*
X144120000Y-260854000D03*
D21*
X147353000Y-259380500D03*
X148303000Y-259380500D03*
D22*
X147828000Y-260858000D03*
D23*
X152958000Y-259009000D03*
D24*
X152909000Y-261746000D03*
X154939000Y-261746000D03*
D23*
X154890000Y-259009000D03*
D25*
X153924000Y-259009000D03*
D26*
X153924000Y-261112000D03*
D16*
X167023200Y-237337600D03*
X166123200Y-237337600D03*
X165804000Y-231216200D03*
X164904000Y-231216200D03*
X167048600Y-240080800D03*
X166148600Y-240080800D03*
D27*
X166617200Y-233864600D03*
X165767200Y-233864600D03*
X166617200Y-234714600D03*
X165767200Y-234714600D03*
D28*
X135890000Y-252476000D03*
D29*
X135890000Y-249936000D03*
D16*
X165920000Y-226060000D03*
X166820000Y-226060000D03*
D30*
X149987000Y-209815000D03*
X149987000Y-208915000D03*
D16*
X150045000Y-220980000D03*
X150945000Y-220980000D03*
D31*
X165817000Y-208788000D03*
X164717000Y-208788000D03*
X163617000Y-208788000D03*
X162517000Y-208788000D03*
X161417000Y-208788000D03*
X160317000Y-208788000D03*
X159217000Y-208788000D03*
X158117000Y-208788000D03*
D32*
X166707000Y-206738000D03*
D33*
X153387000Y-206488000D03*
D34*
X167032000Y-213368000D03*
D35*
X153107000Y-214463000D03*
D36*
X167032000Y-218448000D03*
D37*
X153132000Y-220388000D03*
D38*
X166807000Y-219953000D03*
D39*
X166782000Y-220613000D03*
D40*
X154727400Y-225887800D03*
X154727400Y-225237800D03*
X154727400Y-224587800D03*
X154727400Y-223937800D03*
D41*
X153852400Y-223062800D03*
D40*
X151027400Y-225887800D03*
D41*
X153852400Y-226762800D03*
X153202400Y-223062800D03*
X152552400Y-223062800D03*
X151902400Y-223062800D03*
D40*
X151027400Y-225237800D03*
X151027400Y-224587800D03*
X151027400Y-223937800D03*
D41*
X153202400Y-226762800D03*
X152552400Y-226762800D03*
X151902400Y-226762800D03*
D42*
X136055100Y-212189060D03*
D43*
X141605000Y-214538560D03*
X141605000Y-216535000D03*
D42*
X136055100Y-218884500D03*
D44*
X149097000Y-215646000D03*
X145797000Y-218146000D03*
X145797000Y-213146000D03*
D30*
X154051000Y-238081400D03*
X154051000Y-238981400D03*
D45*
X136713000Y-258953000D03*
X135763000Y-258953000D03*
X134813000Y-258953000D03*
X134813000Y-261303000D03*
X136713000Y-261303000D03*
D46*
X141240000Y-246125000D03*
X141240000Y-249175000D03*
X141740000Y-246125000D03*
X141740000Y-249175000D03*
X142240000Y-246125000D03*
X142240000Y-249175000D03*
X142740000Y-246125000D03*
X142740000Y-249175000D03*
X143240000Y-246125000D03*
X143240000Y-249175000D03*
D47*
X152146000Y-245618000D03*
X149225000Y-256032000D03*
X145923000Y-256032000D03*
X145669000Y-241300000D03*
X147447000Y-235204000D03*
X140970000Y-240919000D03*
X155448000Y-253492000D03*
D48*
X153929000Y-245618000D03*
X155829000Y-245618000D03*
X154879000Y-243468000D03*
D49*
X148560000Y-250952000D03*
X149210000Y-250952000D03*
X149860000Y-250952000D03*
X150510000Y-250952000D03*
X150510000Y-248362000D03*
X149860000Y-248362000D03*
X149210000Y-248362000D03*
X148560000Y-248362000D03*
D50*
X147579000Y-238618000D03*
X147579000Y-239268000D03*
X147579000Y-239918000D03*
X149479000Y-239918000D03*
X149479000Y-238618000D03*
D51*
X145201600Y-226009200D03*
X146151600Y-226009200D03*
X147101600Y-226009200D03*
X147101600Y-223209200D03*
X145201600Y-223209200D03*
D16*
X152712000Y-247523000D03*
X153612000Y-247523000D03*
X149283000Y-246126000D03*
X150183000Y-246126000D03*
X147516000Y-254000000D03*
X146616000Y-254000000D03*
D30*
X144907000Y-239591000D03*
X144907000Y-238691000D03*
D16*
X150183000Y-254000000D03*
X149283000Y-254000000D03*
D30*
X143256000Y-239834000D03*
X143256000Y-240734000D03*
X147574000Y-242639000D03*
X147574000Y-241739000D03*
D16*
X145727000Y-250952000D03*
X146627000Y-250952000D03*
X147516000Y-244602000D03*
X146616000Y-244602000D03*
X143452000Y-223139000D03*
X142552000Y-223139000D03*
X137102000Y-223520000D03*
X136202000Y-223520000D03*
D18*
X136229000Y-221615000D03*
X137329000Y-221615000D03*
D52*
X138950000Y-261874000D03*
X140450000Y-261874000D03*
D15*
X152781000Y-243882000D03*
X152781000Y-242782000D03*
D52*
X136767000Y-256413000D03*
X135267000Y-256413000D03*
D18*
X139996000Y-258953000D03*
X138896000Y-258953000D03*
D53*
X150622000Y-242939000D03*
X150622000Y-241439000D03*
D15*
X150749000Y-260435000D03*
X150749000Y-261535000D03*
D18*
X143341000Y-242951000D03*
X144441000Y-242951000D03*
X152485000Y-249682000D03*
X153585000Y-249682000D03*
X141774000Y-242951000D03*
X140674000Y-242951000D03*
X143341000Y-244475000D03*
X144441000Y-244475000D03*
X141774000Y-244475000D03*
X140674000Y-244475000D03*
X150410000Y-244602000D03*
X149310000Y-244602000D03*
X155914000Y-248412000D03*
X157014000Y-248412000D03*
X147235000Y-248412000D03*
X146135000Y-248412000D03*
D52*
X149606000Y-235458000D03*
X151106000Y-235458000D03*
X147181000Y-246634000D03*
X145681000Y-246634000D03*
D15*
X145034000Y-252942000D03*
X145034000Y-254042000D03*
X139065000Y-248116000D03*
X139065000Y-249216000D03*
D18*
X153712000Y-240792000D03*
X152612000Y-240792000D03*
X151977000Y-254000000D03*
X153077000Y-254000000D03*
X147108000Y-227965000D03*
X146008000Y-227965000D03*
X147218400Y-221081600D03*
X146118400Y-221081600D03*
X156125000Y-256540000D03*
X155025000Y-256540000D03*
X152485000Y-251714000D03*
X153585000Y-251714000D03*
D54*
X135890000Y-245491000D03*
D55*
X135890000Y-242951000D03*
X135890000Y-240411000D03*
D56*
X161925000Y-241013000D03*
X158845000Y-241013000D03*
X161925000Y-240613000D03*
X158845000Y-240613000D03*
X161925000Y-240213000D03*
X158845000Y-240213000D03*
X161925000Y-239813000D03*
X158845000Y-239813000D03*
X161925000Y-239413000D03*
X158845000Y-239413000D03*
X161925000Y-239013000D03*
X158845000Y-239013000D03*
X161925000Y-238613000D03*
X158845000Y-238613000D03*
X161925000Y-238213000D03*
X158845000Y-238213000D03*
X161925000Y-237813000D03*
X158845000Y-237813000D03*
X161925000Y-237413000D03*
X158845000Y-237413000D03*
X161925000Y-237013000D03*
X158845000Y-237013000D03*
X161925000Y-236613000D03*
X158845000Y-236613000D03*
X161925000Y-236213000D03*
X158845000Y-236213000D03*
X161925000Y-235813000D03*
X158845000Y-235813000D03*
X161925000Y-235413000D03*
X158845000Y-235413000D03*
X161925000Y-235013000D03*
X158845000Y-235013000D03*
X161925000Y-234613000D03*
X158845000Y-234613000D03*
X161925000Y-234213000D03*
X158845000Y-234213000D03*
X161925000Y-233813000D03*
X158845000Y-233813000D03*
X161925000Y-233413000D03*
X158845000Y-233413000D03*
X161925000Y-233013000D03*
X158845000Y-233013000D03*
X161925000Y-232613000D03*
X158845000Y-232613000D03*
X161925000Y-232213000D03*
X158845000Y-232213000D03*
X161925000Y-231813000D03*
X158845000Y-231813000D03*
X161925000Y-231413000D03*
X158845000Y-231413000D03*
X161925000Y-231013000D03*
X158845000Y-231013000D03*
X161925000Y-230613000D03*
X158845000Y-230613000D03*
X161925000Y-230213000D03*
X158845000Y-230213000D03*
X161925000Y-229813000D03*
X158845000Y-229813000D03*
X161925000Y-229413000D03*
X158845000Y-229413000D03*
X161925000Y-229013000D03*
X158845000Y-229013000D03*
X161925000Y-228613000D03*
X158845000Y-228613000D03*
X161925000Y-228213000D03*
X158845000Y-228213000D03*
X161925000Y-227813000D03*
X158845000Y-227813000D03*
X161925000Y-227413000D03*
X158845000Y-227413000D03*
D18*
X149564000Y-237236000D03*
X150664000Y-237236000D03*
D11*
X144329000Y-142232000D03*
X141929000Y-142232000D03*
D12*
X146329000Y-144732000D03*
X139929000Y-144732000D03*
D13*
X144429000Y-144907000D03*
X143779000Y-144907000D03*
X143129000Y-144907000D03*
X142479000Y-144907000D03*
X141829000Y-144907000D03*
D14*
X146304000Y-142232000D03*
X139954000Y-142232000D03*
D15*
X154432000Y-164296000D03*
X154432000Y-165396000D03*
X157480000Y-160062000D03*
X157480000Y-158962000D03*
D16*
X137102000Y-163322000D03*
X136202000Y-163322000D03*
D17*
X136238000Y-172974000D03*
X141638000Y-172974000D03*
X136238000Y-171704000D03*
X141638000Y-171704000D03*
X136238000Y-170434000D03*
X141638000Y-170434000D03*
X136238000Y-169164000D03*
X141638000Y-169164000D03*
X136238000Y-167894000D03*
X141638000Y-167894000D03*
X136238000Y-166624000D03*
X141638000Y-166624000D03*
X136238000Y-165354000D03*
X141638000Y-165354000D03*
D15*
X139065000Y-175218000D03*
X139065000Y-176318000D03*
D18*
X145119000Y-172974000D03*
X146219000Y-172974000D03*
D19*
X144730000Y-195199000D03*
X143510000Y-195199000D03*
D20*
X144120000Y-196719000D03*
D21*
X147353000Y-195245500D03*
X148303000Y-195245500D03*
D22*
X147828000Y-196723000D03*
D23*
X152958000Y-194874000D03*
D24*
X152909000Y-197611000D03*
X154939000Y-197611000D03*
D23*
X154890000Y-194874000D03*
D25*
X153924000Y-194874000D03*
D26*
X153924000Y-196977000D03*
D16*
X167023200Y-173202600D03*
X166123200Y-173202600D03*
X165804000Y-167081200D03*
X164904000Y-167081200D03*
X167048600Y-175945800D03*
X166148600Y-175945800D03*
D27*
X166617200Y-169729600D03*
X165767200Y-169729600D03*
X166617200Y-170579600D03*
X165767200Y-170579600D03*
D28*
X135890000Y-188341000D03*
D29*
X135890000Y-185801000D03*
D16*
X165920000Y-161925000D03*
X166820000Y-161925000D03*
D30*
X149987000Y-145680000D03*
X149987000Y-144780000D03*
D16*
X150045000Y-156845000D03*
X150945000Y-156845000D03*
D31*
X165817000Y-144653000D03*
X164717000Y-144653000D03*
X163617000Y-144653000D03*
X162517000Y-144653000D03*
X161417000Y-144653000D03*
X160317000Y-144653000D03*
X159217000Y-144653000D03*
X158117000Y-144653000D03*
D32*
X166707000Y-142603000D03*
D33*
X153387000Y-142353000D03*
D34*
X167032000Y-149233000D03*
D35*
X153107000Y-150328000D03*
D36*
X167032000Y-154313000D03*
D37*
X153132000Y-156253000D03*
D38*
X166807000Y-155818000D03*
D39*
X166782000Y-156478000D03*
D40*
X154727400Y-161752800D03*
X154727400Y-161102800D03*
X154727400Y-160452800D03*
X154727400Y-159802800D03*
D41*
X153852400Y-158927800D03*
D40*
X151027400Y-161752800D03*
D41*
X153852400Y-162627800D03*
X153202400Y-158927800D03*
X152552400Y-158927800D03*
X151902400Y-158927800D03*
D40*
X151027400Y-161102800D03*
X151027400Y-160452800D03*
X151027400Y-159802800D03*
D41*
X153202400Y-162627800D03*
X152552400Y-162627800D03*
X151902400Y-162627800D03*
D42*
X136055100Y-148054060D03*
D43*
X141605000Y-150403560D03*
X141605000Y-152400000D03*
D42*
X136055100Y-154749500D03*
D44*
X149097000Y-151511000D03*
X145797000Y-154011000D03*
X145797000Y-149011000D03*
D30*
X154051000Y-173946400D03*
X154051000Y-174846400D03*
D45*
X136713000Y-194818000D03*
X135763000Y-194818000D03*
X134813000Y-194818000D03*
X134813000Y-197168000D03*
X136713000Y-197168000D03*
D46*
X141240000Y-181990000D03*
X141240000Y-185040000D03*
X141740000Y-181990000D03*
X141740000Y-185040000D03*
X142240000Y-181990000D03*
X142240000Y-185040000D03*
X142740000Y-181990000D03*
X142740000Y-185040000D03*
X143240000Y-181990000D03*
X143240000Y-185040000D03*
D47*
X152146000Y-181483000D03*
X149225000Y-191897000D03*
X145923000Y-191897000D03*
X145669000Y-177165000D03*
X147447000Y-171069000D03*
X140970000Y-176784000D03*
X155448000Y-189357000D03*
D48*
X153929000Y-181483000D03*
X155829000Y-181483000D03*
X154879000Y-179333000D03*
D49*
X148560000Y-186817000D03*
X149210000Y-186817000D03*
X149860000Y-186817000D03*
X150510000Y-186817000D03*
X150510000Y-184227000D03*
X149860000Y-184227000D03*
X149210000Y-184227000D03*
X148560000Y-184227000D03*
D50*
X147579000Y-174483000D03*
X147579000Y-175133000D03*
X147579000Y-175783000D03*
X149479000Y-175783000D03*
X149479000Y-174483000D03*
D51*
X145201600Y-161874200D03*
X146151600Y-161874200D03*
X147101600Y-161874200D03*
X147101600Y-159074200D03*
X145201600Y-159074200D03*
D16*
X152712000Y-183388000D03*
X153612000Y-183388000D03*
X149283000Y-181991000D03*
X150183000Y-181991000D03*
X147516000Y-189865000D03*
X146616000Y-189865000D03*
D30*
X144907000Y-175456000D03*
X144907000Y-174556000D03*
D16*
X150183000Y-189865000D03*
X149283000Y-189865000D03*
D30*
X143256000Y-175699000D03*
X143256000Y-176599000D03*
X147574000Y-178504000D03*
X147574000Y-177604000D03*
D16*
X145727000Y-186817000D03*
X146627000Y-186817000D03*
X147516000Y-180467000D03*
X146616000Y-180467000D03*
X143452000Y-159004000D03*
X142552000Y-159004000D03*
X137102000Y-159385000D03*
X136202000Y-159385000D03*
D18*
X136229000Y-157480000D03*
X137329000Y-157480000D03*
D52*
X138950000Y-197739000D03*
X140450000Y-197739000D03*
D15*
X152781000Y-179747000D03*
X152781000Y-178647000D03*
D52*
X136767000Y-192278000D03*
X135267000Y-192278000D03*
D18*
X139996000Y-194818000D03*
X138896000Y-194818000D03*
D53*
X150622000Y-178804000D03*
X150622000Y-177304000D03*
D15*
X150749000Y-196300000D03*
X150749000Y-197400000D03*
D18*
X143341000Y-178816000D03*
X144441000Y-178816000D03*
X152485000Y-185547000D03*
X153585000Y-185547000D03*
X141774000Y-178816000D03*
X140674000Y-178816000D03*
X143341000Y-180340000D03*
X144441000Y-180340000D03*
X141774000Y-180340000D03*
X140674000Y-180340000D03*
X150410000Y-180467000D03*
X149310000Y-180467000D03*
X155914000Y-184277000D03*
X157014000Y-184277000D03*
X147235000Y-184277000D03*
X146135000Y-184277000D03*
D52*
X149606000Y-171323000D03*
X151106000Y-171323000D03*
X147181000Y-182499000D03*
X145681000Y-182499000D03*
D15*
X145034000Y-188807000D03*
X145034000Y-189907000D03*
X139065000Y-183981000D03*
X139065000Y-185081000D03*
D18*
X153712000Y-176657000D03*
X152612000Y-176657000D03*
X151977000Y-189865000D03*
X153077000Y-189865000D03*
X147108000Y-163830000D03*
X146008000Y-163830000D03*
X147218400Y-156946600D03*
X146118400Y-156946600D03*
X156125000Y-192405000D03*
X155025000Y-192405000D03*
X152485000Y-187579000D03*
X153585000Y-187579000D03*
D54*
X135890000Y-181356000D03*
D55*
X135890000Y-178816000D03*
X135890000Y-176276000D03*
D56*
X161925000Y-176878000D03*
X158845000Y-176878000D03*
X161925000Y-176478000D03*
X158845000Y-176478000D03*
X161925000Y-176078000D03*
X158845000Y-176078000D03*
X161925000Y-175678000D03*
X158845000Y-175678000D03*
X161925000Y-175278000D03*
X158845000Y-175278000D03*
X161925000Y-174878000D03*
X158845000Y-174878000D03*
X161925000Y-174478000D03*
X158845000Y-174478000D03*
X161925000Y-174078000D03*
X158845000Y-174078000D03*
X161925000Y-173678000D03*
X158845000Y-173678000D03*
X161925000Y-173278000D03*
X158845000Y-173278000D03*
X161925000Y-172878000D03*
X158845000Y-172878000D03*
X161925000Y-172478000D03*
X158845000Y-172478000D03*
X161925000Y-172078000D03*
X158845000Y-172078000D03*
X161925000Y-171678000D03*
X158845000Y-171678000D03*
X161925000Y-171278000D03*
X158845000Y-171278000D03*
X161925000Y-170878000D03*
X158845000Y-170878000D03*
X161925000Y-170478000D03*
X158845000Y-170478000D03*
X161925000Y-170078000D03*
X158845000Y-170078000D03*
X161925000Y-169678000D03*
X158845000Y-169678000D03*
X161925000Y-169278000D03*
X158845000Y-169278000D03*
X161925000Y-168878000D03*
X158845000Y-168878000D03*
X161925000Y-168478000D03*
X158845000Y-168478000D03*
X161925000Y-168078000D03*
X158845000Y-168078000D03*
X161925000Y-167678000D03*
X158845000Y-167678000D03*
X161925000Y-167278000D03*
X158845000Y-167278000D03*
X161925000Y-166878000D03*
X158845000Y-166878000D03*
X161925000Y-166478000D03*
X158845000Y-166478000D03*
X161925000Y-166078000D03*
X158845000Y-166078000D03*
X161925000Y-165678000D03*
X158845000Y-165678000D03*
X161925000Y-165278000D03*
X158845000Y-165278000D03*
X161925000Y-164878000D03*
X158845000Y-164878000D03*
X161925000Y-164478000D03*
X158845000Y-164478000D03*
X161925000Y-164078000D03*
X158845000Y-164078000D03*
X161925000Y-163678000D03*
X158845000Y-163678000D03*
X161925000Y-163278000D03*
X158845000Y-163278000D03*
D18*
X149564000Y-173101000D03*
X150664000Y-173101000D03*
D11*
X144329000Y-78097000D03*
X141929000Y-78097000D03*
D12*
X146329000Y-80597000D03*
X139929000Y-80597000D03*
D13*
X144429000Y-80772000D03*
X143779000Y-80772000D03*
X143129000Y-80772000D03*
X142479000Y-80772000D03*
X141829000Y-80772000D03*
D14*
X146304000Y-78097000D03*
X139954000Y-78097000D03*
D15*
X154432000Y-100161000D03*
X154432000Y-101261000D03*
X157480000Y-95927000D03*
X157480000Y-94827000D03*
D16*
X137102000Y-99187000D03*
X136202000Y-99187000D03*
D17*
X136238000Y-108839000D03*
X141638000Y-108839000D03*
X136238000Y-107569000D03*
X141638000Y-107569000D03*
X136238000Y-106299000D03*
X141638000Y-106299000D03*
X136238000Y-105029000D03*
X141638000Y-105029000D03*
X136238000Y-103759000D03*
X141638000Y-103759000D03*
X136238000Y-102489000D03*
X141638000Y-102489000D03*
X136238000Y-101219000D03*
X141638000Y-101219000D03*
D15*
X139065000Y-111083000D03*
X139065000Y-112183000D03*
D18*
X145119000Y-108839000D03*
X146219000Y-108839000D03*
D19*
X144730000Y-131064000D03*
X143510000Y-131064000D03*
D20*
X144120000Y-132584000D03*
D21*
X147353000Y-131110500D03*
X148303000Y-131110500D03*
D22*
X147828000Y-132588000D03*
D23*
X152958000Y-130739000D03*
D24*
X152909000Y-133476000D03*
X154939000Y-133476000D03*
D23*
X154890000Y-130739000D03*
D25*
X153924000Y-130739000D03*
D26*
X153924000Y-132842000D03*
D16*
X167023200Y-109067600D03*
X166123200Y-109067600D03*
X165804000Y-102946200D03*
X164904000Y-102946200D03*
X167048600Y-111810800D03*
X166148600Y-111810800D03*
D27*
X166617200Y-105594600D03*
X165767200Y-105594600D03*
X166617200Y-106444600D03*
X165767200Y-106444600D03*
D28*
X135890000Y-124206000D03*
D29*
X135890000Y-121666000D03*
D16*
X165920000Y-97790000D03*
X166820000Y-97790000D03*
D30*
X149987000Y-81545000D03*
X149987000Y-80645000D03*
D16*
X150045000Y-92710000D03*
X150945000Y-92710000D03*
D31*
X165817000Y-80518000D03*
X164717000Y-80518000D03*
X163617000Y-80518000D03*
X162517000Y-80518000D03*
X161417000Y-80518000D03*
X160317000Y-80518000D03*
X159217000Y-80518000D03*
X158117000Y-80518000D03*
D32*
X166707000Y-78468000D03*
D33*
X153387000Y-78218000D03*
D34*
X167032000Y-85098000D03*
D35*
X153107000Y-86193000D03*
D36*
X167032000Y-90178000D03*
D37*
X153132000Y-92118000D03*
D38*
X166807000Y-91683000D03*
D39*
X166782000Y-92343000D03*
D40*
X154727400Y-97617800D03*
X154727400Y-96967800D03*
X154727400Y-96317800D03*
X154727400Y-95667800D03*
D41*
X153852400Y-94792800D03*
D40*
X151027400Y-97617800D03*
D41*
X153852400Y-98492800D03*
X153202400Y-94792800D03*
X152552400Y-94792800D03*
X151902400Y-94792800D03*
D40*
X151027400Y-96967800D03*
X151027400Y-96317800D03*
X151027400Y-95667800D03*
D41*
X153202400Y-98492800D03*
X152552400Y-98492800D03*
X151902400Y-98492800D03*
D42*
X136055100Y-83919060D03*
D43*
X141605000Y-86268560D03*
X141605000Y-88265000D03*
D42*
X136055100Y-90614500D03*
D44*
X149097000Y-87376000D03*
X145797000Y-89876000D03*
X145797000Y-84876000D03*
D30*
X154051000Y-109811400D03*
X154051000Y-110711400D03*
D45*
X136713000Y-130683000D03*
X135763000Y-130683000D03*
X134813000Y-130683000D03*
X134813000Y-133033000D03*
X136713000Y-133033000D03*
D46*
X141240000Y-117855000D03*
X141240000Y-120905000D03*
X141740000Y-117855000D03*
X141740000Y-120905000D03*
X142240000Y-117855000D03*
X142240000Y-120905000D03*
X142740000Y-117855000D03*
X142740000Y-120905000D03*
X143240000Y-117855000D03*
X143240000Y-120905000D03*
D47*
X152146000Y-117348000D03*
X149225000Y-127762000D03*
X145923000Y-127762000D03*
X145669000Y-113030000D03*
X147447000Y-106934000D03*
X140970000Y-112649000D03*
X155448000Y-125222000D03*
D48*
X153929000Y-117348000D03*
X155829000Y-117348000D03*
X154879000Y-115198000D03*
D49*
X148560000Y-122682000D03*
X149210000Y-122682000D03*
X149860000Y-122682000D03*
X150510000Y-122682000D03*
X150510000Y-120092000D03*
X149860000Y-120092000D03*
X149210000Y-120092000D03*
X148560000Y-120092000D03*
D50*
X147579000Y-110348000D03*
X147579000Y-110998000D03*
X147579000Y-111648000D03*
X149479000Y-111648000D03*
X149479000Y-110348000D03*
D51*
X145201600Y-97739200D03*
X146151600Y-97739200D03*
X147101600Y-97739200D03*
X147101600Y-94939200D03*
X145201600Y-94939200D03*
D16*
X152712000Y-119253000D03*
X153612000Y-119253000D03*
X149283000Y-117856000D03*
X150183000Y-117856000D03*
X147516000Y-125730000D03*
X146616000Y-125730000D03*
D30*
X144907000Y-111321000D03*
X144907000Y-110421000D03*
D16*
X150183000Y-125730000D03*
X149283000Y-125730000D03*
D30*
X143256000Y-111564000D03*
X143256000Y-112464000D03*
X147574000Y-114369000D03*
X147574000Y-113469000D03*
D16*
X145727000Y-122682000D03*
X146627000Y-122682000D03*
X147516000Y-116332000D03*
X146616000Y-116332000D03*
X143452000Y-94869000D03*
X142552000Y-94869000D03*
X137102000Y-95250000D03*
X136202000Y-95250000D03*
D18*
X136229000Y-93345000D03*
X137329000Y-93345000D03*
D52*
X138950000Y-133604000D03*
X140450000Y-133604000D03*
D15*
X152781000Y-115612000D03*
X152781000Y-114512000D03*
D52*
X136767000Y-128143000D03*
X135267000Y-128143000D03*
D18*
X139996000Y-130683000D03*
X138896000Y-130683000D03*
D53*
X150622000Y-114669000D03*
X150622000Y-113169000D03*
D15*
X150749000Y-132165000D03*
X150749000Y-133265000D03*
D18*
X143341000Y-114681000D03*
X144441000Y-114681000D03*
X152485000Y-121412000D03*
X153585000Y-121412000D03*
X141774000Y-114681000D03*
X140674000Y-114681000D03*
X143341000Y-116205000D03*
X144441000Y-116205000D03*
X141774000Y-116205000D03*
X140674000Y-116205000D03*
X150410000Y-116332000D03*
X149310000Y-116332000D03*
X155914000Y-120142000D03*
X157014000Y-120142000D03*
X147235000Y-120142000D03*
X146135000Y-120142000D03*
D52*
X149606000Y-107188000D03*
X151106000Y-107188000D03*
X147181000Y-118364000D03*
X145681000Y-118364000D03*
D15*
X145034000Y-124672000D03*
X145034000Y-125772000D03*
X139065000Y-119846000D03*
X139065000Y-120946000D03*
D18*
X153712000Y-112522000D03*
X152612000Y-112522000D03*
X151977000Y-125730000D03*
X153077000Y-125730000D03*
X147108000Y-99695000D03*
X146008000Y-99695000D03*
X147218400Y-92811600D03*
X146118400Y-92811600D03*
X156125000Y-128270000D03*
X155025000Y-128270000D03*
X152485000Y-123444000D03*
X153585000Y-123444000D03*
D54*
X135890000Y-117221000D03*
D55*
X135890000Y-114681000D03*
X135890000Y-112141000D03*
D56*
X161925000Y-112743000D03*
X158845000Y-112743000D03*
X161925000Y-112343000D03*
X158845000Y-112343000D03*
X161925000Y-111943000D03*
X158845000Y-111943000D03*
X161925000Y-111543000D03*
X158845000Y-111543000D03*
X161925000Y-111143000D03*
X158845000Y-111143000D03*
X161925000Y-110743000D03*
X158845000Y-110743000D03*
X161925000Y-110343000D03*
X158845000Y-110343000D03*
X161925000Y-109943000D03*
X158845000Y-109943000D03*
X161925000Y-109543000D03*
X158845000Y-109543000D03*
X161925000Y-109143000D03*
X158845000Y-109143000D03*
X161925000Y-108743000D03*
X158845000Y-108743000D03*
X161925000Y-108343000D03*
X158845000Y-108343000D03*
X161925000Y-107943000D03*
X158845000Y-107943000D03*
X161925000Y-107543000D03*
X158845000Y-107543000D03*
X161925000Y-107143000D03*
X158845000Y-107143000D03*
X161925000Y-106743000D03*
X158845000Y-106743000D03*
X161925000Y-106343000D03*
X158845000Y-106343000D03*
X161925000Y-105943000D03*
X158845000Y-105943000D03*
X161925000Y-105543000D03*
X158845000Y-105543000D03*
X161925000Y-105143000D03*
X158845000Y-105143000D03*
X161925000Y-104743000D03*
X158845000Y-104743000D03*
X161925000Y-104343000D03*
X158845000Y-104343000D03*
X161925000Y-103943000D03*
X158845000Y-103943000D03*
X161925000Y-103543000D03*
X158845000Y-103543000D03*
X161925000Y-103143000D03*
X158845000Y-103143000D03*
X161925000Y-102743000D03*
X158845000Y-102743000D03*
X161925000Y-102343000D03*
X158845000Y-102343000D03*
X161925000Y-101943000D03*
X158845000Y-101943000D03*
X161925000Y-101543000D03*
X158845000Y-101543000D03*
X161925000Y-101143000D03*
X158845000Y-101143000D03*
X161925000Y-100743000D03*
X158845000Y-100743000D03*
X161925000Y-100343000D03*
X158845000Y-100343000D03*
X161925000Y-99943000D03*
X158845000Y-99943000D03*
X161925000Y-99543000D03*
X158845000Y-99543000D03*
X161925000Y-99143000D03*
X158845000Y-99143000D03*
D18*
X149564000Y-108966000D03*
X150664000Y-108966000D03*
D11*
X144329000Y-13962000D03*
X141929000Y-13962000D03*
D12*
X146329000Y-16462000D03*
X139929000Y-16462000D03*
D13*
X144429000Y-16637000D03*
X143779000Y-16637000D03*
X143129000Y-16637000D03*
X142479000Y-16637000D03*
X141829000Y-16637000D03*
D14*
X146304000Y-13962000D03*
X139954000Y-13962000D03*
D15*
X154432000Y-36026000D03*
X154432000Y-37126000D03*
X157480000Y-31792000D03*
X157480000Y-30692000D03*
D16*
X137102000Y-35052000D03*
X136202000Y-35052000D03*
D17*
X136238000Y-44704000D03*
X141638000Y-44704000D03*
X136238000Y-43434000D03*
X141638000Y-43434000D03*
X136238000Y-42164000D03*
X141638000Y-42164000D03*
X136238000Y-40894000D03*
X141638000Y-40894000D03*
X136238000Y-39624000D03*
X141638000Y-39624000D03*
X136238000Y-38354000D03*
X141638000Y-38354000D03*
X136238000Y-37084000D03*
X141638000Y-37084000D03*
D15*
X139065000Y-46948000D03*
X139065000Y-48048000D03*
D18*
X145119000Y-44704000D03*
X146219000Y-44704000D03*
D19*
X144730000Y-66929000D03*
X143510000Y-66929000D03*
D20*
X144120000Y-68449000D03*
D21*
X147353000Y-66975500D03*
X148303000Y-66975500D03*
D22*
X147828000Y-68453000D03*
D23*
X152958000Y-66604000D03*
D24*
X152909000Y-69341000D03*
X154939000Y-69341000D03*
D23*
X154890000Y-66604000D03*
D25*
X153924000Y-66604000D03*
D26*
X153924000Y-68707000D03*
D16*
X167023200Y-44932600D03*
X166123200Y-44932600D03*
X165804000Y-38811200D03*
X164904000Y-38811200D03*
X167048600Y-47675800D03*
X166148600Y-47675800D03*
D27*
X166617200Y-41459600D03*
X165767200Y-41459600D03*
X166617200Y-42309600D03*
X165767200Y-42309600D03*
D28*
X135890000Y-60071000D03*
D29*
X135890000Y-57531000D03*
D16*
X165920000Y-33655000D03*
X166820000Y-33655000D03*
D30*
X149987000Y-17410000D03*
X149987000Y-16510000D03*
D16*
X150045000Y-28575000D03*
X150945000Y-28575000D03*
D31*
X165817000Y-16383000D03*
X164717000Y-16383000D03*
X163617000Y-16383000D03*
X162517000Y-16383000D03*
X161417000Y-16383000D03*
X160317000Y-16383000D03*
X159217000Y-16383000D03*
X158117000Y-16383000D03*
D32*
X166707000Y-14333000D03*
D33*
X153387000Y-14083000D03*
D34*
X167032000Y-20963000D03*
D35*
X153107000Y-22058000D03*
D36*
X167032000Y-26043000D03*
D37*
X153132000Y-27983000D03*
D38*
X166807000Y-27548000D03*
D39*
X166782000Y-28208000D03*
D40*
X154727400Y-33482800D03*
X154727400Y-32832800D03*
X154727400Y-32182800D03*
X154727400Y-31532800D03*
D41*
X153852400Y-30657800D03*
D40*
X151027400Y-33482800D03*
D41*
X153852400Y-34357800D03*
X153202400Y-30657800D03*
X152552400Y-30657800D03*
X151902400Y-30657800D03*
D40*
X151027400Y-32832800D03*
X151027400Y-32182800D03*
X151027400Y-31532800D03*
D41*
X153202400Y-34357800D03*
X152552400Y-34357800D03*
X151902400Y-34357800D03*
D42*
X136055100Y-19784060D03*
D43*
X141605000Y-22133560D03*
X141605000Y-24130000D03*
D42*
X136055100Y-26479500D03*
D44*
X149097000Y-23241000D03*
X145797000Y-25741000D03*
X145797000Y-20741000D03*
D30*
X154051000Y-45676400D03*
X154051000Y-46576400D03*
D45*
X136713000Y-66548000D03*
X135763000Y-66548000D03*
X134813000Y-66548000D03*
X134813000Y-68898000D03*
X136713000Y-68898000D03*
D46*
X141240000Y-53720000D03*
X141240000Y-56770000D03*
X141740000Y-53720000D03*
X141740000Y-56770000D03*
X142240000Y-53720000D03*
X142240000Y-56770000D03*
X142740000Y-53720000D03*
X142740000Y-56770000D03*
X143240000Y-53720000D03*
X143240000Y-56770000D03*
D47*
X152146000Y-53213000D03*
X149225000Y-63627000D03*
X145923000Y-63627000D03*
X145669000Y-48895000D03*
X147447000Y-42799000D03*
X140970000Y-48514000D03*
X155448000Y-61087000D03*
D48*
X153929000Y-53213000D03*
X155829000Y-53213000D03*
X154879000Y-51063000D03*
D49*
X148560000Y-58547000D03*
X149210000Y-58547000D03*
X149860000Y-58547000D03*
X150510000Y-58547000D03*
X150510000Y-55957000D03*
X149860000Y-55957000D03*
X149210000Y-55957000D03*
X148560000Y-55957000D03*
D50*
X147579000Y-46213000D03*
X147579000Y-46863000D03*
X147579000Y-47513000D03*
X149479000Y-47513000D03*
X149479000Y-46213000D03*
D51*
X145201600Y-33604200D03*
X146151600Y-33604200D03*
X147101600Y-33604200D03*
X147101600Y-30804200D03*
X145201600Y-30804200D03*
D16*
X152712000Y-55118000D03*
X153612000Y-55118000D03*
X149283000Y-53721000D03*
X150183000Y-53721000D03*
X147516000Y-61595000D03*
X146616000Y-61595000D03*
D30*
X144907000Y-47186000D03*
X144907000Y-46286000D03*
D16*
X150183000Y-61595000D03*
X149283000Y-61595000D03*
D30*
X143256000Y-47429000D03*
X143256000Y-48329000D03*
X147574000Y-50234000D03*
X147574000Y-49334000D03*
D16*
X145727000Y-58547000D03*
X146627000Y-58547000D03*
X147516000Y-52197000D03*
X146616000Y-52197000D03*
X143452000Y-30734000D03*
X142552000Y-30734000D03*
X137102000Y-31115000D03*
X136202000Y-31115000D03*
D18*
X136229000Y-29210000D03*
X137329000Y-29210000D03*
D52*
X138950000Y-69469000D03*
X140450000Y-69469000D03*
D15*
X152781000Y-51477000D03*
X152781000Y-50377000D03*
D52*
X136767000Y-64008000D03*
X135267000Y-64008000D03*
D18*
X139996000Y-66548000D03*
X138896000Y-66548000D03*
D53*
X150622000Y-50534000D03*
X150622000Y-49034000D03*
D15*
X150749000Y-68030000D03*
X150749000Y-69130000D03*
D18*
X143341000Y-50546000D03*
X144441000Y-50546000D03*
X152485000Y-57277000D03*
X153585000Y-57277000D03*
X141774000Y-50546000D03*
X140674000Y-50546000D03*
X143341000Y-52070000D03*
X144441000Y-52070000D03*
X141774000Y-52070000D03*
X140674000Y-52070000D03*
X150410000Y-52197000D03*
X149310000Y-52197000D03*
X155914000Y-56007000D03*
X157014000Y-56007000D03*
X147235000Y-56007000D03*
X146135000Y-56007000D03*
D52*
X149606000Y-43053000D03*
X151106000Y-43053000D03*
X147181000Y-54229000D03*
X145681000Y-54229000D03*
D15*
X145034000Y-60537000D03*
X145034000Y-61637000D03*
X139065000Y-55711000D03*
X139065000Y-56811000D03*
D18*
X153712000Y-48387000D03*
X152612000Y-48387000D03*
X151977000Y-61595000D03*
X153077000Y-61595000D03*
X147108000Y-35560000D03*
X146008000Y-35560000D03*
X147218400Y-28676600D03*
X146118400Y-28676600D03*
X156125000Y-64135000D03*
X155025000Y-64135000D03*
X152485000Y-59309000D03*
X153585000Y-59309000D03*
D54*
X135890000Y-53086000D03*
D55*
X135890000Y-50546000D03*
X135890000Y-48006000D03*
D56*
X161925000Y-48608000D03*
X158845000Y-48608000D03*
X161925000Y-48208000D03*
X158845000Y-48208000D03*
X161925000Y-47808000D03*
X158845000Y-47808000D03*
X161925000Y-47408000D03*
X158845000Y-47408000D03*
X161925000Y-47008000D03*
X158845000Y-47008000D03*
X161925000Y-46608000D03*
X158845000Y-46608000D03*
X161925000Y-46208000D03*
X158845000Y-46208000D03*
X161925000Y-45808000D03*
X158845000Y-45808000D03*
X161925000Y-45408000D03*
X158845000Y-45408000D03*
X161925000Y-45008000D03*
X158845000Y-45008000D03*
X161925000Y-44608000D03*
X158845000Y-44608000D03*
X161925000Y-44208000D03*
X158845000Y-44208000D03*
X161925000Y-43808000D03*
X158845000Y-43808000D03*
X161925000Y-43408000D03*
X158845000Y-43408000D03*
X161925000Y-43008000D03*
X158845000Y-43008000D03*
X161925000Y-42608000D03*
X158845000Y-42608000D03*
X161925000Y-42208000D03*
X158845000Y-42208000D03*
X161925000Y-41808000D03*
X158845000Y-41808000D03*
X161925000Y-41408000D03*
X158845000Y-41408000D03*
X161925000Y-41008000D03*
X158845000Y-41008000D03*
X161925000Y-40608000D03*
X158845000Y-40608000D03*
X161925000Y-40208000D03*
X158845000Y-40208000D03*
X161925000Y-39808000D03*
X158845000Y-39808000D03*
X161925000Y-39408000D03*
X158845000Y-39408000D03*
X161925000Y-39008000D03*
X158845000Y-39008000D03*
X161925000Y-38608000D03*
X158845000Y-38608000D03*
X161925000Y-38208000D03*
X158845000Y-38208000D03*
X161925000Y-37808000D03*
X158845000Y-37808000D03*
X161925000Y-37408000D03*
X158845000Y-37408000D03*
X161925000Y-37008000D03*
X158845000Y-37008000D03*
X161925000Y-36608000D03*
X158845000Y-36608000D03*
X161925000Y-36208000D03*
X158845000Y-36208000D03*
X161925000Y-35808000D03*
X158845000Y-35808000D03*
X161925000Y-35408000D03*
X158845000Y-35408000D03*
X161925000Y-35008000D03*
X158845000Y-35008000D03*
D18*
X149564000Y-44831000D03*
X150664000Y-44831000D03*
D11*
X104070000Y-206367000D03*
X101670000Y-206367000D03*
D12*
X106070000Y-208867000D03*
X99670000Y-208867000D03*
D13*
X104170000Y-209042000D03*
X103520000Y-209042000D03*
X102870000Y-209042000D03*
X102220000Y-209042000D03*
X101570000Y-209042000D03*
D14*
X106045000Y-206367000D03*
X99695000Y-206367000D03*
D15*
X114173000Y-228431000D03*
X114173000Y-229531000D03*
X117221000Y-224197000D03*
X117221000Y-223097000D03*
D16*
X96843000Y-227457000D03*
X95943000Y-227457000D03*
D17*
X95979000Y-237109000D03*
X101379000Y-237109000D03*
X95979000Y-235839000D03*
X101379000Y-235839000D03*
X95979000Y-234569000D03*
X101379000Y-234569000D03*
X95979000Y-233299000D03*
X101379000Y-233299000D03*
X95979000Y-232029000D03*
X101379000Y-232029000D03*
X95979000Y-230759000D03*
X101379000Y-230759000D03*
X95979000Y-229489000D03*
X101379000Y-229489000D03*
D15*
X98806000Y-239353000D03*
X98806000Y-240453000D03*
D18*
X104860000Y-237109000D03*
X105960000Y-237109000D03*
D19*
X104471000Y-259334000D03*
X103251000Y-259334000D03*
D20*
X103861000Y-260854000D03*
D21*
X107094000Y-259380500D03*
X108044000Y-259380500D03*
D22*
X107569000Y-260858000D03*
D23*
X112699000Y-259009000D03*
D24*
X112650000Y-261746000D03*
X114680000Y-261746000D03*
D23*
X114631000Y-259009000D03*
D25*
X113665000Y-259009000D03*
D26*
X113665000Y-261112000D03*
D16*
X126764200Y-237337600D03*
X125864200Y-237337600D03*
X125545000Y-231216200D03*
X124645000Y-231216200D03*
X126789600Y-240080800D03*
X125889600Y-240080800D03*
D27*
X126358200Y-233864600D03*
X125508200Y-233864600D03*
X126358200Y-234714600D03*
X125508200Y-234714600D03*
D28*
X95631000Y-252476000D03*
D29*
X95631000Y-249936000D03*
D16*
X125661000Y-226060000D03*
X126561000Y-226060000D03*
D30*
X109728000Y-209815000D03*
X109728000Y-208915000D03*
D16*
X109786000Y-220980000D03*
X110686000Y-220980000D03*
D31*
X125558000Y-208788000D03*
X124458000Y-208788000D03*
X123358000Y-208788000D03*
X122258000Y-208788000D03*
X121158000Y-208788000D03*
X120058000Y-208788000D03*
X118958000Y-208788000D03*
X117858000Y-208788000D03*
D32*
X126448000Y-206738000D03*
D33*
X113128000Y-206488000D03*
D34*
X126773000Y-213368000D03*
D35*
X112848000Y-214463000D03*
D36*
X126773000Y-218448000D03*
D37*
X112873000Y-220388000D03*
D38*
X126548000Y-219953000D03*
D39*
X126523000Y-220613000D03*
D40*
X114468400Y-225887800D03*
X114468400Y-225237800D03*
X114468400Y-224587800D03*
X114468400Y-223937800D03*
D41*
X113593400Y-223062800D03*
D40*
X110768400Y-225887800D03*
D41*
X113593400Y-226762800D03*
X112943400Y-223062800D03*
X112293400Y-223062800D03*
X111643400Y-223062800D03*
D40*
X110768400Y-225237800D03*
X110768400Y-224587800D03*
X110768400Y-223937800D03*
D41*
X112943400Y-226762800D03*
X112293400Y-226762800D03*
X111643400Y-226762800D03*
D42*
X95796100Y-212189060D03*
D43*
X101346000Y-214538560D03*
X101346000Y-216535000D03*
D42*
X95796100Y-218884500D03*
D44*
X108838000Y-215646000D03*
X105538000Y-218146000D03*
X105538000Y-213146000D03*
D30*
X113792000Y-238081400D03*
X113792000Y-238981400D03*
D45*
X96454000Y-258953000D03*
X95504000Y-258953000D03*
X94554000Y-258953000D03*
X94554000Y-261303000D03*
X96454000Y-261303000D03*
D46*
X100981000Y-246125000D03*
X100981000Y-249175000D03*
X101481000Y-246125000D03*
X101481000Y-249175000D03*
X101981000Y-246125000D03*
X101981000Y-249175000D03*
X102481000Y-246125000D03*
X102481000Y-249175000D03*
X102981000Y-246125000D03*
X102981000Y-249175000D03*
D47*
X111887000Y-245618000D03*
X108966000Y-256032000D03*
X105664000Y-256032000D03*
X105410000Y-241300000D03*
X107188000Y-235204000D03*
X100711000Y-240919000D03*
X115189000Y-253492000D03*
D48*
X113670000Y-245618000D03*
X115570000Y-245618000D03*
X114620000Y-243468000D03*
D49*
X108301000Y-250952000D03*
X108951000Y-250952000D03*
X109601000Y-250952000D03*
X110251000Y-250952000D03*
X110251000Y-248362000D03*
X109601000Y-248362000D03*
X108951000Y-248362000D03*
X108301000Y-248362000D03*
D50*
X107320000Y-238618000D03*
X107320000Y-239268000D03*
X107320000Y-239918000D03*
X109220000Y-239918000D03*
X109220000Y-238618000D03*
D51*
X104942600Y-226009200D03*
X105892600Y-226009200D03*
X106842600Y-226009200D03*
X106842600Y-223209200D03*
X104942600Y-223209200D03*
D16*
X112453000Y-247523000D03*
X113353000Y-247523000D03*
X109024000Y-246126000D03*
X109924000Y-246126000D03*
X107257000Y-254000000D03*
X106357000Y-254000000D03*
D30*
X104648000Y-239591000D03*
X104648000Y-238691000D03*
D16*
X109924000Y-254000000D03*
X109024000Y-254000000D03*
D30*
X102997000Y-239834000D03*
X102997000Y-240734000D03*
X107315000Y-242639000D03*
X107315000Y-241739000D03*
D16*
X105468000Y-250952000D03*
X106368000Y-250952000D03*
X107257000Y-244602000D03*
X106357000Y-244602000D03*
X103193000Y-223139000D03*
X102293000Y-223139000D03*
X96843000Y-223520000D03*
X95943000Y-223520000D03*
D18*
X95970000Y-221615000D03*
X97070000Y-221615000D03*
D52*
X98691000Y-261874000D03*
X100191000Y-261874000D03*
D15*
X112522000Y-243882000D03*
X112522000Y-242782000D03*
D52*
X96508000Y-256413000D03*
X95008000Y-256413000D03*
D18*
X99737000Y-258953000D03*
X98637000Y-258953000D03*
D53*
X110363000Y-242939000D03*
X110363000Y-241439000D03*
D15*
X110490000Y-260435000D03*
X110490000Y-261535000D03*
D18*
X103082000Y-242951000D03*
X104182000Y-242951000D03*
X112226000Y-249682000D03*
X113326000Y-249682000D03*
X101515000Y-242951000D03*
X100415000Y-242951000D03*
X103082000Y-244475000D03*
X104182000Y-244475000D03*
X101515000Y-244475000D03*
X100415000Y-244475000D03*
X110151000Y-244602000D03*
X109051000Y-244602000D03*
X115655000Y-248412000D03*
X116755000Y-248412000D03*
X106976000Y-248412000D03*
X105876000Y-248412000D03*
D52*
X109347000Y-235458000D03*
X110847000Y-235458000D03*
X106922000Y-246634000D03*
X105422000Y-246634000D03*
D15*
X104775000Y-252942000D03*
X104775000Y-254042000D03*
X98806000Y-248116000D03*
X98806000Y-249216000D03*
D18*
X113453000Y-240792000D03*
X112353000Y-240792000D03*
X111718000Y-254000000D03*
X112818000Y-254000000D03*
X106849000Y-227965000D03*
X105749000Y-227965000D03*
X106959400Y-221081600D03*
X105859400Y-221081600D03*
X115866000Y-256540000D03*
X114766000Y-256540000D03*
X112226000Y-251714000D03*
X113326000Y-251714000D03*
D54*
X95631000Y-245491000D03*
D55*
X95631000Y-242951000D03*
X95631000Y-240411000D03*
D56*
X121666000Y-241013000D03*
X118586000Y-241013000D03*
X121666000Y-240613000D03*
X118586000Y-240613000D03*
X121666000Y-240213000D03*
X118586000Y-240213000D03*
X121666000Y-239813000D03*
X118586000Y-239813000D03*
X121666000Y-239413000D03*
X118586000Y-239413000D03*
X121666000Y-239013000D03*
X118586000Y-239013000D03*
X121666000Y-238613000D03*
X118586000Y-238613000D03*
X121666000Y-238213000D03*
X118586000Y-238213000D03*
X121666000Y-237813000D03*
X118586000Y-237813000D03*
X121666000Y-237413000D03*
X118586000Y-237413000D03*
X121666000Y-237013000D03*
X118586000Y-237013000D03*
X121666000Y-236613000D03*
X118586000Y-236613000D03*
X121666000Y-236213000D03*
X118586000Y-236213000D03*
X121666000Y-235813000D03*
X118586000Y-235813000D03*
X121666000Y-235413000D03*
X118586000Y-235413000D03*
X121666000Y-235013000D03*
X118586000Y-235013000D03*
X121666000Y-234613000D03*
X118586000Y-234613000D03*
X121666000Y-234213000D03*
X118586000Y-234213000D03*
X121666000Y-233813000D03*
X118586000Y-233813000D03*
X121666000Y-233413000D03*
X118586000Y-233413000D03*
X121666000Y-233013000D03*
X118586000Y-233013000D03*
X121666000Y-232613000D03*
X118586000Y-232613000D03*
X121666000Y-232213000D03*
X118586000Y-232213000D03*
X121666000Y-231813000D03*
X118586000Y-231813000D03*
X121666000Y-231413000D03*
X118586000Y-231413000D03*
X121666000Y-231013000D03*
X118586000Y-231013000D03*
X121666000Y-230613000D03*
X118586000Y-230613000D03*
X121666000Y-230213000D03*
X118586000Y-230213000D03*
X121666000Y-229813000D03*
X118586000Y-229813000D03*
X121666000Y-229413000D03*
X118586000Y-229413000D03*
X121666000Y-229013000D03*
X118586000Y-229013000D03*
X121666000Y-228613000D03*
X118586000Y-228613000D03*
X121666000Y-228213000D03*
X118586000Y-228213000D03*
X121666000Y-227813000D03*
X118586000Y-227813000D03*
X121666000Y-227413000D03*
X118586000Y-227413000D03*
D18*
X109305000Y-237236000D03*
X110405000Y-237236000D03*
D11*
X104070000Y-142232000D03*
X101670000Y-142232000D03*
D12*
X106070000Y-144732000D03*
X99670000Y-144732000D03*
D13*
X104170000Y-144907000D03*
X103520000Y-144907000D03*
X102870000Y-144907000D03*
X102220000Y-144907000D03*
X101570000Y-144907000D03*
D14*
X106045000Y-142232000D03*
X99695000Y-142232000D03*
D15*
X114173000Y-164296000D03*
X114173000Y-165396000D03*
X117221000Y-160062000D03*
X117221000Y-158962000D03*
D16*
X96843000Y-163322000D03*
X95943000Y-163322000D03*
D17*
X95979000Y-172974000D03*
X101379000Y-172974000D03*
X95979000Y-171704000D03*
X101379000Y-171704000D03*
X95979000Y-170434000D03*
X101379000Y-170434000D03*
X95979000Y-169164000D03*
X101379000Y-169164000D03*
X95979000Y-167894000D03*
X101379000Y-167894000D03*
X95979000Y-166624000D03*
X101379000Y-166624000D03*
X95979000Y-165354000D03*
X101379000Y-165354000D03*
D15*
X98806000Y-175218000D03*
X98806000Y-176318000D03*
D18*
X104860000Y-172974000D03*
X105960000Y-172974000D03*
D19*
X104471000Y-195199000D03*
X103251000Y-195199000D03*
D20*
X103861000Y-196719000D03*
D21*
X107094000Y-195245500D03*
X108044000Y-195245500D03*
D22*
X107569000Y-196723000D03*
D23*
X112699000Y-194874000D03*
D24*
X112650000Y-197611000D03*
X114680000Y-197611000D03*
D23*
X114631000Y-194874000D03*
D25*
X113665000Y-194874000D03*
D26*
X113665000Y-196977000D03*
D16*
X126764200Y-173202600D03*
X125864200Y-173202600D03*
X125545000Y-167081200D03*
X124645000Y-167081200D03*
X126789600Y-175945800D03*
X125889600Y-175945800D03*
D27*
X126358200Y-169729600D03*
X125508200Y-169729600D03*
X126358200Y-170579600D03*
X125508200Y-170579600D03*
D28*
X95631000Y-188341000D03*
D29*
X95631000Y-185801000D03*
D16*
X125661000Y-161925000D03*
X126561000Y-161925000D03*
D30*
X109728000Y-145680000D03*
X109728000Y-144780000D03*
D16*
X109786000Y-156845000D03*
X110686000Y-156845000D03*
D31*
X125558000Y-144653000D03*
X124458000Y-144653000D03*
X123358000Y-144653000D03*
X122258000Y-144653000D03*
X121158000Y-144653000D03*
X120058000Y-144653000D03*
X118958000Y-144653000D03*
X117858000Y-144653000D03*
D32*
X126448000Y-142603000D03*
D33*
X113128000Y-142353000D03*
D34*
X126773000Y-149233000D03*
D35*
X112848000Y-150328000D03*
D36*
X126773000Y-154313000D03*
D37*
X112873000Y-156253000D03*
D38*
X126548000Y-155818000D03*
D39*
X126523000Y-156478000D03*
D40*
X114468400Y-161752800D03*
X114468400Y-161102800D03*
X114468400Y-160452800D03*
X114468400Y-159802800D03*
D41*
X113593400Y-158927800D03*
D40*
X110768400Y-161752800D03*
D41*
X113593400Y-162627800D03*
X112943400Y-158927800D03*
X112293400Y-158927800D03*
X111643400Y-158927800D03*
D40*
X110768400Y-161102800D03*
X110768400Y-160452800D03*
X110768400Y-159802800D03*
D41*
X112943400Y-162627800D03*
X112293400Y-162627800D03*
X111643400Y-162627800D03*
D42*
X95796100Y-148054060D03*
D43*
X101346000Y-150403560D03*
X101346000Y-152400000D03*
D42*
X95796100Y-154749500D03*
D44*
X108838000Y-151511000D03*
X105538000Y-154011000D03*
X105538000Y-149011000D03*
D30*
X113792000Y-173946400D03*
X113792000Y-174846400D03*
D45*
X96454000Y-194818000D03*
X95504000Y-194818000D03*
X94554000Y-194818000D03*
X94554000Y-197168000D03*
X96454000Y-197168000D03*
D46*
X100981000Y-181990000D03*
X100981000Y-185040000D03*
X101481000Y-181990000D03*
X101481000Y-185040000D03*
X101981000Y-181990000D03*
X101981000Y-185040000D03*
X102481000Y-181990000D03*
X102481000Y-185040000D03*
X102981000Y-181990000D03*
X102981000Y-185040000D03*
D47*
X111887000Y-181483000D03*
X108966000Y-191897000D03*
X105664000Y-191897000D03*
X105410000Y-177165000D03*
X107188000Y-171069000D03*
X100711000Y-176784000D03*
X115189000Y-189357000D03*
D48*
X113670000Y-181483000D03*
X115570000Y-181483000D03*
X114620000Y-179333000D03*
D49*
X108301000Y-186817000D03*
X108951000Y-186817000D03*
X109601000Y-186817000D03*
X110251000Y-186817000D03*
X110251000Y-184227000D03*
X109601000Y-184227000D03*
X108951000Y-184227000D03*
X108301000Y-184227000D03*
D50*
X107320000Y-174483000D03*
X107320000Y-175133000D03*
X107320000Y-175783000D03*
X109220000Y-175783000D03*
X109220000Y-174483000D03*
D51*
X104942600Y-161874200D03*
X105892600Y-161874200D03*
X106842600Y-161874200D03*
X106842600Y-159074200D03*
X104942600Y-159074200D03*
D16*
X112453000Y-183388000D03*
X113353000Y-183388000D03*
X109024000Y-181991000D03*
X109924000Y-181991000D03*
X107257000Y-189865000D03*
X106357000Y-189865000D03*
D30*
X104648000Y-175456000D03*
X104648000Y-174556000D03*
D16*
X109924000Y-189865000D03*
X109024000Y-189865000D03*
D30*
X102997000Y-175699000D03*
X102997000Y-176599000D03*
X107315000Y-178504000D03*
X107315000Y-177604000D03*
D16*
X105468000Y-186817000D03*
X106368000Y-186817000D03*
X107257000Y-180467000D03*
X106357000Y-180467000D03*
X103193000Y-159004000D03*
X102293000Y-159004000D03*
X96843000Y-159385000D03*
X95943000Y-159385000D03*
D18*
X95970000Y-157480000D03*
X97070000Y-157480000D03*
D52*
X98691000Y-197739000D03*
X100191000Y-197739000D03*
D15*
X112522000Y-179747000D03*
X112522000Y-178647000D03*
D52*
X96508000Y-192278000D03*
X95008000Y-192278000D03*
D18*
X99737000Y-194818000D03*
X98637000Y-194818000D03*
D53*
X110363000Y-178804000D03*
X110363000Y-177304000D03*
D15*
X110490000Y-196300000D03*
X110490000Y-197400000D03*
D18*
X103082000Y-178816000D03*
X104182000Y-178816000D03*
X112226000Y-185547000D03*
X113326000Y-185547000D03*
X101515000Y-178816000D03*
X100415000Y-178816000D03*
X103082000Y-180340000D03*
X104182000Y-180340000D03*
X101515000Y-180340000D03*
X100415000Y-180340000D03*
X110151000Y-180467000D03*
X109051000Y-180467000D03*
X115655000Y-184277000D03*
X116755000Y-184277000D03*
X106976000Y-184277000D03*
X105876000Y-184277000D03*
D52*
X109347000Y-171323000D03*
X110847000Y-171323000D03*
X106922000Y-182499000D03*
X105422000Y-182499000D03*
D15*
X104775000Y-188807000D03*
X104775000Y-189907000D03*
X98806000Y-183981000D03*
X98806000Y-185081000D03*
D18*
X113453000Y-176657000D03*
X112353000Y-176657000D03*
X111718000Y-189865000D03*
X112818000Y-189865000D03*
X106849000Y-163830000D03*
X105749000Y-163830000D03*
X106959400Y-156946600D03*
X105859400Y-156946600D03*
X115866000Y-192405000D03*
X114766000Y-192405000D03*
X112226000Y-187579000D03*
X113326000Y-187579000D03*
D54*
X95631000Y-181356000D03*
D55*
X95631000Y-178816000D03*
X95631000Y-176276000D03*
D56*
X121666000Y-176878000D03*
X118586000Y-176878000D03*
X121666000Y-176478000D03*
X118586000Y-176478000D03*
X121666000Y-176078000D03*
X118586000Y-176078000D03*
X121666000Y-175678000D03*
X118586000Y-175678000D03*
X121666000Y-175278000D03*
X118586000Y-175278000D03*
X121666000Y-174878000D03*
X118586000Y-174878000D03*
X121666000Y-174478000D03*
X118586000Y-174478000D03*
X121666000Y-174078000D03*
X118586000Y-174078000D03*
X121666000Y-173678000D03*
X118586000Y-173678000D03*
X121666000Y-173278000D03*
X118586000Y-173278000D03*
X121666000Y-172878000D03*
X118586000Y-172878000D03*
X121666000Y-172478000D03*
X118586000Y-172478000D03*
X121666000Y-172078000D03*
X118586000Y-172078000D03*
X121666000Y-171678000D03*
X118586000Y-171678000D03*
X121666000Y-171278000D03*
X118586000Y-171278000D03*
X121666000Y-170878000D03*
X118586000Y-170878000D03*
X121666000Y-170478000D03*
X118586000Y-170478000D03*
X121666000Y-170078000D03*
X118586000Y-170078000D03*
X121666000Y-169678000D03*
X118586000Y-169678000D03*
X121666000Y-169278000D03*
X118586000Y-169278000D03*
X121666000Y-168878000D03*
X118586000Y-168878000D03*
X121666000Y-168478000D03*
X118586000Y-168478000D03*
X121666000Y-168078000D03*
X118586000Y-168078000D03*
X121666000Y-167678000D03*
X118586000Y-167678000D03*
X121666000Y-167278000D03*
X118586000Y-167278000D03*
X121666000Y-166878000D03*
X118586000Y-166878000D03*
X121666000Y-166478000D03*
X118586000Y-166478000D03*
X121666000Y-166078000D03*
X118586000Y-166078000D03*
X121666000Y-165678000D03*
X118586000Y-165678000D03*
X121666000Y-165278000D03*
X118586000Y-165278000D03*
X121666000Y-164878000D03*
X118586000Y-164878000D03*
X121666000Y-164478000D03*
X118586000Y-164478000D03*
X121666000Y-164078000D03*
X118586000Y-164078000D03*
X121666000Y-163678000D03*
X118586000Y-163678000D03*
X121666000Y-163278000D03*
X118586000Y-163278000D03*
D18*
X109305000Y-173101000D03*
X110405000Y-173101000D03*
D11*
X104070000Y-78097000D03*
X101670000Y-78097000D03*
D12*
X106070000Y-80597000D03*
X99670000Y-80597000D03*
D13*
X104170000Y-80772000D03*
X103520000Y-80772000D03*
X102870000Y-80772000D03*
X102220000Y-80772000D03*
X101570000Y-80772000D03*
D14*
X106045000Y-78097000D03*
X99695000Y-78097000D03*
D15*
X114173000Y-100161000D03*
X114173000Y-101261000D03*
X117221000Y-95927000D03*
X117221000Y-94827000D03*
D16*
X96843000Y-99187000D03*
X95943000Y-99187000D03*
D17*
X95979000Y-108839000D03*
X101379000Y-108839000D03*
X95979000Y-107569000D03*
X101379000Y-107569000D03*
X95979000Y-106299000D03*
X101379000Y-106299000D03*
X95979000Y-105029000D03*
X101379000Y-105029000D03*
X95979000Y-103759000D03*
X101379000Y-103759000D03*
X95979000Y-102489000D03*
X101379000Y-102489000D03*
X95979000Y-101219000D03*
X101379000Y-101219000D03*
D15*
X98806000Y-111083000D03*
X98806000Y-112183000D03*
D18*
X104860000Y-108839000D03*
X105960000Y-108839000D03*
D19*
X104471000Y-131064000D03*
X103251000Y-131064000D03*
D20*
X103861000Y-132584000D03*
D21*
X107094000Y-131110500D03*
X108044000Y-131110500D03*
D22*
X107569000Y-132588000D03*
D23*
X112699000Y-130739000D03*
D24*
X112650000Y-133476000D03*
X114680000Y-133476000D03*
D23*
X114631000Y-130739000D03*
D25*
X113665000Y-130739000D03*
D26*
X113665000Y-132842000D03*
D16*
X126764200Y-109067600D03*
X125864200Y-109067600D03*
X125545000Y-102946200D03*
X124645000Y-102946200D03*
X126789600Y-111810800D03*
X125889600Y-111810800D03*
D27*
X126358200Y-105594600D03*
X125508200Y-105594600D03*
X126358200Y-106444600D03*
X125508200Y-106444600D03*
D28*
X95631000Y-124206000D03*
D29*
X95631000Y-121666000D03*
D16*
X125661000Y-97790000D03*
X126561000Y-97790000D03*
D30*
X109728000Y-81545000D03*
X109728000Y-80645000D03*
D16*
X109786000Y-92710000D03*
X110686000Y-92710000D03*
D31*
X125558000Y-80518000D03*
X124458000Y-80518000D03*
X123358000Y-80518000D03*
X122258000Y-80518000D03*
X121158000Y-80518000D03*
X120058000Y-80518000D03*
X118958000Y-80518000D03*
X117858000Y-80518000D03*
D32*
X126448000Y-78468000D03*
D33*
X113128000Y-78218000D03*
D34*
X126773000Y-85098000D03*
D35*
X112848000Y-86193000D03*
D36*
X126773000Y-90178000D03*
D37*
X112873000Y-92118000D03*
D38*
X126548000Y-91683000D03*
D39*
X126523000Y-92343000D03*
D40*
X114468400Y-97617800D03*
X114468400Y-96967800D03*
X114468400Y-96317800D03*
X114468400Y-95667800D03*
D41*
X113593400Y-94792800D03*
D40*
X110768400Y-97617800D03*
D41*
X113593400Y-98492800D03*
X112943400Y-94792800D03*
X112293400Y-94792800D03*
X111643400Y-94792800D03*
D40*
X110768400Y-96967800D03*
X110768400Y-96317800D03*
X110768400Y-95667800D03*
D41*
X112943400Y-98492800D03*
X112293400Y-98492800D03*
X111643400Y-98492800D03*
D42*
X95796100Y-83919060D03*
D43*
X101346000Y-86268560D03*
X101346000Y-88265000D03*
D42*
X95796100Y-90614500D03*
D44*
X108838000Y-87376000D03*
X105538000Y-89876000D03*
X105538000Y-84876000D03*
D30*
X113792000Y-109811400D03*
X113792000Y-110711400D03*
D45*
X96454000Y-130683000D03*
X95504000Y-130683000D03*
X94554000Y-130683000D03*
X94554000Y-133033000D03*
X96454000Y-133033000D03*
D46*
X100981000Y-117855000D03*
X100981000Y-120905000D03*
X101481000Y-117855000D03*
X101481000Y-120905000D03*
X101981000Y-117855000D03*
X101981000Y-120905000D03*
X102481000Y-117855000D03*
X102481000Y-120905000D03*
X102981000Y-117855000D03*
X102981000Y-120905000D03*
D47*
X111887000Y-117348000D03*
X108966000Y-127762000D03*
X105664000Y-127762000D03*
X105410000Y-113030000D03*
X107188000Y-106934000D03*
X100711000Y-112649000D03*
X115189000Y-125222000D03*
D48*
X113670000Y-117348000D03*
X115570000Y-117348000D03*
X114620000Y-115198000D03*
D49*
X108301000Y-122682000D03*
X108951000Y-122682000D03*
X109601000Y-122682000D03*
X110251000Y-122682000D03*
X110251000Y-120092000D03*
X109601000Y-120092000D03*
X108951000Y-120092000D03*
X108301000Y-120092000D03*
D50*
X107320000Y-110348000D03*
X107320000Y-110998000D03*
X107320000Y-111648000D03*
X109220000Y-111648000D03*
X109220000Y-110348000D03*
D51*
X104942600Y-97739200D03*
X105892600Y-97739200D03*
X106842600Y-97739200D03*
X106842600Y-94939200D03*
X104942600Y-94939200D03*
D16*
X112453000Y-119253000D03*
X113353000Y-119253000D03*
X109024000Y-117856000D03*
X109924000Y-117856000D03*
X107257000Y-125730000D03*
X106357000Y-125730000D03*
D30*
X104648000Y-111321000D03*
X104648000Y-110421000D03*
D16*
X109924000Y-125730000D03*
X109024000Y-125730000D03*
D30*
X102997000Y-111564000D03*
X102997000Y-112464000D03*
X107315000Y-114369000D03*
X107315000Y-113469000D03*
D16*
X105468000Y-122682000D03*
X106368000Y-122682000D03*
X107257000Y-116332000D03*
X106357000Y-116332000D03*
X103193000Y-94869000D03*
X102293000Y-94869000D03*
X96843000Y-95250000D03*
X95943000Y-95250000D03*
D18*
X95970000Y-93345000D03*
X97070000Y-93345000D03*
D52*
X98691000Y-133604000D03*
X100191000Y-133604000D03*
D15*
X112522000Y-115612000D03*
X112522000Y-114512000D03*
D52*
X96508000Y-128143000D03*
X95008000Y-128143000D03*
D18*
X99737000Y-130683000D03*
X98637000Y-130683000D03*
D53*
X110363000Y-114669000D03*
X110363000Y-113169000D03*
D15*
X110490000Y-132165000D03*
X110490000Y-133265000D03*
D18*
X103082000Y-114681000D03*
X104182000Y-114681000D03*
X112226000Y-121412000D03*
X113326000Y-121412000D03*
X101515000Y-114681000D03*
X100415000Y-114681000D03*
X103082000Y-116205000D03*
X104182000Y-116205000D03*
X101515000Y-116205000D03*
X100415000Y-116205000D03*
X110151000Y-116332000D03*
X109051000Y-116332000D03*
X115655000Y-120142000D03*
X116755000Y-120142000D03*
X106976000Y-120142000D03*
X105876000Y-120142000D03*
D52*
X109347000Y-107188000D03*
X110847000Y-107188000D03*
X106922000Y-118364000D03*
X105422000Y-118364000D03*
D15*
X104775000Y-124672000D03*
X104775000Y-125772000D03*
X98806000Y-119846000D03*
X98806000Y-120946000D03*
D18*
X113453000Y-112522000D03*
X112353000Y-112522000D03*
X111718000Y-125730000D03*
X112818000Y-125730000D03*
X106849000Y-99695000D03*
X105749000Y-99695000D03*
X106959400Y-92811600D03*
X105859400Y-92811600D03*
X115866000Y-128270000D03*
X114766000Y-128270000D03*
X112226000Y-123444000D03*
X113326000Y-123444000D03*
D54*
X95631000Y-117221000D03*
D55*
X95631000Y-114681000D03*
X95631000Y-112141000D03*
D56*
X121666000Y-112743000D03*
X118586000Y-112743000D03*
X121666000Y-112343000D03*
X118586000Y-112343000D03*
X121666000Y-111943000D03*
X118586000Y-111943000D03*
X121666000Y-111543000D03*
X118586000Y-111543000D03*
X121666000Y-111143000D03*
X118586000Y-111143000D03*
X121666000Y-110743000D03*
X118586000Y-110743000D03*
X121666000Y-110343000D03*
X118586000Y-110343000D03*
X121666000Y-109943000D03*
X118586000Y-109943000D03*
X121666000Y-109543000D03*
X118586000Y-109543000D03*
X121666000Y-109143000D03*
X118586000Y-109143000D03*
X121666000Y-108743000D03*
X118586000Y-108743000D03*
X121666000Y-108343000D03*
X118586000Y-108343000D03*
X121666000Y-107943000D03*
X118586000Y-107943000D03*
X121666000Y-107543000D03*
X118586000Y-107543000D03*
X121666000Y-107143000D03*
X118586000Y-107143000D03*
X121666000Y-106743000D03*
X118586000Y-106743000D03*
X121666000Y-106343000D03*
X118586000Y-106343000D03*
X121666000Y-105943000D03*
X118586000Y-105943000D03*
X121666000Y-105543000D03*
X118586000Y-105543000D03*
X121666000Y-105143000D03*
X118586000Y-105143000D03*
X121666000Y-104743000D03*
X118586000Y-104743000D03*
X121666000Y-104343000D03*
X118586000Y-104343000D03*
X121666000Y-103943000D03*
X118586000Y-103943000D03*
X121666000Y-103543000D03*
X118586000Y-103543000D03*
X121666000Y-103143000D03*
X118586000Y-103143000D03*
X121666000Y-102743000D03*
X118586000Y-102743000D03*
X121666000Y-102343000D03*
X118586000Y-102343000D03*
X121666000Y-101943000D03*
X118586000Y-101943000D03*
X121666000Y-101543000D03*
X118586000Y-101543000D03*
X121666000Y-101143000D03*
X118586000Y-101143000D03*
X121666000Y-100743000D03*
X118586000Y-100743000D03*
X121666000Y-100343000D03*
X118586000Y-100343000D03*
X121666000Y-99943000D03*
X118586000Y-99943000D03*
X121666000Y-99543000D03*
X118586000Y-99543000D03*
X121666000Y-99143000D03*
X118586000Y-99143000D03*
D18*
X109305000Y-108966000D03*
X110405000Y-108966000D03*
D11*
X104070000Y-13962000D03*
X101670000Y-13962000D03*
D12*
X106070000Y-16462000D03*
X99670000Y-16462000D03*
D13*
X104170000Y-16637000D03*
X103520000Y-16637000D03*
X102870000Y-16637000D03*
X102220000Y-16637000D03*
X101570000Y-16637000D03*
D14*
X106045000Y-13962000D03*
X99695000Y-13962000D03*
D15*
X114173000Y-36026000D03*
X114173000Y-37126000D03*
X117221000Y-31792000D03*
X117221000Y-30692000D03*
D16*
X96843000Y-35052000D03*
X95943000Y-35052000D03*
D17*
X95979000Y-44704000D03*
X101379000Y-44704000D03*
X95979000Y-43434000D03*
X101379000Y-43434000D03*
X95979000Y-42164000D03*
X101379000Y-42164000D03*
X95979000Y-40894000D03*
X101379000Y-40894000D03*
X95979000Y-39624000D03*
X101379000Y-39624000D03*
X95979000Y-38354000D03*
X101379000Y-38354000D03*
X95979000Y-37084000D03*
X101379000Y-37084000D03*
D15*
X98806000Y-46948000D03*
X98806000Y-48048000D03*
D18*
X104860000Y-44704000D03*
X105960000Y-44704000D03*
D19*
X104471000Y-66929000D03*
X103251000Y-66929000D03*
D20*
X103861000Y-68449000D03*
D21*
X107094000Y-66975500D03*
X108044000Y-66975500D03*
D22*
X107569000Y-68453000D03*
D23*
X112699000Y-66604000D03*
D24*
X112650000Y-69341000D03*
X114680000Y-69341000D03*
D23*
X114631000Y-66604000D03*
D25*
X113665000Y-66604000D03*
D26*
X113665000Y-68707000D03*
D16*
X126764200Y-44932600D03*
X125864200Y-44932600D03*
X125545000Y-38811200D03*
X124645000Y-38811200D03*
X126789600Y-47675800D03*
X125889600Y-47675800D03*
D27*
X126358200Y-41459600D03*
X125508200Y-41459600D03*
X126358200Y-42309600D03*
X125508200Y-42309600D03*
D28*
X95631000Y-60071000D03*
D29*
X95631000Y-57531000D03*
D16*
X125661000Y-33655000D03*
X126561000Y-33655000D03*
D30*
X109728000Y-17410000D03*
X109728000Y-16510000D03*
D16*
X109786000Y-28575000D03*
X110686000Y-28575000D03*
D31*
X125558000Y-16383000D03*
X124458000Y-16383000D03*
X123358000Y-16383000D03*
X122258000Y-16383000D03*
X121158000Y-16383000D03*
X120058000Y-16383000D03*
X118958000Y-16383000D03*
X117858000Y-16383000D03*
D32*
X126448000Y-14333000D03*
D33*
X113128000Y-14083000D03*
D34*
X126773000Y-20963000D03*
D35*
X112848000Y-22058000D03*
D36*
X126773000Y-26043000D03*
D37*
X112873000Y-27983000D03*
D38*
X126548000Y-27548000D03*
D39*
X126523000Y-28208000D03*
D40*
X114468400Y-33482800D03*
X114468400Y-32832800D03*
X114468400Y-32182800D03*
X114468400Y-31532800D03*
D41*
X113593400Y-30657800D03*
D40*
X110768400Y-33482800D03*
D41*
X113593400Y-34357800D03*
X112943400Y-30657800D03*
X112293400Y-30657800D03*
X111643400Y-30657800D03*
D40*
X110768400Y-32832800D03*
X110768400Y-32182800D03*
X110768400Y-31532800D03*
D41*
X112943400Y-34357800D03*
X112293400Y-34357800D03*
X111643400Y-34357800D03*
D42*
X95796100Y-19784060D03*
D43*
X101346000Y-22133560D03*
X101346000Y-24130000D03*
D42*
X95796100Y-26479500D03*
D44*
X108838000Y-23241000D03*
X105538000Y-25741000D03*
X105538000Y-20741000D03*
D30*
X113792000Y-45676400D03*
X113792000Y-46576400D03*
D45*
X96454000Y-66548000D03*
X95504000Y-66548000D03*
X94554000Y-66548000D03*
X94554000Y-68898000D03*
X96454000Y-68898000D03*
D46*
X100981000Y-53720000D03*
X100981000Y-56770000D03*
X101481000Y-53720000D03*
X101481000Y-56770000D03*
X101981000Y-53720000D03*
X101981000Y-56770000D03*
X102481000Y-53720000D03*
X102481000Y-56770000D03*
X102981000Y-53720000D03*
X102981000Y-56770000D03*
D47*
X111887000Y-53213000D03*
X108966000Y-63627000D03*
X105664000Y-63627000D03*
X105410000Y-48895000D03*
X107188000Y-42799000D03*
X100711000Y-48514000D03*
X115189000Y-61087000D03*
D48*
X113670000Y-53213000D03*
X115570000Y-53213000D03*
X114620000Y-51063000D03*
D49*
X108301000Y-58547000D03*
X108951000Y-58547000D03*
X109601000Y-58547000D03*
X110251000Y-58547000D03*
X110251000Y-55957000D03*
X109601000Y-55957000D03*
X108951000Y-55957000D03*
X108301000Y-55957000D03*
D50*
X107320000Y-46213000D03*
X107320000Y-46863000D03*
X107320000Y-47513000D03*
X109220000Y-47513000D03*
X109220000Y-46213000D03*
D51*
X104942600Y-33604200D03*
X105892600Y-33604200D03*
X106842600Y-33604200D03*
X106842600Y-30804200D03*
X104942600Y-30804200D03*
D16*
X112453000Y-55118000D03*
X113353000Y-55118000D03*
X109024000Y-53721000D03*
X109924000Y-53721000D03*
X107257000Y-61595000D03*
X106357000Y-61595000D03*
D30*
X104648000Y-47186000D03*
X104648000Y-46286000D03*
D16*
X109924000Y-61595000D03*
X109024000Y-61595000D03*
D30*
X102997000Y-47429000D03*
X102997000Y-48329000D03*
X107315000Y-50234000D03*
X107315000Y-49334000D03*
D16*
X105468000Y-58547000D03*
X106368000Y-58547000D03*
X107257000Y-52197000D03*
X106357000Y-52197000D03*
X103193000Y-30734000D03*
X102293000Y-30734000D03*
X96843000Y-31115000D03*
X95943000Y-31115000D03*
D18*
X95970000Y-29210000D03*
X97070000Y-29210000D03*
D52*
X98691000Y-69469000D03*
X100191000Y-69469000D03*
D15*
X112522000Y-51477000D03*
X112522000Y-50377000D03*
D52*
X96508000Y-64008000D03*
X95008000Y-64008000D03*
D18*
X99737000Y-66548000D03*
X98637000Y-66548000D03*
D53*
X110363000Y-50534000D03*
X110363000Y-49034000D03*
D15*
X110490000Y-68030000D03*
X110490000Y-69130000D03*
D18*
X103082000Y-50546000D03*
X104182000Y-50546000D03*
X112226000Y-57277000D03*
X113326000Y-57277000D03*
X101515000Y-50546000D03*
X100415000Y-50546000D03*
X103082000Y-52070000D03*
X104182000Y-52070000D03*
X101515000Y-52070000D03*
X100415000Y-52070000D03*
X110151000Y-52197000D03*
X109051000Y-52197000D03*
X115655000Y-56007000D03*
X116755000Y-56007000D03*
X106976000Y-56007000D03*
X105876000Y-56007000D03*
D52*
X109347000Y-43053000D03*
X110847000Y-43053000D03*
X106922000Y-54229000D03*
X105422000Y-54229000D03*
D15*
X104775000Y-60537000D03*
X104775000Y-61637000D03*
X98806000Y-55711000D03*
X98806000Y-56811000D03*
D18*
X113453000Y-48387000D03*
X112353000Y-48387000D03*
X111718000Y-61595000D03*
X112818000Y-61595000D03*
X106849000Y-35560000D03*
X105749000Y-35560000D03*
X106959400Y-28676600D03*
X105859400Y-28676600D03*
X115866000Y-64135000D03*
X114766000Y-64135000D03*
X112226000Y-59309000D03*
X113326000Y-59309000D03*
D54*
X95631000Y-53086000D03*
D55*
X95631000Y-50546000D03*
X95631000Y-48006000D03*
D56*
X121666000Y-48608000D03*
X118586000Y-48608000D03*
X121666000Y-48208000D03*
X118586000Y-48208000D03*
X121666000Y-47808000D03*
X118586000Y-47808000D03*
X121666000Y-47408000D03*
X118586000Y-47408000D03*
X121666000Y-47008000D03*
X118586000Y-47008000D03*
X121666000Y-46608000D03*
X118586000Y-46608000D03*
X121666000Y-46208000D03*
X118586000Y-46208000D03*
X121666000Y-45808000D03*
X118586000Y-45808000D03*
X121666000Y-45408000D03*
X118586000Y-45408000D03*
X121666000Y-45008000D03*
X118586000Y-45008000D03*
X121666000Y-44608000D03*
X118586000Y-44608000D03*
X121666000Y-44208000D03*
X118586000Y-44208000D03*
X121666000Y-43808000D03*
X118586000Y-43808000D03*
X121666000Y-43408000D03*
X118586000Y-43408000D03*
X121666000Y-43008000D03*
X118586000Y-43008000D03*
X121666000Y-42608000D03*
X118586000Y-42608000D03*
X121666000Y-42208000D03*
X118586000Y-42208000D03*
X121666000Y-41808000D03*
X118586000Y-41808000D03*
X121666000Y-41408000D03*
X118586000Y-41408000D03*
X121666000Y-41008000D03*
X118586000Y-41008000D03*
X121666000Y-40608000D03*
X118586000Y-40608000D03*
X121666000Y-40208000D03*
X118586000Y-40208000D03*
X121666000Y-39808000D03*
X118586000Y-39808000D03*
X121666000Y-39408000D03*
X118586000Y-39408000D03*
X121666000Y-39008000D03*
X118586000Y-39008000D03*
X121666000Y-38608000D03*
X118586000Y-38608000D03*
X121666000Y-38208000D03*
X118586000Y-38208000D03*
X121666000Y-37808000D03*
X118586000Y-37808000D03*
X121666000Y-37408000D03*
X118586000Y-37408000D03*
X121666000Y-37008000D03*
X118586000Y-37008000D03*
X121666000Y-36608000D03*
X118586000Y-36608000D03*
X121666000Y-36208000D03*
X118586000Y-36208000D03*
X121666000Y-35808000D03*
X118586000Y-35808000D03*
X121666000Y-35408000D03*
X118586000Y-35408000D03*
X121666000Y-35008000D03*
X118586000Y-35008000D03*
D18*
X109305000Y-44831000D03*
X110405000Y-44831000D03*
D11*
X63811000Y-206367000D03*
X61411000Y-206367000D03*
D12*
X65811000Y-208867000D03*
X59411000Y-208867000D03*
D13*
X63911000Y-209042000D03*
X63261000Y-209042000D03*
X62611000Y-209042000D03*
X61961000Y-209042000D03*
X61311000Y-209042000D03*
D14*
X65786000Y-206367000D03*
X59436000Y-206367000D03*
D15*
X73914000Y-228431000D03*
X73914000Y-229531000D03*
X76962000Y-224197000D03*
X76962000Y-223097000D03*
D16*
X56584000Y-227457000D03*
X55684000Y-227457000D03*
D17*
X55720000Y-237109000D03*
X61120000Y-237109000D03*
X55720000Y-235839000D03*
X61120000Y-235839000D03*
X55720000Y-234569000D03*
X61120000Y-234569000D03*
X55720000Y-233299000D03*
X61120000Y-233299000D03*
X55720000Y-232029000D03*
X61120000Y-232029000D03*
X55720000Y-230759000D03*
X61120000Y-230759000D03*
X55720000Y-229489000D03*
X61120000Y-229489000D03*
D15*
X58547000Y-239353000D03*
X58547000Y-240453000D03*
D18*
X64601000Y-237109000D03*
X65701000Y-237109000D03*
D19*
X64212000Y-259334000D03*
X62992000Y-259334000D03*
D20*
X63602000Y-260854000D03*
D21*
X66835000Y-259380500D03*
X67785000Y-259380500D03*
D22*
X67310000Y-260858000D03*
D23*
X72440000Y-259009000D03*
D24*
X72391000Y-261746000D03*
X74421000Y-261746000D03*
D23*
X74372000Y-259009000D03*
D25*
X73406000Y-259009000D03*
D26*
X73406000Y-261112000D03*
D16*
X86505200Y-237337600D03*
X85605200Y-237337600D03*
X85286000Y-231216200D03*
X84386000Y-231216200D03*
X86530600Y-240080800D03*
X85630600Y-240080800D03*
D27*
X86099200Y-233864600D03*
X85249200Y-233864600D03*
X86099200Y-234714600D03*
X85249200Y-234714600D03*
D28*
X55372000Y-252476000D03*
D29*
X55372000Y-249936000D03*
D16*
X85402000Y-226060000D03*
X86302000Y-226060000D03*
D30*
X69469000Y-209815000D03*
X69469000Y-208915000D03*
D16*
X69527000Y-220980000D03*
X70427000Y-220980000D03*
D31*
X85299000Y-208788000D03*
X84199000Y-208788000D03*
X83099000Y-208788000D03*
X81999000Y-208788000D03*
X80899000Y-208788000D03*
X79799000Y-208788000D03*
X78699000Y-208788000D03*
X77599000Y-208788000D03*
D32*
X86189000Y-206738000D03*
D33*
X72869000Y-206488000D03*
D34*
X86514000Y-213368000D03*
D35*
X72589000Y-214463000D03*
D36*
X86514000Y-218448000D03*
D37*
X72614000Y-220388000D03*
D38*
X86289000Y-219953000D03*
D39*
X86264000Y-220613000D03*
D40*
X74209400Y-225887800D03*
X74209400Y-225237800D03*
X74209400Y-224587800D03*
X74209400Y-223937800D03*
D41*
X73334400Y-223062800D03*
D40*
X70509400Y-225887800D03*
D41*
X73334400Y-226762800D03*
X72684400Y-223062800D03*
X72034400Y-223062800D03*
X71384400Y-223062800D03*
D40*
X70509400Y-225237800D03*
X70509400Y-224587800D03*
X70509400Y-223937800D03*
D41*
X72684400Y-226762800D03*
X72034400Y-226762800D03*
X71384400Y-226762800D03*
D42*
X55537100Y-212189060D03*
D43*
X61087000Y-214538560D03*
X61087000Y-216535000D03*
D42*
X55537100Y-218884500D03*
D44*
X68579000Y-215646000D03*
X65279000Y-218146000D03*
X65279000Y-213146000D03*
D30*
X73533000Y-238081400D03*
X73533000Y-238981400D03*
D45*
X56195000Y-258953000D03*
X55245000Y-258953000D03*
X54295000Y-258953000D03*
X54295000Y-261303000D03*
X56195000Y-261303000D03*
D46*
X60722000Y-246125000D03*
X60722000Y-249175000D03*
X61222000Y-246125000D03*
X61222000Y-249175000D03*
X61722000Y-246125000D03*
X61722000Y-249175000D03*
X62222000Y-246125000D03*
X62222000Y-249175000D03*
X62722000Y-246125000D03*
X62722000Y-249175000D03*
D47*
X71628000Y-245618000D03*
X68707000Y-256032000D03*
X65405000Y-256032000D03*
X65151000Y-241300000D03*
X66929000Y-235204000D03*
X60452000Y-240919000D03*
X74930000Y-253492000D03*
D48*
X73411000Y-245618000D03*
X75311000Y-245618000D03*
X74361000Y-243468000D03*
D49*
X68042000Y-250952000D03*
X68692000Y-250952000D03*
X69342000Y-250952000D03*
X69992000Y-250952000D03*
X69992000Y-248362000D03*
X69342000Y-248362000D03*
X68692000Y-248362000D03*
X68042000Y-248362000D03*
D50*
X67061000Y-238618000D03*
X67061000Y-239268000D03*
X67061000Y-239918000D03*
X68961000Y-239918000D03*
X68961000Y-238618000D03*
D51*
X64683600Y-226009200D03*
X65633600Y-226009200D03*
X66583600Y-226009200D03*
X66583600Y-223209200D03*
X64683600Y-223209200D03*
D16*
X72194000Y-247523000D03*
X73094000Y-247523000D03*
X68765000Y-246126000D03*
X69665000Y-246126000D03*
X66998000Y-254000000D03*
X66098000Y-254000000D03*
D30*
X64389000Y-239591000D03*
X64389000Y-238691000D03*
D16*
X69665000Y-254000000D03*
X68765000Y-254000000D03*
D30*
X62738000Y-239834000D03*
X62738000Y-240734000D03*
X67056000Y-242639000D03*
X67056000Y-241739000D03*
D16*
X65209000Y-250952000D03*
X66109000Y-250952000D03*
X66998000Y-244602000D03*
X66098000Y-244602000D03*
X62934000Y-223139000D03*
X62034000Y-223139000D03*
X56584000Y-223520000D03*
X55684000Y-223520000D03*
D18*
X55711000Y-221615000D03*
X56811000Y-221615000D03*
D52*
X58432000Y-261874000D03*
X59932000Y-261874000D03*
D15*
X72263000Y-243882000D03*
X72263000Y-242782000D03*
D52*
X56249000Y-256413000D03*
X54749000Y-256413000D03*
D18*
X59478000Y-258953000D03*
X58378000Y-258953000D03*
D53*
X70104000Y-242939000D03*
X70104000Y-241439000D03*
D15*
X70231000Y-260435000D03*
X70231000Y-261535000D03*
D18*
X62823000Y-242951000D03*
X63923000Y-242951000D03*
X71967000Y-249682000D03*
X73067000Y-249682000D03*
X61256000Y-242951000D03*
X60156000Y-242951000D03*
X62823000Y-244475000D03*
X63923000Y-244475000D03*
X61256000Y-244475000D03*
X60156000Y-244475000D03*
X69892000Y-244602000D03*
X68792000Y-244602000D03*
X75396000Y-248412000D03*
X76496000Y-248412000D03*
X66717000Y-248412000D03*
X65617000Y-248412000D03*
D52*
X69088000Y-235458000D03*
X70588000Y-235458000D03*
X66663000Y-246634000D03*
X65163000Y-246634000D03*
D15*
X64516000Y-252942000D03*
X64516000Y-254042000D03*
X58547000Y-248116000D03*
X58547000Y-249216000D03*
D18*
X73194000Y-240792000D03*
X72094000Y-240792000D03*
X71459000Y-254000000D03*
X72559000Y-254000000D03*
X66590000Y-227965000D03*
X65490000Y-227965000D03*
X66700400Y-221081600D03*
X65600400Y-221081600D03*
X75607000Y-256540000D03*
X74507000Y-256540000D03*
X71967000Y-251714000D03*
X73067000Y-251714000D03*
D54*
X55372000Y-245491000D03*
D55*
X55372000Y-242951000D03*
X55372000Y-240411000D03*
D56*
X81407000Y-241013000D03*
X78327000Y-241013000D03*
X81407000Y-240613000D03*
X78327000Y-240613000D03*
X81407000Y-240213000D03*
X78327000Y-240213000D03*
X81407000Y-239813000D03*
X78327000Y-239813000D03*
X81407000Y-239413000D03*
X78327000Y-239413000D03*
X81407000Y-239013000D03*
X78327000Y-239013000D03*
X81407000Y-238613000D03*
X78327000Y-238613000D03*
X81407000Y-238213000D03*
X78327000Y-238213000D03*
X81407000Y-237813000D03*
X78327000Y-237813000D03*
X81407000Y-237413000D03*
X78327000Y-237413000D03*
X81407000Y-237013000D03*
X78327000Y-237013000D03*
X81407000Y-236613000D03*
X78327000Y-236613000D03*
X81407000Y-236213000D03*
X78327000Y-236213000D03*
X81407000Y-235813000D03*
X78327000Y-235813000D03*
X81407000Y-235413000D03*
X78327000Y-235413000D03*
X81407000Y-235013000D03*
X78327000Y-235013000D03*
X81407000Y-234613000D03*
X78327000Y-234613000D03*
X81407000Y-234213000D03*
X78327000Y-234213000D03*
X81407000Y-233813000D03*
X78327000Y-233813000D03*
X81407000Y-233413000D03*
X78327000Y-233413000D03*
X81407000Y-233013000D03*
X78327000Y-233013000D03*
X81407000Y-232613000D03*
X78327000Y-232613000D03*
X81407000Y-232213000D03*
X78327000Y-232213000D03*
X81407000Y-231813000D03*
X78327000Y-231813000D03*
X81407000Y-231413000D03*
X78327000Y-231413000D03*
X81407000Y-231013000D03*
X78327000Y-231013000D03*
X81407000Y-230613000D03*
X78327000Y-230613000D03*
X81407000Y-230213000D03*
X78327000Y-230213000D03*
X81407000Y-229813000D03*
X78327000Y-229813000D03*
X81407000Y-229413000D03*
X78327000Y-229413000D03*
X81407000Y-229013000D03*
X78327000Y-229013000D03*
X81407000Y-228613000D03*
X78327000Y-228613000D03*
X81407000Y-228213000D03*
X78327000Y-228213000D03*
X81407000Y-227813000D03*
X78327000Y-227813000D03*
X81407000Y-227413000D03*
X78327000Y-227413000D03*
D18*
X69046000Y-237236000D03*
X70146000Y-237236000D03*
D11*
X63811000Y-142232000D03*
X61411000Y-142232000D03*
D12*
X65811000Y-144732000D03*
X59411000Y-144732000D03*
D13*
X63911000Y-144907000D03*
X63261000Y-144907000D03*
X62611000Y-144907000D03*
X61961000Y-144907000D03*
X61311000Y-144907000D03*
D14*
X65786000Y-142232000D03*
X59436000Y-142232000D03*
D15*
X73914000Y-164296000D03*
X73914000Y-165396000D03*
X76962000Y-160062000D03*
X76962000Y-158962000D03*
D16*
X56584000Y-163322000D03*
X55684000Y-163322000D03*
D17*
X55720000Y-172974000D03*
X61120000Y-172974000D03*
X55720000Y-171704000D03*
X61120000Y-171704000D03*
X55720000Y-170434000D03*
X61120000Y-170434000D03*
X55720000Y-169164000D03*
X61120000Y-169164000D03*
X55720000Y-167894000D03*
X61120000Y-167894000D03*
X55720000Y-166624000D03*
X61120000Y-166624000D03*
X55720000Y-165354000D03*
X61120000Y-165354000D03*
D15*
X58547000Y-175218000D03*
X58547000Y-176318000D03*
D18*
X64601000Y-172974000D03*
X65701000Y-172974000D03*
D19*
X64212000Y-195199000D03*
X62992000Y-195199000D03*
D20*
X63602000Y-196719000D03*
D21*
X66835000Y-195245500D03*
X67785000Y-195245500D03*
D22*
X67310000Y-196723000D03*
D23*
X72440000Y-194874000D03*
D24*
X72391000Y-197611000D03*
X74421000Y-197611000D03*
D23*
X74372000Y-194874000D03*
D25*
X73406000Y-194874000D03*
D26*
X73406000Y-196977000D03*
D16*
X86505200Y-173202600D03*
X85605200Y-173202600D03*
X85286000Y-167081200D03*
X84386000Y-167081200D03*
X86530600Y-175945800D03*
X85630600Y-175945800D03*
D27*
X86099200Y-169729600D03*
X85249200Y-169729600D03*
X86099200Y-170579600D03*
X85249200Y-170579600D03*
D28*
X55372000Y-188341000D03*
D29*
X55372000Y-185801000D03*
D16*
X85402000Y-161925000D03*
X86302000Y-161925000D03*
D30*
X69469000Y-145680000D03*
X69469000Y-144780000D03*
D16*
X69527000Y-156845000D03*
X70427000Y-156845000D03*
D31*
X85299000Y-144653000D03*
X84199000Y-144653000D03*
X83099000Y-144653000D03*
X81999000Y-144653000D03*
X80899000Y-144653000D03*
X79799000Y-144653000D03*
X78699000Y-144653000D03*
X77599000Y-144653000D03*
D32*
X86189000Y-142603000D03*
D33*
X72869000Y-142353000D03*
D34*
X86514000Y-149233000D03*
D35*
X72589000Y-150328000D03*
D36*
X86514000Y-154313000D03*
D37*
X72614000Y-156253000D03*
D38*
X86289000Y-155818000D03*
D39*
X86264000Y-156478000D03*
D40*
X74209400Y-161752800D03*
X74209400Y-161102800D03*
X74209400Y-160452800D03*
X74209400Y-159802800D03*
D41*
X73334400Y-158927800D03*
D40*
X70509400Y-161752800D03*
D41*
X73334400Y-162627800D03*
X72684400Y-158927800D03*
X72034400Y-158927800D03*
X71384400Y-158927800D03*
D40*
X70509400Y-161102800D03*
X70509400Y-160452800D03*
X70509400Y-159802800D03*
D41*
X72684400Y-162627800D03*
X72034400Y-162627800D03*
X71384400Y-162627800D03*
D42*
X55537100Y-148054060D03*
D43*
X61087000Y-150403560D03*
X61087000Y-152400000D03*
D42*
X55537100Y-154749500D03*
D44*
X68579000Y-151511000D03*
X65279000Y-154011000D03*
X65279000Y-149011000D03*
D30*
X73533000Y-173946400D03*
X73533000Y-174846400D03*
D45*
X56195000Y-194818000D03*
X55245000Y-194818000D03*
X54295000Y-194818000D03*
X54295000Y-197168000D03*
X56195000Y-197168000D03*
D46*
X60722000Y-181990000D03*
X60722000Y-185040000D03*
X61222000Y-181990000D03*
X61222000Y-185040000D03*
X61722000Y-181990000D03*
X61722000Y-185040000D03*
X62222000Y-181990000D03*
X62222000Y-185040000D03*
X62722000Y-181990000D03*
X62722000Y-185040000D03*
D47*
X71628000Y-181483000D03*
X68707000Y-191897000D03*
X65405000Y-191897000D03*
X65151000Y-177165000D03*
X66929000Y-171069000D03*
X60452000Y-176784000D03*
X74930000Y-189357000D03*
D48*
X73411000Y-181483000D03*
X75311000Y-181483000D03*
X74361000Y-179333000D03*
D49*
X68042000Y-186817000D03*
X68692000Y-186817000D03*
X69342000Y-186817000D03*
X69992000Y-186817000D03*
X69992000Y-184227000D03*
X69342000Y-184227000D03*
X68692000Y-184227000D03*
X68042000Y-184227000D03*
D50*
X67061000Y-174483000D03*
X67061000Y-175133000D03*
X67061000Y-175783000D03*
X68961000Y-175783000D03*
X68961000Y-174483000D03*
D51*
X64683600Y-161874200D03*
X65633600Y-161874200D03*
X66583600Y-161874200D03*
X66583600Y-159074200D03*
X64683600Y-159074200D03*
D16*
X72194000Y-183388000D03*
X73094000Y-183388000D03*
X68765000Y-181991000D03*
X69665000Y-181991000D03*
X66998000Y-189865000D03*
X66098000Y-189865000D03*
D30*
X64389000Y-175456000D03*
X64389000Y-174556000D03*
D16*
X69665000Y-189865000D03*
X68765000Y-189865000D03*
D30*
X62738000Y-175699000D03*
X62738000Y-176599000D03*
X67056000Y-178504000D03*
X67056000Y-177604000D03*
D16*
X65209000Y-186817000D03*
X66109000Y-186817000D03*
X66998000Y-180467000D03*
X66098000Y-180467000D03*
X62934000Y-159004000D03*
X62034000Y-159004000D03*
X56584000Y-159385000D03*
X55684000Y-159385000D03*
D18*
X55711000Y-157480000D03*
X56811000Y-157480000D03*
D52*
X58432000Y-197739000D03*
X59932000Y-197739000D03*
D15*
X72263000Y-179747000D03*
X72263000Y-178647000D03*
D52*
X56249000Y-192278000D03*
X54749000Y-192278000D03*
D18*
X59478000Y-194818000D03*
X58378000Y-194818000D03*
D53*
X70104000Y-178804000D03*
X70104000Y-177304000D03*
D15*
X70231000Y-196300000D03*
X70231000Y-197400000D03*
D18*
X62823000Y-178816000D03*
X63923000Y-178816000D03*
X71967000Y-185547000D03*
X73067000Y-185547000D03*
X61256000Y-178816000D03*
X60156000Y-178816000D03*
X62823000Y-180340000D03*
X63923000Y-180340000D03*
X61256000Y-180340000D03*
X60156000Y-180340000D03*
X69892000Y-180467000D03*
X68792000Y-180467000D03*
X75396000Y-184277000D03*
X76496000Y-184277000D03*
X66717000Y-184277000D03*
X65617000Y-184277000D03*
D52*
X69088000Y-171323000D03*
X70588000Y-171323000D03*
X66663000Y-182499000D03*
X65163000Y-182499000D03*
D15*
X64516000Y-188807000D03*
X64516000Y-189907000D03*
X58547000Y-183981000D03*
X58547000Y-185081000D03*
D18*
X73194000Y-176657000D03*
X72094000Y-176657000D03*
X71459000Y-189865000D03*
X72559000Y-189865000D03*
X66590000Y-163830000D03*
X65490000Y-163830000D03*
X66700400Y-156946600D03*
X65600400Y-156946600D03*
X75607000Y-192405000D03*
X74507000Y-192405000D03*
X71967000Y-187579000D03*
X73067000Y-187579000D03*
D54*
X55372000Y-181356000D03*
D55*
X55372000Y-178816000D03*
X55372000Y-176276000D03*
D56*
X81407000Y-176878000D03*
X78327000Y-176878000D03*
X81407000Y-176478000D03*
X78327000Y-176478000D03*
X81407000Y-176078000D03*
X78327000Y-176078000D03*
X81407000Y-175678000D03*
X78327000Y-175678000D03*
X81407000Y-175278000D03*
X78327000Y-175278000D03*
X81407000Y-174878000D03*
X78327000Y-174878000D03*
X81407000Y-174478000D03*
X78327000Y-174478000D03*
X81407000Y-174078000D03*
X78327000Y-174078000D03*
X81407000Y-173678000D03*
X78327000Y-173678000D03*
X81407000Y-173278000D03*
X78327000Y-173278000D03*
X81407000Y-172878000D03*
X78327000Y-172878000D03*
X81407000Y-172478000D03*
X78327000Y-172478000D03*
X81407000Y-172078000D03*
X78327000Y-172078000D03*
X81407000Y-171678000D03*
X78327000Y-171678000D03*
X81407000Y-171278000D03*
X78327000Y-171278000D03*
X81407000Y-170878000D03*
X78327000Y-170878000D03*
X81407000Y-170478000D03*
X78327000Y-170478000D03*
X81407000Y-170078000D03*
X78327000Y-170078000D03*
X81407000Y-169678000D03*
X78327000Y-169678000D03*
X81407000Y-169278000D03*
X78327000Y-169278000D03*
X81407000Y-168878000D03*
X78327000Y-168878000D03*
X81407000Y-168478000D03*
X78327000Y-168478000D03*
X81407000Y-168078000D03*
X78327000Y-168078000D03*
X81407000Y-167678000D03*
X78327000Y-167678000D03*
X81407000Y-167278000D03*
X78327000Y-167278000D03*
X81407000Y-166878000D03*
X78327000Y-166878000D03*
X81407000Y-166478000D03*
X78327000Y-166478000D03*
X81407000Y-166078000D03*
X78327000Y-166078000D03*
X81407000Y-165678000D03*
X78327000Y-165678000D03*
X81407000Y-165278000D03*
X78327000Y-165278000D03*
X81407000Y-164878000D03*
X78327000Y-164878000D03*
X81407000Y-164478000D03*
X78327000Y-164478000D03*
X81407000Y-164078000D03*
X78327000Y-164078000D03*
X81407000Y-163678000D03*
X78327000Y-163678000D03*
X81407000Y-163278000D03*
X78327000Y-163278000D03*
D18*
X69046000Y-173101000D03*
X70146000Y-173101000D03*
D11*
X63811000Y-78097000D03*
X61411000Y-78097000D03*
D12*
X65811000Y-80597000D03*
X59411000Y-80597000D03*
D13*
X63911000Y-80772000D03*
X63261000Y-80772000D03*
X62611000Y-80772000D03*
X61961000Y-80772000D03*
X61311000Y-80772000D03*
D14*
X65786000Y-78097000D03*
X59436000Y-78097000D03*
D15*
X73914000Y-100161000D03*
X73914000Y-101261000D03*
X76962000Y-95927000D03*
X76962000Y-94827000D03*
D16*
X56584000Y-99187000D03*
X55684000Y-99187000D03*
D17*
X55720000Y-108839000D03*
X61120000Y-108839000D03*
X55720000Y-107569000D03*
X61120000Y-107569000D03*
X55720000Y-106299000D03*
X61120000Y-106299000D03*
X55720000Y-105029000D03*
X61120000Y-105029000D03*
X55720000Y-103759000D03*
X61120000Y-103759000D03*
X55720000Y-102489000D03*
X61120000Y-102489000D03*
X55720000Y-101219000D03*
X61120000Y-101219000D03*
D15*
X58547000Y-111083000D03*
X58547000Y-112183000D03*
D18*
X64601000Y-108839000D03*
X65701000Y-108839000D03*
D19*
X64212000Y-131064000D03*
X62992000Y-131064000D03*
D20*
X63602000Y-132584000D03*
D21*
X66835000Y-131110500D03*
X67785000Y-131110500D03*
D22*
X67310000Y-132588000D03*
D23*
X72440000Y-130739000D03*
D24*
X72391000Y-133476000D03*
X74421000Y-133476000D03*
D23*
X74372000Y-130739000D03*
D25*
X73406000Y-130739000D03*
D26*
X73406000Y-132842000D03*
D16*
X86505200Y-109067600D03*
X85605200Y-109067600D03*
X85286000Y-102946200D03*
X84386000Y-102946200D03*
X86530600Y-111810800D03*
X85630600Y-111810800D03*
D27*
X86099200Y-105594600D03*
X85249200Y-105594600D03*
X86099200Y-106444600D03*
X85249200Y-106444600D03*
D28*
X55372000Y-124206000D03*
D29*
X55372000Y-121666000D03*
D16*
X85402000Y-97790000D03*
X86302000Y-97790000D03*
D30*
X69469000Y-81545000D03*
X69469000Y-80645000D03*
D16*
X69527000Y-92710000D03*
X70427000Y-92710000D03*
D31*
X85299000Y-80518000D03*
X84199000Y-80518000D03*
X83099000Y-80518000D03*
X81999000Y-80518000D03*
X80899000Y-80518000D03*
X79799000Y-80518000D03*
X78699000Y-80518000D03*
X77599000Y-80518000D03*
D32*
X86189000Y-78468000D03*
D33*
X72869000Y-78218000D03*
D34*
X86514000Y-85098000D03*
D35*
X72589000Y-86193000D03*
D36*
X86514000Y-90178000D03*
D37*
X72614000Y-92118000D03*
D38*
X86289000Y-91683000D03*
D39*
X86264000Y-92343000D03*
D40*
X74209400Y-97617800D03*
X74209400Y-96967800D03*
X74209400Y-96317800D03*
X74209400Y-95667800D03*
D41*
X73334400Y-94792800D03*
D40*
X70509400Y-97617800D03*
D41*
X73334400Y-98492800D03*
X72684400Y-94792800D03*
X72034400Y-94792800D03*
X71384400Y-94792800D03*
D40*
X70509400Y-96967800D03*
X70509400Y-96317800D03*
X70509400Y-95667800D03*
D41*
X72684400Y-98492800D03*
X72034400Y-98492800D03*
X71384400Y-98492800D03*
D42*
X55537100Y-83919060D03*
D43*
X61087000Y-86268560D03*
X61087000Y-88265000D03*
D42*
X55537100Y-90614500D03*
D44*
X68579000Y-87376000D03*
X65279000Y-89876000D03*
X65279000Y-84876000D03*
D30*
X73533000Y-109811400D03*
X73533000Y-110711400D03*
D45*
X56195000Y-130683000D03*
X55245000Y-130683000D03*
X54295000Y-130683000D03*
X54295000Y-133033000D03*
X56195000Y-133033000D03*
D46*
X60722000Y-117855000D03*
X60722000Y-120905000D03*
X61222000Y-117855000D03*
X61222000Y-120905000D03*
X61722000Y-117855000D03*
X61722000Y-120905000D03*
X62222000Y-117855000D03*
X62222000Y-120905000D03*
X62722000Y-117855000D03*
X62722000Y-120905000D03*
D47*
X71628000Y-117348000D03*
X68707000Y-127762000D03*
X65405000Y-127762000D03*
X65151000Y-113030000D03*
X66929000Y-106934000D03*
X60452000Y-112649000D03*
X74930000Y-125222000D03*
D48*
X73411000Y-117348000D03*
X75311000Y-117348000D03*
X74361000Y-115198000D03*
D49*
X68042000Y-122682000D03*
X68692000Y-122682000D03*
X69342000Y-122682000D03*
X69992000Y-122682000D03*
X69992000Y-120092000D03*
X69342000Y-120092000D03*
X68692000Y-120092000D03*
X68042000Y-120092000D03*
D50*
X67061000Y-110348000D03*
X67061000Y-110998000D03*
X67061000Y-111648000D03*
X68961000Y-111648000D03*
X68961000Y-110348000D03*
D51*
X64683600Y-97739200D03*
X65633600Y-97739200D03*
X66583600Y-97739200D03*
X66583600Y-94939200D03*
X64683600Y-94939200D03*
D16*
X72194000Y-119253000D03*
X73094000Y-119253000D03*
X68765000Y-117856000D03*
X69665000Y-117856000D03*
X66998000Y-125730000D03*
X66098000Y-125730000D03*
D30*
X64389000Y-111321000D03*
X64389000Y-110421000D03*
D16*
X69665000Y-125730000D03*
X68765000Y-125730000D03*
D30*
X62738000Y-111564000D03*
X62738000Y-112464000D03*
X67056000Y-114369000D03*
X67056000Y-113469000D03*
D16*
X65209000Y-122682000D03*
X66109000Y-122682000D03*
X66998000Y-116332000D03*
X66098000Y-116332000D03*
X62934000Y-94869000D03*
X62034000Y-94869000D03*
X56584000Y-95250000D03*
X55684000Y-95250000D03*
D18*
X55711000Y-93345000D03*
X56811000Y-93345000D03*
D52*
X58432000Y-133604000D03*
X59932000Y-133604000D03*
D15*
X72263000Y-115612000D03*
X72263000Y-114512000D03*
D52*
X56249000Y-128143000D03*
X54749000Y-128143000D03*
D18*
X59478000Y-130683000D03*
X58378000Y-130683000D03*
D53*
X70104000Y-114669000D03*
X70104000Y-113169000D03*
D15*
X70231000Y-132165000D03*
X70231000Y-133265000D03*
D18*
X62823000Y-114681000D03*
X63923000Y-114681000D03*
X71967000Y-121412000D03*
X73067000Y-121412000D03*
X61256000Y-114681000D03*
X60156000Y-114681000D03*
X62823000Y-116205000D03*
X63923000Y-116205000D03*
X61256000Y-116205000D03*
X60156000Y-116205000D03*
X69892000Y-116332000D03*
X68792000Y-116332000D03*
X75396000Y-120142000D03*
X76496000Y-120142000D03*
X66717000Y-120142000D03*
X65617000Y-120142000D03*
D52*
X69088000Y-107188000D03*
X70588000Y-107188000D03*
X66663000Y-118364000D03*
X65163000Y-118364000D03*
D15*
X64516000Y-124672000D03*
X64516000Y-125772000D03*
X58547000Y-119846000D03*
X58547000Y-120946000D03*
D18*
X73194000Y-112522000D03*
X72094000Y-112522000D03*
X71459000Y-125730000D03*
X72559000Y-125730000D03*
X66590000Y-99695000D03*
X65490000Y-99695000D03*
X66700400Y-92811600D03*
X65600400Y-92811600D03*
X75607000Y-128270000D03*
X74507000Y-128270000D03*
X71967000Y-123444000D03*
X73067000Y-123444000D03*
D54*
X55372000Y-117221000D03*
D55*
X55372000Y-114681000D03*
X55372000Y-112141000D03*
D56*
X81407000Y-112743000D03*
X78327000Y-112743000D03*
X81407000Y-112343000D03*
X78327000Y-112343000D03*
X81407000Y-111943000D03*
X78327000Y-111943000D03*
X81407000Y-111543000D03*
X78327000Y-111543000D03*
X81407000Y-111143000D03*
X78327000Y-111143000D03*
X81407000Y-110743000D03*
X78327000Y-110743000D03*
X81407000Y-110343000D03*
X78327000Y-110343000D03*
X81407000Y-109943000D03*
X78327000Y-109943000D03*
X81407000Y-109543000D03*
X78327000Y-109543000D03*
X81407000Y-109143000D03*
X78327000Y-109143000D03*
X81407000Y-108743000D03*
X78327000Y-108743000D03*
X81407000Y-108343000D03*
X78327000Y-108343000D03*
X81407000Y-107943000D03*
X78327000Y-107943000D03*
X81407000Y-107543000D03*
X78327000Y-107543000D03*
X81407000Y-107143000D03*
X78327000Y-107143000D03*
X81407000Y-106743000D03*
X78327000Y-106743000D03*
X81407000Y-106343000D03*
X78327000Y-106343000D03*
X81407000Y-105943000D03*
X78327000Y-105943000D03*
X81407000Y-105543000D03*
X78327000Y-105543000D03*
X81407000Y-105143000D03*
X78327000Y-105143000D03*
X81407000Y-104743000D03*
X78327000Y-104743000D03*
X81407000Y-104343000D03*
X78327000Y-104343000D03*
X81407000Y-103943000D03*
X78327000Y-103943000D03*
X81407000Y-103543000D03*
X78327000Y-103543000D03*
X81407000Y-103143000D03*
X78327000Y-103143000D03*
X81407000Y-102743000D03*
X78327000Y-102743000D03*
X81407000Y-102343000D03*
X78327000Y-102343000D03*
X81407000Y-101943000D03*
X78327000Y-101943000D03*
X81407000Y-101543000D03*
X78327000Y-101543000D03*
X81407000Y-101143000D03*
X78327000Y-101143000D03*
X81407000Y-100743000D03*
X78327000Y-100743000D03*
X81407000Y-100343000D03*
X78327000Y-100343000D03*
X81407000Y-99943000D03*
X78327000Y-99943000D03*
X81407000Y-99543000D03*
X78327000Y-99543000D03*
X81407000Y-99143000D03*
X78327000Y-99143000D03*
D18*
X69046000Y-108966000D03*
X70146000Y-108966000D03*
D11*
X63811000Y-13962000D03*
X61411000Y-13962000D03*
D12*
X65811000Y-16462000D03*
X59411000Y-16462000D03*
D13*
X63911000Y-16637000D03*
X63261000Y-16637000D03*
X62611000Y-16637000D03*
X61961000Y-16637000D03*
X61311000Y-16637000D03*
D14*
X65786000Y-13962000D03*
X59436000Y-13962000D03*
D15*
X73914000Y-36026000D03*
X73914000Y-37126000D03*
X76962000Y-31792000D03*
X76962000Y-30692000D03*
D16*
X56584000Y-35052000D03*
X55684000Y-35052000D03*
D17*
X55720000Y-44704000D03*
X61120000Y-44704000D03*
X55720000Y-43434000D03*
X61120000Y-43434000D03*
X55720000Y-42164000D03*
X61120000Y-42164000D03*
X55720000Y-40894000D03*
X61120000Y-40894000D03*
X55720000Y-39624000D03*
X61120000Y-39624000D03*
X55720000Y-38354000D03*
X61120000Y-38354000D03*
X55720000Y-37084000D03*
X61120000Y-37084000D03*
D15*
X58547000Y-46948000D03*
X58547000Y-48048000D03*
D18*
X64601000Y-44704000D03*
X65701000Y-44704000D03*
D19*
X64212000Y-66929000D03*
X62992000Y-66929000D03*
D20*
X63602000Y-68449000D03*
D21*
X66835000Y-66975500D03*
X67785000Y-66975500D03*
D22*
X67310000Y-68453000D03*
D23*
X72440000Y-66604000D03*
D24*
X72391000Y-69341000D03*
X74421000Y-69341000D03*
D23*
X74372000Y-66604000D03*
D25*
X73406000Y-66604000D03*
D26*
X73406000Y-68707000D03*
D16*
X86505200Y-44932600D03*
X85605200Y-44932600D03*
X85286000Y-38811200D03*
X84386000Y-38811200D03*
X86530600Y-47675800D03*
X85630600Y-47675800D03*
D27*
X86099200Y-41459600D03*
X85249200Y-41459600D03*
X86099200Y-42309600D03*
X85249200Y-42309600D03*
D28*
X55372000Y-60071000D03*
D29*
X55372000Y-57531000D03*
D16*
X85402000Y-33655000D03*
X86302000Y-33655000D03*
D30*
X69469000Y-17410000D03*
X69469000Y-16510000D03*
D16*
X69527000Y-28575000D03*
X70427000Y-28575000D03*
D31*
X85299000Y-16383000D03*
X84199000Y-16383000D03*
X83099000Y-16383000D03*
X81999000Y-16383000D03*
X80899000Y-16383000D03*
X79799000Y-16383000D03*
X78699000Y-16383000D03*
X77599000Y-16383000D03*
D32*
X86189000Y-14333000D03*
D33*
X72869000Y-14083000D03*
D34*
X86514000Y-20963000D03*
D35*
X72589000Y-22058000D03*
D36*
X86514000Y-26043000D03*
D37*
X72614000Y-27983000D03*
D38*
X86289000Y-27548000D03*
D39*
X86264000Y-28208000D03*
D40*
X74209400Y-33482800D03*
X74209400Y-32832800D03*
X74209400Y-32182800D03*
X74209400Y-31532800D03*
D41*
X73334400Y-30657800D03*
D40*
X70509400Y-33482800D03*
D41*
X73334400Y-34357800D03*
X72684400Y-30657800D03*
X72034400Y-30657800D03*
X71384400Y-30657800D03*
D40*
X70509400Y-32832800D03*
X70509400Y-32182800D03*
X70509400Y-31532800D03*
D41*
X72684400Y-34357800D03*
X72034400Y-34357800D03*
X71384400Y-34357800D03*
D42*
X55537100Y-19784060D03*
D43*
X61087000Y-22133560D03*
X61087000Y-24130000D03*
D42*
X55537100Y-26479500D03*
D44*
X68579000Y-23241000D03*
X65279000Y-25741000D03*
X65279000Y-20741000D03*
D30*
X73533000Y-45676400D03*
X73533000Y-46576400D03*
D45*
X56195000Y-66548000D03*
X55245000Y-66548000D03*
X54295000Y-66548000D03*
X54295000Y-68898000D03*
X56195000Y-68898000D03*
D46*
X60722000Y-53720000D03*
X60722000Y-56770000D03*
X61222000Y-53720000D03*
X61222000Y-56770000D03*
X61722000Y-53720000D03*
X61722000Y-56770000D03*
X62222000Y-53720000D03*
X62222000Y-56770000D03*
X62722000Y-53720000D03*
X62722000Y-56770000D03*
D47*
X71628000Y-53213000D03*
X68707000Y-63627000D03*
X65405000Y-63627000D03*
X65151000Y-48895000D03*
X66929000Y-42799000D03*
X60452000Y-48514000D03*
X74930000Y-61087000D03*
D48*
X73411000Y-53213000D03*
X75311000Y-53213000D03*
X74361000Y-51063000D03*
D49*
X68042000Y-58547000D03*
X68692000Y-58547000D03*
X69342000Y-58547000D03*
X69992000Y-58547000D03*
X69992000Y-55957000D03*
X69342000Y-55957000D03*
X68692000Y-55957000D03*
X68042000Y-55957000D03*
D50*
X67061000Y-46213000D03*
X67061000Y-46863000D03*
X67061000Y-47513000D03*
X68961000Y-47513000D03*
X68961000Y-46213000D03*
D51*
X64683600Y-33604200D03*
X65633600Y-33604200D03*
X66583600Y-33604200D03*
X66583600Y-30804200D03*
X64683600Y-30804200D03*
D16*
X72194000Y-55118000D03*
X73094000Y-55118000D03*
X68765000Y-53721000D03*
X69665000Y-53721000D03*
X66998000Y-61595000D03*
X66098000Y-61595000D03*
D30*
X64389000Y-47186000D03*
X64389000Y-46286000D03*
D16*
X69665000Y-61595000D03*
X68765000Y-61595000D03*
D30*
X62738000Y-47429000D03*
X62738000Y-48329000D03*
X67056000Y-50234000D03*
X67056000Y-49334000D03*
D16*
X65209000Y-58547000D03*
X66109000Y-58547000D03*
X66998000Y-52197000D03*
X66098000Y-52197000D03*
X62934000Y-30734000D03*
X62034000Y-30734000D03*
X56584000Y-31115000D03*
X55684000Y-31115000D03*
D18*
X55711000Y-29210000D03*
X56811000Y-29210000D03*
D52*
X58432000Y-69469000D03*
X59932000Y-69469000D03*
D15*
X72263000Y-51477000D03*
X72263000Y-50377000D03*
D52*
X56249000Y-64008000D03*
X54749000Y-64008000D03*
D18*
X59478000Y-66548000D03*
X58378000Y-66548000D03*
D53*
X70104000Y-50534000D03*
X70104000Y-49034000D03*
D15*
X70231000Y-68030000D03*
X70231000Y-69130000D03*
D18*
X62823000Y-50546000D03*
X63923000Y-50546000D03*
X71967000Y-57277000D03*
X73067000Y-57277000D03*
X61256000Y-50546000D03*
X60156000Y-50546000D03*
X62823000Y-52070000D03*
X63923000Y-52070000D03*
X61256000Y-52070000D03*
X60156000Y-52070000D03*
X69892000Y-52197000D03*
X68792000Y-52197000D03*
X75396000Y-56007000D03*
X76496000Y-56007000D03*
X66717000Y-56007000D03*
X65617000Y-56007000D03*
D52*
X69088000Y-43053000D03*
X70588000Y-43053000D03*
X66663000Y-54229000D03*
X65163000Y-54229000D03*
D15*
X64516000Y-60537000D03*
X64516000Y-61637000D03*
X58547000Y-55711000D03*
X58547000Y-56811000D03*
D18*
X73194000Y-48387000D03*
X72094000Y-48387000D03*
X71459000Y-61595000D03*
X72559000Y-61595000D03*
X66590000Y-35560000D03*
X65490000Y-35560000D03*
X66700400Y-28676600D03*
X65600400Y-28676600D03*
X75607000Y-64135000D03*
X74507000Y-64135000D03*
X71967000Y-59309000D03*
X73067000Y-59309000D03*
D54*
X55372000Y-53086000D03*
D55*
X55372000Y-50546000D03*
X55372000Y-48006000D03*
D56*
X81407000Y-48608000D03*
X78327000Y-48608000D03*
X81407000Y-48208000D03*
X78327000Y-48208000D03*
X81407000Y-47808000D03*
X78327000Y-47808000D03*
X81407000Y-47408000D03*
X78327000Y-47408000D03*
X81407000Y-47008000D03*
X78327000Y-47008000D03*
X81407000Y-46608000D03*
X78327000Y-46608000D03*
X81407000Y-46208000D03*
X78327000Y-46208000D03*
X81407000Y-45808000D03*
X78327000Y-45808000D03*
X81407000Y-45408000D03*
X78327000Y-45408000D03*
X81407000Y-45008000D03*
X78327000Y-45008000D03*
X81407000Y-44608000D03*
X78327000Y-44608000D03*
X81407000Y-44208000D03*
X78327000Y-44208000D03*
X81407000Y-43808000D03*
X78327000Y-43808000D03*
X81407000Y-43408000D03*
X78327000Y-43408000D03*
X81407000Y-43008000D03*
X78327000Y-43008000D03*
X81407000Y-42608000D03*
X78327000Y-42608000D03*
X81407000Y-42208000D03*
X78327000Y-42208000D03*
X81407000Y-41808000D03*
X78327000Y-41808000D03*
X81407000Y-41408000D03*
X78327000Y-41408000D03*
X81407000Y-41008000D03*
X78327000Y-41008000D03*
X81407000Y-40608000D03*
X78327000Y-40608000D03*
X81407000Y-40208000D03*
X78327000Y-40208000D03*
X81407000Y-39808000D03*
X78327000Y-39808000D03*
X81407000Y-39408000D03*
X78327000Y-39408000D03*
X81407000Y-39008000D03*
X78327000Y-39008000D03*
X81407000Y-38608000D03*
X78327000Y-38608000D03*
X81407000Y-38208000D03*
X78327000Y-38208000D03*
X81407000Y-37808000D03*
X78327000Y-37808000D03*
X81407000Y-37408000D03*
X78327000Y-37408000D03*
X81407000Y-37008000D03*
X78327000Y-37008000D03*
X81407000Y-36608000D03*
X78327000Y-36608000D03*
X81407000Y-36208000D03*
X78327000Y-36208000D03*
X81407000Y-35808000D03*
X78327000Y-35808000D03*
X81407000Y-35408000D03*
X78327000Y-35408000D03*
X81407000Y-35008000D03*
X78327000Y-35008000D03*
D18*
X69046000Y-44831000D03*
X70146000Y-44831000D03*
D11*
X23552000Y-206367000D03*
X21152000Y-206367000D03*
D12*
X25552000Y-208867000D03*
X19152000Y-208867000D03*
D13*
X23652000Y-209042000D03*
X23002000Y-209042000D03*
X22352000Y-209042000D03*
X21702000Y-209042000D03*
X21052000Y-209042000D03*
D14*
X25527000Y-206367000D03*
X19177000Y-206367000D03*
D15*
X33655000Y-228431000D03*
X33655000Y-229531000D03*
X36703000Y-224197000D03*
X36703000Y-223097000D03*
D16*
X16325000Y-227457000D03*
X15425000Y-227457000D03*
D17*
X15461000Y-237109000D03*
X20861000Y-237109000D03*
X15461000Y-235839000D03*
X20861000Y-235839000D03*
X15461000Y-234569000D03*
X20861000Y-234569000D03*
X15461000Y-233299000D03*
X20861000Y-233299000D03*
X15461000Y-232029000D03*
X20861000Y-232029000D03*
X15461000Y-230759000D03*
X20861000Y-230759000D03*
X15461000Y-229489000D03*
X20861000Y-229489000D03*
D15*
X18288000Y-239353000D03*
X18288000Y-240453000D03*
D18*
X24342000Y-237109000D03*
X25442000Y-237109000D03*
D19*
X23953000Y-259334000D03*
X22733000Y-259334000D03*
D20*
X23343000Y-260854000D03*
D21*
X26576000Y-259380500D03*
X27526000Y-259380500D03*
D22*
X27051000Y-260858000D03*
D23*
X32181000Y-259009000D03*
D24*
X32132000Y-261746000D03*
X34162000Y-261746000D03*
D23*
X34113000Y-259009000D03*
D25*
X33147000Y-259009000D03*
D26*
X33147000Y-261112000D03*
D16*
X46246200Y-237337600D03*
X45346200Y-237337600D03*
X45027000Y-231216200D03*
X44127000Y-231216200D03*
X46271600Y-240080800D03*
X45371600Y-240080800D03*
D27*
X45840200Y-233864600D03*
X44990200Y-233864600D03*
X45840200Y-234714600D03*
X44990200Y-234714600D03*
D28*
X15113000Y-252476000D03*
D29*
X15113000Y-249936000D03*
D16*
X45143000Y-226060000D03*
X46043000Y-226060000D03*
D30*
X29210000Y-209815000D03*
X29210000Y-208915000D03*
D16*
X29268000Y-220980000D03*
X30168000Y-220980000D03*
D31*
X45040000Y-208788000D03*
X43940000Y-208788000D03*
X42840000Y-208788000D03*
X41740000Y-208788000D03*
X40640000Y-208788000D03*
X39540000Y-208788000D03*
X38440000Y-208788000D03*
X37340000Y-208788000D03*
D32*
X45930000Y-206738000D03*
D33*
X32610000Y-206488000D03*
D34*
X46255000Y-213368000D03*
D35*
X32330000Y-214463000D03*
D36*
X46255000Y-218448000D03*
D37*
X32355000Y-220388000D03*
D38*
X46030000Y-219953000D03*
D39*
X46005000Y-220613000D03*
D40*
X33950400Y-225887800D03*
X33950400Y-225237800D03*
X33950400Y-224587800D03*
X33950400Y-223937800D03*
D41*
X33075400Y-223062800D03*
D40*
X30250400Y-225887800D03*
D41*
X33075400Y-226762800D03*
X32425400Y-223062800D03*
X31775400Y-223062800D03*
X31125400Y-223062800D03*
D40*
X30250400Y-225237800D03*
X30250400Y-224587800D03*
X30250400Y-223937800D03*
D41*
X32425400Y-226762800D03*
X31775400Y-226762800D03*
X31125400Y-226762800D03*
D42*
X15278100Y-212189060D03*
D43*
X20828000Y-214538560D03*
X20828000Y-216535000D03*
D42*
X15278100Y-218884500D03*
D44*
X28320000Y-215646000D03*
X25020000Y-218146000D03*
X25020000Y-213146000D03*
D30*
X33274000Y-238081400D03*
X33274000Y-238981400D03*
D45*
X15936000Y-258953000D03*
X14986000Y-258953000D03*
X14036000Y-258953000D03*
X14036000Y-261303000D03*
X15936000Y-261303000D03*
D46*
X20463000Y-246125000D03*
X20463000Y-249175000D03*
X20963000Y-246125000D03*
X20963000Y-249175000D03*
X21463000Y-246125000D03*
X21463000Y-249175000D03*
X21963000Y-246125000D03*
X21963000Y-249175000D03*
X22463000Y-246125000D03*
X22463000Y-249175000D03*
D47*
X31369000Y-245618000D03*
X28448000Y-256032000D03*
X25146000Y-256032000D03*
X24892000Y-241300000D03*
X26670000Y-235204000D03*
X20193000Y-240919000D03*
X34671000Y-253492000D03*
D48*
X33152000Y-245618000D03*
X35052000Y-245618000D03*
X34102000Y-243468000D03*
D49*
X27783000Y-250952000D03*
X28433000Y-250952000D03*
X29083000Y-250952000D03*
X29733000Y-250952000D03*
X29733000Y-248362000D03*
X29083000Y-248362000D03*
X28433000Y-248362000D03*
X27783000Y-248362000D03*
D50*
X26802000Y-238618000D03*
X26802000Y-239268000D03*
X26802000Y-239918000D03*
X28702000Y-239918000D03*
X28702000Y-238618000D03*
D51*
X24424600Y-226009200D03*
X25374600Y-226009200D03*
X26324600Y-226009200D03*
X26324600Y-223209200D03*
X24424600Y-223209200D03*
D16*
X31935000Y-247523000D03*
X32835000Y-247523000D03*
X28506000Y-246126000D03*
X29406000Y-246126000D03*
X26739000Y-254000000D03*
X25839000Y-254000000D03*
D30*
X24130000Y-239591000D03*
X24130000Y-238691000D03*
D16*
X29406000Y-254000000D03*
X28506000Y-254000000D03*
D30*
X22479000Y-239834000D03*
X22479000Y-240734000D03*
X26797000Y-242639000D03*
X26797000Y-241739000D03*
D16*
X24950000Y-250952000D03*
X25850000Y-250952000D03*
X26739000Y-244602000D03*
X25839000Y-244602000D03*
X22675000Y-223139000D03*
X21775000Y-223139000D03*
X16325000Y-223520000D03*
X15425000Y-223520000D03*
D18*
X15452000Y-221615000D03*
X16552000Y-221615000D03*
D52*
X18173000Y-261874000D03*
X19673000Y-261874000D03*
D15*
X32004000Y-243882000D03*
X32004000Y-242782000D03*
D52*
X15990000Y-256413000D03*
X14490000Y-256413000D03*
D18*
X19219000Y-258953000D03*
X18119000Y-258953000D03*
D53*
X29845000Y-242939000D03*
X29845000Y-241439000D03*
D15*
X29972000Y-260435000D03*
X29972000Y-261535000D03*
D18*
X22564000Y-242951000D03*
X23664000Y-242951000D03*
X31708000Y-249682000D03*
X32808000Y-249682000D03*
X20997000Y-242951000D03*
X19897000Y-242951000D03*
X22564000Y-244475000D03*
X23664000Y-244475000D03*
X20997000Y-244475000D03*
X19897000Y-244475000D03*
X29633000Y-244602000D03*
X28533000Y-244602000D03*
X35137000Y-248412000D03*
X36237000Y-248412000D03*
X26458000Y-248412000D03*
X25358000Y-248412000D03*
D52*
X28829000Y-235458000D03*
X30329000Y-235458000D03*
X26404000Y-246634000D03*
X24904000Y-246634000D03*
D15*
X24257000Y-252942000D03*
X24257000Y-254042000D03*
X18288000Y-248116000D03*
X18288000Y-249216000D03*
D18*
X32935000Y-240792000D03*
X31835000Y-240792000D03*
X31200000Y-254000000D03*
X32300000Y-254000000D03*
X26331000Y-227965000D03*
X25231000Y-227965000D03*
X26441400Y-221081600D03*
X25341400Y-221081600D03*
X35348000Y-256540000D03*
X34248000Y-256540000D03*
X31708000Y-251714000D03*
X32808000Y-251714000D03*
D54*
X15113000Y-245491000D03*
D55*
X15113000Y-242951000D03*
X15113000Y-240411000D03*
D56*
X41148000Y-241013000D03*
X38068000Y-241013000D03*
X41148000Y-240613000D03*
X38068000Y-240613000D03*
X41148000Y-240213000D03*
X38068000Y-240213000D03*
X41148000Y-239813000D03*
X38068000Y-239813000D03*
X41148000Y-239413000D03*
X38068000Y-239413000D03*
X41148000Y-239013000D03*
X38068000Y-239013000D03*
X41148000Y-238613000D03*
X38068000Y-238613000D03*
X41148000Y-238213000D03*
X38068000Y-238213000D03*
X41148000Y-237813000D03*
X38068000Y-237813000D03*
X41148000Y-237413000D03*
X38068000Y-237413000D03*
X41148000Y-237013000D03*
X38068000Y-237013000D03*
X41148000Y-236613000D03*
X38068000Y-236613000D03*
X41148000Y-236213000D03*
X38068000Y-236213000D03*
X41148000Y-235813000D03*
X38068000Y-235813000D03*
X41148000Y-235413000D03*
X38068000Y-235413000D03*
X41148000Y-235013000D03*
X38068000Y-235013000D03*
X41148000Y-234613000D03*
X38068000Y-234613000D03*
X41148000Y-234213000D03*
X38068000Y-234213000D03*
X41148000Y-233813000D03*
X38068000Y-233813000D03*
X41148000Y-233413000D03*
X38068000Y-233413000D03*
X41148000Y-233013000D03*
X38068000Y-233013000D03*
X41148000Y-232613000D03*
X38068000Y-232613000D03*
X41148000Y-232213000D03*
X38068000Y-232213000D03*
X41148000Y-231813000D03*
X38068000Y-231813000D03*
X41148000Y-231413000D03*
X38068000Y-231413000D03*
X41148000Y-231013000D03*
X38068000Y-231013000D03*
X41148000Y-230613000D03*
X38068000Y-230613000D03*
X41148000Y-230213000D03*
X38068000Y-230213000D03*
X41148000Y-229813000D03*
X38068000Y-229813000D03*
X41148000Y-229413000D03*
X38068000Y-229413000D03*
X41148000Y-229013000D03*
X38068000Y-229013000D03*
X41148000Y-228613000D03*
X38068000Y-228613000D03*
X41148000Y-228213000D03*
X38068000Y-228213000D03*
X41148000Y-227813000D03*
X38068000Y-227813000D03*
X41148000Y-227413000D03*
X38068000Y-227413000D03*
D18*
X28787000Y-237236000D03*
X29887000Y-237236000D03*
D11*
X23552000Y-142232000D03*
X21152000Y-142232000D03*
D12*
X25552000Y-144732000D03*
X19152000Y-144732000D03*
D13*
X23652000Y-144907000D03*
X23002000Y-144907000D03*
X22352000Y-144907000D03*
X21702000Y-144907000D03*
X21052000Y-144907000D03*
D14*
X25527000Y-142232000D03*
X19177000Y-142232000D03*
D15*
X33655000Y-164296000D03*
X33655000Y-165396000D03*
X36703000Y-160062000D03*
X36703000Y-158962000D03*
D16*
X16325000Y-163322000D03*
X15425000Y-163322000D03*
D17*
X15461000Y-172974000D03*
X20861000Y-172974000D03*
X15461000Y-171704000D03*
X20861000Y-171704000D03*
X15461000Y-170434000D03*
X20861000Y-170434000D03*
X15461000Y-169164000D03*
X20861000Y-169164000D03*
X15461000Y-167894000D03*
X20861000Y-167894000D03*
X15461000Y-166624000D03*
X20861000Y-166624000D03*
X15461000Y-165354000D03*
X20861000Y-165354000D03*
D15*
X18288000Y-175218000D03*
X18288000Y-176318000D03*
D18*
X24342000Y-172974000D03*
X25442000Y-172974000D03*
D19*
X23953000Y-195199000D03*
X22733000Y-195199000D03*
D20*
X23343000Y-196719000D03*
D21*
X26576000Y-195245500D03*
X27526000Y-195245500D03*
D22*
X27051000Y-196723000D03*
D23*
X32181000Y-194874000D03*
D24*
X32132000Y-197611000D03*
X34162000Y-197611000D03*
D23*
X34113000Y-194874000D03*
D25*
X33147000Y-194874000D03*
D26*
X33147000Y-196977000D03*
D16*
X46246200Y-173202600D03*
X45346200Y-173202600D03*
X45027000Y-167081200D03*
X44127000Y-167081200D03*
X46271600Y-175945800D03*
X45371600Y-175945800D03*
D27*
X45840200Y-169729600D03*
X44990200Y-169729600D03*
X45840200Y-170579600D03*
X44990200Y-170579600D03*
D28*
X15113000Y-188341000D03*
D29*
X15113000Y-185801000D03*
D16*
X45143000Y-161925000D03*
X46043000Y-161925000D03*
D30*
X29210000Y-145680000D03*
X29210000Y-144780000D03*
D16*
X29268000Y-156845000D03*
X30168000Y-156845000D03*
D31*
X45040000Y-144653000D03*
X43940000Y-144653000D03*
X42840000Y-144653000D03*
X41740000Y-144653000D03*
X40640000Y-144653000D03*
X39540000Y-144653000D03*
X38440000Y-144653000D03*
X37340000Y-144653000D03*
D32*
X45930000Y-142603000D03*
D33*
X32610000Y-142353000D03*
D34*
X46255000Y-149233000D03*
D35*
X32330000Y-150328000D03*
D36*
X46255000Y-154313000D03*
D37*
X32355000Y-156253000D03*
D38*
X46030000Y-155818000D03*
D39*
X46005000Y-156478000D03*
D40*
X33950400Y-161752800D03*
X33950400Y-161102800D03*
X33950400Y-160452800D03*
X33950400Y-159802800D03*
D41*
X33075400Y-158927800D03*
D40*
X30250400Y-161752800D03*
D41*
X33075400Y-162627800D03*
X32425400Y-158927800D03*
X31775400Y-158927800D03*
X31125400Y-158927800D03*
D40*
X30250400Y-161102800D03*
X30250400Y-160452800D03*
X30250400Y-159802800D03*
D41*
X32425400Y-162627800D03*
X31775400Y-162627800D03*
X31125400Y-162627800D03*
D42*
X15278100Y-148054060D03*
D43*
X20828000Y-150403560D03*
X20828000Y-152400000D03*
D42*
X15278100Y-154749500D03*
D44*
X28320000Y-151511000D03*
X25020000Y-154011000D03*
X25020000Y-149011000D03*
D30*
X33274000Y-173946400D03*
X33274000Y-174846400D03*
D45*
X15936000Y-194818000D03*
X14986000Y-194818000D03*
X14036000Y-194818000D03*
X14036000Y-197168000D03*
X15936000Y-197168000D03*
D46*
X20463000Y-181990000D03*
X20463000Y-185040000D03*
X20963000Y-181990000D03*
X20963000Y-185040000D03*
X21463000Y-181990000D03*
X21463000Y-185040000D03*
X21963000Y-181990000D03*
X21963000Y-185040000D03*
X22463000Y-181990000D03*
X22463000Y-185040000D03*
D47*
X31369000Y-181483000D03*
X28448000Y-191897000D03*
X25146000Y-191897000D03*
X24892000Y-177165000D03*
X26670000Y-171069000D03*
X20193000Y-176784000D03*
X34671000Y-189357000D03*
D48*
X33152000Y-181483000D03*
X35052000Y-181483000D03*
X34102000Y-179333000D03*
D49*
X27783000Y-186817000D03*
X28433000Y-186817000D03*
X29083000Y-186817000D03*
X29733000Y-186817000D03*
X29733000Y-184227000D03*
X29083000Y-184227000D03*
X28433000Y-184227000D03*
X27783000Y-184227000D03*
D50*
X26802000Y-174483000D03*
X26802000Y-175133000D03*
X26802000Y-175783000D03*
X28702000Y-175783000D03*
X28702000Y-174483000D03*
D51*
X24424600Y-161874200D03*
X25374600Y-161874200D03*
X26324600Y-161874200D03*
X26324600Y-159074200D03*
X24424600Y-159074200D03*
D16*
X31935000Y-183388000D03*
X32835000Y-183388000D03*
X28506000Y-181991000D03*
X29406000Y-181991000D03*
X26739000Y-189865000D03*
X25839000Y-189865000D03*
D30*
X24130000Y-175456000D03*
X24130000Y-174556000D03*
D16*
X29406000Y-189865000D03*
X28506000Y-189865000D03*
D30*
X22479000Y-175699000D03*
X22479000Y-176599000D03*
X26797000Y-178504000D03*
X26797000Y-177604000D03*
D16*
X24950000Y-186817000D03*
X25850000Y-186817000D03*
X26739000Y-180467000D03*
X25839000Y-180467000D03*
X22675000Y-159004000D03*
X21775000Y-159004000D03*
X16325000Y-159385000D03*
X15425000Y-159385000D03*
D18*
X15452000Y-157480000D03*
X16552000Y-157480000D03*
D52*
X18173000Y-197739000D03*
X19673000Y-197739000D03*
D15*
X32004000Y-179747000D03*
X32004000Y-178647000D03*
D52*
X15990000Y-192278000D03*
X14490000Y-192278000D03*
D18*
X19219000Y-194818000D03*
X18119000Y-194818000D03*
D53*
X29845000Y-178804000D03*
X29845000Y-177304000D03*
D15*
X29972000Y-196300000D03*
X29972000Y-197400000D03*
D18*
X22564000Y-178816000D03*
X23664000Y-178816000D03*
X31708000Y-185547000D03*
X32808000Y-185547000D03*
X20997000Y-178816000D03*
X19897000Y-178816000D03*
X22564000Y-180340000D03*
X23664000Y-180340000D03*
X20997000Y-180340000D03*
X19897000Y-180340000D03*
X29633000Y-180467000D03*
X28533000Y-180467000D03*
X35137000Y-184277000D03*
X36237000Y-184277000D03*
X26458000Y-184277000D03*
X25358000Y-184277000D03*
D52*
X28829000Y-171323000D03*
X30329000Y-171323000D03*
X26404000Y-182499000D03*
X24904000Y-182499000D03*
D15*
X24257000Y-188807000D03*
X24257000Y-189907000D03*
X18288000Y-183981000D03*
X18288000Y-185081000D03*
D18*
X32935000Y-176657000D03*
X31835000Y-176657000D03*
X31200000Y-189865000D03*
X32300000Y-189865000D03*
X26331000Y-163830000D03*
X25231000Y-163830000D03*
X26441400Y-156946600D03*
X25341400Y-156946600D03*
X35348000Y-192405000D03*
X34248000Y-192405000D03*
X31708000Y-187579000D03*
X32808000Y-187579000D03*
D54*
X15113000Y-181356000D03*
D55*
X15113000Y-178816000D03*
X15113000Y-176276000D03*
D56*
X41148000Y-176878000D03*
X38068000Y-176878000D03*
X41148000Y-176478000D03*
X38068000Y-176478000D03*
X41148000Y-176078000D03*
X38068000Y-176078000D03*
X41148000Y-175678000D03*
X38068000Y-175678000D03*
X41148000Y-175278000D03*
X38068000Y-175278000D03*
X41148000Y-174878000D03*
X38068000Y-174878000D03*
X41148000Y-174478000D03*
X38068000Y-174478000D03*
X41148000Y-174078000D03*
X38068000Y-174078000D03*
X41148000Y-173678000D03*
X38068000Y-173678000D03*
X41148000Y-173278000D03*
X38068000Y-173278000D03*
X41148000Y-172878000D03*
X38068000Y-172878000D03*
X41148000Y-172478000D03*
X38068000Y-172478000D03*
X41148000Y-172078000D03*
X38068000Y-172078000D03*
X41148000Y-171678000D03*
X38068000Y-171678000D03*
X41148000Y-171278000D03*
X38068000Y-171278000D03*
X41148000Y-170878000D03*
X38068000Y-170878000D03*
X41148000Y-170478000D03*
X38068000Y-170478000D03*
X41148000Y-170078000D03*
X38068000Y-170078000D03*
X41148000Y-169678000D03*
X38068000Y-169678000D03*
X41148000Y-169278000D03*
X38068000Y-169278000D03*
X41148000Y-168878000D03*
X38068000Y-168878000D03*
X41148000Y-168478000D03*
X38068000Y-168478000D03*
X41148000Y-168078000D03*
X38068000Y-168078000D03*
X41148000Y-167678000D03*
X38068000Y-167678000D03*
X41148000Y-167278000D03*
X38068000Y-167278000D03*
X41148000Y-166878000D03*
X38068000Y-166878000D03*
X41148000Y-166478000D03*
X38068000Y-166478000D03*
X41148000Y-166078000D03*
X38068000Y-166078000D03*
X41148000Y-165678000D03*
X38068000Y-165678000D03*
X41148000Y-165278000D03*
X38068000Y-165278000D03*
X41148000Y-164878000D03*
X38068000Y-164878000D03*
X41148000Y-164478000D03*
X38068000Y-164478000D03*
X41148000Y-164078000D03*
X38068000Y-164078000D03*
X41148000Y-163678000D03*
X38068000Y-163678000D03*
X41148000Y-163278000D03*
X38068000Y-163278000D03*
D18*
X28787000Y-173101000D03*
X29887000Y-173101000D03*
D11*
X23552000Y-78097000D03*
X21152000Y-78097000D03*
D12*
X25552000Y-80597000D03*
X19152000Y-80597000D03*
D13*
X23652000Y-80772000D03*
X23002000Y-80772000D03*
X22352000Y-80772000D03*
X21702000Y-80772000D03*
X21052000Y-80772000D03*
D14*
X25527000Y-78097000D03*
X19177000Y-78097000D03*
D15*
X33655000Y-100161000D03*
X33655000Y-101261000D03*
X36703000Y-95927000D03*
X36703000Y-94827000D03*
D16*
X16325000Y-99187000D03*
X15425000Y-99187000D03*
D17*
X15461000Y-108839000D03*
X20861000Y-108839000D03*
X15461000Y-107569000D03*
X20861000Y-107569000D03*
X15461000Y-106299000D03*
X20861000Y-106299000D03*
X15461000Y-105029000D03*
X20861000Y-105029000D03*
X15461000Y-103759000D03*
X20861000Y-103759000D03*
X15461000Y-102489000D03*
X20861000Y-102489000D03*
X15461000Y-101219000D03*
X20861000Y-101219000D03*
D15*
X18288000Y-111083000D03*
X18288000Y-112183000D03*
D18*
X24342000Y-108839000D03*
X25442000Y-108839000D03*
D19*
X23953000Y-131064000D03*
X22733000Y-131064000D03*
D20*
X23343000Y-132584000D03*
D21*
X26576000Y-131110500D03*
X27526000Y-131110500D03*
D22*
X27051000Y-132588000D03*
D23*
X32181000Y-130739000D03*
D24*
X32132000Y-133476000D03*
X34162000Y-133476000D03*
D23*
X34113000Y-130739000D03*
D25*
X33147000Y-130739000D03*
D26*
X33147000Y-132842000D03*
D16*
X46246200Y-109067600D03*
X45346200Y-109067600D03*
X45027000Y-102946200D03*
X44127000Y-102946200D03*
X46271600Y-111810800D03*
X45371600Y-111810800D03*
D27*
X45840200Y-105594600D03*
X44990200Y-105594600D03*
X45840200Y-106444600D03*
X44990200Y-106444600D03*
D28*
X15113000Y-124206000D03*
D29*
X15113000Y-121666000D03*
D16*
X45143000Y-97790000D03*
X46043000Y-97790000D03*
D30*
X29210000Y-81545000D03*
X29210000Y-80645000D03*
D16*
X29268000Y-92710000D03*
X30168000Y-92710000D03*
D31*
X45040000Y-80518000D03*
X43940000Y-80518000D03*
X42840000Y-80518000D03*
X41740000Y-80518000D03*
X40640000Y-80518000D03*
X39540000Y-80518000D03*
X38440000Y-80518000D03*
X37340000Y-80518000D03*
D32*
X45930000Y-78468000D03*
D33*
X32610000Y-78218000D03*
D34*
X46255000Y-85098000D03*
D35*
X32330000Y-86193000D03*
D36*
X46255000Y-90178000D03*
D37*
X32355000Y-92118000D03*
D38*
X46030000Y-91683000D03*
D39*
X46005000Y-92343000D03*
D40*
X33950400Y-97617800D03*
X33950400Y-96967800D03*
X33950400Y-96317800D03*
X33950400Y-95667800D03*
D41*
X33075400Y-94792800D03*
D40*
X30250400Y-97617800D03*
D41*
X33075400Y-98492800D03*
X32425400Y-94792800D03*
X31775400Y-94792800D03*
X31125400Y-94792800D03*
D40*
X30250400Y-96967800D03*
X30250400Y-96317800D03*
X30250400Y-95667800D03*
D41*
X32425400Y-98492800D03*
X31775400Y-98492800D03*
X31125400Y-98492800D03*
D42*
X15278100Y-83919060D03*
D43*
X20828000Y-86268560D03*
X20828000Y-88265000D03*
D42*
X15278100Y-90614500D03*
D44*
X28320000Y-87376000D03*
X25020000Y-89876000D03*
X25020000Y-84876000D03*
D30*
X33274000Y-109811400D03*
X33274000Y-110711400D03*
D45*
X15936000Y-130683000D03*
X14986000Y-130683000D03*
X14036000Y-130683000D03*
X14036000Y-133033000D03*
X15936000Y-133033000D03*
D46*
X20463000Y-117855000D03*
X20463000Y-120905000D03*
X20963000Y-117855000D03*
X20963000Y-120905000D03*
X21463000Y-117855000D03*
X21463000Y-120905000D03*
X21963000Y-117855000D03*
X21963000Y-120905000D03*
X22463000Y-117855000D03*
X22463000Y-120905000D03*
D47*
X31369000Y-117348000D03*
X28448000Y-127762000D03*
X25146000Y-127762000D03*
X24892000Y-113030000D03*
X26670000Y-106934000D03*
X20193000Y-112649000D03*
X34671000Y-125222000D03*
D48*
X33152000Y-117348000D03*
X35052000Y-117348000D03*
X34102000Y-115198000D03*
D49*
X27783000Y-122682000D03*
X28433000Y-122682000D03*
X29083000Y-122682000D03*
X29733000Y-122682000D03*
X29733000Y-120092000D03*
X29083000Y-120092000D03*
X28433000Y-120092000D03*
X27783000Y-120092000D03*
D50*
X26802000Y-110348000D03*
X26802000Y-110998000D03*
X26802000Y-111648000D03*
X28702000Y-111648000D03*
X28702000Y-110348000D03*
D51*
X24424600Y-97739200D03*
X25374600Y-97739200D03*
X26324600Y-97739200D03*
X26324600Y-94939200D03*
X24424600Y-94939200D03*
D16*
X31935000Y-119253000D03*
X32835000Y-119253000D03*
X28506000Y-117856000D03*
X29406000Y-117856000D03*
X26739000Y-125730000D03*
X25839000Y-125730000D03*
D30*
X24130000Y-111321000D03*
X24130000Y-110421000D03*
D16*
X29406000Y-125730000D03*
X28506000Y-125730000D03*
D30*
X22479000Y-111564000D03*
X22479000Y-112464000D03*
X26797000Y-114369000D03*
X26797000Y-113469000D03*
D16*
X24950000Y-122682000D03*
X25850000Y-122682000D03*
X26739000Y-116332000D03*
X25839000Y-116332000D03*
X22675000Y-94869000D03*
X21775000Y-94869000D03*
X16325000Y-95250000D03*
X15425000Y-95250000D03*
D18*
X15452000Y-93345000D03*
X16552000Y-93345000D03*
D52*
X18173000Y-133604000D03*
X19673000Y-133604000D03*
D15*
X32004000Y-115612000D03*
X32004000Y-114512000D03*
D52*
X15990000Y-128143000D03*
X14490000Y-128143000D03*
D18*
X19219000Y-130683000D03*
X18119000Y-130683000D03*
D53*
X29845000Y-114669000D03*
X29845000Y-113169000D03*
D15*
X29972000Y-132165000D03*
X29972000Y-133265000D03*
D18*
X22564000Y-114681000D03*
X23664000Y-114681000D03*
X31708000Y-121412000D03*
X32808000Y-121412000D03*
X20997000Y-114681000D03*
X19897000Y-114681000D03*
X22564000Y-116205000D03*
X23664000Y-116205000D03*
X20997000Y-116205000D03*
X19897000Y-116205000D03*
X29633000Y-116332000D03*
X28533000Y-116332000D03*
X35137000Y-120142000D03*
X36237000Y-120142000D03*
X26458000Y-120142000D03*
X25358000Y-120142000D03*
D52*
X28829000Y-107188000D03*
X30329000Y-107188000D03*
X26404000Y-118364000D03*
X24904000Y-118364000D03*
D15*
X24257000Y-124672000D03*
X24257000Y-125772000D03*
X18288000Y-119846000D03*
X18288000Y-120946000D03*
D18*
X32935000Y-112522000D03*
X31835000Y-112522000D03*
X31200000Y-125730000D03*
X32300000Y-125730000D03*
X26331000Y-99695000D03*
X25231000Y-99695000D03*
X26441400Y-92811600D03*
X25341400Y-92811600D03*
X35348000Y-128270000D03*
X34248000Y-128270000D03*
X31708000Y-123444000D03*
X32808000Y-123444000D03*
D54*
X15113000Y-117221000D03*
D55*
X15113000Y-114681000D03*
X15113000Y-112141000D03*
D56*
X41148000Y-112743000D03*
X38068000Y-112743000D03*
X41148000Y-112343000D03*
X38068000Y-112343000D03*
X41148000Y-111943000D03*
X38068000Y-111943000D03*
X41148000Y-111543000D03*
X38068000Y-111543000D03*
X41148000Y-111143000D03*
X38068000Y-111143000D03*
X41148000Y-110743000D03*
X38068000Y-110743000D03*
X41148000Y-110343000D03*
X38068000Y-110343000D03*
X41148000Y-109943000D03*
X38068000Y-109943000D03*
X41148000Y-109543000D03*
X38068000Y-109543000D03*
X41148000Y-109143000D03*
X38068000Y-109143000D03*
X41148000Y-108743000D03*
X38068000Y-108743000D03*
X41148000Y-108343000D03*
X38068000Y-108343000D03*
X41148000Y-107943000D03*
X38068000Y-107943000D03*
X41148000Y-107543000D03*
X38068000Y-107543000D03*
X41148000Y-107143000D03*
X38068000Y-107143000D03*
X41148000Y-106743000D03*
X38068000Y-106743000D03*
X41148000Y-106343000D03*
X38068000Y-106343000D03*
X41148000Y-105943000D03*
X38068000Y-105943000D03*
X41148000Y-105543000D03*
X38068000Y-105543000D03*
X41148000Y-105143000D03*
X38068000Y-105143000D03*
X41148000Y-104743000D03*
X38068000Y-104743000D03*
X41148000Y-104343000D03*
X38068000Y-104343000D03*
X41148000Y-103943000D03*
X38068000Y-103943000D03*
X41148000Y-103543000D03*
X38068000Y-103543000D03*
X41148000Y-103143000D03*
X38068000Y-103143000D03*
X41148000Y-102743000D03*
X38068000Y-102743000D03*
X41148000Y-102343000D03*
X38068000Y-102343000D03*
X41148000Y-101943000D03*
X38068000Y-101943000D03*
X41148000Y-101543000D03*
X38068000Y-101543000D03*
X41148000Y-101143000D03*
X38068000Y-101143000D03*
X41148000Y-100743000D03*
X38068000Y-100743000D03*
X41148000Y-100343000D03*
X38068000Y-100343000D03*
X41148000Y-99943000D03*
X38068000Y-99943000D03*
X41148000Y-99543000D03*
X38068000Y-99543000D03*
X41148000Y-99143000D03*
X38068000Y-99143000D03*
D18*
X28787000Y-108966000D03*
X29887000Y-108966000D03*
X28787000Y-44831000D03*
X29887000Y-44831000D03*
D56*
X41148000Y-48608000D03*
X38068000Y-48608000D03*
X41148000Y-48208000D03*
X38068000Y-48208000D03*
X41148000Y-47808000D03*
X38068000Y-47808000D03*
X41148000Y-47408000D03*
X38068000Y-47408000D03*
X41148000Y-47008000D03*
X38068000Y-47008000D03*
X41148000Y-46608000D03*
X38068000Y-46608000D03*
X41148000Y-46208000D03*
X38068000Y-46208000D03*
X41148000Y-45808000D03*
X38068000Y-45808000D03*
X41148000Y-45408000D03*
X38068000Y-45408000D03*
X41148000Y-45008000D03*
X38068000Y-45008000D03*
X41148000Y-44608000D03*
X38068000Y-44608000D03*
X41148000Y-44208000D03*
X38068000Y-44208000D03*
X41148000Y-43808000D03*
X38068000Y-43808000D03*
X41148000Y-43408000D03*
X38068000Y-43408000D03*
X41148000Y-43008000D03*
X38068000Y-43008000D03*
X41148000Y-42608000D03*
X38068000Y-42608000D03*
X41148000Y-42208000D03*
X38068000Y-42208000D03*
X41148000Y-41808000D03*
X38068000Y-41808000D03*
X41148000Y-41408000D03*
X38068000Y-41408000D03*
X41148000Y-41008000D03*
X38068000Y-41008000D03*
X41148000Y-40608000D03*
X38068000Y-40608000D03*
X41148000Y-40208000D03*
X38068000Y-40208000D03*
X41148000Y-39808000D03*
X38068000Y-39808000D03*
X41148000Y-39408000D03*
X38068000Y-39408000D03*
X41148000Y-39008000D03*
X38068000Y-39008000D03*
X41148000Y-38608000D03*
X38068000Y-38608000D03*
X41148000Y-38208000D03*
X38068000Y-38208000D03*
X41148000Y-37808000D03*
X38068000Y-37808000D03*
X41148000Y-37408000D03*
X38068000Y-37408000D03*
X41148000Y-37008000D03*
X38068000Y-37008000D03*
X41148000Y-36608000D03*
X38068000Y-36608000D03*
X41148000Y-36208000D03*
X38068000Y-36208000D03*
X41148000Y-35808000D03*
X38068000Y-35808000D03*
X41148000Y-35408000D03*
X38068000Y-35408000D03*
X41148000Y-35008000D03*
X38068000Y-35008000D03*
D54*
X15113000Y-53086000D03*
D55*
X15113000Y-50546000D03*
X15113000Y-48006000D03*
D18*
X31708000Y-59309000D03*
X32808000Y-59309000D03*
X35348000Y-64135000D03*
X34248000Y-64135000D03*
X26441400Y-28676600D03*
X25341400Y-28676600D03*
X26331000Y-35560000D03*
X25231000Y-35560000D03*
X31200000Y-61595000D03*
X32300000Y-61595000D03*
X32935000Y-48387000D03*
X31835000Y-48387000D03*
D15*
X18288000Y-55711000D03*
X18288000Y-56811000D03*
X24257000Y-60537000D03*
X24257000Y-61637000D03*
D52*
X26404000Y-54229000D03*
X24904000Y-54229000D03*
X28829000Y-43053000D03*
X30329000Y-43053000D03*
D18*
X26458000Y-56007000D03*
X25358000Y-56007000D03*
X35137000Y-56007000D03*
X36237000Y-56007000D03*
X29633000Y-52197000D03*
X28533000Y-52197000D03*
X20997000Y-52070000D03*
X19897000Y-52070000D03*
X22564000Y-52070000D03*
X23664000Y-52070000D03*
X20997000Y-50546000D03*
X19897000Y-50546000D03*
X31708000Y-57277000D03*
X32808000Y-57277000D03*
X22564000Y-50546000D03*
X23664000Y-50546000D03*
D15*
X29972000Y-68030000D03*
X29972000Y-69130000D03*
D53*
X29845000Y-50534000D03*
X29845000Y-49034000D03*
D18*
X19219000Y-66548000D03*
X18119000Y-66548000D03*
D52*
X15990000Y-64008000D03*
X14490000Y-64008000D03*
D15*
X32004000Y-51477000D03*
X32004000Y-50377000D03*
D52*
X18173000Y-69469000D03*
X19673000Y-69469000D03*
D18*
X15452000Y-29210000D03*
X16552000Y-29210000D03*
D16*
X16325000Y-31115000D03*
X15425000Y-31115000D03*
X22675000Y-30734000D03*
X21775000Y-30734000D03*
X26739000Y-52197000D03*
X25839000Y-52197000D03*
X24950000Y-58547000D03*
X25850000Y-58547000D03*
D30*
X26797000Y-50234000D03*
X26797000Y-49334000D03*
X22479000Y-47429000D03*
X22479000Y-48329000D03*
D16*
X29406000Y-61595000D03*
X28506000Y-61595000D03*
D30*
X24130000Y-47186000D03*
X24130000Y-46286000D03*
D16*
X26739000Y-61595000D03*
X25839000Y-61595000D03*
X28506000Y-53721000D03*
X29406000Y-53721000D03*
X31935000Y-55118000D03*
X32835000Y-55118000D03*
D51*
X24424600Y-33604200D03*
X25374600Y-33604200D03*
X26324600Y-33604200D03*
X26324600Y-30804200D03*
X24424600Y-30804200D03*
D50*
X26802000Y-46213000D03*
X26802000Y-46863000D03*
X26802000Y-47513000D03*
X28702000Y-47513000D03*
X28702000Y-46213000D03*
D49*
X27783000Y-58547000D03*
X28433000Y-58547000D03*
X29083000Y-58547000D03*
X29733000Y-58547000D03*
X29733000Y-55957000D03*
X29083000Y-55957000D03*
X28433000Y-55957000D03*
X27783000Y-55957000D03*
D48*
X33152000Y-53213000D03*
X35052000Y-53213000D03*
X34102000Y-51063000D03*
D47*
X34671000Y-61087000D03*
X20193000Y-48514000D03*
X26670000Y-42799000D03*
X24892000Y-48895000D03*
X25146000Y-63627000D03*
X28448000Y-63627000D03*
X31369000Y-53213000D03*
D46*
X20463000Y-53720000D03*
X20463000Y-56770000D03*
X20963000Y-53720000D03*
X20963000Y-56770000D03*
X21463000Y-53720000D03*
X21463000Y-56770000D03*
X21963000Y-53720000D03*
X21963000Y-56770000D03*
X22463000Y-53720000D03*
X22463000Y-56770000D03*
D45*
X15936000Y-66548000D03*
X14986000Y-66548000D03*
X14036000Y-66548000D03*
X14036000Y-68898000D03*
X15936000Y-68898000D03*
D30*
X33274000Y-45676400D03*
X33274000Y-46576400D03*
D44*
X28320000Y-23241000D03*
X25020000Y-25741000D03*
X25020000Y-20741000D03*
D42*
X15278100Y-19784060D03*
D43*
X20828000Y-22133560D03*
X20828000Y-24130000D03*
D42*
X15278100Y-26479500D03*
D40*
X33950400Y-33482800D03*
X33950400Y-32832800D03*
X33950400Y-32182800D03*
X33950400Y-31532800D03*
D41*
X33075400Y-30657800D03*
D40*
X30250400Y-33482800D03*
D41*
X33075400Y-34357800D03*
X32425400Y-30657800D03*
X31775400Y-30657800D03*
X31125400Y-30657800D03*
D40*
X30250400Y-32832800D03*
X30250400Y-32182800D03*
X30250400Y-31532800D03*
D41*
X32425400Y-34357800D03*
X31775400Y-34357800D03*
X31125400Y-34357800D03*
D31*
X45040000Y-16383000D03*
X43940000Y-16383000D03*
X42840000Y-16383000D03*
X41740000Y-16383000D03*
X40640000Y-16383000D03*
X39540000Y-16383000D03*
X38440000Y-16383000D03*
X37340000Y-16383000D03*
D32*
X45930000Y-14333000D03*
D33*
X32610000Y-14083000D03*
D34*
X46255000Y-20963000D03*
D35*
X32330000Y-22058000D03*
D36*
X46255000Y-26043000D03*
D37*
X32355000Y-27983000D03*
D38*
X46030000Y-27548000D03*
D39*
X46005000Y-28208000D03*
D16*
X29268000Y-28575000D03*
X30168000Y-28575000D03*
D30*
X29210000Y-17410000D03*
X29210000Y-16510000D03*
D16*
X45143000Y-33655000D03*
X46043000Y-33655000D03*
D28*
X15113000Y-60071000D03*
D29*
X15113000Y-57531000D03*
D27*
X45840200Y-41459600D03*
X44990200Y-41459600D03*
X45840200Y-42309600D03*
X44990200Y-42309600D03*
D16*
X46271600Y-47675800D03*
X45371600Y-47675800D03*
X45027000Y-38811200D03*
X44127000Y-38811200D03*
X46246200Y-44932600D03*
X45346200Y-44932600D03*
D23*
X32181000Y-66604000D03*
D24*
X32132000Y-69341000D03*
X34162000Y-69341000D03*
D23*
X34113000Y-66604000D03*
D25*
X33147000Y-66604000D03*
D26*
X33147000Y-68707000D03*
D21*
X26576000Y-66975500D03*
X27526000Y-66975500D03*
D22*
X27051000Y-68453000D03*
D19*
X23953000Y-66929000D03*
X22733000Y-66929000D03*
D20*
X23343000Y-68449000D03*
D18*
X24342000Y-44704000D03*
X25442000Y-44704000D03*
D15*
X18288000Y-46948000D03*
X18288000Y-48048000D03*
D17*
X15461000Y-44704000D03*
X20861000Y-44704000D03*
X15461000Y-43434000D03*
X20861000Y-43434000D03*
X15461000Y-42164000D03*
X20861000Y-42164000D03*
X15461000Y-40894000D03*
X20861000Y-40894000D03*
X15461000Y-39624000D03*
X20861000Y-39624000D03*
X15461000Y-38354000D03*
X20861000Y-38354000D03*
X15461000Y-37084000D03*
X20861000Y-37084000D03*
D16*
X16325000Y-35052000D03*
X15425000Y-35052000D03*
D15*
X36703000Y-31792000D03*
X36703000Y-30692000D03*
X33655000Y-36026000D03*
X33655000Y-37126000D03*
D11*
X23552000Y-13962000D03*
X21152000Y-13962000D03*
D12*
X25552000Y-16462000D03*
X19152000Y-16462000D03*
D13*
X23652000Y-16637000D03*
X23002000Y-16637000D03*
X22352000Y-16637000D03*
X21702000Y-16637000D03*
X21052000Y-16637000D03*
D14*
X25527000Y-13962000D03*
X19177000Y-13962000D03*
M02*
