<?xml version="1.0" standalone="no"?>
 <!DOCTYPE svg PUBLIC "-//W3C//DTD SVG 1.1//EN" 
 "http://www.w3.org/Graphics/SVG/1.1/DTD/svg11.dtd"> 
<svg xmlns="http://www.w3.org/2000/svg" version="1.1" 
    width="29.7002cm" height="21.0007cm" viewBox="0 0 116930 82680 ">
<title>SVG Picture created as coughsense-F.SilkS.svg date 2016/01/27 11:58:53 </title>
  <desc>Picture generated by PCBNEW </desc>
<g style="fill:#000000; fill-opacity:1;stroke:#000000; stroke-opacity:1;
stroke-linecap:round; stroke-linejoin:round; "
 transform="translate(0 0) scale(1 1)">
</g>
<g style="fill:#000000; fill-opacity:0.0; 
stroke:#000000; stroke-width:-0.000393701; stroke-opacity:1; 
stroke-linecap:round; stroke-linejoin:round;">
</g>
<g style="fill:#000000; fill-opacity:0.0; 
stroke:#000000; stroke-width:39.3701; stroke-opacity:1; 
stroke-linecap:round; stroke-linejoin:round;">
</g>
<g style="fill:#000000; fill-opacity:0.0; 
stroke:#000000; stroke-width:59.0551; stroke-opacity:1; 
stroke-linecap:round; stroke-linejoin:round;">
<rect x="69685.9" y="65357.2" width="42519.7" height="12598.4" rx="0" />
</g>
<g style="fill:#000000; fill-opacity:0.0; 
stroke:#000000; stroke-width:39.3701; stroke-opacity:1; 
stroke-linecap:round; stroke-linejoin:round;">
</g>
<g style="fill:#000000; fill-opacity:0.0; 
stroke:#000000; stroke-width:59.0551; stroke-opacity:1; 
stroke-linecap:round; stroke-linejoin:round;">
<rect x="3937.01" y="3937.01" width="109056" height="74806" rx="0" />
</g>
<g style="fill:#000000; fill-opacity:0.0; 
stroke:#000000; stroke-width:39.3701; stroke-opacity:1; 
stroke-linecap:round; stroke-linejoin:round;">
</g>
<g style="fill:#000000; fill-opacity:0.0; 
stroke:#000000; stroke-width:59.0551; stroke-opacity:1; 
stroke-linecap:round; stroke-linejoin:round;">
<rect x="4724.41" y="4724.41" width="107481" height="73231.2" rx="0" />
</g>
<g style="fill:#000000; fill-opacity:0.0; 
stroke:#000000; stroke-width:39.3701; stroke-opacity:1; 
stroke-linecap:round; stroke-linejoin:round;">
</g>
<g style="fill:#000000; fill-opacity:0.0; 
stroke:#000000; stroke-width:59.0551; stroke-opacity:1; 
stroke-linecap:round; stroke-linejoin:round;">
<path d="M23622 4724
L23622 3937
" />
</g>
<g style="fill:#000000; fill-opacity:0.0; 
stroke:#000000; stroke-width:39.3701; stroke-opacity:1; 
stroke-linecap:round; stroke-linejoin:round;">
</g>
<g style="fill:#000000; fill-opacity:0.0; 
stroke:#000000; stroke-width:59.0551; stroke-opacity:1; 
stroke-linecap:round; stroke-linejoin:round;">
<path d="M43307 4724
L43307 3937
" />
</g>
<g style="fill:#000000; fill-opacity:0.0; 
stroke:#000000; stroke-width:39.3701; stroke-opacity:1; 
stroke-linecap:round; stroke-linejoin:round;">
</g>
<g style="fill:#000000; fill-opacity:0.0; 
stroke:#000000; stroke-width:59.0551; stroke-opacity:1; 
stroke-linecap:round; stroke-linejoin:round;">
<path d="M62992 4724
L62992 3937
" />
</g>
<g style="fill:#000000; fill-opacity:0.0; 
stroke:#000000; stroke-width:39.3701; stroke-opacity:1; 
stroke-linecap:round; stroke-linejoin:round;">
</g>
<g style="fill:#000000; fill-opacity:0.0; 
stroke:#000000; stroke-width:59.0551; stroke-opacity:1; 
stroke-linecap:round; stroke-linejoin:round;">
<path d="M82677 4724
L82677 3937
" />
</g>
<g style="fill:#000000; fill-opacity:0.0; 
stroke:#000000; stroke-width:39.3701; stroke-opacity:1; 
stroke-linecap:round; stroke-linejoin:round;">
</g>
<g style="fill:#000000; fill-opacity:0.0; 
stroke:#000000; stroke-width:59.0551; stroke-opacity:1; 
stroke-linecap:round; stroke-linejoin:round;">
<path d="M102362 4724
L102362 3937
" />
</g>
<g style="fill:#000000; fill-opacity:0.0; 
stroke:#000000; stroke-width:39.3701; stroke-opacity:1; 
stroke-linecap:round; stroke-linejoin:round;">
</g>
<g style="fill:#000000; fill-opacity:0.0; 
stroke:#000000; stroke-width:59.0551; stroke-opacity:1; 
stroke-linecap:round; stroke-linejoin:round;">
<path d="M14169 4562
L13877 4562
" />
<path d="M14023 4562
L14023 4050
L13974 4123
L13925 4172
L13877 4196
" />
</g>
<g style="fill:#000000; fill-opacity:0.0; 
stroke:#000000; stroke-width:39.3701; stroke-opacity:1; 
stroke-linecap:round; stroke-linejoin:round;">
</g>
<g style="fill:#000000; fill-opacity:0.0; 
stroke:#000000; stroke-width:59.0551; stroke-opacity:1; 
stroke-linecap:round; stroke-linejoin:round;">
<path d="M33562 4099
L33586 4074
L33635 4050
L33757 4050
L33805 4074
L33830 4099
L33854 4147
L33854 4196
L33830 4269
L33537 4562
L33854 4562
" />
</g>
<g style="fill:#000000; fill-opacity:0.0; 
stroke:#000000; stroke-width:39.3701; stroke-opacity:1; 
stroke-linecap:round; stroke-linejoin:round;">
</g>
<g style="fill:#000000; fill-opacity:0.0; 
stroke:#000000; stroke-width:59.0551; stroke-opacity:1; 
stroke-linecap:round; stroke-linejoin:round;">
<path d="M53222 4050
L53539 4050
L53368 4245
L53442 4245
L53490 4269
L53515 4294
L53539 4342
L53539 4464
L53515 4513
L53490 4537
L53442 4562
L53295 4562
L53247 4537
L53222 4513
" />
</g>
<g style="fill:#000000; fill-opacity:0.0; 
stroke:#000000; stroke-width:39.3701; stroke-opacity:1; 
stroke-linecap:round; stroke-linejoin:round;">
</g>
<g style="fill:#000000; fill-opacity:0.0; 
stroke:#000000; stroke-width:59.0551; stroke-opacity:1; 
stroke-linecap:round; stroke-linejoin:round;">
<path d="M73175 4221
L73175 4562
" />
<path d="M73053 4026
L72932 4391
L73248 4391
" />
</g>
<g style="fill:#000000; fill-opacity:0.0; 
stroke:#000000; stroke-width:39.3701; stroke-opacity:1; 
stroke-linecap:round; stroke-linejoin:round;">
</g>
<g style="fill:#000000; fill-opacity:0.0; 
stroke:#000000; stroke-width:59.0551; stroke-opacity:1; 
stroke-linecap:round; stroke-linejoin:round;">
<path d="M92885 4050
L92641 4050
L92617 4294
L92641 4269
L92690 4245
L92812 4245
L92860 4269
L92885 4294
L92909 4342
L92909 4464
L92885 4513
L92860 4537
L92812 4562
L92690 4562
L92641 4537
L92617 4513
" />
</g>
<g style="fill:#000000; fill-opacity:0.0; 
stroke:#000000; stroke-width:39.3701; stroke-opacity:1; 
stroke-linecap:round; stroke-linejoin:round;">
</g>
<g style="fill:#000000; fill-opacity:0.0; 
stroke:#000000; stroke-width:59.0551; stroke-opacity:1; 
stroke-linecap:round; stroke-linejoin:round;">
<path d="M112545 4050
L112448 4050
L112399 4074
L112375 4099
L112326 4172
L112302 4269
L112302 4464
L112326 4513
L112350 4537
L112399 4562
L112497 4562
L112545 4537
L112570 4513
L112594 4464
L112594 4342
L112570 4294
L112545 4269
L112497 4245
L112399 4245
L112350 4269
L112326 4294
L112302 4342
" />
</g>
<g style="fill:#000000; fill-opacity:0.0; 
stroke:#000000; stroke-width:39.3701; stroke-opacity:1; 
stroke-linecap:round; stroke-linejoin:round;">
</g>
<g style="fill:#000000; fill-opacity:0.0; 
stroke:#000000; stroke-width:59.0551; stroke-opacity:1; 
stroke-linecap:round; stroke-linejoin:round;">
<path d="M23622 77955
L23622 78742
" />
</g>
<g style="fill:#000000; fill-opacity:0.0; 
stroke:#000000; stroke-width:39.3701; stroke-opacity:1; 
stroke-linecap:round; stroke-linejoin:round;">
</g>
<g style="fill:#000000; fill-opacity:0.0; 
stroke:#000000; stroke-width:59.0551; stroke-opacity:1; 
stroke-linecap:round; stroke-linejoin:round;">
<path d="M43307 77955
L43307 78742
" />
</g>
<g style="fill:#000000; fill-opacity:0.0; 
stroke:#000000; stroke-width:39.3701; stroke-opacity:1; 
stroke-linecap:round; stroke-linejoin:round;">
</g>
<g style="fill:#000000; fill-opacity:0.0; 
stroke:#000000; stroke-width:59.0551; stroke-opacity:1; 
stroke-linecap:round; stroke-linejoin:round;">
<path d="M62992 77955
L62992 78742
" />
</g>
<g style="fill:#000000; fill-opacity:0.0; 
stroke:#000000; stroke-width:39.3701; stroke-opacity:1; 
stroke-linecap:round; stroke-linejoin:round;">
</g>
<g style="fill:#000000; fill-opacity:0.0; 
stroke:#000000; stroke-width:59.0551; stroke-opacity:1; 
stroke-linecap:round; stroke-linejoin:round;">
<path d="M82677 77955
L82677 78742
" />
</g>
<g style="fill:#000000; fill-opacity:0.0; 
stroke:#000000; stroke-width:39.3701; stroke-opacity:1; 
stroke-linecap:round; stroke-linejoin:round;">
</g>
<g style="fill:#000000; fill-opacity:0.0; 
stroke:#000000; stroke-width:59.0551; stroke-opacity:1; 
stroke-linecap:round; stroke-linejoin:round;">
<path d="M102362 77955
L102362 78742
" />
</g>
<g style="fill:#000000; fill-opacity:0.0; 
stroke:#000000; stroke-width:39.3701; stroke-opacity:1; 
stroke-linecap:round; stroke-linejoin:round;">
</g>
<g style="fill:#000000; fill-opacity:0.0; 
stroke:#000000; stroke-width:59.0551; stroke-opacity:1; 
stroke-linecap:round; stroke-linejoin:round;">
<path d="M14169 78580
L13877 78580
" />
<path d="M14023 78580
L14023 78069
L13974 78142
L13925 78190
L13877 78215
" />
</g>
<g style="fill:#000000; fill-opacity:0.0; 
stroke:#000000; stroke-width:39.3701; stroke-opacity:1; 
stroke-linecap:round; stroke-linejoin:round;">
</g>
<g style="fill:#000000; fill-opacity:0.0; 
stroke:#000000; stroke-width:59.0551; stroke-opacity:1; 
stroke-linecap:round; stroke-linejoin:round;">
<path d="M33562 78117
L33586 78093
L33635 78069
L33757 78069
L33805 78093
L33830 78117
L33854 78166
L33854 78215
L33830 78288
L33537 78580
L33854 78580
" />
</g>
<g style="fill:#000000; fill-opacity:0.0; 
stroke:#000000; stroke-width:39.3701; stroke-opacity:1; 
stroke-linecap:round; stroke-linejoin:round;">
</g>
<g style="fill:#000000; fill-opacity:0.0; 
stroke:#000000; stroke-width:59.0551; stroke-opacity:1; 
stroke-linecap:round; stroke-linejoin:round;">
<path d="M53222 78069
L53539 78069
L53368 78263
L53442 78263
L53490 78288
L53515 78312
L53539 78361
L53539 78483
L53515 78532
L53490 78556
L53442 78580
L53295 78580
L53247 78556
L53222 78532
" />
</g>
<g style="fill:#000000; fill-opacity:0.0; 
stroke:#000000; stroke-width:39.3701; stroke-opacity:1; 
stroke-linecap:round; stroke-linejoin:round;">
</g>
<g style="fill:#000000; fill-opacity:0.0; 
stroke:#000000; stroke-width:59.0551; stroke-opacity:1; 
stroke-linecap:round; stroke-linejoin:round;">
<path d="M73175 78239
L73175 78580
" />
<path d="M73053 78044
L72932 78410
L73248 78410
" />
</g>
<g style="fill:#000000; fill-opacity:0.0; 
stroke:#000000; stroke-width:39.3701; stroke-opacity:1; 
stroke-linecap:round; stroke-linejoin:round;">
</g>
<g style="fill:#000000; fill-opacity:0.0; 
stroke:#000000; stroke-width:59.0551; stroke-opacity:1; 
stroke-linecap:round; stroke-linejoin:round;">
<path d="M92885 78069
L92641 78069
L92617 78312
L92641 78288
L92690 78263
L92812 78263
L92860 78288
L92885 78312
L92909 78361
L92909 78483
L92885 78532
L92860 78556
L92812 78580
L92690 78580
L92641 78556
L92617 78532
" />
</g>
<g style="fill:#000000; fill-opacity:0.0; 
stroke:#000000; stroke-width:39.3701; stroke-opacity:1; 
stroke-linecap:round; stroke-linejoin:round;">
</g>
<g style="fill:#000000; fill-opacity:0.0; 
stroke:#000000; stroke-width:59.0551; stroke-opacity:1; 
stroke-linecap:round; stroke-linejoin:round;">
<path d="M112545 78069
L112448 78069
L112399 78093
L112375 78117
L112326 78190
L112302 78288
L112302 78483
L112326 78532
L112350 78556
L112399 78580
L112497 78580
L112545 78556
L112570 78532
L112594 78483
L112594 78361
L112570 78312
L112545 78288
L112497 78263
L112399 78263
L112350 78288
L112326 78312
L112302 78361
" />
</g>
<g style="fill:#000000; fill-opacity:0.0; 
stroke:#000000; stroke-width:39.3701; stroke-opacity:1; 
stroke-linecap:round; stroke-linejoin:round;">
</g>
<g style="fill:#000000; fill-opacity:0.0; 
stroke:#000000; stroke-width:59.0551; stroke-opacity:1; 
stroke-linecap:round; stroke-linejoin:round;">
<path d="M3937 23622
L4724 23622
" />
</g>
<g style="fill:#000000; fill-opacity:0.0; 
stroke:#000000; stroke-width:39.3701; stroke-opacity:1; 
stroke-linecap:round; stroke-linejoin:round;">
</g>
<g style="fill:#000000; fill-opacity:0.0; 
stroke:#000000; stroke-width:59.0551; stroke-opacity:1; 
stroke-linecap:round; stroke-linejoin:round;">
<path d="M3937 43307
L4724 43307
" />
</g>
<g style="fill:#000000; fill-opacity:0.0; 
stroke:#000000; stroke-width:39.3701; stroke-opacity:1; 
stroke-linecap:round; stroke-linejoin:round;">
</g>
<g style="fill:#000000; fill-opacity:0.0; 
stroke:#000000; stroke-width:59.0551; stroke-opacity:1; 
stroke-linecap:round; stroke-linejoin:round;">
<path d="M3937 62992
L4724 62992
" />
</g>
<g style="fill:#000000; fill-opacity:0.0; 
stroke:#000000; stroke-width:39.3701; stroke-opacity:1; 
stroke-linecap:round; stroke-linejoin:round;">
</g>
<g style="fill:#000000; fill-opacity:0.0; 
stroke:#000000; stroke-width:59.0551; stroke-opacity:1; 
stroke-linecap:round; stroke-linejoin:round;">
<path d="M4208 13864
L4452 13864
" />
<path d="M4160 14011
L4330 13499
L4501 14011
" />
</g>
<g style="fill:#000000; fill-opacity:0.0; 
stroke:#000000; stroke-width:39.3701; stroke-opacity:1; 
stroke-linecap:round; stroke-linejoin:round;">
</g>
<g style="fill:#000000; fill-opacity:0.0; 
stroke:#000000; stroke-width:59.0551; stroke-opacity:1; 
stroke-linecap:round; stroke-linejoin:round;">
<path d="M4367 33428
L4440 33452
L4464 33476
L4489 33525
L4489 33598
L4464 33647
L4440 33671
L4391 33696
L4196 33696
L4196 33184
L4367 33184
L4416 33208
L4440 33233
L4464 33281
L4464 33330
L4440 33379
L4416 33403
L4367 33428
L4196 33428
" />
</g>
<g style="fill:#000000; fill-opacity:0.0; 
stroke:#000000; stroke-width:39.3701; stroke-opacity:1; 
stroke-linecap:round; stroke-linejoin:round;">
</g>
<g style="fill:#000000; fill-opacity:0.0; 
stroke:#000000; stroke-width:59.0551; stroke-opacity:1; 
stroke-linecap:round; stroke-linejoin:round;">
<path d="M4489 53332
L4464 53356
L4391 53381
L4342 53381
L4269 53356
L4221 53308
L4196 53259
L4172 53161
L4172 53088
L4196 52991
L4221 52942
L4269 52893
L4342 52869
L4391 52869
L4464 52893
L4489 52918
" />
</g>
<g style="fill:#000000; fill-opacity:0.0; 
stroke:#000000; stroke-width:39.3701; stroke-opacity:1; 
stroke-linecap:round; stroke-linejoin:round;">
</g>
<g style="fill:#000000; fill-opacity:0.0; 
stroke:#000000; stroke-width:59.0551; stroke-opacity:1; 
stroke-linecap:round; stroke-linejoin:round;">
<path d="M4196 73066
L4196 72554
L4318 72554
L4391 72578
L4440 72627
L4464 72676
L4489 72773
L4489 72846
L4464 72944
L4440 72993
L4391 73041
L4318 73066
L4196 73066
" />
</g>
<g style="fill:#000000; fill-opacity:0.0; 
stroke:#000000; stroke-width:39.3701; stroke-opacity:1; 
stroke-linecap:round; stroke-linejoin:round;">
</g>
<g style="fill:#000000; fill-opacity:0.0; 
stroke:#000000; stroke-width:59.0551; stroke-opacity:1; 
stroke-linecap:round; stroke-linejoin:round;">
<path d="M112992 23622
L112205 23622
" />
</g>
<g style="fill:#000000; fill-opacity:0.0; 
stroke:#000000; stroke-width:39.3701; stroke-opacity:1; 
stroke-linecap:round; stroke-linejoin:round;">
</g>
<g style="fill:#000000; fill-opacity:0.0; 
stroke:#000000; stroke-width:59.0551; stroke-opacity:1; 
stroke-linecap:round; stroke-linejoin:round;">
<path d="M112992 43307
L112205 43307
" />
</g>
<g style="fill:#000000; fill-opacity:0.0; 
stroke:#000000; stroke-width:39.3701; stroke-opacity:1; 
stroke-linecap:round; stroke-linejoin:round;">
</g>
<g style="fill:#000000; fill-opacity:0.0; 
stroke:#000000; stroke-width:59.0551; stroke-opacity:1; 
stroke-linecap:round; stroke-linejoin:round;">
<path d="M112992 62992
L112205 62992
" />
</g>
<g style="fill:#000000; fill-opacity:0.0; 
stroke:#000000; stroke-width:39.3701; stroke-opacity:1; 
stroke-linecap:round; stroke-linejoin:round;">
</g>
<g style="fill:#000000; fill-opacity:0.0; 
stroke:#000000; stroke-width:59.0551; stroke-opacity:1; 
stroke-linecap:round; stroke-linejoin:round;">
<path d="M112477 13864
L112721 13864
" />
<path d="M112428 14011
L112599 13499
L112769 14011
" />
</g>
<g style="fill:#000000; fill-opacity:0.0; 
stroke:#000000; stroke-width:39.3701; stroke-opacity:1; 
stroke-linecap:round; stroke-linejoin:round;">
</g>
<g style="fill:#000000; fill-opacity:0.0; 
stroke:#000000; stroke-width:59.0551; stroke-opacity:1; 
stroke-linecap:round; stroke-linejoin:round;">
<path d="M112635 33428
L112708 33452
L112733 33476
L112757 33525
L112757 33598
L112733 33647
L112708 33671
L112660 33696
L112465 33696
L112465 33184
L112635 33184
L112684 33208
L112708 33233
L112733 33281
L112733 33330
L112708 33379
L112684 33403
L112635 33428
L112465 33428
" />
</g>
<g style="fill:#000000; fill-opacity:0.0; 
stroke:#000000; stroke-width:39.3701; stroke-opacity:1; 
stroke-linecap:round; stroke-linejoin:round;">
</g>
<g style="fill:#000000; fill-opacity:0.0; 
stroke:#000000; stroke-width:59.0551; stroke-opacity:1; 
stroke-linecap:round; stroke-linejoin:round;">
<path d="M112757 53332
L112733 53356
L112660 53381
L112611 53381
L112538 53356
L112489 53308
L112465 53259
L112440 53161
L112440 53088
L112465 52991
L112489 52942
L112538 52893
L112611 52869
L112660 52869
L112733 52893
L112757 52918
" />
</g>
<g style="fill:#000000; fill-opacity:0.0; 
stroke:#000000; stroke-width:39.3701; stroke-opacity:1; 
stroke-linecap:round; stroke-linejoin:round;">
</g>
<g style="fill:#000000; fill-opacity:0.0; 
stroke:#000000; stroke-width:59.0551; stroke-opacity:1; 
stroke-linecap:round; stroke-linejoin:round;">
<path d="M112465 73066
L112465 72554
L112587 72554
L112660 72578
L112708 72627
L112733 72676
L112757 72773
L112757 72846
L112733 72944
L112708 72993
L112660 73041
L112587 73066
L112465 73066
" />
</g>
<g style="fill:#000000; fill-opacity:0.0; 
stroke:#000000; stroke-width:39.3701; stroke-opacity:1; 
stroke-linecap:round; stroke-linejoin:round;">
</g>
<g style="fill:#000000; fill-opacity:0.0; 
stroke:#000000; stroke-width:59.0551; stroke-opacity:1; 
stroke-linecap:round; stroke-linejoin:round;">
<path d="M78881 76293
L78881 75703
L79022 75703
L79106 75731
L79162 75787
L79190 75843
L79219 75956
L79219 76040
L79190 76153
L79162 76209
L79106 76265
L79022 76293
L78881 76293
" />
<path d="M79725 76293
L79725 75984
L79697 75928
L79640 75899
L79528 75899
L79472 75928
" />
<path d="M79725 76265
L79669 76293
L79528 76293
L79472 76265
L79444 76209
L79444 76153
L79472 76096
L79528 76068
L79669 76068
L79725 76040
" />
<path d="M79922 75899
L80147 75899
" />
<path d="M80006 75703
L80006 76209
L80034 76265
L80090 76293
L80147 76293
" />
<path d="M80568 76265
L80512 76293
L80400 76293
L80343 76265
L80315 76209
L80315 75984
L80343 75928
L80400 75899
L80512 75899
L80568 75928
L80597 75984
L80597 76040
L80315 76096
" />
<path d="M80850 76237
L80878 76265
L80850 76293
L80822 76265
L80850 76237
L80850 76293
" />
<path d="M80850 75928
L80878 75956
L80850 75984
L80822 75956
L80850 75928
L80850 75984
" />
</g>
<g style="fill:#000000; fill-opacity:0.0; 
stroke:#000000; stroke-width:39.3701; stroke-opacity:1; 
stroke-linecap:round; stroke-linejoin:round;">
</g>
<g style="fill:#000000; fill-opacity:0.0; 
stroke:#000000; stroke-width:59.0551; stroke-opacity:1; 
stroke-linecap:round; stroke-linejoin:round;">
<path d="M69685 76577
L112205 76577
" />
</g>
<g style="fill:#000000; fill-opacity:0.0; 
stroke:#000000; stroke-width:39.3701; stroke-opacity:1; 
stroke-linecap:round; stroke-linejoin:round;">
</g>
<g style="fill:#000000; fill-opacity:0.0; 
stroke:#000000; stroke-width:59.0551; stroke-opacity:1; 
stroke-linecap:round; stroke-linejoin:round;">
<path d="M70220 77395
L70220 76805
" />
<path d="M70557 77395
L70304 77058
" />
<path d="M70557 76805
L70220 77142
" />
<path d="M70810 77395
L70810 77002
" />
<path d="M70810 76805
L70782 76833
L70810 76861
L70838 76833
L70810 76805
L70810 76861
" />
<path d="M71429 77339
L71401 77367
L71316 77395
L71260 77395
L71176 77367
L71120 77311
L71091 77255
L71063 77142
L71063 77058
L71091 76946
L71120 76889
L71176 76833
L71260 76805
L71316 76805
L71401 76833
L71429 76861
" />
<path d="M71935 77395
L71935 77086
L71907 77030
L71851 77002
L71738 77002
L71682 77030
" />
<path d="M71935 77367
L71879 77395
L71738 77395
L71682 77367
L71654 77311
L71654 77255
L71682 77199
L71738 77171
L71879 77171
L71935 77142
" />
<path d="M72469 77395
L72469 76805
" />
<path d="M72469 77367
L72413 77395
L72301 77395
L72244 77367
L72216 77339
L72188 77283
L72188 77114
L72216 77058
L72244 77030
L72301 77002
L72413 77002
L72469 77030
" />
<path d="M73201 77086
L73397 77086
" />
<path d="M73482 77395
L73201 77395
L73201 76805
L73482 76805
" />
<path d="M73735 77339
L73763 77367
L73735 77395
L73707 77367
L73735 77339
L73735 77395
" />
<path d="M74016 77395
L74016 76805
L74157 76805
L74241 76833
L74297 76889
L74325 76946
L74354 77058
L74354 77142
L74325 77255
L74297 77311
L74241 77367
L74157 77395
L74016 77395
" />
<path d="M74607 77339
L74635 77367
L74607 77395
L74579 77367
L74607 77339
L74607 77395
" />
<path d="M74860 77227
L75141 77227
" />
<path d="M74804 77395
L75000 76805
L75197 77395
" />
<path d="M75394 77339
L75422 77367
L75394 77395
L75366 77367
L75394 77339
L75394 77395
" />
<path d="M76575 77395
L76575 76805
" />
<path d="M76631 77171
L76800 77395
" />
<path d="M76800 77002
L76575 77227
" />
<path d="M77053 77395
L77053 77002
" />
<path d="M77053 76805
L77025 76833
L77053 76861
L77081 76833
L77053 76805
L77053 76861
" />
<path d="M77588 77367
L77531 77395
L77419 77395
L77363 77367
L77334 77339
L77306 77283
L77306 77114
L77334 77058
L77363 77030
L77419 77002
L77531 77002
L77588 77030
" />
<path d="M78094 77395
L78094 77086
L78066 77030
L78009 77002
L77897 77002
L77841 77030
" />
<path d="M78094 77367
L78037 77395
L77897 77395
L77841 77367
L77813 77311
L77813 77255
L77841 77199
L77897 77171
L78037 77171
L78094 77142
" />
<path d="M78628 77395
L78628 76805
" />
<path d="M78628 77367
L78572 77395
L78459 77395
L78403 77367
L78375 77339
L78347 77283
L78347 77114
L78375 77058
L78403 77030
L78459 77002
L78572 77002
L78628 77030
" />
<path d="M79472 76805
L79528 76805
L79584 76833
L79612 76861
L79640 76917
L79669 77030
L79669 77171
L79640 77283
L79612 77339
L79584 77367
L79528 77395
L79472 77395
L79415 77367
L79387 77339
L79359 77283
L79331 77171
L79331 77030
L79359 76917
L79387 76861
L79415 76833
L79472 76805
" />
<path d="M79922 77339
L79950 77367
L79922 77395
L79894 77367
L79922 77339
L79922 77395
" />
<path d="M80175 76861
L80203 76833
L80259 76805
L80400 76805
L80456 76833
L80484 76861
L80512 76917
L80512 76974
L80484 77058
L80147 77395
L80512 77395
" />
<path d="M80878 76805
L80934 76805
L80990 76833
L81018 76861
L81046 76917
L81075 77030
L81075 77171
L81046 77283
L81018 77339
L80990 77367
L80934 77395
L80878 77395
L80822 77367
L80793 77339
L80765 77283
L80737 77171
L80737 77030
L80765 76917
L80793 76861
L80822 76833
L80878 76805
" />
<path d="M81637 77395
L81300 77395
" />
<path d="M81468 77395
L81468 76805
L81412 76889
L81356 76946
L81300 76974
" />
<path d="M82143 76805
L82031 76805
L81974 76833
L81946 76861
L81890 76946
L81862 77058
L81862 77283
L81890 77339
L81918 77367
L81974 77395
L82087 77395
L82143 77367
L82171 77339
L82199 77283
L82199 77142
L82171 77086
L82143 77058
L82087 77030
L81974 77030
L81918 77058
L81890 77086
L81862 77142
" />
<path d="M82565 76805
L82621 76805
L82678 76833
L82706 76861
L82734 76917
L82762 77030
L82762 77171
L82734 77283
L82706 77339
L82678 77367
L82621 77395
L82565 77395
L82509 77367
L82481 77339
L82453 77283
L82424 77171
L82424 77030
L82453 76917
L82481 76861
L82509 76833
L82565 76805
" />
<path d="M83324 77395
L82987 77395
" />
<path d="M83156 77395
L83156 76805
L83099 76889
L83043 76946
L82987 76974
" />
<path d="M83549 76861
L83577 76833
L83634 76805
L83774 76805
L83831 76833
L83859 76861
L83887 76917
L83887 76974
L83859 77058
L83521 77395
L83887 77395
" />
<path d="M84421 76805
L84140 76805
L84112 77086
L84140 77058
L84196 77030
L84337 77030
L84393 77058
L84421 77086
L84449 77142
L84449 77283
L84421 77339
L84393 77367
L84337 77395
L84196 77395
L84140 77367
L84112 77339
" />
<path d="M84674 76861
L84702 76833
L84759 76805
L84899 76805
L84955 76833
L84983 76861
L85012 76917
L85012 76974
L84983 77058
L84646 77395
L85012 77395
" />
<path d="M85574 77395
L85237 77395
" />
<path d="M85405 77395
L85405 76805
L85349 76889
L85293 76946
L85237 76974
" />
<path d="M85940 76805
L85996 76805
L86052 76833
L86080 76861
L86108 76917
L86136 77030
L86136 77171
L86108 77283
L86080 77339
L86052 77367
L85996 77395
L85940 77395
L85883 77367
L85855 77339
L85827 77283
L85799 77171
L85799 77030
L85827 76917
L85855 76861
L85883 76833
L85940 76805
" />
<path d="M86699 77395
L86361 77395
" />
<path d="M86530 77395
L86530 76805
L86474 76889
L86418 76946
L86361 76974
" />
<path d="M86952 77171
L87402 77171
" />
<path d="M87177 77395
L87177 76946
" />
<path d="M87936 76805
L87824 76805
L87768 76833
L87739 76861
L87683 76946
L87655 77058
L87655 77283
L87683 77339
L87711 77367
L87768 77395
L87880 77395
L87936 77367
L87964 77339
L87992 77283
L87992 77142
L87964 77086
L87936 77058
L87880 77030
L87768 77030
L87711 77058
L87683 77086
L87655 77142
" />
<path d="M88527 76805
L88246 76805
L88217 77086
L88246 77058
L88302 77030
L88442 77030
L88499 77058
L88527 77086
L88555 77142
L88555 77283
L88527 77339
L88499 77367
L88442 77395
L88302 77395
L88246 77367
L88217 77339
" />
<path d="M89117 77395
L88780 77395
" />
<path d="M88949 77395
L88949 76805
L88892 76889
L88836 76946
L88780 76974
" />
<path d="M89314 76805
L89680 76805
L89483 77030
L89567 77030
L89624 77058
L89652 77086
L89680 77142
L89680 77283
L89652 77339
L89624 77367
L89567 77395
L89399 77395
L89342 77367
L89314 77339
" />
<path d="M90186 77002
L90186 77395
" />
<path d="M90045 76777
L89905 77199
L90270 77199
" />
<path d="M90467 76861
L90495 76833
L90552 76805
L90692 76805
L90748 76833
L90777 76861
L90805 76917
L90805 76974
L90777 77058
L90439 77395
L90805 77395
" />
<path d="M89792 76703
L90917 76703
" />
<path d="M91311 77002
L91311 77395
" />
<path d="M91058 77002
L91058 77311
L91086 77367
L91142 77395
L91226 77395
L91283 77367
L91311 77339
" />
<path d="M91592 77395
L91592 76805
" />
<path d="M91592 77030
L91648 77002
L91761 77002
L91817 77030
L91845 77058
L91873 77114
L91873 77283
L91845 77339
L91817 77367
L91761 77395
L91648 77395
L91592 77367
" />
<path d="M92379 77002
L92379 77395
" />
<path d="M92126 77002
L92126 77311
L92154 77367
L92211 77395
L92295 77395
L92351 77367
L92379 77339
" />
<path d="M92661 77002
L92661 77395
" />
<path d="M92661 77058
L92689 77030
L92745 77002
L92829 77002
L92886 77030
L92914 77086
L92914 77395
" />
<path d="M93111 77002
L93336 77002
" />
<path d="M93195 76805
L93195 77311
L93223 77367
L93279 77395
L93336 77395
" />
<path d="M93786 77002
L93786 77395
" />
<path d="M93532 77002
L93532 77311
L93561 77367
L93617 77395
L93701 77395
L93757 77367
L93786 77339
" />
<path d="M94376 77395
L94039 77395
" />
<path d="M94207 77395
L94207 76805
L94151 76889
L94095 76946
L94039 76974
" />
<path d="M94910 76805
L94629 76805
L94601 77086
L94629 77058
L94685 77030
L94826 77030
L94882 77058
L94910 77086
L94938 77142
L94938 77283
L94910 77339
L94882 77367
L94826 77395
L94685 77395
L94629 77367
L94601 77339
" />
<path d="M95192 77339
L95220 77367
L95192 77395
L95163 77367
L95192 77339
L95192 77395
" />
<path d="M95782 77395
L95445 77395
" />
<path d="M95613 77395
L95613 76805
L95557 76889
L95501 76946
L95445 76974
" />
<path d="M96148 76805
L96204 76805
L96260 76833
L96288 76861
L96316 76917
L96345 77030
L96345 77171
L96316 77283
L96288 77339
L96260 77367
L96204 77395
L96148 77395
L96091 77367
L96063 77339
L96035 77283
L96007 77171
L96007 77030
L96035 76917
L96063 76861
L96091 76833
L96148 76805
" />
<path d="M96598 77339
L96626 77367
L96598 77395
L96570 77367
L96598 77339
L96598 77395
" />
<path d="M97188 77395
L96851 77395
" />
<path d="M97019 77395
L97019 76805
L96963 76889
L96907 76946
L96851 76974
" />
<path d="M97441 77171
L97891 77171
" />
<path d="M98172 77002
L98172 77592
" />
<path d="M98172 77030
L98229 77002
L98341 77002
L98397 77030
L98426 77058
L98454 77114
L98454 77283
L98426 77339
L98397 77367
L98341 77395
L98229 77395
L98172 77367
" />
<path d="M98707 77395
L98707 77002
" />
<path d="M98707 77114
L98735 77058
L98763 77030
L98819 77002
L98876 77002
" />
<path d="M99157 77395
L99100 77367
L99072 77339
L99044 77283
L99044 77114
L99072 77058
L99100 77030
L99157 77002
L99241 77002
L99297 77030
L99325 77058
L99354 77114
L99354 77283
L99325 77339
L99297 77367
L99241 77395
L99157 77395
" />
<path d="M99860 77395
L99860 76805
" />
<path d="M99860 77367
L99804 77395
L99691 77395
L99635 77367
L99607 77339
L99579 77283
L99579 77114
L99607 77058
L99635 77030
L99691 77002
L99804 77002
L99860 77030
" />
<path d="M100394 77002
L100394 77395
" />
<path d="M100141 77002
L100141 77311
L100169 77367
L100225 77395
L100310 77395
L100366 77367
L100394 77339
" />
<path d="M100928 77367
L100872 77395
L100760 77395
L100703 77367
L100675 77339
L100647 77283
L100647 77114
L100675 77058
L100703 77030
L100760 77002
L100872 77002
L100928 77030
" />
<path d="M101097 77002
L101322 77002
" />
<path d="M101181 76805
L101181 77311
L101210 77367
L101266 77395
L101322 77395
" />
</g>
<g style="fill:#000000; fill-opacity:0.0; 
stroke:#000000; stroke-width:39.3701; stroke-opacity:1; 
stroke-linecap:round; stroke-linejoin:round;">
</g>
<g style="fill:#000000; fill-opacity:0.0; 
stroke:#000000; stroke-width:59.0551; stroke-opacity:1; 
stroke-linecap:round; stroke-linejoin:round;">
<path d="M69685 75396
L112205 75396
" />
</g>
<g style="fill:#000000; fill-opacity:0.0; 
stroke:#000000; stroke-width:39.3701; stroke-opacity:1; 
stroke-linecap:round; stroke-linejoin:round;">
</g>
<g style="fill:#000000; fill-opacity:0.0; 
stroke:#000000; stroke-width:118.11; stroke-opacity:1; 
stroke-linecap:round; stroke-linejoin:round;">
<path d="M104022 76293
L103825 76012
" />
<path d="M103684 76293
L103684 75703
L103909 75703
L103965 75731
L103994 75759
L104022 75815
L104022 75899
L103994 75956
L103965 75984
L103909 76012
L103684 76012
" />
<path d="M104500 76265
L104444 76293
L104331 76293
L104275 76265
L104247 76209
L104247 75984
L104275 75928
L104331 75899
L104444 75899
L104500 75928
L104528 75984
L104528 76040
L104247 76096
" />
<path d="M104725 75899
L104865 76293
L105006 75899
" />
<path d="M105231 76237
L105259 76265
L105231 76293
L105203 76265
L105231 76237
L105231 76293
" />
<path d="M105231 75928
L105259 75956
L105231 75984
L105203 75956
L105231 75928
L105231 75984
" />
</g>
<g style="fill:#000000; fill-opacity:0.0; 
stroke:#000000; stroke-width:39.3701; stroke-opacity:1; 
stroke-linecap:round; stroke-linejoin:round;">
</g>
<g style="fill:#000000; fill-opacity:0.0; 
stroke:#000000; stroke-width:59.0551; stroke-opacity:1; 
stroke-linecap:round; stroke-linejoin:round;">
<path d="M70192 76265
L70276 76293
L70417 76293
L70473 76265
L70501 76237
L70529 76181
L70529 76124
L70501 76068
L70473 76040
L70417 76012
L70304 75984
L70248 75956
L70220 75928
L70192 75871
L70192 75815
L70220 75759
L70248 75731
L70304 75703
L70445 75703
L70529 75731
" />
<path d="M70782 76293
L70782 75899
" />
<path d="M70782 75703
L70754 75731
L70782 75759
L70810 75731
L70782 75703
L70782 75759
" />
<path d="M71007 75899
L71316 75899
L71007 76293
L71316 76293
" />
<path d="M71766 76265
L71710 76293
L71598 76293
L71541 76265
L71513 76209
L71513 75984
L71541 75928
L71598 75899
L71710 75899
L71766 75928
L71795 75984
L71795 76040
L71513 76096
" />
<path d="M72048 76237
L72076 76265
L72048 76293
L72019 76265
L72048 76237
L72048 76293
" />
<path d="M72048 75928
L72076 75956
L72048 75984
L72019 75956
L72048 75928
L72048 75984
" />
<path d="M72751 76124
L73032 76124
" />
<path d="M72694 76293
L72891 75703
L73088 76293
" />
<path d="M73538 75899
L73538 76293
" />
<path d="M73397 75674
L73257 76096
L73622 76096
" />
</g>
<g style="fill:#000000; fill-opacity:0.0; 
stroke:#000000; stroke-width:39.3701; stroke-opacity:1; 
stroke-linecap:round; stroke-linejoin:round;">
</g>
<g style="fill:#000000; fill-opacity:0.0; 
stroke:#000000; stroke-width:59.0551; stroke-opacity:1; 
stroke-linecap:round; stroke-linejoin:round;">
<path d="M103684 77395
L103684 76805
" />
<path d="M104219 77395
L104219 76805
" />
<path d="M104219 77367
L104162 77395
L104050 77395
L103994 77367
L103965 77339
L103937 77283
L103937 77114
L103965 77058
L103994 77030
L104050 77002
L104162 77002
L104219 77030
" />
<path d="M104500 77339
L104528 77367
L104500 77395
L104472 77367
L104500 77339
L104500 77395
" />
<path d="M104500 77030
L104528 77058
L104500 77086
L104472 77058
L104500 77030
L104500 77086
" />
<path d="M105540 77395
L105203 77395
" />
<path d="M105372 77395
L105372 76805
L105315 76889
L105259 76946
L105203 76974
" />
<path d="M106215 76777
L105709 77536
" />
<path d="M106721 77395
L106384 77395
" />
<path d="M106553 77395
L106553 76805
L106496 76889
L106440 76946
L106384 76974
" />
</g>
<g style="fill:#000000; fill-opacity:0.0; 
stroke:#000000; stroke-width:39.3701; stroke-opacity:1; 
stroke-linecap:round; stroke-linejoin:round;">
</g>
<g style="fill:#000000; fill-opacity:0.0; 
stroke:#000000; stroke-width:59.0551; stroke-opacity:1; 
stroke-linecap:round; stroke-linejoin:round;">
<path d="M69685 73821
L112205 73821
" />
</g>
<g style="fill:#000000; fill-opacity:0.0; 
stroke:#000000; stroke-width:39.3701; stroke-opacity:1; 
stroke-linecap:round; stroke-linejoin:round;">
</g>
<g style="fill:#000000; fill-opacity:0.0; 
stroke:#000000; stroke-width:157.48; stroke-opacity:1; 
stroke-linecap:round; stroke-linejoin:round;">
<path d="M70257 74099
L70707 74099
" />
<path d="M70384 74886
L70482 74099
" />
<path d="M70871 74886
L70937 74361
" />
<path d="M70970 74099
L70927 74136
L70960 74174
L71002 74136
L70970 74099
L70960 74174
" />
<path d="M71199 74361
L71499 74361
" />
<path d="M71345 74099
L71260 74774
L71288 74849
L71359 74886
L71434 74886
" />
<path d="M71809 74886
L71738 74849
L71710 74774
L71795 74099
" />
<path d="M72413 74849
L72334 74886
L72184 74886
L72113 74849
L72085 74774
L72123 74474
L72169 74399
L72249 74361
L72399 74361
L72469 74399
L72498 74474
L72488 74549
L72104 74624
" />
<path d="M72793 74811
L72826 74849
L72783 74886
L72751 74849
L72793 74811
L72783 74886
" />
<path d="M72844 74399
L72877 74436
L72835 74474
L72802 74436
L72844 74399
L72835 74474
" />
</g>
<g style="fill:#000000; fill-opacity:0.0; 
stroke:#000000; stroke-width:39.3701; stroke-opacity:1; 
stroke-linecap:round; stroke-linejoin:round;">
</g>
<g style="fill:#000000; fill-opacity:0.0; 
stroke:#000000; stroke-width:59.0551; stroke-opacity:1; 
stroke-linecap:round; stroke-linejoin:round;">
<path d="M70417 73070
L70220 73070
" />
<path d="M70220 73380
L70220 72789
L70501 72789
" />
<path d="M70726 73380
L70726 72986
" />
<path d="M70726 72789
L70698 72817
L70726 72845
L70754 72817
L70726 72789
L70726 72845
" />
<path d="M71091 73380
L71035 73352
L71007 73295
L71007 72789
" />
<path d="M71541 73352
L71485 73380
L71373 73380
L71316 73352
L71288 73295
L71288 73070
L71316 73014
L71373 72986
L71485 72986
L71541 73014
L71570 73070
L71570 73127
L71288 73183
" />
<path d="M71823 73323
L71851 73352
L71823 73380
L71795 73352
L71823 73323
L71823 73380
" />
<path d="M71823 73014
L71851 73042
L71823 73070
L71795 73042
L71823 73014
L71823 73070
" />
<path d="M72807 73352
L72751 73380
L72638 73380
L72582 73352
L72554 73323
L72526 73267
L72526 73099
L72554 73042
L72582 73014
L72638 72986
L72751 72986
L72807 73014
" />
<path d="M73144 73380
L73088 73352
L73060 73323
L73032 73267
L73032 73099
L73060 73042
L73088 73014
L73144 72986
L73229 72986
L73285 73014
L73313 73042
L73341 73099
L73341 73267
L73313 73323
L73285 73352
L73229 73380
L73144 73380
" />
<path d="M73847 72986
L73847 73380
" />
<path d="M73594 72986
L73594 73295
L73622 73352
L73679 73380
L73763 73380
L73819 73352
L73847 73323
" />
<path d="M74382 72986
L74382 73464
L74354 73520
L74325 73548
L74269 73577
L74185 73577
L74129 73548
" />
<path d="M74382 73352
L74325 73380
L74213 73380
L74157 73352
L74129 73323
L74100 73267
L74100 73099
L74129 73042
L74157 73014
L74213 72986
L74325 72986
L74382 73014
" />
<path d="M74663 73380
L74663 72789
" />
<path d="M74916 73380
L74916 73070
L74888 73014
L74832 72986
L74747 72986
L74691 73014
L74663 73042
" />
<path d="M75169 73352
L75225 73380
L75338 73380
L75394 73352
L75422 73295
L75422 73267
L75394 73211
L75338 73183
L75253 73183
L75197 73155
L75169 73099
L75169 73070
L75197 73014
L75253 72986
L75338 72986
L75394 73014
" />
<path d="M75900 73352
L75844 73380
L75732 73380
L75675 73352
L75647 73295
L75647 73070
L75675 73014
L75732 72986
L75844 72986
L75900 73014
L75928 73070
L75928 73127
L75647 73183
" />
<path d="M76181 72986
L76181 73380
" />
<path d="M76181 73042
L76210 73014
L76266 72986
L76350 72986
L76406 73014
L76435 73070
L76435 73380
" />
<path d="M76688 73352
L76744 73380
L76856 73380
L76913 73352
L76941 73295
L76941 73267
L76913 73211
L76856 73183
L76772 73183
L76716 73155
L76688 73099
L76688 73070
L76716 73014
L76772 72986
L76856 72986
L76913 73014
" />
<path d="M77419 73352
L77363 73380
L77250 73380
L77194 73352
L77166 73295
L77166 73070
L77194 73014
L77250 72986
L77363 72986
L77419 73014
L77447 73070
L77447 73127
L77166 73183
" />
<path d="M77700 73323
L77728 73352
L77700 73380
L77672 73352
L77700 73323
L77700 73380
" />
<path d="M77981 73380
L77981 72789
" />
<path d="M78037 73155
L78206 73380
" />
<path d="M78206 72986
L77981 73211
" />
<path d="M78459 73380
L78459 72986
" />
<path d="M78459 72789
L78431 72817
L78459 72845
L78487 72817
L78459 72789
L78459 72845
" />
<path d="M78994 73352
L78937 73380
L78825 73380
L78769 73352
L78741 73323
L78712 73267
L78712 73099
L78741 73042
L78769 73014
L78825 72986
L78937 72986
L78994 73014
" />
<path d="M79500 73380
L79500 73070
L79472 73014
L79415 72986
L79303 72986
L79247 73014
" />
<path d="M79500 73352
L79444 73380
L79303 73380
L79247 73352
L79219 73295
L79219 73239
L79247 73183
L79303 73155
L79444 73155
L79500 73127
" />
<path d="M80034 73380
L80034 72789
" />
<path d="M80034 73352
L79978 73380
L79865 73380
L79809 73352
L79781 73323
L79753 73267
L79753 73099
L79781 73042
L79809 73014
L79865 72986
L79978 72986
L80034 73014
" />
<path d="M80175 73436
L80625 73436
" />
<path d="M80765 72986
L80765 73577
" />
<path d="M80765 73014
L80822 72986
L80934 72986
L80990 73014
L81018 73042
L81046 73099
L81046 73267
L81018 73323
L80990 73352
L80934 73380
L80822 73380
L80765 73352
" />
<path d="M81553 73352
L81496 73380
L81384 73380
L81328 73352
L81300 73323
L81271 73267
L81271 73099
L81300 73042
L81328 73014
L81384 72986
L81496 72986
L81553 73014
" />
<path d="M81806 73380
L81806 72789
" />
<path d="M81806 73014
L81862 72986
L81974 72986
L82031 73014
L82059 73042
L82087 73099
L82087 73267
L82059 73323
L82031 73352
L81974 73380
L81862 73380
L81806 73352
" />
</g>
<g style="fill:#000000; fill-opacity:0.0; 
stroke:#000000; stroke-width:39.3701; stroke-opacity:1; 
stroke-linecap:round; stroke-linejoin:round;">
</g>
<g style="fill:#000000; fill-opacity:0.0; 
stroke:#000000; stroke-width:59.0551; stroke-opacity:1; 
stroke-linecap:round; stroke-linejoin:round;">
<path d="M69685 71459
L112205 71459
" />
</g>
<g style="fill:#000000; fill-opacity:0.0; 
stroke:#000000; stroke-width:39.3701; stroke-opacity:1; 
stroke-linecap:round; stroke-linejoin:round;">
</g>
<g style="fill:#000000; fill-opacity:0.0; 
stroke:#000000; stroke-width:59.0551; stroke-opacity:1; 
stroke-linecap:round; stroke-linejoin:round;">
<path d="M70192 72289
L70276 72317
L70417 72317
L70473 72289
L70501 72260
L70529 72204
L70529 72148
L70501 72092
L70473 72064
L70417 72036
L70304 72007
L70248 71979
L70220 71951
L70192 71895
L70192 71839
L70220 71782
L70248 71754
L70304 71726
L70445 71726
L70529 71754
" />
<path d="M70782 72317
L70782 71726
" />
<path d="M71035 72317
L71035 72007
L71007 71951
L70951 71923
L70867 71923
L70810 71951
L70782 71979
" />
<path d="M71541 72289
L71485 72317
L71373 72317
L71316 72289
L71288 72232
L71288 72007
L71316 71951
L71373 71923
L71485 71923
L71541 71951
L71570 72007
L71570 72064
L71288 72120
" />
<path d="M72048 72289
L71991 72317
L71879 72317
L71823 72289
L71795 72232
L71795 72007
L71823 71951
L71879 71923
L71991 71923
L72048 71951
L72076 72007
L72076 72064
L71795 72120
" />
<path d="M72244 71923
L72469 71923
" />
<path d="M72329 71726
L72329 72232
L72357 72289
L72413 72317
L72469 72317
" />
<path d="M72666 72260
L72694 72289
L72666 72317
L72638 72289
L72666 72260
L72666 72317
" />
<path d="M72666 71951
L72694 71979
L72666 72007
L72638 71979
L72666 71951
L72666 72007
" />
</g>
<g style="fill:#000000; fill-opacity:0.0; 
stroke:#000000; stroke-width:39.3701; stroke-opacity:1; 
stroke-linecap:round; stroke-linejoin:round;">
</g>
<g style="fill:#000000; fill-opacity:0.0; 
stroke:#000000; stroke-width:59.0551; stroke-opacity:1; 
stroke-linecap:round; stroke-linejoin:round;">
<path d="M77559 75396
L77559 76577
" />
</g>
<g style="fill:#000000; fill-opacity:0.0; 
stroke:#000000; stroke-width:39.3701; stroke-opacity:1; 
stroke-linecap:round; stroke-linejoin:round;">
</g>
<g style="fill:#000000; fill-opacity:0.0; 
stroke:#000000; stroke-width:59.0551; stroke-opacity:1; 
stroke-linecap:round; stroke-linejoin:round;">
<path d="M102756 75396
L102756 77955
" />
</g>
<g style="fill:#008484; fill-opacity:0.0; 
stroke:#008484; stroke-width:59.0551; stroke-opacity:1; 
stroke-linecap:round; stroke-linejoin:round;">
</g>
<g style="fill:#008484; fill-opacity:0.0; 
stroke:#008484; stroke-width:100; stroke-opacity:1; 
stroke-linecap:round; stroke-linejoin:round;">
<circle cx="57750" cy="43450" r="50" /> 
</g>
<g style="fill:#C2C200; fill-opacity:0.0; 
stroke:#C2C200; stroke-width:100; stroke-opacity:1; 
stroke-linecap:round; stroke-linejoin:round;">
</g>
<g style="fill:#C2C200; fill-opacity:0.0; 
stroke:#C2C200; stroke-width:59.0551; stroke-opacity:1; 
stroke-linecap:round; stroke-linejoin:round;">
<path d="M48950 58500
L62800 58500
" />
<path d="M62800 35250
L62800 58500
" />
<path d="M48950 35250
L62800 35250
" />
<path d="M48950 35250
L48950 58500
" />
</g>
<g style="fill:#008484; fill-opacity:0.0; 
stroke:#008484; stroke-width:59.0551; stroke-opacity:1; 
stroke-linecap:round; stroke-linejoin:round;">
</g>
<g style="fill:#008484; fill-opacity:0.0; 
stroke:#008484; stroke-width:100; stroke-opacity:1; 
stroke-linecap:round; stroke-linejoin:round;">
<circle cx="51550" cy="52900" r="50" /> 
</g>
<g style="fill:#C2C200; fill-opacity:0.0; 
stroke:#C2C200; stroke-width:100; stroke-opacity:1; 
stroke-linecap:round; stroke-linejoin:round;">
</g>
<g style="fill:#C2C200; fill-opacity:0.0; 
stroke:#C2C200; stroke-width:10; stroke-opacity:1; 
stroke-linecap:round; stroke-linejoin:round;">
<path d="M56085 47971
L56080 47980
L56066 47990
L56057 47990
L56042 47980
L56033 47961
L56028 47942
L56023 47904
L56023 47876
L56028 47838
L56033 47819
L56042 47800
L56057 47790
L56066 47790
L56080 47800
L56085 47809
" />
<path d="M56180 47990
L56123 47990
" />
<path d="M56152 47990
L56152 47790
L56142 47819
L56133 47838
L56123 47847
" />
<path d="M56242 47790
L56252 47790
L56261 47800
L56266 47809
L56271 47828
L56276 47866
L56276 47914
L56271 47952
L56266 47971
L56261 47980
L56252 47990
L56242 47990
L56233 47980
L56228 47971
L56223 47952
L56219 47914
L56219 47866
L56223 47828
L56228 47809
L56233 47800
L56242 47790
" />
<path d="M50123 53890
L50123 54052
L50128 54071
L50133 54080
L50142 54090
L50161 54090
L50171 54080
L50176 54071
L50180 54052
L50180 53890
" />
<path d="M50219 53890
L50280 53890
L50247 53966
L50261 53966
L50271 53976
L50276 53985
L50280 54004
L50280 54052
L50276 54071
L50271 54080
L50261 54090
L50233 54090
L50223 54080
L50219 54071
" />
<path d="M57233 53671
L57228 53680
L57214 53690
L57204 53690
L57190 53680
L57180 53661
L57176 53642
L57171 53604
L57171 53576
L57176 53538
L57180 53519
L57190 53500
L57204 53490
L57214 53490
L57228 53500
L57233 53509
" />
<path d="M57319 53490
L57300 53490
L57290 53500
L57285 53509
L57276 53538
L57271 53576
L57271 53652
L57276 53671
L57280 53680
L57290 53690
L57309 53690
L57319 53680
L57323 53671
L57328 53652
L57328 53604
L57323 53585
L57319 53576
L57309 53566
L57290 53566
L57280 53576
L57276 53585
L57271 53604
" />
<path d="M57573 55051
L57568 55060
L57554 55070
L57544 55070
L57530 55060
L57520 55041
L57516 55022
L57511 54984
L57511 54956
L57516 54918
L57520 54899
L57530 54880
L57544 54870
L57554 54870
L57568 54880
L57573 54889
" />
<path d="M57606 54870
L57668 54870
L57635 54946
L57649 54946
L57659 54956
L57663 54965
L57668 54984
L57668 55032
L57663 55051
L57659 55060
L57649 55070
L57620 55070
L57611 55060
L57606 55051
" />
<path d="M53323 41591
L53318 41600
L53304 41610
L53294 41610
L53280 41600
L53270 41581
L53266 41562
L53261 41524
L53261 41496
L53266 41458
L53270 41439
L53280 41420
L53294 41410
L53304 41410
L53318 41420
L53323 41429
" />
<path d="M53418 41610
L53361 41610
" />
<path d="M53390 41610
L53390 41410
L53380 41439
L53370 41458
L53361 41467
" />
<path d="M54083 43971
L54078 43980
L54064 43990
L54054 43990
L54040 43980
L54030 43961
L54026 43942
L54021 43904
L54021 43876
L54026 43838
L54030 43819
L54040 43800
L54054 43790
L54064 43790
L54078 43800
L54083 43809
" />
<path d="M54121 43809
L54126 43800
L54135 43790
L54159 43790
L54169 43800
L54173 43809
L54178 43828
L54178 43847
L54173 43876
L54116 43990
L54178 43990
" />
<path d="M56433 55171
L56428 55180
L56414 55190
L56404 55190
L56390 55180
L56380 55161
L56376 55142
L56371 55104
L56371 55076
L56376 55038
L56380 55019
L56390 55000
L56404 54990
L56414 54990
L56428 55000
L56433 55009
" />
<path d="M56519 55057
L56519 55190
" />
<path d="M56495 54980
L56471 55123
L56533 55123
" />
<path d="M57553 49421
L57548 49430
L57534 49440
L57524 49440
L57510 49430
L57500 49411
L57496 49392
L57491 49354
L57491 49326
L57496 49288
L57500 49269
L57510 49250
L57524 49240
L57534 49240
L57548 49250
L57553 49259
" />
<path d="M57643 49240
L57596 49240
L57591 49335
L57596 49326
L57605 49316
L57629 49316
L57639 49326
L57643 49335
L57648 49354
L57648 49402
L57643 49421
L57639 49430
L57629 49440
L57605 49440
L57596 49430
L57591 49421
" />
<path d="M50783 52221
L50778 52230
L50764 52240
L50754 52240
L50740 52230
L50730 52211
L50726 52192
L50721 52154
L50721 52126
L50726 52088
L50730 52069
L50740 52050
L50754 52040
L50764 52040
L50778 52050
L50783 52059
" />
<path d="M50816 52040
L50883 52040
L50840 52240
" />
<path d="M53483 53821
L53478 53830
L53464 53840
L53454 53840
L53440 53830
L53430 53811
L53426 53792
L53421 53754
L53421 53726
L53426 53688
L53430 53669
L53440 53650
L53454 53640
L53464 53640
L53478 53650
L53483 53659
" />
<path d="M53540 53726
L53530 53716
L53526 53707
L53521 53688
L53521 53678
L53526 53659
L53530 53650
L53540 53640
L53559 53640
L53569 53650
L53573 53659
L53578 53678
L53578 53688
L53573 53707
L53569 53716
L53559 53726
L53540 53726
L53530 53735
L53526 53745
L53521 53764
L53521 53802
L53526 53821
L53530 53830
L53540 53840
L53559 53840
L53569 53830
L53573 53821
L53578 53802
L53578 53764
L53573 53745
L53569 53735
L53559 53726
" />
<path d="M54033 51271
L54028 51280
L54014 51290
L54004 51290
L53990 51280
L53980 51261
L53976 51242
L53971 51204
L53971 51176
L53976 51138
L53980 51119
L53990 51100
L54004 51090
L54014 51090
L54028 51100
L54033 51109
" />
<path d="M54080 51290
L54100 51290
L54109 51280
L54114 51271
L54123 51242
L54128 51204
L54128 51128
L54123 51109
L54119 51100
L54109 51090
L54090 51090
L54080 51100
L54076 51109
L54071 51128
L54071 51176
L54076 51195
L54080 51204
L54090 51214
L54109 51214
L54119 51204
L54123 51195
L54128 51176
" />
<path d="M55535 46821
L55530 46830
L55516 46840
L55507 46840
L55492 46830
L55483 46811
L55478 46792
L55473 46754
L55473 46726
L55478 46688
L55483 46669
L55492 46650
L55507 46640
L55516 46640
L55530 46650
L55535 46659
" />
<path d="M55630 46840
L55573 46840
" />
<path d="M55602 46840
L55602 46640
L55592 46669
L55583 46688
L55573 46697
" />
<path d="M55726 46840
L55669 46840
" />
<path d="M55697 46840
L55697 46640
L55688 46669
L55678 46688
L55669 46697
" />
<path d="M53785 52771
L53780 52780
L53766 52790
L53757 52790
L53742 52780
L53733 52761
L53728 52742
L53723 52704
L53723 52676
L53728 52638
L53733 52619
L53742 52600
L53757 52590
L53766 52590
L53780 52600
L53785 52609
" />
<path d="M53880 52790
L53823 52790
" />
<path d="M53852 52790
L53852 52590
L53842 52619
L53833 52638
L53823 52647
" />
<path d="M53919 52609
L53923 52600
L53933 52590
L53957 52590
L53966 52600
L53971 52609
L53976 52628
L53976 52647
L53971 52676
L53914 52790
L53976 52790
" />
<path d="M58035 51971
L58030 51980
L58016 51990
L58007 51990
L57992 51980
L57983 51961
L57978 51942
L57973 51904
L57973 51876
L57978 51838
L57983 51819
L57992 51800
L58007 51790
L58016 51790
L58030 51800
L58035 51809
" />
<path d="M58130 51990
L58073 51990
" />
<path d="M58102 51990
L58102 51790
L58092 51819
L58083 51838
L58073 51847
" />
<path d="M58216 51857
L58216 51990
" />
<path d="M58192 51780
L58169 51923
L58230 51923
" />
<path d="M55085 50521
L55080 50530
L55066 50540
L55057 50540
L55042 50530
L55033 50511
L55028 50492
L55023 50454
L55023 50426
L55028 50388
L55033 50369
L55042 50350
L55057 50340
L55066 50340
L55080 50350
L55085 50359
" />
<path d="M55180 50540
L55123 50540
" />
<path d="M55152 50540
L55152 50340
L55142 50369
L55133 50388
L55123 50397
" />
<path d="M55271 50340
L55223 50340
L55219 50435
L55223 50426
L55233 50416
L55257 50416
L55266 50426
L55271 50435
L55276 50454
L55276 50502
L55271 50521
L55266 50530
L55257 50540
L55233 50540
L55223 50530
L55219 50521
" />
<path d="M51285 50821
L51280 50830
L51266 50840
L51257 50840
L51242 50830
L51233 50811
L51228 50792
L51223 50754
L51223 50726
L51228 50688
L51233 50669
L51242 50650
L51257 50640
L51266 50640
L51280 50650
L51285 50659
" />
<path d="M51380 50840
L51323 50840
" />
<path d="M51352 50840
L51352 50640
L51342 50669
L51333 50688
L51323 50697
" />
<path d="M51466 50640
L51447 50640
L51438 50650
L51433 50659
L51423 50688
L51419 50726
L51419 50802
L51423 50821
L51428 50830
L51438 50840
L51457 50840
L51466 50830
L51471 50821
L51476 50802
L51476 50754
L51471 50735
L51466 50726
L51457 50716
L51438 50716
L51428 50726
L51423 50735
L51419 50754
" />
<path d="M53635 50821
L53630 50830
L53616 50840
L53607 50840
L53592 50830
L53583 50811
L53578 50792
L53573 50754
L53573 50726
L53578 50688
L53583 50669
L53592 50650
L53607 50640
L53616 50640
L53630 50650
L53635 50659
" />
<path d="M53730 50840
L53673 50840
" />
<path d="M53702 50840
L53702 50640
L53692 50669
L53683 50688
L53673 50697
" />
<path d="M53764 50640
L53830 50640
L53788 50840
" />
<path d="M51335 50221
L51330 50230
L51316 50240
L51307 50240
L51292 50230
L51283 50211
L51278 50192
L51273 50154
L51273 50126
L51278 50088
L51283 50069
L51292 50050
L51307 50040
L51316 50040
L51330 50050
L51335 50059
" />
<path d="M51430 50240
L51373 50240
" />
<path d="M51402 50240
L51402 50040
L51392 50069
L51383 50088
L51373 50097
" />
<path d="M51488 50126
L51478 50116
L51473 50107
L51469 50088
L51469 50078
L51473 50059
L51478 50050
L51488 50040
L51507 50040
L51516 50050
L51521 50059
L51526 50078
L51526 50088
L51521 50107
L51516 50116
L51507 50126
L51488 50126
L51478 50135
L51473 50145
L51469 50164
L51469 50202
L51473 50221
L51478 50230
L51488 50240
L51507 50240
L51516 50230
L51521 50221
L51526 50202
L51526 50164
L51521 50145
L51516 50135
L51507 50126
" />
<path d="M57235 52871
L57230 52880
L57216 52890
L57207 52890
L57192 52880
L57183 52861
L57178 52842
L57173 52804
L57173 52776
L57178 52738
L57183 52719
L57192 52700
L57207 52690
L57216 52690
L57230 52700
L57235 52709
" />
<path d="M57273 52709
L57278 52700
L57288 52690
L57311 52690
L57321 52700
L57326 52709
L57330 52728
L57330 52747
L57326 52776
L57269 52890
L57330 52890
" />
<path d="M57392 52690
L57402 52690
L57411 52700
L57416 52709
L57421 52728
L57426 52766
L57426 52814
L57421 52852
L57416 52871
L57411 52880
L57402 52890
L57392 52890
L57383 52880
L57378 52871
L57373 52852
L57369 52814
L57369 52766
L57373 52728
L57378 52709
L57383 52700
L57392 52690
" />
<path d="M53635 50221
L53630 50230
L53616 50240
L53607 50240
L53592 50230
L53583 50211
L53578 50192
L53573 50154
L53573 50126
L53578 50088
L53583 50069
L53592 50050
L53607 50040
L53616 50040
L53630 50050
L53635 50059
" />
<path d="M53673 50059
L53678 50050
L53688 50040
L53711 50040
L53721 50050
L53726 50059
L53730 50078
L53730 50097
L53726 50126
L53669 50240
L53730 50240
" />
<path d="M53826 50240
L53769 50240
" />
<path d="M53797 50240
L53797 50040
L53788 50069
L53778 50088
L53769 50097
" />
<path d="M55685 56721
L55680 56730
L55666 56740
L55657 56740
L55642 56730
L55633 56711
L55628 56692
L55623 56654
L55623 56626
L55628 56588
L55633 56569
L55642 56550
L55657 56540
L55666 56540
L55680 56550
L55685 56559
" />
<path d="M55723 56559
L55728 56550
L55738 56540
L55761 56540
L55771 56550
L55776 56559
L55780 56578
L55780 56597
L55776 56626
L55719 56740
L55780 56740
" />
<path d="M55819 56559
L55823 56550
L55833 56540
L55857 56540
L55866 56550
L55871 56559
L55876 56578
L55876 56597
L55871 56626
L55814 56740
L55876 56740
" />
<path d="M55635 49221
L55630 49230
L55616 49240
L55607 49240
L55592 49230
L55583 49211
L55578 49192
L55573 49154
L55573 49126
L55578 49088
L55583 49069
L55592 49050
L55607 49040
L55616 49040
L55630 49050
L55635 49059
" />
<path d="M55673 49059
L55678 49050
L55688 49040
L55711 49040
L55721 49050
L55726 49059
L55730 49078
L55730 49097
L55726 49126
L55669 49240
L55730 49240
" />
<path d="M55764 49040
L55826 49040
L55792 49116
L55807 49116
L55816 49126
L55821 49135
L55826 49154
L55826 49202
L55821 49221
L55816 49230
L55807 49240
L55778 49240
L55769 49230
L55764 49221
" />
<path d="M51235 56121
L51230 56130
L51216 56140
L51207 56140
L51192 56130
L51183 56111
L51178 56092
L51173 56054
L51173 56026
L51178 55988
L51183 55969
L51192 55950
L51207 55940
L51216 55940
L51230 55950
L51235 55959
" />
<path d="M51273 55959
L51278 55950
L51288 55940
L51311 55940
L51321 55950
L51326 55959
L51330 55978
L51330 55997
L51326 56026
L51269 56140
L51330 56140
" />
<path d="M51416 56007
L51416 56140
" />
<path d="M51392 55930
L51369 56073
L51430 56073
" />
<path d="M49885 55071
L49880 55080
L49866 55090
L49857 55090
L49842 55080
L49833 55061
L49828 55042
L49823 55004
L49823 54976
L49828 54938
L49833 54919
L49842 54900
L49857 54890
L49866 54890
L49880 54900
L49885 54909
" />
<path d="M49923 54909
L49928 54900
L49938 54890
L49961 54890
L49971 54900
L49976 54909
L49980 54928
L49980 54947
L49976 54976
L49919 55090
L49980 55090
" />
<path d="M50071 54890
L50023 54890
L50019 54985
L50023 54976
L50033 54966
L50057 54966
L50066 54976
L50071 54985
L50076 55004
L50076 55052
L50071 55071
L50066 55080
L50057 55090
L50033 55090
L50023 55080
L50019 55071
" />
<path d="M56571 49364
L56580 49369
L56590 49383
L56590 49392
L56580 49407
L56561 49416
L56542 49421
L56504 49426
L56476 49426
L56438 49421
L56419 49416
L56400 49407
L56390 49392
L56390 49383
L56400 49369
L56409 49364
" />
<path d="M56409 49326
L56400 49321
L56390 49311
L56390 49288
L56400 49278
L56409 49273
L56428 49269
L56447 49269
L56476 49273
L56590 49330
L56590 49269
" />
<path d="M56390 49183
L56390 49202
L56400 49211
L56409 49216
L56438 49226
L56476 49230
L56552 49230
L56571 49226
L56580 49221
L56590 49211
L56590 49192
L56580 49183
L56571 49178
L56552 49173
L56504 49173
L56485 49178
L56476 49183
L56466 49192
L56466 49211
L56476 49221
L56485 49226
L56504 49230
" />
<path d="M51385 57171
L51380 57180
L51366 57190
L51357 57190
L51342 57180
L51333 57161
L51328 57142
L51323 57104
L51323 57076
L51328 57038
L51333 57019
L51342 57000
L51357 56990
L51366 56990
L51380 57000
L51385 57009
" />
<path d="M51419 56990
L51480 56990
L51447 57066
L51461 57066
L51471 57076
L51476 57085
L51480 57104
L51480 57152
L51476 57171
L51471 57180
L51461 57190
L51433 57190
L51423 57180
L51419 57171
" />
<path d="M51542 56990
L51552 56990
L51561 57000
L51566 57009
L51571 57028
L51576 57066
L51576 57114
L51571 57152
L51566 57171
L51561 57180
L51552 57190
L51542 57190
L51533 57180
L51528 57171
L51523 57152
L51519 57114
L51519 57066
L51523 57028
L51528 57009
L51533 57000
L51542 56990
" />
<path d="M50176 41490
L50176 41290
L50200 41290
L50214 41300
L50223 41319
L50228 41338
L50233 41376
L50233 41404
L50228 41442
L50223 41461
L50214 41480
L50200 41490
L50176 41490
" />
<path d="M50328 41490
L50271 41490
" />
<path d="M50300 41490
L50300 41290
L50290 41319
L50280 41338
L50271 41347
" />
<path d="M50183 42240
L50150 42145
" />
<path d="M50126 42240
L50126 42040
L50164 42040
L50173 42050
L50178 42059
L50183 42078
L50183 42107
L50178 42126
L50173 42135
L50164 42145
L50126 42145
" />
<path d="M50278 42240
L50221 42240
" />
<path d="M50250 42240
L50250 42040
L50240 42069
L50230 42088
L50221 42097
" />
<path d="M51933 42420
L51900 42325
" />
<path d="M51876 42420
L51876 42220
L51914 42220
L51923 42230
L51928 42239
L51933 42258
L51933 42287
L51928 42306
L51923 42315
L51914 42325
L51876 42325
" />
<path d="M51971 42239
L51976 42230
L51985 42220
L52009 42220
L52019 42230
L52023 42239
L52028 42258
L52028 42277
L52023 42306
L51966 42420
L52028 42420
" />
<path d="M54233 50490
L54200 50395
" />
<path d="M54176 50490
L54176 50290
L54214 50290
L54223 50300
L54228 50309
L54233 50328
L54233 50357
L54228 50376
L54223 50385
L54214 50395
L54176 50395
" />
<path d="M54266 50290
L54328 50290
L54295 50366
L54309 50366
L54319 50376
L54323 50385
L54328 50404
L54328 50452
L54323 50471
L54319 50480
L54309 50490
L54280 50490
L54271 50480
L54266 50471
" />
<path d="M53933 53040
L53900 52945
" />
<path d="M53876 53040
L53876 52840
L53914 52840
L53923 52850
L53928 52859
L53933 52878
L53933 52907
L53928 52926
L53923 52935
L53914 52945
L53876 52945
" />
<path d="M54019 52907
L54019 53040
" />
<path d="M53995 52830
L53971 52973
L54033 52973
" />
<path d="M54483 49440
L54450 49345
" />
<path d="M54426 49440
L54426 49240
L54464 49240
L54473 49250
L54478 49259
L54483 49278
L54483 49307
L54478 49326
L54473 49335
L54464 49345
L54426 49345
" />
<path d="M54573 49240
L54526 49240
L54521 49335
L54526 49326
L54535 49316
L54559 49316
L54569 49326
L54573 49335
L54578 49354
L54578 49402
L54573 49421
L54569 49430
L54559 49440
L54535 49440
L54526 49430
L54521 49421
" />
<path d="M52540 49139
L52445 49172
" />
<path d="M52540 49196
L52340 49196
L52340 49158
L52350 49149
L52359 49144
L52378 49139
L52407 49139
L52426 49144
L52435 49149
L52445 49158
L52445 49196
" />
<path d="M52340 49053
L52340 49072
L52350 49082
L52359 49087
L52388 49096
L52426 49101
L52502 49101
L52521 49096
L52530 49091
L52540 49082
L52540 49063
L52530 49053
L52521 49049
L52502 49044
L52454 49044
L52435 49049
L52426 49053
L52416 49063
L52416 49082
L52426 49091
L52435 49096
L52454 49101
" />
<path d="M55333 54190
L55300 54095
" />
<path d="M55276 54190
L55276 53990
L55314 53990
L55323 54000
L55328 54009
L55333 54028
L55333 54057
L55328 54076
L55323 54085
L55314 54095
L55276 54095
" />
<path d="M55366 53990
L55433 53990
L55390 54190
" />
<path d="M53033 48540
L53000 48445
" />
<path d="M52976 48540
L52976 48340
L53014 48340
L53023 48350
L53028 48359
L53033 48378
L53033 48407
L53028 48426
L53023 48435
L53014 48445
L52976 48445
" />
<path d="M53090 48426
L53080 48416
L53076 48407
L53071 48388
L53071 48378
L53076 48359
L53080 48350
L53090 48340
L53109 48340
L53119 48350
L53123 48359
L53128 48378
L53128 48388
L53123 48407
L53119 48416
L53109 48426
L53090 48426
L53080 48435
L53076 48445
L53071 48464
L53071 48502
L53076 48521
L53080 48530
L53090 48540
L53109 48540
L53119 48530
L53123 48521
L53128 48502
L53128 48464
L53123 48445
L53119 48435
L53109 48426
" />
<path d="M54283 54190
L54250 54095
" />
<path d="M54226 54190
L54226 53990
L54264 53990
L54273 54000
L54278 54009
L54283 54028
L54283 54057
L54278 54076
L54273 54085
L54264 54095
L54226 54095
" />
<path d="M54330 54190
L54350 54190
L54359 54180
L54364 54171
L54373 54142
L54378 54104
L54378 54028
L54373 54009
L54369 54000
L54359 53990
L54340 53990
L54330 54000
L54326 54009
L54321 54028
L54321 54076
L54326 54095
L54330 54104
L54340 54114
L54359 54114
L54369 54104
L54373 54095
L54378 54076
" />
<path d="M54785 51490
L54752 51395
" />
<path d="M54728 51490
L54728 51290
L54766 51290
L54776 51300
L54780 51309
L54785 51328
L54785 51357
L54780 51376
L54776 51385
L54766 51395
L54728 51395
" />
<path d="M54880 51490
L54823 51490
" />
<path d="M54852 51490
L54852 51290
L54842 51319
L54833 51338
L54823 51347
" />
<path d="M54976 51490
L54919 51490
" />
<path d="M54947 51490
L54947 51290
L54938 51319
L54928 51338
L54919 51347
" />
<path d="M56485 51640
L56452 51545
" />
<path d="M56428 51640
L56428 51440
L56466 51440
L56476 51450
L56480 51459
L56485 51478
L56485 51507
L56480 51526
L56476 51535
L56466 51545
L56428 51545
" />
<path d="M56580 51640
L56523 51640
" />
<path d="M56552 51640
L56552 51440
L56542 51469
L56533 51488
L56523 51497
" />
<path d="M56614 51440
L56676 51440
L56642 51516
L56657 51516
L56666 51526
L56671 51535
L56676 51554
L56676 51602
L56671 51621
L56666 51630
L56657 51640
L56628 51640
L56619 51630
L56614 51621
" />
<path d="M52323 43390
L52323 43552
L52328 43571
L52333 43580
L52342 43590
L52361 43590
L52371 43580
L52376 43571
L52380 43552
L52380 43390
" />
<path d="M52423 43409
L52428 43400
L52438 43390
L52461 43390
L52471 43400
L52476 43409
L52480 43428
L52480 43447
L52476 43476
L52419 43590
L52480 43590
" />
<path d="M55125 47796
L55125 47958
L55130 47977
L55135 47986
L55144 47996
L55163 47996
L55173 47986
L55178 47977
L55182 47958
L55182 47796
" />
<path d="M55278 47796
L55230 47796
L55225 47891
L55230 47882
L55240 47872
L55263 47872
L55273 47882
L55278 47891
L55282 47910
L55282 47958
L55278 47977
L55273 47986
L55263 47996
L55240 47996
L55230 47986
L55225 47977
" />
<path d="M54723 53690
L54723 53852
L54728 53871
L54733 53880
L54742 53890
L54761 53890
L54771 53880
L54776 53871
L54780 53852
L54780 53690
" />
<path d="M54871 53690
L54852 53690
L54842 53700
L54838 53709
L54828 53738
L54823 53776
L54823 53852
L54828 53871
L54833 53880
L54842 53890
L54861 53890
L54871 53880
L54876 53871
L54880 53852
L54880 53804
L54876 53785
L54871 53776
L54861 53766
L54842 53766
L54833 53776
L54828 53785
L54823 53804
" />
<path d="M57676 50140
L57676 50302
L57680 50321
L57685 50330
L57695 50340
L57714 50340
L57723 50330
L57728 50321
L57733 50302
L57733 50140
" />
<path d="M57833 50340
L57776 50340
" />
<path d="M57804 50340
L57804 50140
L57795 50169
L57785 50188
L57776 50197
" />
<path d="M57871 50159
L57876 50150
L57885 50140
L57909 50140
L57919 50150
L57923 50159
L57928 50178
L57928 50197
L57923 50226
L57866 50340
L57928 50340
" />
<path d="M60473 41490
L60473 41652
L60478 41671
L60483 41680
L60492 41690
L60511 41690
L60521 41680
L60526 41671
L60530 41652
L60530 41490
" />
<path d="M60569 41490
L60635 41490
L60592 41690
" />
<path d="M49373 57790
L49373 57952
L49378 57971
L49383 57980
L49392 57990
L49411 57990
L49421 57980
L49426 57971
L49430 57952
L49430 57790
" />
<path d="M49483 57990
L49502 57990
L49511 57980
L49516 57971
L49526 57942
L49530 57904
L49530 57828
L49526 57809
L49521 57800
L49511 57790
L49492 57790
L49483 57800
L49478 57809
L49473 57828
L49473 57876
L49478 57895
L49483 57904
L49492 57914
L49511 57914
L49521 57904
L49526 57895
L49530 57876
" />
<path d="M57140 49424
L57045 49457
" />
<path d="M57140 49481
L56940 49481
L56940 49443
L56950 49433
L56959 49429
L56978 49424
L57007 49424
L57026 49429
L57035 49433
L57045 49443
L57045 49481
" />
<path d="M57140 49329
L57140 49386
" />
<path d="M57140 49357
L56940 49357
L56969 49367
L56988 49376
L56997 49386
" />
<path d="M56959 49290
L56950 49286
L56940 49276
L56940 49252
L56950 49243
L56959 49238
L56978 49233
L56997 49233
L57026 49238
L57140 49295
L57140 49233
" />
<path d="M55726 38120
L55740 38130
L55764 38130
L55774 38120
L55779 38111
L55783 38092
L55783 38073
L55779 38054
L55774 38044
L55764 38035
L55745 38025
L55736 38016
L55731 38006
L55726 37987
L55726 37968
L55731 37949
L55736 37940
L55745 37930
L55769 37930
L55783 37940
" />
<path d="M55817 37930
L55840 38130
L55860 37987
L55879 38130
L55902 37930
" />
<path d="M55993 38130
L55936 38130
" />
<path d="M55964 38130
L55964 37930
L55955 37959
L55945 37978
L55936 37987
" />
<path d="M53261 39386
L53404 39386
L53432 39391
L53451 39400
L53461 39414
L53461 39424
" />
<path d="M53280 39343
L53270 39338
L53261 39329
L53261 39305
L53270 39295
L53280 39291
L53299 39286
L53318 39286
L53346 39291
L53461 39348
L53461 39286
" />
</g>
<g style="fill:#008484; fill-opacity:0.0; 
stroke:#008484; stroke-width:10; stroke-opacity:1; 
stroke-linecap:round; stroke-linejoin:round;">
</g>
<g style="fill:#008484; fill-opacity:0.0; 
stroke:#008484; stroke-width:120; stroke-opacity:1; 
stroke-linecap:round; stroke-linejoin:round;">
<path d="M52684 40569
L52684 40112
" />
<path d="M52684 38601
L52684 38144
" />
<path d="M52913 38372
L52456 38372
" />
</g>
<g style="fill:#C2C200; fill-opacity:0.0; 
stroke:#C2C200; stroke-width:120; stroke-opacity:1; 
stroke-linecap:round; stroke-linejoin:round;">
</g>
<g style="fill:#C2C200; fill-opacity:0.0; 
stroke:#C2C200; stroke-width:10; stroke-opacity:1; 
stroke-linecap:round; stroke-linejoin:round;">
<path d="M57873 43190
L57873 43352
L57878 43371
L57883 43380
L57892 43390
L57911 43390
L57921 43380
L57926 43371
L57930 43352
L57930 43190
" />
<path d="M57992 43276
L57983 43266
L57978 43257
L57973 43238
L57973 43228
L57978 43209
L57983 43200
L57992 43190
L58011 43190
L58021 43200
L58026 43209
L58030 43228
L58030 43238
L58026 43257
L58021 43266
L58011 43276
L57992 43276
L57983 43285
L57978 43295
L57973 43314
L57973 43352
L57978 43371
L57983 43380
L57992 43390
L58011 43390
L58021 43380
L58026 43371
L58030 43352
L58030 43314
L58026 43295
L58021 43285
L58011 43276
" />
<path d="M61916 41840
L61916 41983
L61911 42011
L61902 42030
L61888 42040
L61878 42040
" />
<path d="M62016 42040
L61959 42040
" />
<path d="M61988 42040
L61988 41840
L61978 41869
L61969 41888
L61959 41897
" />
</g>
<g style="fill:#008484; fill-opacity:0.0; 
stroke:#008484; stroke-width:10; stroke-opacity:1; 
stroke-linecap:round; stroke-linejoin:round;">
</g>
<g style="fill:#008484; fill-opacity:0.0; 
stroke:#008484; stroke-width:59.0551; stroke-opacity:1; 
stroke-linecap:round; stroke-linejoin:round;">
<path d="M57943 39284
L57549 39284
" />
<path d="M57943 39059
L57718 39228
" />
<path d="M57549 39059
L57774 39284
" />
<path d="M57549 38816
L57549 38741
L57568 38703
L57605 38666
L57680 38647
L57811 38647
L57886 38666
L57924 38703
L57943 38741
L57943 38816
L57924 38853
L57886 38891
L57811 38909
L57680 38909
L57605 38891
L57568 38853
L57549 38816
" />
<path d="M58797 39153
L58797 38759
" />
<path d="M59022 39153
L58854 38928
" />
<path d="M59022 38759
L58797 38984
" />
<path d="M59191 38947
L59322 38947
" />
<path d="M59379 39153
L59191 39153
L59191 38759
L59379 38759
" />
<path d="M59547 38947
L59679 38947
" />
<path d="M59735 39153
L59547 39153
L59547 38759
L59735 38759
" />
<path d="M59904 39153
L59904 38759
L60054 38759
L60091 38778
L60110 38797
L60129 38834
L60129 38891
L60110 38928
L60091 38947
L60054 38966
L59904 38966
" />
<path d="M60672 38759
L60747 38759
L60785 38778
L60822 38816
L60841 38891
L60841 39022
L60822 39097
L60785 39134
L60747 39153
L60672 39153
L60635 39134
L60597 39097
L60578 39022
L60578 38891
L60597 38816
L60635 38778
L60672 38759
" />
<path d="M61010 38759
L61010 39078
L61028 39116
L61047 39134
L61085 39153
L61160 39153
L61197 39134
L61216 39116
L61235 39078
L61235 38759
" />
<path d="M61366 38759
L61591 38759
" />
<path d="M61478 39153
L61478 38759
" />
</g>
<g style="fill:#C2C200; fill-opacity:0.0; 
stroke:#C2C200; stroke-width:59.0551; stroke-opacity:1; 
stroke-linecap:round; stroke-linejoin:round;">
</g>
<g style="fill:#C2C200; fill-opacity:0.0; 
stroke:#C2C200; stroke-width:10; stroke-opacity:1; 
stroke-linecap:round; stroke-linejoin:round;">
<path d="M55785 41090
L55752 40995
" />
<path d="M55728 41090
L55728 40890
L55766 40890
L55776 40900
L55780 40909
L55785 40928
L55785 40957
L55780 40976
L55776 40985
L55766 40995
L55728 40995
" />
<path d="M55880 41090
L55823 41090
" />
<path d="M55852 41090
L55852 40890
L55842 40919
L55833 40938
L55823 40947
" />
<path d="M55942 40890
L55952 40890
L55961 40900
L55966 40909
L55971 40928
L55976 40966
L55976 41014
L55971 41052
L55966 41071
L55961 41080
L55952 41090
L55942 41090
L55933 41080
L55928 41071
L55923 41052
L55919 41014
L55919 40966
L55923 40928
L55928 40909
L55933 40900
L55942 40890
" />
<path d="M55590 35914
L55495 35947
" />
<path d="M55590 35971
L55390 35971
L55390 35933
L55400 35923
L55409 35919
L55428 35914
L55457 35914
L55476 35919
L55485 35923
L55495 35933
L55495 35971
" />
<path d="M55590 35819
L55590 35876
" />
<path d="M55590 35847
L55390 35847
L55419 35857
L55438 35866
L55447 35876
" />
<path d="M55457 35733
L55590 35733
" />
<path d="M55380 35757
L55523 35780
L55523 35719
" />
<path d="M61835 43040
L61802 42945
" />
<path d="M61778 43040
L61778 42840
L61816 42840
L61826 42850
L61830 42859
L61835 42878
L61835 42907
L61830 42926
L61826 42935
L61816 42945
L61778 42945
" />
<path d="M61930 43040
L61873 43040
" />
<path d="M61902 43040
L61902 42840
L61892 42869
L61883 42888
L61873 42897
" />
<path d="M62021 42840
L61973 42840
L61969 42935
L61973 42926
L61983 42916
L62007 42916
L62016 42926
L62021 42935
L62026 42954
L62026 43002
L62021 43021
L62016 43030
L62007 43040
L61983 43040
L61973 43030
L61969 43021
" />
<path d="M61386 46210
L61386 46010
L61410 46010
L61424 46020
L61433 46039
L61438 46058
L61443 46096
L61443 46124
L61438 46162
L61433 46181
L61424 46200
L61410 46210
L61386 46210
" />
<path d="M61481 46029
L61486 46020
L61495 46010
L61519 46010
L61529 46020
L61533 46029
L61538 46048
L61538 46067
L61533 46096
L61476 46210
L61538 46210
" />
<path d="M62012 48580
L61979 48485
" />
<path d="M61955 48580
L61955 48380
L61993 48380
L62003 48390
L62008 48399
L62012 48418
L62012 48447
L62008 48466
L62003 48475
L61993 48485
L61955 48485
" />
<path d="M62108 48580
L62050 48580
" />
<path d="M62079 48580
L62079 48380
L62070 48409
L62060 48428
L62050 48437
" />
<path d="M62193 48380
L62174 48380
L62165 48390
L62160 48399
L62150 48428
L62146 48466
L62146 48542
L62150 48561
L62155 48570
L62165 48580
L62184 48580
L62193 48570
L62198 48561
L62203 48542
L62203 48494
L62198 48475
L62193 48466
L62184 48456
L62165 48456
L62155 48466
L62150 48475
L62146 48494
" />
<path d="M61585 44790
L61552 44695
" />
<path d="M61528 44790
L61528 44590
L61566 44590
L61576 44600
L61580 44609
L61585 44628
L61585 44657
L61580 44676
L61576 44685
L61566 44695
L61528 44695
" />
<path d="M61680 44790
L61623 44790
" />
<path d="M61652 44790
L61652 44590
L61642 44619
L61633 44638
L61623 44647
" />
<path d="M61714 44590
L61780 44590
L61738 44790
" />
<path d="M61992 47470
L61959 47375
" />
<path d="M61935 47470
L61935 47270
L61973 47270
L61983 47280
L61988 47289
L61992 47308
L61992 47337
L61988 47356
L61983 47365
L61973 47375
L61935 47375
" />
<path d="M62088 47470
L62030 47470
" />
<path d="M62059 47470
L62059 47270
L62050 47299
L62040 47318
L62030 47327
" />
<path d="M62145 47356
L62135 47346
L62130 47337
L62126 47318
L62126 47308
L62130 47289
L62135 47280
L62145 47270
L62164 47270
L62173 47280
L62178 47289
L62183 47308
L62183 47318
L62178 47337
L62173 47346
L62164 47356
L62145 47356
L62135 47365
L62130 47375
L62126 47394
L62126 47432
L62130 47451
L62135 47460
L62145 47470
L62164 47470
L62173 47460
L62178 47451
L62183 47432
L62183 47394
L62178 47375
L62173 47365
L62164 47356
" />
<path d="M56923 58090
L56923 58252
L56928 58271
L56933 58280
L56942 58290
L56961 58290
L56971 58280
L56976 58271
L56980 58252
L56980 58090
" />
<path d="M57071 58157
L57071 58290
" />
<path d="M57047 58080
L57023 58223
L57085 58223
" />
<path d="M54476 57690
L54476 57852
L54480 57871
L54485 57880
L54495 57890
L54514 57890
L54523 57880
L54528 57871
L54533 57852
L54533 57690
" />
<path d="M54633 57890
L54576 57890
" />
<path d="M54604 57890
L54604 57690
L54595 57719
L54585 57738
L54576 57747
" />
<path d="M54695 57690
L54704 57690
L54714 57700
L54719 57709
L54723 57728
L54728 57766
L54728 57814
L54723 57852
L54719 57871
L54714 57880
L54704 57890
L54695 57890
L54685 57880
L54680 57871
L54676 57852
L54671 57814
L54671 57766
L54676 57728
L54680 57709
L54685 57700
L54695 57690
" />
<path d="M53026 57840
L53026 58002
L53030 58021
L53035 58030
L53045 58040
L53064 58040
L53073 58030
L53078 58021
L53083 58002
L53083 57840
" />
<path d="M53183 58040
L53126 58040
" />
<path d="M53154 58040
L53154 57840
L53145 57869
L53135 57888
L53126 57897
" />
<path d="M53278 58040
L53221 58040
" />
<path d="M53250 58040
L53250 57840
L53240 57869
L53230 57888
L53221 57897
" />
<path d="M53685 47571
L53680 47580
L53666 47590
L53657 47590
L53642 47580
L53633 47561
L53628 47542
L53623 47504
L53623 47476
L53628 47438
L53633 47419
L53642 47400
L53657 47390
L53666 47390
L53680 47400
L53685 47409
" />
<path d="M53780 47590
L53723 47590
" />
<path d="M53752 47590
L53752 47390
L53742 47419
L53733 47438
L53723 47447
" />
<path d="M53814 47390
L53876 47390
L53842 47466
L53857 47466
L53866 47476
L53871 47485
L53876 47504
L53876 47552
L53871 47571
L53866 47580
L53857 47590
L53828 47590
L53819 47580
L53814 47571
" />
<path d="M51485 48771
L51480 48780
L51466 48790
L51457 48790
L51442 48780
L51433 48761
L51428 48742
L51423 48704
L51423 48676
L51428 48638
L51433 48619
L51442 48600
L51457 48590
L51466 48590
L51480 48600
L51485 48609
" />
<path d="M51580 48790
L51523 48790
" />
<path d="M51552 48790
L51552 48590
L51542 48619
L51533 48638
L51523 48647
" />
<path d="M51628 48790
L51647 48790
L51657 48780
L51661 48771
L51671 48742
L51676 48704
L51676 48628
L51671 48609
L51666 48600
L51657 48590
L51638 48590
L51628 48600
L51623 48609
L51619 48628
L51619 48676
L51623 48695
L51628 48704
L51638 48714
L51657 48714
L51666 48704
L51671 48695
L51676 48676
" />
<path d="M51726 48240
L51726 48402
L51730 48421
L51735 48430
L51745 48440
L51764 48440
L51773 48430
L51778 48421
L51783 48402
L51783 48240
" />
<path d="M51883 48440
L51826 48440
" />
<path d="M51854 48440
L51854 48240
L51845 48269
L51835 48288
L51826 48297
" />
<path d="M51916 48240
L51978 48240
L51945 48316
L51959 48316
L51969 48326
L51973 48335
L51978 48354
L51978 48402
L51973 48421
L51969 48430
L51959 48440
L51930 48440
L51921 48430
L51916 48421
" />
<path d="M50135 43790
L50102 43695
" />
<path d="M50078 43790
L50078 43590
L50116 43590
L50126 43600
L50130 43609
L50135 43628
L50135 43657
L50130 43676
L50126 43685
L50116 43695
L50078 43695
" />
<path d="M50230 43790
L50173 43790
" />
<path d="M50202 43790
L50202 43590
L50192 43619
L50183 43638
L50173 43647
" />
<path d="M50278 43790
L50297 43790
L50307 43780
L50311 43771
L50321 43742
L50326 43704
L50326 43628
L50321 43609
L50316 43600
L50307 43590
L50288 43590
L50278 43600
L50273 43609
L50269 43628
L50269 43676
L50273 43695
L50278 43704
L50288 43714
L50307 43714
L50316 43704
L50321 43695
L50326 43676
" />
<path d="M58335 41871
L58330 41880
L58316 41890
L58307 41890
L58292 41880
L58283 41861
L58278 41842
L58273 41804
L58273 41776
L58278 41738
L58283 41719
L58292 41700
L58307 41690
L58316 41690
L58330 41700
L58335 41709
" />
<path d="M58373 41709
L58378 41700
L58388 41690
L58411 41690
L58421 41700
L58426 41709
L58430 41728
L58430 41747
L58426 41776
L58369 41890
L58430 41890
" />
<path d="M58464 41690
L58530 41690
L58488 41890
" />
<path d="M57135 45271
L57130 45280
L57116 45290
L57107 45290
L57092 45280
L57083 45261
L57078 45242
L57073 45204
L57073 45176
L57078 45138
L57083 45119
L57092 45100
L57107 45090
L57116 45090
L57130 45100
L57135 45109
" />
<path d="M57173 45109
L57178 45100
L57188 45090
L57211 45090
L57221 45100
L57226 45109
L57230 45128
L57230 45147
L57226 45176
L57169 45290
L57230 45290
" />
<path d="M57288 45176
L57278 45166
L57273 45157
L57269 45138
L57269 45128
L57273 45109
L57278 45100
L57288 45090
L57307 45090
L57316 45100
L57321 45109
L57326 45128
L57326 45138
L57321 45157
L57316 45166
L57307 45176
L57288 45176
L57278 45185
L57273 45195
L57269 45214
L57269 45252
L57273 45271
L57278 45280
L57288 45290
L57307 45290
L57316 45280
L57321 45271
L57326 45252
L57326 45214
L57321 45195
L57316 45185
L57307 45176
" />
</g>
<g style="fill:#C2C200; fill-opacity:0.0; 
stroke:#C2C200; stroke-width:59.0551; stroke-opacity:1; 
stroke-linecap:round; stroke-linejoin:round;">
<path d="M52450 37531
L52450 37849
L52468 37887
L52487 37906
L52525 37924
L52600 37924
L52637 37906
L52656 37887
L52675 37849
L52675 37531
" />
<path d="M53068 37924
L52843 37924
" />
<path d="M52956 37924
L52956 37531
L52918 37587
L52881 37624
L52843 37643
" />
</g>
<g style="fill:#008484; fill-opacity:0.0; 
stroke:#008484; stroke-width:59.0551; stroke-opacity:1; 
stroke-linecap:round; stroke-linejoin:round;">
<path d="M55598 47712
L55401 47712
" />
<path d="M55401 48087
L55598 48087
" />
</g>
<g style="fill:#008484; fill-opacity:0.0; 
stroke:#008484; stroke-width:118.11; stroke-opacity:1; 
stroke-linecap:round; stroke-linejoin:round;">
<path d="M59784 49485
L59784 43914
" />
</g>
<g style="fill:#008484; fill-opacity:0.0; 
stroke:#008484; stroke-width:120.866; stroke-opacity:1; 
stroke-linecap:round; stroke-linejoin:round;">
<path d="M58937 50174
L60150 50174
" />
<path d="M60150 50174
L60150 49583
" />
<path d="M58937 49583
L58937 50174
" />
<path d="M58711 50654
L58711 55816
" />
<path d="M58711 50654
L60986 50654
" />
<circle cx="51722.8" cy="53914.6" r="750" /> 
<path d="M51144 41839
L51144 55816
" />
<path d="M51144 41839
L60986 41839
" />
<path d="M60986 55816
L60986 41839
" />
<path d="M51144 55816
L60986 55816
" />
<circle cx="59833.1" cy="42619.3" r="750" /> 
</g>
<g style="fill:#008484; fill-opacity:0.0; 
stroke:#008484; stroke-width:118.11; stroke-opacity:1; 
stroke-linecap:round; stroke-linejoin:round;">
<path d="M59303 49485
L59303 43914
" />
</g>
<g style="fill:#008484; fill-opacity:0.0; 
stroke:#008484; stroke-width:59.0551; stroke-opacity:1; 
stroke-linecap:round; stroke-linejoin:round;">
<path d="M56748 53412
L56551 53412
" />
<path d="M56551 53787
L56748 53787
" />
<path d="M57551 55687
L57748 55687
" />
<path d="M57748 55312
L57551 55312
" />
<path d="M54045 41727
L54241 41727
" />
<path d="M54241 41352
L54045 41352
" />
<path d="M54001 44437
L54198 44437
" />
<path d="M54198 44062
L54001 44062
" />
<path d="M56548 54312
L56351 54312
" />
<path d="M56351 54687
L56548 54687
" />
<path d="M56601 49487
L56798 49487
" />
<path d="M56798 49112
L56601 49112
" />
<path d="M51337 52498
L51337 52301
" />
<path d="M50962 52301
L50962 52498
" />
<path d="M53687 54398
L53687 54201
" />
<path d="M53312 54201
L53312 54398
" />
<path d="M54187 51836
L53912 51836
" />
<path d="M53912 51363
L54187 51363
" />
<path d="M55457 46963
L55733 46963
" />
<path d="M55733 47436
L55457 47436
" />
<path d="M54051 52487
L54248 52487
" />
<path d="M54248 52112
L54051 52112
" />
<path d="M58098 52112
L57901 52112
" />
<path d="M57901 52487
L58098 52487
" />
<path d="M55301 50987
L55498 50987
" />
<path d="M55498 50612
L55301 50612
" />
<path d="M51901 50937
L52098 50937
" />
<path d="M52098 50562
L51901 50562
" />
<path d="M53148 50562
L52951 50562
" />
<path d="M52951 50937
L53148 50937
" />
<path d="M51901 50337
L52098 50337
" />
<path d="M52098 49962
L51901 49962
" />
<path d="M56748 52612
L56551 52612
" />
<path d="M56551 52987
L56748 52987
" />
<path d="M53148 49962
L52951 49962
" />
<path d="M52951 50337
L53148 50337
" />
<path d="M55937 57348
L55937 57151
" />
<path d="M55562 57151
L55562 57348
" />
<path d="M55463 49987
L55463 49712
" />
<path d="M55936 49712
L55936 49987
" />
<path d="M51201 56637
L51398 56637
" />
<path d="M51398 56262
L51201 56262
" />
<path d="M50087 55686
L49812 55686
" />
<path d="M49812 55213
L50087 55213
" />
<path d="M56362 50201
L56362 50398
" />
<path d="M56737 50398
L56737 50201
" />
<path d="M51262 57363
L51537 57363
" />
<path d="M51537 57836
L51262 57836
" />
<path d="M50348 41562
L50151 41562
" />
<path d="M50151 41937
L50348 41937
" />
<path d="M50101 42706
L50298 42706
" />
<path d="M50298 42293
L50101 42293
" />
<path d="M52601 42556
L52798 42556
" />
<path d="M52798 42143
L52601 42143
" />
<path d="M54201 51006
L54398 51006
" />
<path d="M54398 50593
L54201 50593
" />
<path d="M54048 53093
L53851 53093
" />
<path d="M53851 53506
L54048 53506
" />
<path d="M54293 49751
L54293 49948
" />
<path d="M54706 49948
L54706 49751
" />
<path d="M53006 49198
L53006 49001
" />
<path d="M52593 49001
L52593 49198
" />
<path d="M55251 54706
L55448 54706
" />
<path d="M55448 54293
L55251 54293
" />
<path d="M53243 48551
L53243 48748
" />
<path d="M53656 48748
L53656 48551
" />
<path d="M54201 54706
L54398 54706
" />
<path d="M54398 54293
L54201 54293
" />
<path d="M55448 51193
L55251 51193
" />
<path d="M55251 51606
L55448 51606
" />
<path d="M56798 51743
L56601 51743
" />
<path d="M56601 52156
L56798 52156
" />
</g>
<g style="fill:#008484; fill-opacity:0.0; 
stroke:#008484; stroke-width:196.85; stroke-opacity:1; 
stroke-linecap:round; stroke-linejoin:round;">
<circle cx="53066" cy="43480" r="98.4252" /> 
<circle cx="54502" cy="47944.1" r="98.4252" /> 
</g>
<g style="fill:#008484; fill-opacity:0.0; 
stroke:#008484; stroke-width:120.866; stroke-opacity:1; 
stroke-linecap:round; stroke-linejoin:round;">
<path d="M54688 52900
L54688 52700
" />
<path d="M55888 52900
L54688 52900
" />
<path d="M55888 52700
L55888 52900
" />
<path d="M54688 52700
L55888 52700
" />
</g>
<g style="fill:#008484; fill-opacity:0.0; 
stroke:#008484; stroke-width:196.85; stroke-opacity:1; 
stroke-linecap:round; stroke-linejoin:round;">
<circle cx="54288.2" cy="53300" r="98.4252" /> 
</g>
<g style="fill:#008484; fill-opacity:0.0; 
stroke:#008484; stroke-width:59.0551; stroke-opacity:1; 
stroke-linecap:round; stroke-linejoin:round;">
<path d="M51756 51005
L51756 52994
" />
<path d="M51756 52994
L53043 52994
" />
<path d="M53043 52994
L53043 51005
" />
<path d="M53043 51005
L51756 51005
" />
<path d="M57256 48508
L57256 48311
" />
<path d="M56843 48311
L56843 48508
" />
</g>
<g style="fill:#008484; fill-opacity:0.0; 
stroke:#008484; stroke-width:50; stroke-opacity:1; 
stroke-linecap:round; stroke-linejoin:round;">
<path d="M53741 38061
L53741 37707
" />
<path d="M53741 40029
L53741 38770
" />
<path d="M55158 37707
L53741 37707
" />
<path d="M55158 39045
L55158 37707
" />
<path d="M55158 41092
L55158 39754
" />
<path d="M53741 41092
L55158 41092
" />
<path d="M53741 41092
L53741 40738
" />
</g>
<g style="fill:#008484; fill-opacity:0.0; 
stroke:#008484; stroke-width:150; stroke-opacity:1; 
stroke-linecap:round; stroke-linejoin:round;">
<path d="M49296 37782
L49296 40932
" />
<path d="M49296 40932
L52642 40932
" />
<path d="M52642 40932
L52642 40735
" />
<path d="M52642 40735
L51658 40735
" />
<path d="M51658 40735
L51658 37979
" />
<path d="M51658 37979
L52642 37979
" />
<path d="M52642 37979
L52642 37782
" />
<path d="M52642 37782
L49296 37782
" />
</g>
<g style="fill:#008484; fill-opacity:0.0; 
stroke:#008484; stroke-width:50; stroke-opacity:1; 
stroke-linecap:round; stroke-linejoin:round;">
<path d="M58075 38333
L57524 38333
" />
<path d="M57524 38333
L57524 39711
" />
<path d="M58075 38333
L58075 39711
" />
<path d="M61957 39975
L61957 37798
" />
<path d="M61957 39975
L58414 39975
" />
<path d="M58414 37798
L58414 39975
" />
<path d="M61957 37798
L58414 37798
" />
<path d="M61701 41404
L56938 41404
" />
<path d="M56678 40873
L56678 39298
" />
<path d="M56678 38550
L56678 36266
" />
<path d="M56678 35322
L56678 35026
" />
<path d="M62203 35026
L56678 35026
" />
<path d="M62203 35400
L62203 35026
" />
<path d="M62203 40085
L62203 39022
" />
<path d="M62203 37975
L62203 36404
" />
<path d="M58075 39711
L57524 39711
" />
</g>
<g style="fill:#008484; fill-opacity:0.0; 
stroke:#008484; stroke-width:59.0551; stroke-opacity:1; 
stroke-linecap:round; stroke-linejoin:round;">
<path d="M55748 41293
L55551 41293
" />
<path d="M55551 41706
L55748 41706
" />
<path d="M55243 36828
L55243 37025
" />
<path d="M55656 37025
L55656 36828
" />
<path d="M61998 43293
L61801 43293
" />
<path d="M61801 43706
L61998 43706
" />
<path d="M61891 49226
L62088 49226
" />
<path d="M62088 48813
L61891 48813
" />
<path d="M61401 45736
L61598 45736
" />
<path d="M61598 45323
L61401 45323
" />
<path d="M61881 48146
L62078 48146
" />
<path d="M62078 47733
L61881 47733
" />
</g>
<g style="fill:#008484; fill-opacity:0.0; 
stroke:#008484; stroke-width:120.866; stroke-opacity:1; 
stroke-linecap:round; stroke-linejoin:round;">
<path d="M57688 56100
L56311 56100
" />
<path d="M57688 57900
L57688 56100
" />
<path d="M57688 57900
L56311 57900
" />
<path d="M56311 56100
L56311 57900
" />
</g>
<g style="fill:#008484; fill-opacity:0.0; 
stroke:#008484; stroke-width:98.4252; stroke-opacity:1; 
stroke-linecap:round; stroke-linejoin:round;">
<path d="M54993 56365
L54993 57544
" />
<path d="M54206 57544
L54993 57544
" />
<path d="M54206 56365
L54206 57544
" />
<path d="M54993 56365
L54206 56365
" />
</g>
<g style="fill:#008484; fill-opacity:0.0; 
stroke:#008484; stroke-width:120.866; stroke-opacity:1; 
stroke-linecap:round; stroke-linejoin:round;">
<path d="M53740 57710
L53740 56214
" />
<path d="M52540 57710
L53740 57710
" />
<path d="M52540 56214
L52540 57710
" />
<path d="M53740 56198
L52540 56198
" />
</g>
<g style="fill:#008484; fill-opacity:0.0; 
stroke:#008484; stroke-width:59.0551; stroke-opacity:1; 
stroke-linecap:round; stroke-linejoin:round;">
<path d="M53848 47662
L53651 47662
" />
<path d="M53651 48037
L53848 48037
" />
<path d="M51337 49048
L51337 48851
" />
<path d="M50962 48851
L50962 49048
" />
<path d="M52664 47850
L52350 48164
" />
<path d="M52350 48164
L49535 48164
" />
<path d="M49535 48164
L49535 44535
" />
<path d="M49535 44535
L52664 44535
" />
<path d="M52664 44535
L52664 47850
" />
<path d="M50101 44256
L50298 44256
" />
<path d="M50298 43843
L50101 43843
" />
<path d="M58212 42451
L58212 42648
" />
<path d="M58587 42648
L58587 42451
" />
<path d="M57387 44748
L57387 44551
" />
<path d="M57012 44551
L57012 44748
" />
</g>
<g style="fill:#840000; fill-opacity:0.0; 
stroke:#840000; stroke-width:59.0551; stroke-opacity:1; 
stroke-linecap:round; stroke-linejoin:round;">
</g>
<g style="fill:#840000; fill-opacity:1.0; 
stroke:#840000; stroke-width:0; stroke-opacity:1; 
stroke-linecap:round; stroke-linejoin:round;">
<circle cx="51722.8" cy="53914.6" r="393.701" /> 
</g>
<g style="fill:#840000; fill-opacity:1.0; 
stroke:#840000; stroke-width:39.3701; stroke-opacity:1; 
stroke-linecap:round; stroke-linejoin:round;">
</g>
<g style="fill:#840000; fill-opacity:1.0; 
stroke:#840000; stroke-width:0; stroke-opacity:1; 
stroke-linecap:round; stroke-linejoin:round;">
<circle cx="59833.1" cy="42619.3" r="393.701" /> 
</g>
<g style="fill:#840000; fill-opacity:1.0; 
stroke:#840000; stroke-width:39.3701; stroke-opacity:1; 
stroke-linecap:round; stroke-linejoin:round;">
</g>
<g style="fill:#840000; fill-opacity:1.0; 
stroke:#840000; stroke-width:0; stroke-opacity:1; 
stroke-linecap:round; stroke-linejoin:round;">
<circle cx="55099.6" cy="39400" r="226.378" /> 
</g>
<g style="fill:#840000; fill-opacity:1.0; 
stroke:#840000; stroke-width:39.3701; stroke-opacity:1; 
stroke-linecap:round; stroke-linejoin:round;">
</g>
<g style="fill:#840000; fill-opacity:1.0; 
stroke:#840000; stroke-width:0; stroke-opacity:1; 
stroke-linecap:round; stroke-linejoin:round;">
<circle cx="53800.4" cy="40384.3" r="226.378" /> 
</g>
<g style="fill:#840000; fill-opacity:1.0; 
stroke:#840000; stroke-width:39.3701; stroke-opacity:1; 
stroke-linecap:round; stroke-linejoin:round;">
</g>
<g style="fill:#840000; fill-opacity:1.0; 
stroke:#840000; stroke-width:0; stroke-opacity:1; 
stroke-linecap:round; stroke-linejoin:round;">
<circle cx="53800.4" cy="38415.7" r="226.378" /> 
</g>
<g style="fill:#840000; fill-opacity:1.0; 
stroke:#840000; stroke-width:39.3701; stroke-opacity:1; 
stroke-linecap:round; stroke-linejoin:round;">
</g>
<g style="fill:#840000; fill-opacity:1.0; 
stroke:#840000; stroke-width:0; stroke-opacity:1; 
stroke-linecap:round; stroke-linejoin:round;">
<circle cx="56804.5" cy="43264.9" r="89.9606" /> 
</g>
<g style="fill:#840000; fill-opacity:1.0; 
stroke:#840000; stroke-width:39.3701; stroke-opacity:1; 
stroke-linecap:round; stroke-linejoin:round;">
</g>
<g style="fill:#840000; fill-opacity:1.0; 
stroke:#840000; stroke-width:0; stroke-opacity:1; 
stroke-linecap:round; stroke-linejoin:round;">
<circle cx="56410.8" cy="43264.9" r="89.9606" /> 
</g>
<g style="fill:#840000; fill-opacity:1.0; 
stroke:#840000; stroke-width:39.3701; stroke-opacity:1; 
stroke-linecap:round; stroke-linejoin:round;">
</g>
<g style="fill:#840000; fill-opacity:1.0; 
stroke:#840000; stroke-width:0; stroke-opacity:1; 
stroke-linecap:round; stroke-linejoin:round;">
<circle cx="56804.5" cy="42871.2" r="89.9606" /> 
</g>
<g style="fill:#840000; fill-opacity:1.0; 
stroke:#840000; stroke-width:39.3701; stroke-opacity:1; 
stroke-linecap:round; stroke-linejoin:round;">
</g>
<g style="fill:#840000; fill-opacity:1.0; 
stroke:#840000; stroke-width:0; stroke-opacity:1; 
stroke-linecap:round; stroke-linejoin:round;">
<circle cx="56410.8" cy="42871.2" r="89.9606" /> 
</g>
<g style="fill:#840000; fill-opacity:1.0; 
stroke:#840000; stroke-width:39.3701; stroke-opacity:1; 
stroke-linecap:round; stroke-linejoin:round;">
</g>
<g style="fill:#840000; fill-opacity:1.0; 
stroke:#840000; stroke-width:0; stroke-opacity:1; 
stroke-linecap:round; stroke-linejoin:round;">
<circle cx="54600" cy="57200" r="187.008" /> 
</g>
<g style="fill:#840000; fill-opacity:1.0; 
stroke:#840000; stroke-width:39.3701; stroke-opacity:1; 
stroke-linecap:round; stroke-linejoin:round;">
</g>
<g style="fill:#840000; fill-opacity:1.0; 
stroke:#840000; stroke-width:0; stroke-opacity:1; 
stroke-linecap:round; stroke-linejoin:round;">
<circle cx="53140.2" cy="57198.4" r="187.008" /> 
</g>
<g style="fill:#840000; fill-opacity:1.0; 
stroke:#840000; stroke-width:39.3701; stroke-opacity:1; 
stroke-linecap:round; stroke-linejoin:round;">
</g> 
</svg>
