M48
;DRILL file {KiCad 0.201601221447+6507~42~ubuntu15.10.1-product} date Fri 22 Jan 2016 07:11:28 PM EST
;FORMAT={2:4/ absolute / inch / suppress trailing zeros}
FMAT,2
INCH,LZ
T1C0.008
T2C0.013
T3C0.020
T4C0.031
T5C0.040
T6C0.047
%
G90
G05
M72
T1
X012461Y-012621
X012461Y-013015
X012461Y-036021
X012461Y-036415
X012854Y-012621
X012854Y-013015
X012854Y-036021
X012854Y-036415
X026461Y-012621
X026461Y-013015
X026461Y-036021
X026461Y-036415
X026854Y-012621
X026854Y-013015
X026854Y-036021
X026854Y-036415
T2
X0069Y-0138
X0069Y-0179
X0069Y-0372
X0069Y-0413
X00693Y-02574
X00693Y-04914
X0072Y-01935
X0072Y-04275
X0074Y-0202
X0074Y-0436
X00755Y-0146
X00755Y-038
X00765Y-02235
X00765Y-04575
X0086Y-023
X0086Y-0464
X00878Y-00735
X00878Y-03075
X0089Y-01945
X0089Y-04285
X00905Y-0176
X00905Y-041
X00912Y-00735
X00912Y-03075
X00945Y-014
X00945Y-0374
X0095Y-02205
X0095Y-04545
X00975Y-0202
X00975Y-0436
X00995Y-02775
X00995Y-05115
X01Y-0108
X01Y-0342
X01005Y-01845
X01005Y-04185
X0104Y-0225
X0104Y-0459
X0109Y-0278
X0109Y-0512
X01125Y-0193
X01125Y-0199
X01125Y-0427
X01125Y-0433
X011375Y-012675
X011375Y-036075
X0117Y-02365
X0117Y-04705
X0118Y-0183
X0118Y-0417
X01191Y-01207
X01191Y-03547
X01196Y-01021
X01196Y-03361
X01215Y-02205
X01215Y-04545
X01245Y-0238
X01245Y-0472
X012469Y-014011
X012469Y-037411
X0125Y-01695
X0125Y-04035
X0126Y-0279
X0126Y-0513
X01273Y-01019
X01273Y-03359
X01275Y-0146
X01275Y-038
X01305Y-0196
X01305Y-043
X01335Y-01375
X01335Y-03715
X0134Y-02205
X0134Y-04545
X01341Y-01207
X01341Y-03547
X013599Y-017668
X013599Y-041068
X0137Y-01485
X0137Y-03825
X01371Y-01415
X01371Y-03755
X013717Y-014491
X013717Y-037891
X01384Y-017428
X01384Y-040828
X0139Y-01555
X0139Y-0279
X0139Y-03895
X0139Y-0513
X01395Y-01365
X01395Y-03705
X01415Y-02705
X01415Y-05045
X0142Y-01835
X0142Y-04175
X0143Y-01465
X0143Y-03805
X01435Y-01615
X01435Y-0167
X01435Y-03955
X01435Y-0401
X0144Y-0173
X0144Y-0407
X01505Y-01325
X01505Y-03665
X01515Y-0072
X01515Y-0306
X0164Y-00565
X0164Y-02905
X01665Y-01515
X01665Y-03855
X016681Y-017219
X016681Y-040619
X0169Y-0111
X0169Y-0345
X01705Y-0146
X01705Y-038
X01725Y-0179
X01725Y-0413
X0173Y-0071
X0173Y-0305
X0177Y-01
X0177Y-0334
X01775Y-0071
X01775Y-0138
X01775Y-0305
X01775Y-0372
X01804Y-01589
X01804Y-03929
X0209Y-0138
X0209Y-0179
X0209Y-0372
X0209Y-0413
X02093Y-02574
X02093Y-04914
X0212Y-01935
X0212Y-04275
X0214Y-0202
X0214Y-0436
X02155Y-0146
X02155Y-038
X02165Y-02235
X02165Y-04575
X0226Y-023
X0226Y-0464
X02278Y-00735
X02278Y-03075
X0229Y-01945
X0229Y-04285
X02305Y-0176
X02305Y-041
X02312Y-00735
X02312Y-03075
X02345Y-014
X02345Y-0374
X0235Y-02205
X0235Y-04545
X02375Y-0202
X02375Y-0436
X02395Y-02775
X02395Y-05115
X024Y-0108
X024Y-0342
X02405Y-01845
X02405Y-04185
X0244Y-0225
X0244Y-0459
X0249Y-0278
X0249Y-0512
X02525Y-0193
X02525Y-0199
X02525Y-0427
X02525Y-0433
X025375Y-012675
X025375Y-036075
X0257Y-02365
X0257Y-04705
X0258Y-0183
X0258Y-0417
X02591Y-01207
X02591Y-03547
X02596Y-01021
X02596Y-03361
X02615Y-02205
X02615Y-04545
X02645Y-0238
X02645Y-0472
X026469Y-014011
X026469Y-037411
X0265Y-01695
X0265Y-04035
X0266Y-0279
X0266Y-0513
X02673Y-01019
X02673Y-03359
X02675Y-0146
X02675Y-038
X02705Y-0196
X02705Y-043
X02735Y-01375
X02735Y-03715
X0274Y-02205
X0274Y-04545
X02741Y-01207
X02741Y-03547
X027599Y-017668
X027599Y-041068
X0277Y-01485
X0277Y-03825
X02771Y-01415
X02771Y-03755
X027717Y-014491
X027717Y-037891
X02784Y-017428
X02784Y-040828
X0279Y-01555
X0279Y-0279
X0279Y-03895
X0279Y-0513
X02795Y-01365
X02795Y-03705
X02815Y-02705
X02815Y-05045
X0282Y-01835
X0282Y-04175
X0283Y-01465
X0283Y-03805
X02835Y-01615
X02835Y-0167
X02835Y-03955
X02835Y-0401
X0284Y-0173
X0284Y-0407
X02905Y-01325
X02905Y-03665
X02915Y-0072
X02915Y-0306
X0304Y-00565
X0304Y-02905
X03065Y-01515
X03065Y-03855
X030681Y-017219
X030681Y-040619
X0309Y-0111
X0309Y-0345
X03105Y-0146
X03105Y-038
X03125Y-0179
X03125Y-0413
X0313Y-0071
X0313Y-0305
X0317Y-01
X0317Y-0334
X03175Y-0071
X03175Y-0138
X03175Y-0305
X03175Y-0372
X03204Y-01589
X03204Y-03929
T3
X00677Y-00949
X00677Y-03289
X00685Y-0252
X00685Y-0486
X00823Y-02782
X00823Y-05122
X00825Y-0112
X00825Y-0346
X00977Y-00716
X00977Y-03056
X010998Y-012128
X010998Y-035528
X01135Y-0267
X01135Y-0501
X0118Y-02785
X0118Y-05125
X01301Y-02561
X01301Y-04901
X01363Y-01833
X01363Y-04173
X01407Y-02608
X01407Y-04948
X01425Y-01915
X01425Y-04255
X01601Y-0072
X01601Y-0306
X01664Y-01968
X01664Y-04308
X01708Y-00569
X01708Y-02909
X02077Y-00949
X02077Y-03289
X02085Y-0252
X02085Y-0486
X02223Y-02782
X02223Y-05122
X02225Y-0112
X02225Y-0346
X02377Y-00716
X02377Y-03056
X024998Y-012128
X024998Y-035528
X02535Y-0267
X02535Y-0501
X0258Y-02785
X0258Y-05125
X02701Y-02561
X02701Y-04901
X02763Y-01833
X02763Y-04173
X02807Y-02608
X02807Y-04948
X02825Y-01915
X02825Y-04255
X03001Y-0072
X03001Y-0306
X03064Y-01968
X03064Y-04308
X03108Y-00569
X03108Y-02909
T4
X00985Y-008166
X00985Y-010134
X00985Y-031566
X00985Y-033534
X01115Y-00915
X01115Y-03255
X02385Y-008166
X02385Y-010134
X02385Y-031566
X02385Y-033534
X02515Y-00915
X02515Y-03255
T5
X00595Y-0189
X00595Y-0199
X00595Y-0209
X00595Y-02265
X00595Y-02365
X00595Y-0423
X00595Y-0433
X00595Y-0443
X00595Y-04605
X00595Y-04705
X01995Y-0189
X01995Y-0199
X01995Y-0209
X01995Y-02265
X01995Y-02365
X01995Y-0423
X01995Y-0433
X01995Y-0443
X01995Y-04605
X01995Y-04705
T6
X00755Y-005497
X00755Y-028897
X00795Y-0191
X00795Y-0425
X0098Y-01925
X0098Y-04265
X0099Y-02505
X0099Y-04845
X01005Y-005497
X01005Y-028897
X0105Y-01685
X0105Y-04025
X0112Y-02505
X0112Y-04845
X01235Y-02095
X01235Y-04435
X01365Y-02405
X01365Y-04745
X02155Y-005497
X02155Y-028897
X02195Y-0191
X02195Y-0425
X0238Y-01925
X0238Y-04265
X0239Y-02505
X0239Y-04845
X02405Y-005497
X02405Y-028897
X0245Y-01685
X0245Y-04025
X0252Y-02505
X0252Y-04845
X02635Y-02095
X02635Y-04435
X02765Y-02405
X02765Y-04745
T0
M30
