M48
INCH,TZ
T10C0.008
T11C0.013
T12C0.020
T13C0.031
T14C0.040
T15C0.047
T16C0.024
T17C0.037
T18C0.079
%
T10
X012461Y-12621
X012461Y-13015
X012461Y-36021
X012461Y-36415
X012854Y-12621
X012854Y-13015
X012854Y-36021
X012854Y-36415
X026461Y-12621
X026461Y-13015
X026461Y-36021
X026461Y-36415
X026854Y-12621
X026854Y-13015
X026854Y-36021
X026854Y-36415
T11
X006900Y-13800
X006900Y-17900
X006900Y-37200
X006900Y-41300
X006930Y-25740
X006930Y-49140
X007200Y-19350
X007200Y-42750
X007400Y-20200
X007400Y-43600
X007550Y-14600
X007550Y-38000
X007650Y-22350
X007650Y-45750
X008600Y-23000
X008600Y-46400
X008780Y-07350
X008780Y-30750
X008900Y-19450
X008900Y-42850
X009050Y-17600
X009050Y-41000
X009120Y-07350
X009120Y-30750
X009450Y-14000
X009450Y-37400
X009500Y-22050
X009500Y-45450
X009750Y-20200
X009750Y-43600
X009950Y-27750
X009950Y-51150
X010000Y-10800
X010000Y-34200
X010050Y-18450
X010050Y-41850
X010400Y-22500
X010400Y-45900
X010900Y-27800
X010900Y-51200
X011250Y-19300
X011250Y-19900
X011250Y-42700
X011250Y-43300
X011375Y-12675
X011375Y-36075
X011700Y-23650
X011700Y-47050
X011800Y-18300
X011800Y-41700
X011910Y-12070
X011910Y-35470
X011960Y-10210
X011960Y-33610
X012150Y-22050
X012150Y-45450
X012450Y-23800
X012450Y-47200
X012469Y-14011
X012469Y-37411
X012500Y-16950
X012500Y-40350
X012600Y-27900
X012600Y-51300
X012730Y-10190
X012730Y-33590
X012750Y-14600
X012750Y-38000
X013050Y-19600
X013050Y-43000
X013350Y-13750
X013350Y-37150
X013400Y-22050
X013400Y-45450
X013410Y-12070
X013410Y-35470
X013599Y-17668
X013599Y-41068
X013700Y-14850
X013700Y-38250
X013710Y-14150
X013710Y-37550
X013717Y-14491
X013717Y-37891
X013840Y-17428
X013840Y-40828
X013900Y-15550
X013900Y-27900
X013900Y-38950
X013900Y-51300
X013950Y-13650
X013950Y-37050
X014150Y-27050
X014150Y-50450
X014200Y-18350
X014200Y-41750
X014300Y-14650
X014300Y-38050
X014350Y-16150
X014350Y-16700
X014350Y-39550
X014350Y-40100
X014400Y-17300
X014400Y-40700
X015050Y-13250
X015050Y-36650
X015150Y-07200
X015150Y-30600
X016400Y-05650
X016400Y-29050
X016650Y-15150
X016650Y-38550
X016681Y-17219
X016681Y-40619
X016900Y-11100
X016900Y-34500
X017050Y-14600
X017050Y-38000
X017250Y-17900
X017250Y-41300
X017300Y-07100
X017300Y-30500
X017700Y-10000
X017700Y-33400
X017750Y-07100
X017750Y-13800
X017750Y-30500
X017750Y-37200
X018040Y-15890
X018040Y-39290
X020900Y-13800
X020900Y-17900
X020900Y-37200
X020900Y-41300
X020930Y-25740
X020930Y-49140
X021200Y-19350
X021200Y-42750
X021400Y-20200
X021400Y-43600
X021550Y-14600
X021550Y-38000
X021650Y-22350
X021650Y-45750
X022600Y-23000
X022600Y-46400
X022780Y-07350
X022780Y-30750
X022900Y-19450
X022900Y-42850
X023050Y-17600
X023050Y-41000
X023120Y-07350
X023120Y-30750
X023450Y-14000
X023450Y-37400
X023500Y-22050
X023500Y-45450
X023750Y-20200
X023750Y-43600
X023950Y-27750
X023950Y-51150
X024000Y-10800
X024000Y-34200
X024050Y-18450
X024050Y-41850
X024400Y-22500
X024400Y-45900
X024900Y-27800
X024900Y-51200
X025250Y-19300
X025250Y-19900
X025250Y-42700
X025250Y-43300
X025375Y-12675
X025375Y-36075
X025700Y-23650
X025700Y-47050
X025800Y-18300
X025800Y-41700
X025910Y-12070
X025910Y-35470
X025960Y-10210
X025960Y-33610
X026150Y-22050
X026150Y-45450
X026450Y-23800
X026450Y-47200
X026469Y-14011
X026469Y-37411
X026500Y-16950
X026500Y-40350
X026600Y-27900
X026600Y-51300
X026730Y-10190
X026730Y-33590
X026750Y-14600
X026750Y-38000
X027050Y-19600
X027050Y-43000
X027350Y-13750
X027350Y-37150
X027400Y-22050
X027400Y-45450
X027410Y-12070
X027410Y-35470
X027599Y-17668
X027599Y-41068
X027700Y-14850
X027700Y-38250
X027710Y-14150
X027710Y-37550
X027717Y-14491
X027717Y-37891
X027840Y-17428
X027840Y-40828
X027900Y-15550
X027900Y-27900
X027900Y-38950
X027900Y-51300
X027950Y-13650
X027950Y-37050
X028150Y-27050
X028150Y-50450
X028200Y-18350
X028200Y-41750
X028300Y-14650
X028300Y-38050
X028350Y-16150
X028350Y-16700
X028350Y-39550
X028350Y-40100
X028400Y-17300
X028400Y-40700
X029050Y-13250
X029050Y-36650
X029150Y-07200
X029150Y-30600
X030400Y-05650
X030400Y-29050
X030650Y-15150
X030650Y-38550
X030681Y-17219
X030681Y-40619
X030900Y-11100
X030900Y-34500
X031050Y-14600
X031050Y-38000
X031250Y-17900
X031250Y-41300
X031300Y-07100
X031300Y-30500
X031700Y-10000
X031700Y-33400
X031750Y-07100
X031750Y-13800
X031750Y-30500
X031750Y-37200
X032040Y-15890
X032040Y-39290
T12
X006770Y-09490
X006770Y-32890
X006850Y-25200
X006850Y-48600
X008230Y-27820
X008230Y-51220
X008250Y-11200
X008250Y-34600
X009770Y-07160
X009770Y-30560
X010998Y-12128
X010998Y-35528
X011350Y-26700
X011350Y-50100
X011800Y-27850
X011800Y-51250
X013010Y-25610
X013010Y-49010
X013630Y-18330
X013630Y-41730
X014070Y-26080
X014070Y-49480
X014250Y-19150
X014250Y-42550
X016010Y-07200
X016010Y-30600
X016640Y-19680
X016640Y-43080
X017080Y-05690
X017080Y-29090
X020770Y-09490
X020770Y-32890
X020850Y-25200
X020850Y-48600
X022230Y-27820
X022230Y-51220
X022250Y-11200
X022250Y-34600
X023770Y-07160
X023770Y-30560
X024998Y-12128
X024998Y-35528
X025350Y-26700
X025350Y-50100
X025800Y-27850
X025800Y-51250
X027010Y-25610
X027010Y-49010
X027630Y-18330
X027630Y-41730
X028070Y-26080
X028070Y-49480
X028250Y-19150
X028250Y-42550
X030010Y-07200
X030010Y-30600
X030640Y-19680
X030640Y-43080
X031080Y-05690
X031080Y-29090
T13
X009850Y-08166
X009850Y-10134
X009850Y-31566
X009850Y-33534
X011150Y-09150
X011150Y-32550
X023850Y-08166
X023850Y-10134
X023850Y-31566
X023850Y-33534
X025150Y-09150
X025150Y-32550
T14
X005950Y-18900
X005950Y-19900
X005950Y-20900
X005950Y-22650
X005950Y-23650
X005950Y-42300
X005950Y-43300
X005950Y-44300
X005950Y-46050
X005950Y-47050
X019950Y-18900
X019950Y-19900
X019950Y-20900
X019950Y-22650
X019950Y-23650
X019950Y-42300
X019950Y-43300
X019950Y-44300
X019950Y-46050
X019950Y-47050
T15
X007550Y-05497
X007550Y-28897
X007950Y-19100
X007950Y-42500
X009800Y-19250
X009800Y-42650
X009900Y-25050
X009900Y-48450
X010050Y-05497
X010050Y-28897
X010500Y-16850
X010500Y-40250
X011200Y-25050
X011200Y-48450
X012350Y-20950
X012350Y-44350
X013650Y-24050
X013650Y-47450
X021550Y-05497
X021550Y-28897
X021950Y-19100
X021950Y-42500
X023800Y-19250
X023800Y-42650
X023900Y-25050
X023900Y-48450
X024050Y-05497
X024050Y-28897
X024500Y-16850
X024500Y-40250
X025200Y-25050
X025200Y-48450
X026350Y-20950
X026350Y-44350
X027650Y-24050
X027650Y-47450
T16
X013050Y-27050
X013050Y-50450
X027050Y-27050
X027050Y-50450
T17
X009190Y-26948
X009190Y-50348
X010650Y-26950
X010650Y-50350
X023190Y-26948
X023190Y-50348
X024650Y-26950
X024650Y-50350
T18
X007773Y-23665
X007773Y-47065
X015883Y-12369
X015883Y-35769
X021773Y-23665
X021773Y-47065
X029883Y-12369
X029883Y-35769
M30

