G04 #@! TF.FileFunction,Soldermask,Top*
%FSLAX46Y46*%
G04 Gerber Fmt 4.6, Leading zero omitted, Abs format (unit mm)*
G04 Created by KiCad (PCBNEW 0.201601221447+6507~42~ubuntu15.10.1-product) date Fri 22 Jan 2016 07:17:07 PM EST*
%MOMM*%
G01*
G04 APERTURE LIST*
%ADD10C,0.100000*%
%ADD11R,2.103200X1.803200*%
%ADD12R,1.803200X1.603200*%
%ADD13R,0.603200X1.553200*%
%ADD14C,1.803200*%
%ADD15R,0.703200X0.803200*%
%ADD16R,0.603200X0.803200*%
%ADD17R,1.753200X0.803200*%
%ADD18R,0.803200X0.703200*%
%ADD19R,0.803200X1.003200*%
%ADD20C,1.753200*%
%ADD21R,0.853200X0.748200*%
%ADD22C,1.653200*%
%ADD23C,0.926200*%
%ADD24C,0.765200*%
%ADD25C,0.715200*%
%ADD26C,1.427200*%
%ADD27R,0.653200X0.653200*%
%ADD28R,2.235200X2.235200*%
%ADD29O,2.235200X2.235200*%
%ADD30R,0.803200X0.603200*%
%ADD31R,1.003200X1.603200*%
%ADD32R,1.553200X2.003200*%
%ADD33R,1.363200X1.703200*%
%ADD34R,0.853200X2.343200*%
%ADD35R,0.803200X1.353200*%
%ADD36R,0.853200X1.803200*%
%ADD37R,0.853200X1.503200*%
%ADD38R,1.303200X0.653200*%
%ADD39R,1.353200X0.653200*%
%ADD40O,1.203200X0.503200*%
%ADD41O,0.503200X1.203200*%
%ADD42R,3.599180X1.701800*%
%ADD43R,3.700780X1.198880*%
%ADD44C,1.353200*%
%ADD45R,0.703200X1.403200*%
%ADD46R,0.473200X1.203200*%
%ADD47C,1.883200*%
%ADD48R,0.803200X1.453200*%
%ADD49R,0.683200X1.193200*%
%ADD50R,0.973200X0.623200*%
%ADD51R,0.803200X1.303200*%
%ADD52R,1.003200X0.953200*%
%ADD53R,0.953200X1.003200*%
%ADD54R,2.235200X1.930400*%
%ADD55O,2.235200X1.930400*%
%ADD56R,0.903200X0.403200*%
G04 APERTURE END LIST*
D10*
D11*
X59112000Y-73398000D03*
X56712000Y-73398000D03*
D12*
X61112000Y-75898000D03*
X54712000Y-75898000D03*
D13*
X59212000Y-76073000D03*
X58562000Y-76073000D03*
X57912000Y-76073000D03*
X57262000Y-76073000D03*
X56612000Y-76073000D03*
D14*
X61087000Y-73398000D03*
X54737000Y-73398000D03*
D15*
X69215000Y-95462000D03*
X69215000Y-96562000D03*
X72263000Y-91228000D03*
X72263000Y-90128000D03*
D16*
X51885000Y-94488000D03*
X50985000Y-94488000D03*
D17*
X51021000Y-104140000D03*
X56421000Y-104140000D03*
X51021000Y-102870000D03*
X56421000Y-102870000D03*
X51021000Y-101600000D03*
X56421000Y-101600000D03*
X51021000Y-100330000D03*
X56421000Y-100330000D03*
X51021000Y-99060000D03*
X56421000Y-99060000D03*
X51021000Y-97790000D03*
X56421000Y-97790000D03*
X51021000Y-96520000D03*
X56421000Y-96520000D03*
D15*
X53848000Y-106384000D03*
X53848000Y-107484000D03*
D18*
X59902000Y-104140000D03*
X61002000Y-104140000D03*
D19*
X59513000Y-126365000D03*
X58293000Y-126365000D03*
D20*
X58903000Y-127885000D03*
D21*
X62136000Y-126411500D03*
X63086000Y-126411500D03*
D22*
X62611000Y-127889000D03*
D23*
X67741000Y-126040000D03*
D24*
X67692000Y-128777000D03*
X69722000Y-128777000D03*
D23*
X69673000Y-126040000D03*
D25*
X68707000Y-126040000D03*
D26*
X68707000Y-128143000D03*
D16*
X81806200Y-104368600D03*
X80906200Y-104368600D03*
X80587000Y-98247200D03*
X79687000Y-98247200D03*
X81831600Y-107111800D03*
X80931600Y-107111800D03*
D27*
X81400200Y-100895600D03*
X80550200Y-100895600D03*
X81400200Y-101745600D03*
X80550200Y-101745600D03*
D28*
X50673000Y-119507000D03*
D29*
X50673000Y-116967000D03*
D16*
X80703000Y-93091000D03*
X81603000Y-93091000D03*
D30*
X64770000Y-76846000D03*
X64770000Y-75946000D03*
D16*
X64828000Y-88011000D03*
X65728000Y-88011000D03*
D31*
X80600000Y-75819000D03*
X79500000Y-75819000D03*
X78400000Y-75819000D03*
X77300000Y-75819000D03*
X76200000Y-75819000D03*
X75100000Y-75819000D03*
X74000000Y-75819000D03*
X72900000Y-75819000D03*
D32*
X81490000Y-73769000D03*
D33*
X68170000Y-73519000D03*
D34*
X81815000Y-80399000D03*
D35*
X67890000Y-81494000D03*
D36*
X81815000Y-85479000D03*
D37*
X67915000Y-87419000D03*
D38*
X81590000Y-86984000D03*
D39*
X81565000Y-87644000D03*
D40*
X69510400Y-92918800D03*
X69510400Y-92268800D03*
X69510400Y-91618800D03*
X69510400Y-90968800D03*
D41*
X68635400Y-90093800D03*
D40*
X65810400Y-92918800D03*
D41*
X68635400Y-93793800D03*
X67985400Y-90093800D03*
X67335400Y-90093800D03*
X66685400Y-90093800D03*
D40*
X65810400Y-92268800D03*
X65810400Y-91618800D03*
X65810400Y-90968800D03*
D41*
X67985400Y-93793800D03*
X67335400Y-93793800D03*
X66685400Y-93793800D03*
D42*
X50838100Y-79220060D03*
D43*
X56388000Y-81569560D03*
X56388000Y-83566000D03*
D42*
X50838100Y-85915500D03*
D44*
X63880000Y-82677000D03*
X60580000Y-85177000D03*
X60580000Y-80177000D03*
D30*
X68834000Y-105112400D03*
X68834000Y-106012400D03*
D45*
X51496000Y-125984000D03*
X50546000Y-125984000D03*
X49596000Y-125984000D03*
X49596000Y-128334000D03*
X51496000Y-128334000D03*
D46*
X56023000Y-113156000D03*
X56023000Y-116206000D03*
X56523000Y-113156000D03*
X56523000Y-116206000D03*
X57023000Y-113156000D03*
X57023000Y-116206000D03*
X57523000Y-113156000D03*
X57523000Y-116206000D03*
X58023000Y-113156000D03*
X58023000Y-116206000D03*
D47*
X66929000Y-112649000D03*
X64008000Y-123063000D03*
X60706000Y-123063000D03*
X60452000Y-108331000D03*
X62230000Y-102235000D03*
X55753000Y-107950000D03*
X70231000Y-120523000D03*
D48*
X68712000Y-112649000D03*
X70612000Y-112649000D03*
X69662000Y-110499000D03*
D49*
X63343000Y-117983000D03*
X63993000Y-117983000D03*
X64643000Y-117983000D03*
X65293000Y-117983000D03*
X65293000Y-115393000D03*
X64643000Y-115393000D03*
X63993000Y-115393000D03*
X63343000Y-115393000D03*
D50*
X62362000Y-105649000D03*
X62362000Y-106299000D03*
X62362000Y-106949000D03*
X64262000Y-106949000D03*
X64262000Y-105649000D03*
D51*
X59984600Y-93040200D03*
X60934600Y-93040200D03*
X61884600Y-93040200D03*
X61884600Y-90240200D03*
X59984600Y-90240200D03*
D16*
X67495000Y-114554000D03*
X68395000Y-114554000D03*
X64066000Y-113157000D03*
X64966000Y-113157000D03*
X62299000Y-121031000D03*
X61399000Y-121031000D03*
D30*
X59690000Y-106622000D03*
X59690000Y-105722000D03*
D16*
X64966000Y-121031000D03*
X64066000Y-121031000D03*
D30*
X58039000Y-106865000D03*
X58039000Y-107765000D03*
X62357000Y-109670000D03*
X62357000Y-108770000D03*
D16*
X60510000Y-117983000D03*
X61410000Y-117983000D03*
X62299000Y-111633000D03*
X61399000Y-111633000D03*
X58235000Y-90170000D03*
X57335000Y-90170000D03*
X51885000Y-90551000D03*
X50985000Y-90551000D03*
D18*
X51012000Y-88646000D03*
X52112000Y-88646000D03*
D52*
X53733000Y-128905000D03*
X55233000Y-128905000D03*
D15*
X67564000Y-110913000D03*
X67564000Y-109813000D03*
D52*
X51550000Y-123444000D03*
X50050000Y-123444000D03*
D18*
X54779000Y-125984000D03*
X53679000Y-125984000D03*
D53*
X65405000Y-109970000D03*
X65405000Y-108470000D03*
D15*
X65532000Y-127466000D03*
X65532000Y-128566000D03*
D18*
X58124000Y-109982000D03*
X59224000Y-109982000D03*
X67268000Y-116713000D03*
X68368000Y-116713000D03*
X56557000Y-109982000D03*
X55457000Y-109982000D03*
X58124000Y-111506000D03*
X59224000Y-111506000D03*
X56557000Y-111506000D03*
X55457000Y-111506000D03*
X65193000Y-111633000D03*
X64093000Y-111633000D03*
X70697000Y-115443000D03*
X71797000Y-115443000D03*
X62018000Y-115443000D03*
X60918000Y-115443000D03*
D52*
X64389000Y-102489000D03*
X65889000Y-102489000D03*
X61964000Y-113665000D03*
X60464000Y-113665000D03*
D15*
X59817000Y-119973000D03*
X59817000Y-121073000D03*
X53848000Y-115147000D03*
X53848000Y-116247000D03*
D18*
X68495000Y-107823000D03*
X67395000Y-107823000D03*
X66760000Y-121031000D03*
X67860000Y-121031000D03*
X61891000Y-94996000D03*
X60791000Y-94996000D03*
X62001400Y-88112600D03*
X60901400Y-88112600D03*
X70908000Y-123571000D03*
X69808000Y-123571000D03*
X67268000Y-118745000D03*
X68368000Y-118745000D03*
D54*
X50673000Y-112522000D03*
D55*
X50673000Y-109982000D03*
X50673000Y-107442000D03*
D56*
X76708000Y-108044000D03*
X73628000Y-108044000D03*
X76708000Y-107644000D03*
X73628000Y-107644000D03*
X76708000Y-107244000D03*
X73628000Y-107244000D03*
X76708000Y-106844000D03*
X73628000Y-106844000D03*
X76708000Y-106444000D03*
X73628000Y-106444000D03*
X76708000Y-106044000D03*
X73628000Y-106044000D03*
X76708000Y-105644000D03*
X73628000Y-105644000D03*
X76708000Y-105244000D03*
X73628000Y-105244000D03*
X76708000Y-104844000D03*
X73628000Y-104844000D03*
X76708000Y-104444000D03*
X73628000Y-104444000D03*
X76708000Y-104044000D03*
X73628000Y-104044000D03*
X76708000Y-103644000D03*
X73628000Y-103644000D03*
X76708000Y-103244000D03*
X73628000Y-103244000D03*
X76708000Y-102844000D03*
X73628000Y-102844000D03*
X76708000Y-102444000D03*
X73628000Y-102444000D03*
X76708000Y-102044000D03*
X73628000Y-102044000D03*
X76708000Y-101644000D03*
X73628000Y-101644000D03*
X76708000Y-101244000D03*
X73628000Y-101244000D03*
X76708000Y-100844000D03*
X73628000Y-100844000D03*
X76708000Y-100444000D03*
X73628000Y-100444000D03*
X76708000Y-100044000D03*
X73628000Y-100044000D03*
X76708000Y-99644000D03*
X73628000Y-99644000D03*
X76708000Y-99244000D03*
X73628000Y-99244000D03*
X76708000Y-98844000D03*
X73628000Y-98844000D03*
X76708000Y-98444000D03*
X73628000Y-98444000D03*
X76708000Y-98044000D03*
X73628000Y-98044000D03*
X76708000Y-97644000D03*
X73628000Y-97644000D03*
X76708000Y-97244000D03*
X73628000Y-97244000D03*
X76708000Y-96844000D03*
X73628000Y-96844000D03*
X76708000Y-96444000D03*
X73628000Y-96444000D03*
X76708000Y-96044000D03*
X73628000Y-96044000D03*
X76708000Y-95644000D03*
X73628000Y-95644000D03*
X76708000Y-95244000D03*
X73628000Y-95244000D03*
X76708000Y-94844000D03*
X73628000Y-94844000D03*
X76708000Y-94444000D03*
X73628000Y-94444000D03*
D18*
X64347000Y-104267000D03*
X65447000Y-104267000D03*
D11*
X59112000Y-13962000D03*
X56712000Y-13962000D03*
D12*
X61112000Y-16462000D03*
X54712000Y-16462000D03*
D13*
X59212000Y-16637000D03*
X58562000Y-16637000D03*
X57912000Y-16637000D03*
X57262000Y-16637000D03*
X56612000Y-16637000D03*
D14*
X61087000Y-13962000D03*
X54737000Y-13962000D03*
D15*
X69215000Y-36026000D03*
X69215000Y-37126000D03*
X72263000Y-31792000D03*
X72263000Y-30692000D03*
D16*
X51885000Y-35052000D03*
X50985000Y-35052000D03*
D17*
X51021000Y-44704000D03*
X56421000Y-44704000D03*
X51021000Y-43434000D03*
X56421000Y-43434000D03*
X51021000Y-42164000D03*
X56421000Y-42164000D03*
X51021000Y-40894000D03*
X56421000Y-40894000D03*
X51021000Y-39624000D03*
X56421000Y-39624000D03*
X51021000Y-38354000D03*
X56421000Y-38354000D03*
X51021000Y-37084000D03*
X56421000Y-37084000D03*
D15*
X53848000Y-46948000D03*
X53848000Y-48048000D03*
D18*
X59902000Y-44704000D03*
X61002000Y-44704000D03*
D19*
X59513000Y-66929000D03*
X58293000Y-66929000D03*
D20*
X58903000Y-68449000D03*
D21*
X62136000Y-66975500D03*
X63086000Y-66975500D03*
D22*
X62611000Y-68453000D03*
D23*
X67741000Y-66604000D03*
D24*
X67692000Y-69341000D03*
X69722000Y-69341000D03*
D23*
X69673000Y-66604000D03*
D25*
X68707000Y-66604000D03*
D26*
X68707000Y-68707000D03*
D16*
X81806200Y-44932600D03*
X80906200Y-44932600D03*
X80587000Y-38811200D03*
X79687000Y-38811200D03*
X81831600Y-47675800D03*
X80931600Y-47675800D03*
D27*
X81400200Y-41459600D03*
X80550200Y-41459600D03*
X81400200Y-42309600D03*
X80550200Y-42309600D03*
D28*
X50673000Y-60071000D03*
D29*
X50673000Y-57531000D03*
D16*
X80703000Y-33655000D03*
X81603000Y-33655000D03*
D30*
X64770000Y-17410000D03*
X64770000Y-16510000D03*
D16*
X64828000Y-28575000D03*
X65728000Y-28575000D03*
D31*
X80600000Y-16383000D03*
X79500000Y-16383000D03*
X78400000Y-16383000D03*
X77300000Y-16383000D03*
X76200000Y-16383000D03*
X75100000Y-16383000D03*
X74000000Y-16383000D03*
X72900000Y-16383000D03*
D32*
X81490000Y-14333000D03*
D33*
X68170000Y-14083000D03*
D34*
X81815000Y-20963000D03*
D35*
X67890000Y-22058000D03*
D36*
X81815000Y-26043000D03*
D37*
X67915000Y-27983000D03*
D38*
X81590000Y-27548000D03*
D39*
X81565000Y-28208000D03*
D40*
X69510400Y-33482800D03*
X69510400Y-32832800D03*
X69510400Y-32182800D03*
X69510400Y-31532800D03*
D41*
X68635400Y-30657800D03*
D40*
X65810400Y-33482800D03*
D41*
X68635400Y-34357800D03*
X67985400Y-30657800D03*
X67335400Y-30657800D03*
X66685400Y-30657800D03*
D40*
X65810400Y-32832800D03*
X65810400Y-32182800D03*
X65810400Y-31532800D03*
D41*
X67985400Y-34357800D03*
X67335400Y-34357800D03*
X66685400Y-34357800D03*
D42*
X50838100Y-19784060D03*
D43*
X56388000Y-22133560D03*
X56388000Y-24130000D03*
D42*
X50838100Y-26479500D03*
D44*
X63880000Y-23241000D03*
X60580000Y-25741000D03*
X60580000Y-20741000D03*
D30*
X68834000Y-45676400D03*
X68834000Y-46576400D03*
D45*
X51496000Y-66548000D03*
X50546000Y-66548000D03*
X49596000Y-66548000D03*
X49596000Y-68898000D03*
X51496000Y-68898000D03*
D46*
X56023000Y-53720000D03*
X56023000Y-56770000D03*
X56523000Y-53720000D03*
X56523000Y-56770000D03*
X57023000Y-53720000D03*
X57023000Y-56770000D03*
X57523000Y-53720000D03*
X57523000Y-56770000D03*
X58023000Y-53720000D03*
X58023000Y-56770000D03*
D47*
X66929000Y-53213000D03*
X64008000Y-63627000D03*
X60706000Y-63627000D03*
X60452000Y-48895000D03*
X62230000Y-42799000D03*
X55753000Y-48514000D03*
X70231000Y-61087000D03*
D48*
X68712000Y-53213000D03*
X70612000Y-53213000D03*
X69662000Y-51063000D03*
D49*
X63343000Y-58547000D03*
X63993000Y-58547000D03*
X64643000Y-58547000D03*
X65293000Y-58547000D03*
X65293000Y-55957000D03*
X64643000Y-55957000D03*
X63993000Y-55957000D03*
X63343000Y-55957000D03*
D50*
X62362000Y-46213000D03*
X62362000Y-46863000D03*
X62362000Y-47513000D03*
X64262000Y-47513000D03*
X64262000Y-46213000D03*
D51*
X59984600Y-33604200D03*
X60934600Y-33604200D03*
X61884600Y-33604200D03*
X61884600Y-30804200D03*
X59984600Y-30804200D03*
D16*
X67495000Y-55118000D03*
X68395000Y-55118000D03*
X64066000Y-53721000D03*
X64966000Y-53721000D03*
X62299000Y-61595000D03*
X61399000Y-61595000D03*
D30*
X59690000Y-47186000D03*
X59690000Y-46286000D03*
D16*
X64966000Y-61595000D03*
X64066000Y-61595000D03*
D30*
X58039000Y-47429000D03*
X58039000Y-48329000D03*
X62357000Y-50234000D03*
X62357000Y-49334000D03*
D16*
X60510000Y-58547000D03*
X61410000Y-58547000D03*
X62299000Y-52197000D03*
X61399000Y-52197000D03*
X58235000Y-30734000D03*
X57335000Y-30734000D03*
X51885000Y-31115000D03*
X50985000Y-31115000D03*
D18*
X51012000Y-29210000D03*
X52112000Y-29210000D03*
D52*
X53733000Y-69469000D03*
X55233000Y-69469000D03*
D15*
X67564000Y-51477000D03*
X67564000Y-50377000D03*
D52*
X51550000Y-64008000D03*
X50050000Y-64008000D03*
D18*
X54779000Y-66548000D03*
X53679000Y-66548000D03*
D53*
X65405000Y-50534000D03*
X65405000Y-49034000D03*
D15*
X65532000Y-68030000D03*
X65532000Y-69130000D03*
D18*
X58124000Y-50546000D03*
X59224000Y-50546000D03*
X67268000Y-57277000D03*
X68368000Y-57277000D03*
X56557000Y-50546000D03*
X55457000Y-50546000D03*
X58124000Y-52070000D03*
X59224000Y-52070000D03*
X56557000Y-52070000D03*
X55457000Y-52070000D03*
X65193000Y-52197000D03*
X64093000Y-52197000D03*
X70697000Y-56007000D03*
X71797000Y-56007000D03*
X62018000Y-56007000D03*
X60918000Y-56007000D03*
D52*
X64389000Y-43053000D03*
X65889000Y-43053000D03*
X61964000Y-54229000D03*
X60464000Y-54229000D03*
D15*
X59817000Y-60537000D03*
X59817000Y-61637000D03*
X53848000Y-55711000D03*
X53848000Y-56811000D03*
D18*
X68495000Y-48387000D03*
X67395000Y-48387000D03*
X66760000Y-61595000D03*
X67860000Y-61595000D03*
X61891000Y-35560000D03*
X60791000Y-35560000D03*
X62001400Y-28676600D03*
X60901400Y-28676600D03*
X70908000Y-64135000D03*
X69808000Y-64135000D03*
X67268000Y-59309000D03*
X68368000Y-59309000D03*
D54*
X50673000Y-53086000D03*
D55*
X50673000Y-50546000D03*
X50673000Y-48006000D03*
D56*
X76708000Y-48608000D03*
X73628000Y-48608000D03*
X76708000Y-48208000D03*
X73628000Y-48208000D03*
X76708000Y-47808000D03*
X73628000Y-47808000D03*
X76708000Y-47408000D03*
X73628000Y-47408000D03*
X76708000Y-47008000D03*
X73628000Y-47008000D03*
X76708000Y-46608000D03*
X73628000Y-46608000D03*
X76708000Y-46208000D03*
X73628000Y-46208000D03*
X76708000Y-45808000D03*
X73628000Y-45808000D03*
X76708000Y-45408000D03*
X73628000Y-45408000D03*
X76708000Y-45008000D03*
X73628000Y-45008000D03*
X76708000Y-44608000D03*
X73628000Y-44608000D03*
X76708000Y-44208000D03*
X73628000Y-44208000D03*
X76708000Y-43808000D03*
X73628000Y-43808000D03*
X76708000Y-43408000D03*
X73628000Y-43408000D03*
X76708000Y-43008000D03*
X73628000Y-43008000D03*
X76708000Y-42608000D03*
X73628000Y-42608000D03*
X76708000Y-42208000D03*
X73628000Y-42208000D03*
X76708000Y-41808000D03*
X73628000Y-41808000D03*
X76708000Y-41408000D03*
X73628000Y-41408000D03*
X76708000Y-41008000D03*
X73628000Y-41008000D03*
X76708000Y-40608000D03*
X73628000Y-40608000D03*
X76708000Y-40208000D03*
X73628000Y-40208000D03*
X76708000Y-39808000D03*
X73628000Y-39808000D03*
X76708000Y-39408000D03*
X73628000Y-39408000D03*
X76708000Y-39008000D03*
X73628000Y-39008000D03*
X76708000Y-38608000D03*
X73628000Y-38608000D03*
X76708000Y-38208000D03*
X73628000Y-38208000D03*
X76708000Y-37808000D03*
X73628000Y-37808000D03*
X76708000Y-37408000D03*
X73628000Y-37408000D03*
X76708000Y-37008000D03*
X73628000Y-37008000D03*
X76708000Y-36608000D03*
X73628000Y-36608000D03*
X76708000Y-36208000D03*
X73628000Y-36208000D03*
X76708000Y-35808000D03*
X73628000Y-35808000D03*
X76708000Y-35408000D03*
X73628000Y-35408000D03*
X76708000Y-35008000D03*
X73628000Y-35008000D03*
D18*
X64347000Y-44831000D03*
X65447000Y-44831000D03*
D11*
X23552000Y-73398000D03*
X21152000Y-73398000D03*
D12*
X25552000Y-75898000D03*
X19152000Y-75898000D03*
D13*
X23652000Y-76073000D03*
X23002000Y-76073000D03*
X22352000Y-76073000D03*
X21702000Y-76073000D03*
X21052000Y-76073000D03*
D14*
X25527000Y-73398000D03*
X19177000Y-73398000D03*
D15*
X33655000Y-95462000D03*
X33655000Y-96562000D03*
X36703000Y-91228000D03*
X36703000Y-90128000D03*
D16*
X16325000Y-94488000D03*
X15425000Y-94488000D03*
D17*
X15461000Y-104140000D03*
X20861000Y-104140000D03*
X15461000Y-102870000D03*
X20861000Y-102870000D03*
X15461000Y-101600000D03*
X20861000Y-101600000D03*
X15461000Y-100330000D03*
X20861000Y-100330000D03*
X15461000Y-99060000D03*
X20861000Y-99060000D03*
X15461000Y-97790000D03*
X20861000Y-97790000D03*
X15461000Y-96520000D03*
X20861000Y-96520000D03*
D15*
X18288000Y-106384000D03*
X18288000Y-107484000D03*
D18*
X24342000Y-104140000D03*
X25442000Y-104140000D03*
D19*
X23953000Y-126365000D03*
X22733000Y-126365000D03*
D20*
X23343000Y-127885000D03*
D21*
X26576000Y-126411500D03*
X27526000Y-126411500D03*
D22*
X27051000Y-127889000D03*
D23*
X32181000Y-126040000D03*
D24*
X32132000Y-128777000D03*
X34162000Y-128777000D03*
D23*
X34113000Y-126040000D03*
D25*
X33147000Y-126040000D03*
D26*
X33147000Y-128143000D03*
D16*
X46246200Y-104368600D03*
X45346200Y-104368600D03*
X45027000Y-98247200D03*
X44127000Y-98247200D03*
X46271600Y-107111800D03*
X45371600Y-107111800D03*
D27*
X45840200Y-100895600D03*
X44990200Y-100895600D03*
X45840200Y-101745600D03*
X44990200Y-101745600D03*
D28*
X15113000Y-119507000D03*
D29*
X15113000Y-116967000D03*
D16*
X45143000Y-93091000D03*
X46043000Y-93091000D03*
D30*
X29210000Y-76846000D03*
X29210000Y-75946000D03*
D16*
X29268000Y-88011000D03*
X30168000Y-88011000D03*
D31*
X45040000Y-75819000D03*
X43940000Y-75819000D03*
X42840000Y-75819000D03*
X41740000Y-75819000D03*
X40640000Y-75819000D03*
X39540000Y-75819000D03*
X38440000Y-75819000D03*
X37340000Y-75819000D03*
D32*
X45930000Y-73769000D03*
D33*
X32610000Y-73519000D03*
D34*
X46255000Y-80399000D03*
D35*
X32330000Y-81494000D03*
D36*
X46255000Y-85479000D03*
D37*
X32355000Y-87419000D03*
D38*
X46030000Y-86984000D03*
D39*
X46005000Y-87644000D03*
D40*
X33950400Y-92918800D03*
X33950400Y-92268800D03*
X33950400Y-91618800D03*
X33950400Y-90968800D03*
D41*
X33075400Y-90093800D03*
D40*
X30250400Y-92918800D03*
D41*
X33075400Y-93793800D03*
X32425400Y-90093800D03*
X31775400Y-90093800D03*
X31125400Y-90093800D03*
D40*
X30250400Y-92268800D03*
X30250400Y-91618800D03*
X30250400Y-90968800D03*
D41*
X32425400Y-93793800D03*
X31775400Y-93793800D03*
X31125400Y-93793800D03*
D42*
X15278100Y-79220060D03*
D43*
X20828000Y-81569560D03*
X20828000Y-83566000D03*
D42*
X15278100Y-85915500D03*
D44*
X28320000Y-82677000D03*
X25020000Y-85177000D03*
X25020000Y-80177000D03*
D30*
X33274000Y-105112400D03*
X33274000Y-106012400D03*
D45*
X15936000Y-125984000D03*
X14986000Y-125984000D03*
X14036000Y-125984000D03*
X14036000Y-128334000D03*
X15936000Y-128334000D03*
D46*
X20463000Y-113156000D03*
X20463000Y-116206000D03*
X20963000Y-113156000D03*
X20963000Y-116206000D03*
X21463000Y-113156000D03*
X21463000Y-116206000D03*
X21963000Y-113156000D03*
X21963000Y-116206000D03*
X22463000Y-113156000D03*
X22463000Y-116206000D03*
D47*
X31369000Y-112649000D03*
X28448000Y-123063000D03*
X25146000Y-123063000D03*
X24892000Y-108331000D03*
X26670000Y-102235000D03*
X20193000Y-107950000D03*
X34671000Y-120523000D03*
D48*
X33152000Y-112649000D03*
X35052000Y-112649000D03*
X34102000Y-110499000D03*
D49*
X27783000Y-117983000D03*
X28433000Y-117983000D03*
X29083000Y-117983000D03*
X29733000Y-117983000D03*
X29733000Y-115393000D03*
X29083000Y-115393000D03*
X28433000Y-115393000D03*
X27783000Y-115393000D03*
D50*
X26802000Y-105649000D03*
X26802000Y-106299000D03*
X26802000Y-106949000D03*
X28702000Y-106949000D03*
X28702000Y-105649000D03*
D51*
X24424600Y-93040200D03*
X25374600Y-93040200D03*
X26324600Y-93040200D03*
X26324600Y-90240200D03*
X24424600Y-90240200D03*
D16*
X31935000Y-114554000D03*
X32835000Y-114554000D03*
X28506000Y-113157000D03*
X29406000Y-113157000D03*
X26739000Y-121031000D03*
X25839000Y-121031000D03*
D30*
X24130000Y-106622000D03*
X24130000Y-105722000D03*
D16*
X29406000Y-121031000D03*
X28506000Y-121031000D03*
D30*
X22479000Y-106865000D03*
X22479000Y-107765000D03*
X26797000Y-109670000D03*
X26797000Y-108770000D03*
D16*
X24950000Y-117983000D03*
X25850000Y-117983000D03*
X26739000Y-111633000D03*
X25839000Y-111633000D03*
X22675000Y-90170000D03*
X21775000Y-90170000D03*
X16325000Y-90551000D03*
X15425000Y-90551000D03*
D18*
X15452000Y-88646000D03*
X16552000Y-88646000D03*
D52*
X18173000Y-128905000D03*
X19673000Y-128905000D03*
D15*
X32004000Y-110913000D03*
X32004000Y-109813000D03*
D52*
X15990000Y-123444000D03*
X14490000Y-123444000D03*
D18*
X19219000Y-125984000D03*
X18119000Y-125984000D03*
D53*
X29845000Y-109970000D03*
X29845000Y-108470000D03*
D15*
X29972000Y-127466000D03*
X29972000Y-128566000D03*
D18*
X22564000Y-109982000D03*
X23664000Y-109982000D03*
X31708000Y-116713000D03*
X32808000Y-116713000D03*
X20997000Y-109982000D03*
X19897000Y-109982000D03*
X22564000Y-111506000D03*
X23664000Y-111506000D03*
X20997000Y-111506000D03*
X19897000Y-111506000D03*
X29633000Y-111633000D03*
X28533000Y-111633000D03*
X35137000Y-115443000D03*
X36237000Y-115443000D03*
X26458000Y-115443000D03*
X25358000Y-115443000D03*
D52*
X28829000Y-102489000D03*
X30329000Y-102489000D03*
X26404000Y-113665000D03*
X24904000Y-113665000D03*
D15*
X24257000Y-119973000D03*
X24257000Y-121073000D03*
X18288000Y-115147000D03*
X18288000Y-116247000D03*
D18*
X32935000Y-107823000D03*
X31835000Y-107823000D03*
X31200000Y-121031000D03*
X32300000Y-121031000D03*
X26331000Y-94996000D03*
X25231000Y-94996000D03*
X26441400Y-88112600D03*
X25341400Y-88112600D03*
X35348000Y-123571000D03*
X34248000Y-123571000D03*
X31708000Y-118745000D03*
X32808000Y-118745000D03*
D54*
X15113000Y-112522000D03*
D55*
X15113000Y-109982000D03*
X15113000Y-107442000D03*
D56*
X41148000Y-108044000D03*
X38068000Y-108044000D03*
X41148000Y-107644000D03*
X38068000Y-107644000D03*
X41148000Y-107244000D03*
X38068000Y-107244000D03*
X41148000Y-106844000D03*
X38068000Y-106844000D03*
X41148000Y-106444000D03*
X38068000Y-106444000D03*
X41148000Y-106044000D03*
X38068000Y-106044000D03*
X41148000Y-105644000D03*
X38068000Y-105644000D03*
X41148000Y-105244000D03*
X38068000Y-105244000D03*
X41148000Y-104844000D03*
X38068000Y-104844000D03*
X41148000Y-104444000D03*
X38068000Y-104444000D03*
X41148000Y-104044000D03*
X38068000Y-104044000D03*
X41148000Y-103644000D03*
X38068000Y-103644000D03*
X41148000Y-103244000D03*
X38068000Y-103244000D03*
X41148000Y-102844000D03*
X38068000Y-102844000D03*
X41148000Y-102444000D03*
X38068000Y-102444000D03*
X41148000Y-102044000D03*
X38068000Y-102044000D03*
X41148000Y-101644000D03*
X38068000Y-101644000D03*
X41148000Y-101244000D03*
X38068000Y-101244000D03*
X41148000Y-100844000D03*
X38068000Y-100844000D03*
X41148000Y-100444000D03*
X38068000Y-100444000D03*
X41148000Y-100044000D03*
X38068000Y-100044000D03*
X41148000Y-99644000D03*
X38068000Y-99644000D03*
X41148000Y-99244000D03*
X38068000Y-99244000D03*
X41148000Y-98844000D03*
X38068000Y-98844000D03*
X41148000Y-98444000D03*
X38068000Y-98444000D03*
X41148000Y-98044000D03*
X38068000Y-98044000D03*
X41148000Y-97644000D03*
X38068000Y-97644000D03*
X41148000Y-97244000D03*
X38068000Y-97244000D03*
X41148000Y-96844000D03*
X38068000Y-96844000D03*
X41148000Y-96444000D03*
X38068000Y-96444000D03*
X41148000Y-96044000D03*
X38068000Y-96044000D03*
X41148000Y-95644000D03*
X38068000Y-95644000D03*
X41148000Y-95244000D03*
X38068000Y-95244000D03*
X41148000Y-94844000D03*
X38068000Y-94844000D03*
X41148000Y-94444000D03*
X38068000Y-94444000D03*
D18*
X28787000Y-104267000D03*
X29887000Y-104267000D03*
X28787000Y-44831000D03*
X29887000Y-44831000D03*
D56*
X41148000Y-48608000D03*
X38068000Y-48608000D03*
X41148000Y-48208000D03*
X38068000Y-48208000D03*
X41148000Y-47808000D03*
X38068000Y-47808000D03*
X41148000Y-47408000D03*
X38068000Y-47408000D03*
X41148000Y-47008000D03*
X38068000Y-47008000D03*
X41148000Y-46608000D03*
X38068000Y-46608000D03*
X41148000Y-46208000D03*
X38068000Y-46208000D03*
X41148000Y-45808000D03*
X38068000Y-45808000D03*
X41148000Y-45408000D03*
X38068000Y-45408000D03*
X41148000Y-45008000D03*
X38068000Y-45008000D03*
X41148000Y-44608000D03*
X38068000Y-44608000D03*
X41148000Y-44208000D03*
X38068000Y-44208000D03*
X41148000Y-43808000D03*
X38068000Y-43808000D03*
X41148000Y-43408000D03*
X38068000Y-43408000D03*
X41148000Y-43008000D03*
X38068000Y-43008000D03*
X41148000Y-42608000D03*
X38068000Y-42608000D03*
X41148000Y-42208000D03*
X38068000Y-42208000D03*
X41148000Y-41808000D03*
X38068000Y-41808000D03*
X41148000Y-41408000D03*
X38068000Y-41408000D03*
X41148000Y-41008000D03*
X38068000Y-41008000D03*
X41148000Y-40608000D03*
X38068000Y-40608000D03*
X41148000Y-40208000D03*
X38068000Y-40208000D03*
X41148000Y-39808000D03*
X38068000Y-39808000D03*
X41148000Y-39408000D03*
X38068000Y-39408000D03*
X41148000Y-39008000D03*
X38068000Y-39008000D03*
X41148000Y-38608000D03*
X38068000Y-38608000D03*
X41148000Y-38208000D03*
X38068000Y-38208000D03*
X41148000Y-37808000D03*
X38068000Y-37808000D03*
X41148000Y-37408000D03*
X38068000Y-37408000D03*
X41148000Y-37008000D03*
X38068000Y-37008000D03*
X41148000Y-36608000D03*
X38068000Y-36608000D03*
X41148000Y-36208000D03*
X38068000Y-36208000D03*
X41148000Y-35808000D03*
X38068000Y-35808000D03*
X41148000Y-35408000D03*
X38068000Y-35408000D03*
X41148000Y-35008000D03*
X38068000Y-35008000D03*
D54*
X15113000Y-53086000D03*
D55*
X15113000Y-50546000D03*
X15113000Y-48006000D03*
D18*
X31708000Y-59309000D03*
X32808000Y-59309000D03*
X35348000Y-64135000D03*
X34248000Y-64135000D03*
X26441400Y-28676600D03*
X25341400Y-28676600D03*
X26331000Y-35560000D03*
X25231000Y-35560000D03*
X31200000Y-61595000D03*
X32300000Y-61595000D03*
X32935000Y-48387000D03*
X31835000Y-48387000D03*
D15*
X18288000Y-55711000D03*
X18288000Y-56811000D03*
X24257000Y-60537000D03*
X24257000Y-61637000D03*
D52*
X26404000Y-54229000D03*
X24904000Y-54229000D03*
X28829000Y-43053000D03*
X30329000Y-43053000D03*
D18*
X26458000Y-56007000D03*
X25358000Y-56007000D03*
X35137000Y-56007000D03*
X36237000Y-56007000D03*
X29633000Y-52197000D03*
X28533000Y-52197000D03*
X20997000Y-52070000D03*
X19897000Y-52070000D03*
X22564000Y-52070000D03*
X23664000Y-52070000D03*
X20997000Y-50546000D03*
X19897000Y-50546000D03*
X31708000Y-57277000D03*
X32808000Y-57277000D03*
X22564000Y-50546000D03*
X23664000Y-50546000D03*
D15*
X29972000Y-68030000D03*
X29972000Y-69130000D03*
D53*
X29845000Y-50534000D03*
X29845000Y-49034000D03*
D18*
X19219000Y-66548000D03*
X18119000Y-66548000D03*
D52*
X15990000Y-64008000D03*
X14490000Y-64008000D03*
D15*
X32004000Y-51477000D03*
X32004000Y-50377000D03*
D52*
X18173000Y-69469000D03*
X19673000Y-69469000D03*
D18*
X15452000Y-29210000D03*
X16552000Y-29210000D03*
D16*
X16325000Y-31115000D03*
X15425000Y-31115000D03*
X22675000Y-30734000D03*
X21775000Y-30734000D03*
X26739000Y-52197000D03*
X25839000Y-52197000D03*
X24950000Y-58547000D03*
X25850000Y-58547000D03*
D30*
X26797000Y-50234000D03*
X26797000Y-49334000D03*
X22479000Y-47429000D03*
X22479000Y-48329000D03*
D16*
X29406000Y-61595000D03*
X28506000Y-61595000D03*
D30*
X24130000Y-47186000D03*
X24130000Y-46286000D03*
D16*
X26739000Y-61595000D03*
X25839000Y-61595000D03*
X28506000Y-53721000D03*
X29406000Y-53721000D03*
X31935000Y-55118000D03*
X32835000Y-55118000D03*
D51*
X24424600Y-33604200D03*
X25374600Y-33604200D03*
X26324600Y-33604200D03*
X26324600Y-30804200D03*
X24424600Y-30804200D03*
D50*
X26802000Y-46213000D03*
X26802000Y-46863000D03*
X26802000Y-47513000D03*
X28702000Y-47513000D03*
X28702000Y-46213000D03*
D49*
X27783000Y-58547000D03*
X28433000Y-58547000D03*
X29083000Y-58547000D03*
X29733000Y-58547000D03*
X29733000Y-55957000D03*
X29083000Y-55957000D03*
X28433000Y-55957000D03*
X27783000Y-55957000D03*
D48*
X33152000Y-53213000D03*
X35052000Y-53213000D03*
X34102000Y-51063000D03*
D47*
X34671000Y-61087000D03*
X20193000Y-48514000D03*
X26670000Y-42799000D03*
X24892000Y-48895000D03*
X25146000Y-63627000D03*
X28448000Y-63627000D03*
X31369000Y-53213000D03*
D46*
X20463000Y-53720000D03*
X20463000Y-56770000D03*
X20963000Y-53720000D03*
X20963000Y-56770000D03*
X21463000Y-53720000D03*
X21463000Y-56770000D03*
X21963000Y-53720000D03*
X21963000Y-56770000D03*
X22463000Y-53720000D03*
X22463000Y-56770000D03*
D45*
X15936000Y-66548000D03*
X14986000Y-66548000D03*
X14036000Y-66548000D03*
X14036000Y-68898000D03*
X15936000Y-68898000D03*
D30*
X33274000Y-45676400D03*
X33274000Y-46576400D03*
D44*
X28320000Y-23241000D03*
X25020000Y-25741000D03*
X25020000Y-20741000D03*
D42*
X15278100Y-19784060D03*
D43*
X20828000Y-22133560D03*
X20828000Y-24130000D03*
D42*
X15278100Y-26479500D03*
D40*
X33950400Y-33482800D03*
X33950400Y-32832800D03*
X33950400Y-32182800D03*
X33950400Y-31532800D03*
D41*
X33075400Y-30657800D03*
D40*
X30250400Y-33482800D03*
D41*
X33075400Y-34357800D03*
X32425400Y-30657800D03*
X31775400Y-30657800D03*
X31125400Y-30657800D03*
D40*
X30250400Y-32832800D03*
X30250400Y-32182800D03*
X30250400Y-31532800D03*
D41*
X32425400Y-34357800D03*
X31775400Y-34357800D03*
X31125400Y-34357800D03*
D31*
X45040000Y-16383000D03*
X43940000Y-16383000D03*
X42840000Y-16383000D03*
X41740000Y-16383000D03*
X40640000Y-16383000D03*
X39540000Y-16383000D03*
X38440000Y-16383000D03*
X37340000Y-16383000D03*
D32*
X45930000Y-14333000D03*
D33*
X32610000Y-14083000D03*
D34*
X46255000Y-20963000D03*
D35*
X32330000Y-22058000D03*
D36*
X46255000Y-26043000D03*
D37*
X32355000Y-27983000D03*
D38*
X46030000Y-27548000D03*
D39*
X46005000Y-28208000D03*
D16*
X29268000Y-28575000D03*
X30168000Y-28575000D03*
D30*
X29210000Y-17410000D03*
X29210000Y-16510000D03*
D16*
X45143000Y-33655000D03*
X46043000Y-33655000D03*
D28*
X15113000Y-60071000D03*
D29*
X15113000Y-57531000D03*
D27*
X45840200Y-41459600D03*
X44990200Y-41459600D03*
X45840200Y-42309600D03*
X44990200Y-42309600D03*
D16*
X46271600Y-47675800D03*
X45371600Y-47675800D03*
X45027000Y-38811200D03*
X44127000Y-38811200D03*
X46246200Y-44932600D03*
X45346200Y-44932600D03*
D23*
X32181000Y-66604000D03*
D24*
X32132000Y-69341000D03*
X34162000Y-69341000D03*
D23*
X34113000Y-66604000D03*
D25*
X33147000Y-66604000D03*
D26*
X33147000Y-68707000D03*
D21*
X26576000Y-66975500D03*
X27526000Y-66975500D03*
D22*
X27051000Y-68453000D03*
D19*
X23953000Y-66929000D03*
X22733000Y-66929000D03*
D20*
X23343000Y-68449000D03*
D18*
X24342000Y-44704000D03*
X25442000Y-44704000D03*
D15*
X18288000Y-46948000D03*
X18288000Y-48048000D03*
D17*
X15461000Y-44704000D03*
X20861000Y-44704000D03*
X15461000Y-43434000D03*
X20861000Y-43434000D03*
X15461000Y-42164000D03*
X20861000Y-42164000D03*
X15461000Y-40894000D03*
X20861000Y-40894000D03*
X15461000Y-39624000D03*
X20861000Y-39624000D03*
X15461000Y-38354000D03*
X20861000Y-38354000D03*
X15461000Y-37084000D03*
X20861000Y-37084000D03*
D16*
X16325000Y-35052000D03*
X15425000Y-35052000D03*
D15*
X36703000Y-31792000D03*
X36703000Y-30692000D03*
X33655000Y-36026000D03*
X33655000Y-37126000D03*
D11*
X23552000Y-13962000D03*
X21152000Y-13962000D03*
D12*
X25552000Y-16462000D03*
X19152000Y-16462000D03*
D13*
X23652000Y-16637000D03*
X23002000Y-16637000D03*
X22352000Y-16637000D03*
X21702000Y-16637000D03*
X21052000Y-16637000D03*
D14*
X25527000Y-13962000D03*
X19177000Y-13962000D03*
M02*
