G04 #@! TF.FileFunction,Legend,Bot*
%FSLAX46Y46*%
G04 Gerber Fmt 4.6, Leading zero omitted, Abs format (unit mm)*
G04 Created by KiCad (PCBNEW 0.201601221447+6507~42~ubuntu15.10.1-product) date Fri 22 Jan 2016 07:17:06 PM EST*
%MOMM*%
G01*
G04 APERTURE LIST*
%ADD10C,0.100000*%
%ADD11C,0.063500*%
%ADD12C,0.150000*%
%ADD13C,0.307000*%
%ADD14C,0.025400*%
G04 APERTURE END LIST*
D10*
D11*
X70962762Y-122784810D02*
X70962762Y-122276810D01*
X70878095Y-122639667D01*
X70793428Y-122276810D01*
X70793428Y-122784810D01*
X70672476Y-122784810D02*
X70672476Y-122276810D01*
X70406381Y-122736429D02*
X70418476Y-122760619D01*
X70454762Y-122784810D01*
X70478952Y-122784810D01*
X70515238Y-122760619D01*
X70539429Y-122712238D01*
X70551524Y-122663857D01*
X70563619Y-122567095D01*
X70563619Y-122494524D01*
X70551524Y-122397762D01*
X70539429Y-122349381D01*
X70515238Y-122301000D01*
X70478952Y-122276810D01*
X70454762Y-122276810D01*
X70418476Y-122301000D01*
X70406381Y-122325190D01*
X70358000Y-122833190D02*
X70164476Y-122833190D01*
X70055619Y-122276810D02*
X70007238Y-122276810D01*
X69983047Y-122301000D01*
X69958857Y-122349381D01*
X69946762Y-122446143D01*
X69946762Y-122615476D01*
X69958857Y-122712238D01*
X69983047Y-122760619D01*
X70007238Y-122784810D01*
X70055619Y-122784810D01*
X70079809Y-122760619D01*
X70104000Y-122712238D01*
X70116095Y-122615476D01*
X70116095Y-122446143D01*
X70104000Y-122349381D01*
X70079809Y-122301000D01*
X70055619Y-122276810D01*
X69837905Y-122276810D02*
X69837905Y-122688048D01*
X69825810Y-122736429D01*
X69813714Y-122760619D01*
X69789524Y-122784810D01*
X69741143Y-122784810D01*
X69716952Y-122760619D01*
X69704857Y-122736429D01*
X69692762Y-122688048D01*
X69692762Y-122276810D01*
X69608096Y-122276810D02*
X69462953Y-122276810D01*
X69535524Y-122784810D02*
X69535524Y-122276810D01*
X64878857Y-125306667D02*
X64757905Y-125306667D01*
X64903048Y-125451810D02*
X64818381Y-124943810D01*
X64733714Y-125451810D01*
X64649048Y-125451810D02*
X64649048Y-124943810D01*
X64564381Y-125306667D01*
X64479714Y-124943810D01*
X64479714Y-125451810D01*
X64358762Y-125451810D02*
X64358762Y-124943810D01*
X64262000Y-124943810D01*
X64237809Y-124968000D01*
X64225714Y-124992190D01*
X64213619Y-125040571D01*
X64213619Y-125113143D01*
X64225714Y-125161524D01*
X64237809Y-125185714D01*
X64262000Y-125209905D01*
X64358762Y-125209905D01*
X63971714Y-125451810D02*
X64116857Y-125451810D01*
X64044286Y-125451810D02*
X64044286Y-124943810D01*
X64068476Y-125016381D01*
X64092667Y-125064762D01*
X64116857Y-125088952D01*
X63923333Y-125500190D02*
X63729809Y-125500190D01*
X63669333Y-125451810D02*
X63669333Y-124943810D01*
X63548381Y-125451810D02*
X63548381Y-124943810D01*
X63403238Y-125451810D01*
X63403238Y-124943810D01*
X61619190Y-125306667D02*
X61498238Y-125306667D01*
X61643381Y-125451810D02*
X61558714Y-124943810D01*
X61474047Y-125451810D01*
X61389381Y-125451810D02*
X61389381Y-124943810D01*
X61304714Y-125306667D01*
X61220047Y-124943810D01*
X61220047Y-125451810D01*
X61099095Y-125451810D02*
X61099095Y-124943810D01*
X61002333Y-124943810D01*
X60978142Y-124968000D01*
X60966047Y-124992190D01*
X60953952Y-125040571D01*
X60953952Y-125113143D01*
X60966047Y-125161524D01*
X60978142Y-125185714D01*
X61002333Y-125209905D01*
X61099095Y-125209905D01*
X60712047Y-125451810D02*
X60857190Y-125451810D01*
X60784619Y-125451810D02*
X60784619Y-124943810D01*
X60808809Y-125016381D01*
X60833000Y-125064762D01*
X60857190Y-125088952D01*
X60663666Y-125500190D02*
X60470142Y-125500190D01*
X60361285Y-124943810D02*
X60312904Y-124943810D01*
X60288713Y-124968000D01*
X60264523Y-125016381D01*
X60252428Y-125113143D01*
X60252428Y-125282476D01*
X60264523Y-125379238D01*
X60288713Y-125427619D01*
X60312904Y-125451810D01*
X60361285Y-125451810D01*
X60385475Y-125427619D01*
X60409666Y-125379238D01*
X60421761Y-125282476D01*
X60421761Y-125113143D01*
X60409666Y-125016381D01*
X60385475Y-124968000D01*
X60361285Y-124943810D01*
X60143571Y-124943810D02*
X60143571Y-125355048D01*
X60131476Y-125403429D01*
X60119380Y-125427619D01*
X60095190Y-125451810D01*
X60046809Y-125451810D01*
X60022618Y-125427619D01*
X60010523Y-125403429D01*
X59998428Y-125355048D01*
X59998428Y-124943810D01*
X59913762Y-124943810D02*
X59768619Y-124943810D01*
X59841190Y-125451810D02*
X59841190Y-124943810D01*
X70974857Y-112606667D02*
X70853905Y-112606667D01*
X70999048Y-112751810D02*
X70914381Y-112243810D01*
X70829714Y-112751810D01*
X70745048Y-112751810D02*
X70745048Y-112243810D01*
X70660381Y-112606667D01*
X70575714Y-112243810D01*
X70575714Y-112751810D01*
X70454762Y-112751810D02*
X70454762Y-112243810D01*
X70358000Y-112243810D01*
X70333809Y-112268000D01*
X70321714Y-112292190D01*
X70309619Y-112340571D01*
X70309619Y-112413143D01*
X70321714Y-112461524D01*
X70333809Y-112485714D01*
X70358000Y-112509905D01*
X70454762Y-112509905D01*
X70212857Y-112292190D02*
X70200762Y-112268000D01*
X70176571Y-112243810D01*
X70116095Y-112243810D01*
X70091905Y-112268000D01*
X70079809Y-112292190D01*
X70067714Y-112340571D01*
X70067714Y-112388952D01*
X70079809Y-112461524D01*
X70224952Y-112751810D01*
X70067714Y-112751810D01*
X70019333Y-112800190D02*
X69825809Y-112800190D01*
X69765333Y-112751810D02*
X69765333Y-112243810D01*
X69644381Y-112751810D02*
X69644381Y-112243810D01*
X69499238Y-112751810D01*
X69499238Y-112243810D01*
X56496857Y-105337429D02*
X56508952Y-105361619D01*
X56545238Y-105385810D01*
X56569428Y-105385810D01*
X56605714Y-105361619D01*
X56629905Y-105313238D01*
X56642000Y-105264857D01*
X56654095Y-105168095D01*
X56654095Y-105095524D01*
X56642000Y-104998762D01*
X56629905Y-104950381D01*
X56605714Y-104902000D01*
X56569428Y-104877810D01*
X56545238Y-104877810D01*
X56508952Y-104902000D01*
X56496857Y-104926190D01*
X56339619Y-104877810D02*
X56291238Y-104877810D01*
X56267047Y-104902000D01*
X56242857Y-104950381D01*
X56230762Y-105047143D01*
X56230762Y-105216476D01*
X56242857Y-105313238D01*
X56267047Y-105361619D01*
X56291238Y-105385810D01*
X56339619Y-105385810D01*
X56363809Y-105361619D01*
X56388000Y-105313238D01*
X56400095Y-105216476D01*
X56400095Y-105047143D01*
X56388000Y-104950381D01*
X56363809Y-104902000D01*
X56339619Y-104877810D01*
X56121905Y-105385810D02*
X56121905Y-104877810D01*
X56037238Y-105240667D01*
X55952571Y-104877810D01*
X55952571Y-105385810D01*
X55831619Y-105385810D02*
X55831619Y-104877810D01*
X55734857Y-104877810D01*
X55710666Y-104902000D01*
X55698571Y-104926190D01*
X55686476Y-104974571D01*
X55686476Y-105047143D01*
X55698571Y-105095524D01*
X55710666Y-105119714D01*
X55734857Y-105143905D01*
X55831619Y-105143905D01*
X55638095Y-105434190D02*
X55444571Y-105434190D01*
X55384095Y-105385810D02*
X55384095Y-104877810D01*
X55263143Y-105385810D02*
X55263143Y-104877810D01*
X55118000Y-105385810D01*
X55118000Y-104877810D01*
X63016190Y-99495429D02*
X63028285Y-99519619D01*
X63064571Y-99543810D01*
X63088761Y-99543810D01*
X63125047Y-99519619D01*
X63149238Y-99471238D01*
X63161333Y-99422857D01*
X63173428Y-99326095D01*
X63173428Y-99253524D01*
X63161333Y-99156762D01*
X63149238Y-99108381D01*
X63125047Y-99060000D01*
X63088761Y-99035810D01*
X63064571Y-99035810D01*
X63028285Y-99060000D01*
X63016190Y-99084190D01*
X62858952Y-99035810D02*
X62810571Y-99035810D01*
X62786380Y-99060000D01*
X62762190Y-99108381D01*
X62750095Y-99205143D01*
X62750095Y-99374476D01*
X62762190Y-99471238D01*
X62786380Y-99519619D01*
X62810571Y-99543810D01*
X62858952Y-99543810D01*
X62883142Y-99519619D01*
X62907333Y-99471238D01*
X62919428Y-99374476D01*
X62919428Y-99205143D01*
X62907333Y-99108381D01*
X62883142Y-99060000D01*
X62858952Y-99035810D01*
X62641238Y-99543810D02*
X62641238Y-99035810D01*
X62556571Y-99398667D01*
X62471904Y-99035810D01*
X62471904Y-99543810D01*
X62350952Y-99543810D02*
X62350952Y-99035810D01*
X62254190Y-99035810D01*
X62229999Y-99060000D01*
X62217904Y-99084190D01*
X62205809Y-99132571D01*
X62205809Y-99205143D01*
X62217904Y-99253524D01*
X62229999Y-99277714D01*
X62254190Y-99301905D01*
X62350952Y-99301905D01*
X62157428Y-99592190D02*
X61963904Y-99592190D01*
X61855047Y-99035810D02*
X61806666Y-99035810D01*
X61782475Y-99060000D01*
X61758285Y-99108381D01*
X61746190Y-99205143D01*
X61746190Y-99374476D01*
X61758285Y-99471238D01*
X61782475Y-99519619D01*
X61806666Y-99543810D01*
X61855047Y-99543810D01*
X61879237Y-99519619D01*
X61903428Y-99471238D01*
X61915523Y-99374476D01*
X61915523Y-99205143D01*
X61903428Y-99108381D01*
X61879237Y-99060000D01*
X61855047Y-99035810D01*
X61637333Y-99035810D02*
X61637333Y-99447048D01*
X61625238Y-99495429D01*
X61613142Y-99519619D01*
X61588952Y-99543810D01*
X61540571Y-99543810D01*
X61516380Y-99519619D01*
X61504285Y-99495429D01*
X61492190Y-99447048D01*
X61492190Y-99035810D01*
X61407524Y-99035810D02*
X61262381Y-99035810D01*
X61334952Y-99543810D02*
X61334952Y-99035810D01*
X61365190Y-105240667D02*
X61244238Y-105240667D01*
X61389381Y-105385810D02*
X61304714Y-104877810D01*
X61220047Y-105385810D01*
X61135381Y-105385810D02*
X61135381Y-104877810D01*
X61050714Y-105240667D01*
X60966047Y-104877810D01*
X60966047Y-105385810D01*
X60845095Y-105385810D02*
X60845095Y-104877810D01*
X60748333Y-104877810D01*
X60724142Y-104902000D01*
X60712047Y-104926190D01*
X60699952Y-104974571D01*
X60699952Y-105047143D01*
X60712047Y-105095524D01*
X60724142Y-105119714D01*
X60748333Y-105143905D01*
X60845095Y-105143905D01*
X60603190Y-104926190D02*
X60591095Y-104902000D01*
X60566904Y-104877810D01*
X60506428Y-104877810D01*
X60482238Y-104902000D01*
X60470142Y-104926190D01*
X60458047Y-104974571D01*
X60458047Y-105022952D01*
X60470142Y-105095524D01*
X60615285Y-105385810D01*
X60458047Y-105385810D01*
X60409666Y-105434190D02*
X60216142Y-105434190D01*
X60107285Y-104877810D02*
X60058904Y-104877810D01*
X60034713Y-104902000D01*
X60010523Y-104950381D01*
X59998428Y-105047143D01*
X59998428Y-105216476D01*
X60010523Y-105313238D01*
X60034713Y-105361619D01*
X60058904Y-105385810D01*
X60107285Y-105385810D01*
X60131475Y-105361619D01*
X60155666Y-105313238D01*
X60167761Y-105216476D01*
X60167761Y-105047143D01*
X60155666Y-104950381D01*
X60131475Y-104902000D01*
X60107285Y-104877810D01*
X59889571Y-104877810D02*
X59889571Y-105289048D01*
X59877476Y-105337429D01*
X59865380Y-105361619D01*
X59841190Y-105385810D01*
X59792809Y-105385810D01*
X59768618Y-105361619D01*
X59756523Y-105337429D01*
X59744428Y-105289048D01*
X59744428Y-104877810D01*
X59659762Y-104877810D02*
X59514619Y-104877810D01*
X59587190Y-105385810D02*
X59587190Y-104877810D01*
X70962762Y-63348810D02*
X70962762Y-62840810D01*
X70878095Y-63203667D01*
X70793428Y-62840810D01*
X70793428Y-63348810D01*
X70672476Y-63348810D02*
X70672476Y-62840810D01*
X70406381Y-63300429D02*
X70418476Y-63324619D01*
X70454762Y-63348810D01*
X70478952Y-63348810D01*
X70515238Y-63324619D01*
X70539429Y-63276238D01*
X70551524Y-63227857D01*
X70563619Y-63131095D01*
X70563619Y-63058524D01*
X70551524Y-62961762D01*
X70539429Y-62913381D01*
X70515238Y-62865000D01*
X70478952Y-62840810D01*
X70454762Y-62840810D01*
X70418476Y-62865000D01*
X70406381Y-62889190D01*
X70358000Y-63397190D02*
X70164476Y-63397190D01*
X70055619Y-62840810D02*
X70007238Y-62840810D01*
X69983047Y-62865000D01*
X69958857Y-62913381D01*
X69946762Y-63010143D01*
X69946762Y-63179476D01*
X69958857Y-63276238D01*
X69983047Y-63324619D01*
X70007238Y-63348810D01*
X70055619Y-63348810D01*
X70079809Y-63324619D01*
X70104000Y-63276238D01*
X70116095Y-63179476D01*
X70116095Y-63010143D01*
X70104000Y-62913381D01*
X70079809Y-62865000D01*
X70055619Y-62840810D01*
X69837905Y-62840810D02*
X69837905Y-63252048D01*
X69825810Y-63300429D01*
X69813714Y-63324619D01*
X69789524Y-63348810D01*
X69741143Y-63348810D01*
X69716952Y-63324619D01*
X69704857Y-63300429D01*
X69692762Y-63252048D01*
X69692762Y-62840810D01*
X69608096Y-62840810D02*
X69462953Y-62840810D01*
X69535524Y-63348810D02*
X69535524Y-62840810D01*
X64878857Y-65870667D02*
X64757905Y-65870667D01*
X64903048Y-66015810D02*
X64818381Y-65507810D01*
X64733714Y-66015810D01*
X64649048Y-66015810D02*
X64649048Y-65507810D01*
X64564381Y-65870667D01*
X64479714Y-65507810D01*
X64479714Y-66015810D01*
X64358762Y-66015810D02*
X64358762Y-65507810D01*
X64262000Y-65507810D01*
X64237809Y-65532000D01*
X64225714Y-65556190D01*
X64213619Y-65604571D01*
X64213619Y-65677143D01*
X64225714Y-65725524D01*
X64237809Y-65749714D01*
X64262000Y-65773905D01*
X64358762Y-65773905D01*
X63971714Y-66015810D02*
X64116857Y-66015810D01*
X64044286Y-66015810D02*
X64044286Y-65507810D01*
X64068476Y-65580381D01*
X64092667Y-65628762D01*
X64116857Y-65652952D01*
X63923333Y-66064190D02*
X63729809Y-66064190D01*
X63669333Y-66015810D02*
X63669333Y-65507810D01*
X63548381Y-66015810D02*
X63548381Y-65507810D01*
X63403238Y-66015810D01*
X63403238Y-65507810D01*
X61619190Y-65870667D02*
X61498238Y-65870667D01*
X61643381Y-66015810D02*
X61558714Y-65507810D01*
X61474047Y-66015810D01*
X61389381Y-66015810D02*
X61389381Y-65507810D01*
X61304714Y-65870667D01*
X61220047Y-65507810D01*
X61220047Y-66015810D01*
X61099095Y-66015810D02*
X61099095Y-65507810D01*
X61002333Y-65507810D01*
X60978142Y-65532000D01*
X60966047Y-65556190D01*
X60953952Y-65604571D01*
X60953952Y-65677143D01*
X60966047Y-65725524D01*
X60978142Y-65749714D01*
X61002333Y-65773905D01*
X61099095Y-65773905D01*
X60712047Y-66015810D02*
X60857190Y-66015810D01*
X60784619Y-66015810D02*
X60784619Y-65507810D01*
X60808809Y-65580381D01*
X60833000Y-65628762D01*
X60857190Y-65652952D01*
X60663666Y-66064190D02*
X60470142Y-66064190D01*
X60361285Y-65507810D02*
X60312904Y-65507810D01*
X60288713Y-65532000D01*
X60264523Y-65580381D01*
X60252428Y-65677143D01*
X60252428Y-65846476D01*
X60264523Y-65943238D01*
X60288713Y-65991619D01*
X60312904Y-66015810D01*
X60361285Y-66015810D01*
X60385475Y-65991619D01*
X60409666Y-65943238D01*
X60421761Y-65846476D01*
X60421761Y-65677143D01*
X60409666Y-65580381D01*
X60385475Y-65532000D01*
X60361285Y-65507810D01*
X60143571Y-65507810D02*
X60143571Y-65919048D01*
X60131476Y-65967429D01*
X60119380Y-65991619D01*
X60095190Y-66015810D01*
X60046809Y-66015810D01*
X60022618Y-65991619D01*
X60010523Y-65967429D01*
X59998428Y-65919048D01*
X59998428Y-65507810D01*
X59913762Y-65507810D02*
X59768619Y-65507810D01*
X59841190Y-66015810D02*
X59841190Y-65507810D01*
X70974857Y-53170667D02*
X70853905Y-53170667D01*
X70999048Y-53315810D02*
X70914381Y-52807810D01*
X70829714Y-53315810D01*
X70745048Y-53315810D02*
X70745048Y-52807810D01*
X70660381Y-53170667D01*
X70575714Y-52807810D01*
X70575714Y-53315810D01*
X70454762Y-53315810D02*
X70454762Y-52807810D01*
X70358000Y-52807810D01*
X70333809Y-52832000D01*
X70321714Y-52856190D01*
X70309619Y-52904571D01*
X70309619Y-52977143D01*
X70321714Y-53025524D01*
X70333809Y-53049714D01*
X70358000Y-53073905D01*
X70454762Y-53073905D01*
X70212857Y-52856190D02*
X70200762Y-52832000D01*
X70176571Y-52807810D01*
X70116095Y-52807810D01*
X70091905Y-52832000D01*
X70079809Y-52856190D01*
X70067714Y-52904571D01*
X70067714Y-52952952D01*
X70079809Y-53025524D01*
X70224952Y-53315810D01*
X70067714Y-53315810D01*
X70019333Y-53364190D02*
X69825809Y-53364190D01*
X69765333Y-53315810D02*
X69765333Y-52807810D01*
X69644381Y-53315810D02*
X69644381Y-52807810D01*
X69499238Y-53315810D01*
X69499238Y-52807810D01*
X56496857Y-45901429D02*
X56508952Y-45925619D01*
X56545238Y-45949810D01*
X56569428Y-45949810D01*
X56605714Y-45925619D01*
X56629905Y-45877238D01*
X56642000Y-45828857D01*
X56654095Y-45732095D01*
X56654095Y-45659524D01*
X56642000Y-45562762D01*
X56629905Y-45514381D01*
X56605714Y-45466000D01*
X56569428Y-45441810D01*
X56545238Y-45441810D01*
X56508952Y-45466000D01*
X56496857Y-45490190D01*
X56339619Y-45441810D02*
X56291238Y-45441810D01*
X56267047Y-45466000D01*
X56242857Y-45514381D01*
X56230762Y-45611143D01*
X56230762Y-45780476D01*
X56242857Y-45877238D01*
X56267047Y-45925619D01*
X56291238Y-45949810D01*
X56339619Y-45949810D01*
X56363809Y-45925619D01*
X56388000Y-45877238D01*
X56400095Y-45780476D01*
X56400095Y-45611143D01*
X56388000Y-45514381D01*
X56363809Y-45466000D01*
X56339619Y-45441810D01*
X56121905Y-45949810D02*
X56121905Y-45441810D01*
X56037238Y-45804667D01*
X55952571Y-45441810D01*
X55952571Y-45949810D01*
X55831619Y-45949810D02*
X55831619Y-45441810D01*
X55734857Y-45441810D01*
X55710666Y-45466000D01*
X55698571Y-45490190D01*
X55686476Y-45538571D01*
X55686476Y-45611143D01*
X55698571Y-45659524D01*
X55710666Y-45683714D01*
X55734857Y-45707905D01*
X55831619Y-45707905D01*
X55638095Y-45998190D02*
X55444571Y-45998190D01*
X55384095Y-45949810D02*
X55384095Y-45441810D01*
X55263143Y-45949810D02*
X55263143Y-45441810D01*
X55118000Y-45949810D01*
X55118000Y-45441810D01*
X63016190Y-40059429D02*
X63028285Y-40083619D01*
X63064571Y-40107810D01*
X63088761Y-40107810D01*
X63125047Y-40083619D01*
X63149238Y-40035238D01*
X63161333Y-39986857D01*
X63173428Y-39890095D01*
X63173428Y-39817524D01*
X63161333Y-39720762D01*
X63149238Y-39672381D01*
X63125047Y-39624000D01*
X63088761Y-39599810D01*
X63064571Y-39599810D01*
X63028285Y-39624000D01*
X63016190Y-39648190D01*
X62858952Y-39599810D02*
X62810571Y-39599810D01*
X62786380Y-39624000D01*
X62762190Y-39672381D01*
X62750095Y-39769143D01*
X62750095Y-39938476D01*
X62762190Y-40035238D01*
X62786380Y-40083619D01*
X62810571Y-40107810D01*
X62858952Y-40107810D01*
X62883142Y-40083619D01*
X62907333Y-40035238D01*
X62919428Y-39938476D01*
X62919428Y-39769143D01*
X62907333Y-39672381D01*
X62883142Y-39624000D01*
X62858952Y-39599810D01*
X62641238Y-40107810D02*
X62641238Y-39599810D01*
X62556571Y-39962667D01*
X62471904Y-39599810D01*
X62471904Y-40107810D01*
X62350952Y-40107810D02*
X62350952Y-39599810D01*
X62254190Y-39599810D01*
X62229999Y-39624000D01*
X62217904Y-39648190D01*
X62205809Y-39696571D01*
X62205809Y-39769143D01*
X62217904Y-39817524D01*
X62229999Y-39841714D01*
X62254190Y-39865905D01*
X62350952Y-39865905D01*
X62157428Y-40156190D02*
X61963904Y-40156190D01*
X61855047Y-39599810D02*
X61806666Y-39599810D01*
X61782475Y-39624000D01*
X61758285Y-39672381D01*
X61746190Y-39769143D01*
X61746190Y-39938476D01*
X61758285Y-40035238D01*
X61782475Y-40083619D01*
X61806666Y-40107810D01*
X61855047Y-40107810D01*
X61879237Y-40083619D01*
X61903428Y-40035238D01*
X61915523Y-39938476D01*
X61915523Y-39769143D01*
X61903428Y-39672381D01*
X61879237Y-39624000D01*
X61855047Y-39599810D01*
X61637333Y-39599810D02*
X61637333Y-40011048D01*
X61625238Y-40059429D01*
X61613142Y-40083619D01*
X61588952Y-40107810D01*
X61540571Y-40107810D01*
X61516380Y-40083619D01*
X61504285Y-40059429D01*
X61492190Y-40011048D01*
X61492190Y-39599810D01*
X61407524Y-39599810D02*
X61262381Y-39599810D01*
X61334952Y-40107810D02*
X61334952Y-39599810D01*
X61365190Y-45804667D02*
X61244238Y-45804667D01*
X61389381Y-45949810D02*
X61304714Y-45441810D01*
X61220047Y-45949810D01*
X61135381Y-45949810D02*
X61135381Y-45441810D01*
X61050714Y-45804667D01*
X60966047Y-45441810D01*
X60966047Y-45949810D01*
X60845095Y-45949810D02*
X60845095Y-45441810D01*
X60748333Y-45441810D01*
X60724142Y-45466000D01*
X60712047Y-45490190D01*
X60699952Y-45538571D01*
X60699952Y-45611143D01*
X60712047Y-45659524D01*
X60724142Y-45683714D01*
X60748333Y-45707905D01*
X60845095Y-45707905D01*
X60603190Y-45490190D02*
X60591095Y-45466000D01*
X60566904Y-45441810D01*
X60506428Y-45441810D01*
X60482238Y-45466000D01*
X60470142Y-45490190D01*
X60458047Y-45538571D01*
X60458047Y-45586952D01*
X60470142Y-45659524D01*
X60615285Y-45949810D01*
X60458047Y-45949810D01*
X60409666Y-45998190D02*
X60216142Y-45998190D01*
X60107285Y-45441810D02*
X60058904Y-45441810D01*
X60034713Y-45466000D01*
X60010523Y-45514381D01*
X59998428Y-45611143D01*
X59998428Y-45780476D01*
X60010523Y-45877238D01*
X60034713Y-45925619D01*
X60058904Y-45949810D01*
X60107285Y-45949810D01*
X60131475Y-45925619D01*
X60155666Y-45877238D01*
X60167761Y-45780476D01*
X60167761Y-45611143D01*
X60155666Y-45514381D01*
X60131475Y-45466000D01*
X60107285Y-45441810D01*
X59889571Y-45441810D02*
X59889571Y-45853048D01*
X59877476Y-45901429D01*
X59865380Y-45925619D01*
X59841190Y-45949810D01*
X59792809Y-45949810D01*
X59768618Y-45925619D01*
X59756523Y-45901429D01*
X59744428Y-45853048D01*
X59744428Y-45441810D01*
X59659762Y-45441810D02*
X59514619Y-45441810D01*
X59587190Y-45949810D02*
X59587190Y-45441810D01*
X35402762Y-122784810D02*
X35402762Y-122276810D01*
X35318095Y-122639667D01*
X35233428Y-122276810D01*
X35233428Y-122784810D01*
X35112476Y-122784810D02*
X35112476Y-122276810D01*
X34846381Y-122736429D02*
X34858476Y-122760619D01*
X34894762Y-122784810D01*
X34918952Y-122784810D01*
X34955238Y-122760619D01*
X34979429Y-122712238D01*
X34991524Y-122663857D01*
X35003619Y-122567095D01*
X35003619Y-122494524D01*
X34991524Y-122397762D01*
X34979429Y-122349381D01*
X34955238Y-122301000D01*
X34918952Y-122276810D01*
X34894762Y-122276810D01*
X34858476Y-122301000D01*
X34846381Y-122325190D01*
X34798000Y-122833190D02*
X34604476Y-122833190D01*
X34495619Y-122276810D02*
X34447238Y-122276810D01*
X34423047Y-122301000D01*
X34398857Y-122349381D01*
X34386762Y-122446143D01*
X34386762Y-122615476D01*
X34398857Y-122712238D01*
X34423047Y-122760619D01*
X34447238Y-122784810D01*
X34495619Y-122784810D01*
X34519809Y-122760619D01*
X34544000Y-122712238D01*
X34556095Y-122615476D01*
X34556095Y-122446143D01*
X34544000Y-122349381D01*
X34519809Y-122301000D01*
X34495619Y-122276810D01*
X34277905Y-122276810D02*
X34277905Y-122688048D01*
X34265810Y-122736429D01*
X34253714Y-122760619D01*
X34229524Y-122784810D01*
X34181143Y-122784810D01*
X34156952Y-122760619D01*
X34144857Y-122736429D01*
X34132762Y-122688048D01*
X34132762Y-122276810D01*
X34048096Y-122276810D02*
X33902953Y-122276810D01*
X33975524Y-122784810D02*
X33975524Y-122276810D01*
X29318857Y-125306667D02*
X29197905Y-125306667D01*
X29343048Y-125451810D02*
X29258381Y-124943810D01*
X29173714Y-125451810D01*
X29089048Y-125451810D02*
X29089048Y-124943810D01*
X29004381Y-125306667D01*
X28919714Y-124943810D01*
X28919714Y-125451810D01*
X28798762Y-125451810D02*
X28798762Y-124943810D01*
X28702000Y-124943810D01*
X28677809Y-124968000D01*
X28665714Y-124992190D01*
X28653619Y-125040571D01*
X28653619Y-125113143D01*
X28665714Y-125161524D01*
X28677809Y-125185714D01*
X28702000Y-125209905D01*
X28798762Y-125209905D01*
X28411714Y-125451810D02*
X28556857Y-125451810D01*
X28484286Y-125451810D02*
X28484286Y-124943810D01*
X28508476Y-125016381D01*
X28532667Y-125064762D01*
X28556857Y-125088952D01*
X28363333Y-125500190D02*
X28169809Y-125500190D01*
X28109333Y-125451810D02*
X28109333Y-124943810D01*
X27988381Y-125451810D02*
X27988381Y-124943810D01*
X27843238Y-125451810D01*
X27843238Y-124943810D01*
X26059190Y-125306667D02*
X25938238Y-125306667D01*
X26083381Y-125451810D02*
X25998714Y-124943810D01*
X25914047Y-125451810D01*
X25829381Y-125451810D02*
X25829381Y-124943810D01*
X25744714Y-125306667D01*
X25660047Y-124943810D01*
X25660047Y-125451810D01*
X25539095Y-125451810D02*
X25539095Y-124943810D01*
X25442333Y-124943810D01*
X25418142Y-124968000D01*
X25406047Y-124992190D01*
X25393952Y-125040571D01*
X25393952Y-125113143D01*
X25406047Y-125161524D01*
X25418142Y-125185714D01*
X25442333Y-125209905D01*
X25539095Y-125209905D01*
X25152047Y-125451810D02*
X25297190Y-125451810D01*
X25224619Y-125451810D02*
X25224619Y-124943810D01*
X25248809Y-125016381D01*
X25273000Y-125064762D01*
X25297190Y-125088952D01*
X25103666Y-125500190D02*
X24910142Y-125500190D01*
X24801285Y-124943810D02*
X24752904Y-124943810D01*
X24728713Y-124968000D01*
X24704523Y-125016381D01*
X24692428Y-125113143D01*
X24692428Y-125282476D01*
X24704523Y-125379238D01*
X24728713Y-125427619D01*
X24752904Y-125451810D01*
X24801285Y-125451810D01*
X24825475Y-125427619D01*
X24849666Y-125379238D01*
X24861761Y-125282476D01*
X24861761Y-125113143D01*
X24849666Y-125016381D01*
X24825475Y-124968000D01*
X24801285Y-124943810D01*
X24583571Y-124943810D02*
X24583571Y-125355048D01*
X24571476Y-125403429D01*
X24559380Y-125427619D01*
X24535190Y-125451810D01*
X24486809Y-125451810D01*
X24462618Y-125427619D01*
X24450523Y-125403429D01*
X24438428Y-125355048D01*
X24438428Y-124943810D01*
X24353762Y-124943810D02*
X24208619Y-124943810D01*
X24281190Y-125451810D02*
X24281190Y-124943810D01*
X35414857Y-112606667D02*
X35293905Y-112606667D01*
X35439048Y-112751810D02*
X35354381Y-112243810D01*
X35269714Y-112751810D01*
X35185048Y-112751810D02*
X35185048Y-112243810D01*
X35100381Y-112606667D01*
X35015714Y-112243810D01*
X35015714Y-112751810D01*
X34894762Y-112751810D02*
X34894762Y-112243810D01*
X34798000Y-112243810D01*
X34773809Y-112268000D01*
X34761714Y-112292190D01*
X34749619Y-112340571D01*
X34749619Y-112413143D01*
X34761714Y-112461524D01*
X34773809Y-112485714D01*
X34798000Y-112509905D01*
X34894762Y-112509905D01*
X34652857Y-112292190D02*
X34640762Y-112268000D01*
X34616571Y-112243810D01*
X34556095Y-112243810D01*
X34531905Y-112268000D01*
X34519809Y-112292190D01*
X34507714Y-112340571D01*
X34507714Y-112388952D01*
X34519809Y-112461524D01*
X34664952Y-112751810D01*
X34507714Y-112751810D01*
X34459333Y-112800190D02*
X34265809Y-112800190D01*
X34205333Y-112751810D02*
X34205333Y-112243810D01*
X34084381Y-112751810D02*
X34084381Y-112243810D01*
X33939238Y-112751810D01*
X33939238Y-112243810D01*
X20936857Y-105337429D02*
X20948952Y-105361619D01*
X20985238Y-105385810D01*
X21009428Y-105385810D01*
X21045714Y-105361619D01*
X21069905Y-105313238D01*
X21082000Y-105264857D01*
X21094095Y-105168095D01*
X21094095Y-105095524D01*
X21082000Y-104998762D01*
X21069905Y-104950381D01*
X21045714Y-104902000D01*
X21009428Y-104877810D01*
X20985238Y-104877810D01*
X20948952Y-104902000D01*
X20936857Y-104926190D01*
X20779619Y-104877810D02*
X20731238Y-104877810D01*
X20707047Y-104902000D01*
X20682857Y-104950381D01*
X20670762Y-105047143D01*
X20670762Y-105216476D01*
X20682857Y-105313238D01*
X20707047Y-105361619D01*
X20731238Y-105385810D01*
X20779619Y-105385810D01*
X20803809Y-105361619D01*
X20828000Y-105313238D01*
X20840095Y-105216476D01*
X20840095Y-105047143D01*
X20828000Y-104950381D01*
X20803809Y-104902000D01*
X20779619Y-104877810D01*
X20561905Y-105385810D02*
X20561905Y-104877810D01*
X20477238Y-105240667D01*
X20392571Y-104877810D01*
X20392571Y-105385810D01*
X20271619Y-105385810D02*
X20271619Y-104877810D01*
X20174857Y-104877810D01*
X20150666Y-104902000D01*
X20138571Y-104926190D01*
X20126476Y-104974571D01*
X20126476Y-105047143D01*
X20138571Y-105095524D01*
X20150666Y-105119714D01*
X20174857Y-105143905D01*
X20271619Y-105143905D01*
X20078095Y-105434190D02*
X19884571Y-105434190D01*
X19824095Y-105385810D02*
X19824095Y-104877810D01*
X19703143Y-105385810D02*
X19703143Y-104877810D01*
X19558000Y-105385810D01*
X19558000Y-104877810D01*
X27456190Y-99495429D02*
X27468285Y-99519619D01*
X27504571Y-99543810D01*
X27528761Y-99543810D01*
X27565047Y-99519619D01*
X27589238Y-99471238D01*
X27601333Y-99422857D01*
X27613428Y-99326095D01*
X27613428Y-99253524D01*
X27601333Y-99156762D01*
X27589238Y-99108381D01*
X27565047Y-99060000D01*
X27528761Y-99035810D01*
X27504571Y-99035810D01*
X27468285Y-99060000D01*
X27456190Y-99084190D01*
X27298952Y-99035810D02*
X27250571Y-99035810D01*
X27226380Y-99060000D01*
X27202190Y-99108381D01*
X27190095Y-99205143D01*
X27190095Y-99374476D01*
X27202190Y-99471238D01*
X27226380Y-99519619D01*
X27250571Y-99543810D01*
X27298952Y-99543810D01*
X27323142Y-99519619D01*
X27347333Y-99471238D01*
X27359428Y-99374476D01*
X27359428Y-99205143D01*
X27347333Y-99108381D01*
X27323142Y-99060000D01*
X27298952Y-99035810D01*
X27081238Y-99543810D02*
X27081238Y-99035810D01*
X26996571Y-99398667D01*
X26911904Y-99035810D01*
X26911904Y-99543810D01*
X26790952Y-99543810D02*
X26790952Y-99035810D01*
X26694190Y-99035810D01*
X26669999Y-99060000D01*
X26657904Y-99084190D01*
X26645809Y-99132571D01*
X26645809Y-99205143D01*
X26657904Y-99253524D01*
X26669999Y-99277714D01*
X26694190Y-99301905D01*
X26790952Y-99301905D01*
X26597428Y-99592190D02*
X26403904Y-99592190D01*
X26295047Y-99035810D02*
X26246666Y-99035810D01*
X26222475Y-99060000D01*
X26198285Y-99108381D01*
X26186190Y-99205143D01*
X26186190Y-99374476D01*
X26198285Y-99471238D01*
X26222475Y-99519619D01*
X26246666Y-99543810D01*
X26295047Y-99543810D01*
X26319237Y-99519619D01*
X26343428Y-99471238D01*
X26355523Y-99374476D01*
X26355523Y-99205143D01*
X26343428Y-99108381D01*
X26319237Y-99060000D01*
X26295047Y-99035810D01*
X26077333Y-99035810D02*
X26077333Y-99447048D01*
X26065238Y-99495429D01*
X26053142Y-99519619D01*
X26028952Y-99543810D01*
X25980571Y-99543810D01*
X25956380Y-99519619D01*
X25944285Y-99495429D01*
X25932190Y-99447048D01*
X25932190Y-99035810D01*
X25847524Y-99035810D02*
X25702381Y-99035810D01*
X25774952Y-99543810D02*
X25774952Y-99035810D01*
X25805190Y-105240667D02*
X25684238Y-105240667D01*
X25829381Y-105385810D02*
X25744714Y-104877810D01*
X25660047Y-105385810D01*
X25575381Y-105385810D02*
X25575381Y-104877810D01*
X25490714Y-105240667D01*
X25406047Y-104877810D01*
X25406047Y-105385810D01*
X25285095Y-105385810D02*
X25285095Y-104877810D01*
X25188333Y-104877810D01*
X25164142Y-104902000D01*
X25152047Y-104926190D01*
X25139952Y-104974571D01*
X25139952Y-105047143D01*
X25152047Y-105095524D01*
X25164142Y-105119714D01*
X25188333Y-105143905D01*
X25285095Y-105143905D01*
X25043190Y-104926190D02*
X25031095Y-104902000D01*
X25006904Y-104877810D01*
X24946428Y-104877810D01*
X24922238Y-104902000D01*
X24910142Y-104926190D01*
X24898047Y-104974571D01*
X24898047Y-105022952D01*
X24910142Y-105095524D01*
X25055285Y-105385810D01*
X24898047Y-105385810D01*
X24849666Y-105434190D02*
X24656142Y-105434190D01*
X24547285Y-104877810D02*
X24498904Y-104877810D01*
X24474713Y-104902000D01*
X24450523Y-104950381D01*
X24438428Y-105047143D01*
X24438428Y-105216476D01*
X24450523Y-105313238D01*
X24474713Y-105361619D01*
X24498904Y-105385810D01*
X24547285Y-105385810D01*
X24571475Y-105361619D01*
X24595666Y-105313238D01*
X24607761Y-105216476D01*
X24607761Y-105047143D01*
X24595666Y-104950381D01*
X24571475Y-104902000D01*
X24547285Y-104877810D01*
X24329571Y-104877810D02*
X24329571Y-105289048D01*
X24317476Y-105337429D01*
X24305380Y-105361619D01*
X24281190Y-105385810D01*
X24232809Y-105385810D01*
X24208618Y-105361619D01*
X24196523Y-105337429D01*
X24184428Y-105289048D01*
X24184428Y-104877810D01*
X24099762Y-104877810D02*
X23954619Y-104877810D01*
X24027190Y-105385810D02*
X24027190Y-104877810D01*
X25805190Y-45804667D02*
X25684238Y-45804667D01*
X25829381Y-45949810D02*
X25744714Y-45441810D01*
X25660047Y-45949810D01*
X25575381Y-45949810D02*
X25575381Y-45441810D01*
X25490714Y-45804667D01*
X25406047Y-45441810D01*
X25406047Y-45949810D01*
X25285095Y-45949810D02*
X25285095Y-45441810D01*
X25188333Y-45441810D01*
X25164142Y-45466000D01*
X25152047Y-45490190D01*
X25139952Y-45538571D01*
X25139952Y-45611143D01*
X25152047Y-45659524D01*
X25164142Y-45683714D01*
X25188333Y-45707905D01*
X25285095Y-45707905D01*
X25043190Y-45490190D02*
X25031095Y-45466000D01*
X25006904Y-45441810D01*
X24946428Y-45441810D01*
X24922238Y-45466000D01*
X24910142Y-45490190D01*
X24898047Y-45538571D01*
X24898047Y-45586952D01*
X24910142Y-45659524D01*
X25055285Y-45949810D01*
X24898047Y-45949810D01*
X24849666Y-45998190D02*
X24656142Y-45998190D01*
X24547285Y-45441810D02*
X24498904Y-45441810D01*
X24474713Y-45466000D01*
X24450523Y-45514381D01*
X24438428Y-45611143D01*
X24438428Y-45780476D01*
X24450523Y-45877238D01*
X24474713Y-45925619D01*
X24498904Y-45949810D01*
X24547285Y-45949810D01*
X24571475Y-45925619D01*
X24595666Y-45877238D01*
X24607761Y-45780476D01*
X24607761Y-45611143D01*
X24595666Y-45514381D01*
X24571475Y-45466000D01*
X24547285Y-45441810D01*
X24329571Y-45441810D02*
X24329571Y-45853048D01*
X24317476Y-45901429D01*
X24305380Y-45925619D01*
X24281190Y-45949810D01*
X24232809Y-45949810D01*
X24208618Y-45925619D01*
X24196523Y-45901429D01*
X24184428Y-45853048D01*
X24184428Y-45441810D01*
X24099762Y-45441810D02*
X23954619Y-45441810D01*
X24027190Y-45949810D02*
X24027190Y-45441810D01*
X27456190Y-40059429D02*
X27468285Y-40083619D01*
X27504571Y-40107810D01*
X27528761Y-40107810D01*
X27565047Y-40083619D01*
X27589238Y-40035238D01*
X27601333Y-39986857D01*
X27613428Y-39890095D01*
X27613428Y-39817524D01*
X27601333Y-39720762D01*
X27589238Y-39672381D01*
X27565047Y-39624000D01*
X27528761Y-39599810D01*
X27504571Y-39599810D01*
X27468285Y-39624000D01*
X27456190Y-39648190D01*
X27298952Y-39599810D02*
X27250571Y-39599810D01*
X27226380Y-39624000D01*
X27202190Y-39672381D01*
X27190095Y-39769143D01*
X27190095Y-39938476D01*
X27202190Y-40035238D01*
X27226380Y-40083619D01*
X27250571Y-40107810D01*
X27298952Y-40107810D01*
X27323142Y-40083619D01*
X27347333Y-40035238D01*
X27359428Y-39938476D01*
X27359428Y-39769143D01*
X27347333Y-39672381D01*
X27323142Y-39624000D01*
X27298952Y-39599810D01*
X27081238Y-40107810D02*
X27081238Y-39599810D01*
X26996571Y-39962667D01*
X26911904Y-39599810D01*
X26911904Y-40107810D01*
X26790952Y-40107810D02*
X26790952Y-39599810D01*
X26694190Y-39599810D01*
X26669999Y-39624000D01*
X26657904Y-39648190D01*
X26645809Y-39696571D01*
X26645809Y-39769143D01*
X26657904Y-39817524D01*
X26669999Y-39841714D01*
X26694190Y-39865905D01*
X26790952Y-39865905D01*
X26597428Y-40156190D02*
X26403904Y-40156190D01*
X26295047Y-39599810D02*
X26246666Y-39599810D01*
X26222475Y-39624000D01*
X26198285Y-39672381D01*
X26186190Y-39769143D01*
X26186190Y-39938476D01*
X26198285Y-40035238D01*
X26222475Y-40083619D01*
X26246666Y-40107810D01*
X26295047Y-40107810D01*
X26319237Y-40083619D01*
X26343428Y-40035238D01*
X26355523Y-39938476D01*
X26355523Y-39769143D01*
X26343428Y-39672381D01*
X26319237Y-39624000D01*
X26295047Y-39599810D01*
X26077333Y-39599810D02*
X26077333Y-40011048D01*
X26065238Y-40059429D01*
X26053142Y-40083619D01*
X26028952Y-40107810D01*
X25980571Y-40107810D01*
X25956380Y-40083619D01*
X25944285Y-40059429D01*
X25932190Y-40011048D01*
X25932190Y-39599810D01*
X25847524Y-39599810D02*
X25702381Y-39599810D01*
X25774952Y-40107810D02*
X25774952Y-39599810D01*
X20936857Y-45901429D02*
X20948952Y-45925619D01*
X20985238Y-45949810D01*
X21009428Y-45949810D01*
X21045714Y-45925619D01*
X21069905Y-45877238D01*
X21082000Y-45828857D01*
X21094095Y-45732095D01*
X21094095Y-45659524D01*
X21082000Y-45562762D01*
X21069905Y-45514381D01*
X21045714Y-45466000D01*
X21009428Y-45441810D01*
X20985238Y-45441810D01*
X20948952Y-45466000D01*
X20936857Y-45490190D01*
X20779619Y-45441810D02*
X20731238Y-45441810D01*
X20707047Y-45466000D01*
X20682857Y-45514381D01*
X20670762Y-45611143D01*
X20670762Y-45780476D01*
X20682857Y-45877238D01*
X20707047Y-45925619D01*
X20731238Y-45949810D01*
X20779619Y-45949810D01*
X20803809Y-45925619D01*
X20828000Y-45877238D01*
X20840095Y-45780476D01*
X20840095Y-45611143D01*
X20828000Y-45514381D01*
X20803809Y-45466000D01*
X20779619Y-45441810D01*
X20561905Y-45949810D02*
X20561905Y-45441810D01*
X20477238Y-45804667D01*
X20392571Y-45441810D01*
X20392571Y-45949810D01*
X20271619Y-45949810D02*
X20271619Y-45441810D01*
X20174857Y-45441810D01*
X20150666Y-45466000D01*
X20138571Y-45490190D01*
X20126476Y-45538571D01*
X20126476Y-45611143D01*
X20138571Y-45659524D01*
X20150666Y-45683714D01*
X20174857Y-45707905D01*
X20271619Y-45707905D01*
X20078095Y-45998190D02*
X19884571Y-45998190D01*
X19824095Y-45949810D02*
X19824095Y-45441810D01*
X19703143Y-45949810D02*
X19703143Y-45441810D01*
X19558000Y-45949810D01*
X19558000Y-45441810D01*
X35414857Y-53170667D02*
X35293905Y-53170667D01*
X35439048Y-53315810D02*
X35354381Y-52807810D01*
X35269714Y-53315810D01*
X35185048Y-53315810D02*
X35185048Y-52807810D01*
X35100381Y-53170667D01*
X35015714Y-52807810D01*
X35015714Y-53315810D01*
X34894762Y-53315810D02*
X34894762Y-52807810D01*
X34798000Y-52807810D01*
X34773809Y-52832000D01*
X34761714Y-52856190D01*
X34749619Y-52904571D01*
X34749619Y-52977143D01*
X34761714Y-53025524D01*
X34773809Y-53049714D01*
X34798000Y-53073905D01*
X34894762Y-53073905D01*
X34652857Y-52856190D02*
X34640762Y-52832000D01*
X34616571Y-52807810D01*
X34556095Y-52807810D01*
X34531905Y-52832000D01*
X34519809Y-52856190D01*
X34507714Y-52904571D01*
X34507714Y-52952952D01*
X34519809Y-53025524D01*
X34664952Y-53315810D01*
X34507714Y-53315810D01*
X34459333Y-53364190D02*
X34265809Y-53364190D01*
X34205333Y-53315810D02*
X34205333Y-52807810D01*
X34084381Y-53315810D02*
X34084381Y-52807810D01*
X33939238Y-53315810D01*
X33939238Y-52807810D01*
X26059190Y-65870667D02*
X25938238Y-65870667D01*
X26083381Y-66015810D02*
X25998714Y-65507810D01*
X25914047Y-66015810D01*
X25829381Y-66015810D02*
X25829381Y-65507810D01*
X25744714Y-65870667D01*
X25660047Y-65507810D01*
X25660047Y-66015810D01*
X25539095Y-66015810D02*
X25539095Y-65507810D01*
X25442333Y-65507810D01*
X25418142Y-65532000D01*
X25406047Y-65556190D01*
X25393952Y-65604571D01*
X25393952Y-65677143D01*
X25406047Y-65725524D01*
X25418142Y-65749714D01*
X25442333Y-65773905D01*
X25539095Y-65773905D01*
X25152047Y-66015810D02*
X25297190Y-66015810D01*
X25224619Y-66015810D02*
X25224619Y-65507810D01*
X25248809Y-65580381D01*
X25273000Y-65628762D01*
X25297190Y-65652952D01*
X25103666Y-66064190D02*
X24910142Y-66064190D01*
X24801285Y-65507810D02*
X24752904Y-65507810D01*
X24728713Y-65532000D01*
X24704523Y-65580381D01*
X24692428Y-65677143D01*
X24692428Y-65846476D01*
X24704523Y-65943238D01*
X24728713Y-65991619D01*
X24752904Y-66015810D01*
X24801285Y-66015810D01*
X24825475Y-65991619D01*
X24849666Y-65943238D01*
X24861761Y-65846476D01*
X24861761Y-65677143D01*
X24849666Y-65580381D01*
X24825475Y-65532000D01*
X24801285Y-65507810D01*
X24583571Y-65507810D02*
X24583571Y-65919048D01*
X24571476Y-65967429D01*
X24559380Y-65991619D01*
X24535190Y-66015810D01*
X24486809Y-66015810D01*
X24462618Y-65991619D01*
X24450523Y-65967429D01*
X24438428Y-65919048D01*
X24438428Y-65507810D01*
X24353762Y-65507810D02*
X24208619Y-65507810D01*
X24281190Y-66015810D02*
X24281190Y-65507810D01*
X29318857Y-65870667D02*
X29197905Y-65870667D01*
X29343048Y-66015810D02*
X29258381Y-65507810D01*
X29173714Y-66015810D01*
X29089048Y-66015810D02*
X29089048Y-65507810D01*
X29004381Y-65870667D01*
X28919714Y-65507810D01*
X28919714Y-66015810D01*
X28798762Y-66015810D02*
X28798762Y-65507810D01*
X28702000Y-65507810D01*
X28677809Y-65532000D01*
X28665714Y-65556190D01*
X28653619Y-65604571D01*
X28653619Y-65677143D01*
X28665714Y-65725524D01*
X28677809Y-65749714D01*
X28702000Y-65773905D01*
X28798762Y-65773905D01*
X28411714Y-66015810D02*
X28556857Y-66015810D01*
X28484286Y-66015810D02*
X28484286Y-65507810D01*
X28508476Y-65580381D01*
X28532667Y-65628762D01*
X28556857Y-65652952D01*
X28363333Y-66064190D02*
X28169809Y-66064190D01*
X28109333Y-66015810D02*
X28109333Y-65507810D01*
X27988381Y-66015810D02*
X27988381Y-65507810D01*
X27843238Y-66015810D01*
X27843238Y-65507810D01*
X35402762Y-63348810D02*
X35402762Y-62840810D01*
X35318095Y-63203667D01*
X35233428Y-62840810D01*
X35233428Y-63348810D01*
X35112476Y-63348810D02*
X35112476Y-62840810D01*
X34846381Y-63300429D02*
X34858476Y-63324619D01*
X34894762Y-63348810D01*
X34918952Y-63348810D01*
X34955238Y-63324619D01*
X34979429Y-63276238D01*
X34991524Y-63227857D01*
X35003619Y-63131095D01*
X35003619Y-63058524D01*
X34991524Y-62961762D01*
X34979429Y-62913381D01*
X34955238Y-62865000D01*
X34918952Y-62840810D01*
X34894762Y-62840810D01*
X34858476Y-62865000D01*
X34846381Y-62889190D01*
X34798000Y-63397190D02*
X34604476Y-63397190D01*
X34495619Y-62840810D02*
X34447238Y-62840810D01*
X34423047Y-62865000D01*
X34398857Y-62913381D01*
X34386762Y-63010143D01*
X34386762Y-63179476D01*
X34398857Y-63276238D01*
X34423047Y-63324619D01*
X34447238Y-63348810D01*
X34495619Y-63348810D01*
X34519809Y-63324619D01*
X34544000Y-63276238D01*
X34556095Y-63179476D01*
X34556095Y-63010143D01*
X34544000Y-62913381D01*
X34519809Y-62865000D01*
X34495619Y-62840810D01*
X34277905Y-62840810D02*
X34277905Y-63252048D01*
X34265810Y-63300429D01*
X34253714Y-63324619D01*
X34229524Y-63348810D01*
X34181143Y-63348810D01*
X34156952Y-63324619D01*
X34144857Y-63300429D01*
X34132762Y-63252048D01*
X34132762Y-62840810D01*
X34048096Y-62840810D02*
X33902953Y-62840810D01*
X33975524Y-63348810D02*
X33975524Y-62840810D01*
D12*
X51943000Y-118237000D02*
X51943000Y-115697000D01*
X52223000Y-121057000D02*
X52223000Y-119507000D01*
X51943000Y-118237000D02*
X49403000Y-118237000D01*
X49123000Y-119507000D02*
X49123000Y-121057000D01*
X49123000Y-121057000D02*
X52223000Y-121057000D01*
X49403000Y-118237000D02*
X49403000Y-115697000D01*
X49403000Y-115697000D02*
X51943000Y-115697000D01*
X49403000Y-111252000D02*
X49403000Y-106172000D01*
X49403000Y-106172000D02*
X51943000Y-106172000D01*
X51943000Y-106172000D02*
X51943000Y-111252000D01*
X52223000Y-114072000D02*
X52223000Y-112522000D01*
X51943000Y-111252000D02*
X49403000Y-111252000D01*
X49123000Y-112522000D02*
X49123000Y-114072000D01*
X49123000Y-114072000D02*
X52223000Y-114072000D01*
D13*
X78153000Y-90854000D02*
G75*
G03X78153000Y-90854000I-2250000J0D01*
G01*
X57553000Y-119544000D02*
G75*
G03X57553000Y-119544000I-2250000J0D01*
G01*
D12*
X51943000Y-58801000D02*
X51943000Y-56261000D01*
X52223000Y-61621000D02*
X52223000Y-60071000D01*
X51943000Y-58801000D02*
X49403000Y-58801000D01*
X49123000Y-60071000D02*
X49123000Y-61621000D01*
X49123000Y-61621000D02*
X52223000Y-61621000D01*
X49403000Y-58801000D02*
X49403000Y-56261000D01*
X49403000Y-56261000D02*
X51943000Y-56261000D01*
X49403000Y-51816000D02*
X49403000Y-46736000D01*
X49403000Y-46736000D02*
X51943000Y-46736000D01*
X51943000Y-46736000D02*
X51943000Y-51816000D01*
X52223000Y-54636000D02*
X52223000Y-53086000D01*
X51943000Y-51816000D02*
X49403000Y-51816000D01*
X49123000Y-53086000D02*
X49123000Y-54636000D01*
X49123000Y-54636000D02*
X52223000Y-54636000D01*
D13*
X78153000Y-31418000D02*
G75*
G03X78153000Y-31418000I-2250000J0D01*
G01*
X57553000Y-60108000D02*
G75*
G03X57553000Y-60108000I-2250000J0D01*
G01*
D12*
X16383000Y-118237000D02*
X16383000Y-115697000D01*
X16663000Y-121057000D02*
X16663000Y-119507000D01*
X16383000Y-118237000D02*
X13843000Y-118237000D01*
X13563000Y-119507000D02*
X13563000Y-121057000D01*
X13563000Y-121057000D02*
X16663000Y-121057000D01*
X13843000Y-118237000D02*
X13843000Y-115697000D01*
X13843000Y-115697000D02*
X16383000Y-115697000D01*
X13843000Y-111252000D02*
X13843000Y-106172000D01*
X13843000Y-106172000D02*
X16383000Y-106172000D01*
X16383000Y-106172000D02*
X16383000Y-111252000D01*
X16663000Y-114072000D02*
X16663000Y-112522000D01*
X16383000Y-111252000D02*
X13843000Y-111252000D01*
X13563000Y-112522000D02*
X13563000Y-114072000D01*
X13563000Y-114072000D02*
X16663000Y-114072000D01*
D13*
X42593000Y-90854000D02*
G75*
G03X42593000Y-90854000I-2250000J0D01*
G01*
X21993000Y-119544000D02*
G75*
G03X21993000Y-119544000I-2250000J0D01*
G01*
X42593000Y-31418000D02*
G75*
G03X42593000Y-31418000I-2250000J0D01*
G01*
X21993000Y-60108000D02*
G75*
G03X21993000Y-60108000I-2250000J0D01*
G01*
D12*
X13843000Y-51816000D02*
X13843000Y-46736000D01*
X13843000Y-46736000D02*
X16383000Y-46736000D01*
X16383000Y-46736000D02*
X16383000Y-51816000D01*
X16663000Y-54636000D02*
X16663000Y-53086000D01*
X16383000Y-51816000D02*
X13843000Y-51816000D01*
X13563000Y-53086000D02*
X13563000Y-54636000D01*
X13563000Y-54636000D02*
X16663000Y-54636000D01*
X16383000Y-58801000D02*
X16383000Y-56261000D01*
X16663000Y-61621000D02*
X16663000Y-60071000D01*
X16383000Y-58801000D02*
X13843000Y-58801000D01*
X13563000Y-60071000D02*
X13563000Y-61621000D01*
X13563000Y-61621000D02*
X16663000Y-61621000D01*
X13843000Y-58801000D02*
X13843000Y-56261000D01*
X13843000Y-56261000D02*
X16383000Y-56261000D01*
D14*
X50809676Y-122149810D02*
X50809676Y-121641810D01*
X50712914Y-121641810D01*
X50688723Y-121666000D01*
X50676628Y-121690190D01*
X50664533Y-121738571D01*
X50664533Y-121811143D01*
X50676628Y-121859524D01*
X50688723Y-121883714D01*
X50712914Y-121907905D01*
X50809676Y-121907905D01*
X50567771Y-121690190D02*
X50555676Y-121666000D01*
X50531485Y-121641810D01*
X50471009Y-121641810D01*
X50446819Y-121666000D01*
X50434723Y-121690190D01*
X50422628Y-121738571D01*
X50422628Y-121786952D01*
X50434723Y-121859524D01*
X50579866Y-122149810D01*
X50422628Y-122149810D01*
X67158809Y-110846810D02*
X67098333Y-111354810D01*
X67049952Y-110991952D01*
X67001571Y-111354810D01*
X66941095Y-110846810D01*
X66808047Y-111064524D02*
X66832238Y-111040333D01*
X66844333Y-111016143D01*
X66856428Y-110967762D01*
X66856428Y-110943571D01*
X66844333Y-110895190D01*
X66832238Y-110871000D01*
X66808047Y-110846810D01*
X66759666Y-110846810D01*
X66735476Y-110871000D01*
X66723380Y-110895190D01*
X66711285Y-110943571D01*
X66711285Y-110967762D01*
X66723380Y-111016143D01*
X66735476Y-111040333D01*
X66759666Y-111064524D01*
X66808047Y-111064524D01*
X66832238Y-111088714D01*
X66844333Y-111112905D01*
X66856428Y-111161286D01*
X66856428Y-111258048D01*
X66844333Y-111306429D01*
X66832238Y-111330619D01*
X66808047Y-111354810D01*
X66759666Y-111354810D01*
X66735476Y-111330619D01*
X66723380Y-111306429D01*
X66711285Y-111258048D01*
X66711285Y-111161286D01*
X66723380Y-111112905D01*
X66735476Y-111088714D01*
X66759666Y-111064524D01*
X64237809Y-121133810D02*
X64177333Y-121641810D01*
X64128952Y-121278952D01*
X64080571Y-121641810D01*
X64020095Y-121133810D01*
X63947523Y-121133810D02*
X63778190Y-121133810D01*
X63887047Y-121641810D01*
X60935809Y-121133810D02*
X60875333Y-121641810D01*
X60826952Y-121278952D01*
X60778571Y-121641810D01*
X60718095Y-121133810D01*
X60512476Y-121133810D02*
X60560857Y-121133810D01*
X60585047Y-121158000D01*
X60597142Y-121182190D01*
X60621333Y-121254762D01*
X60633428Y-121351524D01*
X60633428Y-121545048D01*
X60621333Y-121593429D01*
X60609238Y-121617619D01*
X60585047Y-121641810D01*
X60536666Y-121641810D01*
X60512476Y-121617619D01*
X60500380Y-121593429D01*
X60488285Y-121545048D01*
X60488285Y-121424095D01*
X60500380Y-121375714D01*
X60512476Y-121351524D01*
X60536666Y-121327333D01*
X60585047Y-121327333D01*
X60609238Y-121351524D01*
X60621333Y-121375714D01*
X60633428Y-121424095D01*
X60554809Y-106401810D02*
X60494333Y-106909810D01*
X60445952Y-106546952D01*
X60397571Y-106909810D01*
X60337095Y-106401810D01*
X60119380Y-106401810D02*
X60240333Y-106401810D01*
X60252428Y-106643714D01*
X60240333Y-106619524D01*
X60216142Y-106595333D01*
X60155666Y-106595333D01*
X60131476Y-106619524D01*
X60119380Y-106643714D01*
X60107285Y-106692095D01*
X60107285Y-106813048D01*
X60119380Y-106861429D01*
X60131476Y-106885619D01*
X60155666Y-106909810D01*
X60216142Y-106909810D01*
X60240333Y-106885619D01*
X60252428Y-106861429D01*
X62459809Y-100559810D02*
X62399333Y-101067810D01*
X62350952Y-100704952D01*
X62302571Y-101067810D01*
X62242095Y-100559810D01*
X62036476Y-100729143D02*
X62036476Y-101067810D01*
X62096952Y-100535619D02*
X62157428Y-100898476D01*
X62000190Y-100898476D01*
X55982809Y-106147810D02*
X55922333Y-106655810D01*
X55873952Y-106292952D01*
X55825571Y-106655810D01*
X55765095Y-106147810D01*
X55680428Y-106196190D02*
X55668333Y-106172000D01*
X55644142Y-106147810D01*
X55583666Y-106147810D01*
X55559476Y-106172000D01*
X55547380Y-106196190D01*
X55535285Y-106244571D01*
X55535285Y-106292952D01*
X55547380Y-106365524D01*
X55692523Y-106655810D01*
X55535285Y-106655810D01*
X70460809Y-118720810D02*
X70400333Y-119228810D01*
X70351952Y-118865952D01*
X70303571Y-119228810D01*
X70243095Y-118720810D01*
X70013285Y-119228810D02*
X70158428Y-119228810D01*
X70085857Y-119228810D02*
X70085857Y-118720810D01*
X70110047Y-118793381D01*
X70134238Y-118841762D01*
X70158428Y-118865952D01*
X50987476Y-105385810D02*
X50987476Y-104877810D01*
X50890714Y-104877810D01*
X50866523Y-104902000D01*
X50854428Y-104926190D01*
X50842333Y-104974571D01*
X50842333Y-105047143D01*
X50854428Y-105095524D01*
X50866523Y-105119714D01*
X50890714Y-105143905D01*
X50987476Y-105143905D01*
X50600428Y-105385810D02*
X50745571Y-105385810D01*
X50673000Y-105385810D02*
X50673000Y-104877810D01*
X50697190Y-104950381D01*
X50721381Y-104998762D01*
X50745571Y-105022952D01*
X50809676Y-62713810D02*
X50809676Y-62205810D01*
X50712914Y-62205810D01*
X50688723Y-62230000D01*
X50676628Y-62254190D01*
X50664533Y-62302571D01*
X50664533Y-62375143D01*
X50676628Y-62423524D01*
X50688723Y-62447714D01*
X50712914Y-62471905D01*
X50809676Y-62471905D01*
X50567771Y-62254190D02*
X50555676Y-62230000D01*
X50531485Y-62205810D01*
X50471009Y-62205810D01*
X50446819Y-62230000D01*
X50434723Y-62254190D01*
X50422628Y-62302571D01*
X50422628Y-62350952D01*
X50434723Y-62423524D01*
X50579866Y-62713810D01*
X50422628Y-62713810D01*
X67158809Y-51410810D02*
X67098333Y-51918810D01*
X67049952Y-51555952D01*
X67001571Y-51918810D01*
X66941095Y-51410810D01*
X66808047Y-51628524D02*
X66832238Y-51604333D01*
X66844333Y-51580143D01*
X66856428Y-51531762D01*
X66856428Y-51507571D01*
X66844333Y-51459190D01*
X66832238Y-51435000D01*
X66808047Y-51410810D01*
X66759666Y-51410810D01*
X66735476Y-51435000D01*
X66723380Y-51459190D01*
X66711285Y-51507571D01*
X66711285Y-51531762D01*
X66723380Y-51580143D01*
X66735476Y-51604333D01*
X66759666Y-51628524D01*
X66808047Y-51628524D01*
X66832238Y-51652714D01*
X66844333Y-51676905D01*
X66856428Y-51725286D01*
X66856428Y-51822048D01*
X66844333Y-51870429D01*
X66832238Y-51894619D01*
X66808047Y-51918810D01*
X66759666Y-51918810D01*
X66735476Y-51894619D01*
X66723380Y-51870429D01*
X66711285Y-51822048D01*
X66711285Y-51725286D01*
X66723380Y-51676905D01*
X66735476Y-51652714D01*
X66759666Y-51628524D01*
X64237809Y-61697810D02*
X64177333Y-62205810D01*
X64128952Y-61842952D01*
X64080571Y-62205810D01*
X64020095Y-61697810D01*
X63947523Y-61697810D02*
X63778190Y-61697810D01*
X63887047Y-62205810D01*
X60935809Y-61697810D02*
X60875333Y-62205810D01*
X60826952Y-61842952D01*
X60778571Y-62205810D01*
X60718095Y-61697810D01*
X60512476Y-61697810D02*
X60560857Y-61697810D01*
X60585047Y-61722000D01*
X60597142Y-61746190D01*
X60621333Y-61818762D01*
X60633428Y-61915524D01*
X60633428Y-62109048D01*
X60621333Y-62157429D01*
X60609238Y-62181619D01*
X60585047Y-62205810D01*
X60536666Y-62205810D01*
X60512476Y-62181619D01*
X60500380Y-62157429D01*
X60488285Y-62109048D01*
X60488285Y-61988095D01*
X60500380Y-61939714D01*
X60512476Y-61915524D01*
X60536666Y-61891333D01*
X60585047Y-61891333D01*
X60609238Y-61915524D01*
X60621333Y-61939714D01*
X60633428Y-61988095D01*
X60554809Y-46965810D02*
X60494333Y-47473810D01*
X60445952Y-47110952D01*
X60397571Y-47473810D01*
X60337095Y-46965810D01*
X60119380Y-46965810D02*
X60240333Y-46965810D01*
X60252428Y-47207714D01*
X60240333Y-47183524D01*
X60216142Y-47159333D01*
X60155666Y-47159333D01*
X60131476Y-47183524D01*
X60119380Y-47207714D01*
X60107285Y-47256095D01*
X60107285Y-47377048D01*
X60119380Y-47425429D01*
X60131476Y-47449619D01*
X60155666Y-47473810D01*
X60216142Y-47473810D01*
X60240333Y-47449619D01*
X60252428Y-47425429D01*
X62459809Y-41123810D02*
X62399333Y-41631810D01*
X62350952Y-41268952D01*
X62302571Y-41631810D01*
X62242095Y-41123810D01*
X62036476Y-41293143D02*
X62036476Y-41631810D01*
X62096952Y-41099619D02*
X62157428Y-41462476D01*
X62000190Y-41462476D01*
X55982809Y-46711810D02*
X55922333Y-47219810D01*
X55873952Y-46856952D01*
X55825571Y-47219810D01*
X55765095Y-46711810D01*
X55680428Y-46760190D02*
X55668333Y-46736000D01*
X55644142Y-46711810D01*
X55583666Y-46711810D01*
X55559476Y-46736000D01*
X55547380Y-46760190D01*
X55535285Y-46808571D01*
X55535285Y-46856952D01*
X55547380Y-46929524D01*
X55692523Y-47219810D01*
X55535285Y-47219810D01*
X70460809Y-59284810D02*
X70400333Y-59792810D01*
X70351952Y-59429952D01*
X70303571Y-59792810D01*
X70243095Y-59284810D01*
X70013285Y-59792810D02*
X70158428Y-59792810D01*
X70085857Y-59792810D02*
X70085857Y-59284810D01*
X70110047Y-59357381D01*
X70134238Y-59405762D01*
X70158428Y-59429952D01*
X50987476Y-45949810D02*
X50987476Y-45441810D01*
X50890714Y-45441810D01*
X50866523Y-45466000D01*
X50854428Y-45490190D01*
X50842333Y-45538571D01*
X50842333Y-45611143D01*
X50854428Y-45659524D01*
X50866523Y-45683714D01*
X50890714Y-45707905D01*
X50987476Y-45707905D01*
X50600428Y-45949810D02*
X50745571Y-45949810D01*
X50673000Y-45949810D02*
X50673000Y-45441810D01*
X50697190Y-45514381D01*
X50721381Y-45562762D01*
X50745571Y-45586952D01*
X15249676Y-122149810D02*
X15249676Y-121641810D01*
X15152914Y-121641810D01*
X15128723Y-121666000D01*
X15116628Y-121690190D01*
X15104533Y-121738571D01*
X15104533Y-121811143D01*
X15116628Y-121859524D01*
X15128723Y-121883714D01*
X15152914Y-121907905D01*
X15249676Y-121907905D01*
X15007771Y-121690190D02*
X14995676Y-121666000D01*
X14971485Y-121641810D01*
X14911009Y-121641810D01*
X14886819Y-121666000D01*
X14874723Y-121690190D01*
X14862628Y-121738571D01*
X14862628Y-121786952D01*
X14874723Y-121859524D01*
X15019866Y-122149810D01*
X14862628Y-122149810D01*
X31598809Y-110846810D02*
X31538333Y-111354810D01*
X31489952Y-110991952D01*
X31441571Y-111354810D01*
X31381095Y-110846810D01*
X31248047Y-111064524D02*
X31272238Y-111040333D01*
X31284333Y-111016143D01*
X31296428Y-110967762D01*
X31296428Y-110943571D01*
X31284333Y-110895190D01*
X31272238Y-110871000D01*
X31248047Y-110846810D01*
X31199666Y-110846810D01*
X31175476Y-110871000D01*
X31163380Y-110895190D01*
X31151285Y-110943571D01*
X31151285Y-110967762D01*
X31163380Y-111016143D01*
X31175476Y-111040333D01*
X31199666Y-111064524D01*
X31248047Y-111064524D01*
X31272238Y-111088714D01*
X31284333Y-111112905D01*
X31296428Y-111161286D01*
X31296428Y-111258048D01*
X31284333Y-111306429D01*
X31272238Y-111330619D01*
X31248047Y-111354810D01*
X31199666Y-111354810D01*
X31175476Y-111330619D01*
X31163380Y-111306429D01*
X31151285Y-111258048D01*
X31151285Y-111161286D01*
X31163380Y-111112905D01*
X31175476Y-111088714D01*
X31199666Y-111064524D01*
X28677809Y-121133810D02*
X28617333Y-121641810D01*
X28568952Y-121278952D01*
X28520571Y-121641810D01*
X28460095Y-121133810D01*
X28387523Y-121133810D02*
X28218190Y-121133810D01*
X28327047Y-121641810D01*
X25375809Y-121133810D02*
X25315333Y-121641810D01*
X25266952Y-121278952D01*
X25218571Y-121641810D01*
X25158095Y-121133810D01*
X24952476Y-121133810D02*
X25000857Y-121133810D01*
X25025047Y-121158000D01*
X25037142Y-121182190D01*
X25061333Y-121254762D01*
X25073428Y-121351524D01*
X25073428Y-121545048D01*
X25061333Y-121593429D01*
X25049238Y-121617619D01*
X25025047Y-121641810D01*
X24976666Y-121641810D01*
X24952476Y-121617619D01*
X24940380Y-121593429D01*
X24928285Y-121545048D01*
X24928285Y-121424095D01*
X24940380Y-121375714D01*
X24952476Y-121351524D01*
X24976666Y-121327333D01*
X25025047Y-121327333D01*
X25049238Y-121351524D01*
X25061333Y-121375714D01*
X25073428Y-121424095D01*
X24994809Y-106401810D02*
X24934333Y-106909810D01*
X24885952Y-106546952D01*
X24837571Y-106909810D01*
X24777095Y-106401810D01*
X24559380Y-106401810D02*
X24680333Y-106401810D01*
X24692428Y-106643714D01*
X24680333Y-106619524D01*
X24656142Y-106595333D01*
X24595666Y-106595333D01*
X24571476Y-106619524D01*
X24559380Y-106643714D01*
X24547285Y-106692095D01*
X24547285Y-106813048D01*
X24559380Y-106861429D01*
X24571476Y-106885619D01*
X24595666Y-106909810D01*
X24656142Y-106909810D01*
X24680333Y-106885619D01*
X24692428Y-106861429D01*
X26899809Y-100559810D02*
X26839333Y-101067810D01*
X26790952Y-100704952D01*
X26742571Y-101067810D01*
X26682095Y-100559810D01*
X26476476Y-100729143D02*
X26476476Y-101067810D01*
X26536952Y-100535619D02*
X26597428Y-100898476D01*
X26440190Y-100898476D01*
X20422809Y-106147810D02*
X20362333Y-106655810D01*
X20313952Y-106292952D01*
X20265571Y-106655810D01*
X20205095Y-106147810D01*
X20120428Y-106196190D02*
X20108333Y-106172000D01*
X20084142Y-106147810D01*
X20023666Y-106147810D01*
X19999476Y-106172000D01*
X19987380Y-106196190D01*
X19975285Y-106244571D01*
X19975285Y-106292952D01*
X19987380Y-106365524D01*
X20132523Y-106655810D01*
X19975285Y-106655810D01*
X34900809Y-118720810D02*
X34840333Y-119228810D01*
X34791952Y-118865952D01*
X34743571Y-119228810D01*
X34683095Y-118720810D01*
X34453285Y-119228810D02*
X34598428Y-119228810D01*
X34525857Y-119228810D02*
X34525857Y-118720810D01*
X34550047Y-118793381D01*
X34574238Y-118841762D01*
X34598428Y-118865952D01*
X15427476Y-105385810D02*
X15427476Y-104877810D01*
X15330714Y-104877810D01*
X15306523Y-104902000D01*
X15294428Y-104926190D01*
X15282333Y-104974571D01*
X15282333Y-105047143D01*
X15294428Y-105095524D01*
X15306523Y-105119714D01*
X15330714Y-105143905D01*
X15427476Y-105143905D01*
X15040428Y-105385810D02*
X15185571Y-105385810D01*
X15113000Y-105385810D02*
X15113000Y-104877810D01*
X15137190Y-104950381D01*
X15161381Y-104998762D01*
X15185571Y-105022952D01*
X15427476Y-45949810D02*
X15427476Y-45441810D01*
X15330714Y-45441810D01*
X15306523Y-45466000D01*
X15294428Y-45490190D01*
X15282333Y-45538571D01*
X15282333Y-45611143D01*
X15294428Y-45659524D01*
X15306523Y-45683714D01*
X15330714Y-45707905D01*
X15427476Y-45707905D01*
X15040428Y-45949810D02*
X15185571Y-45949810D01*
X15113000Y-45949810D02*
X15113000Y-45441810D01*
X15137190Y-45514381D01*
X15161381Y-45562762D01*
X15185571Y-45586952D01*
X34900809Y-59284810D02*
X34840333Y-59792810D01*
X34791952Y-59429952D01*
X34743571Y-59792810D01*
X34683095Y-59284810D01*
X34453285Y-59792810D02*
X34598428Y-59792810D01*
X34525857Y-59792810D02*
X34525857Y-59284810D01*
X34550047Y-59357381D01*
X34574238Y-59405762D01*
X34598428Y-59429952D01*
X20422809Y-46711810D02*
X20362333Y-47219810D01*
X20313952Y-46856952D01*
X20265571Y-47219810D01*
X20205095Y-46711810D01*
X20120428Y-46760190D02*
X20108333Y-46736000D01*
X20084142Y-46711810D01*
X20023666Y-46711810D01*
X19999476Y-46736000D01*
X19987380Y-46760190D01*
X19975285Y-46808571D01*
X19975285Y-46856952D01*
X19987380Y-46929524D01*
X20132523Y-47219810D01*
X19975285Y-47219810D01*
X26899809Y-41123810D02*
X26839333Y-41631810D01*
X26790952Y-41268952D01*
X26742571Y-41631810D01*
X26682095Y-41123810D01*
X26476476Y-41293143D02*
X26476476Y-41631810D01*
X26536952Y-41099619D02*
X26597428Y-41462476D01*
X26440190Y-41462476D01*
X24994809Y-46965810D02*
X24934333Y-47473810D01*
X24885952Y-47110952D01*
X24837571Y-47473810D01*
X24777095Y-46965810D01*
X24559380Y-46965810D02*
X24680333Y-46965810D01*
X24692428Y-47207714D01*
X24680333Y-47183524D01*
X24656142Y-47159333D01*
X24595666Y-47159333D01*
X24571476Y-47183524D01*
X24559380Y-47207714D01*
X24547285Y-47256095D01*
X24547285Y-47377048D01*
X24559380Y-47425429D01*
X24571476Y-47449619D01*
X24595666Y-47473810D01*
X24656142Y-47473810D01*
X24680333Y-47449619D01*
X24692428Y-47425429D01*
X25375809Y-61697810D02*
X25315333Y-62205810D01*
X25266952Y-61842952D01*
X25218571Y-62205810D01*
X25158095Y-61697810D01*
X24952476Y-61697810D02*
X25000857Y-61697810D01*
X25025047Y-61722000D01*
X25037142Y-61746190D01*
X25061333Y-61818762D01*
X25073428Y-61915524D01*
X25073428Y-62109048D01*
X25061333Y-62157429D01*
X25049238Y-62181619D01*
X25025047Y-62205810D01*
X24976666Y-62205810D01*
X24952476Y-62181619D01*
X24940380Y-62157429D01*
X24928285Y-62109048D01*
X24928285Y-61988095D01*
X24940380Y-61939714D01*
X24952476Y-61915524D01*
X24976666Y-61891333D01*
X25025047Y-61891333D01*
X25049238Y-61915524D01*
X25061333Y-61939714D01*
X25073428Y-61988095D01*
X28677809Y-61697810D02*
X28617333Y-62205810D01*
X28568952Y-61842952D01*
X28520571Y-62205810D01*
X28460095Y-61697810D01*
X28387523Y-61697810D02*
X28218190Y-61697810D01*
X28327047Y-62205810D01*
X31598809Y-51410810D02*
X31538333Y-51918810D01*
X31489952Y-51555952D01*
X31441571Y-51918810D01*
X31381095Y-51410810D01*
X31248047Y-51628524D02*
X31272238Y-51604333D01*
X31284333Y-51580143D01*
X31296428Y-51531762D01*
X31296428Y-51507571D01*
X31284333Y-51459190D01*
X31272238Y-51435000D01*
X31248047Y-51410810D01*
X31199666Y-51410810D01*
X31175476Y-51435000D01*
X31163380Y-51459190D01*
X31151285Y-51507571D01*
X31151285Y-51531762D01*
X31163380Y-51580143D01*
X31175476Y-51604333D01*
X31199666Y-51628524D01*
X31248047Y-51628524D01*
X31272238Y-51652714D01*
X31284333Y-51676905D01*
X31296428Y-51725286D01*
X31296428Y-51822048D01*
X31284333Y-51870429D01*
X31272238Y-51894619D01*
X31248047Y-51918810D01*
X31199666Y-51918810D01*
X31175476Y-51894619D01*
X31163380Y-51870429D01*
X31151285Y-51822048D01*
X31151285Y-51725286D01*
X31163380Y-51676905D01*
X31175476Y-51652714D01*
X31199666Y-51628524D01*
X15249676Y-62713810D02*
X15249676Y-62205810D01*
X15152914Y-62205810D01*
X15128723Y-62230000D01*
X15116628Y-62254190D01*
X15104533Y-62302571D01*
X15104533Y-62375143D01*
X15116628Y-62423524D01*
X15128723Y-62447714D01*
X15152914Y-62471905D01*
X15249676Y-62471905D01*
X15007771Y-62254190D02*
X14995676Y-62230000D01*
X14971485Y-62205810D01*
X14911009Y-62205810D01*
X14886819Y-62230000D01*
X14874723Y-62254190D01*
X14862628Y-62302571D01*
X14862628Y-62350952D01*
X14874723Y-62423524D01*
X15019866Y-62713810D01*
X14862628Y-62713810D01*
M02*
