G04 #@! TF.FileFunction,Soldermask,Bot*
%FSLAX46Y46*%
G04 Gerber Fmt 4.6, Leading zero omitted, Abs format (unit mm)*
G04 Created by KiCad (PCBNEW 0.201602161416+6560~42~ubuntu15.10.1-product) date Wed 17 Feb 2016 03:47:36 PM EST*
%MOMM*%
G01*
G04 APERTURE LIST*
%ADD10C,0.100000*%
%ADD11C,1.883200*%
%ADD12R,1.653200X0.653200*%
%ADD13C,1.803200*%
%ADD14R,0.803200X0.703200*%
%ADD15R,2.235200X2.235200*%
%ADD16O,2.235200X2.235200*%
%ADD17C,1.353200*%
%ADD18R,2.235200X1.930400*%
%ADD19O,2.235200X1.930400*%
G04 APERTURE END LIST*
D10*
D11*
X50368200Y-91186000D03*
D12*
X61907000Y-107743400D03*
X61907000Y-108393400D03*
X61907000Y-109043400D03*
X61907000Y-109693400D03*
X61907000Y-110343400D03*
X61907000Y-110993400D03*
X61907000Y-111643400D03*
X61907000Y-112293400D03*
X61907000Y-112943400D03*
X61907000Y-113593400D03*
X56007000Y-113593400D03*
X56007000Y-112943400D03*
X56007000Y-112293400D03*
X56007000Y-111643400D03*
X56007000Y-110993400D03*
X56007000Y-110343400D03*
X56007000Y-109693400D03*
X56007000Y-109043400D03*
X56007000Y-108393400D03*
X56007000Y-107743400D03*
D11*
X60375800Y-97104200D03*
X50419000Y-108178600D03*
D13*
X61087000Y-73398000D03*
X54737000Y-73398000D03*
D14*
X54136200Y-105994200D03*
X55236200Y-105994200D03*
X62975400Y-115138200D03*
X64075400Y-115138200D03*
D15*
X50977800Y-74193400D03*
D16*
X50977800Y-76733400D03*
D17*
X63880000Y-82677000D03*
X60580000Y-85177000D03*
X60580000Y-80177000D03*
D11*
X71551800Y-117779800D03*
X56362600Y-124282200D03*
X59258200Y-120523000D03*
X66573400Y-114223800D03*
X50876200Y-97307400D03*
X71094600Y-100101400D03*
D18*
X50673000Y-116357400D03*
D19*
X50673000Y-113817400D03*
X50673000Y-111277400D03*
D11*
X50368200Y-31750000D03*
D12*
X61907000Y-48307400D03*
X61907000Y-48957400D03*
X61907000Y-49607400D03*
X61907000Y-50257400D03*
X61907000Y-50907400D03*
X61907000Y-51557400D03*
X61907000Y-52207400D03*
X61907000Y-52857400D03*
X61907000Y-53507400D03*
X61907000Y-54157400D03*
X56007000Y-54157400D03*
X56007000Y-53507400D03*
X56007000Y-52857400D03*
X56007000Y-52207400D03*
X56007000Y-51557400D03*
X56007000Y-50907400D03*
X56007000Y-50257400D03*
X56007000Y-49607400D03*
X56007000Y-48957400D03*
X56007000Y-48307400D03*
D11*
X60375800Y-37668200D03*
X50419000Y-48742600D03*
D13*
X61087000Y-13962000D03*
X54737000Y-13962000D03*
D14*
X54136200Y-46558200D03*
X55236200Y-46558200D03*
X62975400Y-55702200D03*
X64075400Y-55702200D03*
D15*
X50977800Y-14757400D03*
D16*
X50977800Y-17297400D03*
D17*
X63880000Y-23241000D03*
X60580000Y-25741000D03*
X60580000Y-20741000D03*
D11*
X71551800Y-58343800D03*
X56362600Y-64846200D03*
X59258200Y-61087000D03*
X66573400Y-54787800D03*
X50876200Y-37871400D03*
X71094600Y-40665400D03*
D18*
X50673000Y-56921400D03*
D19*
X50673000Y-54381400D03*
X50673000Y-51841400D03*
D11*
X14808200Y-91186000D03*
D12*
X26347000Y-107743400D03*
X26347000Y-108393400D03*
X26347000Y-109043400D03*
X26347000Y-109693400D03*
X26347000Y-110343400D03*
X26347000Y-110993400D03*
X26347000Y-111643400D03*
X26347000Y-112293400D03*
X26347000Y-112943400D03*
X26347000Y-113593400D03*
X20447000Y-113593400D03*
X20447000Y-112943400D03*
X20447000Y-112293400D03*
X20447000Y-111643400D03*
X20447000Y-110993400D03*
X20447000Y-110343400D03*
X20447000Y-109693400D03*
X20447000Y-109043400D03*
X20447000Y-108393400D03*
X20447000Y-107743400D03*
D11*
X24815800Y-97104200D03*
X14859000Y-108178600D03*
D13*
X25527000Y-73398000D03*
X19177000Y-73398000D03*
D14*
X18576200Y-105994200D03*
X19676200Y-105994200D03*
X27415400Y-115138200D03*
X28515400Y-115138200D03*
D15*
X15417800Y-74193400D03*
D16*
X15417800Y-76733400D03*
D17*
X28320000Y-82677000D03*
X25020000Y-85177000D03*
X25020000Y-80177000D03*
D11*
X35991800Y-117779800D03*
X20802600Y-124282200D03*
X23698200Y-120523000D03*
X31013400Y-114223800D03*
X15316200Y-97307400D03*
X35534600Y-100101400D03*
D18*
X15113000Y-116357400D03*
D19*
X15113000Y-113817400D03*
X15113000Y-111277400D03*
D18*
X15113000Y-56921400D03*
D19*
X15113000Y-54381400D03*
X15113000Y-51841400D03*
D11*
X35534600Y-40665400D03*
X15316200Y-37871400D03*
X31013400Y-54787800D03*
X23698200Y-61087000D03*
X20802600Y-64846200D03*
X35991800Y-58343800D03*
D17*
X28320000Y-23241000D03*
X25020000Y-25741000D03*
X25020000Y-20741000D03*
D15*
X15417800Y-14757400D03*
D16*
X15417800Y-17297400D03*
D14*
X27415400Y-55702200D03*
X28515400Y-55702200D03*
X18576200Y-46558200D03*
X19676200Y-46558200D03*
D13*
X25527000Y-13962000D03*
X19177000Y-13962000D03*
D11*
X14859000Y-48742600D03*
X24815800Y-37668200D03*
D12*
X26347000Y-48307400D03*
X26347000Y-48957400D03*
X26347000Y-49607400D03*
X26347000Y-50257400D03*
X26347000Y-50907400D03*
X26347000Y-51557400D03*
X26347000Y-52207400D03*
X26347000Y-52857400D03*
X26347000Y-53507400D03*
X26347000Y-54157400D03*
X20447000Y-54157400D03*
X20447000Y-53507400D03*
X20447000Y-52857400D03*
X20447000Y-52207400D03*
X20447000Y-51557400D03*
X20447000Y-50907400D03*
X20447000Y-50257400D03*
X20447000Y-49607400D03*
X20447000Y-48957400D03*
X20447000Y-48307400D03*
D11*
X14808200Y-31750000D03*
M02*
