M48
INCH,TZ
T10C0.008
T11C0.013
T12C0.020
T13C0.031
T14C0.040
T15C0.047
T16C0.024
T17C0.037
T18C0.079
%
T10
X012461Y-12621
X012461Y-13015
X012461Y-36021
X012461Y-36415
X012854Y-12621
X012854Y-13015
X012854Y-36021
X012854Y-36415
X026461Y-12621
X026461Y-13015
X026461Y-36021
X026461Y-36415
X026854Y-12621
X026854Y-13015
X026854Y-36021
X026854Y-36415
T11
X005250Y-18190
X005250Y-41590
X006750Y-17250
X006750Y-40650
X006930Y-25740
X006930Y-49140
X007080Y-15200
X007080Y-38600
X007330Y-17230
X007330Y-40630
X007470Y-13630
X007470Y-37030
X007730Y-17250
X007730Y-40650
X007750Y-16770
X007750Y-40170
X008370Y-22410
X008370Y-45810
X008780Y-07350
X008780Y-30750
X009120Y-07350
X009120Y-30750
X009180Y-25850
X009180Y-49250
X009450Y-14000
X009450Y-37400
X009610Y-21850
X009610Y-45250
X009810Y-18310
X009810Y-41710
X009950Y-27750
X009950Y-51150
X010000Y-10800
X010000Y-34200
X010210Y-21850
X010210Y-45250
X010270Y-18310
X010270Y-41710
X010430Y-15050
X010430Y-38450
X010900Y-27800
X010900Y-51200
X011375Y-12675
X011375Y-36075
X011910Y-12070
X011910Y-35470
X011950Y-23110
X011950Y-46510
X011960Y-10210
X011960Y-33610
X012010Y-24170
X012010Y-47570
X012150Y-18390
X012150Y-41790
X012190Y-16750
X012190Y-40150
X012450Y-22310
X012450Y-45710
X012469Y-14011
X012469Y-37411
X012600Y-27900
X012600Y-51300
X012730Y-10190
X012730Y-33590
X012750Y-14600
X012750Y-38000
X012830Y-24730
X012830Y-48130
X013070Y-21550
X013070Y-44950
X013350Y-13750
X013350Y-37150
X013410Y-12070
X013410Y-35470
X013599Y-17668
X013599Y-41068
X013700Y-14850
X013700Y-38250
X013710Y-14150
X013710Y-37550
X013717Y-14491
X013717Y-37891
X013840Y-17428
X013840Y-40828
X013900Y-27900
X013900Y-51300
X013950Y-13650
X013950Y-37050
X014150Y-27050
X014150Y-50450
X014200Y-18350
X014200Y-41750
X014300Y-14650
X014300Y-38050
X014400Y-17300
X014400Y-40700
X015050Y-13250
X015050Y-36650
X015150Y-07200
X015150Y-30600
X016400Y-05650
X016400Y-29050
X016750Y-16810
X016750Y-17250
X016750Y-40210
X016750Y-40650
X016810Y-13250
X016810Y-36650
X016900Y-11100
X016900Y-34500
X017030Y-19350
X017030Y-42750
X017250Y-14890
X017250Y-38290
X017300Y-07100
X017300Y-30500
X017380Y-19000
X017380Y-42400
X017690Y-14570
X017690Y-37970
X017700Y-10000
X017700Y-33400
X017750Y-07100
X017750Y-30500
X018010Y-15210
X018010Y-38610
X018390Y-17870
X018390Y-41270
X019250Y-18190
X019250Y-41590
X020750Y-17250
X020750Y-40650
X020930Y-25740
X020930Y-49140
X021080Y-15200
X021080Y-38600
X021330Y-17230
X021330Y-40630
X021470Y-13630
X021470Y-37030
X021730Y-17250
X021730Y-40650
X021750Y-16770
X021750Y-40170
X022370Y-22410
X022370Y-45810
X022780Y-07350
X022780Y-30750
X023120Y-07350
X023120Y-30750
X023180Y-25850
X023180Y-49250
X023450Y-14000
X023450Y-37400
X023610Y-21850
X023610Y-45250
X023810Y-18310
X023810Y-41710
X023950Y-27750
X023950Y-51150
X024000Y-10800
X024000Y-34200
X024210Y-21850
X024210Y-45250
X024270Y-18310
X024270Y-41710
X024430Y-15050
X024430Y-38450
X024900Y-27800
X024900Y-51200
X025375Y-12675
X025375Y-36075
X025910Y-12070
X025910Y-35470
X025950Y-23110
X025950Y-46510
X025960Y-10210
X025960Y-33610
X026010Y-24170
X026010Y-47570
X026150Y-18390
X026150Y-41790
X026190Y-16750
X026190Y-40150
X026450Y-22310
X026450Y-45710
X026469Y-14011
X026469Y-37411
X026600Y-27900
X026600Y-51300
X026730Y-10190
X026730Y-33590
X026750Y-14600
X026750Y-38000
X026830Y-24730
X026830Y-48130
X027070Y-21550
X027070Y-44950
X027350Y-13750
X027350Y-37150
X027410Y-12070
X027410Y-35470
X027599Y-17668
X027599Y-41068
X027700Y-14850
X027700Y-38250
X027710Y-14150
X027710Y-37550
X027717Y-14491
X027717Y-37891
X027840Y-17428
X027840Y-40828
X027900Y-27900
X027900Y-51300
X027950Y-13650
X027950Y-37050
X028150Y-27050
X028150Y-50450
X028200Y-18350
X028200Y-41750
X028300Y-14650
X028300Y-38050
X028400Y-17300
X028400Y-40700
X029050Y-13250
X029050Y-36650
X029150Y-07200
X029150Y-30600
X030400Y-05650
X030400Y-29050
X030750Y-16810
X030750Y-17250
X030750Y-40210
X030750Y-40650
X030810Y-13250
X030810Y-36650
X030900Y-11100
X030900Y-34500
X031030Y-19350
X031030Y-42750
X031250Y-14890
X031250Y-38290
X031300Y-07100
X031300Y-30500
X031380Y-19000
X031380Y-42400
X031690Y-14570
X031690Y-37970
X031700Y-10000
X031700Y-33400
X031750Y-07100
X031750Y-30500
X032010Y-15210
X032010Y-38610
X032390Y-17870
X032390Y-41270
T12
X006770Y-09490
X006770Y-32890
X006850Y-25200
X006850Y-48600
X008230Y-27820
X008230Y-51220
X008250Y-11200
X008250Y-34600
X009770Y-07160
X009770Y-30560
X010998Y-12128
X010998Y-35528
X011350Y-26700
X011350Y-50100
X011800Y-27850
X011800Y-51250
X013010Y-25610
X013010Y-49010
X013630Y-18330
X013630Y-41730
X014070Y-26080
X014070Y-49480
X014250Y-19150
X014250Y-42550
X016010Y-07200
X016010Y-30600
X016640Y-19680
X016640Y-43080
X017080Y-05690
X017080Y-29090
X020770Y-09490
X020770Y-32890
X020850Y-25200
X020850Y-48600
X022230Y-27820
X022230Y-51220
X022250Y-11200
X022250Y-34600
X023770Y-07160
X023770Y-30560
X024998Y-12128
X024998Y-35528
X025350Y-26700
X025350Y-50100
X025800Y-27850
X025800Y-51250
X027010Y-25610
X027010Y-49010
X027630Y-18330
X027630Y-41730
X028070Y-26080
X028070Y-49480
X028250Y-19150
X028250Y-42550
X030010Y-07200
X030010Y-30600
X030640Y-19680
X030640Y-43080
X031080Y-05690
X031080Y-29090
T13
X009850Y-08166
X009850Y-10134
X009850Y-31566
X009850Y-33534
X011150Y-09150
X011150Y-32550
X023850Y-08166
X023850Y-10134
X023850Y-31566
X023850Y-33534
X025150Y-09150
X025150Y-32550
T14
X005950Y-20410
X005950Y-21410
X005950Y-22410
X005950Y-43810
X005950Y-44810
X005950Y-45810
X006070Y-05810
X006070Y-06810
X006070Y-29210
X006070Y-30210
X019950Y-20410
X019950Y-21410
X019950Y-22410
X019950Y-43810
X019950Y-44810
X019950Y-45810
X020070Y-05810
X020070Y-06810
X020070Y-29210
X020070Y-30210
T15
X005830Y-12500
X005830Y-35900
X005850Y-19190
X005850Y-42590
X006030Y-14910
X006030Y-38310
X007550Y-05497
X007550Y-28897
X008190Y-25530
X008190Y-48930
X009330Y-24050
X009330Y-47450
X009770Y-14830
X009770Y-38230
X010050Y-05497
X010050Y-28897
X012210Y-21570
X012210Y-44970
X013990Y-16010
X013990Y-39410
X014170Y-22970
X014170Y-46370
X019830Y-12500
X019830Y-35900
X019850Y-19190
X019850Y-42590
X020030Y-14910
X020030Y-38310
X021550Y-05497
X021550Y-28897
X022190Y-25530
X022190Y-48930
X023330Y-24050
X023330Y-47450
X023770Y-14830
X023770Y-38230
X024050Y-05497
X024050Y-28897
X026210Y-21570
X026210Y-44970
X027990Y-16010
X027990Y-39410
X028170Y-22970
X028170Y-46370
T16
X013050Y-27050
X013050Y-50450
X027050Y-27050
X027050Y-50450
T17
X009190Y-26550
X009190Y-49950
X010650Y-26950
X010650Y-50350
X023190Y-26550
X023190Y-49950
X024650Y-26950
X024650Y-50350
T18
X007773Y-23665
X007773Y-47065
X015883Y-12369
X015883Y-35769
X021773Y-23665
X021773Y-47065
X029883Y-12369
X029883Y-35769
M30

