G04 #@! TF.FileFunction,Legend,Bot*
%FSLAX46Y46*%
G04 Gerber Fmt 4.6, Leading zero omitted, Abs format (unit mm)*
G04 Created by KiCad (PCBNEW 0.201602161416+6560~42~ubuntu15.10.1-product) date Wed 17 Feb 2016 03:47:36 PM EST*
%MOMM*%
G01*
G04 APERTURE LIST*
%ADD10C,0.100000*%
%ADD11C,0.307000*%
%ADD12C,0.150000*%
%ADD13C,0.127000*%
G04 APERTURE END LIST*
D10*
D11*
X78153000Y-90854000D02*
G75*
G03X78153000Y-90854000I-2250000J0D01*
G01*
X57553000Y-119544000D02*
G75*
G03X57553000Y-119544000I-2250000J0D01*
G01*
D12*
X61182000Y-114043400D02*
X56732000Y-114043400D01*
X62707000Y-107293400D02*
X56732000Y-107293400D01*
X54936200Y-106469200D02*
X54436200Y-106469200D01*
X54436200Y-105519200D02*
X54936200Y-105519200D01*
X63775400Y-115613200D02*
X63275400Y-115613200D01*
X63275400Y-114663200D02*
X63775400Y-114663200D01*
X49707800Y-75463400D02*
X49707800Y-78003400D01*
X49427800Y-72643400D02*
X49427800Y-74193400D01*
X49707800Y-75463400D02*
X52247800Y-75463400D01*
X52527800Y-74193400D02*
X52527800Y-72643400D01*
X52527800Y-72643400D02*
X49427800Y-72643400D01*
X52247800Y-75463400D02*
X52247800Y-78003400D01*
X52247800Y-78003400D02*
X49707800Y-78003400D01*
X49403000Y-115087400D02*
X49403000Y-110007400D01*
X49403000Y-110007400D02*
X51943000Y-110007400D01*
X51943000Y-110007400D02*
X51943000Y-115087400D01*
X52223000Y-117907400D02*
X52223000Y-116357400D01*
X51943000Y-115087400D02*
X49403000Y-115087400D01*
X49123000Y-116357400D02*
X49123000Y-117907400D01*
X49123000Y-117907400D02*
X52223000Y-117907400D01*
D11*
X78153000Y-31418000D02*
G75*
G03X78153000Y-31418000I-2250000J0D01*
G01*
X57553000Y-60108000D02*
G75*
G03X57553000Y-60108000I-2250000J0D01*
G01*
D12*
X61182000Y-54607400D02*
X56732000Y-54607400D01*
X62707000Y-47857400D02*
X56732000Y-47857400D01*
X54936200Y-47033200D02*
X54436200Y-47033200D01*
X54436200Y-46083200D02*
X54936200Y-46083200D01*
X63775400Y-56177200D02*
X63275400Y-56177200D01*
X63275400Y-55227200D02*
X63775400Y-55227200D01*
X49707800Y-16027400D02*
X49707800Y-18567400D01*
X49427800Y-13207400D02*
X49427800Y-14757400D01*
X49707800Y-16027400D02*
X52247800Y-16027400D01*
X52527800Y-14757400D02*
X52527800Y-13207400D01*
X52527800Y-13207400D02*
X49427800Y-13207400D01*
X52247800Y-16027400D02*
X52247800Y-18567400D01*
X52247800Y-18567400D02*
X49707800Y-18567400D01*
X49403000Y-55651400D02*
X49403000Y-50571400D01*
X49403000Y-50571400D02*
X51943000Y-50571400D01*
X51943000Y-50571400D02*
X51943000Y-55651400D01*
X52223000Y-58471400D02*
X52223000Y-56921400D01*
X51943000Y-55651400D02*
X49403000Y-55651400D01*
X49123000Y-56921400D02*
X49123000Y-58471400D01*
X49123000Y-58471400D02*
X52223000Y-58471400D01*
D11*
X42593000Y-90854000D02*
G75*
G03X42593000Y-90854000I-2250000J0D01*
G01*
X21993000Y-119544000D02*
G75*
G03X21993000Y-119544000I-2250000J0D01*
G01*
D12*
X25622000Y-114043400D02*
X21172000Y-114043400D01*
X27147000Y-107293400D02*
X21172000Y-107293400D01*
X19376200Y-106469200D02*
X18876200Y-106469200D01*
X18876200Y-105519200D02*
X19376200Y-105519200D01*
X28215400Y-115613200D02*
X27715400Y-115613200D01*
X27715400Y-114663200D02*
X28215400Y-114663200D01*
X14147800Y-75463400D02*
X14147800Y-78003400D01*
X13867800Y-72643400D02*
X13867800Y-74193400D01*
X14147800Y-75463400D02*
X16687800Y-75463400D01*
X16967800Y-74193400D02*
X16967800Y-72643400D01*
X16967800Y-72643400D02*
X13867800Y-72643400D01*
X16687800Y-75463400D02*
X16687800Y-78003400D01*
X16687800Y-78003400D02*
X14147800Y-78003400D01*
X13843000Y-115087400D02*
X13843000Y-110007400D01*
X13843000Y-110007400D02*
X16383000Y-110007400D01*
X16383000Y-110007400D02*
X16383000Y-115087400D01*
X16663000Y-117907400D02*
X16663000Y-116357400D01*
X16383000Y-115087400D02*
X13843000Y-115087400D01*
X13563000Y-116357400D02*
X13563000Y-117907400D01*
X13563000Y-117907400D02*
X16663000Y-117907400D01*
X13843000Y-55651400D02*
X13843000Y-50571400D01*
X13843000Y-50571400D02*
X16383000Y-50571400D01*
X16383000Y-50571400D02*
X16383000Y-55651400D01*
X16663000Y-58471400D02*
X16663000Y-56921400D01*
X16383000Y-55651400D02*
X13843000Y-55651400D01*
X13563000Y-56921400D02*
X13563000Y-58471400D01*
X13563000Y-58471400D02*
X16663000Y-58471400D01*
X14147800Y-16027400D02*
X14147800Y-18567400D01*
X13867800Y-13207400D02*
X13867800Y-14757400D01*
X14147800Y-16027400D02*
X16687800Y-16027400D01*
X16967800Y-14757400D02*
X16967800Y-13207400D01*
X16967800Y-13207400D02*
X13867800Y-13207400D01*
X16687800Y-16027400D02*
X16687800Y-18567400D01*
X16687800Y-18567400D02*
X14147800Y-18567400D01*
X28215400Y-56177200D02*
X27715400Y-56177200D01*
X27715400Y-55227200D02*
X28215400Y-55227200D01*
X19376200Y-47033200D02*
X18876200Y-47033200D01*
X18876200Y-46083200D02*
X19376200Y-46083200D01*
X25622000Y-54607400D02*
X21172000Y-54607400D01*
X27147000Y-47857400D02*
X21172000Y-47857400D01*
D11*
X42593000Y-31418000D02*
G75*
G03X42593000Y-31418000I-2250000J0D01*
G01*
X21993000Y-60108000D02*
G75*
G03X21993000Y-60108000I-2250000J0D01*
G01*
D12*
X51272962Y-87971381D02*
X51034867Y-88971381D01*
X50844390Y-88257095D01*
X50653914Y-88971381D01*
X50415819Y-87971381D01*
X49511057Y-88971381D02*
X50082486Y-88971381D01*
X49796772Y-88971381D02*
X49796772Y-87971381D01*
X49892010Y-88114238D01*
X49987248Y-88209476D01*
X50082486Y-88257095D01*
D13*
X59651295Y-105869619D02*
X59651295Y-106692095D01*
X59602914Y-106788857D01*
X59554533Y-106837238D01*
X59457771Y-106885619D01*
X59264248Y-106885619D01*
X59167486Y-106837238D01*
X59119105Y-106788857D01*
X59070724Y-106692095D01*
X59070724Y-105869619D01*
X58683676Y-105869619D02*
X58006343Y-105869619D01*
X58441771Y-106885619D01*
X61193438Y-93550619D02*
X60951533Y-94566619D01*
X60758010Y-93840905D01*
X60564486Y-94566619D01*
X60322581Y-93550619D01*
X59887152Y-94566619D02*
X59693628Y-94566619D01*
X59596867Y-94518238D01*
X59548486Y-94469857D01*
X59451724Y-94324714D01*
X59403343Y-94131190D01*
X59403343Y-93744143D01*
X59451724Y-93647381D01*
X59500105Y-93599000D01*
X59596867Y-93550619D01*
X59790390Y-93550619D01*
X59887152Y-93599000D01*
X59935533Y-93647381D01*
X59983914Y-93744143D01*
X59983914Y-93986048D01*
X59935533Y-94082810D01*
X59887152Y-94131190D01*
X59790390Y-94179571D01*
X59596867Y-94179571D01*
X59500105Y-94131190D01*
X59451724Y-94082810D01*
X59403343Y-93986048D01*
X51795438Y-104980619D02*
X51553533Y-105996619D01*
X51360010Y-105270905D01*
X51166486Y-105996619D01*
X50924581Y-104980619D01*
X50634295Y-104980619D02*
X50005343Y-104980619D01*
X50344009Y-105367667D01*
X50198867Y-105367667D01*
X50102105Y-105416048D01*
X50053724Y-105464429D01*
X50005343Y-105561190D01*
X50005343Y-105803095D01*
X50053724Y-105899857D01*
X50102105Y-105948238D01*
X50198867Y-105996619D01*
X50489152Y-105996619D01*
X50585914Y-105948238D01*
X50634295Y-105899857D01*
X55466343Y-105010857D02*
X55514724Y-105059238D01*
X55659867Y-105107619D01*
X55756629Y-105107619D01*
X55901771Y-105059238D01*
X55998533Y-104962476D01*
X56046914Y-104865714D01*
X56095295Y-104672190D01*
X56095295Y-104527048D01*
X56046914Y-104333524D01*
X55998533Y-104236762D01*
X55901771Y-104140000D01*
X55756629Y-104091619D01*
X55659867Y-104091619D01*
X55514724Y-104140000D01*
X55466343Y-104188381D01*
X54498724Y-105107619D02*
X55079295Y-105107619D01*
X54789009Y-105107619D02*
X54789009Y-104091619D01*
X54885771Y-104236762D01*
X54982533Y-104333524D01*
X55079295Y-104381905D01*
X54014914Y-105107619D02*
X53821390Y-105107619D01*
X53724629Y-105059238D01*
X53676248Y-105010857D01*
X53579486Y-104865714D01*
X53531105Y-104672190D01*
X53531105Y-104285143D01*
X53579486Y-104188381D01*
X53627867Y-104140000D01*
X53724629Y-104091619D01*
X53918152Y-104091619D01*
X54014914Y-104140000D01*
X54063295Y-104188381D01*
X54111676Y-104285143D01*
X54111676Y-104527048D01*
X54063295Y-104623810D01*
X54014914Y-104672190D01*
X53918152Y-104720571D01*
X53724629Y-104720571D01*
X53627867Y-104672190D01*
X53579486Y-104623810D01*
X53531105Y-104527048D01*
X64127743Y-116974257D02*
X64176124Y-117022638D01*
X64321267Y-117071019D01*
X64418029Y-117071019D01*
X64563171Y-117022638D01*
X64659933Y-116925876D01*
X64708314Y-116829114D01*
X64756695Y-116635590D01*
X64756695Y-116490448D01*
X64708314Y-116296924D01*
X64659933Y-116200162D01*
X64563171Y-116103400D01*
X64418029Y-116055019D01*
X64321267Y-116055019D01*
X64176124Y-116103400D01*
X64127743Y-116151781D01*
X63160124Y-117071019D02*
X63740695Y-117071019D01*
X63450409Y-117071019D02*
X63450409Y-116055019D01*
X63547171Y-116200162D01*
X63643933Y-116296924D01*
X63740695Y-116345305D01*
X62821457Y-116055019D02*
X62192505Y-116055019D01*
X62531171Y-116442067D01*
X62386029Y-116442067D01*
X62289267Y-116490448D01*
X62240886Y-116538829D01*
X62192505Y-116635590D01*
X62192505Y-116877495D01*
X62240886Y-116974257D01*
X62289267Y-117022638D01*
X62386029Y-117071019D01*
X62676314Y-117071019D01*
X62773076Y-117022638D01*
X62821457Y-116974257D01*
X51676904Y-80342619D02*
X51676904Y-79326619D01*
X51289857Y-79326619D01*
X51193095Y-79375000D01*
X51144714Y-79423381D01*
X51096333Y-79520143D01*
X51096333Y-79665286D01*
X51144714Y-79762048D01*
X51193095Y-79810429D01*
X51289857Y-79858810D01*
X51676904Y-79858810D01*
X50709285Y-79423381D02*
X50660904Y-79375000D01*
X50564142Y-79326619D01*
X50322238Y-79326619D01*
X50225476Y-79375000D01*
X50177095Y-79423381D01*
X50128714Y-79520143D01*
X50128714Y-79616905D01*
X50177095Y-79762048D01*
X50757666Y-80342619D01*
X50128714Y-80342619D01*
X72496438Y-114505619D02*
X72254533Y-115521619D01*
X72061010Y-114795905D01*
X71867486Y-115521619D01*
X71625581Y-114505619D01*
X71093390Y-114941048D02*
X71190152Y-114892667D01*
X71238533Y-114844286D01*
X71286914Y-114747524D01*
X71286914Y-114699143D01*
X71238533Y-114602381D01*
X71190152Y-114554000D01*
X71093390Y-114505619D01*
X70899867Y-114505619D01*
X70803105Y-114554000D01*
X70754724Y-114602381D01*
X70706343Y-114699143D01*
X70706343Y-114747524D01*
X70754724Y-114844286D01*
X70803105Y-114892667D01*
X70899867Y-114941048D01*
X71093390Y-114941048D01*
X71190152Y-114989429D01*
X71238533Y-115037810D01*
X71286914Y-115134571D01*
X71286914Y-115328095D01*
X71238533Y-115424857D01*
X71190152Y-115473238D01*
X71093390Y-115521619D01*
X70899867Y-115521619D01*
X70803105Y-115473238D01*
X70754724Y-115424857D01*
X70706343Y-115328095D01*
X70706343Y-115134571D01*
X70754724Y-115037810D01*
X70803105Y-114989429D01*
X70899867Y-114941048D01*
X57281838Y-126443619D02*
X57039933Y-127459619D01*
X56846410Y-126733905D01*
X56652886Y-127459619D01*
X56410981Y-126443619D01*
X56120695Y-126443619D02*
X55443362Y-126443619D01*
X55878790Y-127459619D01*
X60177438Y-117426619D02*
X59935533Y-118442619D01*
X59742010Y-117716905D01*
X59548486Y-118442619D01*
X59306581Y-117426619D01*
X58484105Y-117426619D02*
X58677628Y-117426619D01*
X58774390Y-117475000D01*
X58822771Y-117523381D01*
X58919533Y-117668524D01*
X58967914Y-117862048D01*
X58967914Y-118249095D01*
X58919533Y-118345857D01*
X58871152Y-118394238D01*
X58774390Y-118442619D01*
X58580867Y-118442619D01*
X58484105Y-118394238D01*
X58435724Y-118345857D01*
X58387343Y-118249095D01*
X58387343Y-118007190D01*
X58435724Y-117910429D01*
X58484105Y-117862048D01*
X58580867Y-117813667D01*
X58774390Y-117813667D01*
X58871152Y-117862048D01*
X58919533Y-117910429D01*
X58967914Y-118007190D01*
X67416438Y-111076619D02*
X67174533Y-112092619D01*
X66981010Y-111366905D01*
X66787486Y-112092619D01*
X66545581Y-111076619D01*
X65674724Y-111076619D02*
X66158533Y-111076619D01*
X66206914Y-111560429D01*
X66158533Y-111512048D01*
X66061771Y-111463667D01*
X65819867Y-111463667D01*
X65723105Y-111512048D01*
X65674724Y-111560429D01*
X65626343Y-111657190D01*
X65626343Y-111899095D01*
X65674724Y-111995857D01*
X65723105Y-112044238D01*
X65819867Y-112092619D01*
X66061771Y-112092619D01*
X66158533Y-112044238D01*
X66206914Y-111995857D01*
X51795438Y-94058619D02*
X51553533Y-95074619D01*
X51360010Y-94348905D01*
X51166486Y-95074619D01*
X50924581Y-94058619D01*
X50102105Y-94397286D02*
X50102105Y-95074619D01*
X50344009Y-94010238D02*
X50585914Y-94735952D01*
X49956962Y-94735952D01*
X68940438Y-99519619D02*
X68698533Y-100535619D01*
X68505010Y-99809905D01*
X68311486Y-100535619D01*
X68069581Y-99519619D01*
X67730914Y-99616381D02*
X67682533Y-99568000D01*
X67585771Y-99519619D01*
X67343867Y-99519619D01*
X67247105Y-99568000D01*
X67198724Y-99616381D01*
X67150343Y-99713143D01*
X67150343Y-99809905D01*
X67198724Y-99955048D01*
X67779295Y-100535619D01*
X67150343Y-100535619D01*
X51372104Y-119509419D02*
X51372104Y-118493419D01*
X50985057Y-118493419D01*
X50888295Y-118541800D01*
X50839914Y-118590181D01*
X50791533Y-118686943D01*
X50791533Y-118832086D01*
X50839914Y-118928848D01*
X50888295Y-118977229D01*
X50985057Y-119025610D01*
X51372104Y-119025610D01*
X49823914Y-119509419D02*
X50404485Y-119509419D01*
X50114199Y-119509419D02*
X50114199Y-118493419D01*
X50210961Y-118638562D01*
X50307723Y-118735324D01*
X50404485Y-118783705D01*
D12*
X51272962Y-28535381D02*
X51034867Y-29535381D01*
X50844390Y-28821095D01*
X50653914Y-29535381D01*
X50415819Y-28535381D01*
X49511057Y-29535381D02*
X50082486Y-29535381D01*
X49796772Y-29535381D02*
X49796772Y-28535381D01*
X49892010Y-28678238D01*
X49987248Y-28773476D01*
X50082486Y-28821095D01*
D13*
X59651295Y-46433619D02*
X59651295Y-47256095D01*
X59602914Y-47352857D01*
X59554533Y-47401238D01*
X59457771Y-47449619D01*
X59264248Y-47449619D01*
X59167486Y-47401238D01*
X59119105Y-47352857D01*
X59070724Y-47256095D01*
X59070724Y-46433619D01*
X58683676Y-46433619D02*
X58006343Y-46433619D01*
X58441771Y-47449619D01*
X61193438Y-34114619D02*
X60951533Y-35130619D01*
X60758010Y-34404905D01*
X60564486Y-35130619D01*
X60322581Y-34114619D01*
X59887152Y-35130619D02*
X59693628Y-35130619D01*
X59596867Y-35082238D01*
X59548486Y-35033857D01*
X59451724Y-34888714D01*
X59403343Y-34695190D01*
X59403343Y-34308143D01*
X59451724Y-34211381D01*
X59500105Y-34163000D01*
X59596867Y-34114619D01*
X59790390Y-34114619D01*
X59887152Y-34163000D01*
X59935533Y-34211381D01*
X59983914Y-34308143D01*
X59983914Y-34550048D01*
X59935533Y-34646810D01*
X59887152Y-34695190D01*
X59790390Y-34743571D01*
X59596867Y-34743571D01*
X59500105Y-34695190D01*
X59451724Y-34646810D01*
X59403343Y-34550048D01*
X51795438Y-45544619D02*
X51553533Y-46560619D01*
X51360010Y-45834905D01*
X51166486Y-46560619D01*
X50924581Y-45544619D01*
X50634295Y-45544619D02*
X50005343Y-45544619D01*
X50344009Y-45931667D01*
X50198867Y-45931667D01*
X50102105Y-45980048D01*
X50053724Y-46028429D01*
X50005343Y-46125190D01*
X50005343Y-46367095D01*
X50053724Y-46463857D01*
X50102105Y-46512238D01*
X50198867Y-46560619D01*
X50489152Y-46560619D01*
X50585914Y-46512238D01*
X50634295Y-46463857D01*
X55466343Y-45574857D02*
X55514724Y-45623238D01*
X55659867Y-45671619D01*
X55756629Y-45671619D01*
X55901771Y-45623238D01*
X55998533Y-45526476D01*
X56046914Y-45429714D01*
X56095295Y-45236190D01*
X56095295Y-45091048D01*
X56046914Y-44897524D01*
X55998533Y-44800762D01*
X55901771Y-44704000D01*
X55756629Y-44655619D01*
X55659867Y-44655619D01*
X55514724Y-44704000D01*
X55466343Y-44752381D01*
X54498724Y-45671619D02*
X55079295Y-45671619D01*
X54789009Y-45671619D02*
X54789009Y-44655619D01*
X54885771Y-44800762D01*
X54982533Y-44897524D01*
X55079295Y-44945905D01*
X54014914Y-45671619D02*
X53821390Y-45671619D01*
X53724629Y-45623238D01*
X53676248Y-45574857D01*
X53579486Y-45429714D01*
X53531105Y-45236190D01*
X53531105Y-44849143D01*
X53579486Y-44752381D01*
X53627867Y-44704000D01*
X53724629Y-44655619D01*
X53918152Y-44655619D01*
X54014914Y-44704000D01*
X54063295Y-44752381D01*
X54111676Y-44849143D01*
X54111676Y-45091048D01*
X54063295Y-45187810D01*
X54014914Y-45236190D01*
X53918152Y-45284571D01*
X53724629Y-45284571D01*
X53627867Y-45236190D01*
X53579486Y-45187810D01*
X53531105Y-45091048D01*
X64127743Y-57538257D02*
X64176124Y-57586638D01*
X64321267Y-57635019D01*
X64418029Y-57635019D01*
X64563171Y-57586638D01*
X64659933Y-57489876D01*
X64708314Y-57393114D01*
X64756695Y-57199590D01*
X64756695Y-57054448D01*
X64708314Y-56860924D01*
X64659933Y-56764162D01*
X64563171Y-56667400D01*
X64418029Y-56619019D01*
X64321267Y-56619019D01*
X64176124Y-56667400D01*
X64127743Y-56715781D01*
X63160124Y-57635019D02*
X63740695Y-57635019D01*
X63450409Y-57635019D02*
X63450409Y-56619019D01*
X63547171Y-56764162D01*
X63643933Y-56860924D01*
X63740695Y-56909305D01*
X62821457Y-56619019D02*
X62192505Y-56619019D01*
X62531171Y-57006067D01*
X62386029Y-57006067D01*
X62289267Y-57054448D01*
X62240886Y-57102829D01*
X62192505Y-57199590D01*
X62192505Y-57441495D01*
X62240886Y-57538257D01*
X62289267Y-57586638D01*
X62386029Y-57635019D01*
X62676314Y-57635019D01*
X62773076Y-57586638D01*
X62821457Y-57538257D01*
X51676904Y-20906619D02*
X51676904Y-19890619D01*
X51289857Y-19890619D01*
X51193095Y-19939000D01*
X51144714Y-19987381D01*
X51096333Y-20084143D01*
X51096333Y-20229286D01*
X51144714Y-20326048D01*
X51193095Y-20374429D01*
X51289857Y-20422810D01*
X51676904Y-20422810D01*
X50709285Y-19987381D02*
X50660904Y-19939000D01*
X50564142Y-19890619D01*
X50322238Y-19890619D01*
X50225476Y-19939000D01*
X50177095Y-19987381D01*
X50128714Y-20084143D01*
X50128714Y-20180905D01*
X50177095Y-20326048D01*
X50757666Y-20906619D01*
X50128714Y-20906619D01*
X72496438Y-55069619D02*
X72254533Y-56085619D01*
X72061010Y-55359905D01*
X71867486Y-56085619D01*
X71625581Y-55069619D01*
X71093390Y-55505048D02*
X71190152Y-55456667D01*
X71238533Y-55408286D01*
X71286914Y-55311524D01*
X71286914Y-55263143D01*
X71238533Y-55166381D01*
X71190152Y-55118000D01*
X71093390Y-55069619D01*
X70899867Y-55069619D01*
X70803105Y-55118000D01*
X70754724Y-55166381D01*
X70706343Y-55263143D01*
X70706343Y-55311524D01*
X70754724Y-55408286D01*
X70803105Y-55456667D01*
X70899867Y-55505048D01*
X71093390Y-55505048D01*
X71190152Y-55553429D01*
X71238533Y-55601810D01*
X71286914Y-55698571D01*
X71286914Y-55892095D01*
X71238533Y-55988857D01*
X71190152Y-56037238D01*
X71093390Y-56085619D01*
X70899867Y-56085619D01*
X70803105Y-56037238D01*
X70754724Y-55988857D01*
X70706343Y-55892095D01*
X70706343Y-55698571D01*
X70754724Y-55601810D01*
X70803105Y-55553429D01*
X70899867Y-55505048D01*
X57281838Y-67007619D02*
X57039933Y-68023619D01*
X56846410Y-67297905D01*
X56652886Y-68023619D01*
X56410981Y-67007619D01*
X56120695Y-67007619D02*
X55443362Y-67007619D01*
X55878790Y-68023619D01*
X60177438Y-57990619D02*
X59935533Y-59006619D01*
X59742010Y-58280905D01*
X59548486Y-59006619D01*
X59306581Y-57990619D01*
X58484105Y-57990619D02*
X58677628Y-57990619D01*
X58774390Y-58039000D01*
X58822771Y-58087381D01*
X58919533Y-58232524D01*
X58967914Y-58426048D01*
X58967914Y-58813095D01*
X58919533Y-58909857D01*
X58871152Y-58958238D01*
X58774390Y-59006619D01*
X58580867Y-59006619D01*
X58484105Y-58958238D01*
X58435724Y-58909857D01*
X58387343Y-58813095D01*
X58387343Y-58571190D01*
X58435724Y-58474429D01*
X58484105Y-58426048D01*
X58580867Y-58377667D01*
X58774390Y-58377667D01*
X58871152Y-58426048D01*
X58919533Y-58474429D01*
X58967914Y-58571190D01*
X67416438Y-51640619D02*
X67174533Y-52656619D01*
X66981010Y-51930905D01*
X66787486Y-52656619D01*
X66545581Y-51640619D01*
X65674724Y-51640619D02*
X66158533Y-51640619D01*
X66206914Y-52124429D01*
X66158533Y-52076048D01*
X66061771Y-52027667D01*
X65819867Y-52027667D01*
X65723105Y-52076048D01*
X65674724Y-52124429D01*
X65626343Y-52221190D01*
X65626343Y-52463095D01*
X65674724Y-52559857D01*
X65723105Y-52608238D01*
X65819867Y-52656619D01*
X66061771Y-52656619D01*
X66158533Y-52608238D01*
X66206914Y-52559857D01*
X51795438Y-34622619D02*
X51553533Y-35638619D01*
X51360010Y-34912905D01*
X51166486Y-35638619D01*
X50924581Y-34622619D01*
X50102105Y-34961286D02*
X50102105Y-35638619D01*
X50344009Y-34574238D02*
X50585914Y-35299952D01*
X49956962Y-35299952D01*
X68940438Y-40083619D02*
X68698533Y-41099619D01*
X68505010Y-40373905D01*
X68311486Y-41099619D01*
X68069581Y-40083619D01*
X67730914Y-40180381D02*
X67682533Y-40132000D01*
X67585771Y-40083619D01*
X67343867Y-40083619D01*
X67247105Y-40132000D01*
X67198724Y-40180381D01*
X67150343Y-40277143D01*
X67150343Y-40373905D01*
X67198724Y-40519048D01*
X67779295Y-41099619D01*
X67150343Y-41099619D01*
X51372104Y-60073419D02*
X51372104Y-59057419D01*
X50985057Y-59057419D01*
X50888295Y-59105800D01*
X50839914Y-59154181D01*
X50791533Y-59250943D01*
X50791533Y-59396086D01*
X50839914Y-59492848D01*
X50888295Y-59541229D01*
X50985057Y-59589610D01*
X51372104Y-59589610D01*
X49823914Y-60073419D02*
X50404485Y-60073419D01*
X50114199Y-60073419D02*
X50114199Y-59057419D01*
X50210961Y-59202562D01*
X50307723Y-59299324D01*
X50404485Y-59347705D01*
D12*
X15712962Y-87971381D02*
X15474867Y-88971381D01*
X15284390Y-88257095D01*
X15093914Y-88971381D01*
X14855819Y-87971381D01*
X13951057Y-88971381D02*
X14522486Y-88971381D01*
X14236772Y-88971381D02*
X14236772Y-87971381D01*
X14332010Y-88114238D01*
X14427248Y-88209476D01*
X14522486Y-88257095D01*
D13*
X24091295Y-105869619D02*
X24091295Y-106692095D01*
X24042914Y-106788857D01*
X23994533Y-106837238D01*
X23897771Y-106885619D01*
X23704248Y-106885619D01*
X23607486Y-106837238D01*
X23559105Y-106788857D01*
X23510724Y-106692095D01*
X23510724Y-105869619D01*
X23123676Y-105869619D02*
X22446343Y-105869619D01*
X22881771Y-106885619D01*
X25633438Y-93550619D02*
X25391533Y-94566619D01*
X25198010Y-93840905D01*
X25004486Y-94566619D01*
X24762581Y-93550619D01*
X24327152Y-94566619D02*
X24133628Y-94566619D01*
X24036867Y-94518238D01*
X23988486Y-94469857D01*
X23891724Y-94324714D01*
X23843343Y-94131190D01*
X23843343Y-93744143D01*
X23891724Y-93647381D01*
X23940105Y-93599000D01*
X24036867Y-93550619D01*
X24230390Y-93550619D01*
X24327152Y-93599000D01*
X24375533Y-93647381D01*
X24423914Y-93744143D01*
X24423914Y-93986048D01*
X24375533Y-94082810D01*
X24327152Y-94131190D01*
X24230390Y-94179571D01*
X24036867Y-94179571D01*
X23940105Y-94131190D01*
X23891724Y-94082810D01*
X23843343Y-93986048D01*
X16235438Y-104980619D02*
X15993533Y-105996619D01*
X15800010Y-105270905D01*
X15606486Y-105996619D01*
X15364581Y-104980619D01*
X15074295Y-104980619D02*
X14445343Y-104980619D01*
X14784009Y-105367667D01*
X14638867Y-105367667D01*
X14542105Y-105416048D01*
X14493724Y-105464429D01*
X14445343Y-105561190D01*
X14445343Y-105803095D01*
X14493724Y-105899857D01*
X14542105Y-105948238D01*
X14638867Y-105996619D01*
X14929152Y-105996619D01*
X15025914Y-105948238D01*
X15074295Y-105899857D01*
X19906343Y-105010857D02*
X19954724Y-105059238D01*
X20099867Y-105107619D01*
X20196629Y-105107619D01*
X20341771Y-105059238D01*
X20438533Y-104962476D01*
X20486914Y-104865714D01*
X20535295Y-104672190D01*
X20535295Y-104527048D01*
X20486914Y-104333524D01*
X20438533Y-104236762D01*
X20341771Y-104140000D01*
X20196629Y-104091619D01*
X20099867Y-104091619D01*
X19954724Y-104140000D01*
X19906343Y-104188381D01*
X18938724Y-105107619D02*
X19519295Y-105107619D01*
X19229009Y-105107619D02*
X19229009Y-104091619D01*
X19325771Y-104236762D01*
X19422533Y-104333524D01*
X19519295Y-104381905D01*
X18454914Y-105107619D02*
X18261390Y-105107619D01*
X18164629Y-105059238D01*
X18116248Y-105010857D01*
X18019486Y-104865714D01*
X17971105Y-104672190D01*
X17971105Y-104285143D01*
X18019486Y-104188381D01*
X18067867Y-104140000D01*
X18164629Y-104091619D01*
X18358152Y-104091619D01*
X18454914Y-104140000D01*
X18503295Y-104188381D01*
X18551676Y-104285143D01*
X18551676Y-104527048D01*
X18503295Y-104623810D01*
X18454914Y-104672190D01*
X18358152Y-104720571D01*
X18164629Y-104720571D01*
X18067867Y-104672190D01*
X18019486Y-104623810D01*
X17971105Y-104527048D01*
X28567743Y-116974257D02*
X28616124Y-117022638D01*
X28761267Y-117071019D01*
X28858029Y-117071019D01*
X29003171Y-117022638D01*
X29099933Y-116925876D01*
X29148314Y-116829114D01*
X29196695Y-116635590D01*
X29196695Y-116490448D01*
X29148314Y-116296924D01*
X29099933Y-116200162D01*
X29003171Y-116103400D01*
X28858029Y-116055019D01*
X28761267Y-116055019D01*
X28616124Y-116103400D01*
X28567743Y-116151781D01*
X27600124Y-117071019D02*
X28180695Y-117071019D01*
X27890409Y-117071019D02*
X27890409Y-116055019D01*
X27987171Y-116200162D01*
X28083933Y-116296924D01*
X28180695Y-116345305D01*
X27261457Y-116055019D02*
X26632505Y-116055019D01*
X26971171Y-116442067D01*
X26826029Y-116442067D01*
X26729267Y-116490448D01*
X26680886Y-116538829D01*
X26632505Y-116635590D01*
X26632505Y-116877495D01*
X26680886Y-116974257D01*
X26729267Y-117022638D01*
X26826029Y-117071019D01*
X27116314Y-117071019D01*
X27213076Y-117022638D01*
X27261457Y-116974257D01*
X16116904Y-80342619D02*
X16116904Y-79326619D01*
X15729857Y-79326619D01*
X15633095Y-79375000D01*
X15584714Y-79423381D01*
X15536333Y-79520143D01*
X15536333Y-79665286D01*
X15584714Y-79762048D01*
X15633095Y-79810429D01*
X15729857Y-79858810D01*
X16116904Y-79858810D01*
X15149285Y-79423381D02*
X15100904Y-79375000D01*
X15004142Y-79326619D01*
X14762238Y-79326619D01*
X14665476Y-79375000D01*
X14617095Y-79423381D01*
X14568714Y-79520143D01*
X14568714Y-79616905D01*
X14617095Y-79762048D01*
X15197666Y-80342619D01*
X14568714Y-80342619D01*
X36936438Y-114505619D02*
X36694533Y-115521619D01*
X36501010Y-114795905D01*
X36307486Y-115521619D01*
X36065581Y-114505619D01*
X35533390Y-114941048D02*
X35630152Y-114892667D01*
X35678533Y-114844286D01*
X35726914Y-114747524D01*
X35726914Y-114699143D01*
X35678533Y-114602381D01*
X35630152Y-114554000D01*
X35533390Y-114505619D01*
X35339867Y-114505619D01*
X35243105Y-114554000D01*
X35194724Y-114602381D01*
X35146343Y-114699143D01*
X35146343Y-114747524D01*
X35194724Y-114844286D01*
X35243105Y-114892667D01*
X35339867Y-114941048D01*
X35533390Y-114941048D01*
X35630152Y-114989429D01*
X35678533Y-115037810D01*
X35726914Y-115134571D01*
X35726914Y-115328095D01*
X35678533Y-115424857D01*
X35630152Y-115473238D01*
X35533390Y-115521619D01*
X35339867Y-115521619D01*
X35243105Y-115473238D01*
X35194724Y-115424857D01*
X35146343Y-115328095D01*
X35146343Y-115134571D01*
X35194724Y-115037810D01*
X35243105Y-114989429D01*
X35339867Y-114941048D01*
X21721838Y-126443619D02*
X21479933Y-127459619D01*
X21286410Y-126733905D01*
X21092886Y-127459619D01*
X20850981Y-126443619D01*
X20560695Y-126443619D02*
X19883362Y-126443619D01*
X20318790Y-127459619D01*
X24617438Y-117426619D02*
X24375533Y-118442619D01*
X24182010Y-117716905D01*
X23988486Y-118442619D01*
X23746581Y-117426619D01*
X22924105Y-117426619D02*
X23117628Y-117426619D01*
X23214390Y-117475000D01*
X23262771Y-117523381D01*
X23359533Y-117668524D01*
X23407914Y-117862048D01*
X23407914Y-118249095D01*
X23359533Y-118345857D01*
X23311152Y-118394238D01*
X23214390Y-118442619D01*
X23020867Y-118442619D01*
X22924105Y-118394238D01*
X22875724Y-118345857D01*
X22827343Y-118249095D01*
X22827343Y-118007190D01*
X22875724Y-117910429D01*
X22924105Y-117862048D01*
X23020867Y-117813667D01*
X23214390Y-117813667D01*
X23311152Y-117862048D01*
X23359533Y-117910429D01*
X23407914Y-118007190D01*
X31856438Y-111076619D02*
X31614533Y-112092619D01*
X31421010Y-111366905D01*
X31227486Y-112092619D01*
X30985581Y-111076619D01*
X30114724Y-111076619D02*
X30598533Y-111076619D01*
X30646914Y-111560429D01*
X30598533Y-111512048D01*
X30501771Y-111463667D01*
X30259867Y-111463667D01*
X30163105Y-111512048D01*
X30114724Y-111560429D01*
X30066343Y-111657190D01*
X30066343Y-111899095D01*
X30114724Y-111995857D01*
X30163105Y-112044238D01*
X30259867Y-112092619D01*
X30501771Y-112092619D01*
X30598533Y-112044238D01*
X30646914Y-111995857D01*
X16235438Y-94058619D02*
X15993533Y-95074619D01*
X15800010Y-94348905D01*
X15606486Y-95074619D01*
X15364581Y-94058619D01*
X14542105Y-94397286D02*
X14542105Y-95074619D01*
X14784009Y-94010238D02*
X15025914Y-94735952D01*
X14396962Y-94735952D01*
X33380438Y-99519619D02*
X33138533Y-100535619D01*
X32945010Y-99809905D01*
X32751486Y-100535619D01*
X32509581Y-99519619D01*
X32170914Y-99616381D02*
X32122533Y-99568000D01*
X32025771Y-99519619D01*
X31783867Y-99519619D01*
X31687105Y-99568000D01*
X31638724Y-99616381D01*
X31590343Y-99713143D01*
X31590343Y-99809905D01*
X31638724Y-99955048D01*
X32219295Y-100535619D01*
X31590343Y-100535619D01*
X15812104Y-119509419D02*
X15812104Y-118493419D01*
X15425057Y-118493419D01*
X15328295Y-118541800D01*
X15279914Y-118590181D01*
X15231533Y-118686943D01*
X15231533Y-118832086D01*
X15279914Y-118928848D01*
X15328295Y-118977229D01*
X15425057Y-119025610D01*
X15812104Y-119025610D01*
X14263914Y-119509419D02*
X14844485Y-119509419D01*
X14554199Y-119509419D02*
X14554199Y-118493419D01*
X14650961Y-118638562D01*
X14747723Y-118735324D01*
X14844485Y-118783705D01*
X15812104Y-60073419D02*
X15812104Y-59057419D01*
X15425057Y-59057419D01*
X15328295Y-59105800D01*
X15279914Y-59154181D01*
X15231533Y-59250943D01*
X15231533Y-59396086D01*
X15279914Y-59492848D01*
X15328295Y-59541229D01*
X15425057Y-59589610D01*
X15812104Y-59589610D01*
X14263914Y-60073419D02*
X14844485Y-60073419D01*
X14554199Y-60073419D02*
X14554199Y-59057419D01*
X14650961Y-59202562D01*
X14747723Y-59299324D01*
X14844485Y-59347705D01*
X33380438Y-40083619D02*
X33138533Y-41099619D01*
X32945010Y-40373905D01*
X32751486Y-41099619D01*
X32509581Y-40083619D01*
X32170914Y-40180381D02*
X32122533Y-40132000D01*
X32025771Y-40083619D01*
X31783867Y-40083619D01*
X31687105Y-40132000D01*
X31638724Y-40180381D01*
X31590343Y-40277143D01*
X31590343Y-40373905D01*
X31638724Y-40519048D01*
X32219295Y-41099619D01*
X31590343Y-41099619D01*
X16235438Y-34622619D02*
X15993533Y-35638619D01*
X15800010Y-34912905D01*
X15606486Y-35638619D01*
X15364581Y-34622619D01*
X14542105Y-34961286D02*
X14542105Y-35638619D01*
X14784009Y-34574238D02*
X15025914Y-35299952D01*
X14396962Y-35299952D01*
X31856438Y-51640619D02*
X31614533Y-52656619D01*
X31421010Y-51930905D01*
X31227486Y-52656619D01*
X30985581Y-51640619D01*
X30114724Y-51640619D02*
X30598533Y-51640619D01*
X30646914Y-52124429D01*
X30598533Y-52076048D01*
X30501771Y-52027667D01*
X30259867Y-52027667D01*
X30163105Y-52076048D01*
X30114724Y-52124429D01*
X30066343Y-52221190D01*
X30066343Y-52463095D01*
X30114724Y-52559857D01*
X30163105Y-52608238D01*
X30259867Y-52656619D01*
X30501771Y-52656619D01*
X30598533Y-52608238D01*
X30646914Y-52559857D01*
X24617438Y-57990619D02*
X24375533Y-59006619D01*
X24182010Y-58280905D01*
X23988486Y-59006619D01*
X23746581Y-57990619D01*
X22924105Y-57990619D02*
X23117628Y-57990619D01*
X23214390Y-58039000D01*
X23262771Y-58087381D01*
X23359533Y-58232524D01*
X23407914Y-58426048D01*
X23407914Y-58813095D01*
X23359533Y-58909857D01*
X23311152Y-58958238D01*
X23214390Y-59006619D01*
X23020867Y-59006619D01*
X22924105Y-58958238D01*
X22875724Y-58909857D01*
X22827343Y-58813095D01*
X22827343Y-58571190D01*
X22875724Y-58474429D01*
X22924105Y-58426048D01*
X23020867Y-58377667D01*
X23214390Y-58377667D01*
X23311152Y-58426048D01*
X23359533Y-58474429D01*
X23407914Y-58571190D01*
X21721838Y-67007619D02*
X21479933Y-68023619D01*
X21286410Y-67297905D01*
X21092886Y-68023619D01*
X20850981Y-67007619D01*
X20560695Y-67007619D02*
X19883362Y-67007619D01*
X20318790Y-68023619D01*
X36936438Y-55069619D02*
X36694533Y-56085619D01*
X36501010Y-55359905D01*
X36307486Y-56085619D01*
X36065581Y-55069619D01*
X35533390Y-55505048D02*
X35630152Y-55456667D01*
X35678533Y-55408286D01*
X35726914Y-55311524D01*
X35726914Y-55263143D01*
X35678533Y-55166381D01*
X35630152Y-55118000D01*
X35533390Y-55069619D01*
X35339867Y-55069619D01*
X35243105Y-55118000D01*
X35194724Y-55166381D01*
X35146343Y-55263143D01*
X35146343Y-55311524D01*
X35194724Y-55408286D01*
X35243105Y-55456667D01*
X35339867Y-55505048D01*
X35533390Y-55505048D01*
X35630152Y-55553429D01*
X35678533Y-55601810D01*
X35726914Y-55698571D01*
X35726914Y-55892095D01*
X35678533Y-55988857D01*
X35630152Y-56037238D01*
X35533390Y-56085619D01*
X35339867Y-56085619D01*
X35243105Y-56037238D01*
X35194724Y-55988857D01*
X35146343Y-55892095D01*
X35146343Y-55698571D01*
X35194724Y-55601810D01*
X35243105Y-55553429D01*
X35339867Y-55505048D01*
X16116904Y-20906619D02*
X16116904Y-19890619D01*
X15729857Y-19890619D01*
X15633095Y-19939000D01*
X15584714Y-19987381D01*
X15536333Y-20084143D01*
X15536333Y-20229286D01*
X15584714Y-20326048D01*
X15633095Y-20374429D01*
X15729857Y-20422810D01*
X16116904Y-20422810D01*
X15149285Y-19987381D02*
X15100904Y-19939000D01*
X15004142Y-19890619D01*
X14762238Y-19890619D01*
X14665476Y-19939000D01*
X14617095Y-19987381D01*
X14568714Y-20084143D01*
X14568714Y-20180905D01*
X14617095Y-20326048D01*
X15197666Y-20906619D01*
X14568714Y-20906619D01*
X28567743Y-57538257D02*
X28616124Y-57586638D01*
X28761267Y-57635019D01*
X28858029Y-57635019D01*
X29003171Y-57586638D01*
X29099933Y-57489876D01*
X29148314Y-57393114D01*
X29196695Y-57199590D01*
X29196695Y-57054448D01*
X29148314Y-56860924D01*
X29099933Y-56764162D01*
X29003171Y-56667400D01*
X28858029Y-56619019D01*
X28761267Y-56619019D01*
X28616124Y-56667400D01*
X28567743Y-56715781D01*
X27600124Y-57635019D02*
X28180695Y-57635019D01*
X27890409Y-57635019D02*
X27890409Y-56619019D01*
X27987171Y-56764162D01*
X28083933Y-56860924D01*
X28180695Y-56909305D01*
X27261457Y-56619019D02*
X26632505Y-56619019D01*
X26971171Y-57006067D01*
X26826029Y-57006067D01*
X26729267Y-57054448D01*
X26680886Y-57102829D01*
X26632505Y-57199590D01*
X26632505Y-57441495D01*
X26680886Y-57538257D01*
X26729267Y-57586638D01*
X26826029Y-57635019D01*
X27116314Y-57635019D01*
X27213076Y-57586638D01*
X27261457Y-57538257D01*
X19906343Y-45574857D02*
X19954724Y-45623238D01*
X20099867Y-45671619D01*
X20196629Y-45671619D01*
X20341771Y-45623238D01*
X20438533Y-45526476D01*
X20486914Y-45429714D01*
X20535295Y-45236190D01*
X20535295Y-45091048D01*
X20486914Y-44897524D01*
X20438533Y-44800762D01*
X20341771Y-44704000D01*
X20196629Y-44655619D01*
X20099867Y-44655619D01*
X19954724Y-44704000D01*
X19906343Y-44752381D01*
X18938724Y-45671619D02*
X19519295Y-45671619D01*
X19229009Y-45671619D02*
X19229009Y-44655619D01*
X19325771Y-44800762D01*
X19422533Y-44897524D01*
X19519295Y-44945905D01*
X18454914Y-45671619D02*
X18261390Y-45671619D01*
X18164629Y-45623238D01*
X18116248Y-45574857D01*
X18019486Y-45429714D01*
X17971105Y-45236190D01*
X17971105Y-44849143D01*
X18019486Y-44752381D01*
X18067867Y-44704000D01*
X18164629Y-44655619D01*
X18358152Y-44655619D01*
X18454914Y-44704000D01*
X18503295Y-44752381D01*
X18551676Y-44849143D01*
X18551676Y-45091048D01*
X18503295Y-45187810D01*
X18454914Y-45236190D01*
X18358152Y-45284571D01*
X18164629Y-45284571D01*
X18067867Y-45236190D01*
X18019486Y-45187810D01*
X17971105Y-45091048D01*
X16235438Y-45544619D02*
X15993533Y-46560619D01*
X15800010Y-45834905D01*
X15606486Y-46560619D01*
X15364581Y-45544619D01*
X15074295Y-45544619D02*
X14445343Y-45544619D01*
X14784009Y-45931667D01*
X14638867Y-45931667D01*
X14542105Y-45980048D01*
X14493724Y-46028429D01*
X14445343Y-46125190D01*
X14445343Y-46367095D01*
X14493724Y-46463857D01*
X14542105Y-46512238D01*
X14638867Y-46560619D01*
X14929152Y-46560619D01*
X15025914Y-46512238D01*
X15074295Y-46463857D01*
X25633438Y-34114619D02*
X25391533Y-35130619D01*
X25198010Y-34404905D01*
X25004486Y-35130619D01*
X24762581Y-34114619D01*
X24327152Y-35130619D02*
X24133628Y-35130619D01*
X24036867Y-35082238D01*
X23988486Y-35033857D01*
X23891724Y-34888714D01*
X23843343Y-34695190D01*
X23843343Y-34308143D01*
X23891724Y-34211381D01*
X23940105Y-34163000D01*
X24036867Y-34114619D01*
X24230390Y-34114619D01*
X24327152Y-34163000D01*
X24375533Y-34211381D01*
X24423914Y-34308143D01*
X24423914Y-34550048D01*
X24375533Y-34646810D01*
X24327152Y-34695190D01*
X24230390Y-34743571D01*
X24036867Y-34743571D01*
X23940105Y-34695190D01*
X23891724Y-34646810D01*
X23843343Y-34550048D01*
X24091295Y-46433619D02*
X24091295Y-47256095D01*
X24042914Y-47352857D01*
X23994533Y-47401238D01*
X23897771Y-47449619D01*
X23704248Y-47449619D01*
X23607486Y-47401238D01*
X23559105Y-47352857D01*
X23510724Y-47256095D01*
X23510724Y-46433619D01*
X23123676Y-46433619D02*
X22446343Y-46433619D01*
X22881771Y-47449619D01*
D12*
X15712962Y-28535381D02*
X15474867Y-29535381D01*
X15284390Y-28821095D01*
X15093914Y-29535381D01*
X14855819Y-28535381D01*
X13951057Y-29535381D02*
X14522486Y-29535381D01*
X14236772Y-29535381D02*
X14236772Y-28535381D01*
X14332010Y-28678238D01*
X14427248Y-28773476D01*
X14522486Y-28821095D01*
M02*
