M48
;DRILL file {KiCad 0.201602161416+6560~42~ubuntu15.10.1-product} date Wed 17 Feb 2016 03:47:39 PM EST
;FORMAT={2:4/ absolute / inch / suppress trailing zeros}
FMAT,2
INCH,LZ
T1C0.008
T2C0.013
T3C0.020
T4C0.031
T5C0.040
T6C0.047
%
G90
G05
M72
T1
X012461Y-012621
X012461Y-013015
X012461Y-036021
X012461Y-036415
X012854Y-012621
X012854Y-013015
X012854Y-036021
X012854Y-036415
X026461Y-012621
X026461Y-013015
X026461Y-036021
X026461Y-036415
X026854Y-012621
X026854Y-013015
X026854Y-036021
X026854Y-036415
T2
X00525Y-01819
X00525Y-04159
X00675Y-01725
X00675Y-04065
X00693Y-02574
X00693Y-04914
X00708Y-0152
X00708Y-0386
X00733Y-01723
X00733Y-04063
X00747Y-01363
X00747Y-03703
X00773Y-01725
X00773Y-04065
X00775Y-01677
X00775Y-04017
X00837Y-02241
X00837Y-04581
X00878Y-00735
X00878Y-03075
X00912Y-00735
X00912Y-03075
X00918Y-02585
X00918Y-04925
X00945Y-014
X00945Y-0374
X00961Y-02185
X00961Y-04525
X00981Y-01831
X00981Y-04171
X00995Y-02775
X00995Y-05115
X01Y-0108
X01Y-0342
X01021Y-02185
X01021Y-04525
X01027Y-01831
X01027Y-04171
X01043Y-01505
X01043Y-03845
X0109Y-0278
X0109Y-0512
X011375Y-012675
X011375Y-036075
X01191Y-01207
X01191Y-03547
X01195Y-02311
X01195Y-04651
X01196Y-01021
X01196Y-03361
X01201Y-02417
X01201Y-04757
X01215Y-01839
X01215Y-04179
X01219Y-01675
X01219Y-04015
X01245Y-02231
X01245Y-04571
X012469Y-014011
X012469Y-037411
X0126Y-0279
X0126Y-0513
X01273Y-01019
X01273Y-03359
X01275Y-0146
X01275Y-038
X01283Y-02473
X01283Y-04813
X01307Y-02155
X01307Y-04495
X01335Y-01375
X01335Y-03715
X01341Y-01207
X01341Y-03547
X013599Y-017668
X013599Y-041068
X0137Y-01485
X0137Y-03825
X01371Y-01415
X01371Y-03755
X013717Y-014491
X013717Y-037891
X01384Y-017428
X01384Y-040828
X0139Y-0279
X0139Y-0513
X01395Y-01365
X01395Y-03705
X01415Y-02705
X01415Y-05045
X0142Y-01835
X0142Y-04175
X0143Y-01465
X0143Y-03805
X0144Y-0173
X0144Y-0407
X01505Y-01325
X01505Y-03665
X01515Y-0072
X01515Y-0306
X0164Y-00565
X0164Y-02905
X01675Y-01681
X01675Y-01725
X01675Y-04021
X01675Y-04065
X01681Y-01325
X01681Y-03665
X0169Y-0111
X0169Y-0345
X01703Y-01935
X01703Y-04275
X01725Y-01489
X01725Y-03829
X0173Y-0071
X0173Y-0305
X01738Y-019
X01738Y-0424
X01769Y-01457
X01769Y-03797
X0177Y-01
X0177Y-0334
X01775Y-0071
X01775Y-0305
X01801Y-01521
X01801Y-03861
X01839Y-01787
X01839Y-04127
X01925Y-01819
X01925Y-04159
X02075Y-01725
X02075Y-04065
X02093Y-02574
X02093Y-04914
X02108Y-0152
X02108Y-0386
X02133Y-01723
X02133Y-04063
X02147Y-01363
X02147Y-03703
X02173Y-01725
X02173Y-04065
X02175Y-01677
X02175Y-04017
X02237Y-02241
X02237Y-04581
X02278Y-00735
X02278Y-03075
X02312Y-00735
X02312Y-03075
X02318Y-02585
X02318Y-04925
X02345Y-014
X02345Y-0374
X02361Y-02185
X02361Y-04525
X02381Y-01831
X02381Y-04171
X02395Y-02775
X02395Y-05115
X024Y-0108
X024Y-0342
X02421Y-02185
X02421Y-04525
X02427Y-01831
X02427Y-04171
X02443Y-01505
X02443Y-03845
X0249Y-0278
X0249Y-0512
X025375Y-012675
X025375Y-036075
X02591Y-01207
X02591Y-03547
X02595Y-02311
X02595Y-04651
X02596Y-01021
X02596Y-03361
X02601Y-02417
X02601Y-04757
X02615Y-01839
X02615Y-04179
X02619Y-01675
X02619Y-04015
X02645Y-02231
X02645Y-04571
X026469Y-014011
X026469Y-037411
X0266Y-0279
X0266Y-0513
X02673Y-01019
X02673Y-03359
X02675Y-0146
X02675Y-038
X02683Y-02473
X02683Y-04813
X02707Y-02155
X02707Y-04495
X02735Y-01375
X02735Y-03715
X02741Y-01207
X02741Y-03547
X027599Y-017668
X027599Y-041068
X0277Y-01485
X0277Y-03825
X02771Y-01415
X02771Y-03755
X027717Y-014491
X027717Y-037891
X02784Y-017428
X02784Y-040828
X0279Y-0279
X0279Y-0513
X02795Y-01365
X02795Y-03705
X02815Y-02705
X02815Y-05045
X0282Y-01835
X0282Y-04175
X0283Y-01465
X0283Y-03805
X0284Y-0173
X0284Y-0407
X02905Y-01325
X02905Y-03665
X02915Y-0072
X02915Y-0306
X0304Y-00565
X0304Y-02905
X03075Y-01681
X03075Y-01725
X03075Y-04021
X03075Y-04065
X03081Y-01325
X03081Y-03665
X0309Y-0111
X0309Y-0345
X03103Y-01935
X03103Y-04275
X03125Y-01489
X03125Y-03829
X0313Y-0071
X0313Y-0305
X03138Y-019
X03138Y-0424
X03169Y-01457
X03169Y-03797
X0317Y-01
X0317Y-0334
X03175Y-0071
X03175Y-0305
X03201Y-01521
X03201Y-03861
X03239Y-01787
X03239Y-04127
T3
X00677Y-00949
X00677Y-03289
X00685Y-0252
X00685Y-0486
X00823Y-02782
X00823Y-05122
X00825Y-0112
X00825Y-0346
X00977Y-00716
X00977Y-03056
X010998Y-012128
X010998Y-035528
X01135Y-0267
X01135Y-0501
X0118Y-02785
X0118Y-05125
X01301Y-02561
X01301Y-04901
X01363Y-01833
X01363Y-04173
X01407Y-02608
X01407Y-04948
X01425Y-01915
X01425Y-04255
X01601Y-0072
X01601Y-0306
X01664Y-01968
X01664Y-04308
X01708Y-00569
X01708Y-02909
X02077Y-00949
X02077Y-03289
X02085Y-0252
X02085Y-0486
X02223Y-02782
X02223Y-05122
X02225Y-0112
X02225Y-0346
X02377Y-00716
X02377Y-03056
X024998Y-012128
X024998Y-035528
X02535Y-0267
X02535Y-0501
X0258Y-02785
X0258Y-05125
X02701Y-02561
X02701Y-04901
X02763Y-01833
X02763Y-04173
X02807Y-02608
X02807Y-04948
X02825Y-01915
X02825Y-04255
X03001Y-0072
X03001Y-0306
X03064Y-01968
X03064Y-04308
X03108Y-00569
X03108Y-02909
T4
X00985Y-008166
X00985Y-010134
X00985Y-031566
X00985Y-033534
X01115Y-00915
X01115Y-03255
X02385Y-008166
X02385Y-010134
X02385Y-031566
X02385Y-033534
X02515Y-00915
X02515Y-03255
T5
X00595Y-02041
X00595Y-02141
X00595Y-02241
X00595Y-04381
X00595Y-04481
X00595Y-04581
X00607Y-00581
X00607Y-00681
X00607Y-02921
X00607Y-03021
X01995Y-02041
X01995Y-02141
X01995Y-02241
X01995Y-04381
X01995Y-04481
X01995Y-04581
X02007Y-00581
X02007Y-00681
X02007Y-02921
X02007Y-03021
T6
X00583Y-0125
X00583Y-0359
X00585Y-01919
X00585Y-04259
X00603Y-01491
X00603Y-03831
X00755Y-005497
X00755Y-028897
X00819Y-02553
X00819Y-04893
X00933Y-02405
X00933Y-04745
X00977Y-01483
X00977Y-03823
X01005Y-005497
X01005Y-028897
X01221Y-02157
X01221Y-04497
X01399Y-01601
X01399Y-03941
X01417Y-02297
X01417Y-04637
X01983Y-0125
X01983Y-0359
X01985Y-01919
X01985Y-04259
X02003Y-01491
X02003Y-03831
X02155Y-005497
X02155Y-028897
X02219Y-02553
X02219Y-04893
X02333Y-02405
X02333Y-04745
X02377Y-01483
X02377Y-03823
X02405Y-005497
X02405Y-028897
X02621Y-02157
X02621Y-04497
X02799Y-01601
X02799Y-03941
X02817Y-02297
X02817Y-04637
T0
M30
