M48
;DRILL file {KiCad 0.201602161416+6560~42~ubuntu15.10.1-product} date Wed 17 Feb 2016 03:47:39 PM EST
;FORMAT={2:4/ absolute / inch / suppress trailing zeros}
FMAT,2
INCH,LZ
T1C0.024
T2C0.037
T3C0.079
%
G90
G05
M72
T1
X01305Y-02705
X01305Y-05045
X02705Y-02705
X02705Y-05045
T2
X00919Y-02655
X00919Y-04995
X01065Y-02695
X01065Y-05035
X02319Y-02655
X02319Y-04995
X02465Y-02695
X02465Y-05035
T3
X007773Y-023665
X007773Y-047065
X015883Y-012369
X015883Y-035769
X021773Y-023665
X021773Y-047065
X029883Y-012369
X029883Y-035769
T0
M30
