G04 #@! TF.FileFunction,Soldermask,Top*
%FSLAX46Y46*%
G04 Gerber Fmt 4.6, Leading zero omitted, Abs format (unit mm)*
G04 Created by KiCad (PCBNEW 0.201602161416+6560~42~ubuntu15.10.1-product) date Wed 17 Feb 2016 03:47:36 PM EST*
%MOMM*%
G01*
G04 APERTURE LIST*
%ADD10C,0.100000*%
%ADD11O,1.203200X0.503200*%
%ADD12O,0.503200X1.203200*%
%ADD13R,2.303200X2.303200*%
%ADD14R,0.863600X0.609600*%
%ADD15C,1.883200*%
%ADD16R,0.803200X1.003200*%
%ADD17C,1.753200*%
%ADD18R,0.903200X0.403200*%
%ADD19R,0.853200X0.748200*%
%ADD20C,1.653200*%
%ADD21C,0.926200*%
%ADD22C,0.765200*%
%ADD23C,0.715200*%
%ADD24C,1.427200*%
%ADD25R,1.263200X0.853200*%
%ADD26R,0.953200X1.003200*%
%ADD27R,0.683200X1.193200*%
%ADD28R,0.603200X0.803200*%
%ADD29R,0.803200X0.603200*%
%ADD30R,1.003200X0.953200*%
%ADD31R,0.803200X0.703200*%
%ADD32R,2.103200X1.803200*%
%ADD33R,1.803200X1.603200*%
%ADD34R,0.603200X1.553200*%
%ADD35C,1.803200*%
%ADD36R,0.703200X0.803200*%
%ADD37R,2.235200X2.235200*%
%ADD38O,2.235200X2.235200*%
%ADD39R,1.003200X1.603200*%
%ADD40R,1.553200X2.003200*%
%ADD41R,1.363200X1.703200*%
%ADD42R,0.853200X2.343200*%
%ADD43R,0.803200X1.353200*%
%ADD44R,0.853200X1.803200*%
%ADD45R,0.853200X1.503200*%
%ADD46R,1.303200X0.653200*%
%ADD47R,1.353200X0.653200*%
%ADD48R,3.599180X1.701800*%
%ADD49R,3.700780X1.198880*%
%ADD50C,1.353200*%
%ADD51R,0.703200X1.403200*%
%ADD52R,0.803200X1.453200*%
%ADD53R,0.803200X1.303200*%
%ADD54R,2.235200X1.930400*%
%ADD55O,2.235200X1.930400*%
G04 APERTURE END LIST*
D10*
D11*
X69510400Y-92918800D03*
X69510400Y-92268800D03*
X69510400Y-91618800D03*
X69510400Y-90968800D03*
D12*
X68635400Y-90093800D03*
D11*
X65810400Y-92918800D03*
D12*
X68635400Y-93793800D03*
X67985400Y-90093800D03*
X67335400Y-90093800D03*
X66685400Y-90093800D03*
D11*
X65810400Y-92268800D03*
X65810400Y-91618800D03*
X65810400Y-90968800D03*
D12*
X67985400Y-93793800D03*
X67335400Y-93793800D03*
X66685400Y-93793800D03*
D13*
X67660400Y-91943800D03*
D14*
X60020200Y-99923600D03*
X60020200Y-101244400D03*
X60020200Y-100584000D03*
X62052200Y-101244400D03*
X62052200Y-99923600D03*
X49860200Y-99034600D03*
X49860200Y-100355400D03*
X49860200Y-99695000D03*
X51892200Y-100355400D03*
X51892200Y-99034600D03*
D15*
X50368200Y-91186000D03*
D16*
X58293000Y-128393000D03*
X59513000Y-128393000D03*
D17*
X58903000Y-126873000D03*
D18*
X76708000Y-108044000D03*
X73628000Y-108044000D03*
X76708000Y-107644000D03*
X73628000Y-107644000D03*
X76708000Y-107244000D03*
X73628000Y-107244000D03*
X76708000Y-106844000D03*
X73628000Y-106844000D03*
X76708000Y-106444000D03*
X73628000Y-106444000D03*
X76708000Y-106044000D03*
X73628000Y-106044000D03*
X76708000Y-105644000D03*
X73628000Y-105644000D03*
X76708000Y-105244000D03*
X73628000Y-105244000D03*
X76708000Y-104844000D03*
X73628000Y-104844000D03*
X76708000Y-104444000D03*
X73628000Y-104444000D03*
X76708000Y-104044000D03*
X73628000Y-104044000D03*
X76708000Y-103644000D03*
X73628000Y-103644000D03*
X76708000Y-103244000D03*
X73628000Y-103244000D03*
X76708000Y-102844000D03*
X73628000Y-102844000D03*
X76708000Y-102444000D03*
X73628000Y-102444000D03*
X76708000Y-102044000D03*
X73628000Y-102044000D03*
X76708000Y-101644000D03*
X73628000Y-101644000D03*
X76708000Y-101244000D03*
X73628000Y-101244000D03*
X76708000Y-100844000D03*
X73628000Y-100844000D03*
X76708000Y-100444000D03*
X73628000Y-100444000D03*
X76708000Y-100044000D03*
X73628000Y-100044000D03*
X76708000Y-99644000D03*
X73628000Y-99644000D03*
X76708000Y-99244000D03*
X73628000Y-99244000D03*
X76708000Y-98844000D03*
X73628000Y-98844000D03*
X76708000Y-98444000D03*
X73628000Y-98444000D03*
X76708000Y-98044000D03*
X73628000Y-98044000D03*
X76708000Y-97644000D03*
X73628000Y-97644000D03*
X76708000Y-97244000D03*
X73628000Y-97244000D03*
X76708000Y-96844000D03*
X73628000Y-96844000D03*
X76708000Y-96444000D03*
X73628000Y-96444000D03*
X76708000Y-96044000D03*
X73628000Y-96044000D03*
X76708000Y-95644000D03*
X73628000Y-95644000D03*
X76708000Y-95244000D03*
X73628000Y-95244000D03*
X76708000Y-94844000D03*
X73628000Y-94844000D03*
X76708000Y-94444000D03*
X73628000Y-94444000D03*
D19*
X62136000Y-126411500D03*
X63086000Y-126411500D03*
D20*
X62611000Y-127889000D03*
D21*
X67741000Y-126040000D03*
D22*
X67692000Y-128777000D03*
X69722000Y-128777000D03*
D21*
X69673000Y-126040000D03*
D23*
X68707000Y-126040000D03*
D24*
X68707000Y-128143000D03*
D25*
X58224600Y-115123000D03*
X58224600Y-114173000D03*
X58224600Y-113223000D03*
X56024600Y-113223000D03*
X56024600Y-115123000D03*
X56024600Y-114173000D03*
D26*
X51943000Y-118960200D03*
X51943000Y-120460200D03*
D15*
X60375800Y-97104200D03*
X50419000Y-108178600D03*
D27*
X57084200Y-107161800D03*
X57734200Y-107161800D03*
X58384200Y-107161800D03*
X59034200Y-107161800D03*
X59034200Y-104571800D03*
X58384200Y-104571800D03*
X57734200Y-104571800D03*
X57084200Y-104571800D03*
D28*
X57538200Y-99593400D03*
X58438200Y-99593400D03*
X50869000Y-102946200D03*
X49969000Y-102946200D03*
X58438200Y-97002600D03*
X57538200Y-97002600D03*
X49969000Y-105638600D03*
X50869000Y-105638600D03*
D29*
X57734200Y-101219000D03*
X57734200Y-102119000D03*
X53314600Y-109049400D03*
X53314600Y-109949400D03*
D30*
X63791400Y-97459800D03*
X65291400Y-97459800D03*
D31*
X63737400Y-99288600D03*
X64837400Y-99288600D03*
X63737400Y-101066600D03*
X64837400Y-101066600D03*
D30*
X63334200Y-104724200D03*
X64834200Y-104724200D03*
D31*
X64888200Y-107365800D03*
X63788200Y-107365800D03*
X60486200Y-104571800D03*
X61586200Y-104571800D03*
X54271000Y-106400600D03*
X53171000Y-106400600D03*
D30*
X54166200Y-104622600D03*
X52666200Y-104622600D03*
D32*
X59112000Y-73398000D03*
X56712000Y-73398000D03*
D33*
X61112000Y-75898000D03*
X54712000Y-75898000D03*
D34*
X59212000Y-76073000D03*
X58562000Y-76073000D03*
X57912000Y-76073000D03*
X57262000Y-76073000D03*
X56612000Y-76073000D03*
D35*
X61087000Y-73398000D03*
X54737000Y-73398000D03*
D36*
X69215000Y-95462000D03*
X69215000Y-96562000D03*
X72263000Y-91228000D03*
X72263000Y-90128000D03*
D28*
X63873800Y-111734600D03*
X62973800Y-111734600D03*
D37*
X50977800Y-74193400D03*
D38*
X50977800Y-76733400D03*
D28*
X80703000Y-93091000D03*
X81603000Y-93091000D03*
D29*
X64770000Y-76846000D03*
X64770000Y-75946000D03*
D28*
X64828000Y-88011000D03*
X65728000Y-88011000D03*
D39*
X80600000Y-75819000D03*
X79500000Y-75819000D03*
X78400000Y-75819000D03*
X77300000Y-75819000D03*
X76200000Y-75819000D03*
X75100000Y-75819000D03*
X74000000Y-75819000D03*
X72900000Y-75819000D03*
D40*
X81490000Y-73769000D03*
D41*
X68170000Y-73519000D03*
D42*
X81815000Y-80399000D03*
D43*
X67890000Y-81494000D03*
D44*
X81815000Y-85479000D03*
D45*
X67915000Y-87419000D03*
D46*
X81590000Y-86984000D03*
D47*
X81565000Y-87644000D03*
D48*
X50838100Y-79220060D03*
D49*
X56388000Y-81569560D03*
X56388000Y-83566000D03*
D48*
X50838100Y-85915500D03*
D50*
X63880000Y-82677000D03*
X60580000Y-85177000D03*
X60580000Y-80177000D03*
D29*
X68834000Y-105112400D03*
X68834000Y-106012400D03*
D51*
X51496000Y-125984000D03*
X50546000Y-125984000D03*
X49596000Y-125984000D03*
X49596000Y-128334000D03*
X51496000Y-128334000D03*
D15*
X71551800Y-117779800D03*
X56362600Y-124282200D03*
X59258200Y-120523000D03*
X66573400Y-114223800D03*
X50876200Y-97307400D03*
X71094600Y-100101400D03*
D52*
X68712000Y-112649000D03*
X70612000Y-112649000D03*
X69662000Y-110499000D03*
D27*
X62987400Y-120725400D03*
X63637400Y-120725400D03*
X64287400Y-120725400D03*
X64937400Y-120725400D03*
X64937400Y-118135400D03*
X64287400Y-118135400D03*
X63637400Y-118135400D03*
X62987400Y-118135400D03*
D53*
X59984600Y-93040200D03*
X60934600Y-93040200D03*
X61884600Y-93040200D03*
X61884600Y-90240200D03*
X59984600Y-90240200D03*
D28*
X64940600Y-109956600D03*
X64040600Y-109956600D03*
X64019000Y-102793800D03*
X63119000Y-102793800D03*
X66987000Y-117627400D03*
X67887000Y-117627400D03*
X63380200Y-116052600D03*
X64280200Y-116052600D03*
X64534200Y-123469400D03*
X63634200Y-123469400D03*
D29*
X55803800Y-109949400D03*
X55803800Y-109049400D03*
X61950600Y-123513000D03*
X61950600Y-122613000D03*
D28*
X60288600Y-109956600D03*
X61188600Y-109956600D03*
D29*
X61341000Y-113911800D03*
X61341000Y-113011800D03*
D28*
X58235000Y-90170000D03*
X57335000Y-90170000D03*
D29*
X55041800Y-92779000D03*
X55041800Y-91879000D03*
D31*
X51012000Y-88646000D03*
X52112000Y-88646000D03*
D30*
X53733000Y-128905000D03*
X55233000Y-128905000D03*
D31*
X67783800Y-110261400D03*
X66683800Y-110261400D03*
D30*
X51550000Y-123444000D03*
X50050000Y-123444000D03*
D31*
X54779000Y-125984000D03*
X53679000Y-125984000D03*
D30*
X68249800Y-107518200D03*
X66749800Y-107518200D03*
D36*
X65532000Y-127466000D03*
X65532000Y-128566000D03*
D31*
X60333800Y-108280200D03*
X61433800Y-108280200D03*
X66785400Y-119456200D03*
X67885400Y-119456200D03*
X57692200Y-109956600D03*
X58792200Y-109956600D03*
D36*
X59258200Y-122411400D03*
X59258200Y-123511400D03*
D31*
X57701000Y-111531400D03*
X58801000Y-111531400D03*
X64177000Y-114274600D03*
X63077000Y-114274600D03*
X69274600Y-116103400D03*
X70374600Y-116103400D03*
X61586200Y-118135400D03*
X60486200Y-118135400D03*
D30*
X54647400Y-95275400D03*
X56147400Y-95275400D03*
X61469400Y-116306600D03*
X59969400Y-116306600D03*
D31*
X54220200Y-116459000D03*
X53120200Y-116459000D03*
X54644200Y-100507800D03*
X55744200Y-100507800D03*
X66277400Y-123469400D03*
X67377400Y-123469400D03*
X61891000Y-94996000D03*
X60791000Y-94996000D03*
X62001400Y-88112600D03*
X60901400Y-88112600D03*
X70908000Y-123571000D03*
X69808000Y-123571000D03*
X67903000Y-120980200D03*
X69003000Y-120980200D03*
D54*
X50673000Y-116357400D03*
D55*
X50673000Y-113817400D03*
X50673000Y-111277400D03*
D31*
X54593400Y-98018600D03*
X55693400Y-98018600D03*
D11*
X69510400Y-33482800D03*
X69510400Y-32832800D03*
X69510400Y-32182800D03*
X69510400Y-31532800D03*
D12*
X68635400Y-30657800D03*
D11*
X65810400Y-33482800D03*
D12*
X68635400Y-34357800D03*
X67985400Y-30657800D03*
X67335400Y-30657800D03*
X66685400Y-30657800D03*
D11*
X65810400Y-32832800D03*
X65810400Y-32182800D03*
X65810400Y-31532800D03*
D12*
X67985400Y-34357800D03*
X67335400Y-34357800D03*
X66685400Y-34357800D03*
D13*
X67660400Y-32507800D03*
D14*
X60020200Y-40487600D03*
X60020200Y-41808400D03*
X60020200Y-41148000D03*
X62052200Y-41808400D03*
X62052200Y-40487600D03*
X49860200Y-39598600D03*
X49860200Y-40919400D03*
X49860200Y-40259000D03*
X51892200Y-40919400D03*
X51892200Y-39598600D03*
D15*
X50368200Y-31750000D03*
D16*
X58293000Y-68957000D03*
X59513000Y-68957000D03*
D17*
X58903000Y-67437000D03*
D18*
X76708000Y-48608000D03*
X73628000Y-48608000D03*
X76708000Y-48208000D03*
X73628000Y-48208000D03*
X76708000Y-47808000D03*
X73628000Y-47808000D03*
X76708000Y-47408000D03*
X73628000Y-47408000D03*
X76708000Y-47008000D03*
X73628000Y-47008000D03*
X76708000Y-46608000D03*
X73628000Y-46608000D03*
X76708000Y-46208000D03*
X73628000Y-46208000D03*
X76708000Y-45808000D03*
X73628000Y-45808000D03*
X76708000Y-45408000D03*
X73628000Y-45408000D03*
X76708000Y-45008000D03*
X73628000Y-45008000D03*
X76708000Y-44608000D03*
X73628000Y-44608000D03*
X76708000Y-44208000D03*
X73628000Y-44208000D03*
X76708000Y-43808000D03*
X73628000Y-43808000D03*
X76708000Y-43408000D03*
X73628000Y-43408000D03*
X76708000Y-43008000D03*
X73628000Y-43008000D03*
X76708000Y-42608000D03*
X73628000Y-42608000D03*
X76708000Y-42208000D03*
X73628000Y-42208000D03*
X76708000Y-41808000D03*
X73628000Y-41808000D03*
X76708000Y-41408000D03*
X73628000Y-41408000D03*
X76708000Y-41008000D03*
X73628000Y-41008000D03*
X76708000Y-40608000D03*
X73628000Y-40608000D03*
X76708000Y-40208000D03*
X73628000Y-40208000D03*
X76708000Y-39808000D03*
X73628000Y-39808000D03*
X76708000Y-39408000D03*
X73628000Y-39408000D03*
X76708000Y-39008000D03*
X73628000Y-39008000D03*
X76708000Y-38608000D03*
X73628000Y-38608000D03*
X76708000Y-38208000D03*
X73628000Y-38208000D03*
X76708000Y-37808000D03*
X73628000Y-37808000D03*
X76708000Y-37408000D03*
X73628000Y-37408000D03*
X76708000Y-37008000D03*
X73628000Y-37008000D03*
X76708000Y-36608000D03*
X73628000Y-36608000D03*
X76708000Y-36208000D03*
X73628000Y-36208000D03*
X76708000Y-35808000D03*
X73628000Y-35808000D03*
X76708000Y-35408000D03*
X73628000Y-35408000D03*
X76708000Y-35008000D03*
X73628000Y-35008000D03*
D19*
X62136000Y-66975500D03*
X63086000Y-66975500D03*
D20*
X62611000Y-68453000D03*
D21*
X67741000Y-66604000D03*
D22*
X67692000Y-69341000D03*
X69722000Y-69341000D03*
D21*
X69673000Y-66604000D03*
D23*
X68707000Y-66604000D03*
D24*
X68707000Y-68707000D03*
D25*
X58224600Y-55687000D03*
X58224600Y-54737000D03*
X58224600Y-53787000D03*
X56024600Y-53787000D03*
X56024600Y-55687000D03*
X56024600Y-54737000D03*
D26*
X51943000Y-59524200D03*
X51943000Y-61024200D03*
D15*
X60375800Y-37668200D03*
X50419000Y-48742600D03*
D27*
X57084200Y-47725800D03*
X57734200Y-47725800D03*
X58384200Y-47725800D03*
X59034200Y-47725800D03*
X59034200Y-45135800D03*
X58384200Y-45135800D03*
X57734200Y-45135800D03*
X57084200Y-45135800D03*
D28*
X57538200Y-40157400D03*
X58438200Y-40157400D03*
X50869000Y-43510200D03*
X49969000Y-43510200D03*
X58438200Y-37566600D03*
X57538200Y-37566600D03*
X49969000Y-46202600D03*
X50869000Y-46202600D03*
D29*
X57734200Y-41783000D03*
X57734200Y-42683000D03*
X53314600Y-49613400D03*
X53314600Y-50513400D03*
D30*
X63791400Y-38023800D03*
X65291400Y-38023800D03*
D31*
X63737400Y-39852600D03*
X64837400Y-39852600D03*
X63737400Y-41630600D03*
X64837400Y-41630600D03*
D30*
X63334200Y-45288200D03*
X64834200Y-45288200D03*
D31*
X64888200Y-47929800D03*
X63788200Y-47929800D03*
X60486200Y-45135800D03*
X61586200Y-45135800D03*
X54271000Y-46964600D03*
X53171000Y-46964600D03*
D30*
X54166200Y-45186600D03*
X52666200Y-45186600D03*
D32*
X59112000Y-13962000D03*
X56712000Y-13962000D03*
D33*
X61112000Y-16462000D03*
X54712000Y-16462000D03*
D34*
X59212000Y-16637000D03*
X58562000Y-16637000D03*
X57912000Y-16637000D03*
X57262000Y-16637000D03*
X56612000Y-16637000D03*
D35*
X61087000Y-13962000D03*
X54737000Y-13962000D03*
D36*
X69215000Y-36026000D03*
X69215000Y-37126000D03*
X72263000Y-31792000D03*
X72263000Y-30692000D03*
D28*
X63873800Y-52298600D03*
X62973800Y-52298600D03*
D37*
X50977800Y-14757400D03*
D38*
X50977800Y-17297400D03*
D28*
X80703000Y-33655000D03*
X81603000Y-33655000D03*
D29*
X64770000Y-17410000D03*
X64770000Y-16510000D03*
D28*
X64828000Y-28575000D03*
X65728000Y-28575000D03*
D39*
X80600000Y-16383000D03*
X79500000Y-16383000D03*
X78400000Y-16383000D03*
X77300000Y-16383000D03*
X76200000Y-16383000D03*
X75100000Y-16383000D03*
X74000000Y-16383000D03*
X72900000Y-16383000D03*
D40*
X81490000Y-14333000D03*
D41*
X68170000Y-14083000D03*
D42*
X81815000Y-20963000D03*
D43*
X67890000Y-22058000D03*
D44*
X81815000Y-26043000D03*
D45*
X67915000Y-27983000D03*
D46*
X81590000Y-27548000D03*
D47*
X81565000Y-28208000D03*
D48*
X50838100Y-19784060D03*
D49*
X56388000Y-22133560D03*
X56388000Y-24130000D03*
D48*
X50838100Y-26479500D03*
D50*
X63880000Y-23241000D03*
X60580000Y-25741000D03*
X60580000Y-20741000D03*
D29*
X68834000Y-45676400D03*
X68834000Y-46576400D03*
D51*
X51496000Y-66548000D03*
X50546000Y-66548000D03*
X49596000Y-66548000D03*
X49596000Y-68898000D03*
X51496000Y-68898000D03*
D15*
X71551800Y-58343800D03*
X56362600Y-64846200D03*
X59258200Y-61087000D03*
X66573400Y-54787800D03*
X50876200Y-37871400D03*
X71094600Y-40665400D03*
D52*
X68712000Y-53213000D03*
X70612000Y-53213000D03*
X69662000Y-51063000D03*
D27*
X62987400Y-61289400D03*
X63637400Y-61289400D03*
X64287400Y-61289400D03*
X64937400Y-61289400D03*
X64937400Y-58699400D03*
X64287400Y-58699400D03*
X63637400Y-58699400D03*
X62987400Y-58699400D03*
D53*
X59984600Y-33604200D03*
X60934600Y-33604200D03*
X61884600Y-33604200D03*
X61884600Y-30804200D03*
X59984600Y-30804200D03*
D28*
X64940600Y-50520600D03*
X64040600Y-50520600D03*
X64019000Y-43357800D03*
X63119000Y-43357800D03*
X66987000Y-58191400D03*
X67887000Y-58191400D03*
X63380200Y-56616600D03*
X64280200Y-56616600D03*
X64534200Y-64033400D03*
X63634200Y-64033400D03*
D29*
X55803800Y-50513400D03*
X55803800Y-49613400D03*
X61950600Y-64077000D03*
X61950600Y-63177000D03*
D28*
X60288600Y-50520600D03*
X61188600Y-50520600D03*
D29*
X61341000Y-54475800D03*
X61341000Y-53575800D03*
D28*
X58235000Y-30734000D03*
X57335000Y-30734000D03*
D29*
X55041800Y-33343000D03*
X55041800Y-32443000D03*
D31*
X51012000Y-29210000D03*
X52112000Y-29210000D03*
D30*
X53733000Y-69469000D03*
X55233000Y-69469000D03*
D31*
X67783800Y-50825400D03*
X66683800Y-50825400D03*
D30*
X51550000Y-64008000D03*
X50050000Y-64008000D03*
D31*
X54779000Y-66548000D03*
X53679000Y-66548000D03*
D30*
X68249800Y-48082200D03*
X66749800Y-48082200D03*
D36*
X65532000Y-68030000D03*
X65532000Y-69130000D03*
D31*
X60333800Y-48844200D03*
X61433800Y-48844200D03*
X66785400Y-60020200D03*
X67885400Y-60020200D03*
X57692200Y-50520600D03*
X58792200Y-50520600D03*
D36*
X59258200Y-62975400D03*
X59258200Y-64075400D03*
D31*
X57701000Y-52095400D03*
X58801000Y-52095400D03*
X64177000Y-54838600D03*
X63077000Y-54838600D03*
X69274600Y-56667400D03*
X70374600Y-56667400D03*
X61586200Y-58699400D03*
X60486200Y-58699400D03*
D30*
X54647400Y-35839400D03*
X56147400Y-35839400D03*
X61469400Y-56870600D03*
X59969400Y-56870600D03*
D31*
X54220200Y-57023000D03*
X53120200Y-57023000D03*
X54644200Y-41071800D03*
X55744200Y-41071800D03*
X66277400Y-64033400D03*
X67377400Y-64033400D03*
X61891000Y-35560000D03*
X60791000Y-35560000D03*
X62001400Y-28676600D03*
X60901400Y-28676600D03*
X70908000Y-64135000D03*
X69808000Y-64135000D03*
X67903000Y-61544200D03*
X69003000Y-61544200D03*
D54*
X50673000Y-56921400D03*
D55*
X50673000Y-54381400D03*
X50673000Y-51841400D03*
D31*
X54593400Y-38582600D03*
X55693400Y-38582600D03*
D11*
X33950400Y-92918800D03*
X33950400Y-92268800D03*
X33950400Y-91618800D03*
X33950400Y-90968800D03*
D12*
X33075400Y-90093800D03*
D11*
X30250400Y-92918800D03*
D12*
X33075400Y-93793800D03*
X32425400Y-90093800D03*
X31775400Y-90093800D03*
X31125400Y-90093800D03*
D11*
X30250400Y-92268800D03*
X30250400Y-91618800D03*
X30250400Y-90968800D03*
D12*
X32425400Y-93793800D03*
X31775400Y-93793800D03*
X31125400Y-93793800D03*
D13*
X32100400Y-91943800D03*
D14*
X24460200Y-99923600D03*
X24460200Y-101244400D03*
X24460200Y-100584000D03*
X26492200Y-101244400D03*
X26492200Y-99923600D03*
X14300200Y-99034600D03*
X14300200Y-100355400D03*
X14300200Y-99695000D03*
X16332200Y-100355400D03*
X16332200Y-99034600D03*
D15*
X14808200Y-91186000D03*
D16*
X22733000Y-128393000D03*
X23953000Y-128393000D03*
D17*
X23343000Y-126873000D03*
D18*
X41148000Y-108044000D03*
X38068000Y-108044000D03*
X41148000Y-107644000D03*
X38068000Y-107644000D03*
X41148000Y-107244000D03*
X38068000Y-107244000D03*
X41148000Y-106844000D03*
X38068000Y-106844000D03*
X41148000Y-106444000D03*
X38068000Y-106444000D03*
X41148000Y-106044000D03*
X38068000Y-106044000D03*
X41148000Y-105644000D03*
X38068000Y-105644000D03*
X41148000Y-105244000D03*
X38068000Y-105244000D03*
X41148000Y-104844000D03*
X38068000Y-104844000D03*
X41148000Y-104444000D03*
X38068000Y-104444000D03*
X41148000Y-104044000D03*
X38068000Y-104044000D03*
X41148000Y-103644000D03*
X38068000Y-103644000D03*
X41148000Y-103244000D03*
X38068000Y-103244000D03*
X41148000Y-102844000D03*
X38068000Y-102844000D03*
X41148000Y-102444000D03*
X38068000Y-102444000D03*
X41148000Y-102044000D03*
X38068000Y-102044000D03*
X41148000Y-101644000D03*
X38068000Y-101644000D03*
X41148000Y-101244000D03*
X38068000Y-101244000D03*
X41148000Y-100844000D03*
X38068000Y-100844000D03*
X41148000Y-100444000D03*
X38068000Y-100444000D03*
X41148000Y-100044000D03*
X38068000Y-100044000D03*
X41148000Y-99644000D03*
X38068000Y-99644000D03*
X41148000Y-99244000D03*
X38068000Y-99244000D03*
X41148000Y-98844000D03*
X38068000Y-98844000D03*
X41148000Y-98444000D03*
X38068000Y-98444000D03*
X41148000Y-98044000D03*
X38068000Y-98044000D03*
X41148000Y-97644000D03*
X38068000Y-97644000D03*
X41148000Y-97244000D03*
X38068000Y-97244000D03*
X41148000Y-96844000D03*
X38068000Y-96844000D03*
X41148000Y-96444000D03*
X38068000Y-96444000D03*
X41148000Y-96044000D03*
X38068000Y-96044000D03*
X41148000Y-95644000D03*
X38068000Y-95644000D03*
X41148000Y-95244000D03*
X38068000Y-95244000D03*
X41148000Y-94844000D03*
X38068000Y-94844000D03*
X41148000Y-94444000D03*
X38068000Y-94444000D03*
D19*
X26576000Y-126411500D03*
X27526000Y-126411500D03*
D20*
X27051000Y-127889000D03*
D21*
X32181000Y-126040000D03*
D22*
X32132000Y-128777000D03*
X34162000Y-128777000D03*
D21*
X34113000Y-126040000D03*
D23*
X33147000Y-126040000D03*
D24*
X33147000Y-128143000D03*
D25*
X22664600Y-115123000D03*
X22664600Y-114173000D03*
X22664600Y-113223000D03*
X20464600Y-113223000D03*
X20464600Y-115123000D03*
X20464600Y-114173000D03*
D26*
X16383000Y-118960200D03*
X16383000Y-120460200D03*
D15*
X24815800Y-97104200D03*
X14859000Y-108178600D03*
D27*
X21524200Y-107161800D03*
X22174200Y-107161800D03*
X22824200Y-107161800D03*
X23474200Y-107161800D03*
X23474200Y-104571800D03*
X22824200Y-104571800D03*
X22174200Y-104571800D03*
X21524200Y-104571800D03*
D28*
X21978200Y-99593400D03*
X22878200Y-99593400D03*
X15309000Y-102946200D03*
X14409000Y-102946200D03*
X22878200Y-97002600D03*
X21978200Y-97002600D03*
X14409000Y-105638600D03*
X15309000Y-105638600D03*
D29*
X22174200Y-101219000D03*
X22174200Y-102119000D03*
X17754600Y-109049400D03*
X17754600Y-109949400D03*
D30*
X28231400Y-97459800D03*
X29731400Y-97459800D03*
D31*
X28177400Y-99288600D03*
X29277400Y-99288600D03*
X28177400Y-101066600D03*
X29277400Y-101066600D03*
D30*
X27774200Y-104724200D03*
X29274200Y-104724200D03*
D31*
X29328200Y-107365800D03*
X28228200Y-107365800D03*
X24926200Y-104571800D03*
X26026200Y-104571800D03*
X18711000Y-106400600D03*
X17611000Y-106400600D03*
D30*
X18606200Y-104622600D03*
X17106200Y-104622600D03*
D32*
X23552000Y-73398000D03*
X21152000Y-73398000D03*
D33*
X25552000Y-75898000D03*
X19152000Y-75898000D03*
D34*
X23652000Y-76073000D03*
X23002000Y-76073000D03*
X22352000Y-76073000D03*
X21702000Y-76073000D03*
X21052000Y-76073000D03*
D35*
X25527000Y-73398000D03*
X19177000Y-73398000D03*
D36*
X33655000Y-95462000D03*
X33655000Y-96562000D03*
X36703000Y-91228000D03*
X36703000Y-90128000D03*
D28*
X28313800Y-111734600D03*
X27413800Y-111734600D03*
D37*
X15417800Y-74193400D03*
D38*
X15417800Y-76733400D03*
D28*
X45143000Y-93091000D03*
X46043000Y-93091000D03*
D29*
X29210000Y-76846000D03*
X29210000Y-75946000D03*
D28*
X29268000Y-88011000D03*
X30168000Y-88011000D03*
D39*
X45040000Y-75819000D03*
X43940000Y-75819000D03*
X42840000Y-75819000D03*
X41740000Y-75819000D03*
X40640000Y-75819000D03*
X39540000Y-75819000D03*
X38440000Y-75819000D03*
X37340000Y-75819000D03*
D40*
X45930000Y-73769000D03*
D41*
X32610000Y-73519000D03*
D42*
X46255000Y-80399000D03*
D43*
X32330000Y-81494000D03*
D44*
X46255000Y-85479000D03*
D45*
X32355000Y-87419000D03*
D46*
X46030000Y-86984000D03*
D47*
X46005000Y-87644000D03*
D48*
X15278100Y-79220060D03*
D49*
X20828000Y-81569560D03*
X20828000Y-83566000D03*
D48*
X15278100Y-85915500D03*
D50*
X28320000Y-82677000D03*
X25020000Y-85177000D03*
X25020000Y-80177000D03*
D29*
X33274000Y-105112400D03*
X33274000Y-106012400D03*
D51*
X15936000Y-125984000D03*
X14986000Y-125984000D03*
X14036000Y-125984000D03*
X14036000Y-128334000D03*
X15936000Y-128334000D03*
D15*
X35991800Y-117779800D03*
X20802600Y-124282200D03*
X23698200Y-120523000D03*
X31013400Y-114223800D03*
X15316200Y-97307400D03*
X35534600Y-100101400D03*
D52*
X33152000Y-112649000D03*
X35052000Y-112649000D03*
X34102000Y-110499000D03*
D27*
X27427400Y-120725400D03*
X28077400Y-120725400D03*
X28727400Y-120725400D03*
X29377400Y-120725400D03*
X29377400Y-118135400D03*
X28727400Y-118135400D03*
X28077400Y-118135400D03*
X27427400Y-118135400D03*
D53*
X24424600Y-93040200D03*
X25374600Y-93040200D03*
X26324600Y-93040200D03*
X26324600Y-90240200D03*
X24424600Y-90240200D03*
D28*
X29380600Y-109956600D03*
X28480600Y-109956600D03*
X28459000Y-102793800D03*
X27559000Y-102793800D03*
X31427000Y-117627400D03*
X32327000Y-117627400D03*
X27820200Y-116052600D03*
X28720200Y-116052600D03*
X28974200Y-123469400D03*
X28074200Y-123469400D03*
D29*
X20243800Y-109949400D03*
X20243800Y-109049400D03*
X26390600Y-123513000D03*
X26390600Y-122613000D03*
D28*
X24728600Y-109956600D03*
X25628600Y-109956600D03*
D29*
X25781000Y-113911800D03*
X25781000Y-113011800D03*
D28*
X22675000Y-90170000D03*
X21775000Y-90170000D03*
D29*
X19481800Y-92779000D03*
X19481800Y-91879000D03*
D31*
X15452000Y-88646000D03*
X16552000Y-88646000D03*
D30*
X18173000Y-128905000D03*
X19673000Y-128905000D03*
D31*
X32223800Y-110261400D03*
X31123800Y-110261400D03*
D30*
X15990000Y-123444000D03*
X14490000Y-123444000D03*
D31*
X19219000Y-125984000D03*
X18119000Y-125984000D03*
D30*
X32689800Y-107518200D03*
X31189800Y-107518200D03*
D36*
X29972000Y-127466000D03*
X29972000Y-128566000D03*
D31*
X24773800Y-108280200D03*
X25873800Y-108280200D03*
X31225400Y-119456200D03*
X32325400Y-119456200D03*
X22132200Y-109956600D03*
X23232200Y-109956600D03*
D36*
X23698200Y-122411400D03*
X23698200Y-123511400D03*
D31*
X22141000Y-111531400D03*
X23241000Y-111531400D03*
X28617000Y-114274600D03*
X27517000Y-114274600D03*
X33714600Y-116103400D03*
X34814600Y-116103400D03*
X26026200Y-118135400D03*
X24926200Y-118135400D03*
D30*
X19087400Y-95275400D03*
X20587400Y-95275400D03*
X25909400Y-116306600D03*
X24409400Y-116306600D03*
D31*
X18660200Y-116459000D03*
X17560200Y-116459000D03*
X19084200Y-100507800D03*
X20184200Y-100507800D03*
X30717400Y-123469400D03*
X31817400Y-123469400D03*
X26331000Y-94996000D03*
X25231000Y-94996000D03*
X26441400Y-88112600D03*
X25341400Y-88112600D03*
X35348000Y-123571000D03*
X34248000Y-123571000D03*
X32343000Y-120980200D03*
X33443000Y-120980200D03*
D54*
X15113000Y-116357400D03*
D55*
X15113000Y-113817400D03*
X15113000Y-111277400D03*
D31*
X19033400Y-98018600D03*
X20133400Y-98018600D03*
X19033400Y-38582600D03*
X20133400Y-38582600D03*
D54*
X15113000Y-56921400D03*
D55*
X15113000Y-54381400D03*
X15113000Y-51841400D03*
D31*
X32343000Y-61544200D03*
X33443000Y-61544200D03*
X35348000Y-64135000D03*
X34248000Y-64135000D03*
X26441400Y-28676600D03*
X25341400Y-28676600D03*
X26331000Y-35560000D03*
X25231000Y-35560000D03*
X30717400Y-64033400D03*
X31817400Y-64033400D03*
X19084200Y-41071800D03*
X20184200Y-41071800D03*
X18660200Y-57023000D03*
X17560200Y-57023000D03*
D30*
X25909400Y-56870600D03*
X24409400Y-56870600D03*
X19087400Y-35839400D03*
X20587400Y-35839400D03*
D31*
X26026200Y-58699400D03*
X24926200Y-58699400D03*
X33714600Y-56667400D03*
X34814600Y-56667400D03*
X28617000Y-54838600D03*
X27517000Y-54838600D03*
X22141000Y-52095400D03*
X23241000Y-52095400D03*
D36*
X23698200Y-62975400D03*
X23698200Y-64075400D03*
D31*
X22132200Y-50520600D03*
X23232200Y-50520600D03*
X31225400Y-60020200D03*
X32325400Y-60020200D03*
X24773800Y-48844200D03*
X25873800Y-48844200D03*
D36*
X29972000Y-68030000D03*
X29972000Y-69130000D03*
D30*
X32689800Y-48082200D03*
X31189800Y-48082200D03*
D31*
X19219000Y-66548000D03*
X18119000Y-66548000D03*
D30*
X15990000Y-64008000D03*
X14490000Y-64008000D03*
D31*
X32223800Y-50825400D03*
X31123800Y-50825400D03*
D30*
X18173000Y-69469000D03*
X19673000Y-69469000D03*
D31*
X15452000Y-29210000D03*
X16552000Y-29210000D03*
D29*
X19481800Y-33343000D03*
X19481800Y-32443000D03*
D28*
X22675000Y-30734000D03*
X21775000Y-30734000D03*
D29*
X25781000Y-54475800D03*
X25781000Y-53575800D03*
D28*
X24728600Y-50520600D03*
X25628600Y-50520600D03*
D29*
X26390600Y-64077000D03*
X26390600Y-63177000D03*
X20243800Y-50513400D03*
X20243800Y-49613400D03*
D28*
X28974200Y-64033400D03*
X28074200Y-64033400D03*
X27820200Y-56616600D03*
X28720200Y-56616600D03*
X31427000Y-58191400D03*
X32327000Y-58191400D03*
X28459000Y-43357800D03*
X27559000Y-43357800D03*
X29380600Y-50520600D03*
X28480600Y-50520600D03*
D53*
X24424600Y-33604200D03*
X25374600Y-33604200D03*
X26324600Y-33604200D03*
X26324600Y-30804200D03*
X24424600Y-30804200D03*
D27*
X27427400Y-61289400D03*
X28077400Y-61289400D03*
X28727400Y-61289400D03*
X29377400Y-61289400D03*
X29377400Y-58699400D03*
X28727400Y-58699400D03*
X28077400Y-58699400D03*
X27427400Y-58699400D03*
D52*
X33152000Y-53213000D03*
X35052000Y-53213000D03*
X34102000Y-51063000D03*
D15*
X35534600Y-40665400D03*
X15316200Y-37871400D03*
X31013400Y-54787800D03*
X23698200Y-61087000D03*
X20802600Y-64846200D03*
X35991800Y-58343800D03*
D51*
X15936000Y-66548000D03*
X14986000Y-66548000D03*
X14036000Y-66548000D03*
X14036000Y-68898000D03*
X15936000Y-68898000D03*
D29*
X33274000Y-45676400D03*
X33274000Y-46576400D03*
D50*
X28320000Y-23241000D03*
X25020000Y-25741000D03*
X25020000Y-20741000D03*
D48*
X15278100Y-19784060D03*
D49*
X20828000Y-22133560D03*
X20828000Y-24130000D03*
D48*
X15278100Y-26479500D03*
D39*
X45040000Y-16383000D03*
X43940000Y-16383000D03*
X42840000Y-16383000D03*
X41740000Y-16383000D03*
X40640000Y-16383000D03*
X39540000Y-16383000D03*
X38440000Y-16383000D03*
X37340000Y-16383000D03*
D40*
X45930000Y-14333000D03*
D41*
X32610000Y-14083000D03*
D42*
X46255000Y-20963000D03*
D43*
X32330000Y-22058000D03*
D44*
X46255000Y-26043000D03*
D45*
X32355000Y-27983000D03*
D46*
X46030000Y-27548000D03*
D47*
X46005000Y-28208000D03*
D28*
X29268000Y-28575000D03*
X30168000Y-28575000D03*
D29*
X29210000Y-17410000D03*
X29210000Y-16510000D03*
D28*
X45143000Y-33655000D03*
X46043000Y-33655000D03*
D37*
X15417800Y-14757400D03*
D38*
X15417800Y-17297400D03*
D28*
X28313800Y-52298600D03*
X27413800Y-52298600D03*
D36*
X36703000Y-31792000D03*
X36703000Y-30692000D03*
X33655000Y-36026000D03*
X33655000Y-37126000D03*
D32*
X23552000Y-13962000D03*
X21152000Y-13962000D03*
D33*
X25552000Y-16462000D03*
X19152000Y-16462000D03*
D34*
X23652000Y-16637000D03*
X23002000Y-16637000D03*
X22352000Y-16637000D03*
X21702000Y-16637000D03*
X21052000Y-16637000D03*
D35*
X25527000Y-13962000D03*
X19177000Y-13962000D03*
D30*
X18606200Y-45186600D03*
X17106200Y-45186600D03*
D31*
X18711000Y-46964600D03*
X17611000Y-46964600D03*
X24926200Y-45135800D03*
X26026200Y-45135800D03*
X29328200Y-47929800D03*
X28228200Y-47929800D03*
D30*
X27774200Y-45288200D03*
X29274200Y-45288200D03*
D31*
X28177400Y-41630600D03*
X29277400Y-41630600D03*
X28177400Y-39852600D03*
X29277400Y-39852600D03*
D30*
X28231400Y-38023800D03*
X29731400Y-38023800D03*
D29*
X17754600Y-49613400D03*
X17754600Y-50513400D03*
X22174200Y-41783000D03*
X22174200Y-42683000D03*
D28*
X14409000Y-46202600D03*
X15309000Y-46202600D03*
X22878200Y-37566600D03*
X21978200Y-37566600D03*
X15309000Y-43510200D03*
X14409000Y-43510200D03*
X21978200Y-40157400D03*
X22878200Y-40157400D03*
D27*
X21524200Y-47725800D03*
X22174200Y-47725800D03*
X22824200Y-47725800D03*
X23474200Y-47725800D03*
X23474200Y-45135800D03*
X22824200Y-45135800D03*
X22174200Y-45135800D03*
X21524200Y-45135800D03*
D15*
X14859000Y-48742600D03*
X24815800Y-37668200D03*
D26*
X16383000Y-59524200D03*
X16383000Y-61024200D03*
D25*
X22664600Y-55687000D03*
X22664600Y-54737000D03*
X22664600Y-53787000D03*
X20464600Y-53787000D03*
X20464600Y-55687000D03*
X20464600Y-54737000D03*
D21*
X32181000Y-66604000D03*
D22*
X32132000Y-69341000D03*
X34162000Y-69341000D03*
D21*
X34113000Y-66604000D03*
D23*
X33147000Y-66604000D03*
D24*
X33147000Y-68707000D03*
D19*
X26576000Y-66975500D03*
X27526000Y-66975500D03*
D20*
X27051000Y-68453000D03*
D18*
X41148000Y-48608000D03*
X38068000Y-48608000D03*
X41148000Y-48208000D03*
X38068000Y-48208000D03*
X41148000Y-47808000D03*
X38068000Y-47808000D03*
X41148000Y-47408000D03*
X38068000Y-47408000D03*
X41148000Y-47008000D03*
X38068000Y-47008000D03*
X41148000Y-46608000D03*
X38068000Y-46608000D03*
X41148000Y-46208000D03*
X38068000Y-46208000D03*
X41148000Y-45808000D03*
X38068000Y-45808000D03*
X41148000Y-45408000D03*
X38068000Y-45408000D03*
X41148000Y-45008000D03*
X38068000Y-45008000D03*
X41148000Y-44608000D03*
X38068000Y-44608000D03*
X41148000Y-44208000D03*
X38068000Y-44208000D03*
X41148000Y-43808000D03*
X38068000Y-43808000D03*
X41148000Y-43408000D03*
X38068000Y-43408000D03*
X41148000Y-43008000D03*
X38068000Y-43008000D03*
X41148000Y-42608000D03*
X38068000Y-42608000D03*
X41148000Y-42208000D03*
X38068000Y-42208000D03*
X41148000Y-41808000D03*
X38068000Y-41808000D03*
X41148000Y-41408000D03*
X38068000Y-41408000D03*
X41148000Y-41008000D03*
X38068000Y-41008000D03*
X41148000Y-40608000D03*
X38068000Y-40608000D03*
X41148000Y-40208000D03*
X38068000Y-40208000D03*
X41148000Y-39808000D03*
X38068000Y-39808000D03*
X41148000Y-39408000D03*
X38068000Y-39408000D03*
X41148000Y-39008000D03*
X38068000Y-39008000D03*
X41148000Y-38608000D03*
X38068000Y-38608000D03*
X41148000Y-38208000D03*
X38068000Y-38208000D03*
X41148000Y-37808000D03*
X38068000Y-37808000D03*
X41148000Y-37408000D03*
X38068000Y-37408000D03*
X41148000Y-37008000D03*
X38068000Y-37008000D03*
X41148000Y-36608000D03*
X38068000Y-36608000D03*
X41148000Y-36208000D03*
X38068000Y-36208000D03*
X41148000Y-35808000D03*
X38068000Y-35808000D03*
X41148000Y-35408000D03*
X38068000Y-35408000D03*
X41148000Y-35008000D03*
X38068000Y-35008000D03*
D16*
X22733000Y-68957000D03*
X23953000Y-68957000D03*
D17*
X23343000Y-67437000D03*
D15*
X14808200Y-31750000D03*
D14*
X14300200Y-39598600D03*
X14300200Y-40919400D03*
X14300200Y-40259000D03*
X16332200Y-40919400D03*
X16332200Y-39598600D03*
X24460200Y-40487600D03*
X24460200Y-41808400D03*
X24460200Y-41148000D03*
X26492200Y-41808400D03*
X26492200Y-40487600D03*
D11*
X33950400Y-33482800D03*
X33950400Y-32832800D03*
X33950400Y-32182800D03*
X33950400Y-31532800D03*
D12*
X33075400Y-30657800D03*
D11*
X30250400Y-33482800D03*
D12*
X33075400Y-34357800D03*
X32425400Y-30657800D03*
X31775400Y-30657800D03*
X31125400Y-30657800D03*
D11*
X30250400Y-32832800D03*
X30250400Y-32182800D03*
X30250400Y-31532800D03*
D12*
X32425400Y-34357800D03*
X31775400Y-34357800D03*
X31125400Y-34357800D03*
D13*
X32100400Y-32507800D03*
M02*
